<?xml version="1.0" standalone="no"?>
<!DOCTYPE svg PUBLIC "-//W3C//DTD SVG 1.1//EN" "http://www.w3.org/Graphics/SVG/1.1/DTD/svg11.dtd" >
<svg xmlns="http://www.w3.org/2000/svg" xmlns:xlink="http://www.w3.org/1999/xlink" version="1.1">
<metadata></metadata>
<defs>
<font id="playfair_display_scbold" horiz-adv-x="1364" >
<font-face units-per-em="2048" ascent="1638" descent="-410" />
<missing-glyph horiz-adv-x="478" />
<glyph unicode="&#xd;" horiz-adv-x="0" />
<glyph unicode=" "  horiz-adv-x="478" />
<glyph unicode="&#x09;" horiz-adv-x="478" />
<glyph unicode="&#xa0;" horiz-adv-x="478" />
<glyph unicode="!" horiz-adv-x="591" d="M121 129q0 74 47 116.5t127 42.5q81 0 128 -42.5t47 -116.5q0 -73 -47 -115.5t-128 -42.5q-80 0 -127 42.5t-47 115.5zM127 1401q0 93 47 147t121 54q69 0 118.5 -54.5t49.5 -146.5q0 -95 -34.5 -261t-72 -367t-42.5 -372h-37q-4 135 -28.5 292t-51 271.5t-48.5 236.5 t-22 200z" />
<glyph unicode="&#x22;" horiz-adv-x="757" d="M85 1357q0 62 36.5 99.5t92.5 38.5q56 0 92.5 -37t36.5 -99q0 -55 -15.5 -106.5t-46.5 -133.5t-52 -161h-29q-21 73 -52.5 155.5t-47 135.5t-15.5 108zM414 1357q0 62 36.5 99.5t92.5 38.5q56 0 92.5 -37t36.5 -99q0 -55 -15.5 -106.5t-46.5 -133.5t-52 -161h-29 q-21 73 -52.5 155.5t-47 135.5t-15.5 108z" />
<glyph unicode="#" horiz-adv-x="1270" d="M81 506l8 41h302l66 342h-300l6 41h302l58 303h41l-58 -303h342l58 303h41l-58 -303h300l-6 -41h-302l-66 -342h300l-8 -41h-300l-58 -299h-41l58 299h-342l-58 -299h-41l58 299h-302zM432 547h342l66 342h-342z" />
<glyph unicode="$" horiz-adv-x="1176" d="M102 -14q8 128 8 553h47q20 -246 95 -367t231 -147v601l-6 4q-58 37 -95.5 63t-84.5 63t-76.5 71.5t-56.5 77.5t-39.5 92.5t-12.5 104.5q0 161 104 254.5t267 114.5v249h41v-246q32 2 47 2q60 0 111 -8v252h41v-260q67 -16 147 -63q48 -29 70 -29q18 0 28 21t17 69h47 q-10 -135 -10 -467h-48q-13 112 -40 193t-80 143t-131 87v-561l32 -21q68 -43 113 -75.5t93 -77t76 -87.5t46 -100t18 -122q0 -162 -104.5 -261.5t-273.5 -127.5v-251h-41v246q-48 -5 -88 -5q-37 0 -70 3v-244h-41v249q-16 2 -31.5 5t-30 7t-25.5 7t-25 8t-20.5 7.5t-20.5 9 t-17 8l-17 8.5t-15 7q-60 30 -87 30q-19 0 -29 -21.5t-16 -68.5h-47zM359 1239q0 -61 26 -108.5t98 -107.5v389q-61 -22 -92.5 -67t-31.5 -106zM524 20q30 -3 63 -3q50 0 95 8v460q-59 45 -158 113v-578zM524 990q60 -46 158 -110v544q-34 7 -78 7q-38 0 -80 -7v-434z M723 36q140 44 140 192q0 61 -28.5 109.5t-111.5 115.5v-417z" />
<glyph unicode="%" horiz-adv-x="1491" d="M68 1214q0 152 94.5 248.5t238.5 96.5q150 0 241.5 -89t91.5 -245q0 -154 -94 -249t-239 -95q-150 0 -241.5 89t-91.5 244zM136 -86l1198 1774l39 -27l-1198 -1774zM264 1217q0 -147 37.5 -223t104.5 -76q131 0 131 303q0 148 -36.5 224.5t-103.5 76.5q-133 0 -133 -305z M756 305q0 152 94.5 248t239.5 96q150 0 241 -89t91 -245q0 -153 -94 -248.5t-238 -95.5q-150 0 -242 89t-92 245zM952 307q0 -146 37.5 -222.5t104.5 -76.5q131 0 131 303q0 149 -36.5 225t-103.5 76q-133 0 -133 -305z" />
<glyph unicode="&#x26;" horiz-adv-x="1838" d="M85 481q0 87 33 161t79.5 121.5t107.5 84.5t107 54.5t89 27.5q-232 91 -232 258q0 84 60 146t151 91t197 29q129 0 213 -42q123 -62 123 -166q0 -61 -46 -99t-111 -38q-64 0 -106.5 33t-42.5 94q0 52 36.5 93.5t94.5 53.5q-40 36 -135 36q-113 0 -184.5 -69t-71.5 -199 q0 -118 80 -209q67 16 115 16q36 0 56 -14.5t20 -39.5q0 -20 -16.5 -31.5t-41.5 -11.5q-52 0 -131 52q-104 -53 -160.5 -131.5t-56.5 -199.5q0 -198 158 -298t439 -100q105 0 204 23.5t180 67t130.5 113t49.5 153.5q0 187 -155 260q-32 -9 -123 -34.5t-125 -36.5 q-171 -37 -251 -81t-80 -117q0 -72 69 -118.5t153 -46.5q63 0 82 21q-104 34 -104 134q0 63 46 99t118 36q74 0 116 -37.5t42 -101.5q0 -92 -81 -139t-209 -47q-131 0 -218 67.5t-87 195.5q0 153 117 242.5t341 133.5q245 61 306 82q159 39 233.5 84.5t74.5 118.5 q0 80 -70.5 133t-160.5 53q-38 0 -58 -10q47 -19 73 -55t26 -75q0 -61 -46 -96t-117 -35q-72 0 -116 36.5t-44 99.5q0 81 69 126.5t187 45.5q146 0 236 -77t90 -212q0 -151 -106.5 -237t-309.5 -128l-38 -13q92 -41 142 -131t50 -208q0 -217 -196.5 -359.5t-510.5 -142.5 q-225 0 -395.5 61.5t-264 177t-93.5 271.5z" />
<glyph unicode="'" horiz-adv-x="428" d="M85 1357q0 62 36.5 99.5t92.5 38.5q56 0 92.5 -37t36.5 -99q0 -55 -15.5 -106.5t-46.5 -133.5t-52 -161h-29q-21 73 -52.5 155.5t-47 135.5t-15.5 108z" />
<glyph unicode="(" horiz-adv-x="651" d="M71 639q0 634 512 1012l30 -26q-135 -212 -197 -449.5t-62 -536.5t61.5 -534t197.5 -452l-30 -26q-512 378 -512 1012z" />
<glyph unicode=")" horiz-adv-x="651" d="M38 -347q136 217 197.5 452t61.5 534t-62 536.5t-197 449.5l30 26q512 -378 512 -1012t-512 -1012z" />
<glyph unicode="*" horiz-adv-x="984" d="M103 897q0 52 62 88q23 13 57.5 23.5t66 16.5t89.5 16t101 19q-40 8 -99 18t-90.5 16t-67 16.5t-58.5 23.5q-61 36 -61 89q0 28 16 54q29 50 79 50q31 0 65 -20q30 -17 58.5 -45.5t82 -93t82.5 -97.5q-14 43 -42.5 118.5t-40 117t-11.5 75.5q0 57 29.5 84t71.5 27 q41 0 69.5 -27t28.5 -84q0 -34 -10.5 -72.5t-39 -116t-42.5 -119.5q27 31 80.5 94.5t82.5 93.5t58 47q33 19 65 19q55 0 81 -51q16 -26 16 -53q0 -52 -62 -88q-23 -13 -57 -23.5t-65 -16t-88.5 -15.5t-100.5 -19q40 -8 98 -18t89.5 -16t66.5 -16.5t58 -23.5q61 -35 61 -90 q0 -26 -15 -53q-29 -50 -79 -50q-30 0 -66 20q-23 13 -49.5 38t-46 48t-59 70t-66.5 78q13 -39 33 -94.5t31 -86.5t20 -67t9 -62q-1 -57 -30 -83.5t-71 -26.5t-70.5 26.5t-28.5 83.5q0 27 8.5 62t19 64.5t31 85.5t34.5 97q-28 -31 -66 -76t-59 -70t-47.5 -50.5t-49.5 -38.5 q-33 -19 -64 -19q-54 0 -82 51q-16 26 -16 52z" />
<glyph unicode="+" horiz-adv-x="1175" d="M75 696v62h477v483h73v-483h476v-62h-476v-481h-73v481h-477z" />
<glyph unicode="," horiz-adv-x="555" d="M101 129q0 71 47.5 115t120.5 44q98 0 146 -72q44 -66 44 -171q0 -106 -54 -192.5t-160 -135.5l-19 37q58 26 101.5 76.5t53.5 104.5q5 20 5 46q0 22 -4 39q-46 -49 -120 -49q-72 0 -116.5 42t-44.5 116z" />
<glyph unicode="-" horiz-adv-x="985" d="M123 469v170h739v-170h-739z" />
<glyph unicode="." horiz-adv-x="553" d="M102 129q0 74 47 116.5t127 42.5q81 0 128 -42.5t47 -116.5q0 -73 -47 -115.5t-128 -42.5q-80 0 -127 42.5t-47 115.5z" />
<glyph unicode="/" horiz-adv-x="754" d="M66 -29l557 1508h68l-557 -1508h-68z" />
<glyph unicode="0" horiz-adv-x="1321" d="M92 514q0 247 160.5 410.5t418.5 163.5q246 0 401.5 -149t155.5 -392q0 -248 -161.5 -412t-417.5 -164q-244 0 -400.5 149.5t-156.5 393.5zM401 521q0 -261 74.5 -387t191.5 -126q112 0 182 143.5t70 389.5q0 259 -74.5 384.5t-191.5 125.5q-112 0 -182 -142t-70 -388z " />
<glyph unicode="1" horiz-adv-x="785" d="M83 933v45q179 3 293.5 26.5t201.5 77.5v-883q0 -90 33 -123t115 -33v-43q-220 8 -283 8q-68 0 -352 -8v43q97 0 144.5 36.5t47.5 131.5v500q0 75 -8.5 118t-34 66.5t-60 30.5t-97.5 7z" />
<glyph unicode="2" horiz-adv-x="1072" d="M84 832q152 256 478 256q160 0 251.5 -68.5t91.5 -191.5q0 -63 -30 -123t-75.5 -107t-108 -96.5t-120 -88t-118.5 -85t-97 -84.5h444q80 0 104.5 18.5t32.5 73.5h42q0 -242 8 -346q-46 10 -305 10h-596v40q28 29 89.5 85t109.5 100.5t107 111.5t98.5 128.5t66.5 139.5 t27 156q0 209 -192 209q-162 0 -274 -160z" />
<glyph unicode="3" horiz-adv-x="999" d="M60 -269q78 3 156.5 23t152 59.5t130 93.5t90.5 130t34 164q0 120 -58 198.5t-157 85.5q-75 -33 -106 -33q-37 0 -37 30q0 22 18.5 33t46.5 11q13 0 37.5 -3t34.5 -4q158 110 158 274q0 91 -48 136t-134 45q-82 0 -151 -41t-117 -120l-36 19q30 54 65.5 96.5t86.5 80.5 t121.5 58.5t156.5 20.5q154 0 252 -63.5t98 -172.5q0 -116 -112 -208.5t-303 -129.5q7 0 19 0.5t18 0.5q200 0 326 -82.5t126 -230.5q0 -91 -51.5 -173t-138 -142.5t-198 -105.5t-235 -67.5t-245.5 -22.5v40z" />
<glyph unicode="4" horiz-adv-x="1081" d="M16 74v43l764 971h33v-803h17q81 0 105 18.5t32 73.5h43q0 -218 8 -314q-33 8 -205 10v-362h-238v363h-559zM204 285h371v476z" />
<glyph unicode="5" horiz-adv-x="941" d="M61 -266q96 1 185.5 32t161.5 88t115.5 146.5t43.5 198.5q0 128 -60 197.5t-174 69.5q-56 0 -98 -14.5t-88 -45.5l-27 19l64 641q41 -8 111 -8h337q60 0 83.5 17t29.5 62h43q0 -229 9 -344q-44 10 -285 10h-315l-34 -350q122 82 310 82q197 0 298 -90t101 -233 q0 -115 -72 -214t-188 -163.5t-260 -101t-291 -36.5v37z" />
<glyph unicode="6" horiz-adv-x="1150" d="M97 554q0 177 54.5 327t139 250.5t196 176.5t217 116t210.5 57l8 -41q-53 -17 -94 -33.5t-91 -45t-88 -62.5t-78 -85.5t-68.5 -113.5t-51.5 -147t-34 -186q42 69 114.5 102t154.5 33q170 0 286 -121t116 -323q0 -114 -41 -207.5t-111.5 -154t-162.5 -93t-196 -32.5 q-225 0 -352.5 153.5t-127.5 429.5zM406 544q0 -99 8 -181t22 -139t32 -99t40.5 -66t44.5 -35.5t46 -11.5q76 0 128 106t52 323q0 208 -48.5 305t-126.5 97q-53 0 -108.5 -38t-84.5 -116q-5 -77 -5 -145z" />
<glyph unicode="7" horiz-adv-x="932" d="M48 1068q46 -10 305 -10h578v-43q-25 -57 -78.5 -153.5t-97.5 -182t-89 -192t-70.5 -228.5t-25.5 -247q0 -11 5 -77.5t5 -87.5q0 -63 -39 -106.5t-112 -43.5t-110.5 49t-37.5 131q0 81 25 168.5t60.5 161t93.5 163t104 151t113 150t102 137.5h-543q-81 0 -105 -18 t-33 -74h-42q0 248 -8 352z" />
<glyph unicode="8" horiz-adv-x="1149" d="M88 322q0 250 333 397q-61 52 -101.5 93.5t-81.5 96t-61.5 113.5t-20.5 124q0 106 61.5 183.5t157.5 113.5t214 36q178 0 290 -79t112 -208q0 -101 -71 -179.5t-211 -152.5q147 -125 199 -179q152 -158 157 -313v-10q0 -170 -142 -278.5t-361 -108.5q-129 0 -234.5 38.5 t-172.5 119.5t-67 193zM342 358q0 -100 20.5 -175t74 -125t136.5 -50q96 0 151.5 60.5t55.5 160.5q0 67 -22.5 126.5t-76.5 121.5t-90.5 95.5t-116.5 101.5l-21 18q-111 -116 -111 -334zM426 1272q0 -54 19 -106t57.5 -101t78 -88.5t97.5 -89.5q39 55 57.5 134.5t18.5 153.5 q0 125 -48 196t-133 71q-68 0 -107.5 -46.5t-39.5 -123.5z" />
<glyph unicode="9" horiz-adv-x="1132" d="M59 602q0 151 71 263.5t185 167.5t254 55q226 0 353.5 -148.5t127.5 -417.5q0 -114 -28 -216.5t-75.5 -181.5t-112.5 -146.5t-137 -115.5t-152 -84.5t-154 -57t-146 -30.5l-8 40q70 20 123.5 42t116 65t107 99t83 145t56.5 202q-43 -64 -113 -94.5t-150 -30.5 q-169 0 -285 121t-116 323zM368 618q0 -207 48 -304t126 -97q51 0 105.5 36.5t85.5 110.5q8 83 8 168q0 141 -17 246t-46 161t-61.5 82t-68.5 26q-77 0 -128.5 -106t-51.5 -323z" />
<glyph unicode=":" horiz-adv-x="594" d="M122 129q0 74 47 116.5t127 42.5q81 0 128 -42.5t47 -116.5q0 -73 -47 -115.5t-128 -42.5q-80 0 -127 42.5t-47 115.5zM122 929q0 74 47 116.5t127 42.5q81 0 128 -42.5t47 -116.5q0 -73 -47 -115.5t-128 -42.5q-80 0 -127 42.5t-47 115.5z" />
<glyph unicode=";" horiz-adv-x="607" d="M125 129q0 71 47.5 115t120.5 44q98 0 146 -72q44 -66 44 -171q0 -106 -54 -192.5t-160 -135.5l-19 37q58 26 101.5 76.5t53.5 104.5q5 20 5 46q0 22 -4 39q-46 -49 -120 -49q-72 0 -116.5 42t-44.5 116zM130 929q0 74 47 116.5t127 42.5q81 0 128 -42.5t47 -116.5 q0 -73 -47 -115.5t-128 -42.5q-80 0 -127 42.5t-47 115.5z" />
<glyph unicode="&#x3c;" horiz-adv-x="1233" d="M58 727l997 465l35 -74l-838 -391l838 -391l-35 -74z" />
<glyph unicode="=" horiz-adv-x="1300" d="M137 553v61h1026v-61h-1026zM137 840v61h1026v-61h-1026z" />
<glyph unicode="&#x3e;" horiz-adv-x="1233" d="M143 336l838 391l-838 391l35 74l997 -465l-997 -465z" />
<glyph unicode="?" horiz-adv-x="1040" d="M62 1352q0 107 117 177q122 73 306 73q221 0 356 -99.5t135 -269.5q0 -168 -140 -284t-382 -171v-299h-41v318q83 36 138.5 80.5t83 97t38 103t10.5 116.5q0 186 -67.5 276.5t-183.5 90.5q-130 0 -177 -53q114 -37 114 -150q0 -65 -45.5 -106.5t-117.5 -41.5 q-64 0 -104 41.5t-40 100.5zM262 129q0 74 47 116.5t127 42.5q81 0 128 -42.5t47 -116.5q0 -73 -47 -115.5t-128 -42.5q-80 0 -127 42.5t-47 115.5z" />
<glyph unicode="@" horiz-adv-x="1810" d="M92 293q0 204 79 400t211.5 344.5t319.5 239.5t391 91q111 0 207.5 -20t179 -63.5t140.5 -108.5t91 -159.5t33 -211.5q0 -133 -37.5 -254.5t-99.5 -210t-141 -154.5t-163.5 -99.5t-164.5 -33.5q-161 0 -161 141q0 40 12 90q-104 -231 -291 -231q-111 0 -174 68t-63 198 q0 108 41 226t107 213.5t157.5 158t184.5 62.5q64 0 104.5 -33.5t53.5 -88.5l19 93q163 0 259 29l-162 -739q-10 -40 -11 -65v-10q0 -47 33 -47q9 0 26 5q52 15 109 51t115 97t103.5 137t74.5 180.5t29 218.5q0 138 -48.5 241t-134 163.5t-192.5 90t-234 29.5 q-187 0 -364 -84.5t-308 -224t-210.5 -330.5t-79.5 -395q0 -124 31 -223t86 -167t134 -113.5t172 -66t203 -20.5q237 0 422 111l15 -27q-173 -121 -439 -121q-148 0 -268 37t-209.5 111t-138.5 195t-49 280zM723 322q0 -92 21.5 -131t63.5 -39q125 0 221 310l64 316 q0 53 -24 91t-68 38q-65 0 -130 -86t-106.5 -223.5t-41.5 -275.5z" />
<glyph unicode="A" horiz-adv-x="1366" d="M-32 0v41q103 19 178 215l466 1198q33 -3 71 -3t71 3l497 -1282q26 -68 60.5 -98.5t68.5 -32.5v-41q-122 6 -311 6q-210 0 -312 -6v41q77 3 110.5 19t33.5 56q0 36 -24 97l-123 336h-445l-55 -142q-56 -144 -56 -227q0 -76 45.5 -106.5t136.5 -32.5v-41q-140 6 -255 6 q-96 0 -157 -6zM324 590h415l-203 551z" />
<glyph unicode="B" horiz-adv-x="1375" d="M69 0v41q52 2 79 8.5t45.5 26.5t23.5 51t5 90v1016q0 58 -5 89.5t-23.5 51.5t-45.5 26.5t-79 8.5v41q103 -6 311 -6q77 0 191.5 2t130.5 2q246 0 376 -87.5t130 -234.5q0 -56 -24.5 -110.5t-72.5 -104t-128.5 -88t-183.5 -57.5v-4q138 -10 241 -45t161 -86.5t85.5 -110 t27.5 -123.5q0 -191 -149.5 -294t-415.5 -103q-18 0 -141 3t-224 3q-212 0 -315 -6zM548 217q0 -107 26.5 -138.5t114.5 -31.5q285 0 285 359q0 161 -81.5 245t-258.5 84h-86v-518zM548 770h88q70 0 118.5 26.5t74 75t36.5 104.5t11 128q0 154 -47.5 229.5t-153.5 75.5 q-78 0 -102.5 -34.5t-24.5 -141.5v-463z" />
<glyph unicode="C" horiz-adv-x="1445" d="M88 713q0 226 92 400.5t257 270t376 95.5q122 0 208 -35t168 -98q22 -18 40 -18q41 0 53 122h47q-8 -140 -8 -496h-48q-18 152 -48.5 231.5t-105.5 139.5q-104 101 -259 101q-106 0 -187 -58.5t-128 -159.5t-70 -223.5t-23 -263.5q0 -142 24.5 -265t73 -222t130.5 -156 t188 -57q70 0 138.5 25.5t116.5 73.5q75 58 104.5 145t45.5 251h48q0 -371 8 -516h-47q-6 64 -17.5 92.5t-32.5 28.5q-17 0 -43 -17q-92 -65 -175.5 -99t-202.5 -34q-217 0 -379.5 87t-253 255.5t-90.5 399.5z" />
<glyph unicode="D" horiz-adv-x="1589" d="M69 0v41q52 2 79 8.5t45.5 26.5t23.5 51t5 90v1016q0 58 -5 89.5t-23.5 51.5t-45.5 26.5t-79 8.5v41q131 -7 247 -7q10 0 32 0.5t32 0.5q294 6 322 6q399 0 597.5 -181t198.5 -528q0 -167 -55.5 -304t-158.5 -234t-256.5 -150t-344.5 -53q-29 0 -139 3t-160 3 q-212 0 -315 -6zM548 213q0 -108 29.5 -142t124.5 -34q128 0 216.5 45t141 136.5t75.5 216.5t23 298q0 350 -107 515t-351 165q-93 0 -122.5 -34.5t-29.5 -141.5v-1024z" />
<glyph unicode="E" horiz-adv-x="1298" d="M69 0v41q52 2 79 8.5t45.5 26.5t23.5 51t5 90v1016q0 58 -5 89.5t-23.5 51.5t-45.5 26.5t-79 8.5v41q223 -6 667 -6q302 0 428 6q-14 -169 -14 -303q0 -89 6 -139h-47q-30 218 -110 306.5t-226 88.5h-84q-90 0 -115.5 -25.5t-25.5 -120.5v-507h66q47 0 86 18t64.5 44.5 t45.5 64.5t30.5 71.5t17.5 71.5h47q-7 -102 -7 -193q0 -20 0.5 -52t0.5 -46q0 -104 12 -291h-47q-40 271 -250 271h-66v-516q0 -95 25.5 -120.5t115.5 -25.5h101q145 0 234 99.5t126 336.5h47q-6 -66 -6 -172q0 -167 14 -311q-139 6 -469 6q-444 0 -667 -6z" />
<glyph unicode="F" horiz-adv-x="1213" d="M69 0v41q52 2 79 8.5t45.5 26.5t23.5 51t5 90v1016q0 58 -5 89.5t-23.5 51.5t-45.5 26.5t-79 8.5v41q223 -6 667 -6q302 0 428 6q-14 -174 -14 -311q0 -99 6 -156h-47q-39 232 -121.5 326t-230.5 94h-68q-90 0 -115.5 -25.5t-25.5 -120.5v-516h72q47 0 86 18t64.5 45 t45 65t30 71.5t17.5 71.5h48q-8 -120 -8 -199q0 -18 0.5 -48.5t0.5 -43.5q0 -107 13 -291h-47q-42 270 -250 270h-72v-471q0 -42 3.5 -69.5t13.5 -49t24 -33t40.5 -19t57.5 -10t80 -3.5v-45q-168 6 -373 6q-147 0 -325 -6z" />
<glyph unicode="G" horiz-adv-x="1505" d="M88 708q0 229 94.5 405t263 271t383.5 95q127 0 215 -34.5t171 -98.5q23 -20 41 -20q39 0 51 124h47q-8 -140 -8 -496h-47q-16 139 -48 225t-106 146q-50 47 -122 74t-146 27q-108 0 -191.5 -58.5t-133 -159t-74.5 -224t-25 -262.5q0 -710 393 -710q86 0 145 40 q28 20 39 44.5t11 62.5v201q0 138 -38 177.5t-169 44.5v41q118 -7 350 -7q188 0 275 7v-41q-60 -5 -76.5 -35t-16.5 -141v-406h-41q-2 43 -17.5 80t-42.5 37q-33 0 -110 -42q-179 -104 -336 -104q-355 0 -543 193t-188 544z" />
<glyph unicode="H" horiz-adv-x="1639" d="M69 0v41q52 2 79 8.5t45.5 26.5t23.5 51t5 90v1016q0 58 -5 89.5t-23.5 51.5t-45.5 26.5t-79 8.5v41q103 -6 323 -6q199 0 310 6v-41q-53 -2 -80 -8.5t-45.5 -26.5t-23.5 -51t-5 -90v-483h543v483q0 58 -5 89.5t-23.5 51.5t-46 26.5t-79.5 8.5v41q114 -6 322 -6 q211 0 311 6v-41q-53 -2 -80 -8.5t-45.5 -26.5t-23.5 -51t-5 -90v-1016q0 -77 12.5 -112t43 -48t98.5 -16v-41q-100 6 -311 6q-208 0 -322 -6v41q53 2 80 8.5t45.5 26.5t23.5 51t5 90v492h-543v-492q0 -58 5 -89.5t23.5 -51.5t46 -26.5t79.5 -8.5v-41q-111 6 -310 6 q-220 0 -323 -6z" />
<glyph unicode="I" horiz-adv-x="770" d="M69 0v41q52 2 79 8.5t45.5 26.5t23.5 51t5 90v1016q0 58 -5 89.5t-23.5 51.5t-45.5 26.5t-79 8.5v41q103 -6 323 -6q199 0 310 6v-41q-53 -2 -80 -8.5t-45.5 -26.5t-23.5 -51t-5 -90v-1016q0 -58 5 -89.5t23.5 -51.5t46 -26.5t79.5 -8.5v-41q-111 6 -310 6 q-220 0 -323 -6z" />
<glyph unicode="J" horiz-adv-x="746" d="M-323 -198q0 62 45 100t119 38q71 0 113 -35t42 -100q0 -46 -27 -82t-78 -52q23 -15 74 -15q75 0 129 40.5t78 106.5q26 75 32.5 169t6.5 325v936q0 58 -5 89.5t-23.5 51.5t-45.5 26.5t-79 8.5v41q100 -6 311 -6q208 0 322 6v-41q-53 -2 -80 -8.5t-45.5 -26.5t-23.5 -51 t-5 -90v-750v-107q0 -306 -35 -427q-43 -148 -180 -241t-338 -93q-130 0 -206 38q-101 51 -101 149z" />
<glyph unicode="K" horiz-adv-x="1463" d="M69 0v41q52 2 79 8.5t45.5 26.5t23.5 51t5 90v1016q0 58 -5 89.5t-23.5 51.5t-45.5 26.5t-79 8.5v41q103 -6 323 -6q199 0 310 6v-41q-53 -2 -80 -8.5t-45.5 -26.5t-23.5 -51t-5 -90v-461q81 5 150.5 50t153.5 142l120 146q94 111 94 190q0 51 -39.5 79.5t-110.5 30.5v40 q150 -6 302 -6q119 0 194 6v-40q-163 -35 -298 -195l-256 -305l477 -744q30 -48 62.5 -76.5t84.5 -48.5v-41q-142 6 -320 6q-135 0 -260 -6v41q58 2 83.5 11.5t25.5 29.5q0 15 -21 51l-298 481q-43 67 -70.5 88.5t-73.5 25.5v-511q0 -58 5 -89.5t23.5 -51.5t46 -26.5 t79.5 -8.5v-41q-111 6 -310 6q-220 0 -323 -6z" />
<glyph unicode="L" horiz-adv-x="1251" d="M69 0v41q52 2 79 8.5t45.5 26.5t23.5 51t5 90v1016q0 58 -5 89.5t-23.5 51.5t-45.5 26.5t-79 8.5v41q103 -6 323 -6q208 0 322 6v-41q-74 -3 -106.5 -16t-46 -48t-13.5 -112v-1040q0 -95 23.5 -120.5t105.5 -25.5h100q141 0 242 125.5t131 331.5h47q-6 -70 -6 -180 q0 -175 14 -324q-139 6 -469 6q-444 0 -667 -6z" />
<glyph unicode="M" horiz-adv-x="1899" d="M71 0v41q96 13 125 66t29 204v922q0 58 -5 89.5t-23.5 51.5t-46 26.5t-79.5 8.5v41q65 -6 178 -6q191 0 324 6l413 -996l378 990h145q208 0 322 6v-41q-53 -2 -80 -8.5t-45.5 -26.5t-23.5 -51t-5 -90v-1016q0 -58 5 -89.5t23.5 -51.5t46 -26.5t79.5 -8.5v-41 q-114 6 -322 6q-219 0 -324 -6v41q56 2 85.5 8.5t49.5 26.5t25.5 51.5t5.5 89.5v1066l-493 -1286h-33l-553 1321v-982q0 -74 3.5 -116t14 -78.5t33.5 -54.5t57.5 -29t90.5 -17v-41q-79 6 -222 6q-113 0 -178 -6z" />
<glyph unicode="N" horiz-adv-x="1478" d="M71 0v41q96 13 125 66t29 204v922q0 58 -5 89.5t-23.5 51.5t-46 26.5t-79.5 8.5v41q65 -6 178 -6q105 0 177 6l792 -977v641q0 74 -3.5 116t-14 78.5t-33.5 54.5t-57.5 29t-90.5 17v41q80 -6 222 -6q113 0 178 6v-41q-96 -13 -125 -66t-29 -204v-1143q-15 1 -49 1 q-36 0 -56 -1l-888 1126v-786q0 -74 3.5 -116t14 -78.5t33.5 -54.5t57.5 -29t90.5 -17v-41q-79 6 -222 6q-113 0 -178 -6z" />
<glyph unicode="O" horiz-adv-x="1623" d="M88 713q0 226 92 400.5t257 270t376 95.5q329 0 526 -197.5t197 -544.5q0 -226 -92.5 -400.5t-257 -270t-375.5 -95.5q-217 0 -379.5 87t-253 255.5t-90.5 399.5zM428 721q0 -320 112.5 -516.5t278.5 -196.5q170 0 273.5 200t103.5 521q0 320 -112.5 516.5t-279.5 196.5 q-170 0 -273 -200t-103 -521z" />
<glyph unicode="P" horiz-adv-x="1312" d="M69 0v41q52 2 79 8.5t45.5 26.5t23.5 51t5 90v1016q0 58 -5 89.5t-23.5 51.5t-45.5 26.5t-79 8.5v41q103 -6 311 -6q77 0 191.5 2t130.5 2q277 0 422 -109.5t145 -294.5q0 -52 -12 -102.5t-38.5 -103.5t-74.5 -97.5t-113 -79.5t-161 -55t-213 -20h-109v-357 q0 -42 3.5 -69.5t13.5 -49t24 -33t40.5 -19t57.5 -10t80 -3.5v-45q-168 6 -373 6q-147 0 -325 -6zM548 627h88q70 0 123 21.5t85 57t51.5 88t26.5 106.5t7 122q0 199 -59 293t-195 94q-78 0 -102.5 -34.5t-24.5 -141.5v-606z" />
<glyph unicode="Q" horiz-adv-x="1623" d="M88 713q0 226 92 400.5t257 270t376 95.5q329 0 526 -197.5t197 -544.5q0 -330 -190 -540.5t-494 -224.5q-69 -9 -165.5 -48t-140.5 -51q47 -4 148.5 -12.5t151.5 -12.5t119.5 -7.5t122.5 -3.5q84 0 154 9q127 15 200.5 55.5t122.5 123.5l36 -11q-34 -232 -142 -319 q-97 -80 -264 -80q-102 0 -200.5 28.5t-256.5 97.5t-215 91q-36 13 -49 14q-91 -43 -171 -43q-95 0 -95 54q0 55 111 55q73 0 155 -29q57 15 138.5 50t103.5 43q-290 28 -459 222t-169 515zM428 721q0 -320 112.5 -516.5t278.5 -196.5q170 0 273.5 200t103.5 521 q0 320 -112.5 516.5t-279.5 196.5q-170 0 -273 -200t-103 -521z" />
<glyph unicode="R" horiz-adv-x="1417" d="M69 0v41q52 2 79 8.5t45.5 26.5t23.5 51t5 90v1016q0 58 -5 89.5t-23.5 51.5t-45.5 26.5t-79 8.5v41q103 -6 311 -6q77 0 191.5 2t130.5 2q282 0 424.5 -92.5t142.5 -263.5q0 -53 -13 -101.5t-46 -97.5t-83.5 -87.5t-132 -68t-185.5 -41.5h1q185 -16 275.5 -79 t117.5 -191l46 -211q17 -83 38 -115t59 -32q44 0 83 47l28 -25q-55 -63 -118.5 -91t-153.5 -28q-117 0 -186 50t-91 172l-36 204q-10 58 -19 96.5t-24 79t-34 63.5t-48 37.5t-66 14.5h-133v-471q0 -58 5 -89.5t23.5 -51.5t46 -26.5t79.5 -8.5v-41q-111 6 -310 6 q-220 0 -323 -6zM548 729h88q71 0 123.5 18t84.5 47.5t51.5 74t26.5 92t7 108.5q0 168 -59.5 254t-194.5 86q-78 0 -102.5 -34.5t-24.5 -141.5v-504z" />
<glyph unicode="S" horiz-adv-x="1196" d="M112 -14q8 128 8 553h47q5 -86 20 -159t43.5 -139.5t69.5 -113.5t102.5 -74.5t137.5 -27.5q112 0 183 59t71 170q0 61 -21 112.5t-67 99t-93.5 83.5t-125.5 86q-51 32 -82.5 53t-74.5 53.5t-69 58t-56 61.5t-46 71t-26.5 78.5t-10.5 91.5q0 94 37.5 167t102.5 117.5 t146 67t173 22.5q75 0 136 -13t91.5 -27t71.5 -39q48 -29 69 -29q19 0 29 21t17 69h47q-11 -127 -11 -467h-47q-5 82 -30 158.5t-66.5 139t-107 100.5t-144.5 38q-100 0 -162.5 -56.5t-62.5 -152.5q0 -25 4.5 -47.5t9.5 -40.5t20 -39.5t24 -35t34 -35.5l37.5 -33t48 -35.5 t51 -35.5t60.5 -41t65 -43q70 -47 112 -77t92.5 -76.5t77 -88t45.5 -98.5t19 -122q0 -130 -70.5 -222t-183 -134.5t-254.5 -42.5q-114 0 -189 20.5t-140 55.5q-46 29 -70 29q-19 0 -29 -21.5t-16 -68.5h-47z" />
<glyph unicode="T" horiz-adv-x="1368" d="M52 1450q185 -6 633 -6q446 0 631 6q-15 -190 -15 -348q0 -99 6 -156h-47q-51 253 -136 355t-232 102h-45v-1169q0 -65 8 -100.5t34 -57.5t65 -28t112 -7v-41q-174 6 -390 6q-212 0 -374 -6v41q73 1 112 7t65 28t34 57.5t8 100.5v1169h-45q-148 0 -233 -101.5 t-136 -355.5h-47q6 57 6 156q0 153 -14 348z" />
<glyph unicode="U" horiz-adv-x="1410" d="M38 1409v41q105 -6 321 -6q210 0 324 6v-41q-74 -3 -106.5 -16t-46 -48t-13.5 -112v-773q0 -215 62.5 -316t220.5 -101q85 0 149.5 25.5t106.5 71t68.5 113t37.5 145.5t11 175v541q0 90 -6.5 139.5t-29 85t-59.5 49.5t-104 21v41q80 -6 221 -6q115 0 178 6v-41 q-96 -13 -124.5 -66t-28.5 -204v-543q0 -294 -84 -434q-114 -191 -414 -191q-239 0 -369 104q-95 76 -128 191t-33 324v643q0 59 -5 90t-23.5 51t-45.5 26.5t-80 8.5z" />
<glyph unicode="V" horiz-adv-x="1368" d="M-25 1409v41q123 -6 312 -6q211 0 311 6v-41q-77 -3 -110.5 -18.5t-33.5 -57.5q0 -35 24 -96l362 -917l252 680q57 155 57 248q0 83 -43.5 121t-128.5 40v41q138 -6 255 -6q94 0 156 6v-41q-116 -45 -187 -243l-433 -1170q-44 2 -71 2t-71 -2l-522 1282q-51 127 -129 131 z" />
<glyph unicode="W" horiz-adv-x="1982" d="M-24 1409v41q121 -6 305 -6q171 0 252 6v-41q-72 -10 -72 -80q0 -38 19 -92l297 -866l209 609l-106 319q-34 105 -111 110v41q112 -6 292 -6q197 0 295 6v-41q-76 -3 -108 -17.5t-32 -58.5q0 -35 21 -96l281 -857l195 620q46 148 46 238q0 89 -44 129t-132 42v41 q138 -6 255 -6q94 0 156 6v-41q-119 -47 -179 -243l-361 -1170q-44 2 -72 2q-26 0 -70 -2l-302 911l-304 -911q-44 2 -72 2q-26 0 -70 -2l-459 1282q-25 68 -59.5 98.5t-69.5 32.5z" />
<glyph unicode="X" horiz-adv-x="1415" d="M7 1408v43q224 -8 292 -8q130 0 314 8v-43q-131 0 -131 -39q0 -16 16 -39l305 -445l151 204q97 123 97 207q0 51 -38.5 79.5t-110.5 33.5v41q116 -6 257 -6q125 0 189 6v-41q-126 -36 -258 -214l-262 -348l481 -702q42 -60 66 -79.5t65 -22.5v-43q-216 8 -280 8 q-78 0 -330 -8v43q72 0 103.5 7t31.5 27q0 13 -15 36l-344 505l-164 -224q-94 -126 -94 -214q0 -63 46.5 -98.5t128.5 -40.5v-41q-117 6 -324 6q-123 0 -188 -6v41q140 46 296 250l272 367l-441 648q-42 60 -66 79.5t-65 22.5z" />
<glyph unicode="Y" horiz-adv-x="1275" d="M-14 1408v43q120 -10 242 -10q190 0 385 10v-43q-73 0 -114 -12.5t-41 -48.5q0 -19 13 -45l312 -598l159 318q81 161 81 252q0 131 -171 136v41q140 -6 255 -6q95 0 156 6v-41q-95 -37 -196 -236l-242 -480v-477q0 -58 5 -89.5t23.5 -51.5t45.5 -26.5t79 -8.5v-41 q-110 6 -315 6q-217 0 -318 -6v41q53 2 80 8.5t45.5 26.5t23.5 51t5 90v348l-394 729q-63 114 -119 114z" />
<glyph unicode="Z" horiz-adv-x="1232" d="M80 0v41l714 1362h-234q-80 0 -145 -21t-120.5 -67.5t-92.5 -130t-51 -201.5h-47q6 57 6 156q0 142 -15 311q137 -6 461 -6q405 0 584 6v-41l-712 -1362h225q58 0 113 13.5t109 46.5t96 82.5t73 127t41 175.5h47q-6 -70 -6 -181q0 -179 14 -311q-152 6 -510 6 q-380 0 -550 -6z" />
<glyph unicode="[" horiz-adv-x="660" d="M171 -371v1952h412v-39h-117v-1874h117v-39h-412z" />
<glyph unicode="\" horiz-adv-x="754" d="M63 1479h68l557 -1508h-68z" />
<glyph unicode="]" horiz-adv-x="660" d="M77 -332h117v1874h-117v39h412v-1952h-412v39z" />
<glyph unicode="^" horiz-adv-x="1083" d="M116 664q126 69 234.5 181.5t172.5 235.5h37q62 -122 171 -234.5t236 -182.5l-16 -29q-130 31 -253 78t-197 94q-63 -47 -163.5 -94t-205.5 -78z" />
<glyph unicode="_" horiz-adv-x="1245" d="M121 -175h1004v-179h-1004v179z" />
<glyph unicode="`" horiz-adv-x="457" d="M16 1596q0 48 36 78q30 26 71 26q59 0 99 -48q29 -35 51 -87.5t57.5 -141t85.5 -178.5l-23 -18q-75 69 -150 125t-121.5 90.5t-73.5 68.5q-32 39 -32 85z" />
<glyph unicode="a" horiz-adv-x="1284" d="M-23 0v41q51 10 92 61.5t88 158.5l433 988q32 -2 47 -2q17 0 47 2l487 -1077q59 -128 129 -131v-41q-96 6 -269 6q-219 0 -323 -6v41q68 3 100.5 20.5t32.5 57.5q0 35 -27 94l-102 233h-430l-24 -55q-58 -132 -58 -211q0 -71 45 -102.5t133 -36.5v-41q-117 6 -235 6 q-109 0 -166 -6zM300 487h394l-196 449z" />
<glyph unicode="b" horiz-adv-x="1330" d="M70 0v41q53 2 80 8.5t45.5 26.5t23.5 51t5 90v811q0 59 -5 91t-24 51.5t-45.5 25.5t-79.5 8v41q93 -6 274 -6q79 0 194.5 2t131.5 2q485 0 485 -280q0 -106 -85.5 -180t-278.5 -115v-4q133 -14 227.5 -45t146 -75.5t74.5 -95t23 -112.5q0 -158 -141.5 -247t-403.5 -89 q-19 0 -142.5 3t-225.5 3q-186 0 -279 -6zM537 217q0 -107 20.5 -138.5t88.5 -31.5q149 0 218.5 75t69.5 222q0 143 -70 216t-225 73h-102v-416zM537 668h68q68 0 114.5 20t71 59t35 85t10.5 108q0 133 -45.5 198.5t-147.5 65.5q-65 0 -85.5 -34.5t-20.5 -141.5v-360z" />
<glyph unicode="c" horiz-adv-x="1346" d="M87 610q0 195 86.5 347.5t235.5 234.5t335 82q63 0 114.5 -10t93.5 -31.5t70 -40.5t65 -51q23 -20 40 -20q42 0 52 124h47q-8 -123 -8 -430h-47q-22 112 -42 162.5t-61 99.5q-120 144 -280 144q-171 0 -272 -161.5t-101 -441.5t109 -436.5t278 -156.5q81 0 158 37.5 t131 105.5q40 51 59 110t35 173h47q0 -323 8 -451h-47q-10 124 -51 124q-16 0 -41 -20q-76 -63 -158 -98t-196 -35q-194 0 -342.5 74t-233 220t-84.5 345z" />
<glyph unicode="d" horiz-adv-x="1496" d="M70 0v41q53 2 80 8.5t45.5 26.5t23.5 51t5 90v811q0 59 -5 91t-24 51.5t-45.5 25.5t-79.5 8v41q119 -7 218 -7q10 0 28.5 0.5t27.5 0.5q318 6 347 6q357 0 535.5 -154t178.5 -452q0 -293 -194 -466t-539 -173q-31 0 -150.5 3t-172.5 3q-186 0 -279 -6zM537 213 q0 -108 24.5 -142t104.5 -34q96 0 166.5 25.5t117.5 72.5t75.5 121.5t40.5 164.5t12 210q0 299 -94 438t-320 139q-78 0 -102.5 -34.5t-24.5 -141.5v-819z" />
<glyph unicode="e" horiz-adv-x="1248" d="M70 0v41q53 2 80 8.5t45.5 26.5t23.5 51t5 90v811q0 77 -12.5 112t-42.5 48t-99 16v41q213 -6 635 -6q287 0 407 6q-14 -137 -14 -246q0 -81 6 -127h-47q-31 177 -106.5 251.5t-208.5 74.5h-76q-77 0 -103 -24.5t-26 -108.5v-418h96q51 0 90 21.5t62 58t35.5 70 t19.5 71.5h47q-7 -80 -7 -159q0 -17 0.5 -44t0.5 -38q0 -92 12 -242h-47q-14 97 -64.5 159t-148.5 62h-96v-426q0 -84 26 -108.5t103 -24.5h88q146 0 228.5 83.5t115.5 283.5h47q-6 -57 -6 -148q0 -118 14 -266q-133 6 -448 6q-422 0 -635 -6z" />
<glyph unicode="f" horiz-adv-x="1159" d="M70 0v41q53 2 80 8.5t45.5 26.5t23.5 51t5 90v811q0 77 -12.5 112t-42.5 48t-99 16v41q213 -6 635 -6q287 0 407 6q-14 -137 -14 -246q0 -81 6 -127h-47q-31 177 -106.5 251.5t-208.5 74.5h-76q-77 0 -103 -24.5t-26 -108.5v-418h96q51 0 90 21.5t62 58t35.5 70 t19.5 71.5h47q-7 -80 -7 -159q0 -17 0.5 -44t0.5 -38q0 -92 12 -242h-47q-14 97 -64.5 159t-148.5 62h-96v-377q0 -58 10 -93t37 -56t66 -29t106 -10v-41q-126 6 -362 6q-219 0 -324 -6z" />
<glyph unicode="g" horiz-adv-x="1436" d="M87 598q0 204 90.5 358.5t251 236t367.5 81.5q65 0 118 -10t98.5 -32t72.5 -40t71 -51q25 -20 42 -20q39 0 50 124h48q-9 -113 -9 -409h-47q-32 160 -102 241q-62 68 -128 105.5t-157 37.5q-202 0 -320 -162.5t-118 -436.5q0 -314 102 -461.5t305 -147.5q70 0 118 29 q42 25 42 88v190q0 65 -7 100.5t-30 57.5t-57.5 29.5t-99.5 9.5v41q132 -6 338 -6q174 0 262 6v-41q-42 -3 -60 -16t-25 -47t-7 -113v-340h-41q-8 76 -43 76q-28 0 -102 -36q-149 -69 -315 -69q-335 0 -521.5 165.5t-186.5 461.5z" />
<glyph unicode="h" horiz-adv-x="1600" d="M70 0v41q53 2 80 8.5t45.5 26.5t23.5 51t5 90v811q0 77 -12.5 112t-42.5 48t-99 16v41q98 -6 299 -6q208 0 322 6v-41q-70 -3 -100 -16t-42 -47.5t-12 -112.5v-373h526v373q0 59 -5 90.5t-23.5 51t-45.5 26t-79 8.5v41q112 -6 321 -6q203 0 299 6v-41q-69 -3 -99 -16 t-42 -47.5t-12 -112.5v-811q0 -58 5 -89.5t23.5 -51.5t45.5 -26.5t79 -8.5v-41q-96 6 -299 6q-209 0 -321 -6v41q52 2 79 8.5t45.5 26.5t23.5 51t5 90v397h-526v-397q0 -58 5 -89.5t23.5 -51.5t46 -26.5t79.5 -8.5v-41q-114 6 -322 6q-201 0 -299 -6z" />
<glyph unicode="i" horiz-adv-x="761" d="M70 0v41q53 2 80 8.5t45.5 26.5t23.5 51t5 90v811q0 77 -12.5 112t-42.5 48t-99 16v41q100 -6 317 -6q197 0 304 6v-41q-70 -3 -100 -16t-42 -47.5t-12 -112.5v-811q0 -59 5 -90t23.5 -51t45.5 -26.5t80 -8.5v-41q-107 6 -304 6q-217 0 -317 -6z" />
<glyph unicode="j" horiz-adv-x="733" d="M-276 -215q0 59 44.5 96t115.5 37q68 0 109 -34.5t41 -95.5q0 -39 -23.5 -74t-68.5 -54q30 -4 55 -4q106 0 159 107q29 49 42 132t13 239v894q0 59 -5 90.5t-23.5 51t-46 26t-79.5 8.5v41q97 -6 299 -6q208 0 322 6v-41q-70 -3 -100 -16t-42 -47.5t-12 -112.5v-545v-107 q0 -306 -35 -427q-41 -148 -169.5 -240t-319.5 -92q-124 0 -193 36q-83 44 -83 132z" />
<glyph unicode="k" horiz-adv-x="1457" d="M70 0v41q53 2 80 8.5t45.5 26.5t23.5 51t5 90v811q0 77 -12.5 112t-42.5 48t-99 16v41q105 -6 317 -6q197 0 304 6v-41q-70 -3 -100 -16t-42 -47.5t-12 -112.5v-366q89 8 162 44.5t157 116.5l125 127q79 75 79 143q0 49 -41.5 80t-110.5 33v39q147 -6 315 -6q110 0 182 6 v-39q-138 -32 -278 -168l-252 -249l449 -623q36 -49 65.5 -77t73.5 -48v-41q-143 6 -313 6q-147 0 -280 -6v41q65 2 92 11t27 28q0 17 -23 53l-268 385q-35 50 -70 75t-91 28v-404q0 -59 5 -90t23.5 -51t45.5 -26.5t80 -8.5v-41q-107 6 -304 6q-212 0 -317 -6z" />
<glyph unicode="l" horiz-adv-x="1205" d="M70 0v41q53 2 80 8.5t45.5 26.5t23.5 51t5 90v811q0 77 -12.5 112t-42.5 48t-99 16v41q105 -6 324 -6q190 0 297 6v-41q-70 -3 -100 -16t-42 -47.5t-12 -112.5v-835q0 -93 26 -119.5t103 -26.5h80q291 0 352 412h47q-6 -66 -6 -168q0 -129 14 -291q-133 6 -448 6 q-422 0 -635 -6z" />
<glyph unicode="m" horiz-adv-x="1807" d="M61 1204v41q110 -6 326 -6q107 0 183 6l339 -816l342 810h183q200 0 309 6v-41q-74 -3 -106.5 -16t-46 -48t-13.5 -112v-811q0 -77 13.5 -112t46 -48t106.5 -16v-41q-109 6 -309 6q-236 0 -349 -6v41q56 2 85.5 8.5t49.5 26.5t25.5 51.5t5.5 89.5v899l-469 -1126h-32 l-476 1124v-840q0 -131 39.5 -175.5t171.5 -57.5v-41q-90 6 -233 6q-115 0 -178 -6v41q97 13 125 57t28 176v754q0 59 -5.5 90.5t-25.5 51t-49 26t-86 8.5z" />
<glyph unicode="n" horiz-adv-x="1413" d="M71 0v41q97 13 125.5 57t28.5 176v754q0 59 -5 90.5t-23.5 51t-46 26t-79.5 8.5v41q65 -6 178 -6q147 0 250 6l654 -811v537q0 131 -39.5 175.5t-171.5 57.5v41q90 -6 233 -6q115 0 178 6v-41q-97 -13 -125 -57t-28 -176v-975q-18 1 -54 1q-37 0 -55 -1l-819 1018v-740 q0 -131 39.5 -175.5t171.5 -57.5v-41q-90 6 -234 6q-113 0 -178 -6z" />
<glyph unicode="o" horiz-adv-x="1555" d="M86 610q0 196 88.5 347.5t246 234t358.5 82.5q207 0 362 -74t241.5 -219.5t86.5 -345.5q0 -296 -193.5 -480t-498.5 -184q-315 0 -503 169t-188 470zM414 618q0 -274 106.5 -442t264.5 -168q161 0 258.5 172t97.5 447q0 274 -106.5 442t-264.5 168q-161 0 -258.5 -172 t-97.5 -447z" />
<glyph unicode="p" horiz-adv-x="1261" d="M70 0v41q53 2 80 8.5t45.5 26.5t23.5 51t5 90v811q0 77 -12.5 112t-42.5 48t-99 16v41q93 -6 274 -6q83 0 206 2t141 2q267 0 396.5 -89t129.5 -253q0 -60 -16 -113.5t-58 -106.5t-107 -91t-170.5 -62t-240.5 -24h-88v-287q0 -77 13.5 -112t46 -48t106.5 -16v-41 q-121 6 -346 6q-194 0 -287 -6zM537 545h68q85 0 143 26t87.5 75t41.5 104.5t12 128.5q0 166 -52 245.5t-173 79.5q-78 0 -102.5 -34.5t-24.5 -141.5v-483z" />
<glyph unicode="q" horiz-adv-x="1557" d="M88 610q0 196 88.5 347.5t246 234t358.5 82.5q207 0 362 -74t241.5 -219.5t86.5 -345.5q0 -281 -175 -462t-457 -200q-72 -7 -176 -50t-152 -55q26 -2 44 -2h8q41 0 144 5.5t151 5.5q34 0 49 -1q94 -4 255 -31t237 -27q123 0 186.5 27t101.5 92l32 -15 q-42 -150 -152.5 -228.5t-283.5 -78.5q-102 0 -220.5 25.5t-203 56t-213 79t-194.5 70.5q-91 -43 -171 -43q-96 0 -96 54q0 55 112 55q73 0 155 -29q57 15 138.5 50t100.5 42q-278 24 -440.5 190t-162.5 445zM416 618q0 -274 106.5 -442t264.5 -168q161 0 258.5 172 t97.5 447q0 274 -106.5 442t-264.5 168q-161 0 -258.5 -172t-97.5 -447z" />
<glyph unicode="r" d="M70 0v41q53 2 80 8.5t45.5 26.5t23.5 51t5 90v811q0 59 -5 91t-24 51.5t-45.5 25.5t-79.5 8v41q93 -6 274 -6q79 0 194.5 2t131.5 2q276 0 411.5 -83t135.5 -230q0 -46 -13.5 -88t-47 -85t-85.5 -76.5t-135.5 -59t-190.5 -36.5q37 -4 60 -7q147 -17 232.5 -66t111.5 -155 l43 -183q14 -59 34 -82.5t52 -23.5q43 0 88 45l29 -27q-49 -57 -111 -86t-153 -29q-117 0 -180.5 45.5t-82.5 121.5l-59 241q-23 114 -69 152t-135 38h-68v-352q0 -58 5 -89.5t23.5 -51.5t46 -26.5t79.5 -8.5v-41q-119 6 -334 6q-194 0 -287 -6zM537 610h88q79 0 133 22.5 t81.5 65.5t38.5 92.5t11 117.5q0 148 -57 222t-189 74q-65 0 -85.5 -34.5t-20.5 -141.5v-418z" />
<glyph unicode="s" horiz-adv-x="1183" d="M111 -14q8 113 8 499h47q15 -218 118 -342.5t291 -124.5q94 0 161 47t67 141q0 82 -63.5 141.5t-218.5 147.5q-73 42 -124 74.5t-107 77.5t-90 87t-56.5 96t-22.5 112q0 108 63.5 184t168 112t239.5 36q158 0 287 -76q49 -29 69 -29q19 0 28.5 22t16.5 69h47 q-10 -123 -10 -426h-47q-22 184 -118.5 289.5t-251.5 105.5q-102 0 -165 -45t-63 -116q0 -35 15 -67t34.5 -55.5t62.5 -55t74.5 -51.5t93.5 -57q33 -20 50 -30q59 -34 97.5 -57.5t88 -58t80 -66t59.5 -71t42.5 -85t13.5 -95.5q0 -112 -66.5 -192t-179.5 -118t-260 -38 q-69 0 -135.5 15t-99 28t-81.5 37q-50 25 -71 25q-19 0 -29 -21.5t-16 -68.5h-47z" />
<glyph unicode="t" horiz-adv-x="1329" d="M57 1245q178 -6 602 -6q432 0 613 6q-15 -167 -15 -278q0 -106 7 -181h-47q-42 230 -114.5 321t-217.5 91h-64v-960q0 -52 5.5 -84t17.5 -55t37.5 -34.5t58.5 -16.5t88 -7v-41q-111 6 -369 6q-259 0 -358 -6v41q55 2 88 7t58.5 16.5t37.5 34.5t17.5 55t5.5 84v960h-64 q-145 0 -217 -91t-114 -321h-47q6 64 6 181q0 127 -15 278z" />
<glyph unicode="u" d="M33 1204v41q100 -6 311 -6q200 0 309 6v-41q-69 -3 -99 -16t-42 -47.5t-12 -112.5v-514q0 -60 2.5 -105.5t9.5 -95.5t20 -86t34.5 -70.5t52 -55.5t74 -33.5t98.5 -12.5q77 0 135.5 24t96 65t61 102.5t33 130.5t9.5 155v377q0 90 -6.5 139.5t-28.5 85t-59 49.5t-104 21v41 q80 -6 221 -6q123 0 190 6v-41q-104 -13 -134.5 -65.5t-30.5 -204.5v-379q0 -275 -84 -414q-50 -78 -147.5 -124t-219.5 -46q-230 0 -361 90q-104 80 -140 182.5t-36 305.5v479q0 59 -5 90.5t-23.5 51t-45.5 26t-79 8.5z" />
<glyph unicode="v" horiz-adv-x="1284" d="M-25 1204v41q96 -6 269 -6q220 0 323 6v-41q-68 -3 -100.5 -20.5t-32.5 -57.5q0 -36 27 -94l330 -716l206 481q66 158 66 253q0 148 -166 154v41q117 -6 252 -6q92 0 149 6v-41q-53 -20 -98.5 -79t-92.5 -173l-403 -956q-22 3 -47 3q-24 0 -48 -3l-505 1077 q-59 127 -129 131z" />
<glyph unicode="w" horiz-adv-x="1880" d="M-25 1204v41q96 -6 269 -6q202 0 299 6v-41q-103 -6 -103 -84q0 -34 21 -88l278 -698l194 475l-108 264q-26 66 -61 97.5t-68 33.5v41q96 -6 268 -6q210 0 311 6v-41q-67 -3 -97 -21t-30 -59q0 -35 21 -92l261 -698l162 454q58 159 58 256q0 154 -160 160v41 q117 -6 236 -6q109 0 166 6v-41q-114 -42 -190 -253l-343 -955q-23 3 -47 3t-48 -3l-307 753l-302 -753q-24 3 -48 3q-23 0 -47 -3l-456 1077q-56 127 -129 131z" />
<glyph unicode="x" horiz-adv-x="1319" d="M17 1203v43q175 -7 264 -7q105 0 326 7v-43q-128 0 -128 -34q0 -14 15 -35l262 -366l128 159q77 92 77 167q0 48 -34.5 77t-98.5 33v41q117 -6 256 -6q114 0 174 6v-41q-112 -34 -224 -169l-251 -306l418 -584q40 -57 64.5 -77.5t62.5 -24.5v-43q-178 7 -265 7 q-108 0 -325 -7v43q67 0 97.5 7.5t30.5 26.5q0 14 -16 36l-289 404l-164 -204q-69 -85 -69 -150q0 -54 46 -85.5t126 -36.5v-41q-117 6 -305 6q-77 0 -175 -6v41q63 26 135.5 84t122.5 118l255 313l-389 545q-42 60 -65.5 79.5t-61.5 22.5z" />
<glyph unicode="y" horiz-adv-x="1228" d="M-3 1202v43q128 -10 242 -10q163 0 360 10v-43q-39 0 -64 -3t-45 -16.5t-20 -36.5q0 -25 22 -63l276 -484l132 239q80 150 80 236q0 122 -155 129v42q118 -7 231 -7q105 0 157 7v-42q-43 -17 -84.5 -67.5t-97.5 -151.5l-235 -432v-323q0 -41 3 -68.5t11.5 -49.5t21 -34 t35.5 -20t50 -11t70 -5v-41q-107 6 -353 6q-248 0 -342 -6v41q43 2 70 5t50 11t35.5 20t21 34t11.5 49.5t3 68.5v221l-367 637q-35 61 -61.5 85.5t-57.5 29.5z" />
<glyph unicode="z" horiz-adv-x="1185" d="M93 0v41l643 1157h-215q-156 0 -244 -89.5t-125 -301.5h-47q6 65 6 180q0 114 -14 258q153 -6 514 -6q322 0 469 6v-41l-643 -1157h217q162 0 252.5 95t128.5 321h47q-6 -78 -6 -193q0 -119 14 -270q-141 6 -483 6q-353 0 -514 -6z" />
<glyph unicode="{" horiz-adv-x="683" d="M36 594v37h10q64 4 96.5 49t46 147.5t13.5 300.5q0 182 44 284.5t139 146t263 43.5v-39q-66 -2 -95.5 -30.5t-43 -118t-13.5 -286.5q0 -107 -22.5 -190.5t-58.5 -137.5t-90.5 -93t-108.5 -59.5t-123 -35.5q69 -15 123 -35.5t108.5 -60t90.5 -93t58.5 -137t22.5 -190.5 q0 -104 2.5 -173t10 -120t17 -78.5t28.5 -44t39.5 -21t54.5 -5.5v-39q-127 0 -209 22t-137 77.5t-77.5 147t-22.5 234.5q0 197 -13.5 299.5t-46 148t-96.5 50.5h-10z" />
<glyph unicode="|" horiz-adv-x="519" d="M169 -399v2156h180v-2156h-180z" />
<glyph unicode="}" horiz-adv-x="683" d="M35 -346q34 1 54.5 5.5t39.5 21t28.5 44t17 78.5t10 120t2.5 173q0 107 22.5 190.5t58.5 137t90.5 93t108.5 60t123 35.5q-69 15 -123 35.5t-108.5 59.5t-90.5 93t-58.5 137.5t-22.5 190.5q0 197 -13.5 286.5t-43 118t-95.5 30.5v39q168 0 263 -43.5t139 -146t44 -284.5 q0 -198 13.5 -300.5t46 -147.5t96.5 -49h10v-37h-10q-64 -5 -96.5 -50.5t-46 -148t-13.5 -299.5q0 -143 -22.5 -234.5t-77.5 -147t-137 -77.5t-209 -22v39z" />
<glyph unicode="~" horiz-adv-x="1368" d="M122 479q14 143 104 230.5t211 87.5q73 0 152 -28.5t137 -63t134.5 -63t145.5 -28.5q152 0 209 144l36 -8q-14 -143 -104 -230.5t-211 -87.5q-73 0 -152 28.5t-137 62.5t-134.5 62.5t-145.5 28.5q-152 0 -209 -143z" />
<glyph unicode="&#xa1;" horiz-adv-x="566" d="M110 930q0 74 47 116.5t127 42.5q81 0 128 -42.5t47 -116.5q0 -73 -47 -115.5t-128 -42.5q-80 0 -127 42.5t-47 115.5zM114 -192q0 70 34.5 210.5t72 315t43.5 317.5h37q5 -144 42.5 -317t72 -313.5t34.5 -212.5q0 -94 -46 -143.5t-121 -49.5t-122 50.5t-47 142.5z" />
<glyph unicode="&#xa2;" horiz-adv-x="1021" d="M78 610q0 233 120 400t319 231v209h45v-196q85 20 173 20q63 0 114.5 -10t93.5 -31.5t70 -40.5t65 -51q23 -20 40 -20q42 0 52 124h47q-8 -123 -8 -430h-47q-22 112 -42 162.5t-61 99.5q-120 144 -280 144q-126 0 -217 -91v-1006q97 -99 231 -99q81 0 158 37.5t131 105.5 q40 51 59 110t35 173h47q0 -323 8 -451h-47q-10 124 -51 124q-16 0 -41 -20q-76 -63 -158 -98t-196 -35q-93 0 -176 18v-360h-45v370q-204 57 -321.5 215t-117.5 396zM406 618q0 -278 111 -439v896q-111 -163 -111 -457z" />
<glyph unicode="&#xa3;" horiz-adv-x="1352" d="M67 4q0 32 50.5 70t127.5 57q20 57 25.5 121.5t5.5 189.5v86v80h-158v41h158v164h-158v41h158v45q0 608 516 608q143 0 225 -49q100 -60 100 -158q0 -63 -41.5 -105t-104.5 -42q-65 0 -107 37.5t-42 97.5q0 53 28.5 93t78.5 59q-34 32 -120 32q-60 0 -101.5 -22.5 t-67 -61.5t-40 -107.5t-19 -143t-4.5 -185.5v-98h248v-41h-248v-122q0 -28 -1 -42h249v-41h-253q-6 -43 -20.5 -86.5t-27.5 -73.5t-43 -76.5t-45 -67.5t-57.5 -77t-57.5 -76q160 132 308 132q82 0 204.5 -34t196.5 -34q64 0 100.5 33.5t36.5 83.5q0 60 -40 98.5t-110 52.5 l9 33q108 -18 185 -88t77 -180q0 -126 -79 -201.5t-230 -75.5q-79 0 -160 25.5t-167 63t-136 51.5q-66 16 -101 16q-57 0 -112 -21q-87 -135 -190 -135q-46 0 -46 33z" />
<glyph unicode="&#xa4;" horiz-adv-x="1260" d="M123 281l119 119q-58 100 -58 214q0 115 59 214l-120 121l174 174l120 -121q96 59 213 59q113 0 214 -60l122 122l174 -174l-122 -122q58 -100 58 -213q0 -114 -59 -213l122 -120l-174 -175l-122 121q-100 -57 -213 -57q-118 0 -212 57l-120 -121zM395 614 q0 -104 70 -179t167 -75t166.5 75t69.5 179q0 105 -69.5 181t-166.5 76q-98 0 -167.5 -76t-69.5 -181z" />
<glyph unicode="&#xa5;" horiz-adv-x="1388" d="M51 1408v43q120 -10 242 -10q190 0 385 10v-43q-73 0 -114 -12.5t-41 -48.5q0 -19 13 -45l312 -598l159 318q81 161 81 252q0 131 -171 136v41q140 -6 255 -6q94 0 156 6v-41q-95 -37 -196 -236l-242 -480v-74h256v-41h-256v-164h256v-41h-256v-157q0 -58 5 -89.5 t23.5 -51.5t45.5 -26.5t79 -8.5v-41q-109 6 -315 6q-218 0 -318 -6v41q53 2 80 8.5t45.5 26.5t23.5 51t5 90v157h-256v41h256v150l-7 14h-249v41h226l-364 674q-63 114 -119 114z" />
<glyph unicode="&#xa6;" horiz-adv-x="525" d="M172 -399v1067h181v-1067h-181zM172 786v971h181v-971h-181z" />
<glyph unicode="&#xa7;" horiz-adv-x="1190" d="M73 629q0 102 59 185.5t195 155.5q-78 69 -115 137.5t-37 151.5q0 155 129 249t337 94q141 0 242 -46q135 -65 135 -190q0 -59 -41.5 -101t-109.5 -42q-69 0 -112.5 39t-43.5 102q0 51 27.5 92.5t76.5 59.5q-13 21 -61 34t-98 13q-110 0 -162 -54.5t-52 -132.5 q0 -30 7 -57.5t15.5 -48.5t30.5 -46t36 -40t50 -41.5t53.5 -38.5t65.5 -44l69 -46q78 -52 124 -86t95 -77.5t74 -80.5t41 -83.5t16 -99.5q0 -101 -60 -184t-196 -155q79 -69 116.5 -138t37.5 -153q0 -154 -129 -248t-337 -94q-140 0 -241 46q-136 65 -136 189q0 60 42 102 t110 42q69 0 112 -39.5t43 -102.5q0 -51 -27.5 -92.5t-76.5 -58.5q12 -21 60.5 -34t99.5 -13q110 0 162 54.5t52 132.5q0 30 -7 57.5t-16 48.5t-30.5 45.5t-36.5 40t-49.5 41t-54 39t-65 44t-69.5 46.5q-64 43 -104.5 72t-85 65.5t-70.5 66t-48.5 65.5t-32 74.5t-9.5 82.5z M294 776q0 -46 17.5 -84.5t63 -82t100 -83.5t151.5 -104q132 -87 203 -144q69 65 69 163q0 86 -71 157.5t-261 196.5q-132 87 -203 144q-69 -65 -69 -163z" />
<glyph unicode="&#xa8;" horiz-adv-x="799" d="M12 1403q0 62 45.5 108t108.5 46q62 0 108.5 -46.5t46.5 -107.5q0 -63 -46.5 -109t-108.5 -46q-64 0 -109 45.5t-45 109.5zM478 1403q0 62 45.5 108t108.5 46q62 0 108.5 -46.5t46.5 -107.5q0 -63 -46.5 -109t-108.5 -46q-64 0 -109 45.5t-45 109.5z" />
<glyph unicode="&#xa9;" horiz-adv-x="1804" d="M87 786q0 166 64.5 317t173.5 260.5t260 174t317 64.5t317 -64.5t260 -174t173.5 -260.5t64.5 -317t-64.5 -317t-173.5 -260t-260 -173.5t-317 -64.5t-317 64.5t-260 173.5t-173.5 260t-64.5 317zM169 786q0 -203 98 -375.5t266.5 -273t368.5 -100.5q149 0 285 59.5 t234 160t156 239t58 290.5q0 153 -58 291.5t-156 239t-234 160t-285 59.5q-200 0 -368.5 -100.5t-266.5 -273t-98 -376.5zM440 782q0 269 140.5 416.5t367.5 147.5q159 0 260 -66q108 -68 108 -188q0 -72 -45.5 -118.5t-115.5 -46.5q-72 0 -115 42.5t-43 112.5 q0 61 38.5 105.5t96.5 58.5q-19 23 -59.5 38t-84.5 15q-60 0 -107 -37q-64 -36 -97.5 -141t-33.5 -312q0 -124 23 -214.5t62.5 -139.5t85 -71.5t99.5 -22.5q170 0 269 204l36 -13q-19 -61 -51.5 -115.5t-81.5 -102.5t-119.5 -76.5t-154.5 -28.5q-102 0 -187.5 33t-151 99 t-102.5 173.5t-37 247.5z" />
<glyph unicode="&#xaa;" horiz-adv-x="988" d="M93 898q0 81 66 128t219 94q164 53 164 115v37q0 89 -32 128.5t-95 39.5t-111 -31q42 -12 65.5 -45t23.5 -72q0 -54 -40.5 -86t-97.5 -32q-61 0 -98 32t-37 84q0 47 30.5 83.5t80.5 58.5q104 47 262 47q164 0 237.5 -61.5t73.5 -198.5v-345q0 -29 9 -41t30 -12 q34 0 59 23l23 -31q-97 -76 -234 -76q-79 0 -112.5 24.5t-36.5 72.5q-100 -97 -246 -97q-88 0 -145.5 40.5t-57.5 120.5zM366 938q0 -47 22.5 -75.5t56.5 -28.5q53 0 97 38v302q-7 -17 -25 -34.5t-58 -45.5q-93 -64 -93 -156z" />
<glyph unicode="&#xab;" horiz-adv-x="1166" d="M53 517v25q165 103 300.5 238t264.5 311l31 -11q-49 -160 -128.5 -312t-161.5 -236q81 -84 161 -237.5t129 -314.5l-31 -11q-128 175 -264 309.5t-301 238.5zM511 517v25q275 168 515 500l32 -11q-43 -147 -112 -283.5t-141 -215.5q71 -77 140.5 -216t112.5 -287l-32 -11 q-237 328 -515 499z" />
<glyph unicode="&#xac;" horiz-adv-x="1314" d="M151 696v62h1026v-420h-74v358h-952z" />
<glyph unicode="&#xad;" horiz-adv-x="985" />
<glyph unicode="&#xae;" horiz-adv-x="1362" d="M109 1030q0 155 76.5 287t208.5 208.5t287 76.5t286.5 -76.5t208 -208.5t76.5 -287t-76.5 -286.5t-208 -208t-286.5 -76.5t-287 76.5t-208.5 208t-76.5 286.5zM195 1030q0 -136 64.5 -252.5t176.5 -185t245 -68.5q132 0 244 68.5t176.5 185t64.5 252.5q0 137 -64.5 253 t-176 184.5t-244.5 68.5t-245 -68.5t-176.5 -184.5t-64.5 -253zM401 721v31q30 3 39 16t9 59v449q0 48 -9 61.5t-39 16.5v30q30 -2 128 -2q44 0 106 1t70 1q250 0 250 -161q0 -25 -9.5 -48.5t-31.5 -47.5t-65.5 -42.5t-104.5 -28.5q94 -9 132.5 -36.5t49.5 -83.5l30 -134 q5 -25 11.5 -36.5t19.5 -11.5q14 0 23 12l16 -20q-32 -38 -107 -38q-65 0 -98.5 21.5t-42.5 67.5l-30 149q-10 52 -33 70.5t-96 22.5v-212q0 -46 9 -59t38 -16v-31q-15 0 -59.5 1t-69.5 1q-29 0 -76.5 -1t-59.5 -1zM619 1073h25q139 0 139 138q0 143 -110 143 q-33 0 -43.5 -12t-10.5 -46v-223z" />
<glyph unicode="&#xaf;" horiz-adv-x="741" d="M27 1407v51h688v-51h-688z" />
<glyph unicode="&#xb0;" horiz-adv-x="638" d="M70 1434q0 110 73 177.5t175 67.5q104 0 177 -67.5t73 -177.5q0 -112 -73 -180t-177 -68q-102 0 -175 68t-73 180zM121 1432q0 -101 60 -156t137 -55t138 55.5t61 155.5q0 98 -61.5 155.5t-137.5 57.5t-136.5 -57.5t-60.5 -155.5z" />
<glyph unicode="&#xb1;" horiz-adv-x="1222" d="M94 696v62h477v483h73v-483h476v-62h-476v-481h-73v481h-477zM99 0v62h1026v-62h-1026z" />
<glyph unicode="&#xb2;" horiz-adv-x="718" d="M54 897v41q24 21 79.5 62.5t95 75t83.5 79.5t67.5 97.5t23.5 106.5q0 51 -32.5 78t-91.5 27q-114 0 -179 -98l-31 16q96 164 298 164q101 0 163.5 -39t62.5 -113q0 -43 -20 -81t-58.5 -71.5t-77 -60t-93.5 -63t-89 -63.5h277q45 0 62.5 15t33.5 54l35 -6 q-28 -135 -31 -227q-25 6 -78 6h-500z" />
<glyph unicode="&#xb3;" horiz-adv-x="676" d="M50 713v35q169 17 276 92.5t107 188.5q0 65 -34 108t-91 47q-6 -3 -20.5 -10.5t-20.5 -10t-16 -5.5t-18 -3q-32 0 -32 25q0 32 90 28q56 26 79.5 68t23.5 83q0 50 -35 81t-95 31q-115 0 -180 -103l-30 16q88 164 296 164q103 0 168.5 -39.5t65.5 -108.5q0 -70 -64 -120.5 t-176 -73.5q115 5 195 -46.5t80 -140.5q0 -71 -51 -129.5t-135 -94.5t-181.5 -56.5t-201.5 -25.5z" />
<glyph unicode="&#xb4;" horiz-adv-x="457" d="M41 1245q50 90 85.5 178.5t57.5 141t51 87.5q39 48 98 48q41 0 71 -26q37 -30 37 -79q0 -45 -32 -84q-32 -40 -143 -120t-203 -164z" />
<glyph unicode="&#xb6;" horiz-adv-x="1499" d="M67 737q0 209 93.5 370t274.5 253t426 92q76 0 208 -3.5t191 -3.5q91 0 156 5v-39q-88 -4 -116.5 -35.5t-28.5 -103.5v-1426q0 -59 5 -90t23.5 -51t45.5 -26.5t80 -8.5v-41q-126 6 -359 6q-222 0 -327 -6v41q126 4 166 44.5t40 152.5v106q-190 0 -339.5 38t-249.5 105 t-165.5 164t-94.5 209.5t-29 247.5zM249 719q0 -6 79 -15.5t226.5 -17.5t303.5 -8q3 -150 22 -291.5t38 -215t29 -73.5v1245q-9 0 -28.5 -76.5t-38.5 -218.5t-22 -286q-153 0 -302.5 -9.5t-228 -19t-78.5 -14.5z" />
<glyph unicode="&#xb7;" horiz-adv-x="570" d="M111 575q0 74 47 116.5t127 42.5q81 0 128 -42.5t47 -116.5q0 -73 -47 -115.5t-128 -42.5q-80 0 -127 42.5t-47 115.5z" />
<glyph unicode="&#xb8;" horiz-adv-x="467" d="M-7 -360l11 37q51 -9 90 -9q60 0 105 20.5t45 63.5q0 53 -69 53q-48 0 -80 -14l64 214h56l-43 -138q66 24 146 24q68 0 104.5 -29.5t36.5 -79.5q0 -56 -41 -94.5t-104 -55.5t-142 -17q-109 0 -179 25z" />
<glyph unicode="&#xb9;" horiz-adv-x="580" d="M60 1436v43q127 2 207.5 16t148.5 47v-504q0 -58 30.5 -79t106.5 -21v-43q-92 4 -235 4q-148 0 -244 -4v43q76 0 114 21.5t38 78.5v265q0 86 -32.5 109.5t-133.5 23.5z" />
<glyph unicode="&#xba;" horiz-adv-x="959" d="M80 1108q0 177 112.5 274t287.5 97q113 0 202 -41t143 -126.5t54 -203.5t-54 -203.5t-143 -126.5t-202 -41q-175 0 -287.5 97t-112.5 274zM353 1108q0 -170 34.5 -252t92.5 -82q57 0 91.5 82t34.5 252t-34.5 252t-91.5 82q-58 0 -92.5 -82t-34.5 -252z" />
<glyph unicode="&#xbb;" horiz-adv-x="1165" d="M108 28q42 146 111.5 282.5t141.5 215.5q-71 77 -141 216.5t-112 287.5l31 11q117 -160 241.5 -283.5t274.5 -216.5v-25q-277 -170 -516 -499zM517 -21q48 159 127.5 310t162.5 237q-82 84 -162 238t-128 315l31 11q127 -175 263.5 -310.5t300.5 -238.5v-25 q-305 -191 -564 -548z" />
<glyph unicode="&#xbc;" horiz-adv-x="1452" d="M92 1436v43q127 2 207.5 16t148.5 47v-504q0 -58 30.5 -79t106.5 -21v-43q-92 4 -235 4q-148 0 -244 -4v43q76 0 114 21.5t38 78.5v265q0 86 -32.5 109.5t-133.5 23.5zM161 -86l1198 1774l39 -27l-1198 -1774zM600 37v43l505 559h43v-484h29q46 0 63 15t33 55l35 -6 q-22 -71 -28 -188q-25 6 -78 6h-54v-240h-147v240h-401zM712 155h289v319z" />
<glyph unicode="&#xbd;" horiz-adv-x="1475" d="M94 1436v43q127 2 207.5 16t148.5 47v-504q0 -58 30.5 -79t106.5 -21v-43q-92 4 -235 4q-148 0 -244 -4v43q76 0 114 21.5t38 78.5v265q0 86 -32.5 109.5t-133.5 23.5zM128 -86l1198 1774l39 -27l-1198 -1774zM796 2v41q24 21 79.5 62.5t95 75t83.5 79.5t67.5 97.5 t23.5 106.5q0 51 -32.5 78t-91.5 27q-114 0 -179 -98l-31 16q96 164 298 164q101 0 163.5 -39t62.5 -113q0 -43 -20 -81t-58.5 -71.5t-77 -60t-93.5 -63t-89 -63.5h277q45 0 62.5 15t33.5 54l35 -6q-28 -135 -31 -227q-25 6 -78 6h-500z" />
<glyph unicode="&#xbe;" horiz-adv-x="1541" d="M93 713v35q169 17 276 92.5t107 188.5q0 65 -34 108t-91 47q-6 -3 -20.5 -10.5t-20.5 -10t-16 -5.5t-18 -3q-32 0 -32 25q0 32 90 28q56 26 79.5 68t23.5 83q0 50 -35 81t-95 31q-115 0 -180 -103l-30 16q88 164 296 164q103 0 168.5 -39.5t65.5 -108.5q0 -70 -64 -120.5 t-176 -73.5q115 5 195 -46.5t80 -140.5q0 -71 -51 -129.5t-135 -94.5t-181.5 -56.5t-201.5 -25.5zM246 -86l1198 1774l39 -27l-1198 -1774zM694 37v43l505 559h43v-484h29q46 0 63 15t33 55l35 -6q-22 -71 -28 -188q-25 6 -78 6h-54v-240h-147v240h-401zM806 155h289v319z " />
<glyph unicode="&#xbf;" horiz-adv-x="1030" d="M59 -25q0 157 140.5 265.5t381.5 156.5v265h41v-283q-68 -29 -117 -63.5t-78.5 -70t-46.5 -79.5t-23 -84.5t-6 -91.5q0 -169 67.5 -251.5t184.5 -82.5q128 0 177 45q-114 36 -114 149q0 65 45.5 106.5t117.5 41.5q63 0 103.5 -41.5t40.5 -100.5q0 -109 -117 -174 q-116 -67 -306 -67q-222 0 -356.5 97t-134.5 263zM426 932q0 74 47 116.5t127 42.5q81 0 128 -42.5t47 -116.5q0 -73 -47 -115.5t-128 -42.5q-80 0 -127 42.5t-47 115.5z" />
<glyph unicode="&#xc0;" horiz-adv-x="1366" d="M-32 0v41q103 19 178 215l466 1198q33 -3 71 -3t71 3l497 -1282q26 -68 60.5 -98.5t68.5 -32.5v-41q-122 6 -311 6q-210 0 -312 -6v41q77 3 110.5 19t33.5 56q0 36 -24 97l-123 336h-445l-55 -142q-56 -144 -56 -227q0 -76 45.5 -106.5t136.5 -32.5v-41q-140 6 -255 6 q-96 0 -157 -6zM308 1821q0 25 12 48q15 28 42.5 43.5t59.5 15.5q34 0 63 -16q40 -21 80 -62t106 -110t146 -134l-14 -25q-95 36 -185.5 60.5t-146.5 39.5t-94 36q-69 37 -69 104zM324 590h415l-203 551z" />
<glyph unicode="&#xc1;" horiz-adv-x="1366" d="M-32 0v41q103 19 178 215l466 1198q33 -3 71 -3t71 3l497 -1282q26 -68 60.5 -98.5t68.5 -32.5v-41q-122 6 -311 6q-210 0 -312 -6v41q77 3 110.5 19t33.5 56q0 36 -24 97l-123 336h-445l-55 -142q-56 -144 -56 -227q0 -76 45.5 -106.5t136.5 -32.5v-41q-140 6 -255 6 q-96 0 -157 -6zM324 590h415l-203 551zM530 1606q81 66 147 134.5t105.5 109.5t79.5 62q29 16 64 16q32 0 59.5 -15.5t42.5 -43.5q11 -21 11 -47q0 -68 -68 -105q-45 -25 -177.5 -58.5t-248.5 -77.5z" />
<glyph unicode="&#xc2;" horiz-adv-x="1366" d="M-32 0v41q103 19 178 215l466 1198q33 -3 71 -3t71 3l497 -1282q26 -68 60.5 -98.5t68.5 -32.5v-41q-122 6 -311 6q-210 0 -312 -6v41q77 3 110.5 19t33.5 56q0 36 -24 97l-123 336h-445l-55 -142q-56 -144 -56 -227q0 -76 45.5 -106.5t136.5 -32.5v-41q-140 6 -255 6 q-96 0 -157 -6zM242 1606q131 55 242.5 141t177.5 178h37q63 -91 175 -177t244 -142l-10 -30q-132 23 -262 59.5t-207 72.5q-64 -36 -171.5 -72.5t-215.5 -59.5zM324 590h415l-203 551z" />
<glyph unicode="&#xc3;" horiz-adv-x="1366" d="M-32 0v41q103 19 178 215l466 1198q33 -3 71 -3t71 3l497 -1282q26 -68 60.5 -98.5t68.5 -32.5v-41q-122 6 -311 6q-210 0 -312 -6v41q77 3 110.5 19t33.5 56q0 36 -24 97l-123 336h-445l-55 -142q-56 -144 -56 -227q0 -76 45.5 -106.5t136.5 -32.5v-41q-140 6 -255 6 q-96 0 -157 -6zM226 1617q27 135 101.5 205t172.5 70q53 0 102 -15t86.5 -36t74 -42.5t80 -36.5t87.5 -15q109 0 170 111l30 -11q-27 -135 -101.5 -205t-171.5 -70q-65 0 -126 23t-101.5 50t-95.5 50t-109 23q-107 0 -170 -112zM324 590h415l-203 551z" />
<glyph unicode="&#xc4;" horiz-adv-x="1366" d="M-32 0v41q103 19 178 215l466 1198q33 -3 71 -3t71 3l497 -1282q26 -68 60.5 -98.5t68.5 -32.5v-41q-122 6 -311 6q-210 0 -312 -6v41q77 3 110.5 19t33.5 56q0 36 -24 97l-123 336h-445l-55 -142q-56 -144 -56 -227q0 -76 45.5 -106.5t136.5 -32.5v-41q-140 6 -255 6 q-96 0 -157 -6zM280 1723q0 62 46 108.5t109 46.5q61 0 107.5 -46.5t46.5 -108.5q0 -63 -46 -108.5t-108 -45.5q-64 0 -109.5 45t-45.5 109zM324 590h415l-203 551zM771 1723q0 62 45.5 108.5t108.5 46.5q61 0 108 -47t47 -108q0 -63 -46.5 -108.5t-108.5 -45.5 q-64 0 -109 45t-45 109z" />
<glyph unicode="&#xc5;" horiz-adv-x="1366" d="M-32 0v41q103 19 178 215l466 1198q33 -3 71 -3t71 3l497 -1282q26 -68 60.5 -98.5t68.5 -32.5v-41q-122 6 -311 6q-210 0 -312 -6v41q77 3 110.5 19t33.5 56q0 36 -24 97l-123 336h-445l-55 -142q-56 -144 -56 -227q0 -76 45.5 -106.5t136.5 -32.5v-41q-140 6 -255 6 q-96 0 -157 -6zM324 590h415l-203 551zM459 1720q0 89 65 144t156 55q93 0 158.5 -55t65.5 -144q0 -90 -65.5 -145t-158.5 -55q-91 0 -156 55t-65 145zM516 1718q0 -74 49.5 -114.5t114.5 -40.5q66 0 116 40.5t50 114.5q0 72 -50.5 115t-115.5 43q-64 0 -114 -43t-50 -115z " />
<glyph unicode="&#xc6;" horiz-adv-x="1820" d="M-29 0v41q34 2 67 31.5t74 99.5l696 1182q-14 30 -44 41t-95 14v41q60 -2 194 -4l79 135h49l-79 -135q144 -2 363 -2q290 0 412 6q-14 -155 -14 -279q0 -89 6 -139h-47q-25 204 -87.5 287.5t-174.5 83.5h-68q-68 0 -98 -12t-42.5 -46.5t-12.5 -111.5v-483h108q23 0 43 5 t35.5 16t27 21.5t21.5 30t16 31.5t12.5 36.5t9 34.5t7.5 35.5t6 30.5h47q-7 -91 -7 -174q0 -17 0.5 -46t0.5 -42q0 -93 12 -262h-47q-7 44 -12.5 71t-19 63.5t-31.5 57t-49 35.5t-72 15h-108v-492q0 -77 12.5 -111.5t42.5 -46.5t98 -12h100q113 0 181 94.5t90 317.5h47 q-6 -66 -6 -172q0 -165 14 -287q-134 6 -453 6q-390 0 -589 -6v41q62 3 89 16.5t37.5 48t10.5 111.5v492h-343l-290 -496q-37 -64 -37 -100t34.5 -52.5t107.5 -19.5v-41q-61 6 -187 6q-86 0 -137 -6zM504 750h319v483q0 24 -2 58z" />
<glyph unicode="&#xc7;" horiz-adv-x="1445" d="M88 713q0 226 92 400.5t257 270t376 95.5q122 0 208 -35t168 -98q22 -18 40 -18q41 0 53 122h47q-8 -140 -8 -496h-48q-18 152 -48.5 231.5t-105.5 139.5q-104 101 -259 101q-106 0 -187 -58.5t-128 -159.5t-70 -223.5t-23 -263.5q0 -142 24.5 -265t73 -222t130.5 -156 t188 -57q70 0 138.5 25.5t116.5 73.5q75 58 104.5 145t45.5 251h48q0 -371 8 -516h-47q-6 64 -17.5 92.5t-32.5 28.5q-17 0 -43 -17q-89 -63 -167.5 -96.5t-188.5 -36.5l-33 -104q70 24 158 24q73 0 113 -29.5t40 -79.5q0 -83 -91.5 -125t-232.5 -42q-117 0 -190 25l10 37 q60 -9 103 -9q75 0 130.5 20.5t55.5 63.5q0 53 -93 53q-47 0 -81 -14l56 181q-316 10 -503 206t-187 535z" />
<glyph unicode="&#xc8;" horiz-adv-x="1298" d="M69 0v41q52 2 79 8.5t45.5 26.5t23.5 51t5 90v1016q0 58 -5 89.5t-23.5 51.5t-45.5 26.5t-79 8.5v41q223 -6 667 -6q302 0 428 6q-14 -169 -14 -303q0 -89 6 -139h-47q-30 218 -110 306.5t-226 88.5h-84q-90 0 -115.5 -25.5t-25.5 -120.5v-507h66q47 0 86 18t64.5 44.5 t45.5 64.5t30.5 71.5t17.5 71.5h47q-7 -102 -7 -193q0 -20 0.5 -52t0.5 -46q0 -104 12 -291h-47q-40 271 -250 271h-66v-516q0 -95 25.5 -120.5t115.5 -25.5h101q145 0 234 99.5t126 336.5h47q-6 -66 -6 -172q0 -167 14 -311q-139 6 -469 6q-444 0 -667 -6zM272 1821 q0 25 12 48q15 28 42.5 43.5t59.5 15.5q34 0 63 -16q40 -21 80 -62t106 -110t146 -134l-14 -25q-95 36 -185.5 60.5t-146.5 39.5t-94 36q-69 37 -69 104z" />
<glyph unicode="&#xc9;" horiz-adv-x="1298" d="M69 0v41q52 2 79 8.5t45.5 26.5t23.5 51t5 90v1016q0 58 -5 89.5t-23.5 51.5t-45.5 26.5t-79 8.5v41q223 -6 667 -6q302 0 428 6q-14 -169 -14 -303q0 -89 6 -139h-47q-30 218 -110 306.5t-226 88.5h-84q-90 0 -115.5 -25.5t-25.5 -120.5v-507h66q47 0 86 18t64.5 44.5 t45.5 64.5t30.5 71.5t17.5 71.5h47q-7 -102 -7 -193q0 -20 0.5 -52t0.5 -46q0 -104 12 -291h-47q-40 271 -250 271h-66v-516q0 -95 25.5 -120.5t115.5 -25.5h101q145 0 234 99.5t126 336.5h47q-6 -66 -6 -172q0 -167 14 -311q-139 6 -469 6q-444 0 -667 -6zM494 1606 q81 66 147 134.5t105.5 109.5t79.5 62q29 16 64 16q32 0 59.5 -15.5t42.5 -43.5q11 -21 11 -47q0 -68 -68 -105q-45 -25 -177.5 -58.5t-248.5 -77.5z" />
<glyph unicode="&#xca;" horiz-adv-x="1298" d="M69 0v41q52 2 79 8.5t45.5 26.5t23.5 51t5 90v1016q0 58 -5 89.5t-23.5 51.5t-45.5 26.5t-79 8.5v41q223 -6 667 -6q302 0 428 6q-14 -169 -14 -303q0 -89 6 -139h-47q-30 218 -110 306.5t-226 88.5h-84q-90 0 -115.5 -25.5t-25.5 -120.5v-507h66q47 0 86 18t64.5 44.5 t45.5 64.5t30.5 71.5t17.5 71.5h47q-7 -102 -7 -193q0 -20 0.5 -52t0.5 -46q0 -104 12 -291h-47q-40 271 -250 271h-66v-516q0 -95 25.5 -120.5t115.5 -25.5h101q145 0 234 99.5t126 336.5h47q-6 -66 -6 -172q0 -167 14 -311q-139 6 -469 6q-444 0 -667 -6zM206 1606 q131 55 242.5 141t177.5 178h37q63 -91 175 -177t244 -142l-10 -30q-132 23 -262 59.5t-207 72.5q-64 -36 -171.5 -72.5t-215.5 -59.5z" />
<glyph unicode="&#xcb;" horiz-adv-x="1298" d="M69 0v41q52 2 79 8.5t45.5 26.5t23.5 51t5 90v1016q0 58 -5 89.5t-23.5 51.5t-45.5 26.5t-79 8.5v41q223 -6 667 -6q302 0 428 6q-14 -169 -14 -303q0 -89 6 -139h-47q-30 218 -110 306.5t-226 88.5h-84q-90 0 -115.5 -25.5t-25.5 -120.5v-507h66q47 0 86 18t64.5 44.5 t45.5 64.5t30.5 71.5t17.5 71.5h47q-7 -102 -7 -193q0 -20 0.5 -52t0.5 -46q0 -104 12 -291h-47q-40 271 -250 271h-66v-516q0 -95 25.5 -120.5t115.5 -25.5h101q145 0 234 99.5t126 336.5h47q-6 -66 -6 -172q0 -167 14 -311q-139 6 -469 6q-444 0 -667 -6zM244 1723 q0 62 46 108.5t109 46.5q61 0 107.5 -46.5t46.5 -108.5q0 -63 -46 -108.5t-108 -45.5q-64 0 -109.5 45t-45.5 109zM735 1723q0 62 45.5 108.5t108.5 46.5q61 0 108 -47t47 -108q0 -63 -46.5 -108.5t-108.5 -45.5q-64 0 -109 45t-45 109z" />
<glyph unicode="&#xcc;" horiz-adv-x="770" d="M20 1821q0 25 12 48q15 28 42.5 43.5t59.5 15.5q34 0 63 -16q40 -21 80 -62t106 -110t146 -134l-14 -25q-95 36 -185.5 60.5t-146.5 39.5t-94 36q-69 37 -69 104zM69 0v41q52 2 79 8.5t45.5 26.5t23.5 51t5 90v1016q0 58 -5 89.5t-23.5 51.5t-45.5 26.5t-79 8.5v41 q103 -6 323 -6q199 0 310 6v-41q-53 -2 -80 -8.5t-45.5 -26.5t-23.5 -51t-5 -90v-1016q0 -58 5 -89.5t23.5 -51.5t46 -26.5t79.5 -8.5v-41q-111 6 -310 6q-220 0 -323 -6z" />
<glyph unicode="&#xcd;" horiz-adv-x="770" d="M69 0v41q52 2 79 8.5t45.5 26.5t23.5 51t5 90v1016q0 58 -5 89.5t-23.5 51.5t-45.5 26.5t-79 8.5v41q103 -6 323 -6q199 0 310 6v-41q-53 -2 -80 -8.5t-45.5 -26.5t-23.5 -51t-5 -90v-1016q0 -58 5 -89.5t23.5 -51.5t46 -26.5t79.5 -8.5v-41q-111 6 -310 6 q-220 0 -323 -6zM242 1606q81 66 147 134.5t105.5 109.5t79.5 62q29 16 64 16q32 0 59.5 -15.5t42.5 -43.5q11 -21 11 -47q0 -68 -68 -105q-45 -25 -177.5 -58.5t-248.5 -77.5z" />
<glyph unicode="&#xce;" horiz-adv-x="770" d="M-46 1606q131 55 242.5 141t177.5 178h37q63 -91 175 -177t244 -142l-10 -30q-132 23 -262 59.5t-207 72.5q-64 -36 -171.5 -72.5t-215.5 -59.5zM69 0v41q52 2 79 8.5t45.5 26.5t23.5 51t5 90v1016q0 58 -5 89.5t-23.5 51.5t-45.5 26.5t-79 8.5v41q103 -6 323 -6 q199 0 310 6v-41q-53 -2 -80 -8.5t-45.5 -26.5t-23.5 -51t-5 -90v-1016q0 -58 5 -89.5t23.5 -51.5t46 -26.5t79.5 -8.5v-41q-111 6 -310 6q-220 0 -323 -6z" />
<glyph unicode="&#xcf;" horiz-adv-x="770" d="M-8 1723q0 62 46 108.5t109 46.5q61 0 107.5 -46.5t46.5 -108.5q0 -63 -46 -108.5t-108 -45.5q-64 0 -109.5 45t-45.5 109zM69 0v41q52 2 79 8.5t45.5 26.5t23.5 51t5 90v1016q0 58 -5 89.5t-23.5 51.5t-45.5 26.5t-79 8.5v41q103 -6 323 -6q199 0 310 6v-41 q-53 -2 -80 -8.5t-45.5 -26.5t-23.5 -51t-5 -90v-1016q0 -58 5 -89.5t23.5 -51.5t46 -26.5t79.5 -8.5v-41q-111 6 -310 6q-220 0 -323 -6zM483 1723q0 62 45.5 108.5t108.5 46.5q61 0 108 -47t47 -108q0 -63 -46.5 -108.5t-108.5 -45.5q-64 0 -109 45t-45 109z" />
<glyph unicode="&#xd0;" horiz-adv-x="1590" d="M70 0v41q52 2 79 8.5t45.5 26.5t23.5 51t5 90v492h-153v41h153v483q0 58 -5 89.5t-23.5 51.5t-45.5 26.5t-79 8.5v41q131 -7 247 -7q11 0 32 0.5t32 0.5q294 6 322 6q399 0 597.5 -181t198.5 -528q0 -167 -55.5 -304t-158.5 -234t-256.5 -150t-344.5 -53q-28 0 -139 3 t-160 3q-211 0 -315 -6zM549 213q0 -108 29.5 -142t124.5 -34q128 0 216.5 45t141 136.5t75.5 216.5t23 298q0 350 -107 515t-351 165q-93 0 -122.5 -34.5t-29.5 -141.5v-487h254v-41h-254v-496z" />
<glyph unicode="&#xd1;" horiz-adv-x="1478" d="M71 0v41q96 13 125 66t29 204v922q0 58 -5 89.5t-23.5 51.5t-46 26.5t-79.5 8.5v41q65 -6 178 -6q105 0 177 6l792 -977v641q0 74 -3.5 116t-14 78.5t-33.5 54.5t-57.5 29t-90.5 17v41q80 -6 222 -6q113 0 178 6v-41q-96 -13 -125 -66t-29 -204v-1143q-15 1 -49 1 q-36 0 -56 -1l-888 1126v-786q0 -74 3.5 -116t14 -78.5t33.5 -54.5t57.5 -29t90.5 -17v-41q-79 6 -222 6q-113 0 -178 -6zM322 1617q27 135 101.5 205t172.5 70q53 0 102 -15t86.5 -36t74 -42.5t80 -36.5t87.5 -15q109 0 170 111l30 -11q-27 -135 -101.5 -205t-171.5 -70 q-65 0 -126 23t-101.5 50t-95.5 50t-109 23q-107 0 -170 -112z" />
<glyph unicode="&#xd2;" horiz-adv-x="1623" d="M88 713q0 226 92 400.5t257 270t376 95.5q329 0 526 -197.5t197 -544.5q0 -226 -92.5 -400.5t-257 -270t-375.5 -95.5q-217 0 -379.5 87t-253 255.5t-90.5 399.5zM428 721q0 -320 112.5 -516.5t278.5 -196.5q170 0 273.5 200t103.5 521q0 320 -112.5 516.5t-279.5 196.5 q-170 0 -273 -200t-103 -521zM437 1821q0 25 12 48q15 28 42.5 43.5t59.5 15.5q34 0 63 -16q40 -21 80 -62t106 -110t146 -134l-14 -25q-95 36 -185.5 60.5t-146.5 39.5t-94 36q-69 37 -69 104z" />
<glyph unicode="&#xd3;" horiz-adv-x="1623" d="M88 713q0 226 92 400.5t257 270t376 95.5q329 0 526 -197.5t197 -544.5q0 -226 -92.5 -400.5t-257 -270t-375.5 -95.5q-217 0 -379.5 87t-253 255.5t-90.5 399.5zM428 721q0 -320 112.5 -516.5t278.5 -196.5q170 0 273.5 200t103.5 521q0 320 -112.5 516.5t-279.5 196.5 q-170 0 -273 -200t-103 -521zM659 1606q81 66 147 134.5t105.5 109.5t79.5 62q29 16 64 16q32 0 59.5 -15.5t42.5 -43.5q11 -21 11 -47q0 -68 -68 -105q-45 -25 -177.5 -58.5t-248.5 -77.5z" />
<glyph unicode="&#xd4;" horiz-adv-x="1623" d="M88 713q0 226 92 400.5t257 270t376 95.5q329 0 526 -197.5t197 -544.5q0 -226 -92.5 -400.5t-257 -270t-375.5 -95.5q-217 0 -379.5 87t-253 255.5t-90.5 399.5zM371 1606q131 55 242.5 141t177.5 178h37q63 -91 175 -177t244 -142l-10 -30q-132 23 -262 59.5t-207 72.5 q-64 -36 -171.5 -72.5t-215.5 -59.5zM428 721q0 -320 112.5 -516.5t278.5 -196.5q170 0 273.5 200t103.5 521q0 320 -112.5 516.5t-279.5 196.5q-170 0 -273 -200t-103 -521z" />
<glyph unicode="&#xd5;" horiz-adv-x="1623" d="M88 713q0 226 92 400.5t257 270t376 95.5q329 0 526 -197.5t197 -544.5q0 -226 -92.5 -400.5t-257 -270t-375.5 -95.5q-217 0 -379.5 87t-253 255.5t-90.5 399.5zM355 1617q27 135 101.5 205t172.5 70q53 0 102 -15t86.5 -36t74 -42.5t80 -36.5t87.5 -15q109 0 170 111 l30 -11q-27 -135 -101.5 -205t-171.5 -70q-65 0 -126 23t-101.5 50t-95.5 50t-109 23q-107 0 -170 -112zM428 721q0 -320 112.5 -516.5t278.5 -196.5q170 0 273.5 200t103.5 521q0 320 -112.5 516.5t-279.5 196.5q-170 0 -273 -200t-103 -521z" />
<glyph unicode="&#xd6;" horiz-adv-x="1623" d="M88 713q0 226 92 400.5t257 270t376 95.5q329 0 526 -197.5t197 -544.5q0 -226 -92.5 -400.5t-257 -270t-375.5 -95.5q-217 0 -379.5 87t-253 255.5t-90.5 399.5zM409 1723q0 62 46 108.5t109 46.5q61 0 107.5 -46.5t46.5 -108.5q0 -63 -46 -108.5t-108 -45.5 q-64 0 -109.5 45t-45.5 109zM428 721q0 -320 112.5 -516.5t278.5 -196.5q170 0 273.5 200t103.5 521q0 320 -112.5 516.5t-279.5 196.5q-170 0 -273 -200t-103 -521zM900 1723q0 62 45.5 108.5t108.5 46.5q62 0 108.5 -47t46.5 -108q0 -63 -46.5 -108.5t-108.5 -45.5 q-64 0 -109 45t-45 109z" />
<glyph unicode="&#xd7;" horiz-adv-x="1010" d="M104 1085l45 45l358 -358l354 354l45 -45l-354 -352l354 -354l-45 -45l-354 354l-356 -356l-45 45l356 354z" />
<glyph unicode="&#xd8;" horiz-adv-x="1623" d="M88 713q0 226 92 400.5t257 270t376 95.5q228 0 398 -98l146 214l39 -26l-145 -214q137 -94 211 -251.5t74 -366.5q0 -226 -92.5 -400.5t-257 -270t-375.5 -95.5q-241 0 -416 109l-171 -242l-43 29l171 242q-127 95 -195.5 249t-68.5 355zM428 721q0 -249 71 -429 l595 934q-54 104 -129 160t-161 56q-170 0 -273 -200t-103 -521zM524 236q54 -110 130.5 -169t164.5 -59q170 0 273.5 200t103.5 521q0 259 -78 445z" />
<glyph unicode="&#xd9;" horiz-adv-x="1410" d="M38 1409v41q105 -6 321 -6q210 0 324 6v-41q-74 -3 -106.5 -16t-46 -48t-13.5 -112v-773q0 -215 62.5 -316t220.5 -101q85 0 149.5 25.5t106.5 71t68.5 113t37.5 145.5t11 175v541q0 90 -6.5 139.5t-29 85t-59.5 49.5t-104 21v41q80 -6 221 -6q115 0 178 6v-41 q-96 -13 -124.5 -66t-28.5 -204v-543q0 -294 -84 -434q-114 -191 -414 -191q-239 0 -369 104q-95 76 -128 191t-33 324v643q0 59 -5 90t-23.5 51t-45.5 26.5t-80 8.5zM360 1821q0 25 12 48q15 28 42.5 43.5t59.5 15.5q34 0 63 -16q40 -21 80 -62t106 -110t146 -134l-14 -25 q-95 36 -185.5 60.5t-146.5 39.5t-94 36q-69 37 -69 104z" />
<glyph unicode="&#xda;" horiz-adv-x="1410" d="M38 1409v41q105 -6 321 -6q210 0 324 6v-41q-74 -3 -106.5 -16t-46 -48t-13.5 -112v-773q0 -215 62.5 -316t220.5 -101q85 0 149.5 25.5t106.5 71t68.5 113t37.5 145.5t11 175v541q0 90 -6.5 139.5t-29 85t-59.5 49.5t-104 21v41q80 -6 221 -6q115 0 178 6v-41 q-96 -13 -124.5 -66t-28.5 -204v-543q0 -294 -84 -434q-114 -191 -414 -191q-239 0 -369 104q-95 76 -128 191t-33 324v643q0 59 -5 90t-23.5 51t-45.5 26.5t-80 8.5zM582 1606q81 66 147 134.5t105.5 109.5t79.5 62q29 16 64 16q32 0 59.5 -15.5t42.5 -43.5q11 -21 11 -47 q0 -68 -68 -105q-45 -25 -177.5 -58.5t-248.5 -77.5z" />
<glyph unicode="&#xdb;" horiz-adv-x="1410" d="M38 1409v41q105 -6 321 -6q210 0 324 6v-41q-74 -3 -106.5 -16t-46 -48t-13.5 -112v-773q0 -215 62.5 -316t220.5 -101q85 0 149.5 25.5t106.5 71t68.5 113t37.5 145.5t11 175v541q0 90 -6.5 139.5t-29 85t-59.5 49.5t-104 21v41q80 -6 221 -6q115 0 178 6v-41 q-96 -13 -124.5 -66t-28.5 -204v-543q0 -294 -84 -434q-114 -191 -414 -191q-239 0 -369 104q-95 76 -128 191t-33 324v643q0 59 -5 90t-23.5 51t-45.5 26.5t-80 8.5zM294 1606q131 55 242.5 141t177.5 178h37q63 -91 175 -177t244 -142l-10 -30q-132 23 -262 59.5 t-207 72.5q-64 -36 -171.5 -72.5t-215.5 -59.5z" />
<glyph unicode="&#xdc;" horiz-adv-x="1410" d="M38 1409v41q105 -6 321 -6q210 0 324 6v-41q-74 -3 -106.5 -16t-46 -48t-13.5 -112v-773q0 -215 62.5 -316t220.5 -101q85 0 149.5 25.5t106.5 71t68.5 113t37.5 145.5t11 175v541q0 90 -6.5 139.5t-29 85t-59.5 49.5t-104 21v41q80 -6 221 -6q115 0 178 6v-41 q-96 -13 -124.5 -66t-28.5 -204v-543q0 -294 -84 -434q-114 -191 -414 -191q-239 0 -369 104q-95 76 -128 191t-33 324v643q0 59 -5 90t-23.5 51t-45.5 26.5t-80 8.5zM332 1723q0 62 46 108.5t109 46.5q61 0 107.5 -46.5t46.5 -108.5q0 -63 -46 -108.5t-108 -45.5 q-64 0 -109.5 45t-45.5 109zM823 1723q0 62 45.5 108.5t108.5 46.5q61 0 108 -47t47 -108q0 -63 -46.5 -108.5t-108.5 -45.5q-64 0 -109 45t-45 109z" />
<glyph unicode="&#xdd;" horiz-adv-x="1275" d="M-14 1408v43q120 -10 242 -10q190 0 385 10v-43q-73 0 -114 -12.5t-41 -48.5q0 -19 13 -45l312 -598l159 318q81 161 81 252q0 131 -171 136v41q140 -6 255 -6q95 0 156 6v-41q-95 -37 -196 -236l-242 -480v-477q0 -58 5 -89.5t23.5 -51.5t45.5 -26.5t79 -8.5v-41 q-110 6 -315 6q-217 0 -318 -6v41q53 2 80 8.5t45.5 26.5t23.5 51t5 90v348l-394 729q-63 114 -119 114zM527 1606q81 66 147 134.5t105.5 109.5t79.5 62q29 16 64 16q32 0 59.5 -15.5t42.5 -43.5q11 -21 11 -47q0 -68 -68 -105q-45 -25 -177.5 -58.5t-248.5 -77.5z" />
<glyph unicode="&#xde;" horiz-adv-x="1271" d="M69 0v41q52 2 79 8.5t45.5 26.5t23.5 51t5 90v1016q0 58 -5 89.5t-23.5 51.5t-45.5 26.5t-79 8.5v41q103 -6 323 -6q199 0 310 6v-41q-53 -2 -80 -8.5t-45.5 -26.5t-23.5 -51t-5 -90v-73q102 2 115 2q282 0 424.5 -101.5t142.5 -291.5q0 -74 -17 -138.5t-60 -126.5 t-110.5 -106t-176 -71t-248.5 -27h-70v-83q0 -58 5 -89.5t23.5 -51.5t46 -26.5t79.5 -8.5v-41q-111 6 -310 6q-220 0 -323 -6zM548 341h49q70 0 123 22t85 58.5t51.5 90.5t26.5 110.5t7 127.5q0 189 -64.5 281t-213.5 92l-64 -1v-781z" />
<glyph unicode="&#xdf;" horiz-adv-x="1498" d="M18 0v41q52 2 79 8.5t45.5 26.5t23.5 51.5t5 89.5v391q0 338 165.5 502t476.5 164q334 0 542 -158l-293 -396q373 -124 373 -380q0 -161 -143.5 -265t-361.5 -104q-135 0 -220 40q-119 56 -119 193q0 78 45 125.5t112 47.5q66 0 107.5 -44.5t41.5 -117.5 q0 -66 -34.5 -111.5t-87.5 -67.5q27 -21 93 -21q99 0 163 87.5t64 246.5q0 329 -344 435l289 414q-59 39 -188 39q-80 0 -141 -23t-111 -77.5t-76.5 -156t-26.5 -247.5v-516q0 -105 16.5 -140t71.5 -36v-41q-28 0 -109 3t-165 3q-189 0 -293 -6z" />
<glyph unicode="&#xe0;" horiz-adv-x="1284" d="M-23 0v41q51 10 92 61.5t88 158.5l433 988q32 -2 47 -2q17 0 47 2l487 -1077q59 -128 129 -131v-41q-96 6 -269 6q-219 0 -323 -6v41q68 3 100.5 20.5t32.5 57.5q0 35 -27 94l-102 233h-430l-24 -55q-58 -132 -58 -211q0 -71 45 -102.5t133 -36.5v-41q-117 6 -235 6 q-109 0 -166 -6zM261 1653q0 25 12 48q15 28 42.5 43.5t59.5 15.5q34 0 63 -16q40 -21 80 -62t106 -109.5t146 -133.5l-14 -26q-95 36 -185.5 60.5t-146.5 39.5t-94 36q-69 37 -69 104zM300 487h394l-196 449z" />
<glyph unicode="&#xe1;" horiz-adv-x="1284" d="M-23 0v41q51 10 92 61.5t88 158.5l433 988q32 -2 47 -2q17 0 47 2l487 -1077q59 -128 129 -131v-41q-96 6 -269 6q-219 0 -323 -6v41q68 3 100.5 20.5t32.5 57.5q0 35 -27 94l-102 233h-430l-24 -55q-58 -132 -58 -211q0 -71 45 -102.5t133 -36.5v-41q-117 6 -235 6 q-109 0 -166 -6zM300 487h394l-196 449zM457 1439q81 65 146.5 133.5t105.5 109.5t80 62q29 16 63 16q72 0 102 -59q12 -24 12 -48q0 -67 -68 -104q-45 -25 -178 -58.5t-249 -77.5z" />
<glyph unicode="&#xe2;" horiz-adv-x="1284" d="M-23 0v41q51 10 92 61.5t88 158.5l433 988q32 -2 47 -2q17 0 47 2l487 -1077q59 -128 129 -131v-41q-96 6 -269 6q-219 0 -323 -6v41q68 3 100.5 20.5t32.5 57.5q0 35 -27 94l-102 233h-430l-24 -55q-58 -132 -58 -211q0 -71 45 -102.5t133 -36.5v-41q-117 6 -235 6 q-109 0 -166 -6zM209 1430q128 54 237.5 140.5t174.5 178.5h37q62 -91 172 -177t239 -142l-10 -30q-132 23 -259 59.5t-202 72.5q-62 -36 -166.5 -72.5t-212.5 -59.5zM300 487h394l-196 449z" />
<glyph unicode="&#xe3;" horiz-adv-x="1284" d="M-23 0v41q51 10 92 61.5t88 158.5l433 988q32 -2 47 -2q17 0 47 2l487 -1077q59 -128 129 -131v-41q-96 6 -269 6q-219 0 -323 -6v41q68 3 100.5 20.5t32.5 57.5q0 35 -27 94l-102 233h-430l-24 -55q-58 -132 -58 -211q0 -71 45 -102.5t133 -36.5v-41q-117 6 -235 6 q-109 0 -166 -6zM178 1466q33 136 105.5 205.5t168.5 69.5q64 0 125.5 -22.5t101.5 -49.5t95 -49.5t108 -22.5q113 0 177 112l31 -12q-33 -136 -105.5 -205.5t-167.5 -69.5q-53 0 -102.5 15t-87.5 36t-74.5 42.5t-79.5 36.5t-87 15q-112 0 -177 -114zM300 487h394l-196 449z " />
<glyph unicode="&#xe4;" horiz-adv-x="1284" d="M-23 0v41q51 10 92 61.5t88 158.5l433 988q32 -2 47 -2q17 0 47 2l487 -1077q59 -128 129 -131v-41q-96 6 -269 6q-219 0 -323 -6v41q68 3 100.5 20.5t32.5 57.5q0 35 -27 94l-102 233h-430l-24 -55q-58 -132 -58 -211q0 -71 45 -102.5t133 -36.5v-41q-117 6 -235 6 q-109 0 -166 -6zM237 1586q0 62 46 108t109 46q62 0 108 -46t46 -108q0 -63 -46 -108.5t-108 -45.5q-64 0 -109.5 45t-45.5 109zM300 487h394l-196 449zM728 1586q0 62 45.5 108t108.5 46q62 0 108.5 -46.5t46.5 -107.5q0 -63 -46.5 -108.5t-108.5 -45.5q-64 0 -109 45 t-45 109z" />
<glyph unicode="&#xe5;" horiz-adv-x="1284" d="M-23 0v41q51 10 92 61.5t88 158.5l433 988q32 -2 47 -2q17 0 47 2l487 -1077q59 -128 129 -131v-41q-96 6 -269 6q-219 0 -323 -6v41q68 3 100.5 20.5t32.5 57.5q0 35 -27 94l-102 233h-430l-24 -55q-58 -132 -58 -211q0 -71 45 -102.5t133 -36.5v-41q-117 6 -235 6 q-109 0 -166 -6zM300 487h394l-196 449zM416 1585q0 89 65 144t156 55q93 0 158.5 -55t65.5 -144q0 -90 -65.5 -145.5t-158.5 -55.5q-91 0 -156 55.5t-65 145.5zM473 1583q0 -74 49.5 -115t114.5 -41q66 0 116 41t50 115q0 72 -50.5 115t-115.5 43q-64 0 -114 -43t-50 -115z " />
<glyph unicode="&#xe6;" horiz-adv-x="1701" d="M-21 0v41q65 3 141 131l594 1003q-28 24 -120 29v41q75 -3 159 -3l64 108h47l-64 -109q147 -2 375 -2q275 0 391 6q-14 -137 -14 -246q0 -81 6 -127h-47q-24 180 -81.5 253t-168.5 73h-59q-58 0 -86 -11.5t-42 -47.5t-14 -111v-381h76q32 0 57 10.5t39.5 23.5t26.5 39 t16.5 42.5t12 49t10.5 44.5h47q-7 -80 -7 -152q0 -15 0.5 -40.5t0.5 -36.5q0 -80 12 -230h-47q-21 103 -36 134q-36 75 -132 75h-76v-389q0 -108 28.5 -139t113.5 -31h80q134 0 188 77.5t82 289.5h47q-6 -57 -6 -148q0 -118 14 -266q-128 6 -432 6q-373 0 -565 -6v41 q62 3 89 16.5t37.5 48t10.5 111.5v389h-320l-231 -393q-36 -61 -36 -98t35 -54t108 -20v-41q-61 6 -187 6q-84 0 -137 -6zM451 647h296v381q0 75 -10 106z" />
<glyph unicode="&#xe7;" horiz-adv-x="1346" d="M87 610q0 195 86.5 347.5t235.5 234.5t335 82q63 0 114.5 -10t93.5 -31.5t70 -40.5t65 -51q23 -20 40 -20q42 0 52 124h47q-8 -123 -8 -430h-47q-22 112 -42 162.5t-61 99.5q-120 144 -280 144q-171 0 -272 -161.5t-101 -441.5t109 -436.5t278 -156.5q81 0 158 37.5 t131 105.5q40 51 59 110t35 173h47q0 -323 8 -451h-47q-10 124 -51 124q-16 0 -41 -20q-73 -61 -151.5 -95.5t-186.5 -37.5l-32 -104q71 24 158 24q73 0 113 -29.5t40 -79.5q0 -83 -91.5 -125t-232.5 -42q-117 0 -190 25l10 37q60 -9 103 -9q75 0 130.5 20.5t55.5 63.5 q0 53 -93 53q-47 0 -81 -14l54 181q-184 8 -323 84t-218 218.5t-79 335.5z" />
<glyph unicode="&#xe8;" horiz-adv-x="1248" d="M70 0v41q53 2 80 8.5t45.5 26.5t23.5 51t5 90v811q0 77 -12.5 112t-42.5 48t-99 16v41q213 -6 635 -6q287 0 407 6q-14 -137 -14 -246q0 -81 6 -127h-47q-31 177 -106.5 251.5t-208.5 74.5h-76q-77 0 -103 -24.5t-26 -108.5v-418h96q51 0 90 21.5t62 58t35.5 70 t19.5 71.5h47q-7 -80 -7 -159q0 -17 0.5 -44t0.5 -38q0 -92 12 -242h-47q-14 97 -64.5 159t-148.5 62h-96v-426q0 -84 26 -108.5t103 -24.5h88q146 0 228.5 83.5t115.5 283.5h47q-6 -57 -6 -148q0 -118 14 -266q-133 6 -448 6q-422 0 -635 -6zM245 1653q0 25 12 48 q15 28 42.5 43.5t59.5 15.5q34 0 63 -16q40 -21 80 -62t106 -109.5t146 -133.5l-14 -26q-95 36 -185.5 60.5t-146.5 39.5t-94 36q-69 37 -69 104z" />
<glyph unicode="&#xe9;" horiz-adv-x="1248" d="M70 0v41q53 2 80 8.5t45.5 26.5t23.5 51t5 90v811q0 77 -12.5 112t-42.5 48t-99 16v41q213 -6 635 -6q287 0 407 6q-14 -137 -14 -246q0 -81 6 -127h-47q-31 177 -106.5 251.5t-208.5 74.5h-76q-77 0 -103 -24.5t-26 -108.5v-418h96q51 0 90 21.5t62 58t35.5 70 t19.5 71.5h47q-7 -80 -7 -159q0 -17 0.5 -44t0.5 -38q0 -92 12 -242h-47q-14 97 -64.5 159t-148.5 62h-96v-426q0 -84 26 -108.5t103 -24.5h88q146 0 228.5 83.5t115.5 283.5h47q-6 -57 -6 -148q0 -118 14 -266q-133 6 -448 6q-422 0 -635 -6zM441 1439q81 65 146.5 133.5 t105.5 109.5t80 62q29 16 63 16q72 0 102 -59q12 -24 12 -48q0 -67 -68 -104q-45 -25 -178 -58.5t-249 -77.5z" />
<glyph unicode="&#xea;" horiz-adv-x="1248" d="M70 0v41q53 2 80 8.5t45.5 26.5t23.5 51t5 90v811q0 77 -12.5 112t-42.5 48t-99 16v41q213 -6 635 -6q287 0 407 6q-14 -137 -14 -246q0 -81 6 -127h-47q-31 177 -106.5 251.5t-208.5 74.5h-76q-77 0 -103 -24.5t-26 -108.5v-418h96q51 0 90 21.5t62 58t35.5 70 t19.5 71.5h47q-7 -80 -7 -159q0 -17 0.5 -44t0.5 -38q0 -92 12 -242h-47q-14 97 -64.5 159t-148.5 62h-96v-426q0 -84 26 -108.5t103 -24.5h88q146 0 228.5 83.5t115.5 283.5h47q-6 -57 -6 -148q0 -118 14 -266q-133 6 -448 6q-422 0 -635 -6zM193 1430q128 54 237.5 140.5 t174.5 178.5h37q62 -91 172 -177t239 -142l-10 -30q-132 23 -259 59.5t-202 72.5q-62 -36 -166.5 -72.5t-212.5 -59.5z" />
<glyph unicode="&#xeb;" horiz-adv-x="1248" d="M70 0v41q53 2 80 8.5t45.5 26.5t23.5 51t5 90v811q0 77 -12.5 112t-42.5 48t-99 16v41q213 -6 635 -6q287 0 407 6q-14 -137 -14 -246q0 -81 6 -127h-47q-31 177 -106.5 251.5t-208.5 74.5h-76q-77 0 -103 -24.5t-26 -108.5v-418h96q51 0 90 21.5t62 58t35.5 70 t19.5 71.5h47q-7 -80 -7 -159q0 -17 0.5 -44t0.5 -38q0 -92 12 -242h-47q-14 97 -64.5 159t-148.5 62h-96v-426q0 -84 26 -108.5t103 -24.5h88q146 0 228.5 83.5t115.5 283.5h47q-6 -57 -6 -148q0 -118 14 -266q-133 6 -448 6q-422 0 -635 -6zM221 1586q0 62 46 108t109 46 q62 0 108 -46t46 -108q0 -63 -46 -108.5t-108 -45.5q-64 0 -109.5 45t-45.5 109zM712 1586q0 62 45.5 108t108.5 46q62 0 108.5 -46.5t46.5 -107.5q0 -63 -46.5 -108.5t-108.5 -45.5q-64 0 -109 45t-45 109z" />
<glyph unicode="&#xec;" horiz-adv-x="761" d="M5 1653q0 25 12 48q15 28 42.5 43.5t59.5 15.5q34 0 63 -16q40 -21 80 -62t106 -109.5t146 -133.5l-14 -26q-95 36 -185.5 60.5t-146.5 39.5t-94 36q-69 37 -69 104zM70 0v41q53 2 80 8.5t45.5 26.5t23.5 51t5 90v811q0 77 -12.5 112t-42.5 48t-99 16v41q100 -6 317 -6 q197 0 304 6v-41q-70 -3 -100 -16t-42 -47.5t-12 -112.5v-811q0 -59 5 -90t23.5 -51t45.5 -26.5t80 -8.5v-41q-107 6 -304 6q-217 0 -317 -6z" />
<glyph unicode="&#xed;" horiz-adv-x="761" d="M70 0v41q53 2 80 8.5t45.5 26.5t23.5 51t5 90v811q0 77 -12.5 112t-42.5 48t-99 16v41q100 -6 317 -6q197 0 304 6v-41q-70 -3 -100 -16t-42 -47.5t-12 -112.5v-811q0 -59 5 -90t23.5 -51t45.5 -26.5t80 -8.5v-41q-107 6 -304 6q-217 0 -317 -6zM201 1439 q81 65 146.5 133.5t105.5 109.5t80 62q29 16 63 16q72 0 102 -59q12 -24 12 -48q0 -67 -68 -104q-45 -25 -178 -58.5t-249 -77.5z" />
<glyph unicode="&#xee;" horiz-adv-x="761" d="M-47 1430q128 54 237.5 140.5t174.5 178.5h37q62 -91 172 -177t239 -142l-10 -30q-132 23 -259 59.5t-202 72.5q-62 -36 -166.5 -72.5t-212.5 -59.5zM70 0v41q53 2 80 8.5t45.5 26.5t23.5 51t5 90v811q0 77 -12.5 112t-42.5 48t-99 16v41q100 -6 317 -6q197 0 304 6v-41 q-70 -3 -100 -16t-42 -47.5t-12 -112.5v-811q0 -59 5 -90t23.5 -51t45.5 -26.5t80 -8.5v-41q-107 6 -304 6q-217 0 -317 -6z" />
<glyph unicode="&#xef;" horiz-adv-x="761" d="M-19 1586q0 62 46 108t109 46q62 0 108 -46t46 -108q0 -63 -46 -108.5t-108 -45.5q-64 0 -109.5 45t-45.5 109zM70 0v41q53 2 80 8.5t45.5 26.5t23.5 51t5 90v811q0 77 -12.5 112t-42.5 48t-99 16v41q100 -6 317 -6q197 0 304 6v-41q-70 -3 -100 -16t-42 -47.5 t-12 -112.5v-811q0 -59 5 -90t23.5 -51t45.5 -26.5t80 -8.5v-41q-107 6 -304 6q-217 0 -317 -6zM472 1586q0 62 45.5 108t108.5 46q62 0 108.5 -46.5t46.5 -107.5q0 -63 -46.5 -108.5t-108.5 -45.5q-64 0 -109 45t-45 109z" />
<glyph unicode="&#xf0;" horiz-adv-x="1497" d="M71 0v41q53 2 80 8.5t45.5 26.5t23.5 51t5 90v389h-154v41h154v381q0 59 -5 91t-24 51.5t-45.5 25.5t-79.5 8v41q119 -7 218 -7q10 0 28.5 0.5t27.5 0.5q318 6 347 6q357 0 535.5 -154t178.5 -452q0 -293 -194 -466t-539 -173q-31 0 -150.5 3t-172.5 3q-186 0 -279 -6z M538 213q0 -108 24.5 -142t104.5 -34q96 0 166.5 25.5t117.5 72.5t75.5 121.5t40.5 164.5t12 210q0 299 -94 438t-320 139q-78 0 -102.5 -34.5t-24.5 -141.5v-385h265v-41h-265v-393z" />
<glyph unicode="&#xf1;" horiz-adv-x="1413" d="M71 0v41q97 13 125.5 57t28.5 176v754q0 59 -5 90.5t-23.5 51t-46 26t-79.5 8.5v41q65 -6 178 -6q147 0 250 6l654 -811v537q0 131 -39.5 175.5t-171.5 57.5v41q90 -6 233 -6q115 0 178 6v-41q-97 -13 -125 -57t-28 -176v-975q-18 1 -54 1q-37 0 -55 -1l-819 1018v-740 q0 -131 39.5 -175.5t171.5 -57.5v-41q-90 6 -234 6q-113 0 -178 -6zM302 1466q33 136 105.5 205.5t168.5 69.5q64 0 125.5 -22.5t101.5 -49.5t95 -49.5t108 -22.5q113 0 177 112l31 -12q-33 -136 -105.5 -205.5t-167.5 -69.5q-53 0 -102.5 15t-87.5 36t-74.5 42.5 t-79.5 36.5t-87 15q-112 0 -177 -114z" />
<glyph unicode="&#xf2;" horiz-adv-x="1555" d="M86 610q0 196 88.5 347.5t246 234t358.5 82.5q207 0 362 -74t241.5 -219.5t86.5 -345.5q0 -296 -193.5 -480t-498.5 -184q-315 0 -503 169t-188 470zM399 1653q0 25 12 48q15 28 42.5 43.5t59.5 15.5q34 0 63 -16q40 -21 80 -62t106 -109.5t146 -133.5l-14 -26 q-95 36 -185.5 60.5t-146.5 39.5t-94 36q-69 37 -69 104zM414 618q0 -274 106.5 -442t264.5 -168q161 0 258.5 172t97.5 447q0 274 -106.5 442t-264.5 168q-161 0 -258.5 -172t-97.5 -447z" />
<glyph unicode="&#xf3;" horiz-adv-x="1555" d="M86 610q0 196 88.5 347.5t246 234t358.5 82.5q207 0 362 -74t241.5 -219.5t86.5 -345.5q0 -296 -193.5 -480t-498.5 -184q-315 0 -503 169t-188 470zM414 618q0 -274 106.5 -442t264.5 -168q161 0 258.5 172t97.5 447q0 274 -106.5 442t-264.5 168q-161 0 -258.5 -172 t-97.5 -447zM595 1439q81 65 146.5 133.5t105.5 109.5t80 62q29 16 63 16q72 0 102 -59q12 -24 12 -48q0 -67 -68 -104q-45 -25 -178 -58.5t-249 -77.5z" />
<glyph unicode="&#xf4;" horiz-adv-x="1555" d="M86 610q0 196 88.5 347.5t246 234t358.5 82.5q207 0 362 -74t241.5 -219.5t86.5 -345.5q0 -296 -193.5 -480t-498.5 -184q-315 0 -503 169t-188 470zM347 1430q128 54 237.5 140.5t174.5 178.5h37q62 -91 172 -177t239 -142l-10 -30q-132 23 -259 59.5t-202 72.5 q-62 -36 -166.5 -72.5t-212.5 -59.5zM414 618q0 -274 106.5 -442t264.5 -168q161 0 258.5 172t97.5 447q0 274 -106.5 442t-264.5 168q-161 0 -258.5 -172t-97.5 -447z" />
<glyph unicode="&#xf5;" horiz-adv-x="1555" d="M86 610q0 196 88.5 347.5t246 234t358.5 82.5q207 0 362 -74t241.5 -219.5t86.5 -345.5q0 -296 -193.5 -480t-498.5 -184q-315 0 -503 169t-188 470zM316 1466q33 136 105.5 205.5t168.5 69.5q64 0 125.5 -22.5t101.5 -49.5t95 -49.5t108 -22.5q113 0 177 112l31 -12 q-33 -136 -105.5 -205.5t-167.5 -69.5q-53 0 -102.5 15t-87.5 36t-74.5 42.5t-79.5 36.5t-87 15q-112 0 -177 -114zM414 618q0 -274 106.5 -442t264.5 -168q161 0 258.5 172t97.5 447q0 274 -106.5 442t-264.5 168q-161 0 -258.5 -172t-97.5 -447z" />
<glyph unicode="&#xf6;" horiz-adv-x="1555" d="M86 610q0 196 88.5 347.5t246 234t358.5 82.5q207 0 362 -74t241.5 -219.5t86.5 -345.5q0 -296 -193.5 -480t-498.5 -184q-315 0 -503 169t-188 470zM375 1586q0 62 46 108t109 46q62 0 108 -46t46 -108q0 -63 -46 -108.5t-108 -45.5q-64 0 -109.5 45t-45.5 109zM414 618 q0 -274 106.5 -442t264.5 -168q161 0 258.5 172t97.5 447q0 274 -106.5 442t-264.5 168q-161 0 -258.5 -172t-97.5 -447zM866 1586q0 62 45.5 108t108.5 46q62 0 108.5 -46.5t46.5 -107.5q0 -63 -46.5 -108.5t-108.5 -45.5q-64 0 -109 45t-45 109z" />
<glyph unicode="&#xf7;" horiz-adv-x="1297" d="M138 696v62h1026v-62h-1026zM537 432q0 46 33.5 79.5t79.5 33.5q48 0 81.5 -33t33.5 -80t-33.5 -81t-81.5 -34q-46 0 -79.5 34t-33.5 81zM537 1022q0 46 33.5 79.5t79.5 33.5q48 0 81.5 -33.5t33.5 -79.5q0 -48 -33.5 -80.5t-81.5 -32.5q-46 0 -79.5 33t-33.5 80z" />
<glyph unicode="&#xf8;" horiz-adv-x="1555" d="M87 610q0 196 88.5 347.5t246 234t358.5 82.5q213 0 369 -79l136 198l39 -27l-132 -194q134 -80 206 -216.5t72 -320.5q0 -296 -193.5 -480t-498.5 -184q-207 0 -361 74l-141 -192l-40 28l137 188q-137 79 -211.5 217t-74.5 324zM415 618q0 -235 81 -395l549 831 q-51 88 -122 135.5t-152 47.5q-161 0 -258.5 -172t-97.5 -447zM524 172q50 -79 118 -121.5t144 -42.5q161 0 258.5 172t97.5 447q0 220 -72 378z" />
<glyph unicode="&#xf9;" d="M33 1204v41q100 -6 311 -6q200 0 309 6v-41q-69 -3 -99 -16t-42 -47.5t-12 -112.5v-514q0 -60 2.5 -105.5t9.5 -95.5t20 -86t34.5 -70.5t52 -55.5t74 -33.5t98.5 -12.5q77 0 135.5 24t96 65t61 102.5t33 130.5t9.5 155v377q0 90 -6.5 139.5t-28.5 85t-59 49.5t-104 21v41 q80 -6 221 -6q123 0 190 6v-41q-104 -13 -134.5 -65.5t-30.5 -204.5v-379q0 -275 -84 -414q-50 -78 -147.5 -124t-219.5 -46q-230 0 -361 90q-104 80 -140 182.5t-36 305.5v479q0 59 -5 90.5t-23.5 51t-45.5 26t-79 8.5zM325 1653q0 25 12 48q15 28 42.5 43.5t59.5 15.5 q34 0 63 -16q40 -21 80 -62t106 -109.5t146 -133.5l-14 -26q-95 36 -185.5 60.5t-146.5 39.5t-94 36q-69 37 -69 104z" />
<glyph unicode="&#xfa;" d="M33 1204v41q100 -6 311 -6q200 0 309 6v-41q-69 -3 -99 -16t-42 -47.5t-12 -112.5v-514q0 -60 2.5 -105.5t9.5 -95.5t20 -86t34.5 -70.5t52 -55.5t74 -33.5t98.5 -12.5q77 0 135.5 24t96 65t61 102.5t33 130.5t9.5 155v377q0 90 -6.5 139.5t-28.5 85t-59 49.5t-104 21v41 q80 -6 221 -6q123 0 190 6v-41q-104 -13 -134.5 -65.5t-30.5 -204.5v-379q0 -275 -84 -414q-50 -78 -147.5 -124t-219.5 -46q-230 0 -361 90q-104 80 -140 182.5t-36 305.5v479q0 59 -5 90.5t-23.5 51t-45.5 26t-79 8.5zM521 1439q81 65 146.5 133.5t105.5 109.5t80 62 q29 16 63 16q72 0 102 -59q12 -24 12 -48q0 -67 -68 -104q-45 -25 -178 -58.5t-249 -77.5z" />
<glyph unicode="&#xfb;" d="M33 1204v41q100 -6 311 -6q200 0 309 6v-41q-69 -3 -99 -16t-42 -47.5t-12 -112.5v-514q0 -60 2.5 -105.5t9.5 -95.5t20 -86t34.5 -70.5t52 -55.5t74 -33.5t98.5 -12.5q77 0 135.5 24t96 65t61 102.5t33 130.5t9.5 155v377q0 90 -6.5 139.5t-28.5 85t-59 49.5t-104 21v41 q80 -6 221 -6q123 0 190 6v-41q-104 -13 -134.5 -65.5t-30.5 -204.5v-379q0 -275 -84 -414q-50 -78 -147.5 -124t-219.5 -46q-230 0 -361 90q-104 80 -140 182.5t-36 305.5v479q0 59 -5 90.5t-23.5 51t-45.5 26t-79 8.5zM273 1430q128 54 237.5 140.5t174.5 178.5h37 q62 -91 172 -177t239 -142l-10 -30q-132 23 -259 59.5t-202 72.5q-62 -36 -166.5 -72.5t-212.5 -59.5z" />
<glyph unicode="&#xfc;" d="M33 1204v41q100 -6 311 -6q200 0 309 6v-41q-69 -3 -99 -16t-42 -47.5t-12 -112.5v-514q0 -60 2.5 -105.5t9.5 -95.5t20 -86t34.5 -70.5t52 -55.5t74 -33.5t98.5 -12.5q77 0 135.5 24t96 65t61 102.5t33 130.5t9.5 155v377q0 90 -6.5 139.5t-28.5 85t-59 49.5t-104 21v41 q80 -6 221 -6q123 0 190 6v-41q-104 -13 -134.5 -65.5t-30.5 -204.5v-379q0 -275 -84 -414q-50 -78 -147.5 -124t-219.5 -46q-230 0 -361 90q-104 80 -140 182.5t-36 305.5v479q0 59 -5 90.5t-23.5 51t-45.5 26t-79 8.5zM301 1586q0 62 46 108t109 46q62 0 108 -46t46 -108 q0 -63 -46 -108.5t-108 -45.5q-64 0 -109.5 45t-45.5 109zM792 1586q0 62 45.5 108t108.5 46q62 0 108.5 -46.5t46.5 -107.5q0 -63 -46.5 -108.5t-108.5 -45.5q-64 0 -109 45t-45 109z" />
<glyph unicode="&#xfd;" horiz-adv-x="1228" d="M-3 1202v43q128 -10 242 -10q163 0 360 10v-43q-39 0 -64 -3t-45 -16.5t-20 -36.5q0 -25 22 -63l276 -484l132 239q80 150 80 236q0 122 -155 129v42q118 -7 231 -7q105 0 157 7v-42q-43 -17 -84.5 -67.5t-97.5 -151.5l-235 -432v-323q0 -41 3 -68.5t11.5 -49.5t21 -34 t35.5 -20t50 -11t70 -5v-41q-107 6 -353 6q-248 0 -342 -6v41q43 2 70 5t50 11t35.5 20t21 34t11.5 49.5t3 68.5v221l-367 637q-35 61 -61.5 85.5t-57.5 29.5zM449 1439q81 65 146.5 133.5t105.5 109.5t80 62q29 16 63 16q72 0 102 -59q12 -24 12 -48q0 -67 -68 -104 q-45 -25 -178 -58.5t-249 -77.5z" />
<glyph unicode="&#xfe;" horiz-adv-x="1230" d="M70 0v41q53 2 80 8.5t45.5 26.5t23.5 51t5 90v811q0 77 -12.5 112t-42.5 48t-99 16v41q100 -6 317 -6q197 0 304 6v-41q-70 -3 -100 -16t-42 -47.5t-12 -112.5v-26q108 2 123 2q257 0 392 -93.5t135 -248.5q0 -56 -16 -109t-58.5 -106.5t-107 -93t-170.5 -64.5t-240 -25 h-58v-47q0 -59 5 -90t23.5 -51t45.5 -26.5t80 -8.5v-41q-107 6 -304 6q-217 0 -317 -6zM537 305h37q78 0 135 26.5t88.5 74t46.5 105.5t15 128q0 161 -63.5 243.5t-186.5 82.5h-72v-660z" />
<glyph unicode="&#xff;" horiz-adv-x="1228" d="M-3 1202v43q128 -10 242 -10q163 0 360 10v-43q-39 0 -64 -3t-45 -16.5t-20 -36.5q0 -25 22 -63l276 -484l132 239q80 150 80 236q0 122 -155 129v42q118 -7 231 -7q105 0 157 7v-42q-43 -17 -84.5 -67.5t-97.5 -151.5l-235 -432v-323q0 -41 3 -68.5t11.5 -49.5t21 -34 t35.5 -20t50 -11t70 -5v-41q-107 6 -353 6q-248 0 -342 -6v41q43 2 70 5t50 11t35.5 20t21 34t11.5 49.5t3 68.5v221l-367 637q-35 61 -61.5 85.5t-57.5 29.5zM229 1586q0 62 46 108t109 46q62 0 108 -46t46 -108q0 -63 -46 -108.5t-108 -45.5q-64 0 -109.5 45t-45.5 109z M720 1586q0 62 45.5 108t108.5 46q62 0 108.5 -46.5t46.5 -107.5q0 -63 -46.5 -108.5t-108.5 -45.5q-64 0 -109 45t-45 109z" />
<glyph unicode="&#x100;" horiz-adv-x="1366" d="M-32 0v41q103 19 178 215l466 1198q33 -3 71 -3t71 3l497 -1282q26 -68 60.5 -98.5t68.5 -32.5v-41q-122 6 -311 6q-210 0 -312 -6v41q77 3 110.5 19t33.5 56q0 36 -24 97l-123 336h-445l-55 -142q-56 -144 -56 -227q0 -76 45.5 -106.5t136.5 -32.5v-41q-140 6 -255 6 q-96 0 -157 -6zM270 1677v52h819v-52h-819zM324 590h415l-203 551z" />
<glyph unicode="&#x101;" horiz-adv-x="1284" d="M-23 0v41q51 10 92 61.5t88 158.5l433 988q32 -2 47 -2q17 0 47 2l487 -1077q59 -128 129 -131v-41q-96 6 -269 6q-219 0 -323 -6v41q68 3 100.5 20.5t32.5 57.5q0 35 -27 94l-102 233h-430l-24 -55q-58 -132 -58 -211q0 -71 45 -102.5t133 -36.5v-41q-117 6 -235 6 q-109 0 -166 -6zM223 1530v51h819v-51h-819zM300 487h394l-196 449z" />
<glyph unicode="&#x102;" horiz-adv-x="1366" d="M-32 0v41q103 19 178 215l466 1198q33 -3 71 -3t71 3l497 -1282q26 -68 60.5 -98.5t68.5 -32.5v-41q-122 6 -311 6q-210 0 -312 -6v41q77 3 110.5 19t33.5 56q0 36 -24 97l-123 336h-445l-55 -142q-56 -144 -56 -227q0 -76 45.5 -106.5t136.5 -32.5v-41q-140 6 -255 6 q-96 0 -157 -6zM211 1853l25 21q163 -123 431 -123q266 0 433 124l24 -22q-23 -50 -61.5 -96t-93.5 -87.5t-133.5 -66.5t-168.5 -25q-89 0 -167.5 25t-133.5 66.5t-93.5 87.5t-61.5 96zM324 590h415l-203 551z" />
<glyph unicode="&#x103;" horiz-adv-x="1284" d="M-23 0v41q51 10 92 61.5t88 158.5l433 988q32 -2 47 -2q17 0 47 2l487 -1077q59 -128 129 -131v-41q-96 6 -269 6q-219 0 -323 -6v41q68 3 100.5 20.5t32.5 57.5q0 35 -27 94l-102 233h-430l-24 -55q-58 -132 -58 -211q0 -71 45 -102.5t133 -36.5v-41q-117 6 -235 6 q-109 0 -166 -6zM186 1674l26 22q160 -124 423 -124q260 0 424 125l24 -23q-23 -50 -60 -96t-91.5 -87t-131.5 -66t-165 -25t-165 25t-131.5 66.5t-92 87t-60.5 95.5zM300 487h394l-196 449z" />
<glyph unicode="&#x104;" horiz-adv-x="1366" d="M-32 0v41q103 19 178 215l466 1198q33 -3 71 -3t71 3l497 -1282q26 -68 60.5 -98.5t68.5 -32.5v-41l-39 2q-108 -36 -158.5 -88t-50.5 -103q0 -83 84 -83q35 0 72 16t59 39l29 -29q-55 -73 -122 -106t-159 -33q-89 0 -137.5 37t-48.5 103q0 83 93.5 147t264.5 102 q-124 2 -198 2q-210 0 -312 -6v41q77 3 110.5 19t33.5 56q0 36 -24 97l-123 336h-445l-55 -142q-56 -144 -56 -227q0 -76 45.5 -106.5t136.5 -32.5v-41q-140 6 -255 6q-96 0 -157 -6zM324 590h415l-203 551z" />
<glyph unicode="&#x105;" horiz-adv-x="1284" d="M-23 0v41q51 10 92 61.5t88 158.5l433 988q32 -2 47 -2q17 0 47 2l487 -1077q59 -128 129 -131v-41q-6 0 -35 1.5t-48 2.5q-111 -36 -163 -88.5t-52 -104.5q0 -83 85 -83q34 0 71.5 16t59.5 39l28 -29q-55 -73 -122 -106t-159 -33q-89 0 -137.5 37t-48.5 103 q0 84 95.5 148.5t269.5 101.5l-113 1q-219 0 -323 -6v41q68 3 100.5 20.5t32.5 57.5q0 35 -27 94l-102 233h-430l-24 -55q-58 -132 -58 -211q0 -71 45 -102.5t133 -36.5v-41q-117 6 -235 6q-109 0 -166 -6zM300 487h394l-196 449z" />
<glyph unicode="&#x106;" horiz-adv-x="1445" d="M88 713q0 226 92 400.5t257 270t376 95.5q122 0 208 -35t168 -98q22 -18 40 -18q41 0 53 122h47q-8 -140 -8 -496h-48q-18 152 -48.5 231.5t-105.5 139.5q-104 101 -259 101q-106 0 -187 -58.5t-128 -159.5t-70 -223.5t-23 -263.5q0 -142 24.5 -265t73 -222t130.5 -156 t188 -57q70 0 138.5 25.5t116.5 73.5q75 58 104.5 145t45.5 251h48q0 -371 8 -516h-47q-6 64 -17.5 92.5t-32.5 28.5q-17 0 -43 -17q-92 -65 -175.5 -99t-202.5 -34q-217 0 -379.5 87t-253 255.5t-90.5 399.5zM626 1606q81 66 147 134.5t105.5 109.5t79.5 62q29 16 64 16 q32 0 59.5 -15.5t42.5 -43.5q11 -21 11 -47q0 -68 -68 -105q-45 -25 -177.5 -58.5t-248.5 -77.5z" />
<glyph unicode="&#x107;" horiz-adv-x="1346" d="M87 610q0 195 86.5 347.5t235.5 234.5t335 82q63 0 114.5 -10t93.5 -31.5t70 -40.5t65 -51q23 -20 40 -20q42 0 52 124h47q-8 -123 -8 -430h-47q-22 112 -42 162.5t-61 99.5q-120 144 -280 144q-171 0 -272 -161.5t-101 -441.5t109 -436.5t278 -156.5q81 0 158 37.5 t131 105.5q40 51 59 110t35 173h47q0 -323 8 -451h-47q-10 124 -51 124q-16 0 -41 -20q-76 -63 -158 -98t-196 -35q-194 0 -342.5 74t-233 220t-84.5 345zM541 1439q81 65 146.5 133.5t105.5 109.5t80 62q29 16 63 16q72 0 102 -59q12 -24 12 -48q0 -67 -68 -104 q-45 -25 -178 -58.5t-249 -77.5z" />
<glyph unicode="&#x108;" horiz-adv-x="1445" d="M88 713q0 226 92 400.5t257 270t376 95.5q122 0 208 -35t168 -98q22 -18 40 -18q41 0 53 122h47q-8 -140 -8 -496h-48q-18 152 -48.5 231.5t-105.5 139.5q-104 101 -259 101q-106 0 -187 -58.5t-128 -159.5t-70 -223.5t-23 -263.5q0 -142 24.5 -265t73 -222t130.5 -156 t188 -57q70 0 138.5 25.5t116.5 73.5q75 58 104.5 145t45.5 251h48q0 -371 8 -516h-47q-6 64 -17.5 92.5t-32.5 28.5q-17 0 -43 -17q-92 -65 -175.5 -99t-202.5 -34q-217 0 -379.5 87t-253 255.5t-90.5 399.5zM338 1606q131 55 242.5 141t177.5 178h37q63 -91 175 -177 t244 -142l-10 -30q-132 23 -262 59.5t-207 72.5q-64 -36 -171.5 -72.5t-215.5 -59.5z" />
<glyph unicode="&#x109;" horiz-adv-x="1346" d="M87 610q0 195 86.5 347.5t235.5 234.5t335 82q63 0 114.5 -10t93.5 -31.5t70 -40.5t65 -51q23 -20 40 -20q42 0 52 124h47q-8 -123 -8 -430h-47q-22 112 -42 162.5t-61 99.5q-120 144 -280 144q-171 0 -272 -161.5t-101 -441.5t109 -436.5t278 -156.5q81 0 158 37.5 t131 105.5q40 51 59 110t35 173h47q0 -323 8 -451h-47q-10 124 -51 124q-16 0 -41 -20q-76 -63 -158 -98t-196 -35q-194 0 -342.5 74t-233 220t-84.5 345zM293 1430q128 54 237.5 140.5t174.5 178.5h37q62 -91 172 -177t239 -142l-10 -30q-132 23 -259 59.5t-202 72.5 q-62 -36 -166.5 -72.5t-212.5 -59.5z" />
<glyph unicode="&#x10a;" horiz-adv-x="1445" d="M88 713q0 226 92 400.5t257 270t376 95.5q122 0 208 -35t168 -98q22 -18 40 -18q41 0 53 122h47q-8 -140 -8 -496h-48q-18 152 -48.5 231.5t-105.5 139.5q-104 101 -259 101q-106 0 -187 -58.5t-128 -159.5t-70 -223.5t-23 -263.5q0 -142 24.5 -265t73 -222t130.5 -156 t188 -57q70 0 138.5 25.5t116.5 73.5q75 58 104.5 145t45.5 251h48q0 -371 8 -516h-47q-6 64 -17.5 92.5t-32.5 28.5q-17 0 -43 -17q-92 -65 -175.5 -99t-202.5 -34q-217 0 -379.5 87t-253 255.5t-90.5 399.5zM614 1724q0 74 47 116.5t127 42.5t127 -42.5t47 -116.5 q0 -73 -47 -115.5t-127 -42.5t-127 42.5t-47 115.5z" />
<glyph unicode="&#x10b;" horiz-adv-x="1346" d="M87 610q0 195 86.5 347.5t235.5 234.5t335 82q63 0 114.5 -10t93.5 -31.5t70 -40.5t65 -51q23 -20 40 -20q42 0 52 124h47q-8 -123 -8 -430h-47q-22 112 -42 162.5t-61 99.5q-120 144 -280 144q-171 0 -272 -161.5t-101 -441.5t109 -436.5t278 -156.5q81 0 158 37.5 t131 105.5q40 51 59 110t35 173h47q0 -323 8 -451h-47q-10 124 -51 124q-16 0 -41 -20q-76 -63 -158 -98t-196 -35q-194 0 -342.5 74t-233 220t-84.5 345zM544 1586q0 74 46.5 116t127.5 42q80 0 127 -42t47 -116t-47 -116t-127 -42q-81 0 -127.5 42t-46.5 116z" />
<glyph unicode="&#x10c;" horiz-adv-x="1445" d="M88 713q0 226 92 400.5t257 270t376 95.5q122 0 208 -35t168 -98q22 -18 40 -18q41 0 53 122h47q-8 -140 -8 -496h-48q-18 152 -48.5 231.5t-105.5 139.5q-104 101 -259 101q-106 0 -187 -58.5t-128 -159.5t-70 -223.5t-23 -263.5q0 -142 24.5 -265t73 -222t130.5 -156 t188 -57q70 0 138.5 25.5t116.5 73.5q75 58 104.5 145t45.5 251h48q0 -371 8 -516h-47q-6 64 -17.5 92.5t-32.5 28.5q-17 0 -43 -17q-92 -65 -175.5 -99t-202.5 -34q-217 0 -379.5 87t-253 255.5t-90.5 399.5zM332 1891l10 30q133 -23 262.5 -59.5t206.5 -72.5 q64 36 171.5 72.5t215.5 59.5l10 -30q-131 -55 -242.5 -141t-176.5 -178h-37q-63 91 -175.5 177t-244.5 142z" />
<glyph unicode="&#x10d;" horiz-adv-x="1346" d="M87 610q0 195 86.5 347.5t235.5 234.5t335 82q63 0 114.5 -10t93.5 -31.5t70 -40.5t65 -51q23 -20 40 -20q42 0 52 124h47q-8 -123 -8 -430h-47q-22 112 -42 162.5t-61 99.5q-120 144 -280 144q-171 0 -272 -161.5t-101 -441.5t109 -436.5t278 -156.5q81 0 158 37.5 t131 105.5q40 51 59 110t35 173h47q0 -323 8 -451h-47q-10 124 -51 124q-16 0 -41 -20q-76 -63 -158 -98t-196 -35q-194 0 -342.5 74t-233 220t-84.5 345zM289 1703l10 30q296 -54 461 -133q139 79 379 133l10 -30q-128 -55 -237.5 -141t-173.5 -179h-37q-63 91 -173 177.5 t-239 142.5z" />
<glyph unicode="&#x10e;" horiz-adv-x="1589" d="M69 0v41q52 2 79 8.5t45.5 26.5t23.5 51t5 90v1016q0 58 -5 89.5t-23.5 51.5t-45.5 26.5t-79 8.5v41q131 -7 247 -7q10 0 32 0.5t32 0.5q294 6 322 6q399 0 597.5 -181t198.5 -528q0 -167 -55.5 -304t-158.5 -234t-256.5 -150t-344.5 -53q-29 0 -139 3t-160 3 q-212 0 -315 -6zM258 1891l10 30q133 -23 262.5 -59.5t206.5 -72.5q64 36 171.5 72.5t215.5 59.5l10 -30q-131 -55 -242.5 -141t-176.5 -178h-37q-63 91 -175.5 177t-244.5 142zM548 213q0 -108 29.5 -142t124.5 -34q128 0 216.5 45t141 136.5t75.5 216.5t23 298 q0 350 -107 515t-351 165q-93 0 -122.5 -34.5t-29.5 -141.5v-1024z" />
<glyph unicode="&#x10f;" horiz-adv-x="1496" d="M70 0v41q53 2 80 8.5t45.5 26.5t23.5 51t5 90v811q0 59 -5 91t-24 51.5t-45.5 25.5t-79.5 8v41q119 -7 218 -7q10 0 28.5 0.5t27.5 0.5q318 6 347 6q357 0 535.5 -154t178.5 -452q0 -293 -194 -466t-539 -173q-31 0 -150.5 3t-172.5 3q-186 0 -279 -6zM259 1703l10 30 q296 -54 461 -133q139 79 379 133l10 -30q-128 -55 -237.5 -141t-173.5 -179h-37q-63 91 -173 177.5t-239 142.5zM537 213q0 -108 24.5 -142t104.5 -34q96 0 166.5 25.5t117.5 72.5t75.5 121.5t40.5 164.5t12 210q0 299 -94 438t-320 139q-78 0 -102.5 -34.5t-24.5 -141.5 v-819z" />
<glyph unicode="&#x110;" horiz-adv-x="1590" d="M70 0v41q52 2 79 8.5t45.5 26.5t23.5 51t5 90v492h-153v41h153v483q0 58 -5 89.5t-23.5 51.5t-45.5 26.5t-79 8.5v41q131 -7 247 -7q11 0 32 0.5t32 0.5q294 6 322 6q399 0 597.5 -181t198.5 -528q0 -167 -55.5 -304t-158.5 -234t-256.5 -150t-344.5 -53q-28 0 -139 3 t-160 3q-211 0 -315 -6zM549 213q0 -108 29.5 -142t124.5 -34q128 0 216.5 45t141 136.5t75.5 216.5t23 298q0 350 -107 515t-351 165q-93 0 -122.5 -34.5t-29.5 -141.5v-487h254v-41h-254v-496z" />
<glyph unicode="&#x111;" horiz-adv-x="1497" d="M71 0v41q53 2 80 8.5t45.5 26.5t23.5 51t5 90v389h-154v41h154v381q0 59 -5 91t-24 51.5t-45.5 25.5t-79.5 8v41q119 -7 218 -7q10 0 28.5 0.5t27.5 0.5q318 6 347 6q357 0 535.5 -154t178.5 -452q0 -293 -194 -466t-539 -173q-31 0 -150.5 3t-172.5 3q-186 0 -279 -6z M538 213q0 -108 24.5 -142t104.5 -34q96 0 166.5 25.5t117.5 72.5t75.5 121.5t40.5 164.5t12 210q0 299 -94 438t-320 139q-78 0 -102.5 -34.5t-24.5 -141.5v-385h265v-41h-265v-393z" />
<glyph unicode="&#x112;" horiz-adv-x="1298" d="M69 0v41q52 2 79 8.5t45.5 26.5t23.5 51t5 90v1016q0 58 -5 89.5t-23.5 51.5t-45.5 26.5t-79 8.5v41q223 -6 667 -6q302 0 428 6q-14 -169 -14 -303q0 -89 6 -139h-47q-30 218 -110 306.5t-226 88.5h-84q-90 0 -115.5 -25.5t-25.5 -120.5v-507h66q47 0 86 18t64.5 44.5 t45.5 64.5t30.5 71.5t17.5 71.5h47q-7 -102 -7 -193q0 -20 0.5 -52t0.5 -46q0 -104 12 -291h-47q-40 271 -250 271h-66v-516q0 -95 25.5 -120.5t115.5 -25.5h101q145 0 234 99.5t126 336.5h47q-6 -66 -6 -172q0 -167 14 -311q-139 6 -469 6q-444 0 -667 -6zM234 1677v52h819 v-52h-819z" />
<glyph unicode="&#x113;" horiz-adv-x="1248" d="M70 0v41q53 2 80 8.5t45.5 26.5t23.5 51t5 90v811q0 77 -12.5 112t-42.5 48t-99 16v41q213 -6 635 -6q287 0 407 6q-14 -137 -14 -246q0 -81 6 -127h-47q-31 177 -106.5 251.5t-208.5 74.5h-76q-77 0 -103 -24.5t-26 -108.5v-418h96q51 0 90 21.5t62 58t35.5 70 t19.5 71.5h47q-7 -80 -7 -159q0 -17 0.5 -44t0.5 -38q0 -92 12 -242h-47q-14 97 -64.5 159t-148.5 62h-96v-426q0 -84 26 -108.5t103 -24.5h88q146 0 228.5 83.5t115.5 283.5h47q-6 -57 -6 -148q0 -118 14 -266q-133 6 -448 6q-422 0 -635 -6zM207 1530v51h819v-51h-819z " />
<glyph unicode="&#x114;" horiz-adv-x="1298" d="M69 0v41q52 2 79 8.5t45.5 26.5t23.5 51t5 90v1016q0 58 -5 89.5t-23.5 51.5t-45.5 26.5t-79 8.5v41q223 -6 667 -6q302 0 428 6q-14 -169 -14 -303q0 -89 6 -139h-47q-30 218 -110 306.5t-226 88.5h-84q-90 0 -115.5 -25.5t-25.5 -120.5v-507h66q47 0 86 18t64.5 44.5 t45.5 64.5t30.5 71.5t17.5 71.5h47q-7 -102 -7 -193q0 -20 0.5 -52t0.5 -46q0 -104 12 -291h-47q-40 271 -250 271h-66v-516q0 -95 25.5 -120.5t115.5 -25.5h101q145 0 234 99.5t126 336.5h47q-6 -66 -6 -172q0 -167 14 -311q-139 6 -469 6q-444 0 -667 -6zM175 1853l25 21 q163 -123 431 -123q266 0 433 124l24 -22q-23 -50 -61.5 -96t-93.5 -87.5t-133.5 -66.5t-168.5 -25q-89 0 -167.5 25t-133.5 66.5t-93.5 87.5t-61.5 96z" />
<glyph unicode="&#x115;" horiz-adv-x="1248" d="M70 0v41q53 2 80 8.5t45.5 26.5t23.5 51t5 90v811q0 77 -12.5 112t-42.5 48t-99 16v41q213 -6 635 -6q287 0 407 6q-14 -137 -14 -246q0 -81 6 -127h-47q-31 177 -106.5 251.5t-208.5 74.5h-76q-77 0 -103 -24.5t-26 -108.5v-418h96q51 0 90 21.5t62 58t35.5 70 t19.5 71.5h47q-7 -80 -7 -159q0 -17 0.5 -44t0.5 -38q0 -92 12 -242h-47q-14 97 -64.5 159t-148.5 62h-96v-426q0 -84 26 -108.5t103 -24.5h88q146 0 228.5 83.5t115.5 283.5h47q-6 -57 -6 -148q0 -118 14 -266q-133 6 -448 6q-422 0 -635 -6zM170 1674l26 22 q160 -124 423 -124q260 0 424 125l24 -23q-23 -50 -60 -96t-91.5 -87t-131.5 -66t-165 -25t-165 25t-131.5 66.5t-92 87t-60.5 95.5z" />
<glyph unicode="&#x116;" horiz-adv-x="1298" d="M69 0v41q52 2 79 8.5t45.5 26.5t23.5 51t5 90v1016q0 58 -5 89.5t-23.5 51.5t-45.5 26.5t-79 8.5v41q223 -6 667 -6q302 0 428 6q-14 -169 -14 -303q0 -89 6 -139h-47q-30 218 -110 306.5t-226 88.5h-84q-90 0 -115.5 -25.5t-25.5 -120.5v-507h66q47 0 86 18t64.5 44.5 t45.5 64.5t30.5 71.5t17.5 71.5h47q-7 -102 -7 -193q0 -20 0.5 -52t0.5 -46q0 -104 12 -291h-47q-40 271 -250 271h-66v-516q0 -95 25.5 -120.5t115.5 -25.5h101q145 0 234 99.5t126 336.5h47q-6 -66 -6 -172q0 -167 14 -311q-139 6 -469 6q-444 0 -667 -6zM482 1724 q0 74 47 116.5t127 42.5t127 -42.5t47 -116.5q0 -73 -47 -115.5t-127 -42.5t-127 42.5t-47 115.5z" />
<glyph unicode="&#x117;" horiz-adv-x="1248" d="M70 0v41q53 2 80 8.5t45.5 26.5t23.5 51t5 90v811q0 77 -12.5 112t-42.5 48t-99 16v41q213 -6 635 -6q287 0 407 6q-14 -137 -14 -246q0 -81 6 -127h-47q-31 177 -106.5 251.5t-208.5 74.5h-76q-77 0 -103 -24.5t-26 -108.5v-418h96q51 0 90 21.5t62 58t35.5 70 t19.5 71.5h47q-7 -80 -7 -159q0 -17 0.5 -44t0.5 -38q0 -92 12 -242h-47q-14 97 -64.5 159t-148.5 62h-96v-426q0 -84 26 -108.5t103 -24.5h88q146 0 228.5 83.5t115.5 283.5h47q-6 -57 -6 -148q0 -118 14 -266q-133 6 -448 6q-422 0 -635 -6zM444 1586q0 74 46.5 116 t127.5 42q80 0 127 -42t47 -116t-47 -116t-127 -42q-81 0 -127.5 42t-46.5 116z" />
<glyph unicode="&#x118;" horiz-adv-x="1298" d="M69 0v41q52 2 79 8.5t45.5 26.5t23.5 51t5 90v1016q0 58 -5 89.5t-23.5 51.5t-45.5 26.5t-79 8.5v41q223 -6 667 -6q302 0 428 6q-14 -169 -14 -303q0 -89 6 -139h-47q-30 218 -110 306.5t-226 88.5h-84q-90 0 -115.5 -25.5t-25.5 -120.5v-507h66q47 0 86 18t64.5 44.5 t45.5 64.5t30.5 71.5t17.5 71.5h47q-7 -102 -7 -193q0 -20 0.5 -52t0.5 -46q0 -104 12 -291h-47q-40 271 -250 271h-66v-516q0 -95 25.5 -120.5t115.5 -25.5h101q145 0 234 99.5t126 336.5h47q-6 -66 -6 -172q0 -167 14 -311l-21 1q-107 -35 -157 -87t-50 -103q0 -83 84 -83 q35 0 72 16t59 39l29 -29q-55 -73 -122 -106t-159 -33q-89 0 -137.5 37t-48.5 103q0 83 93 147t262 101q-123 3 -373 3q-444 0 -667 -6z" />
<glyph unicode="&#x119;" horiz-adv-x="1248" d="M70 0v41q53 2 80 8.5t45.5 26.5t23.5 51t5 90v811q0 77 -12.5 112t-42.5 48t-99 16v41q213 -6 635 -6q287 0 407 6q-14 -137 -14 -246q0 -81 6 -127h-47q-31 177 -106.5 251.5t-208.5 74.5h-76q-77 0 -103 -24.5t-26 -108.5v-418h96q51 0 90 21.5t62 58t35.5 70 t19.5 71.5h47q-7 -80 -7 -159q0 -17 0.5 -44t0.5 -38q0 -92 12 -242h-47q-14 97 -64.5 159t-148.5 62h-96v-426q0 -84 26 -108.5t103 -24.5h88q146 0 228.5 83.5t115.5 283.5h47q-6 -57 -6 -148q0 -118 14 -266l-39 2q-108 -36 -158.5 -88t-50.5 -103q0 -83 85 -83 q34 0 71.5 16t59.5 39l28 -29q-55 -73 -122 -106t-159 -33q-89 0 -137.5 37t-48.5 103q0 83 93.5 147t264.5 102q-113 2 -335 2q-422 0 -635 -6z" />
<glyph unicode="&#x11a;" horiz-adv-x="1298" d="M69 0v41q52 2 79 8.5t45.5 26.5t23.5 51t5 90v1016q0 58 -5 89.5t-23.5 51.5t-45.5 26.5t-79 8.5v41q223 -6 667 -6q302 0 428 6q-14 -169 -14 -303q0 -89 6 -139h-47q-30 218 -110 306.5t-226 88.5h-84q-90 0 -115.5 -25.5t-25.5 -120.5v-507h66q47 0 86 18t64.5 44.5 t45.5 64.5t30.5 71.5t17.5 71.5h47q-7 -102 -7 -193q0 -20 0.5 -52t0.5 -46q0 -104 12 -291h-47q-40 271 -250 271h-66v-516q0 -95 25.5 -120.5t115.5 -25.5h101q145 0 234 99.5t126 336.5h47q-6 -66 -6 -172q0 -167 14 -311q-139 6 -469 6q-444 0 -667 -6zM200 1891l10 30 q133 -23 262.5 -59.5t206.5 -72.5q64 36 171.5 72.5t215.5 59.5l10 -30q-131 -55 -242.5 -141t-176.5 -178h-37q-63 91 -175.5 177t-244.5 142z" />
<glyph unicode="&#x11b;" horiz-adv-x="1248" d="M70 0v41q53 2 80 8.5t45.5 26.5t23.5 51t5 90v811q0 77 -12.5 112t-42.5 48t-99 16v41q213 -6 635 -6q287 0 407 6q-14 -137 -14 -246q0 -81 6 -127h-47q-31 177 -106.5 251.5t-208.5 74.5h-76q-77 0 -103 -24.5t-26 -108.5v-418h96q51 0 90 21.5t62 58t35.5 70 t19.5 71.5h47q-7 -80 -7 -159q0 -17 0.5 -44t0.5 -38q0 -92 12 -242h-47q-14 97 -64.5 159t-148.5 62h-96v-426q0 -84 26 -108.5t103 -24.5h88q146 0 228.5 83.5t115.5 283.5h47q-6 -57 -6 -148q0 -118 14 -266q-133 6 -448 6q-422 0 -635 -6zM189 1703l10 30 q296 -54 461 -133q139 79 379 133l10 -30q-128 -55 -237.5 -141t-173.5 -179h-37q-63 91 -173 177.5t-239 142.5z" />
<glyph unicode="&#x11c;" horiz-adv-x="1505" d="M88 708q0 229 94.5 405t263 271t383.5 95q127 0 215 -34.5t171 -98.5q23 -20 41 -20q39 0 51 124h47q-8 -140 -8 -496h-47q-16 139 -48 225t-106 146q-50 47 -122 74t-146 27q-108 0 -191.5 -58.5t-133 -159t-74.5 -224t-25 -262.5q0 -710 393 -710q86 0 145 40 q28 20 39 44.5t11 62.5v201q0 138 -38 177.5t-169 44.5v41q118 -7 350 -7q188 0 275 7v-41q-60 -5 -76.5 -35t-16.5 -141v-406h-41q-2 43 -17.5 80t-42.5 37q-33 0 -110 -42q-179 -104 -336 -104q-355 0 -543 193t-188 544zM353 1606q131 55 242.5 141t177.5 178h37 q63 -91 175 -177t244 -142l-10 -30q-132 23 -262 59.5t-207 72.5q-64 -36 -171.5 -72.5t-215.5 -59.5z" />
<glyph unicode="&#x11d;" horiz-adv-x="1436" d="M87 598q0 204 90.5 358.5t251 236t367.5 81.5q65 0 118 -10t98.5 -32t72.5 -40t71 -51q25 -20 42 -20q39 0 50 124h48q-9 -113 -9 -409h-47q-32 160 -102 241q-62 68 -128 105.5t-157 37.5q-202 0 -320 -162.5t-118 -436.5q0 -314 102 -461.5t305 -147.5q70 0 118 29 q42 25 42 88v190q0 65 -7 100.5t-30 57.5t-57.5 29.5t-99.5 9.5v41q132 -6 338 -6q174 0 262 6v-41q-42 -3 -60 -16t-25 -47t-7 -113v-340h-41q-8 76 -43 76q-28 0 -102 -36q-149 -69 -315 -69q-335 0 -521.5 165.5t-186.5 461.5zM354 1430q128 54 237.5 140.5t174.5 178.5 h37q62 -91 172 -177t239 -142l-10 -30q-132 23 -259 59.5t-202 72.5q-62 -36 -166.5 -72.5t-212.5 -59.5z" />
<glyph unicode="&#x11e;" horiz-adv-x="1505" d="M88 708q0 229 94.5 405t263 271t383.5 95q127 0 215 -34.5t171 -98.5q23 -20 41 -20q39 0 51 124h47q-8 -140 -8 -496h-47q-16 139 -48 225t-106 146q-50 47 -122 74t-146 27q-108 0 -191.5 -58.5t-133 -159t-74.5 -224t-25 -262.5q0 -710 393 -710q86 0 145 40 q28 20 39 44.5t11 62.5v201q0 138 -38 177.5t-169 44.5v41q118 -7 350 -7q188 0 275 7v-41q-60 -5 -76.5 -35t-16.5 -141v-406h-41q-2 43 -17.5 80t-42.5 37q-33 0 -110 -42q-179 -104 -336 -104q-355 0 -543 193t-188 544zM322 1853l25 21q163 -123 431 -123q266 0 433 124 l24 -22q-23 -50 -61.5 -96t-93.5 -87.5t-133.5 -66.5t-168.5 -25q-89 0 -167.5 25t-133.5 66.5t-93.5 87.5t-61.5 96z" />
<glyph unicode="&#x11f;" horiz-adv-x="1436" d="M87 598q0 204 90.5 358.5t251 236t367.5 81.5q65 0 118 -10t98.5 -32t72.5 -40t71 -51q25 -20 42 -20q39 0 50 124h48q-9 -113 -9 -409h-47q-32 160 -102 241q-62 68 -128 105.5t-157 37.5q-202 0 -320 -162.5t-118 -436.5q0 -314 102 -461.5t305 -147.5q70 0 118 29 q42 25 42 88v190q0 65 -7 100.5t-30 57.5t-57.5 29.5t-99.5 9.5v41q132 -6 338 -6q174 0 262 6v-41q-42 -3 -60 -16t-25 -47t-7 -113v-340h-41q-8 76 -43 76q-28 0 -102 -36q-149 -69 -315 -69q-335 0 -521.5 165.5t-186.5 461.5zM331 1674l26 22q160 -124 423 -124 q260 0 424 125l24 -23q-23 -50 -60 -96t-91.5 -87t-131.5 -66t-165 -25t-165 25t-131.5 66.5t-92 87t-60.5 95.5z" />
<glyph unicode="&#x120;" horiz-adv-x="1505" d="M88 708q0 229 94.5 405t263 271t383.5 95q127 0 215 -34.5t171 -98.5q23 -20 41 -20q39 0 51 124h47q-8 -140 -8 -496h-47q-16 139 -48 225t-106 146q-50 47 -122 74t-146 27q-108 0 -191.5 -58.5t-133 -159t-74.5 -224t-25 -262.5q0 -710 393 -710q86 0 145 40 q28 20 39 44.5t11 62.5v201q0 138 -38 177.5t-169 44.5v41q118 -7 350 -7q188 0 275 7v-41q-60 -5 -76.5 -35t-16.5 -141v-406h-41q-2 43 -17.5 80t-42.5 37q-33 0 -110 -42q-179 -104 -336 -104q-355 0 -543 193t-188 544zM629 1724q0 74 47 116.5t127 42.5t127 -42.5 t47 -116.5q0 -73 -47 -115.5t-127 -42.5t-127 42.5t-47 115.5z" />
<glyph unicode="&#x121;" horiz-adv-x="1436" d="M87 598q0 204 90.5 358.5t251 236t367.5 81.5q65 0 118 -10t98.5 -32t72.5 -40t71 -51q25 -20 42 -20q39 0 50 124h48q-9 -113 -9 -409h-47q-32 160 -102 241q-62 68 -128 105.5t-157 37.5q-202 0 -320 -162.5t-118 -436.5q0 -314 102 -461.5t305 -147.5q70 0 118 29 q42 25 42 88v190q0 65 -7 100.5t-30 57.5t-57.5 29.5t-99.5 9.5v41q132 -6 338 -6q174 0 262 6v-41q-42 -3 -60 -16t-25 -47t-7 -113v-340h-41q-8 76 -43 76q-28 0 -102 -36q-149 -69 -315 -69q-335 0 -521.5 165.5t-186.5 461.5zM637 1586q0 74 46.5 116t127.5 42 q80 0 127 -42t47 -116t-47 -116t-127 -42q-81 0 -127.5 42t-46.5 116z" />
<glyph unicode="&#x122;" horiz-adv-x="1505" d="M88 708q0 229 94.5 405t263 271t383.5 95q127 0 215 -34.5t171 -98.5q23 -20 41 -20q39 0 51 124h47q-8 -140 -8 -496h-47q-16 139 -48 225t-106 146q-50 47 -122 74t-146 27q-108 0 -191.5 -58.5t-133 -159t-74.5 -224t-25 -262.5q0 -710 393 -710q86 0 145 40 q28 20 39 44.5t11 62.5v201q0 138 -38 177.5t-169 44.5v41q118 -7 350 -7q188 0 275 7v-41q-60 -5 -76.5 -35t-16.5 -141v-406h-41q-2 43 -17.5 80t-42.5 37q-33 0 -110 -42q-179 -104 -336 -104q-355 0 -543 193t-188 544zM663 -246q0 62 41.5 97.5t113.5 35.5 q75 0 121 -42.5t46 -115.5q0 -94 -57.5 -153t-175.5 -74l-8 41q150 25 164 113q-34 -31 -100 -31q-67 0 -106 33t-39 96z" />
<glyph unicode="&#x123;" horiz-adv-x="1436" d="M87 598q0 204 90.5 358.5t251 236t367.5 81.5q65 0 118 -10t98.5 -32t72.5 -40t71 -51q25 -20 42 -20q39 0 50 124h48q-9 -113 -9 -409h-47q-32 160 -102 241q-62 68 -128 105.5t-157 37.5q-202 0 -320 -162.5t-118 -436.5q0 -314 102 -461.5t305 -147.5q70 0 118 29 q42 25 42 88v190q0 65 -7 100.5t-30 57.5t-57.5 29.5t-99.5 9.5v41q132 -6 338 -6q174 0 262 6v-41q-42 -3 -60 -16t-25 -47t-7 -113v-340h-41q-8 76 -43 76q-28 0 -102 -36q-149 -69 -315 -69q-335 0 -521.5 165.5t-186.5 461.5zM653 -245q0 62 41.5 97.5t113.5 35.5 q74 0 120.5 -42t46.5 -116q0 -94 -57.5 -153t-175.5 -74l-8 42q151 24 164 113q-34 -32 -100 -32q-67 0 -106 33t-39 96z" />
<glyph unicode="&#x124;" horiz-adv-x="1639" d="M69 0v41q52 2 79 8.5t45.5 26.5t23.5 51t5 90v1016q0 58 -5 89.5t-23.5 51.5t-45.5 26.5t-79 8.5v41q103 -6 323 -6q199 0 310 6v-41q-53 -2 -80 -8.5t-45.5 -26.5t-23.5 -51t-5 -90v-483h543v483q0 58 -5 89.5t-23.5 51.5t-46 26.5t-79.5 8.5v41q114 -6 322 -6 q211 0 311 6v-41q-53 -2 -80 -8.5t-45.5 -26.5t-23.5 -51t-5 -90v-1016q0 -77 12.5 -112t43 -48t98.5 -16v-41q-100 6 -311 6q-208 0 -322 -6v41q53 2 80 8.5t45.5 26.5t23.5 51t5 90v492h-543v-492q0 -58 5 -89.5t23.5 -51.5t46 -26.5t79.5 -8.5v-41q-111 6 -310 6 q-220 0 -323 -6zM387 1606q131 55 242.5 141t177.5 178h37q63 -91 175 -177t244 -142l-10 -30q-132 23 -262 59.5t-207 72.5q-64 -36 -171.5 -72.5t-215.5 -59.5z" />
<glyph unicode="&#x125;" horiz-adv-x="1600" d="M70 0v41q53 2 80 8.5t45.5 26.5t23.5 51t5 90v811q0 77 -12.5 112t-42.5 48t-99 16v41q98 -6 299 -6q208 0 322 6v-41q-70 -3 -100 -16t-42 -47.5t-12 -112.5v-373h526v373q0 59 -5 90.5t-23.5 51t-45.5 26t-79 8.5v41q112 -6 321 -6q203 0 299 6v-41q-69 -3 -99 -16 t-42 -47.5t-12 -112.5v-811q0 -58 5 -89.5t23.5 -51.5t45.5 -26.5t79 -8.5v-41q-96 6 -299 6q-209 0 -321 -6v41q52 2 79 8.5t45.5 26.5t23.5 51t5 90v397h-526v-397q0 -58 5 -89.5t23.5 -51.5t46 -26.5t79.5 -8.5v-41q-114 6 -322 6q-201 0 -299 -6zM379 1430 q128 54 237.5 140.5t174.5 178.5h37q62 -91 172 -177t239 -142l-10 -30q-132 23 -259 59.5t-202 72.5q-62 -36 -166.5 -72.5t-212.5 -59.5z" />
<glyph unicode="&#x126;" horiz-adv-x="1639" d="M69 0v41q52 2 79 8.5t45.5 26.5t23.5 51t5 90v834h-153v41h153v141q0 58 -5 89.5t-23.5 51.5t-45.5 26.5t-79 8.5v41q103 -6 323 -6q199 0 310 6v-41q-53 -2 -80 -8.5t-45.5 -26.5t-23.5 -51t-5 -90v-141h543v141q0 58 -5 89.5t-23.5 51.5t-46 26.5t-79.5 8.5v41 q114 -6 322 -6q211 0 311 6v-41q-53 -2 -80 -8.5t-45.5 -26.5t-23.5 -51t-5 -90v-141h154v-41h-154v-834q0 -77 12.5 -112t43 -48t98.5 -16v-41q-100 6 -311 6q-208 0 -322 -6v41q53 2 80 8.5t45.5 26.5t23.5 51t5 90v492h-543v-492q0 -58 5 -89.5t23.5 -51.5t46 -26.5 t79.5 -8.5v-41q-111 6 -310 6q-220 0 -323 -6zM548 750h543v301h-543v-301z" />
<glyph unicode="&#x127;" horiz-adv-x="1600" d="M70 0v41q53 2 80 8.5t45.5 26.5t23.5 51t5 90v690h-154v41h154v80q0 77 -12.5 112t-42.5 48t-99 16v41q98 -6 299 -6q208 0 322 6v-41q-70 -3 -100 -16t-42 -47.5t-12 -112.5v-80h526v80q0 59 -5 90.5t-23.5 51t-45.5 26t-79 8.5v41q112 -6 321 -6q203 0 299 6v-41 q-69 -3 -99 -16t-42 -47.5t-12 -112.5v-80h153v-41h-153v-690q0 -58 5 -89.5t23.5 -51.5t45.5 -26.5t79 -8.5v-41q-96 6 -299 6q-209 0 -321 -6v41q52 2 79 8.5t45.5 26.5t23.5 51t5 90v397h-526v-397q0 -58 5 -89.5t23.5 -51.5t46 -26.5t79.5 -8.5v-41q-114 6 -322 6 q-201 0 -299 -6zM537 655h526v252h-526v-252z" />
<glyph unicode="&#x128;" horiz-adv-x="770" d="M-62 1617q27 135 101.5 205t172.5 70q53 0 102 -15t86.5 -36t74 -42.5t80 -36.5t87.5 -15q109 0 170 111l30 -11q-27 -135 -101.5 -205t-171.5 -70q-65 0 -126 23t-101.5 50t-95.5 50t-109 23q-107 0 -170 -112zM69 0v41q52 2 79 8.5t45.5 26.5t23.5 51t5 90v1016 q0 58 -5 89.5t-23.5 51.5t-45.5 26.5t-79 8.5v41q103 -6 323 -6q199 0 310 6v-41q-53 -2 -80 -8.5t-45.5 -26.5t-23.5 -51t-5 -90v-1016q0 -58 5 -89.5t23.5 -51.5t46 -26.5t79.5 -8.5v-41q-111 6 -310 6q-220 0 -323 -6z" />
<glyph unicode="&#x129;" horiz-adv-x="761" d="M-78 1466q33 136 105.5 205.5t168.5 69.5q64 0 125.5 -22.5t101.5 -49.5t95 -49.5t108 -22.5q113 0 177 112l31 -12q-33 -136 -105.5 -205.5t-167.5 -69.5q-53 0 -102.5 15t-87.5 36t-74.5 42.5t-79.5 36.5t-87 15q-112 0 -177 -114zM70 0v41q53 2 80 8.5t45.5 26.5 t23.5 51t5 90v811q0 77 -12.5 112t-42.5 48t-99 16v41q100 -6 317 -6q197 0 304 6v-41q-70 -3 -100 -16t-42 -47.5t-12 -112.5v-811q0 -59 5 -90t23.5 -51t45.5 -26.5t80 -8.5v-41q-107 6 -304 6q-217 0 -317 -6z" />
<glyph unicode="&#x12a;" horiz-adv-x="770" d="M-18 1677v52h819v-52h-819zM69 0v41q52 2 79 8.5t45.5 26.5t23.5 51t5 90v1016q0 58 -5 89.5t-23.5 51.5t-45.5 26.5t-79 8.5v41q103 -6 323 -6q199 0 310 6v-41q-53 -2 -80 -8.5t-45.5 -26.5t-23.5 -51t-5 -90v-1016q0 -58 5 -89.5t23.5 -51.5t46 -26.5t79.5 -8.5v-41 q-111 6 -310 6q-220 0 -323 -6z" />
<glyph unicode="&#x12b;" horiz-adv-x="761" d="M-33 1530v51h819v-51h-819zM70 0v41q53 2 80 8.5t45.5 26.5t23.5 51t5 90v811q0 77 -12.5 112t-42.5 48t-99 16v41q100 -6 317 -6q197 0 304 6v-41q-70 -3 -100 -16t-42 -47.5t-12 -112.5v-811q0 -59 5 -90t23.5 -51t45.5 -26.5t80 -8.5v-41q-107 6 -304 6 q-217 0 -317 -6z" />
<glyph unicode="&#x12c;" horiz-adv-x="770" d="M-77 1853l25 21q163 -123 431 -123q266 0 433 124l24 -22q-23 -50 -61.5 -96t-93.5 -87.5t-133.5 -66.5t-168.5 -25q-89 0 -167.5 25t-133.5 66.5t-93.5 87.5t-61.5 96zM69 0v41q52 2 79 8.5t45.5 26.5t23.5 51t5 90v1016q0 58 -5 89.5t-23.5 51.5t-45.5 26.5t-79 8.5v41 q103 -6 323 -6q199 0 310 6v-41q-53 -2 -80 -8.5t-45.5 -26.5t-23.5 -51t-5 -90v-1016q0 -58 5 -89.5t23.5 -51.5t46 -26.5t79.5 -8.5v-41q-111 6 -310 6q-220 0 -323 -6z" />
<glyph unicode="&#x12d;" horiz-adv-x="761" d="M-70 1674l26 22q160 -124 423 -124q260 0 424 125l24 -23q-23 -50 -60 -96t-91.5 -87t-131.5 -66t-165 -25t-165 25t-131.5 66.5t-92 87t-60.5 95.5zM70 0v41q53 2 80 8.5t45.5 26.5t23.5 51t5 90v811q0 77 -12.5 112t-42.5 48t-99 16v41q100 -6 317 -6q197 0 304 6v-41 q-70 -3 -100 -16t-42 -47.5t-12 -112.5v-811q0 -59 5 -90t23.5 -51t45.5 -26.5t80 -8.5v-41q-107 6 -304 6q-217 0 -317 -6z" />
<glyph unicode="&#x12e;" horiz-adv-x="770" d="M69 0v41q52 2 79 8.5t45.5 26.5t23.5 51t5 90v1016q0 58 -5 89.5t-23.5 51.5t-45.5 26.5t-79 8.5v41q103 -6 323 -6q199 0 310 6v-41q-53 -2 -80 -8.5t-45.5 -26.5t-23.5 -51t-5 -90v-1016q0 -58 5 -89.5t23.5 -51.5t46 -26.5t79.5 -8.5v-41l-37 2q-108 -36 -159 -88 t-51 -103q0 -83 84 -83q35 0 72 16t59 39l29 -29q-55 -73 -122 -106t-159 -33q-89 0 -137.5 37t-48.5 103q0 83 93.5 147.5t264.5 101.5q-122 2 -198 2q-220 0 -323 -6z" />
<glyph unicode="&#x12f;" horiz-adv-x="761" d="M70 0v41q53 2 80 8.5t45.5 26.5t23.5 51t5 90v811q0 77 -12.5 112t-42.5 48t-99 16v41q100 -6 317 -6q197 0 304 6v-41q-70 -3 -100 -16t-42 -47.5t-12 -112.5v-811q0 -59 5 -90t23.5 -51t45.5 -26.5t80 -8.5v-41l-38 2q-108 -35 -159 -87.5t-51 -103.5q0 -83 85 -83 q34 0 71.5 16t59.5 39l28 -29q-55 -73 -122 -106t-159 -33q-89 0 -137.5 37t-48.5 103q0 83 94 147.5t265 101.5q-120 2 -192 2q-217 0 -317 -6z" />
<glyph unicode="&#x130;" horiz-adv-x="770" d="M69 0v41q52 2 79 8.5t45.5 26.5t23.5 51t5 90v1016q0 58 -5 89.5t-23.5 51.5t-45.5 26.5t-79 8.5v41q103 -6 323 -6q199 0 310 6v-41q-53 -2 -80 -8.5t-45.5 -26.5t-23.5 -51t-5 -90v-1016q0 -58 5 -89.5t23.5 -51.5t46 -26.5t79.5 -8.5v-41q-111 6 -310 6 q-220 0 -323 -6zM205 1827q0 73 50.5 115.5t136.5 42.5q85 0 135.5 -42.5t50.5 -115.5q0 -74 -50.5 -116.5t-135.5 -42.5q-87 0 -137 42.5t-50 116.5z" />
<glyph unicode="&#x131;" horiz-adv-x="646" d="M50 0v43q73 0 102 31.5t29 115.5v646q0 95 -29.5 138t-101.5 43v43q75 -7 127 -7q174 0 299 29v-892q0 -84 29 -115.5t102 -31.5v-43q-208 8 -274 8q-67 0 -283 -8z" />
<glyph unicode="&#x132;" horiz-adv-x="1511" d="M69 0v41q52 2 79 8.5t45.5 26.5t23.5 51t5 90v1016q0 58 -5 89.5t-23.5 51.5t-45.5 26.5t-79 8.5v41q103 -6 323 -6q199 0 310 6v-41q-53 -2 -80 -8.5t-45.5 -26.5t-23.5 -51t-5 -90v-1016q0 -58 5 -89.5t23.5 -51.5t46 -26.5t79.5 -8.5v-41q-111 6 -310 6 q-220 0 -323 -6zM441 -198q0 62 45 100t119 38q71 0 113 -35t42 -100q0 -46 -27 -82t-78 -52q23 -15 74 -15q75 0 129 40.5t78 106.5q26 75 32.5 169t6.5 325v936q0 58 -5 89.5t-23.5 51.5t-45.5 26.5t-79 8.5v41q101 -6 311 -6q208 0 322 6v-41q-53 -2 -80 -8.5 t-45.5 -26.5t-23.5 -51t-5 -90v-750v-107q0 -306 -35 -427q-43 -148 -180 -241t-338 -93q-130 0 -206 38q-101 51 -101 149z" />
<glyph unicode="&#x133;" horiz-adv-x="1476" d="M70 0v41q53 2 80 8.5t45.5 26.5t23.5 51t5 90v811q0 77 -12.5 112t-42.5 48t-99 16v41q100 -6 317 -6q197 0 304 6v-41q-70 -3 -100 -16t-42 -47.5t-12 -112.5v-811q0 -59 5 -90t23.5 -51t45.5 -26.5t80 -8.5v-41q-107 6 -304 6q-217 0 -317 -6zM467 -215q0 59 44.5 96 t115.5 37q68 0 109 -34.5t41 -95.5q0 -39 -23.5 -74t-68.5 -54q30 -4 55 -4q106 0 159 107q29 49 42 132t13 239v894q0 59 -5 90.5t-23.5 51t-46 26t-79.5 8.5v41q98 -6 299 -6q208 0 322 6v-41q-70 -3 -100 -16t-42 -47.5t-12 -112.5v-545v-107q0 -306 -35 -427 q-41 -148 -169.5 -240t-319.5 -92q-124 0 -193 36q-83 44 -83 132z" />
<glyph unicode="&#x134;" horiz-adv-x="746" d="M-323 -198q0 62 45 100t119 38q71 0 113 -35t42 -100q0 -46 -27 -82t-78 -52q23 -15 74 -15q75 0 129 40.5t78 106.5q26 75 32.5 169t6.5 325v936q0 58 -5 89.5t-23.5 51.5t-45.5 26.5t-79 8.5v41q100 -6 311 -6q208 0 322 6v-41q-53 -2 -80 -8.5t-45.5 -26.5t-23.5 -51 t-5 -90v-750v-107q0 -306 -35 -427q-43 -148 -180 -241t-338 -93q-130 0 -206 38q-101 51 -101 149zM-69 1606q131 55 242.5 141t177.5 178h37q63 -91 175 -177t244 -142l-10 -30q-132 23 -262 59.5t-207 72.5q-64 -36 -171.5 -72.5t-215.5 -59.5z" />
<glyph unicode="&#x135;" horiz-adv-x="733" d="M-276 -215q0 59 44.5 96t115.5 37q68 0 109 -34.5t41 -95.5q0 -39 -23.5 -74t-68.5 -54q30 -4 55 -4q106 0 159 107q29 49 42 132t13 239v894q0 59 -5 90.5t-23.5 51t-46 26t-79.5 8.5v41q97 -6 299 -6q208 0 322 6v-41q-70 -3 -100 -16t-42 -47.5t-12 -112.5v-545v-107 q0 -306 -35 -427q-41 -148 -169.5 -240t-319.5 -92q-124 0 -193 36q-83 44 -83 132zM-77 1430q128 54 237.5 140.5t174.5 178.5h37q62 -91 172 -177t239 -142l-10 -30q-132 23 -259 59.5t-202 72.5q-62 -36 -166.5 -72.5t-212.5 -59.5z" />
<glyph unicode="&#x136;" horiz-adv-x="1463" d="M69 0v41q52 2 79 8.5t45.5 26.5t23.5 51t5 90v1016q0 58 -5 89.5t-23.5 51.5t-45.5 26.5t-79 8.5v41q103 -6 323 -6q199 0 310 6v-41q-53 -2 -80 -8.5t-45.5 -26.5t-23.5 -51t-5 -90v-461q81 5 150.5 50t153.5 142l120 146q94 111 94 190q0 51 -39.5 79.5t-110.5 30.5v40 q150 -6 302 -6q119 0 194 6v-40q-163 -35 -298 -195l-256 -305l477 -744q30 -48 62.5 -76.5t84.5 -48.5v-41q-142 6 -320 6q-135 0 -260 -6v41q58 2 83.5 11.5t25.5 29.5q0 15 -21 51l-298 481q-43 67 -70.5 88.5t-73.5 25.5v-511q0 -58 5 -89.5t23.5 -51.5t46 -26.5 t79.5 -8.5v-41q-111 6 -310 6q-220 0 -323 -6zM653 -246q0 62 41.5 97.5t113.5 35.5q75 0 121 -42.5t46 -115.5q0 -94 -57.5 -153t-175.5 -74l-8 41q150 25 164 113q-34 -31 -100 -31q-67 0 -106 33t-39 96z" />
<glyph unicode="&#x137;" horiz-adv-x="1457" d="M70 0v41q53 2 80 8.5t45.5 26.5t23.5 51t5 90v811q0 77 -12.5 112t-42.5 48t-99 16v41q105 -6 317 -6q197 0 304 6v-41q-70 -3 -100 -16t-42 -47.5t-12 -112.5v-366q89 8 162 44.5t157 116.5l125 127q79 75 79 143q0 49 -41.5 80t-110.5 33v39q147 -6 315 -6q110 0 182 6 v-39q-138 -32 -278 -168l-252 -249l449 -623q36 -49 65.5 -77t73.5 -48v-41q-143 6 -313 6q-147 0 -280 -6v41q65 2 92 11t27 28q0 17 -23 53l-268 385q-35 50 -70 75t-91 28v-404q0 -59 5 -90t23.5 -51t45.5 -26.5t80 -8.5v-41q-107 6 -304 6q-212 0 -317 -6zM634 -245 q0 62 41.5 97.5t113.5 35.5q74 0 120.5 -42t46.5 -116q0 -94 -57.5 -153t-175.5 -74l-8 42q151 24 164 113q-34 -32 -100 -32q-67 0 -106 33t-39 96z" />
<glyph unicode="&#x138;" horiz-adv-x="1210" d="M50 0v43q73 0 102 31.5t29 115.5v646q0 95 -29.5 138t-101.5 43v43q75 -7 127 -7q174 0 299 29v-524q59 6 98.5 29t80.5 70l191 217q32 38 32 70t-32 52.5t-91 22.5v41q126 -7 211 -7q106 0 186 7v-41q-72 -8 -115 -28.5t-85 -70.5l-212 -244l347 -524q32 -49 60 -76 t60 -33v-43q-164 8 -215 8q-60 0 -252 -8v43q61 0 61 39q0 15 -10 31l-230 343q-36 56 -85 61v-327q0 -84 27 -115.5t95 -31.5v-43q-200 8 -265 8q-67 0 -283 -8z" />
<glyph unicode="&#x139;" horiz-adv-x="1251" d="M69 0v41q52 2 79 8.5t45.5 26.5t23.5 51t5 90v1016q0 58 -5 89.5t-23.5 51.5t-45.5 26.5t-79 8.5v41q103 -6 323 -6q208 0 322 6v-41q-74 -3 -106.5 -16t-46 -48t-13.5 -112v-1040q0 -95 23.5 -120.5t105.5 -25.5h100q141 0 242 125.5t131 331.5h47q-6 -70 -6 -180 q0 -175 14 -324q-139 6 -469 6q-444 0 -667 -6zM242 1606q81 66 147 134.5t105.5 109.5t79.5 62q29 16 64 16q32 0 59.5 -15.5t42.5 -43.5q11 -21 11 -47q0 -68 -68 -105q-45 -25 -177.5 -58.5t-248.5 -77.5z" />
<glyph unicode="&#x13a;" horiz-adv-x="1205" d="M70 0v41q53 2 80 8.5t45.5 26.5t23.5 51t5 90v811q0 77 -12.5 112t-42.5 48t-99 16v41q105 -6 324 -6q190 0 297 6v-41q-70 -3 -100 -16t-42 -47.5t-12 -112.5v-835q0 -93 26 -119.5t103 -26.5h80q291 0 352 412h47q-6 -66 -6 -168q0 -129 14 -291q-133 6 -448 6 q-422 0 -635 -6zM214 1439q81 65 146.5 133.5t105.5 109.5t80 62q29 16 63 16q72 0 102 -59q12 -24 12 -48q0 -67 -68 -104q-45 -25 -178 -58.5t-249 -77.5z" />
<glyph unicode="&#x13b;" horiz-adv-x="1251" d="M69 0v41q52 2 79 8.5t45.5 26.5t23.5 51t5 90v1016q0 58 -5 89.5t-23.5 51.5t-45.5 26.5t-79 8.5v41q103 -6 323 -6q208 0 322 6v-41q-74 -3 -106.5 -16t-46 -48t-13.5 -112v-1040q0 -95 23.5 -120.5t105.5 -25.5h100q141 0 242 125.5t131 331.5h47q-6 -70 -6 -180 q0 -175 14 -324q-139 6 -469 6q-444 0 -667 -6zM563 -246q0 62 41.5 97.5t113.5 35.5q75 0 121 -42.5t46 -115.5q0 -94 -57.5 -153t-175.5 -74l-8 41q150 25 164 113q-34 -31 -100 -31q-67 0 -106 33t-39 96z" />
<glyph unicode="&#x13c;" horiz-adv-x="1205" d="M70 0v41q53 2 80 8.5t45.5 26.5t23.5 51t5 90v811q0 77 -12.5 112t-42.5 48t-99 16v41q105 -6 324 -6q190 0 297 6v-41q-70 -3 -100 -16t-42 -47.5t-12 -112.5v-835q0 -93 26 -119.5t103 -26.5h80q291 0 352 412h47q-6 -66 -6 -168q0 -129 14 -291q-133 6 -448 6 q-422 0 -635 -6zM507 -245q0 62 41.5 97.5t113.5 35.5q74 0 120.5 -42t46.5 -116q0 -94 -57.5 -153t-175.5 -74l-8 42q151 24 164 113q-34 -32 -100 -32q-67 0 -106 33t-39 96z" />
<glyph unicode="&#x13d;" horiz-adv-x="1251" d="M69 0v41q52 2 79 8.5t45.5 26.5t23.5 51t5 90v1016q0 58 -5 89.5t-23.5 51.5t-45.5 26.5t-79 8.5v41q103 -6 323 -6q208 0 322 6v-41q-74 -3 -106.5 -16t-46 -48t-13.5 -112v-1040q0 -95 23.5 -120.5t105.5 -25.5h100q141 0 242 125.5t131 331.5h47q-6 -70 -6 -180 q0 -175 14 -324q-139 6 -469 6q-444 0 -667 -6zM724 1407v43q56 -4 108 -4q87 0 170 16q10 -23 10 -73q0 -32 -13.5 -68.5t-55.5 -101t-68 -101t-102 -139.5l-29 8q41 260 41 338q0 43 -12.5 62.5t-48.5 19.5z" />
<glyph unicode="&#x13e;" horiz-adv-x="1205" d="M70 0v41q53 2 80 8.5t45.5 26.5t23.5 51t5 90v811q0 77 -12.5 112t-42.5 48t-99 16v41q105 -6 324 -6q190 0 297 6v-41q-70 -3 -100 -16t-42 -47.5t-12 -112.5v-835q0 -93 26 -119.5t103 -26.5h80q291 0 352 412h47q-6 -66 -6 -168q0 -129 14 -291q-133 6 -448 6 q-422 0 -635 -6zM763 1202v43q55 -4 106 -4q88 0 168 16q11 -22 11 -73q0 -38 -29 -95.5t-63.5 -107.5t-110.5 -154l-33 -45l-28 9q41 261 41 329q0 43 -13 62.5t-49 19.5z" />
<glyph unicode="&#x13f;" horiz-adv-x="1346" d="M69 0v41q52 2 79 8.5t45.5 26.5t23.5 51t5 90v1016q0 58 -5 89.5t-23.5 51.5t-45.5 26.5t-79 8.5v41q103 -6 323 -6q208 0 322 6v-41q-74 -3 -106.5 -16t-46 -48t-13.5 -112v-1040q0 -95 23.5 -120.5t105.5 -25.5h100q141 0 242 125.5t131 331.5h47q-6 -70 -6 -180 q0 -175 14 -324q-139 6 -469 6q-444 0 -667 -6zM952 756q0 74 47 116.5t127 42.5q81 0 128 -42.5t47 -116.5q0 -73 -47 -115.5t-128 -42.5q-80 0 -127 42.5t-47 115.5z" />
<glyph unicode="&#x140;" horiz-adv-x="1230" d="M69 0v41q53 2 80 8.5t45.5 26.5t23.5 51t5 90v811q0 77 -12.5 112t-42.5 48t-99 16v41q105 -6 324 -6q191 0 297 6v-41q-70 -3 -100 -16t-42 -47.5t-12 -112.5v-835q0 -93 26 -119.5t103 -26.5h80q291 0 352 412h47q-6 -66 -6 -168q0 -129 14 -291q-133 6 -448 6 q-422 0 -635 -6zM832 734q0 74 47 116.5t127 42.5q81 0 128 -42.5t47 -116.5q0 -73 -47 -115.5t-128 -42.5q-80 0 -127 42.5t-47 115.5z" />
<glyph unicode="&#x141;" horiz-adv-x="1251" d="M69 0v41q52 2 79 8.5t45.5 26.5t23.5 51t5 90v292l-153 -89v47l153 89v677q0 58 -5 89.5t-23.5 51.5t-45.5 26.5t-79 8.5v41q103 -6 323 -6q208 0 322 6v-41q-74 -3 -106.5 -16t-46 -48t-13.5 -112v-508l421 244v-47l-421 -244v-485q0 -95 23.5 -120.5t105.5 -25.5h100 q141 0 242 125.5t131 331.5h47q-6 -70 -6 -180q0 -175 14 -324q-139 6 -469 6q-444 0 -667 -6z" />
<glyph unicode="&#x142;" horiz-adv-x="1206" d="M71 0v41q53 2 80 8.5t45.5 26.5t23.5 51t5 90v208l-154 -88v47l154 88v556q0 77 -12.5 112t-42.5 48t-99 16v41q105 -6 324 -6q191 0 297 6v-41q-70 -3 -100 -16t-42 -47.5t-12 -112.5v-424l354 201v-47l-354 -201v-364q0 -93 26 -119.5t103 -26.5h80q291 0 352 412h47 q-6 -66 -6 -168q0 -129 14 -291q-133 6 -448 6q-422 0 -635 -6z" />
<glyph unicode="&#x143;" horiz-adv-x="1478" d="M71 0v41q96 13 125 66t29 204v922q0 58 -5 89.5t-23.5 51.5t-46 26.5t-79.5 8.5v41q65 -6 178 -6q105 0 177 6l792 -977v641q0 74 -3.5 116t-14 78.5t-33.5 54.5t-57.5 29t-90.5 17v41q80 -6 222 -6q113 0 178 6v-41q-96 -13 -125 -66t-29 -204v-1143q-15 1 -49 1 q-36 0 -56 -1l-888 1126v-786q0 -74 3.5 -116t14 -78.5t33.5 -54.5t57.5 -29t90.5 -17v-41q-79 6 -222 6q-113 0 -178 -6zM626 1606q81 66 147 134.5t105.5 109.5t79.5 62q29 16 64 16q32 0 59.5 -15.5t42.5 -43.5q11 -21 11 -47q0 -68 -68 -105q-45 -25 -177.5 -58.5 t-248.5 -77.5z" />
<glyph unicode="&#x144;" horiz-adv-x="1413" d="M71 0v41q97 13 125.5 57t28.5 176v754q0 59 -5 90.5t-23.5 51t-46 26t-79.5 8.5v41q65 -6 178 -6q147 0 250 6l654 -811v537q0 131 -39.5 175.5t-171.5 57.5v41q90 -6 233 -6q115 0 178 6v-41q-97 -13 -125 -57t-28 -176v-975q-18 1 -54 1q-37 0 -55 -1l-819 1018v-740 q0 -131 39.5 -175.5t171.5 -57.5v-41q-90 6 -234 6q-113 0 -178 -6zM581 1439q81 65 146.5 133.5t105.5 109.5t80 62q29 16 63 16q72 0 102 -59q12 -24 12 -48q0 -67 -68 -104q-45 -25 -178 -58.5t-249 -77.5z" />
<glyph unicode="&#x145;" horiz-adv-x="1478" d="M71 0v41q96 13 125 66t29 204v922q0 58 -5 89.5t-23.5 51.5t-46 26.5t-79.5 8.5v41q65 -6 178 -6q105 0 177 6l792 -977v641q0 74 -3.5 116t-14 78.5t-33.5 54.5t-57.5 29t-90.5 17v41q80 -6 222 -6q113 0 178 6v-41q-96 -13 -125 -66t-29 -204v-1143q-15 1 -49 1 q-36 0 -56 -1l-888 1126v-786q0 -74 3.5 -116t14 -78.5t33.5 -54.5t57.5 -29t90.5 -17v-41q-79 6 -222 6q-113 0 -178 -6zM600 -246q0 62 41.5 97.5t113.5 35.5q75 0 121 -42.5t46 -115.5q0 -94 -57.5 -153t-175.5 -74l-8 41q150 25 164 113q-34 -31 -100 -31q-67 0 -106 33 t-39 96z" />
<glyph unicode="&#x146;" horiz-adv-x="1413" d="M71 0v41q97 13 125.5 57t28.5 176v754q0 59 -5 90.5t-23.5 51t-46 26t-79.5 8.5v41q65 -6 178 -6q147 0 250 6l654 -811v537q0 131 -39.5 175.5t-171.5 57.5v41q90 -6 233 -6q115 0 178 6v-41q-97 -13 -125 -57t-28 -176v-975q-18 1 -54 1q-37 0 -55 -1l-819 1018v-740 q0 -131 39.5 -175.5t171.5 -57.5v-41q-90 6 -234 6q-113 0 -178 -6zM570 -245q0 62 41.5 97.5t113.5 35.5q74 0 120.5 -42t46.5 -116q0 -94 -57.5 -153t-175.5 -74l-8 42q151 24 164 113q-34 -32 -100 -32q-67 0 -106 33t-39 96z" />
<glyph unicode="&#x147;" horiz-adv-x="1478" d="M71 0v41q96 13 125 66t29 204v922q0 58 -5 89.5t-23.5 51.5t-46 26.5t-79.5 8.5v41q65 -6 178 -6q105 0 177 6l792 -977v641q0 74 -3.5 116t-14 78.5t-33.5 54.5t-57.5 29t-90.5 17v41q80 -6 222 -6q113 0 178 6v-41q-96 -13 -125 -66t-29 -204v-1143q-15 1 -49 1 q-36 0 -56 -1l-888 1126v-786q0 -74 3.5 -116t14 -78.5t33.5 -54.5t57.5 -29t90.5 -17v-41q-79 6 -222 6q-113 0 -178 -6zM332 1891l10 30q133 -23 262.5 -59.5t206.5 -72.5q64 36 171.5 72.5t215.5 59.5l10 -30q-131 -55 -242.5 -141t-176.5 -178h-37q-63 91 -175.5 177 t-244.5 142z" />
<glyph unicode="&#x148;" horiz-adv-x="1413" d="M71 0v41q97 13 125.5 57t28.5 176v754q0 59 -5 90.5t-23.5 51t-46 26t-79.5 8.5v41q65 -6 178 -6q147 0 250 6l654 -811v537q0 131 -39.5 175.5t-171.5 57.5v41q90 -6 233 -6q115 0 178 6v-41q-97 -13 -125 -57t-28 -176v-975q-18 1 -54 1q-37 0 -55 -1l-819 1018v-740 q0 -131 39.5 -175.5t171.5 -57.5v-41q-90 6 -234 6q-113 0 -178 -6zM329 1703l10 30q296 -54 461 -133q139 79 379 133l10 -30q-128 -55 -237.5 -141t-173.5 -179h-37q-63 91 -173 177.5t-239 142.5z" />
<glyph unicode="&#x14a;" horiz-adv-x="1473" d="M69 0v41q52 2 79 8.5t45.5 26.5t23.5 51.5t5 89.5v1016q0 58 -5 89.5t-23.5 51.5t-45.5 26.5t-79 8.5v41q63 -6 178 -6q111 0 188 6l781 -960v743q0 77 -13.5 112t-46 48t-106.5 16v41q74 -6 188 -6q115 0 178 6v-41q-52 -2 -79 -8.5t-45.5 -26.5t-23.5 -51.5t-5 -89.5 v-1102q0 -125 -14 -216t-38 -148.5t-62.5 -91.5t-81.5 -47t-101 -13q-106 0 -171.5 40.5t-65.5 123.5q0 64 43.5 101t115.5 37q67 0 109 -34.5t42 -92.5q0 -42 -23.5 -78.5t-68.5 -55.5q18 -3 41 -3q107 0 161.5 86t64.5 259q-16 0 -56 -2l-888 1126v-905q0 -58 5.5 -89.5 t25.5 -51.5t49 -26.5t85 -8.5v-41q-73 6 -188 6t-178 -6z" />
<glyph unicode="&#x14b;" horiz-adv-x="1408" d="M70 0v41q53 2 80 8.5t45.5 26.5t23.5 51t5 90v811q0 77 -12.5 112t-42.5 48t-99 16v41q65 -6 178 -6q145 0 250 6l653 -811v594q0 59 -5.5 90.5t-25.5 51t-49 26t-86 8.5v41q75 -6 189 -6t178 6v-41q-69 -3 -99 -16t-42.5 -48t-12.5 -112v-897q0 -125 -14 -216 t-38 -148.5t-62 -91.5t-81 -47t-101 -13q-106 0 -172 40.5t-66 123.5q0 64 43.5 101t115.5 37q68 0 110 -34.5t42 -92.5q0 -43 -24 -79t-69 -55q20 -3 41 -3q107 0 162 86.5t64 261.5q-40 -2 -59 -5l-819 1018v-797q0 -58 5.5 -89.5t25.5 -51.5t49.5 -26.5t85.5 -8.5v-41 q-75 6 -189 6t-178 -6z" />
<glyph unicode="&#x14c;" horiz-adv-x="1623" d="M88 713q0 226 92 400.5t257 270t376 95.5q329 0 526 -197.5t197 -544.5q0 -226 -92.5 -400.5t-257 -270t-375.5 -95.5q-217 0 -379.5 87t-253 255.5t-90.5 399.5zM399 1677v52h819v-52h-819zM428 721q0 -320 112.5 -516.5t278.5 -196.5q170 0 273.5 200t103.5 521 q0 320 -112.5 516.5t-279.5 196.5q-170 0 -273 -200t-103 -521z" />
<glyph unicode="&#x14d;" horiz-adv-x="1555" d="M86 610q0 196 88.5 347.5t246 234t358.5 82.5q207 0 362 -74t241.5 -219.5t86.5 -345.5q0 -296 -193.5 -480t-498.5 -184q-315 0 -503 169t-188 470zM361 1530v51h819v-51h-819zM414 618q0 -274 106.5 -442t264.5 -168q161 0 258.5 172t97.5 447q0 274 -106.5 442 t-264.5 168q-161 0 -258.5 -172t-97.5 -447z" />
<glyph unicode="&#x14e;" horiz-adv-x="1623" d="M88 713q0 226 92 400.5t257 270t376 95.5q329 0 526 -197.5t197 -544.5q0 -226 -92.5 -400.5t-257 -270t-375.5 -95.5q-217 0 -379.5 87t-253 255.5t-90.5 399.5zM340 1853l25 21q163 -123 431 -123q266 0 433 124l24 -22q-23 -50 -61.5 -96t-93.5 -87.5t-133.5 -66.5 t-168.5 -25q-89 0 -167.5 25t-133.5 66.5t-93.5 87.5t-61.5 96zM428 721q0 -320 112.5 -516.5t278.5 -196.5q170 0 273.5 200t103.5 521q0 320 -112.5 516.5t-279.5 196.5q-170 0 -273 -200t-103 -521z" />
<glyph unicode="&#x14f;" horiz-adv-x="1555" d="M86 610q0 196 88.5 347.5t246 234t358.5 82.5q207 0 362 -74t241.5 -219.5t86.5 -345.5q0 -296 -193.5 -480t-498.5 -184q-315 0 -503 169t-188 470zM324 1674l26 22q160 -124 423 -124q260 0 424 125l24 -23q-23 -50 -60 -96t-91.5 -87t-131.5 -66t-165 -25t-165 25 t-131.5 66.5t-92 87t-60.5 95.5zM414 618q0 -274 106.5 -442t264.5 -168q161 0 258.5 172t97.5 447q0 274 -106.5 442t-264.5 168q-161 0 -258.5 -172t-97.5 -447z" />
<glyph unicode="&#x150;" horiz-adv-x="1623" d="M88 713q0 226 92 400.5t257 270t376 95.5q329 0 526 -197.5t197 -544.5q0 -226 -92.5 -400.5t-257 -270t-375.5 -95.5q-217 0 -379.5 87t-253 255.5t-90.5 399.5zM428 721q0 -320 112.5 -516.5t278.5 -196.5q170 0 273.5 200t103.5 521q0 320 -112.5 516.5t-279.5 196.5 q-170 0 -273 -200t-103 -521zM480 1604q56 65 128 172t111 138q35 26 75 26q59 0 93 -48q21 -30 21 -62q0 -56 -56 -97q-41 -29 -162 -74t-191 -78zM912 1604q50 57 96.5 125t79 114t64.5 71q33 26 75 26q59 0 93 -48q21 -29 21 -61q0 -56 -57 -98q-41 -29 -161.5 -74 t-190.5 -78z" />
<glyph unicode="&#x151;" horiz-adv-x="1555" d="M86 610q0 196 88.5 347.5t246 234t358.5 82.5q207 0 362 -74t241.5 -219.5t86.5 -345.5q0 -296 -193.5 -480t-498.5 -184q-315 0 -503 169t-188 470zM414 618q0 -274 106.5 -442t264.5 -168q161 0 258.5 172t97.5 447q0 274 -106.5 442t-264.5 168q-161 0 -258.5 -172 t-97.5 -447zM440 1452q62 69 114.5 142t85.5 118t64 70q35 26 75 26q59 0 93 -48q21 -30 21 -62q0 -56 -56 -97q-38 -28 -160 -76t-217 -96zM872 1452q62 69 114.5 142.5t85.5 118t65 69.5q33 26 75 26q59 0 93 -48q21 -28 21 -61q0 -56 -57 -98q-38 -28 -160 -76t-217 -96z " />
<glyph unicode="&#x152;" horiz-adv-x="2038" d="M88 713q0 226 90.5 400.5t252.5 270t369 95.5q91 0 179 -32q197 -3 514 -3q290 0 412 6q-14 -155 -14 -279q0 -89 6 -139h-47q-27 206 -94 288.5t-193 82.5h-43q-98 0 -126 -30t-28 -140v-483h85q25 0 47 5t38.5 16t29.5 21.5t23.5 30t17.5 32t13.5 36t9.5 34.5t8.5 35.5 t6.5 30.5h47q-7 -91 -7 -174q0 -17 0.5 -46t0.5 -42q0 -93 12 -262h-47q-8 45 -13.5 71t-20.5 63.5t-34 57.5t-53 35t-79 15h-85v-492q0 -110 28 -140t126 -30h59q131 0 209.5 94.5t102.5 317.5h47q-6 -66 -6 -172q0 -165 14 -287q-134 6 -453 6q-324 0 -519 -3 q-88 -32 -176 -32q-324 0 -517 197.5t-193 544.5zM428 721q0 -320 108.5 -516.5t270.5 -196.5q53 0 104 17.5t90.5 61.5t39.5 106v1052q0 55 -23 95.5t-62 61.5t-79.5 30.5t-84.5 9.5q-109 0 -192 -91.5t-127.5 -255t-44.5 -374.5z" />
<glyph unicode="&#x153;" horiz-adv-x="1945" d="M89 610q0 299 178.5 481.5t472.5 182.5q85 0 180 -31q183 -4 491 -4q281 0 399 6q-14 -137 -14 -246q0 -81 6 -127h-47q-24 177 -88.5 251.5t-177.5 74.5h-51q-58 0 -86 -11.5t-42 -47.5t-14 -111v-381h60q24 0 44.5 6t35 14.5t27 23.5t20 28t15 33.5t11 34t9 36.5 t8.5 33h47q-7 -80 -7 -152q0 -15 0.5 -40.5t0.5 -36.5q0 -80 12 -230h-47q-9 43 -14.5 66t-19 55t-30 48t-45.5 28t-67 12h-60v-389q0 -108 28.5 -139t113.5 -31h63q138 0 203 81t92 286h47q-6 -57 -6 -148q0 -118 14 -266q-130 6 -440 6q-326 0 -510 -4q-85 -31 -163 -31 q-310 0 -479.5 167t-169.5 472zM417 618q0 -289 93 -449.5t236 -160.5q57 0 109 21t90 70t38 118v811q0 57 -22 99t-59.5 65t-80 34t-89.5 11q-146 0 -230.5 -165t-84.5 -454z" />
<glyph unicode="&#x154;" horiz-adv-x="1417" d="M69 0v41q52 2 79 8.5t45.5 26.5t23.5 51t5 90v1016q0 58 -5 89.5t-23.5 51.5t-45.5 26.5t-79 8.5v41q103 -6 311 -6q77 0 191.5 2t130.5 2q282 0 424.5 -92.5t142.5 -263.5q0 -53 -13 -101.5t-46 -97.5t-83.5 -87.5t-132 -68t-185.5 -41.5h1q185 -16 275.5 -79 t117.5 -191l46 -211q17 -83 38 -115t59 -32q44 0 83 47l28 -25q-55 -63 -118.5 -91t-153.5 -28q-117 0 -186 50t-91 172l-36 204q-10 58 -19 96.5t-24 79t-34 63.5t-48 37.5t-66 14.5h-133v-471q0 -58 5 -89.5t23.5 -51.5t46 -26.5t79.5 -8.5v-41q-111 6 -310 6 q-220 0 -323 -6zM513 1606q81 66 147 134.5t105.5 109.5t79.5 62q29 16 64 16q32 0 59.5 -15.5t42.5 -43.5q11 -21 11 -47q0 -68 -68 -105q-45 -25 -177.5 -58.5t-248.5 -77.5zM548 729h88q71 0 123.5 18t84.5 47.5t51.5 74t26.5 92t7 108.5q0 168 -59.5 254t-194.5 86 q-78 0 -102.5 -34.5t-24.5 -141.5v-504z" />
<glyph unicode="&#x155;" d="M70 0v41q53 2 80 8.5t45.5 26.5t23.5 51t5 90v811q0 59 -5 91t-24 51.5t-45.5 25.5t-79.5 8v41q93 -6 274 -6q79 0 194.5 2t131.5 2q276 0 411.5 -83t135.5 -230q0 -46 -13.5 -88t-47 -85t-85.5 -76.5t-135.5 -59t-190.5 -36.5q37 -4 60 -7q147 -17 232.5 -66t111.5 -155 l43 -183q14 -59 34 -82.5t52 -23.5q43 0 88 45l29 -27q-49 -57 -111 -86t-153 -29q-117 0 -180.5 45.5t-82.5 121.5l-59 241q-23 114 -69 152t-135 38h-68v-352q0 -58 5 -89.5t23.5 -51.5t46 -26.5t79.5 -8.5v-41q-119 6 -334 6q-194 0 -287 -6zM509 1439q81 65 146.5 133.5 t105.5 109.5t80 62q29 16 63 16q72 0 102 -59q12 -24 12 -48q0 -67 -68 -104q-45 -25 -178 -58.5t-249 -77.5zM537 610h88q79 0 133 22.5t81.5 65.5t38.5 92.5t11 117.5q0 148 -57 222t-189 74q-65 0 -85.5 -34.5t-20.5 -141.5v-418z" />
<glyph unicode="&#x156;" horiz-adv-x="1417" d="M69 0v41q52 2 79 8.5t45.5 26.5t23.5 51t5 90v1016q0 58 -5 89.5t-23.5 51.5t-45.5 26.5t-79 8.5v41q103 -6 311 -6q77 0 191.5 2t130.5 2q282 0 424.5 -92.5t142.5 -263.5q0 -53 -13 -101.5t-46 -97.5t-83.5 -87.5t-132 -68t-185.5 -41.5h1q185 -16 275.5 -79 t117.5 -191l46 -211q17 -83 38 -115t59 -32q44 0 83 47l28 -25q-55 -63 -118.5 -91t-153.5 -28q-117 0 -186 50t-91 172l-36 204q-10 58 -19 96.5t-24 79t-34 63.5t-48 37.5t-66 14.5h-133v-471q0 -58 5 -89.5t23.5 -51.5t46 -26.5t79.5 -8.5v-41q-111 6 -310 6 q-220 0 -323 -6zM548 729h88q71 0 123.5 18t84.5 47.5t51.5 74t26.5 92t7 108.5q0 168 -59.5 254t-194.5 86q-78 0 -102.5 -34.5t-24.5 -141.5v-504zM586 -246q0 62 41.5 97.5t113.5 35.5q75 0 121 -42.5t46 -115.5q0 -94 -57.5 -153t-175.5 -74l-8 41q150 25 164 113 q-34 -31 -100 -31q-67 0 -106 33t-39 96z" />
<glyph unicode="&#x157;" d="M70 0v41q53 2 80 8.5t45.5 26.5t23.5 51t5 90v811q0 59 -5 91t-24 51.5t-45.5 25.5t-79.5 8v41q93 -6 274 -6q79 0 194.5 2t131.5 2q276 0 411.5 -83t135.5 -230q0 -46 -13.5 -88t-47 -85t-85.5 -76.5t-135.5 -59t-190.5 -36.5q37 -4 60 -7q147 -17 232.5 -66t111.5 -155 l43 -183q14 -59 34 -82.5t52 -23.5q43 0 88 45l29 -27q-49 -57 -111 -86t-153 -29q-117 0 -180.5 45.5t-82.5 121.5l-59 241q-23 114 -69 152t-135 38h-68v-352q0 -58 5 -89.5t23.5 -51.5t46 -26.5t79.5 -8.5v-41q-119 6 -334 6q-194 0 -287 -6zM537 610h88q79 0 133 22.5 t81.5 65.5t38.5 92.5t11 117.5q0 148 -57 222t-189 74q-65 0 -85.5 -34.5t-20.5 -141.5v-418zM564 -245q0 62 41.5 97.5t113.5 35.5q74 0 120.5 -42t46.5 -116q0 -94 -57.5 -153t-175.5 -74l-8 42q151 24 164 113q-34 -32 -100 -32q-67 0 -106 33t-39 96z" />
<glyph unicode="&#x158;" horiz-adv-x="1417" d="M69 0v41q52 2 79 8.5t45.5 26.5t23.5 51t5 90v1016q0 58 -5 89.5t-23.5 51.5t-45.5 26.5t-79 8.5v41q103 -6 311 -6q77 0 191.5 2t130.5 2q282 0 424.5 -92.5t142.5 -263.5q0 -53 -13 -101.5t-46 -97.5t-83.5 -87.5t-132 -68t-185.5 -41.5h1q185 -16 275.5 -79 t117.5 -191l46 -211q17 -83 38 -115t59 -32q44 0 83 47l28 -25q-55 -63 -118.5 -91t-153.5 -28q-117 0 -186 50t-91 172l-36 204q-10 58 -19 96.5t-24 79t-34 63.5t-48 37.5t-66 14.5h-133v-471q0 -58 5 -89.5t23.5 -51.5t46 -26.5t79.5 -8.5v-41q-111 6 -310 6 q-220 0 -323 -6zM219 1891l10 30q133 -23 262.5 -59.5t206.5 -72.5q64 36 171.5 72.5t215.5 59.5l10 -30q-131 -55 -242.5 -141t-176.5 -178h-37q-63 91 -175.5 177t-244.5 142zM548 729h88q71 0 123.5 18t84.5 47.5t51.5 74t26.5 92t7 108.5q0 168 -59.5 254t-194.5 86 q-78 0 -102.5 -34.5t-24.5 -141.5v-504z" />
<glyph unicode="&#x159;" d="M70 0v41q53 2 80 8.5t45.5 26.5t23.5 51t5 90v811q0 59 -5 91t-24 51.5t-45.5 25.5t-79.5 8v41q93 -6 274 -6q79 0 194.5 2t131.5 2q276 0 411.5 -83t135.5 -230q0 -46 -13.5 -88t-47 -85t-85.5 -76.5t-135.5 -59t-190.5 -36.5q37 -4 60 -7q147 -17 232.5 -66t111.5 -155 l43 -183q14 -59 34 -82.5t52 -23.5q43 0 88 45l29 -27q-49 -57 -111 -86t-153 -29q-117 0 -180.5 45.5t-82.5 121.5l-59 241q-23 114 -69 152t-135 38h-68v-352q0 -58 5 -89.5t23.5 -51.5t46 -26.5t79.5 -8.5v-41q-119 6 -334 6q-194 0 -287 -6zM257 1703l10 30 q296 -54 461 -133q139 79 379 133l10 -30q-128 -55 -237.5 -141t-173.5 -179h-37q-63 91 -173 177.5t-239 142.5zM537 610h88q79 0 133 22.5t81.5 65.5t38.5 92.5t11 117.5q0 148 -57 222t-189 74q-65 0 -85.5 -34.5t-20.5 -141.5v-418z" />
<glyph unicode="&#x15a;" horiz-adv-x="1196" d="M112 -14q8 128 8 553h47q5 -86 20 -159t43.5 -139.5t69.5 -113.5t102.5 -74.5t137.5 -27.5q112 0 183 59t71 170q0 61 -21 112.5t-67 99t-93.5 83.5t-125.5 86q-51 32 -82.5 53t-74.5 53.5t-69 58t-56 61.5t-46 71t-26.5 78.5t-10.5 91.5q0 94 37.5 167t102.5 117.5 t146 67t173 22.5q75 0 136 -13t91.5 -27t71.5 -39q48 -29 69 -29q19 0 29 21t17 69h47q-11 -127 -11 -467h-47q-5 82 -30 158.5t-66.5 139t-107 100.5t-144.5 38q-100 0 -162.5 -56.5t-62.5 -152.5q0 -25 4.5 -47.5t9.5 -40.5t20 -39.5t24 -35t34 -35.5l37.5 -33t48 -35.5 t51 -35.5t60.5 -41t65 -43q70 -47 112 -77t92.5 -76.5t77 -88t45.5 -98.5t19 -122q0 -130 -70.5 -222t-183 -134.5t-254.5 -42.5q-114 0 -189 20.5t-140 55.5q-46 29 -70 29q-19 0 -29 -21.5t-16 -68.5h-47zM460 1606q81 66 147 134.5t105.5 109.5t79.5 62q29 16 64 16 q32 0 59.5 -15.5t42.5 -43.5q11 -21 11 -47q0 -68 -68 -105q-45 -25 -177.5 -58.5t-248.5 -77.5z" />
<glyph unicode="&#x15b;" horiz-adv-x="1183" d="M111 -14q8 113 8 499h47q15 -218 118 -342.5t291 -124.5q94 0 161 47t67 141q0 82 -63.5 141.5t-218.5 147.5q-73 42 -124 74.5t-107 77.5t-90 87t-56.5 96t-22.5 112q0 108 63.5 184t168 112t239.5 36q158 0 287 -76q49 -29 69 -29q19 0 28.5 22t16.5 69h47 q-10 -123 -10 -426h-47q-22 184 -118.5 289.5t-251.5 105.5q-102 0 -165 -45t-63 -116q0 -35 15 -67t34.5 -55.5t62.5 -55t74.5 -51.5t93.5 -57q33 -20 50 -30q59 -34 97.5 -57.5t88 -58t80 -66t59.5 -71t42.5 -85t13.5 -95.5q0 -112 -66.5 -192t-179.5 -118t-260 -38 q-69 0 -135.5 15t-99 28t-81.5 37q-50 25 -71 25q-19 0 -29 -21.5t-16 -68.5h-47zM426 1439q81 65 146.5 133.5t105.5 109.5t80 62q29 16 63 16q72 0 102 -59q12 -24 12 -48q0 -67 -68 -104q-45 -25 -178 -58.5t-249 -77.5z" />
<glyph unicode="&#x15c;" horiz-adv-x="1196" d="M112 -14q8 128 8 553h47q5 -86 20 -159t43.5 -139.5t69.5 -113.5t102.5 -74.5t137.5 -27.5q112 0 183 59t71 170q0 61 -21 112.5t-67 99t-93.5 83.5t-125.5 86q-51 32 -82.5 53t-74.5 53.5t-69 58t-56 61.5t-46 71t-26.5 78.5t-10.5 91.5q0 94 37.5 167t102.5 117.5 t146 67t173 22.5q75 0 136 -13t91.5 -27t71.5 -39q48 -29 69 -29q19 0 29 21t17 69h47q-11 -127 -11 -467h-47q-5 82 -30 158.5t-66.5 139t-107 100.5t-144.5 38q-100 0 -162.5 -56.5t-62.5 -152.5q0 -25 4.5 -47.5t9.5 -40.5t20 -39.5t24 -35t34 -35.5l37.5 -33t48 -35.5 t51 -35.5t60.5 -41t65 -43q70 -47 112 -77t92.5 -76.5t77 -88t45.5 -98.5t19 -122q0 -130 -70.5 -222t-183 -134.5t-254.5 -42.5q-114 0 -189 20.5t-140 55.5q-46 29 -70 29q-19 0 -29 -21.5t-16 -68.5h-47zM172 1606q131 55 242.5 141t177.5 178h37q63 -91 175 -177 t244 -142l-10 -30q-132 23 -262 59.5t-207 72.5q-64 -36 -171.5 -72.5t-215.5 -59.5z" />
<glyph unicode="&#x15d;" horiz-adv-x="1183" d="M111 -14q8 113 8 499h47q15 -218 118 -342.5t291 -124.5q94 0 161 47t67 141q0 82 -63.5 141.5t-218.5 147.5q-73 42 -124 74.5t-107 77.5t-90 87t-56.5 96t-22.5 112q0 108 63.5 184t168 112t239.5 36q158 0 287 -76q49 -29 69 -29q19 0 28.5 22t16.5 69h47 q-10 -123 -10 -426h-47q-22 184 -118.5 289.5t-251.5 105.5q-102 0 -165 -45t-63 -116q0 -35 15 -67t34.5 -55.5t62.5 -55t74.5 -51.5t93.5 -57q33 -20 50 -30q59 -34 97.5 -57.5t88 -58t80 -66t59.5 -71t42.5 -85t13.5 -95.5q0 -112 -66.5 -192t-179.5 -118t-260 -38 q-69 0 -135.5 15t-99 28t-81.5 37q-50 25 -71 25q-19 0 -29 -21.5t-16 -68.5h-47zM178 1430q128 54 237.5 140.5t174.5 178.5h37q62 -91 172 -177t239 -142l-10 -30q-132 23 -259 59.5t-202 72.5q-62 -36 -166.5 -72.5t-212.5 -59.5z" />
<glyph unicode="&#x15e;" horiz-adv-x="1196" d="M112 -14q8 128 8 553h47q5 -86 20 -159t43.5 -139.5t69.5 -113.5t102.5 -74.5t137.5 -27.5q112 0 183 59t71 170q0 61 -21 112.5t-67 99t-93.5 83.5t-125.5 86q-51 32 -82.5 53t-74.5 53.5t-69 58t-56 61.5t-46 71t-26.5 78.5t-10.5 91.5q0 94 37.5 167t102.5 117.5 t146 67t173 22.5q75 0 136 -13t91.5 -27t71.5 -39q48 -29 69 -29q19 0 29 21t17 69h47q-11 -127 -11 -467h-47q-5 82 -30 158.5t-66.5 139t-107 100.5t-144.5 38q-100 0 -162.5 -56.5t-62.5 -152.5q0 -25 4.5 -47.5t9.5 -40.5t20 -39.5t24 -35t34 -35.5l37.5 -33t48 -35.5 t51 -35.5t60.5 -41t65 -43q70 -47 112 -77t92.5 -76.5t77 -88t45.5 -98.5t19 -122q0 -95 -37.5 -170.5t-104 -123.5t-152 -75t-185.5 -30l-33 -104q71 24 158 24q73 0 113 -29.5t40 -79.5q0 -83 -91.5 -125t-232.5 -42q-117 0 -190 25l10 37q60 -9 103 -9q75 0 130.5 20.5 t55.5 63.5q0 53 -93 53q-47 0 -81 -14l56 180q-170 4 -303 76q-46 29 -70 29q-19 0 -29 -21.5t-16 -68.5h-47z" />
<glyph unicode="&#x15f;" horiz-adv-x="1183" d="M111 -14q8 113 8 499h47q15 -218 118 -342.5t291 -124.5q94 0 161 47t67 141q0 82 -63.5 141.5t-218.5 147.5q-73 42 -124 74.5t-107 77.5t-90 87t-56.5 96t-22.5 112q0 108 63.5 184t168 112t239.5 36q158 0 287 -76q49 -29 69 -29q19 0 28.5 22t16.5 69h47 q-10 -123 -10 -426h-47q-22 184 -118.5 289.5t-251.5 105.5q-102 0 -165 -45t-63 -116q0 -35 15 -67t34.5 -55.5t62.5 -55t74.5 -51.5t93.5 -57q33 -20 50 -30q59 -34 97.5 -57.5t88 -58t80 -66t59.5 -71t42.5 -85t13.5 -95.5q0 -166 -138 -256t-361 -92l-32 -104 q71 24 158 24q73 0 113 -29.5t40 -79.5q0 -83 -91.5 -125t-232.5 -42q-117 0 -190 25l10 37q60 -9 103 -9q75 0 130.5 20.5t55.5 63.5q0 53 -93 53q-47 0 -81 -14l55 182q-57 4 -113.5 19t-83 26.5t-71.5 32.5q-50 25 -71 25q-19 0 -29 -21.5t-16 -68.5h-47z" />
<glyph unicode="&#x160;" horiz-adv-x="1196" d="M112 -14q8 128 8 553h47q5 -86 20 -159t43.5 -139.5t69.5 -113.5t102.5 -74.5t137.5 -27.5q112 0 183 59t71 170q0 61 -21 112.5t-67 99t-93.5 83.5t-125.5 86q-51 32 -82.5 53t-74.5 53.5t-69 58t-56 61.5t-46 71t-26.5 78.5t-10.5 91.5q0 94 37.5 167t102.5 117.5 t146 67t173 22.5q75 0 136 -13t91.5 -27t71.5 -39q48 -29 69 -29q19 0 29 21t17 69h47q-11 -127 -11 -467h-47q-5 82 -30 158.5t-66.5 139t-107 100.5t-144.5 38q-100 0 -162.5 -56.5t-62.5 -152.5q0 -25 4.5 -47.5t9.5 -40.5t20 -39.5t24 -35t34 -35.5l37.5 -33t48 -35.5 t51 -35.5t60.5 -41t65 -43q70 -47 112 -77t92.5 -76.5t77 -88t45.5 -98.5t19 -122q0 -130 -70.5 -222t-183 -134.5t-254.5 -42.5q-114 0 -189 20.5t-140 55.5q-46 29 -70 29q-19 0 -29 -21.5t-16 -68.5h-47zM166 1891l10 30q133 -23 262.5 -59.5t206.5 -72.5 q64 36 171.5 72.5t215.5 59.5l10 -30q-131 -55 -242.5 -141t-176.5 -178h-37q-63 91 -175.5 177t-244.5 142z" />
<glyph unicode="&#x161;" horiz-adv-x="1183" d="M111 -14q8 113 8 499h47q15 -218 118 -342.5t291 -124.5q94 0 161 47t67 141q0 82 -63.5 141.5t-218.5 147.5q-73 42 -124 74.5t-107 77.5t-90 87t-56.5 96t-22.5 112q0 108 63.5 184t168 112t239.5 36q158 0 287 -76q49 -29 69 -29q19 0 28.5 22t16.5 69h47 q-10 -123 -10 -426h-47q-22 184 -118.5 289.5t-251.5 105.5q-102 0 -165 -45t-63 -116q0 -35 15 -67t34.5 -55.5t62.5 -55t74.5 -51.5t93.5 -57q33 -20 50 -30q59 -34 97.5 -57.5t88 -58t80 -66t59.5 -71t42.5 -85t13.5 -95.5q0 -112 -66.5 -192t-179.5 -118t-260 -38 q-69 0 -135.5 15t-99 28t-81.5 37q-50 25 -71 25q-19 0 -29 -21.5t-16 -68.5h-47zM174 1703l10 30q296 -54 461 -133q139 79 379 133l10 -30q-128 -55 -237.5 -141t-173.5 -179h-37q-63 91 -173 177.5t-239 142.5z" />
<glyph unicode="&#x162;" horiz-adv-x="1368" d="M52 1450q185 -6 633 -6q446 0 631 6q-15 -190 -15 -348q0 -99 6 -156h-47q-51 253 -136 355t-232 102h-45v-1169q0 -65 8 -100.5t34 -57.5t65 -28t112 -7v-41q-162 6 -361 6l-44 -139q71 24 158 24q73 0 113 -29.5t40 -79.5q0 -83 -91.5 -125t-232.5 -42q-117 0 -190 25 l10 37q60 -9 103 -9q75 0 130.5 20.5t55.5 63.5q0 53 -93 53q-47 0 -81 -14l67 215q-196 0 -348 -6v41q73 1 112 7t65 28t34 57.5t8 100.5v1169h-45q-148 0 -233 -101.5t-136 -355.5h-47q6 57 6 156q0 153 -14 348z" />
<glyph unicode="&#x163;" horiz-adv-x="1329" d="M57 1245q178 -6 602 -6q432 0 613 6q-15 -167 -15 -278q0 -106 7 -181h-47q-42 230 -114.5 321t-217.5 91h-64v-960q0 -52 5.5 -84t17.5 -55t37.5 -34.5t58.5 -16.5t88 -7v-41q-99 6 -331 6l-43 -139q71 24 158 24q73 0 113 -29.5t40 -79.5q0 -83 -91.5 -125t-232.5 -42 q-117 0 -190 25l10 37q60 -9 103 -9q75 0 130.5 20.5t55.5 63.5q0 53 -93 53q-47 0 -81 -14l65 215q-245 0 -340 -6v41q55 2 88 7t58.5 16.5t37.5 34.5t17.5 55t5.5 84v960h-64q-145 0 -217 -91t-114 -321h-47q6 64 6 181q0 127 -15 278z" />
<glyph unicode="&#x164;" horiz-adv-x="1368" d="M52 1450q185 -6 633 -6q446 0 631 6q-15 -190 -15 -348q0 -99 6 -156h-47q-51 253 -136 355t-232 102h-45v-1169q0 -65 8 -100.5t34 -57.5t65 -28t112 -7v-41q-174 6 -390 6q-212 0 -374 -6v41q73 1 112 7t65 28t34 57.5t8 100.5v1169h-45q-148 0 -233 -101.5 t-136 -355.5h-47q6 57 6 156q0 153 -14 348zM241 1891l10 30q133 -23 262.5 -59.5t206.5 -72.5q64 36 171.5 72.5t215.5 59.5l10 -30q-131 -55 -242.5 -141t-176.5 -178h-37q-63 91 -175.5 177t-244.5 142z" />
<glyph unicode="&#x165;" horiz-adv-x="1329" d="M57 1245q178 -6 602 -6q432 0 613 6q-15 -167 -15 -278q0 -106 7 -181h-47q-42 230 -114.5 321t-217.5 91h-64v-960q0 -52 5.5 -84t17.5 -55t37.5 -34.5t58.5 -16.5t88 -7v-41q-111 6 -369 6q-259 0 -358 -6v41q55 2 88 7t58.5 16.5t37.5 34.5t17.5 55t5.5 84v960h-64 q-145 0 -217 -91t-114 -321h-47q6 64 6 181q0 127 -15 278zM234 1703l10 30q296 -54 461 -133q139 79 379 133l10 -30q-128 -55 -237.5 -141t-173.5 -179h-37q-63 91 -173 177.5t-239 142.5z" />
<glyph unicode="&#x166;" horiz-adv-x="1373" d="M54 1450q185 -6 633 -6q446 0 631 6q-15 -190 -15 -348q0 -99 6 -156h-47q-51 253 -136 355t-232 102h-45v-653h270v-41h-270v-475q0 -65 8 -100.5t34 -57.5t65 -28t112 -7v-41q-174 6 -390 6q-212 0 -374 -6v41q73 1 112 7t65 28t34 57.5t8 100.5v475h-288v41h288v653 h-45q-148 0 -233 -101.5t-136 -355.5h-47q6 57 6 156q0 153 -14 348z" />
<glyph unicode="&#x167;" horiz-adv-x="1331" d="M58 1245q178 -6 602 -6q432 0 613 6q-15 -167 -15 -278q0 -106 7 -181h-47q-42 230 -114.5 321t-217.5 91h-64v-551h212v-41h-212v-368q0 -52 5.5 -84t17.5 -55t37.5 -34.5t58.5 -16.5t88 -7v-41q-111 6 -369 6q-259 0 -358 -6v41q55 2 88 7t58.5 16.5t37.5 34.5t17.5 55 t5.5 84v368h-239v41h239v551h-64q-145 0 -217 -91t-114 -321h-47q6 64 6 181q0 127 -15 278z" />
<glyph unicode="&#x168;" horiz-adv-x="1410" d="M38 1409v41q105 -6 321 -6q210 0 324 6v-41q-74 -3 -106.5 -16t-46 -48t-13.5 -112v-773q0 -215 62.5 -316t220.5 -101q85 0 149.5 25.5t106.5 71t68.5 113t37.5 145.5t11 175v541q0 90 -6.5 139.5t-29 85t-59.5 49.5t-104 21v41q80 -6 221 -6q115 0 178 6v-41 q-96 -13 -124.5 -66t-28.5 -204v-543q0 -294 -84 -434q-114 -191 -414 -191q-239 0 -369 104q-95 76 -128 191t-33 324v643q0 59 -5 90t-23.5 51t-45.5 26.5t-80 8.5zM278 1617q27 135 101.5 205t172.5 70q53 0 102 -15t86.5 -36t74 -42.5t80 -36.5t87.5 -15q109 0 170 111 l30 -11q-27 -135 -101.5 -205t-171.5 -70q-65 0 -126 23t-101.5 50t-95.5 50t-109 23q-107 0 -170 -112z" />
<glyph unicode="&#x169;" d="M33 1204v41q100 -6 311 -6q200 0 309 6v-41q-69 -3 -99 -16t-42 -47.5t-12 -112.5v-514q0 -60 2.5 -105.5t9.5 -95.5t20 -86t34.5 -70.5t52 -55.5t74 -33.5t98.5 -12.5q77 0 135.5 24t96 65t61 102.5t33 130.5t9.5 155v377q0 90 -6.5 139.5t-28.5 85t-59 49.5t-104 21v41 q80 -6 221 -6q123 0 190 6v-41q-104 -13 -134.5 -65.5t-30.5 -204.5v-379q0 -275 -84 -414q-50 -78 -147.5 -124t-219.5 -46q-230 0 -361 90q-104 80 -140 182.5t-36 305.5v479q0 59 -5 90.5t-23.5 51t-45.5 26t-79 8.5zM242 1466q33 136 105.5 205.5t168.5 69.5 q64 0 125.5 -22.5t101.5 -49.5t95 -49.5t108 -22.5q113 0 177 112l31 -12q-33 -136 -105.5 -205.5t-167.5 -69.5q-53 0 -102.5 15t-87.5 36t-74.5 42.5t-79.5 36.5t-87 15q-112 0 -177 -114z" />
<glyph unicode="&#x16a;" horiz-adv-x="1410" d="M38 1409v41q105 -6 321 -6q210 0 324 6v-41q-74 -3 -106.5 -16t-46 -48t-13.5 -112v-773q0 -215 62.5 -316t220.5 -101q85 0 149.5 25.5t106.5 71t68.5 113t37.5 145.5t11 175v541q0 90 -6.5 139.5t-29 85t-59.5 49.5t-104 21v41q80 -6 221 -6q115 0 178 6v-41 q-96 -13 -124.5 -66t-28.5 -204v-543q0 -294 -84 -434q-114 -191 -414 -191q-239 0 -369 104q-95 76 -128 191t-33 324v643q0 59 -5 90t-23.5 51t-45.5 26.5t-80 8.5zM322 1677v52h819v-52h-819z" />
<glyph unicode="&#x16b;" d="M33 1204v41q100 -6 311 -6q200 0 309 6v-41q-69 -3 -99 -16t-42 -47.5t-12 -112.5v-514q0 -60 2.5 -105.5t9.5 -95.5t20 -86t34.5 -70.5t52 -55.5t74 -33.5t98.5 -12.5q77 0 135.5 24t96 65t61 102.5t33 130.5t9.5 155v377q0 90 -6.5 139.5t-28.5 85t-59 49.5t-104 21v41 q80 -6 221 -6q123 0 190 6v-41q-104 -13 -134.5 -65.5t-30.5 -204.5v-379q0 -275 -84 -414q-50 -78 -147.5 -124t-219.5 -46q-230 0 -361 90q-104 80 -140 182.5t-36 305.5v479q0 59 -5 90.5t-23.5 51t-45.5 26t-79 8.5zM287 1530v51h819v-51h-819z" />
<glyph unicode="&#x16c;" horiz-adv-x="1410" d="M38 1409v41q105 -6 321 -6q210 0 324 6v-41q-74 -3 -106.5 -16t-46 -48t-13.5 -112v-773q0 -215 62.5 -316t220.5 -101q85 0 149.5 25.5t106.5 71t68.5 113t37.5 145.5t11 175v541q0 90 -6.5 139.5t-29 85t-59.5 49.5t-104 21v41q80 -6 221 -6q115 0 178 6v-41 q-96 -13 -124.5 -66t-28.5 -204v-543q0 -294 -84 -434q-114 -191 -414 -191q-239 0 -369 104q-95 76 -128 191t-33 324v643q0 59 -5 90t-23.5 51t-45.5 26.5t-80 8.5zM263 1853l25 21q163 -123 431 -123q266 0 433 124l24 -22q-23 -50 -61.5 -96t-93.5 -87.5t-133.5 -66.5 t-168.5 -25q-89 0 -167.5 25t-133.5 66.5t-93.5 87.5t-61.5 96z" />
<glyph unicode="&#x16d;" d="M33 1204v41q100 -6 311 -6q200 0 309 6v-41q-69 -3 -99 -16t-42 -47.5t-12 -112.5v-514q0 -60 2.5 -105.5t9.5 -95.5t20 -86t34.5 -70.5t52 -55.5t74 -33.5t98.5 -12.5q77 0 135.5 24t96 65t61 102.5t33 130.5t9.5 155v377q0 90 -6.5 139.5t-28.5 85t-59 49.5t-104 21v41 q80 -6 221 -6q123 0 190 6v-41q-104 -13 -134.5 -65.5t-30.5 -204.5v-379q0 -275 -84 -414q-50 -78 -147.5 -124t-219.5 -46q-230 0 -361 90q-104 80 -140 182.5t-36 305.5v479q0 59 -5 90.5t-23.5 51t-45.5 26t-79 8.5zM250 1674l26 22q160 -124 423 -124q260 0 424 125 l24 -23q-23 -50 -60 -96t-91.5 -87t-131.5 -66t-165 -25t-165 25t-131.5 66.5t-92 87t-60.5 95.5z" />
<glyph unicode="&#x16e;" horiz-adv-x="1410" d="M38 1409v41q105 -6 321 -6q210 0 324 6v-41q-74 -3 -106.5 -16t-46 -48t-13.5 -112v-773q0 -215 62.5 -316t220.5 -101q85 0 149.5 25.5t106.5 71t68.5 113t37.5 145.5t11 175v541q0 90 -6.5 139.5t-29 85t-59.5 49.5t-104 21v41q80 -6 221 -6q115 0 178 6v-41 q-96 -13 -124.5 -66t-28.5 -204v-543q0 -294 -84 -434q-114 -191 -414 -191q-239 0 -369 104q-95 76 -128 191t-33 324v643q0 59 -5 90t-23.5 51t-45.5 26.5t-80 8.5zM511 1831q0 88 65 143t156 55q93 0 158.5 -54.5t65.5 -143.5q0 -91 -65.5 -146t-158.5 -55 q-91 0 -156 55.5t-65 145.5zM568 1829q0 -74 49.5 -115t114.5 -41q66 0 116 41t50 115q0 72 -50.5 114.5t-115.5 42.5q-64 0 -114 -43t-50 -114z" />
<glyph unicode="&#x16f;" d="M33 1204v41q100 -6 311 -6q200 0 309 6v-41q-69 -3 -99 -16t-42 -47.5t-12 -112.5v-514q0 -60 2.5 -105.5t9.5 -95.5t20 -86t34.5 -70.5t52 -55.5t74 -33.5t98.5 -12.5q77 0 135.5 24t96 65t61 102.5t33 130.5t9.5 155v377q0 90 -6.5 139.5t-28.5 85t-59 49.5t-104 21v41 q80 -6 221 -6q123 0 190 6v-41q-104 -13 -134.5 -65.5t-30.5 -204.5v-379q0 -275 -84 -414q-50 -78 -147.5 -124t-219.5 -46q-230 0 -361 90q-104 80 -140 182.5t-36 305.5v479q0 59 -5 90.5t-23.5 51t-45.5 26t-79 8.5zM480 1585q0 89 65 144t156 55q93 0 158.5 -55 t65.5 -144q0 -90 -65.5 -145.5t-158.5 -55.5q-91 0 -156 55.5t-65 145.5zM537 1583q0 -74 49.5 -115t114.5 -41q66 0 116 41t50 115q0 72 -50.5 115t-115.5 43q-64 0 -114 -43t-50 -115z" />
<glyph unicode="&#x170;" horiz-adv-x="1410" d="M38 1409v41q105 -6 321 -6q210 0 324 6v-41q-74 -3 -106.5 -16t-46 -48t-13.5 -112v-773q0 -215 62.5 -316t220.5 -101q85 0 149.5 25.5t106.5 71t68.5 113t37.5 145.5t11 175v541q0 90 -6.5 139.5t-29 85t-59.5 49.5t-104 21v41q80 -6 221 -6q115 0 178 6v-41 q-96 -13 -124.5 -66t-28.5 -204v-543q0 -294 -84 -434q-114 -191 -414 -191q-239 0 -369 104q-95 76 -128 191t-33 324v643q0 59 -5 90t-23.5 51t-45.5 26.5t-80 8.5zM403 1604q56 65 128 172t111 138q35 26 75 26q59 0 93 -48q21 -30 21 -62q0 -56 -56 -97 q-41 -29 -162 -74t-191 -78zM835 1604q50 57 96.5 125t79 114t64.5 71q33 26 75 26q59 0 93 -48q21 -29 21 -61q0 -56 -57 -98q-41 -29 -161.5 -74t-190.5 -78z" />
<glyph unicode="&#x171;" d="M33 1204v41q100 -6 311 -6q200 0 309 6v-41q-69 -3 -99 -16t-42 -47.5t-12 -112.5v-514q0 -60 2.5 -105.5t9.5 -95.5t20 -86t34.5 -70.5t52 -55.5t74 -33.5t98.5 -12.5q77 0 135.5 24t96 65t61 102.5t33 130.5t9.5 155v377q0 90 -6.5 139.5t-28.5 85t-59 49.5t-104 21v41 q80 -6 221 -6q123 0 190 6v-41q-104 -13 -134.5 -65.5t-30.5 -204.5v-379q0 -275 -84 -414q-50 -78 -147.5 -124t-219.5 -46q-230 0 -361 90q-104 80 -140 182.5t-36 305.5v479q0 59 -5 90.5t-23.5 51t-45.5 26t-79 8.5zM366 1452q62 69 114.5 142t85.5 118t64 70 q35 26 75 26q59 0 93 -48q21 -30 21 -62q0 -56 -56 -97q-38 -28 -160 -76t-217 -96zM798 1452q62 69 114.5 142.5t85.5 118t65 69.5q33 26 75 26q59 0 93 -48q21 -28 21 -61q0 -56 -57 -98q-38 -28 -160 -76t-217 -96z" />
<glyph unicode="&#x172;" horiz-adv-x="1410" d="M38 1409v41q105 -6 321 -6q210 0 324 6v-41q-74 -3 -106.5 -16t-46 -48t-13.5 -112v-773q0 -215 62.5 -316t220.5 -101q85 0 149.5 25.5t106.5 71t68.5 113t37.5 145.5t11 175v541q0 90 -6.5 139.5t-29 85t-59.5 49.5t-104 21v41q80 -6 221 -6q115 0 178 6v-41 q-96 -13 -124.5 -66t-28.5 -204v-543q0 -294 -84 -434q-75 -124 -232 -168q-96 -36 -141.5 -85.5t-45.5 -97.5q0 -83 84 -83q35 0 72 16t59 39l29 -29q-55 -73 -122 -106t-159 -33q-89 0 -137.5 37t-48.5 103q0 67 61.5 122t176.5 94h-10q-239 0 -369 104q-95 76 -128 191 t-33 324v643q0 59 -5 90t-23.5 51t-45.5 26.5t-80 8.5z" />
<glyph unicode="&#x173;" d="M33 1204v41q100 -6 311 -6q200 0 309 6v-41q-69 -3 -99 -16t-42 -47.5t-12 -112.5v-514q0 -60 2.5 -105.5t9.5 -95.5t20 -86t34.5 -70.5t52 -55.5t74 -33.5t98.5 -12.5q77 0 135.5 24t96 65t61 102.5t33 130.5t9.5 155v377q0 90 -6.5 139.5t-28.5 85t-59 49.5t-104 21v41 q80 -6 221 -6q123 0 190 6v-41q-104 -13 -134.5 -65.5t-30.5 -204.5v-379q0 -275 -84 -414q-74 -115 -235 -155q-87 -35 -127.5 -82t-40.5 -93q0 -83 85 -83q34 0 71.5 16t59.5 39l28 -29q-55 -73 -122 -106t-159 -33q-89 0 -137.5 37t-48.5 103q0 67 61.5 122t177.5 94 q-216 3 -341 90q-104 80 -140 182.5t-36 305.5v479q0 59 -5 90.5t-23.5 51t-45.5 26t-79 8.5z" />
<glyph unicode="&#x174;" horiz-adv-x="1982" d="M-24 1409v41q121 -6 305 -6q171 0 252 6v-41q-72 -10 -72 -80q0 -38 19 -92l297 -866l209 609l-106 319q-34 105 -111 110v41q112 -6 292 -6q197 0 295 6v-41q-76 -3 -108 -17.5t-32 -58.5q0 -35 21 -96l281 -857l195 620q46 148 46 238q0 89 -44 129t-132 42v41 q138 -6 255 -6q94 0 156 6v-41q-119 -47 -179 -243l-361 -1170q-44 2 -72 2q-26 0 -70 -2l-302 911l-304 -911q-44 2 -72 2q-26 0 -70 -2l-459 1282q-25 68 -59.5 98.5t-69.5 32.5zM587 1606q131 55 242.5 141t177.5 178h37q63 -91 175 -177t244 -142l-10 -30 q-132 23 -262 59.5t-207 72.5q-64 -36 -171.5 -72.5t-215.5 -59.5z" />
<glyph unicode="&#x175;" horiz-adv-x="1880" d="M-25 1204v41q96 -6 269 -6q202 0 299 6v-41q-103 -6 -103 -84q0 -34 21 -88l278 -698l194 475l-108 264q-26 66 -61 97.5t-68 33.5v41q96 -6 268 -6q210 0 311 6v-41q-67 -3 -97 -21t-30 -59q0 -35 21 -92l261 -698l162 454q58 159 58 256q0 154 -160 160v41 q117 -6 236 -6q109 0 166 6v-41q-114 -42 -190 -253l-343 -955q-23 3 -47 3t-48 -3l-307 753l-302 -753q-24 3 -48 3q-23 0 -47 -3l-456 1077q-56 127 -129 131zM549 1430q128 54 237.5 140.5t174.5 178.5h37q62 -91 172 -177t239 -142l-10 -30q-132 23 -259 59.5t-202 72.5 q-62 -36 -166.5 -72.5t-212.5 -59.5z" />
<glyph unicode="&#x176;" horiz-adv-x="1275" d="M-14 1408v43q120 -10 242 -10q190 0 385 10v-43q-73 0 -114 -12.5t-41 -48.5q0 -19 13 -45l312 -598l159 318q81 161 81 252q0 131 -171 136v41q140 -6 255 -6q95 0 156 6v-41q-95 -37 -196 -236l-242 -480v-477q0 -58 5 -89.5t23.5 -51.5t45.5 -26.5t79 -8.5v-41 q-110 6 -315 6q-217 0 -318 -6v41q53 2 80 8.5t45.5 26.5t23.5 51t5 90v348l-394 729q-63 114 -119 114zM239 1606q131 55 242.5 141t177.5 178h37q63 -91 175 -177t244 -142l-10 -30q-132 23 -262 59.5t-207 72.5q-64 -36 -171.5 -72.5t-215.5 -59.5z" />
<glyph unicode="&#x177;" horiz-adv-x="1228" d="M-3 1202v43q128 -10 242 -10q163 0 360 10v-43q-39 0 -64 -3t-45 -16.5t-20 -36.5q0 -25 22 -63l276 -484l132 239q80 150 80 236q0 122 -155 129v42q118 -7 231 -7q105 0 157 7v-42q-43 -17 -84.5 -67.5t-97.5 -151.5l-235 -432v-323q0 -41 3 -68.5t11.5 -49.5t21 -34 t35.5 -20t50 -11t70 -5v-41q-107 6 -353 6q-248 0 -342 -6v41q43 2 70 5t50 11t35.5 20t21 34t11.5 49.5t3 68.5v221l-367 637q-35 61 -61.5 85.5t-57.5 29.5zM201 1430q128 54 237.5 140.5t174.5 178.5h37q62 -91 172 -177t239 -142l-10 -30q-132 23 -259 59.5t-202 72.5 q-62 -36 -166.5 -72.5t-212.5 -59.5z" />
<glyph unicode="&#x178;" horiz-adv-x="1275" d="M-14 1408v43q120 -10 242 -10q190 0 385 10v-43q-73 0 -114 -12.5t-41 -48.5q0 -19 13 -45l312 -598l159 318q81 161 81 252q0 131 -171 136v41q140 -6 255 -6q95 0 156 6v-41q-95 -37 -196 -236l-242 -480v-477q0 -58 5 -89.5t23.5 -51.5t45.5 -26.5t79 -8.5v-41 q-110 6 -315 6q-217 0 -318 -6v41q53 2 80 8.5t45.5 26.5t23.5 51t5 90v348l-394 729q-63 114 -119 114zM277 1723q0 62 46 108.5t109 46.5q61 0 107.5 -46.5t46.5 -108.5q0 -63 -46 -108.5t-108 -45.5q-64 0 -109.5 45t-45.5 109zM768 1723q0 62 45.5 108.5t108.5 46.5 q62 0 108.5 -47t46.5 -108q0 -63 -46.5 -108.5t-108.5 -45.5q-64 0 -109 45t-45 109z" />
<glyph unicode="&#x179;" horiz-adv-x="1232" d="M80 0v41l714 1362h-234q-80 0 -145 -21t-120.5 -67.5t-92.5 -130t-51 -201.5h-47q6 57 6 156q0 142 -15 311q137 -6 461 -6q405 0 584 6v-41l-712 -1362h225q58 0 113 13.5t109 46.5t96 82.5t73 127t41 175.5h47q-6 -70 -6 -181q0 -179 14 -311q-152 6 -510 6 q-380 0 -550 -6zM468 1606q81 66 147 134.5t105.5 109.5t79.5 62q29 16 64 16q32 0 59.5 -15.5t42.5 -43.5q11 -21 11 -47q0 -68 -68 -105q-45 -25 -177.5 -58.5t-248.5 -77.5z" />
<glyph unicode="&#x17a;" horiz-adv-x="1185" d="M93 0v41l643 1157h-215q-156 0 -244 -89.5t-125 -301.5h-47q6 65 6 180q0 114 -14 258q153 -6 514 -6q322 0 469 6v-41l-643 -1157h217q162 0 252.5 95t128.5 321h47q-6 -78 -6 -193q0 -119 14 -270q-141 6 -483 6q-353 0 -514 -6zM419 1439q81 65 146.5 133.5 t105.5 109.5t80 62q29 16 63 16q72 0 102 -59q12 -24 12 -48q0 -67 -68 -104q-45 -25 -178 -58.5t-249 -77.5z" />
<glyph unicode="&#x17b;" horiz-adv-x="1232" d="M80 0v41l714 1362h-234q-80 0 -145 -21t-120.5 -67.5t-92.5 -130t-51 -201.5h-47q6 57 6 156q0 142 -15 311q137 -6 461 -6q405 0 584 6v-41l-712 -1362h225q58 0 113 13.5t109 46.5t96 82.5t73 127t41 175.5h47q-6 -70 -6 -181q0 -179 14 -311q-152 6 -510 6 q-380 0 -550 -6zM431 1827q0 73 50.5 115.5t136.5 42.5q85 0 135.5 -42.5t50.5 -115.5q0 -74 -50.5 -116.5t-135.5 -42.5q-87 0 -137 42.5t-50 116.5z" />
<glyph unicode="&#x17c;" horiz-adv-x="1185" d="M93 0v41l643 1157h-215q-156 0 -244 -89.5t-125 -301.5h-47q6 65 6 180q0 114 -14 258q153 -6 514 -6q322 0 469 6v-41l-643 -1157h217q162 0 252.5 95t128.5 321h47q-6 -78 -6 -193q0 -119 14 -270q-141 6 -483 6q-353 0 -514 -6zM422 1586q0 74 46.5 116t127.5 42 q80 0 127 -42t47 -116t-47 -116t-127 -42q-81 0 -127.5 42t-46.5 116z" />
<glyph unicode="&#x17d;" horiz-adv-x="1232" d="M80 0v41l714 1362h-234q-80 0 -145 -21t-120.5 -67.5t-92.5 -130t-51 -201.5h-47q6 57 6 156q0 142 -15 311q137 -6 461 -6q405 0 584 6v-41l-712 -1362h225q58 0 113 13.5t109 46.5t96 82.5t73 127t41 175.5h47q-6 -70 -6 -181q0 -179 14 -311q-152 6 -510 6 q-380 0 -550 -6zM174 1891l10 30q133 -23 262.5 -59.5t206.5 -72.5q64 36 171.5 72.5t215.5 59.5l10 -30q-131 -55 -242.5 -141t-176.5 -178h-37q-63 91 -175.5 177t-244.5 142z" />
<glyph unicode="&#x17e;" horiz-adv-x="1185" d="M93 0v41l643 1157h-215q-156 0 -244 -89.5t-125 -301.5h-47q6 65 6 180q0 114 -14 258q153 -6 514 -6q322 0 469 6v-41l-643 -1157h217q162 0 252.5 95t128.5 321h47q-6 -78 -6 -193q0 -119 14 -270q-141 6 -483 6q-353 0 -514 -6zM167 1703l10 30q296 -54 461 -133 q139 79 379 133l10 -30q-128 -55 -237.5 -141t-173.5 -179h-37q-63 91 -173 177.5t-239 142.5z" />
<glyph unicode="&#x192;" horiz-adv-x="1128" d="M-63 -226q0 60 43 96.5t115 36.5q68 0 108 -34t40 -94q0 -36 -20.5 -70t-63.5 -55q53 4 77 18q30 5 56 22t39 44q18 34 22.5 96t4.5 211v972h-278v41h278q0 178 29 275t100 166q47 47 125 75t167 28q57 0 111.5 -12t102.5 -36t77.5 -67t29.5 -98q0 -64 -41.5 -106.5 t-108.5 -42.5q-70 0 -112.5 38t-42.5 101q0 54 30 95t85 60q-9 13 -33.5 22t-57.5 9q-40 0 -75.5 -18.5t-54.5 -51.5q-25 -43 -31 -127.5t-6 -309.5h372v-41h-372v-824q0 -174 -28.5 -283.5t-101.5 -183.5q-108 -111 -332 -111q-44 0 -85.5 8t-80.5 25t-63 49.5t-24 76.5z " />
<glyph unicode="&#x1f4;" horiz-adv-x="1505" d="M88 708q0 229 94.5 405t263 271t383.5 95q127 0 215 -34.5t171 -98.5q23 -20 41 -20q39 0 51 124h47q-8 -140 -8 -496h-47q-16 139 -48 225t-106 146q-50 47 -122 74t-146 27q-108 0 -191.5 -58.5t-133 -159t-74.5 -224t-25 -262.5q0 -710 393 -710q86 0 145 40 q28 20 39 44.5t11 62.5v201q0 138 -38 177.5t-169 44.5v41q118 -7 350 -7q188 0 275 7v-41q-60 -5 -76.5 -35t-16.5 -141v-406h-41q-2 43 -17.5 80t-42.5 37q-33 0 -110 -42q-179 -104 -336 -104q-355 0 -543 193t-188 544zM641 1606q81 66 147 134.5t105.5 109.5t79.5 62 q29 16 64 16q32 0 59.5 -15.5t42.5 -43.5q11 -21 11 -47q0 -68 -68 -105q-45 -25 -177.5 -58.5t-248.5 -77.5z" />
<glyph unicode="&#x1f5;" horiz-adv-x="1436" d="M87 598q0 204 90.5 358.5t251 236t367.5 81.5q65 0 118 -10t98.5 -32t72.5 -40t71 -51q25 -20 42 -20q39 0 50 124h48q-9 -113 -9 -409h-47q-32 160 -102 241q-62 68 -128 105.5t-157 37.5q-202 0 -320 -162.5t-118 -436.5q0 -314 102 -461.5t305 -147.5q70 0 118 29 q42 25 42 88v190q0 65 -7 100.5t-30 57.5t-57.5 29.5t-99.5 9.5v41q132 -6 338 -6q174 0 262 6v-41q-42 -3 -60 -16t-25 -47t-7 -113v-340h-41q-8 76 -43 76q-28 0 -102 -36q-149 -69 -315 -69q-335 0 -521.5 165.5t-186.5 461.5zM602 1439q81 65 146.5 133.5t105.5 109.5 t80 62q29 16 63 16q72 0 102 -59q12 -24 12 -48q0 -67 -68 -104q-45 -25 -178 -58.5t-249 -77.5z" />
<glyph unicode="&#x218;" horiz-adv-x="1196" d="M112 -14q8 128 8 553h47q5 -86 20 -159t43.5 -139.5t69.5 -113.5t102.5 -74.5t137.5 -27.5q112 0 183 59t71 170q0 61 -21 112.5t-67 99t-93.5 83.5t-125.5 86q-51 32 -82.5 53t-74.5 53.5t-69 58t-56 61.5t-46 71t-26.5 78.5t-10.5 91.5q0 94 37.5 167t102.5 117.5 t146 67t173 22.5q75 0 136 -13t91.5 -27t71.5 -39q48 -29 69 -29q19 0 29 21t17 69h47q-11 -127 -11 -467h-47q-5 82 -30 158.5t-66.5 139t-107 100.5t-144.5 38q-100 0 -162.5 -56.5t-62.5 -152.5q0 -25 4.5 -47.5t9.5 -40.5t20 -39.5t24 -35t34 -35.5l37.5 -33t48 -35.5 t51 -35.5t60.5 -41t65 -43q70 -47 112 -77t92.5 -76.5t77 -88t45.5 -98.5t19 -122q0 -130 -70.5 -222t-183 -134.5t-254.5 -42.5q-114 0 -189 20.5t-140 55.5q-46 29 -70 29q-19 0 -29 -21.5t-16 -68.5h-47zM457 -246q0 62 41.5 97.5t113.5 35.5q75 0 121 -42.5t46 -115.5 q0 -94 -57.5 -153t-175.5 -74l-8 41q150 25 164 113q-34 -31 -100 -31q-67 0 -106 33t-39 96z" />
<glyph unicode="&#x219;" horiz-adv-x="1183" d="M111 -14q8 113 8 499h47q15 -218 118 -342.5t291 -124.5q94 0 161 47t67 141q0 82 -63.5 141.5t-218.5 147.5q-73 42 -124 74.5t-107 77.5t-90 87t-56.5 96t-22.5 112q0 108 63.5 184t168 112t239.5 36q158 0 287 -76q49 -29 69 -29q19 0 28.5 22t16.5 69h47 q-10 -123 -10 -426h-47q-22 184 -118.5 289.5t-251.5 105.5q-102 0 -165 -45t-63 -116q0 -35 15 -67t34.5 -55.5t62.5 -55t74.5 -51.5t93.5 -57q33 -20 50 -30q59 -34 97.5 -57.5t88 -58t80 -66t59.5 -71t42.5 -85t13.5 -95.5q0 -112 -66.5 -192t-179.5 -118t-260 -38 q-69 0 -135.5 15t-99 28t-81.5 37q-50 25 -71 25q-19 0 -29 -21.5t-16 -68.5h-47zM441 -245q0 62 41.5 97.5t113.5 35.5q74 0 120.5 -42t46.5 -116q0 -94 -57.5 -153t-175.5 -74l-8 42q151 24 164 113q-34 -32 -100 -32q-67 0 -106 33t-39 96z" />
<glyph unicode="&#x21a;" horiz-adv-x="1368" d="M52 1450q185 -6 633 -6q446 0 631 6q-15 -190 -15 -348q0 -99 6 -156h-47q-51 253 -136 355t-232 102h-45v-1169q0 -65 8 -100.5t34 -57.5t65 -28t112 -7v-41q-174 6 -390 6q-212 0 -374 -6v41q73 1 112 7t65 28t34 57.5t8 100.5v1169h-45q-148 0 -233 -101.5 t-136 -355.5h-47q6 57 6 156q0 153 -14 348zM519 -246q0 62 41.5 97.5t113.5 35.5q75 0 121 -42.5t46 -115.5q0 -94 -57.5 -153t-175.5 -74l-8 41q150 25 164 113q-34 -31 -100 -31q-67 0 -106 33t-39 96z" />
<glyph unicode="&#x21b;" horiz-adv-x="1329" d="M57 1245q178 -6 602 -6q432 0 613 6q-15 -167 -15 -278q0 -106 7 -181h-47q-42 230 -114.5 321t-217.5 91h-64v-960q0 -52 5.5 -84t17.5 -55t37.5 -34.5t58.5 -16.5t88 -7v-41q-111 6 -369 6q-259 0 -358 -6v41q55 2 88 7t58.5 16.5t37.5 34.5t17.5 55t5.5 84v960h-64 q-145 0 -217 -91t-114 -321h-47q6 64 6 181q0 127 -15 278zM501 -245q0 62 41.5 97.5t113.5 35.5q74 0 120.5 -42t46.5 -116q0 -94 -57.5 -153t-175.5 -74l-8 42q151 24 164 113q-34 -32 -100 -32q-67 0 -106 33t-39 96z" />
<glyph unicode="&#x237;" horiz-adv-x="608" d="M-259 -220q0 63 44.5 100.5t118.5 37.5q71 0 112 -33.5t41 -97.5q0 -43 -25.5 -78t-76.5 -54q24 -3 47 -3q86 0 128 58q25 37 33 109t8 226v791q0 95 -29.5 138t-101.5 43v43q75 -7 127 -7q176 0 299 29v-889q0 -173 -29 -283t-102 -184q-106 -111 -331 -111 q-108 0 -182 37q-38 20 -59.5 53.5t-21.5 74.5z" />
<glyph unicode="&#x2c6;" horiz-adv-x="823" d="M27 1278q113 67 210.5 175t155.5 226h37q56 -116 153.5 -224.5t213.5 -176.5l-17 -29q-118 29 -229.5 71t-179.5 85q-56 -43 -145 -85.5t-183 -70.5z" />
<glyph unicode="&#x2c7;" horiz-adv-x="823" d="M27 1651l16 28q117 -28 229 -70.5t181 -84.5q56 42 145.5 85t181.5 70l17 -28q-114 -67 -211.5 -175.5t-155.5 -226.5h-37q-55 116 -153 224.5t-213 177.5z" />
<glyph unicode="&#x2d8;" horiz-adv-x="877" d="M47 1595l35 19q131 -148 356 -148q224 0 357 148l34 -19q-21 -61 -51.5 -114t-77 -102.5t-114 -78t-148.5 -28.5q-80 0 -148 28.5t-114 78t-77.5 102.5t-51.5 114z" />
<glyph unicode="&#x2d9;" horiz-adv-x="406" d="M16 1430q0 73 50.5 115.5t136.5 42.5q85 0 135.5 -42.5t50.5 -115.5q0 -74 -50.5 -116.5t-135.5 -42.5q-87 0 -137 42.5t-50 116.5z" />
<glyph unicode="&#x2da;" horiz-adv-x="539" d="M47 1434q0 88 65 143t156 55q93 0 158.5 -54.5t65.5 -143.5q0 -91 -65.5 -146t-158.5 -55q-91 0 -156 55.5t-65 145.5zM104 1432q0 -74 49.5 -115t114.5 -41q66 0 116 41t50 115q0 72 -50.5 114.5t-115.5 42.5q-64 0 -114 -43t-50 -114z" />
<glyph unicode="&#x2db;" horiz-adv-x="496" d="M1 -245q0 85 86.5 149.5t245.5 101.5l85 12q-9 -10 -39 -25q-155 -72 -155 -182q0 -83 85 -83q34 0 71.5 16t59.5 39l28 -29q-55 -73 -121.5 -106t-158.5 -33q-89 0 -138 37t-49 103z" />
<glyph unicode="&#x2dc;" horiz-adv-x="842" d="M27 1325q32 145 100 215t156 70q46 0 86 -14t69.5 -34t57.5 -39.5t62 -33.5t71 -14q92 0 157 108l29 -14q-32 -145 -100 -215t-154 -70q-56 0 -106 21.5t-81 47t-74 47t-87 21.5q-92 0 -158 -110z" />
<glyph unicode="&#x2dd;" horiz-adv-x="842" d="M71 1240q35 84 62 170t43.5 138t38.5 85q39 57 103 57q36 0 65 -20q45 -33 45 -84q0 -38 -27 -77q-23 -32 -64.5 -68t-109.5 -93.5t-131 -121.5zM434 1240q42 99 80 226t65 167q39 57 102 57q36 0 65 -20q45 -33 45 -84q0 -38 -27 -77t-128.5 -123.5t-176.5 -159.5z" />
<glyph unicode="&#x326;" horiz-adv-x="0" d="M54 -245q0 62 41.5 97.5t113.5 35.5q74 0 120.5 -43t46.5 -115q0 -94 -57.5 -153t-175.5 -74l-8 42q151 24 164 113q-34 -32 -100 -32q-67 0 -106 33t-39 96z" />
<glyph unicode="&#x394;" horiz-adv-x="1025" d="M55 0l477 1479h33l395 -1479q-224 6 -450 6q-228 0 -455 -6zM116 61h534l-246 902z" />
<glyph unicode="&#x3a9;" horiz-adv-x="1551" d="M124 967q0 241 170 376.5t481 135.5t481.5 -135.5t170.5 -376.5q0 -104 -31.5 -199.5t-89.5 -182t-119 -162.5t-141 -180t-135 -196h109q146 0 228.5 83.5t115.5 283.5h47q-6 -57 -6 -148q0 -118 14 -266q-78 6 -266 6q-48 0 -151.5 -2.5t-142.5 -3.5v33q40 69 77 150 t80 198.5t69 260.5t26 284q0 254 -78 385t-258 131q-179 0 -257 -131t-78 -385q0 -141 26 -283.5t69 -260.5t80 -199t76 -150v-33q-38 1 -141.5 3.5t-151.5 2.5q-189 0 -267 -6q15 145 15 266q0 91 -6 148h47q32 -200 114.5 -283.5t229.5 -83.5h109q-55 92 -135 196 t-141 180t-119 162.5t-89.5 182t-31.5 199.5z" />
<glyph unicode="&#x3bc;" horiz-adv-x="1434" d="M50 -276q0 36 20.5 73.5t45 64t70.5 70.5q11 11 17 16q41 41 72.5 83t66.5 108t62 159.5t42 209.5q-11 113 -25.5 206t-22.5 138.5t-7 71.5q2 59 32 96.5t65.5 50t76.5 12.5q56 0 92.5 -27.5t36.5 -81.5q0 -8 -2 -26q-4 -30 -20.5 -61.5t-41.5 -66.5t-51.5 -78 t-54.5 -114.5t-47 -158.5h-5l-3 -14q7 -82 51.5 -118t110.5 -36q115 0 193 51t128 168h2l1 10q-6 103 -15 190t-14.5 131t-5.5 64q0 47 15.5 82t40.5 52.5t51 25.5t54 8q62 0 102 -28.5t40 -84.5q0 -6 -2 -22q-4 -28 -21.5 -56.5t-43 -59.5t-53.5 -68t-58 -97t-50 -133 q-8 -64 -8 -100q0 -74 27 -103.5t82 -29.5q83 0 138.5 50.5t94.5 168.5l39 -8q-10 -57 -25 -118.5t-43.5 -140t-62 -139t-83.5 -102t-105 -41.5q-130 0 -130 183q0 36 7 92l7 71q-25 -68 -55.5 -125t-72 -109t-95.5 -82t-114 -30q-132 0 -156 210q-36 -360 -91 -465 q-23 -43 -70.5 -72t-108.5 -29q-55 0 -87.5 29t-32.5 80z" />
<glyph unicode="&#x3c0;" horiz-adv-x="1230" d="M56 564q28 122 65.5 207.5t97.5 153t148.5 100.5t208.5 33h590v-283h-374l-46 -320q-2 -24 -2 -34q0 -120 103 -120q83 0 138.5 50.5t94.5 168.5l39 -8q-8 -48 -19 -96.5t-29 -114t-43 -120.5t-56 -104.5t-72.5 -77.5t-87.5 -28q-71 0 -105.5 49.5t-34.5 155.5 q0 72 17 180l63 419h-196q-46 -498 -154 -703q-58 -101 -180 -101q-54 0 -86.5 28.5t-32.5 75.5q0 61 37 101t119 90q63 39 100.5 73t73 90.5t56 140t33.5 205.5h-89q-90 0 -147 -15t-107 -64t-88 -140z" />
<glyph unicode="&#x401;" horiz-adv-x="1298" d="M69 0v41q52 2 79 8.5t45.5 26.5t23.5 51t5 90v1016q0 58 -5 89.5t-23.5 51.5t-45.5 26.5t-79 8.5v41q223 -6 667 -6q302 0 428 6q-14 -169 -14 -303q0 -89 6 -139h-47q-30 218 -110 306.5t-226 88.5h-84q-90 0 -115.5 -25.5t-25.5 -120.5v-507h66q47 0 86 18t64.5 44.5 t45.5 64.5t30.5 71.5t17.5 71.5h47q-7 -102 -7 -193q0 -20 0.5 -52t0.5 -46q0 -104 12 -291h-47q-40 271 -250 271h-66v-516q0 -95 25.5 -120.5t115.5 -25.5h101q145 0 234 99.5t126 336.5h47q-6 -66 -6 -172q0 -167 14 -311q-139 6 -469 6q-444 0 -667 -6zM244 1723 q0 62 46 108.5t109 46.5q61 0 107.5 -46.5t46.5 -108.5q0 -63 -46 -108.5t-108 -45.5q-64 0 -109.5 45t-45.5 109zM735 1723q0 62 45.5 108.5t108.5 46.5q61 0 108 -47t47 -108q0 -63 -46.5 -108.5t-108.5 -45.5q-64 0 -109 45t-45 109z" />
<glyph unicode="&#x402;" horiz-adv-x="1846" d="M52 1450q185 -6 633 -6q446 0 631 6q-15 -176 -15 -324q0 -98 6 -155h-47q-53 221 -140 326.5t-228 105.5h-45v-689q76 61 190 99.5t254 38.5q110 0 202 -28t162 -81.5t109 -139.5t39 -195t-41 -194t-112 -137t-162 -79t-196 -27q-88 0 -164 25t-128.5 82.5t-52.5 137.5 q0 76 49.5 121t125.5 45q72 0 115 -41t43 -112q0 -68 -41.5 -113t-115.5 -66q48 -36 123 -36q116 0 181 96.5t65 288.5q0 89 -14.5 156t-49 121t-97 82t-151.5 28q-99 0 -192.5 -33t-140.5 -82v-694q-115 29 -298 29q-127 0 -247 -6v41q73 1 112 7t65 28t34 57.5t8 100.5 v1169h-45q-148 0 -233 -101.5t-136 -355.5h-47q6 57 6 156q0 153 -14 348z" />
<glyph unicode="&#x403;" horiz-adv-x="1172" d="M69 0v41q52 2 79 8.5t45.5 26.5t23.5 51.5t5 89.5v1016q0 59 -5 90t-23.5 51t-45.5 26.5t-79 8.5v41q223 -6 667 -6q279 0 396 6q-15 -169 -15 -311q0 -103 7 -156h-48q-39 232 -121.5 326t-230.5 94h-35q-90 0 -115.5 -25.5t-25.5 -120.5v-1040q0 -58 6.5 -90 t28.5 -51.5t54 -26t93 -8.5v-41q-118 6 -338 6t-323 -6zM410 1606q81 66 147 134.5t105.5 109.5t79.5 62q29 16 64 16q32 0 59.5 -15.5t42.5 -43.5q11 -21 11 -47q0 -68 -68 -105q-45 -25 -177.5 -58.5t-248.5 -77.5z" />
<glyph unicode="&#x404;" horiz-adv-x="1450" d="M88 713q0 226 92 400.5t257 270t376 95.5q122 0 208 -35t168 -98q22 -18 40 -18q41 0 53 122h47q-8 -121 -8 -422h-48q-26 121 -55 180t-99 117q-100 101 -259 101q-106 0 -187 -58.5t-128 -159.5t-70 -223.5t-23 -263.5q0 -42 1 -63q34 119 98.5 181.5t139.5 62.5 q49 0 99.5 -22.5t86.5 -49.5t83 -49.5t89 -22.5q44 0 84.5 29.5t56.5 95.5l33 -10q-25 -158 -93 -242t-156 -84q-50 0 -100 22.5t-85 49t-83 49t-94 22.5q-103 0 -155 -97q10 -121 39.5 -222t78.5 -180.5t124 -124.5t169 -45q70 0 138.5 25.5t116.5 73.5q75 58 104.5 145 t45.5 251h48q0 -371 8 -516h-47q-6 64 -17.5 92.5t-32.5 28.5q-17 0 -43 -17q-92 -65 -175.5 -99t-202.5 -34q-217 0 -379.5 87t-253 255.5t-90.5 399.5z" />
<glyph unicode="&#x405;" horiz-adv-x="1196" d="M112 -14q8 128 8 553h47q5 -86 20 -159t43.5 -139.5t69.5 -113.5t102.5 -74.5t137.5 -27.5q112 0 183 59t71 170q0 61 -21 112.5t-67 99t-93.5 83.5t-125.5 86q-51 32 -82.5 53t-74.5 53.5t-69 58t-56 61.5t-46 71t-26.5 78.5t-10.5 91.5q0 94 37.5 167t102.5 117.5 t146 67t173 22.5q75 0 136 -13t91.5 -27t71.5 -39q48 -29 69 -29q19 0 29 21t17 69h47q-11 -127 -11 -467h-47q-5 82 -30 158.5t-66.5 139t-107 100.5t-144.5 38q-100 0 -162.5 -56.5t-62.5 -152.5q0 -25 4.5 -47.5t9.5 -40.5t20 -39.5t24 -35t34 -35.5l37.5 -33t48 -35.5 t51 -35.5t60.5 -41t65 -43q70 -47 112 -77t92.5 -76.5t77 -88t45.5 -98.5t19 -122q0 -130 -70.5 -222t-183 -134.5t-254.5 -42.5q-114 0 -189 20.5t-140 55.5q-46 29 -70 29q-19 0 -29 -21.5t-16 -68.5h-47z" />
<glyph unicode="&#x406;" horiz-adv-x="770" d="M69 0v41q52 2 79 8.5t45.5 26.5t23.5 51t5 90v1016q0 58 -5 89.5t-23.5 51.5t-45.5 26.5t-79 8.5v41q103 -6 323 -6q199 0 310 6v-41q-53 -2 -80 -8.5t-45.5 -26.5t-23.5 -51t-5 -90v-1016q0 -58 5 -89.5t23.5 -51.5t46 -26.5t79.5 -8.5v-41q-111 6 -310 6 q-220 0 -323 -6z" />
<glyph unicode="&#x407;" horiz-adv-x="770" d="M-8 1723q0 62 46 108.5t109 46.5q61 0 107.5 -46.5t46.5 -108.5q0 -63 -46 -108.5t-108 -45.5q-64 0 -109.5 45t-45.5 109zM69 0v41q52 2 79 8.5t45.5 26.5t23.5 51t5 90v1016q0 58 -5 89.5t-23.5 51.5t-45.5 26.5t-79 8.5v41q103 -6 323 -6q199 0 310 6v-41 q-53 -2 -80 -8.5t-45.5 -26.5t-23.5 -51t-5 -90v-1016q0 -58 5 -89.5t23.5 -51.5t46 -26.5t79.5 -8.5v-41q-111 6 -310 6q-220 0 -323 -6zM483 1723q0 62 45.5 108.5t108.5 46.5q61 0 108 -47t47 -108q0 -63 -46.5 -108.5t-108.5 -45.5q-64 0 -109 45t-45 109z" />
<glyph unicode="&#x408;" horiz-adv-x="746" d="M-323 -198q0 62 45 100t119 38q71 0 113 -35t42 -100q0 -46 -27 -82t-78 -52q23 -15 74 -15q75 0 129 40.5t78 106.5q26 75 32.5 169t6.5 325v936q0 58 -5 89.5t-23.5 51.5t-45.5 26.5t-79 8.5v41q100 -6 311 -6q208 0 322 6v-41q-53 -2 -80 -8.5t-45.5 -26.5t-23.5 -51 t-5 -90v-750v-107q0 -306 -35 -427q-43 -148 -180 -241t-338 -93q-130 0 -206 38q-101 51 -101 149z" />
<glyph unicode="&#x409;" horiz-adv-x="2014" d="M-28 161q0 79 53 127.5t133 48.5q68 0 109.5 -34t41.5 -93q0 -72 -44.5 -120.5t-118.5 -68.5q20 -11 50 -11q191 0 280 331q59 221 89 697q3 48 12 195q2 34 2 46q0 76 -34 101t-134 29v41q87 -6 211 -6q31 0 91 3t89 3q51 0 142.5 -3t150.5 -3q210 0 318 6v-41 q-56 -2 -85.5 -8.5t-49.5 -26.5t-25.5 -51.5t-5.5 -89.5v-410h121q161 0 279.5 -31t185.5 -87.5t98 -125.5t31 -153q0 -88 -31.5 -161.5t-95.5 -132t-171.5 -93.5t-250.5 -39h-6h-29q-67 0 -185 5l-114 1q-221 0 -340 -6v41q61 2 93 8.5t54 26t28.5 51.5t6.5 90v1016 q0 108 -29.5 142t-111.5 34h-14q-76 0 -105 -34.5t-37 -141.5q-5 -58 -11.5 -151.5t-11.5 -165t-14 -167t-18.5 -169t-26.5 -158t-37.5 -146.5t-50.5 -122.5t-66.5 -98.5t-85 -61t-106.5 -23q-95 0 -159.5 53t-64.5 137zM1247 217q0 -107 27.5 -138.5t124.5 -36.5 q125 7 174 97.5t49 265.5q0 89 -13.5 154t-45.5 117.5t-91 79.5t-144 27h-81v-566z" />
<glyph unicode="&#x40a;" horiz-adv-x="2176" d="M69 0v41q52 2 79 8.5t45.5 26.5t23.5 51t5 90v1016q0 58 -5 89.5t-23.5 51.5t-45.5 26.5t-79 8.5v41q103 -6 323 -6q199 0 310 6v-41q-53 -2 -80 -8.5t-45.5 -26.5t-23.5 -51t-5 -90v-483h543v483q0 58 -5 89.5t-23.5 51.5t-46 26.5t-79.5 8.5v41q114 -6 322 -6 q211 0 311 6v-41q-53 -2 -80 -8.5t-45.5 -26.5t-23.5 -51t-5 -90v-479h121q130 0 232.5 -19t169.5 -52t111 -80t63 -99.5t19 -113.5q0 -80 -32 -147.5t-97.5 -122t-176 -86t-256.5 -34.5h-2h-21q-80 0 -185 6h-103q-208 0 -322 -6v41q53 2 80 8.5t45.5 26.5t23.5 51t5 90 v492h-543v-492q0 -58 5 -89.5t23.5 -51.5t46 -26.5t79.5 -8.5v-41q-111 6 -310 6q-220 0 -323 -6zM1416 217q0 -108 27 -139.5t120 -36.5q128 6 178.5 90t50.5 242q0 80 -14 139.5t-48 106.5t-95 71t-150 24h-69v-497z" />
<glyph unicode="&#x40b;" horiz-adv-x="1835" d="M52 1450q185 -6 633 -6q446 0 631 6q-15 -190 -15 -348q0 -99 6 -156h-47q-51 253 -136 355t-232 102h-45v-667q67 29 174 52t219 23q190 0 303 -72q69 -43 96 -109t27 -177v-247q0 -100 29 -131t120 -33v-42q-152 7 -314 7q-150 0 -302 -7v42q86 2 113.5 33t27.5 131 v304q0 65 -7 105t-28 71.5t-61.5 45t-105.5 13.5q-172 0 -291 -47v-464q0 -65 8 -100.5t34 -57.5t65 -28t112 -7v-41q-174 6 -390 6q-212 0 -374 -6v41q73 1 112 7t65 28t34 57.5t8 100.5v1169h-45q-148 0 -233 -101.5t-136 -355.5h-47q6 57 6 156q0 153 -14 348z" />
<glyph unicode="&#x40c;" horiz-adv-x="1477" d="M69 0v41q52 2 79 8.5t45.5 26.5t23.5 51t5 90v1016q0 58 -5 89.5t-23.5 51.5t-45.5 26.5t-79 8.5v41q103 -6 323 -6q199 0 310 6v-41q-53 -2 -80 -8.5t-45.5 -26.5t-23.5 -51t-5 -90v-459q82 4 151.5 48.5t155.5 141.5l120 146q95 113 95 190q0 51 -39.5 79.5 t-110.5 30.5v40q148 -6 301 -6q121 0 194 6v-40q-157 -34 -298 -195l-379 -444q200 -12 310.5 -75.5t142.5 -206.5l60 -274q17 -83 37 -115t59 -32q41 0 82 47l28 -25q-54 -62 -118.5 -90.5t-153.5 -28.5q-118 0 -186 49.5t-91 172.5l-54 312q-25 130 -81.5 182t-196.5 52 h-28v-522q0 -58 5 -89.5t23.5 -51.5t46 -26.5t79.5 -8.5v-41q-111 6 -310 6q-220 0 -323 -6zM667 1606q81 66 147 134.5t105.5 109.5t79.5 62q29 16 64 16q32 0 59.5 -15.5t42.5 -43.5q11 -21 11 -47q0 -68 -68 -105q-45 -25 -177.5 -58.5t-248.5 -77.5z" />
<glyph unicode="&#x40e;" horiz-adv-x="1351" d="M-20 1408v42q81 -6 271 -6q241 0 327 6v-42q-105 -4 -105 -79q0 -35 23 -84l362 -642l208 418q78 157 78 249q0 134 -174 139v41q140 -6 256 -6q94 0 156 6v-41q-45 -17 -90.5 -72t-104.5 -164l-403 -811l-97 -194q-46 -94 -90 -137q-60 -60 -171 -60q-104 0 -165.5 48 t-61.5 123q0 72 52.5 116t129.5 44q80 0 127.5 -34t47.5 -95q0 -56 -37.5 -95.5t-98.5 -58.5q11 -7 40 -7q109 0 185 159l48 99l-578 1014q-68 116 -135 124zM214 1800q0 58 45 97t116 39q72 0 119 -38.5t47 -98.5q0 -52 -35 -86t-91 -47q105 -48 281 -48q174 0 279 49 q-57 14 -90 48t-33 84q0 60 46.5 98.5t117.5 38.5q70 0 116.5 -38.5t46.5 -97.5q0 -89 -123 -151q-140 -72 -360 -72q-222 0 -362 72q-120 61 -120 151z" />
<glyph unicode="&#x40f;" horiz-adv-x="1639" d="M69 0v41q52 2 79 8.5t45.5 26.5t23.5 51.5t5 89.5v1016q0 58 -5 89.5t-23.5 51.5t-45.5 26.5t-79 8.5v41q103 -6 323 -6q199 0 310 6v-41q-52 -2 -79.5 -8.5t-46 -26.5t-23.5 -51.5t-5 -89.5v-1016q0 -111 30.5 -143.5t135.5 -32.5h211q105 0 135.5 32.5t30.5 143.5v1016 q0 58 -5 89.5t-23.5 51.5t-46 26.5t-79.5 8.5v41q110 -6 309 -6q219 0 324 6v-41q-68 -3 -98.5 -16t-43 -48t-12.5 -112v-1016q0 -77 12.5 -112t43 -48t98.5 -16v-41q-105 6 -324 6h-75l7 -1q-142 0 -226.5 -84.5t-105.5 -278.5h-47q-21 195 -105 279t-227 84l6 1h-81 q-220 0 -323 -6z" />
<glyph unicode="&#x410;" horiz-adv-x="1366" d="M-32 0v41q103 19 178 215l466 1198q33 -3 71 -3t71 3l497 -1282q26 -68 60.5 -98.5t68.5 -32.5v-41q-122 6 -311 6q-210 0 -312 -6v41q77 3 110.5 19t33.5 56q0 36 -24 97l-123 336h-445l-55 -142q-56 -144 -56 -227q0 -76 45.5 -106.5t136.5 -32.5v-41q-140 6 -255 6 q-96 0 -157 -6zM324 590h415l-203 551z" />
<glyph unicode="&#x411;" horiz-adv-x="1328" d="M69 0v41q52 2 79 8.5t45.5 26.5t23.5 51.5t5 89.5v1016q0 59 -5 90t-23.5 51t-45.5 26.5t-79 8.5v41q223 -6 667 -6q284 0 404 6q-14 -169 -14 -303q0 -89 6 -139h-47q-39 218 -119 306.5t-217 88.5h-60q-90 0 -115.5 -25.5t-25.5 -120.5v-395l121 1q130 0 232.5 -24 t169.5 -64t111 -96t62.5 -117.5t18.5 -131.5q0 -72 -20.5 -135t-65.5 -117.5t-112 -93.5t-165.5 -61t-220.5 -22q-23 0 -123.5 2.5t-186.5 2.5q-197 0 -300 -6zM548 217q0 -106 22 -141t96 -35q144 0 200.5 95.5t56.5 284.5q0 76 -8 135t-28.5 110.5t-53.5 85t-84 52.5 t-120 19h-81v-606z" />
<glyph unicode="&#x412;" horiz-adv-x="1375" d="M69 0v41q52 2 79 8.5t45.5 26.5t23.5 51t5 90v1016q0 58 -5 89.5t-23.5 51.5t-45.5 26.5t-79 8.5v41q103 -6 311 -6q77 0 191.5 2t130.5 2q246 0 376 -87.5t130 -234.5q0 -56 -24.5 -110.5t-72.5 -104t-128.5 -88t-183.5 -57.5v-4q138 -10 241 -45t161 -86.5t85.5 -110 t27.5 -123.5q0 -191 -149.5 -294t-415.5 -103q-18 0 -141 3t-224 3q-212 0 -315 -6zM548 217q0 -107 26.5 -138.5t114.5 -31.5q285 0 285 359q0 161 -81.5 245t-258.5 84h-86v-518zM548 770h88q70 0 118.5 26.5t74 75t36.5 104.5t11 128q0 154 -47.5 229.5t-153.5 75.5 q-78 0 -102.5 -34.5t-24.5 -141.5v-463z" />
<glyph unicode="&#x413;" horiz-adv-x="1172" d="M69 0v41q52 2 79 8.5t45.5 26.5t23.5 51.5t5 89.5v1016q0 59 -5 90t-23.5 51t-45.5 26.5t-79 8.5v41q223 -6 667 -6q279 0 396 6q-15 -169 -15 -311q0 -103 7 -156h-48q-39 232 -121.5 326t-230.5 94h-35q-90 0 -115.5 -25.5t-25.5 -120.5v-1040q0 -58 6.5 -90 t28.5 -51.5t54 -26t93 -8.5v-41q-118 6 -338 6t-323 -6z" />
<glyph unicode="&#x414;" horiz-adv-x="1336" d="M4 41h37q190 0 278 323q59 214 90 674q2 36 12 195q2 34 2 46q0 76 -34 101t-133 29v41q86 -6 211 -6q31 0 90.5 3t89.5 3q50 0 141.5 -3t151.5 -3q209 0 317 6v-41q-74 -3 -106.5 -16t-46 -48t-13.5 -112v-1016q0 -112 28 -144t126 -32h62q-14 -148 -14 -266 q0 -83 6 -133h-47q-31 197 -114.5 277.5t-233.5 80.5h-497q-150 0 -233.5 -80.5t-114.5 -277.5h-47q6 50 6 133q0 118 -14 266zM179 41h421q105 0 135.5 32.5t30.5 143.5v1016q0 108 -30 142t-112 34h-26q-68 0 -95 -35t-34 -141q-5 -59 -12.5 -159t-13 -175.5t-16 -175.5 t-22.5 -177t-32.5 -161.5t-46 -146.5t-63.5 -115t-84 -82z" />
<glyph unicode="&#x415;" horiz-adv-x="1298" d="M69 0v41q52 2 79 8.5t45.5 26.5t23.5 51t5 90v1016q0 58 -5 89.5t-23.5 51.5t-45.5 26.5t-79 8.5v41q223 -6 667 -6q302 0 428 6q-14 -169 -14 -303q0 -89 6 -139h-47q-30 218 -110 306.5t-226 88.5h-84q-90 0 -115.5 -25.5t-25.5 -120.5v-507h66q47 0 86 18t64.5 44.5 t45.5 64.5t30.5 71.5t17.5 71.5h47q-7 -102 -7 -193q0 -20 0.5 -52t0.5 -46q0 -104 12 -291h-47q-40 271 -250 271h-66v-516q0 -95 25.5 -120.5t115.5 -25.5h101q145 0 234 99.5t126 336.5h47q-6 -66 -6 -172q0 -167 14 -311q-139 6 -469 6q-444 0 -667 -6z" />
<glyph unicode="&#x416;" horiz-adv-x="2107" d="M-19 90l28 25q41 -47 83 -47q38 0 58 31.5t38 115.5l59 274q32 143 143 206.5t311 75.5l-372 444q-138 161 -298 195v40q74 -6 193 -6q152 0 302 6v-40q-71 -2 -110.5 -30.5t-39.5 -79.5q0 -77 95 -190l120 -146q85 -98 151 -142t148 -48v459q0 59 -5 90t-23 51t-45 26.5 t-80 8.5v41q110 -6 309 -6q219 0 324 6v-41q-52 -2 -79.5 -8.5t-46 -26.5t-23.5 -51.5t-5 -89.5v-459q81 4 147 47.5t153 142.5l120 146q94 111 94 190q0 51 -39.5 79.5t-110.5 30.5v40q150 -6 302 -6q119 0 194 6v-40q-161 -34 -298 -195l-373 -444q200 -12 311 -75.5 t143 -206.5l60 -274q17 -83 37 -115t59 -32q41 0 82 47l28 -25q-54 -62 -118.5 -90.5t-153.5 -28.5q-118 0 -186 49.5t-90 172.5l-55 312q-25 130 -81.5 182t-196.5 52h-28v-522q0 -59 5 -90t23.5 -51t45.5 -26.5t80 -8.5v-41q-105 6 -324 6q-200 0 -309 -6v41q52 2 79 8.5 t45.5 26.5t23.5 51.5t5 89.5v522h-28q-73 0 -121 -13t-79 -43.5t-48 -71.5t-29 -106l-55 -312q-22 -123 -90 -172.5t-187 -49.5q-89 0 -153 28.5t-119 90.5z" />
<glyph unicode="&#x417;" horiz-adv-x="1232" d="M51 256q0 76 50 121.5t123 45.5q75 0 118.5 -42t43.5 -121q0 -62 -41.5 -108.5t-114.5 -63.5q39 -32 110 -52t159 -20q172 0 266.5 95.5t94.5 273.5q0 152 -70 255.5t-205 109.5q-47 -27 -87 -27q-44 0 -44 35q0 33 47 33q25 0 86 -13q193 78 193 354q0 149 -57 218.5 t-170 69.5q-84 0 -150.5 -35t-109 -96t-66.5 -139t-30 -169h-47q0 334 -9 475h47q7 -59 17.5 -84.5t33.5 -25.5q17 0 51 22q42 30 64 43t65 32.5t94 27.5t116 8q209 0 338 -84t128 -226q0 -66 -30.5 -125t-78.5 -102t-112 -79t-127.5 -58.5t-128.5 -36.5q101 -2 197 -26 t177.5 -68.5t131 -118t49.5 -165.5q0 -98 -54.5 -179t-145.5 -132.5t-205 -79.5t-236 -28q-235 0 -369 97q-112 79 -112 188z" />
<glyph unicode="&#x418;" horiz-adv-x="1680" d="M69 0v41q52 2 79 8.5t45.5 26.5t23.5 51.5t5 89.5v1016q0 58 -5 89.5t-23.5 51.5t-45.5 26.5t-79 8.5v41q103 -6 323 -6q199 0 310 6v-41q-52 -2 -79.5 -8.5t-46 -26.5t-23.5 -51.5t-5 -89.5v-958l584 990q-3 88 -32 113.5t-122 30.5v41q110 -6 309 -6q219 0 324 6v-41 q-68 -3 -98.5 -16t-43 -48t-12.5 -112v-1016q0 -77 12.5 -112t43 -48t98.5 -16v-41q-105 6 -324 6q-199 0 -309 -6v41q52 2 79.5 8.5t46 26.5t23.5 51.5t5 89.5v959l-584 -988q2 -47 8.5 -74t25.5 -43t45 -22t75 -8v-41q-111 6 -310 6q-220 0 -323 -6z" />
<glyph unicode="&#x419;" horiz-adv-x="1680" d="M69 0v41q52 2 79 8.5t45.5 26.5t23.5 51.5t5 89.5v1016q0 58 -5 89.5t-23.5 51.5t-45.5 26.5t-79 8.5v41q103 -6 323 -6q199 0 310 6v-41q-52 -2 -79.5 -8.5t-46 -26.5t-23.5 -51.5t-5 -89.5v-958l584 990q-3 88 -32 113.5t-122 30.5v41q110 -6 309 -6q219 0 324 6v-41 q-68 -3 -98.5 -16t-43 -48t-12.5 -112v-1016q0 -77 12.5 -112t43 -48t98.5 -16v-41q-105 6 -324 6q-199 0 -309 -6v41q52 2 79.5 8.5t46 26.5t23.5 51.5t5 89.5v959l-584 -988q2 -47 8.5 -74t25.5 -43t45 -22t75 -8v-41q-111 6 -310 6q-220 0 -323 -6zM359 1800q0 58 45 97 t116 39q72 0 119 -38.5t47 -98.5q0 -52 -35 -86t-91 -47q105 -48 281 -48q174 0 279 49q-57 14 -90 48t-33 84q0 60 46.5 98.5t117.5 38.5q70 0 116.5 -38.5t46.5 -97.5q0 -89 -123 -151q-140 -72 -360 -72q-222 0 -362 72q-120 61 -120 151z" />
<glyph unicode="&#x41a;" horiz-adv-x="1477" d="M69 0v41q52 2 79 8.5t45.5 26.5t23.5 51t5 90v1016q0 58 -5 89.5t-23.5 51.5t-45.5 26.5t-79 8.5v41q103 -6 323 -6q199 0 310 6v-41q-53 -2 -80 -8.5t-45.5 -26.5t-23.5 -51t-5 -90v-459q82 4 151.5 48.5t155.5 141.5l120 146q95 113 95 190q0 51 -39.5 79.5 t-110.5 30.5v40q148 -6 301 -6q121 0 194 6v-40q-157 -34 -298 -195l-379 -444q200 -12 310.5 -75.5t142.5 -206.5l60 -274q17 -83 37 -115t59 -32q41 0 82 47l28 -25q-54 -62 -118.5 -90.5t-153.5 -28.5q-118 0 -186 49.5t-91 172.5l-54 312q-25 130 -81.5 182t-196.5 52 h-28v-522q0 -58 5 -89.5t23.5 -51.5t46 -26.5t79.5 -8.5v-41q-111 6 -310 6q-220 0 -323 -6z" />
<glyph unicode="&#x41b;" horiz-adv-x="1474" d="M-28 161q0 79 53 127.5t133 48.5q68 0 109.5 -34t41.5 -93q0 -72 -44.5 -120.5t-118.5 -68.5q20 -11 50 -11q191 0 280 331q59 221 89 697q3 48 12 195q2 34 2 46q0 76 -34 101t-134 29v41q87 -6 211 -6q31 0 91 3t89 3q51 0 142.5 -3t150.5 -3q210 0 318 6v-41 q-56 -2 -85.5 -8.5t-49.5 -26.5t-25.5 -51.5t-5.5 -89.5v-1016q0 -58 5.5 -89.5t25.5 -51.5t49.5 -26.5t85.5 -8.5v-41q-108 6 -334 6q-221 0 -340 -6v41q61 2 93 8.5t54 26t28.5 51.5t6.5 90v1016q0 108 -29.5 142t-111.5 34h-14q-76 0 -105 -34.5t-37 -141.5 q-5 -58 -11.5 -151.5t-11.5 -165t-14 -167t-18.5 -169t-26.5 -158t-37.5 -146.5t-50.5 -122.5t-66.5 -98.5t-85 -61t-106.5 -23q-95 0 -159.5 53t-64.5 137z" />
<glyph unicode="&#x41c;" horiz-adv-x="1899" d="M71 0v41q96 13 125 66t29 204v922q0 58 -5 89.5t-23.5 51.5t-46 26.5t-79.5 8.5v41q65 -6 178 -6q191 0 324 6l413 -996l378 990h145q208 0 322 6v-41q-53 -2 -80 -8.5t-45.5 -26.5t-23.5 -51t-5 -90v-1016q0 -58 5 -89.5t23.5 -51.5t46 -26.5t79.5 -8.5v-41 q-114 6 -322 6q-219 0 -324 -6v41q56 2 85.5 8.5t49.5 26.5t25.5 51.5t5.5 89.5v1066l-493 -1286h-33l-553 1321v-982q0 -74 3.5 -116t14 -78.5t33.5 -54.5t57.5 -29t90.5 -17v-41q-79 6 -222 6q-113 0 -178 -6z" />
<glyph unicode="&#x41d;" horiz-adv-x="1639" d="M69 0v41q52 2 79 8.5t45.5 26.5t23.5 51t5 90v1016q0 58 -5 89.5t-23.5 51.5t-45.5 26.5t-79 8.5v41q103 -6 323 -6q199 0 310 6v-41q-53 -2 -80 -8.5t-45.5 -26.5t-23.5 -51t-5 -90v-483h543v483q0 58 -5 89.5t-23.5 51.5t-46 26.5t-79.5 8.5v41q114 -6 322 -6 q211 0 311 6v-41q-53 -2 -80 -8.5t-45.5 -26.5t-23.5 -51t-5 -90v-1016q0 -77 12.5 -112t43 -48t98.5 -16v-41q-100 6 -311 6q-208 0 -322 -6v41q53 2 80 8.5t45.5 26.5t23.5 51t5 90v492h-543v-492q0 -58 5 -89.5t23.5 -51.5t46 -26.5t79.5 -8.5v-41q-111 6 -310 6 q-220 0 -323 -6z" />
<glyph unicode="&#x41e;" horiz-adv-x="1623" d="M88 713q0 226 92 400.5t257 270t376 95.5q329 0 526 -197.5t197 -544.5q0 -226 -92.5 -400.5t-257 -270t-375.5 -95.5q-217 0 -379.5 87t-253 255.5t-90.5 399.5zM428 721q0 -320 112.5 -516.5t278.5 -196.5q170 0 273.5 200t103.5 521q0 320 -112.5 516.5t-279.5 196.5 q-170 0 -273 -200t-103 -521z" />
<glyph unicode="&#x41f;" horiz-adv-x="1639" d="M69 0v41q52 2 79 8.5t45.5 26.5t23.5 51.5t5 89.5v1016q0 58 -5 89.5t-23.5 51.5t-45.5 26.5t-79 8.5v41q103 -6 323 -6q88 0 239 3t191 3q41 0 189 -3t235 -3q219 0 324 6v-41q-68 -3 -98.5 -16t-43 -48t-12.5 -112v-1016q0 -77 12.5 -112t43 -48t98.5 -16v-41 q-105 6 -324 6q-200 0 -309 -6v41q52 2 79.5 8.5t46 26.5t23.5 51.5t5 89.5v1016q0 111 -30.5 143.5t-135.5 32.5h-211q-105 0 -135.5 -32.5t-30.5 -143.5v-1016q0 -58 5 -89.5t23.5 -51.5t46 -26.5t79.5 -8.5v-41q-111 6 -310 6q-220 0 -323 -6z" />
<glyph unicode="&#x420;" horiz-adv-x="1312" d="M69 0v41q52 2 79 8.5t45.5 26.5t23.5 51t5 90v1016q0 58 -5 89.5t-23.5 51.5t-45.5 26.5t-79 8.5v41q103 -6 311 -6q77 0 191.5 2t130.5 2q277 0 422 -109.5t145 -294.5q0 -52 -12 -102.5t-38.5 -103.5t-74.5 -97.5t-113 -79.5t-161 -55t-213 -20h-109v-357 q0 -42 3.5 -69.5t13.5 -49t24 -33t40.5 -19t57.5 -10t80 -3.5v-45q-168 6 -373 6q-147 0 -325 -6zM548 627h88q70 0 123 21.5t85 57t51.5 88t26.5 106.5t7 122q0 199 -59 293t-195 94q-78 0 -102.5 -34.5t-24.5 -141.5v-606z" />
<glyph unicode="&#x421;" horiz-adv-x="1445" d="M88 713q0 226 92 400.5t257 270t376 95.5q122 0 208 -35t168 -98q22 -18 40 -18q41 0 53 122h47q-8 -140 -8 -496h-48q-18 152 -48.5 231.5t-105.5 139.5q-104 101 -259 101q-106 0 -187 -58.5t-128 -159.5t-70 -223.5t-23 -263.5q0 -142 24.5 -265t73 -222t130.5 -156 t188 -57q70 0 138.5 25.5t116.5 73.5q75 58 104.5 145t45.5 251h48q0 -371 8 -516h-47q-6 64 -17.5 92.5t-32.5 28.5q-17 0 -43 -17q-92 -65 -175.5 -99t-202.5 -34q-217 0 -379.5 87t-253 255.5t-90.5 399.5z" />
<glyph unicode="&#x422;" horiz-adv-x="1368" d="M52 1450q185 -6 633 -6q446 0 631 6q-15 -190 -15 -348q0 -99 6 -156h-47q-51 253 -136 355t-232 102h-45v-1169q0 -65 8 -100.5t34 -57.5t65 -28t112 -7v-41q-174 6 -390 6q-212 0 -374 -6v41q73 1 112 7t65 28t34 57.5t8 100.5v1169h-45q-148 0 -233 -101.5 t-136 -355.5h-47q6 57 6 156q0 153 -14 348z" />
<glyph unicode="&#x423;" horiz-adv-x="1351" d="M-20 1408v42q81 -6 271 -6q241 0 327 6v-42q-105 -4 -105 -79q0 -35 23 -84l362 -642l208 418q78 157 78 249q0 134 -174 139v41q140 -6 256 -6q94 0 156 6v-41q-45 -17 -90.5 -72t-104.5 -164l-403 -811l-97 -194q-46 -94 -90 -137q-60 -60 -171 -60q-104 0 -165.5 48 t-61.5 123q0 72 52.5 116t129.5 44q80 0 127.5 -34t47.5 -95q0 -56 -37.5 -95.5t-98.5 -58.5q11 -7 40 -7q109 0 185 159l48 99l-578 1014q-68 116 -135 124z" />
<glyph unicode="&#x424;" horiz-adv-x="1891" d="M33 733q0 244 197 395.5t554 180.5v75q0 111 -27.5 141.5t-126.5 35.5v41q98 -7 324 -7q205 0 309 7v-41q-100 -5 -127 -35.5t-27 -141.5v-74q364 -26 556.5 -171t192.5 -402q0 -252 -196.5 -408.5t-552.5 -186.5v-76q0 -59 5 -90.5t24 -51.5t45.5 -26t79.5 -9v-41 q-104 7 -309 7q-226 0 -324 -7v41q100 5 127 35.5t27 141.5v75q-365 26 -558 176t-193 416zM373 741q0 -257 101 -392.5t310 -170.5v1096q-216 -30 -313.5 -159t-97.5 -374zM1109 177q215 32 312 165.5t97 386.5q0 249 -100 379.5t-309 163.5v-1095z" />
<glyph unicode="&#x425;" horiz-adv-x="1415" d="M7 1408v43q224 -8 292 -8q130 0 314 8v-43q-131 0 -131 -39q0 -16 16 -39l305 -445l151 204q97 123 97 207q0 51 -38.5 79.5t-110.5 33.5v41q116 -6 257 -6q125 0 189 6v-41q-126 -36 -258 -214l-262 -348l481 -702q42 -60 66 -79.5t65 -22.5v-43q-216 8 -280 8 q-78 0 -330 -8v43q72 0 103.5 7t31.5 27q0 13 -15 36l-344 505l-164 -224q-94 -126 -94 -214q0 -63 46.5 -98.5t128.5 -40.5v-41q-117 6 -324 6q-123 0 -188 -6v41q140 46 296 250l272 367l-441 648q-42 60 -66 79.5t-65 22.5z" />
<glyph unicode="&#x426;" horiz-adv-x="1658" d="M69 0v41q52 2 79 8.5t45.5 26.5t23.5 51.5t5 89.5v1016q0 58 -5 89.5t-23.5 51.5t-45.5 26.5t-79 8.5v41q103 -6 323 -6q199 0 310 6v-41q-52 -2 -79.5 -8.5t-46 -26.5t-23.5 -51.5t-5 -89.5v-1016q0 -111 30.5 -143.5t135.5 -32.5h211q105 0 135.5 32.5t30.5 143.5v1016 q0 58 -5 89.5t-23.5 51.5t-46 26.5t-79.5 8.5v41q110 -6 309 -6q219 0 324 6v-41q-68 -3 -98.5 -16t-43 -48t-12.5 -112v-1016q0 -111 28.5 -143.5t125.5 -32.5h62q-14 -148 -14 -266q0 -83 6 -133h-47q-31 197 -114.5 277.5t-233.5 80.5h-410q-40 0 -189.5 3t-237.5 3 q-220 0 -323 -6z" />
<glyph unicode="&#x427;" horiz-adv-x="1537" d="M20 1408v42q154 -7 315 -7q148 0 302 7v-42q-87 -2 -114.5 -33t-27.5 -131v-390q0 -65 7 -105t28 -72t61.5 -45.5t106.5 -13.5q169 0 291 48v567q0 58 -5 89.5t-23.5 51.5t-46 26.5t-79.5 8.5v41q105 -6 324 -6q199 0 309 6v-41q-53 -2 -80 -8.5t-45.5 -26.5t-23.5 -51 t-5 -90v-1016q0 -59 5 -90t23.5 -51t45.5 -26.5t80 -8.5v-41q-178 6 -325 6q-205 0 -373 -6v45q49 1 80 3.5t57.5 10t40.5 19t24 33t13.5 49t3.5 69.5v399q-66 -29 -174 -52t-220 -23q-189 0 -303 72q-69 43 -95.5 108.5t-26.5 177.5v333q0 100 -29.5 131t-120.5 33z" />
<glyph unicode="&#x428;" horiz-adv-x="2296" d="M69 0v41q52 2 79 8.5t45.5 26.5t23.5 51.5t5 89.5v1016q0 58 -5 89.5t-23.5 51.5t-45.5 26.5t-79 8.5v41q103 -6 323 -6q186 0 289 6v-41q-60 -3 -86 -16.5t-36.5 -48t-10.5 -111.5v-1016q0 -111 30.5 -143.5t135.5 -32.5h105q105 0 135.5 32.5t30.5 143.5v1016 q0 59 -4 90t-20 51t-39.5 26.5t-69.5 8.5v41q103 -6 289 -6q204 0 303 6v-41q-46 -2 -69.5 -8.5t-39.5 -26.5t-20 -51t-4 -90v-1016q0 -109 32.5 -141t133.5 -35h105q105 0 135.5 32.5t30.5 143.5v1016q0 59 -4 90t-20 51t-39.5 26.5t-69.5 8.5v41q103 -6 288 -6 q219 0 324 6v-41q-53 -2 -80 -8.5t-45.5 -26.5t-23.5 -51t-5 -90v-1016q0 -59 5 -90t23.5 -51t45.5 -26.5t80 -8.5v-41q-101 6 -311 6q-69 0 -201.5 -3t-186.5 -3q-46 0 -179 3t-194 3q-66 0 -198.5 -3t-185.5 -3q-55 0 -189 3t-202 3q-210 0 -311 -6z" />
<glyph unicode="&#x429;" horiz-adv-x="2298" d="M69 0v41q52 2 79 8.5t45.5 26.5t23.5 51.5t5 89.5v1016q0 58 -5 89.5t-23.5 51.5t-45.5 26.5t-79 8.5v41q103 -6 323 -6q186 0 289 6v-41q-60 -3 -86 -16.5t-36.5 -48t-10.5 -111.5v-1016q0 -111 30.5 -143.5t135.5 -32.5h97q105 0 135.5 32.5t30.5 143.5v1016 q0 59 -4 90t-20 51t-39.5 26.5t-69.5 8.5v41q103 -6 289 -6q204 0 303 6v-41q-46 -2 -69.5 -8.5t-39.5 -26.5t-20 -51t-4 -90v-1016q0 -110 32.5 -143t132.5 -33h97q105 0 135.5 32t30.5 144v1016q0 59 -4 90t-20 51t-39.5 26.5t-69.5 8.5v41q103 -6 289 -6q219 0 324 6v-41 q-53 -2 -80 -8.5t-45.5 -26.5t-23.5 -51t-5 -90v-1016q0 -112 28 -144t126 -32h62q-14 -148 -14 -266q0 -83 6 -133h-47q-31 197 -115 277.5t-234 80.5h-349q-47 0 -179.5 3t-194.5 3q-66 0 -198 -3t-185 -3q-50 0 -182 3t-201 3q-210 0 -311 -6z" />
<glyph unicode="&#x42a;" horiz-adv-x="1620" d="M43 1450q146 -6 496 -6q305 0 489 6v-41q-58 -2 -88 -8.5t-50.5 -26.5t-26 -51t-5.5 -90v-371l121 1q129 0 232 -23.5t170 -63t111 -94.5t62.5 -115.5t18.5 -128.5q0 -71 -20 -134t-65.5 -119t-112 -96.5t-165.5 -64t-221 -23.5q-23 0 -124.5 2.5t-177.5 2.5 q-204 0 -309 -6v41q52 2 79.5 8.5t46 26.5t23.5 51.5t5 89.5v1186h-70q-73 0 -131 -21.5t-106.5 -69t-81 -130.5t-45.5 -199h-47q6 71 6 180q0 155 -14 287zM858 217q0 -108 22.5 -142t97.5 -34q73 0 124 26t79 77.5t40 118.5t12 158q0 93 -13.5 163t-45 125.5t-89 84.5 t-139.5 29h-88v-606z" />
<glyph unicode="&#x42b;" horiz-adv-x="2057" d="M69 0v41q52 2 79 8.5t45.5 26.5t23.5 51.5t5 89.5v1016q0 58 -5 89.5t-23.5 51.5t-45.5 26.5t-79 8.5v41q103 -6 323 -6q210 0 326 6v-41q-58 -2 -88 -8.5t-50.5 -26.5t-26 -51t-5.5 -90v-371l121 1q130 0 232.5 -21.5t169.5 -59t111 -90.5t62.5 -112.5t18.5 -129.5 q0 -73 -20 -138t-65.5 -122.5t-112 -99t-165.5 -65.5t-221 -24q-23 0 -124 2.5t-177 2.5q-206 0 -309 -6zM548 217q0 -108 22.5 -142t97.5 -34q74 0 124.5 26t78.5 78t40 118t12 158q0 94 -13.5 163.5t-45 125t-89 84.5t-139.5 29h-88v-606zM1355 0v41q53 2 80 8.5 t45.5 26.5t23.5 51t5 90v1016q0 77 -12.5 112t-43 48t-98.5 16v41q105 -6 324 -6q198 0 309 6v-41q-53 -2 -80 -8.5t-45.5 -26.5t-23.5 -51t-5 -90v-1016q0 -58 5 -89.5t23.5 -51.5t46 -26.5t79.5 -8.5v-41q-111 6 -309 6q-219 0 -324 -6z" />
<glyph unicode="&#x42c;" horiz-adv-x="1311" d="M69 0v41q52 2 79 8.5t45.5 26.5t23.5 51.5t5 89.5v1016q0 58 -5 89.5t-23.5 51.5t-45.5 26.5t-79 8.5v41q103 -6 323 -6q210 0 326 6v-41q-58 -2 -88 -8.5t-50.5 -26.5t-26 -51t-5.5 -90v-371l121 1q130 0 232.5 -21.5t169.5 -59t111 -90.5t62.5 -112.5t18.5 -129.5 q0 -73 -20 -138t-65.5 -122.5t-112 -99t-165.5 -65.5t-221 -24q-23 0 -124 2.5t-177 2.5q-206 0 -309 -6zM548 217q0 -108 22.5 -142t97.5 -34q74 0 124.5 26t78.5 78t40 118t12 158q0 94 -13.5 163.5t-45 125t-89 84.5t-139.5 29h-88v-606z" />
<glyph unicode="&#x42d;" horiz-adv-x="1445" d="M116 0q8 123 8 442h47q23 -121 55.5 -193t95.5 -124q47 -48 115.5 -73.5t138.5 -25.5q107 0 188.5 57t130 156t73 222t24.5 265q0 49 -1 73q-34 -115 -97.5 -175.5t-136.5 -60.5q-50 0 -101 22.5t-86.5 49.5t-83 49.5t-89.5 22.5q-44 0 -84 -30t-57 -95l-34 8 q26 160 94 244t156 84q50 0 100.5 -22.5t85.5 -49t83 -49t94 -22.5q101 0 153 91q-6 96 -21.5 176.5t-44 154t-69 124t-100.5 80.5t-135 30q-78 0 -156.5 -26t-126.5 -75q-73 -61 -105 -135.5t-49 -215.5h-47q0 321 -9 471h47q6 -64 18 -92.5t34 -28.5q16 0 41 17 q182 133 402 133q322 0 506 -201.5t184 -550.5q0 -346 -197 -551t-528 -205q-121 0 -206 34.5t-171 98.5q-24 18 -41 18q-41 0 -51 -122h-47z" />
<glyph unicode="&#x42e;" horiz-adv-x="2211" d="M69 0v41q52 2 79 8.5t45.5 26.5t23.5 51t5 90v1016q0 58 -5 89.5t-23.5 51.5t-45.5 26.5t-79 8.5v41q103 -6 323 -6q199 0 310 6v-41q-53 -2 -80 -8.5t-45.5 -26.5t-23.5 -51t-5 -90v-487h217q7 217 95 384t240.5 258t344.5 91q309 0 493.5 -197.5t184.5 -544.5 q0 -226 -86.5 -400.5t-241.5 -270t-352 -95.5q-202 0 -354 86t-237.5 253t-86.5 395h-217v-488q0 -58 5 -89.5t23.5 -51.5t46 -26.5t79.5 -8.5v-41q-111 6 -310 6q-220 0 -323 -6zM1105 721q0 -320 99.5 -516.5t246.5 -196.5q100 0 175.5 91.5t116 255t40.5 374.5 q0 213 -46.5 377t-125 250t-174.5 86q-99 0 -175 -91.5t-116.5 -255t-40.5 -374.5z" />
<glyph unicode="&#x42f;" horiz-adv-x="1428" d="M-38 90l28 25q39 -47 84 -47q38 0 58 32t37 115l42 211q25 126 116.5 185.5t274.5 82.5l11 2q-128 14 -219.5 50.5t-141 90t-71.5 113t-22 129.5q0 178 142.5 273.5t425.5 95.5q15 0 129.5 -2t191.5 -2q208 0 311 6v-41q-52 -2 -79 -8.5t-45.5 -26.5t-23.5 -51.5 t-5 -89.5v-1016q0 -59 5 -90t23.5 -51t45.5 -26.5t79 -8.5v-41q-103 6 -323 6q-200 0 -309 -6v41q52 2 79 8.5t45.5 26.5t23.5 51.5t5 89.5v471h-149q-37 0 -66 -14.5t-48 -37.5t-34 -63.5t-24 -79t-19 -96.5l-37 -204q-21 -122 -89.5 -172t-184.5 -50q-88 0 -151.5 28 t-115.5 91zM499 1075q0 -79 12.5 -137t43 -107.5t90.5 -75.5t147 -26h88v504q0 107 -24 141.5t-103 34.5q-135 0 -194.5 -85t-59.5 -249z" />
<glyph unicode="&#x430;" horiz-adv-x="1284" d="M-23 0v41q51 10 92 61.5t88 158.5l433 988q32 -2 47 -2q17 0 47 2l487 -1077q59 -128 129 -131v-41q-96 6 -269 6q-219 0 -323 -6v41q68 3 100.5 20.5t32.5 57.5q0 35 -27 94l-102 233h-430l-24 -55q-58 -132 -58 -211q0 -71 45 -102.5t133 -36.5v-41q-117 6 -235 6 q-109 0 -166 -6zM300 487h394l-196 449z" />
<glyph unicode="&#x431;" horiz-adv-x="1301" d="M70 0v41q68 3 98.5 16t43 48t12.5 112v811q0 78 -12 112.5t-42 47.5t-100 16v41q93 -6 282 -6q92 0 232.5 2t143.5 2q265 0 387 2q-14 -137 -14 -246q0 -81 6 -127h-47q-31 177 -107 251.5t-209 74.5h-92q-67 0 -91 -25.5t-24 -107.5v-353h80q322 0 470 -86.5t148 -257.5 q0 -177 -133.5 -272t-400.5 -95q-18 0 -142 2.5t-213 2.5q-183 0 -276 -6zM537 217q0 -107 22.5 -140.5t97.5 -33.5q132 0 191 78t59 237q0 71 -14 125.5t-46 98.5t-89.5 67.5t-139.5 23.5h-81v-456z" />
<glyph unicode="&#x432;" horiz-adv-x="1330" d="M70 0v41q53 2 80 8.5t45.5 26.5t23.5 51t5 90v811q0 59 -5 91t-24 51.5t-45.5 25.5t-79.5 8v41q93 -6 274 -6q79 0 194.5 2t131.5 2q485 0 485 -280q0 -106 -85.5 -180t-278.5 -115v-4q133 -14 227.5 -45t146 -75.5t74.5 -95t23 -112.5q0 -158 -141.5 -247t-403.5 -89 q-19 0 -142.5 3t-225.5 3q-186 0 -279 -6zM537 217q0 -107 20.5 -138.5t88.5 -31.5q149 0 218.5 75t69.5 222q0 143 -70 216t-225 73h-102v-416zM537 668h68q68 0 114.5 20t71 59t35 85t10.5 108q0 133 -45.5 198.5t-147.5 65.5q-65 0 -85.5 -34.5t-20.5 -141.5v-360z" />
<glyph unicode="&#x433;" horiz-adv-x="1129" d="M70 0v41q53 2 80 8.5t45.5 26.5t23.5 51t5 90v811q0 78 -12 112.5t-42 47.5t-100 16v41q285 -6 309 -6h37q66 0 168 2t129 2q244 0 359 2q-15 -162 -15 -299q0 -102 6 -168h-47q-32 229 -112 324.5t-228 95.5h-21q-69 0 -93.5 -25.5t-24.5 -108.5v-835q0 -58 10 -93 t37 -56t66 -29t106 -10v-41q-126 6 -362 6q-219 0 -324 -6z" />
<glyph unicode="&#x434;" horiz-adv-x="1323" d="M9 41h57q197 0 286 290q56 181 85 567q3 29 10 130q2 36 2 48q0 74 -34 99t-134 29v41q67 -5 199 -5q21 0 63.5 2.5t75.5 2.5q80 0 171.5 -3t133.5 -3q200 0 306 6v-41q-70 -3 -100 -16t-42 -47.5t-12 -112.5v-811q0 -112 28 -144t126 -32h62q-14 -148 -14 -266 q0 -83 6 -133h-47q-31 197 -115 277.5t-234 80.5h-476q-150 0 -234 -80.5t-114 -277.5h-47q6 50 6 133q0 118 -14 266zM216 41h387q99 0 129.5 32.5t30.5 143.5v811q0 113 -22 144.5t-99 31.5h-27q-75 0 -93 -29.5t-28 -146.5q-4 -44 -10.5 -129t-11.5 -144t-15 -144 t-22 -146t-32 -133t-45 -123t-61.5 -96.5t-80.5 -71.5z" />
<glyph unicode="&#x435;" horiz-adv-x="1248" d="M70 0v41q53 2 80 8.5t45.5 26.5t23.5 51t5 90v811q0 77 -12.5 112t-42.5 48t-99 16v41q213 -6 635 -6q287 0 407 6q-14 -137 -14 -246q0 -81 6 -127h-47q-31 177 -106.5 251.5t-208.5 74.5h-76q-77 0 -103 -24.5t-26 -108.5v-418h96q51 0 90 21.5t62 58t35.5 70 t19.5 71.5h47q-7 -80 -7 -159q0 -17 0.5 -44t0.5 -38q0 -92 12 -242h-47q-14 97 -64.5 159t-148.5 62h-96v-426q0 -84 26 -108.5t103 -24.5h88q146 0 228.5 83.5t115.5 283.5h47q-6 -57 -6 -148q0 -118 14 -266q-133 6 -448 6q-422 0 -635 -6z" />
<glyph unicode="&#x436;" horiz-adv-x="2064" d="M20 90l28 25q22 -25 40 -36t44 -11q33 0 54 30.5t43 116.5l50 188q18 70 59.5 120t102 78.5t122 43t137.5 21.5l-379 372q-140 136 -278 168v39q72 -6 182 -6q168 0 315 6v-39q-65 -2 -105 -32.5t-40 -79.5q0 -66 75 -144l109 -119q70 -75 139 -109.5t154 -44.5v356 q0 77 -12.5 112t-42.5 48t-99 16v41q101 -6 317 -6q197 0 304 6v-41q-70 -3 -100 -16t-42 -47.5t-12 -112.5v-356q85 10 153.5 44.5t138.5 109.5l110 119q75 78 75 144q0 49 -40 79.5t-106 32.5v39q148 -6 316 -6q108 0 182 6v-39q-140 -32 -278 -168l-376 -369q36 -3 74 -9 q139 -22 227 -82.5t119 -174.5l48 -188q23 -86 43 -116.5t54 -30.5q44 0 83 47l29 -25q-52 -61 -116 -90t-152 -29q-113 0 -180.5 47.5t-94.5 174.5l-60 276q-22 88 -65 128t-141 40h-43v-415q0 -59 5 -90t23.5 -51t45.5 -26.5t80 -8.5v-41q-107 6 -304 6q-217 0 -317 -6v41 q53 2 80 8.5t45.5 26.5t23.5 51t5 90v415h-49q-99 0 -142.5 -40t-63.5 -128l-60 -276q-27 -127 -94.5 -174.5t-181.5 -47.5q-164 0 -261 119z" />
<glyph unicode="&#x437;" horiz-adv-x="1133" d="M53 197q0 63 42 103.5t114 40.5t117.5 -39.5t45.5 -104.5q0 -55 -34 -93t-89 -52q20 -18 71.5 -30t107.5 -12q158 0 235.5 86t77.5 232q0 117 -47.5 200.5t-136.5 109.5q-32 9 -70 9q-50 -26 -87 -26q-44 0 -44 34q0 33 45 33q30 0 88 -12q95 34 133.5 106.5t38.5 190.5 q0 126 -42.5 186t-137.5 60q-130 0 -207.5 -101t-87.5 -268h-47q0 290 -10 410h47q7 -49 16.5 -70t31.5 -21q21 0 66 28q34 19 49.5 26.5t53.5 22.5t81.5 21.5t97.5 6.5q186 0 301.5 -71.5t115.5 -198.5q0 -72 -39 -132t-106 -100.5t-148.5 -67t-175.5 -38.5q107 0 202 -19 t174 -57t125 -103t46 -149q0 -171 -160 -269t-435 -98q-205 0 -318 68q-101 59 -101 158z" />
<glyph unicode="&#x438;" horiz-adv-x="1641" d="M70 0v41q53 2 80 8.5t45.5 26.5t23.5 51t5 90v811q0 77 -12.5 112t-42.5 48t-99 16v41q98 -6 299 -6q208 0 322 6v-41q-70 -3 -100 -16t-42 -47.5t-12 -112.5v-778l567 803q-1 49 -7.5 76.5t-25.5 44t-45 22.5t-75 8v41q113 -6 321 -6q69 0 174 3t125 3v-41 q-69 -3 -99 -16t-42 -47.5t-12 -112.5v-811q0 -58 5 -89.5t23.5 -51.5t45.5 -26.5t79 -8.5v-41q-96 6 -299 6q-208 0 -321 -6v41q52 2 79 8.5t45.5 26.5t23.5 51t5 90v758l-566 -802q4 -80 33.5 -104t119.5 -28v-41q-114 6 -322 6q-201 0 -299 -6z" />
<glyph unicode="&#x439;" horiz-adv-x="1641" d="M70 0v41q53 2 80 8.5t45.5 26.5t23.5 51t5 90v811q0 77 -12.5 112t-42.5 48t-99 16v41q98 -6 299 -6q208 0 322 6v-41q-70 -3 -100 -16t-42 -47.5t-12 -112.5v-778l567 803q-1 49 -7.5 76.5t-25.5 44t-45 22.5t-75 8v41q113 -6 321 -6q69 0 174 3t125 3v-41 q-69 -3 -99 -16t-42 -47.5t-12 -112.5v-811q0 -58 5 -89.5t23.5 -51.5t45.5 -26.5t79 -8.5v-41q-96 6 -299 6q-208 0 -321 -6v41q52 2 79 8.5t45.5 26.5t23.5 51t5 90v758l-566 -802q4 -80 33.5 -104t119.5 -28v-41q-114 6 -322 6q-201 0 -299 -6zM342 1636q0 58 45 97 t116 39q72 0 119 -38.5t47 -99.5q0 -51 -35 -85t-91 -48q105 -48 281 -48q174 0 279 49q-57 14 -90 48t-33 84q0 61 46.5 99.5t117.5 38.5q70 0 116.5 -38.5t46.5 -97.5q0 -90 -123 -152q-144 -72 -360 -72q-218 0 -362 72q-120 61 -120 152z" />
<glyph unicode="&#x43a;" horiz-adv-x="1450" d="M70 0v41q53 2 80 8.5t45.5 26.5t23.5 51t5 90v811q0 77 -12.5 112t-42.5 48t-99 16v41q100 -6 317 -6q197 0 304 6v-41q-70 -3 -100 -16t-42 -47.5t-12 -112.5v-352q86 9 153.5 42.5t138.5 108.5l115 123q72 78 72 144q0 49 -38.5 79.5t-102.5 32.5v39q147 -6 298 -6 q127 0 200 6v-39q-143 -33 -279 -168l-377 -371q81 -6 146 -19.5t129.5 -41.5t109 -79.5t62.5 -123.5l49 -188q22 -86 43 -116.5t54 -30.5q42 0 83 47l28 -25q-52 -62 -115.5 -90.5t-153.5 -28.5q-73 0 -123 16.5t-90.5 67t-59.5 138.5l-53 237q-9 40 -17.5 66t-26.5 55 t-42 46t-63 28.5t-91 11.5h-49v-420q0 -59 5 -90t23.5 -51t45.5 -26.5t80 -8.5v-41q-107 6 -304 6q-217 0 -317 -6z" />
<glyph unicode="&#x43b;" horiz-adv-x="1426" d="M-7 163q0 78 53.5 126t134.5 48q68 0 108.5 -35t40.5 -98q0 -66 -45.5 -115.5t-117.5 -67.5q22 -11 55 -11q188 0 271 326q48 190 75 599q2 25 6 93q2 32 2 45q0 77 -33.5 102t-134.5 29v41q67 -5 194 -5q28 0 70.5 2.5t99.5 2.5t146 -3t156 -3q176 0 282 6v-41 q-69 -3 -99 -16t-42 -47.5t-12 -112.5v-811q0 -59 5 -90t23.5 -51t45.5 -26.5t79 -8.5v-41q-102 6 -307 6q-209 0 -313 -6v41q52 2 79 8.5t45.5 26.5t23.5 51t5 90v811q0 113 -22 144.5t-99 31.5h-26q-75 0 -93.5 -29.5t-28.5 -146.5q-4 -47 -10.5 -132t-11 -142.5 t-13.5 -140.5t-18.5 -141.5t-25.5 -130.5t-35.5 -121.5t-48 -100t-62.5 -80.5t-79.5 -49t-98.5 -19q-94 0 -159 52.5t-65 139.5z" />
<glyph unicode="&#x43c;" horiz-adv-x="1807" d="M61 1204v41q110 -6 326 -6q107 0 183 6l339 -816l342 810h183q200 0 309 6v-41q-74 -3 -106.5 -16t-46 -48t-13.5 -112v-811q0 -77 13.5 -112t46 -48t106.5 -16v-41q-109 6 -309 6q-236 0 -349 -6v41q56 2 85.5 8.5t49.5 26.5t25.5 51.5t5.5 89.5v899l-469 -1126h-32 l-476 1124v-840q0 -131 39.5 -175.5t171.5 -57.5v-41q-90 6 -233 6q-115 0 -178 -6v41q97 13 125 57t28 176v754q0 59 -5.5 90.5t-25.5 51t-49 26t-86 8.5z" />
<glyph unicode="&#x43d;" horiz-adv-x="1600" d="M70 0v41q53 2 80 8.5t45.5 26.5t23.5 51t5 90v811q0 77 -12.5 112t-42.5 48t-99 16v41q98 -6 299 -6q208 0 322 6v-41q-70 -3 -100 -16t-42 -47.5t-12 -112.5v-373h526v373q0 59 -5 90.5t-23.5 51t-45.5 26t-79 8.5v41q112 -6 321 -6q203 0 299 6v-41q-69 -3 -99 -16 t-42 -47.5t-12 -112.5v-811q0 -58 5 -89.5t23.5 -51.5t45.5 -26.5t79 -8.5v-41q-96 6 -299 6q-209 0 -321 -6v41q52 2 79 8.5t45.5 26.5t23.5 51t5 90v397h-526v-397q0 -58 5 -89.5t23.5 -51.5t46 -26.5t79.5 -8.5v-41q-114 6 -322 6q-201 0 -299 -6z" />
<glyph unicode="&#x43e;" horiz-adv-x="1555" d="M86 610q0 196 88.5 347.5t246 234t358.5 82.5q207 0 362 -74t241.5 -219.5t86.5 -345.5q0 -296 -193.5 -480t-498.5 -184q-315 0 -503 169t-188 470zM414 618q0 -274 106.5 -442t264.5 -168q161 0 258.5 172t97.5 447q0 274 -106.5 442t-264.5 168q-161 0 -258.5 -172 t-97.5 -447z" />
</font>
</defs>
</svg>
