<?xml version="1.0" standalone="no"?>
<!DOCTYPE svg PUBLIC "-//W3C//DTD SVG 1.1//EN" "http://www.w3.org/Graphics/SVG/1.1/DTD/svg11.dtd" >
<svg xmlns="http://www.w3.org/2000/svg" xmlns:xlink="http://www.w3.org/1999/xlink" version="1.1">
<metadata></metadata>
<defs>
<font id="playfair_display_scBdIt" horiz-adv-x="0" >
<font-face units-per-em="2048" ascent="1650" descent="-398" />
<missing-glyph horiz-adv-x="421" />
<glyph unicode="Th" horiz-adv-x="1945" d="M144 966q0 109 107 160q80 40 221 40q114 0 318 -26.5t295 -26.5q123 0 200 28l35 126q142 11 246 46l-220 -806q88 207 176 288.5t206 81.5q67 0 102.5 -32.5t37.5 -88t-21 -128.5l-162 -488q-14 -38 -8.5 -60t31.5 -22q57 0 102 130l30 80h31l-41 -121 q-59 -170 -221 -170q-104 0 -136.5 68t10.5 194l147 446q37 109 -18 109q-78 0 -183 -189.5t-197 -516.5l-25 -88h-233l301 1105q-82 -25 -205 -25q-63 0 -162 12l-237 -900q-23 -91 0.5 -122.5t122.5 -36.5l-6 -33q-115 5 -306 5q-185 0 -290 -5l6 33q103 4 144 35.5 t66 123.5l248 931q-102 13 -179 13q-133 0 -186 -28q45 -13 72.5 -48.5t27.5 -85.5q0 -58 -36 -98t-92 -40t-87.5 37t-31.5 93z" />
<glyph unicode="&#xd;" />
<glyph unicode=" "  horiz-adv-x="421" />
<glyph unicode="&#x09;" horiz-adv-x="421" />
<glyph unicode="&#xa0;" horiz-adv-x="421" />
<glyph unicode="!" horiz-adv-x="518" d="M41 84q2 63 48 105t111 42q55 0 84.5 -29t27.5 -80q-4 -58 -51.5 -101.5t-110.5 -43.5q-55 0 -84 28.5t-25 78.5zM197 329q29 115 43 240t22 266t14 199q2 47 12 90t29 82t53 62.5t78 23.5q58 0 86.5 -35t23.5 -98q-7 -70 -48 -171.5t-90.5 -195.5t-106.5 -225t-87 -243z " />
<glyph unicode="&#x22;" horiz-adv-x="645" d="M239 1074q4 56 40.5 94t90.5 38q38 0 60 -21t24 -57q0 -43 -27 -92.5t-73 -115.5t-70 -114h-23q-1 69 -13.5 150t-8.5 118zM507 1074q4 56 40.5 94t90.5 38q40 0 62 -21t22 -57q0 -43 -27 -92.5t-73 -115.5t-70 -114h-23q-1 69 -13.5 150t-8.5 118z" />
<glyph unicode="#" horiz-adv-x="1032" d="M50 408l14 33h243l129 276h-243l13 33h245l112 244h40l-112 -244h269l112 244h40l-113 -244h235l-13 -33h-236l-129 -276h236l-17 -33h-234l-112 -241h-40l112 241h-269l-112 -241h-40l112 241h-242zM347 441h269l129 276h-269z" />
<glyph unicode="$" horiz-adv-x="1007" d="M5 254q0 71 35 120.5t92 49.5q55 0 87 -39t32 -101q0 -90 -78 -210q35 -27 96 -46l134 482q-92 87 -142.5 164t-50.5 168q0 89 34 157.5t91 108t121.5 60.5t136.5 24l54 195h37l-55 -195q78 -4 113 -11l57 206h37l-60 -214q64 -17 139 -65q50 -32 79.5 -82t29.5 -111 q0 -71 -35 -120.5t-92 -49.5q-54 0 -85.5 39t-31.5 101q0 95 75 210q-33 26 -89 45l-124 -450q49 -43 74 -66t64 -65t59 -74t35.5 -74t15.5 -84q0 -74 -28 -134t-73 -98.5t-105 -65t-119 -38t-121 -14.5l-54 -195h-37l55 195q-67 0 -114 10l-56 -205h-37l60 213 q-75 19 -147 66q-109 69 -109 193zM304 21q32 -8 94 -8h20l105 383q-28 28 -90 88zM433 983q0 -70 61 -147l87 317q-67 -12 -107.5 -55t-40.5 -115zM454 17q177 19 177 176q0 78 -79 172zM522 804q17 -20 91 -87l119 431q-43 10 -101 10q-9 0 -12 -2z" />
<glyph unicode="%" horiz-adv-x="1314" d="M8 -69l1376 1430l25 -22l-1376 -1430zM185 910q0 61 28.5 123t76.5 112t118.5 81t148.5 31q101 0 157 -50.5t56 -141.5q0 -83 -46.5 -162t-133.5 -132t-190 -53q-101 0 -158 50.5t-57 141.5zM355 849q0 -106 56 -106q57 0 102.5 70.5t66 156.5t20.5 158q0 49 -15 76.5 t-42 27.5q-57 0 -102 -70t-65.5 -156t-20.5 -157zM614 168q0 61 28.5 123t77 112t119 81t147.5 31q101 0 157 -50t56 -141q0 -83 -46.5 -162t-133.5 -132t-190 -53q-100 0 -157.5 50t-57.5 141zM784 107q0 -105 57 -105t102 70t65.5 156t20.5 158q0 105 -56 105 q-43 0 -80.5 -41.5t-60 -102.5t-35.5 -125t-13 -115z" />
<glyph unicode="&#x26;" horiz-adv-x="1425" d="M48 339q0 160 120.5 278.5t323.5 162.5q-73 25 -109 70t-36 101q0 66 49 115t120.5 71t152.5 22q101 0 154.5 -36t53.5 -96q0 -55 -39.5 -85t-87.5 -30v29q39 0 65 22.5t26 58.5q0 40 -33 64t-86 24q-91 0 -158 -67t-67 -169q0 -46 18 -85q57 10 104 10q60 0 60 -34 q0 -17 -15 -26t-36 -9q-45 0 -114 36q-88 -32 -145.5 -128.5t-57.5 -213.5q0 -148 99 -226.5t274 -78.5q117 0 215 32.5t162.5 103.5t64.5 171t-61 165q-53 -19 -154.5 -52.5t-139.5 -46.5q-73 -25 -114 -58.5t-41 -83.5q0 -46 34 -68.5t83 -22.5q64 0 109.5 33.5t64.5 69.5 l25 -14q-24 -48 -75.5 -84t-129.5 -36q-82 0 -140.5 46t-58.5 141q0 198 290 292q1 0 176.5 57t257.5 88q37 14 58 22.5t52 25.5t47.5 33.5t29.5 41.5t13 54q0 62 -47 99.5t-117 37.5q-31 0 -48 -10q73 -30 73 -97q0 -52 -45.5 -85.5t-103.5 -33.5q-52 0 -85.5 28.5 t-33.5 75.5q0 85 103 125q55 23 134 23q103 0 163.5 -52t60.5 -167q0 -125 -76.5 -202.5t-237.5 -134.5l-102 -36q71 -77 71 -189q0 -63 -23 -125t-72.5 -118t-118.5 -98.5t-168.5 -67.5t-215.5 -25q-230 0 -372.5 94.5t-142.5 267.5z" />
<glyph unicode="'" horiz-adv-x="376" d="M239 1074q4 56 40.5 94t90.5 38q38 0 60 -21t24 -57q0 -43 -27 -92.5t-73 -115.5t-70 -114h-23q-1 69 -13.5 150t-8.5 118z" />
<glyph unicode="(" horiz-adv-x="654" d="M59 368q0 135 58.5 273t163 261.5t245.5 233t308 195.5l17 -21q-133 -95 -232.5 -196t-176.5 -222.5t-116.5 -266.5t-39.5 -310q0 -169 34.5 -311t107.5 -283l-30 -22q-111 103 -181 194.5t-114 213t-44 261.5z" />
<glyph unicode=")" horiz-adv-x="655" d="M-180 -279q133 96 232.5 196.5t176.5 221.5t116.5 266t39.5 310q0 169 -34.5 311.5t-107.5 283.5l29 21q111 -103 181 -194.5t114 -213t44 -261.5q0 -135 -58.5 -273t-163 -261.5t-245.5 -233t-308 -195.5z" />
<glyph unicode="*" horiz-adv-x="799" d="M152 680q-10 29 4.5 60t59.5 54q28 14 61.5 22.5t101 19.5t105.5 18q-34 8 -96 19t-93.5 19.5t-50.5 22.5q-24 16 -30.5 37t0 40t21.5 37q22 29 52 38t70 -13q21 -13 39 -38t46 -72.5t50 -79.5q-3 28 -10 77.5t-9 67t-3.5 57.5t4.5 49q12 46 40 67.5t62 21.5t52 -21.5 t6 -67.5q-6 -28 -22 -59.5t-51.5 -91.5t-55.5 -97q26 23 66 60.5t60.5 56.5t47 39.5t46.5 31.5q51 21 76.5 12.5t35.5 -36.5q11 -29 -3.5 -60t-60.5 -54q-28 -14 -60.5 -22.5t-99.5 -19.5t-104 -18q33 -8 94 -19t92 -19.5t50 -22.5q24 -16 31.5 -37t1 -40t-22.5 -37 q-22 -29 -52.5 -38t-68.5 13q-21 14 -38.5 36.5t-47.5 72t-48 76.5q3 -29 9.5 -77t8 -65.5t3.5 -55.5t-4 -48q-12 -46 -40 -67.5t-62 -21.5t-52 21.5t-8 67.5q5 22 19 50.5t27.5 51.5t42 70t46.5 79q-32 -28 -85 -77.5t-83 -74.5t-56 -39q-89 -43 -114 24z" />
<glyph unicode="+" horiz-adv-x="949" d="M81 562l15 49h385l110 390h60l-111 -390h383l-15 -49h-383l-110 -389h-60l111 389h-385z" />
<glyph unicode="," horiz-adv-x="474" d="M-5 66q0 67 51 116t121 49q109 0 109 -119q0 -105 -65.5 -195.5t-180.5 -141.5l-9 27q75 38 124.5 96.5t54.5 126.5q-45 -48 -103 -48q-102 0 -102 89z" />
<glyph unicode="-" horiz-adv-x="835" d="M88 368l36 137h596l-36 -137h-596z" />
<glyph unicode="." horiz-adv-x="460" d="M-2 84q4 63 50 105t111 42q55 0 84.5 -29t25.5 -80q-4 -58 -50.5 -101.5t-109.5 -43.5q-54 0 -83.5 28.5t-27.5 78.5z" />
<glyph unicode="/" horiz-adv-x="761" d="M-73 -23l905 1215h55l-905 -1215h-55z" />
<glyph unicode="0" horiz-adv-x="1025" d="M40 279q0 147 79.5 285t217 225.5t292.5 87.5q153 0 239.5 -80t86.5 -221q0 -110 -47.5 -218.5t-126 -192.5t-188 -136t-225.5 -52q-152 0 -240 79.5t-88 222.5zM281 246q0 -123 31 -181t83 -58q92 0 166.5 93.5t113 231.5t38.5 281q0 121 -29.5 177.5t-80.5 56.5 q-90 0 -165.5 -91t-116 -228t-40.5 -282z" />
<glyph unicode="1" horiz-adv-x="612" d="M74 628l5 34q112 28 207.5 68t145 69t115.5 73h33l-260 -872h-232l206 697q-81 -33 -220 -69z" />
<glyph unicode="2" horiz-adv-x="883" d="M-41 0l8 35q23 19 89.5 68t125 93t131 109t123.5 124.5t86.5 131t35.5 136.5t-33 99.5t-92 34.5q-99 0 -191.5 -81t-92.5 -175q0 -41 22 -60.5t73 -19.5q44 0 77.5 16t74.5 52l20 -23q-83 -79 -183 -79q-51 0 -87.5 25t-36.5 87q0 54 31.5 108.5t85 98t132.5 70.5t167 27 q123 0 194.5 -46.5t71.5 -126.5q0 -59 -40.5 -118.5t-109.5 -112.5t-136.5 -96t-146.5 -90.5t-115 -73.5q38 0 143.5 -23t160.5 -23q65 0 102.5 20t37.5 59q0 50 -59 81l18 22q91 -48 91 -141q0 -89 -64.5 -153.5t-191.5 -64.5q-55 0 -159 24t-165 26q-59 2 -100 -7t-98 -33 z" />
<glyph unicode="3" horiz-adv-x="853" d="M-144 -249l9 29q80 5 162.5 25.5t162.5 59.5t142 90.5t100.5 124.5t38.5 156q0 66 -26.5 106t-74.5 44q-67 -28 -96 -28q-16 0 -24.5 5.5t-3.5 19.5q8 35 111 30q90 39 147.5 106.5t57.5 154.5q0 69 -40.5 108.5t-113.5 39.5q-90 0 -169 -62t-79 -134q0 -40 22.5 -59.5 t73.5 -19.5q58 0 102 24l19 -24q-64 -35 -133 -35q-51 0 -87 25t-36 87q0 95 116 175t275 80q124 0 196.5 -45t72.5 -121q0 -55 -35.5 -106t-93 -88t-121.5 -63.5t-131 -42.5q142 -2 228 -52t86 -151q0 -82 -56.5 -156t-148 -127.5t-205 -93.5t-229 -60t-219.5 -22z" />
<glyph unicode="4" horiz-adv-x="883" d="M-96 76l10 35l793 766h43l-200 -743h215l-17 -58h-213l-84 -309h-233l84 309h-398zM-15 134h332l117 436z" />
<glyph unicode="5" horiz-adv-x="779" d="M-145 -244l8 29q71 0 146.5 18.5t146.5 57t126.5 90.5t89.5 125t34 155q0 151 -155 151q-77 0 -162 -45l-16 8l228 511q47 3 127 -19.5t134 -22.5q104 0 151 75l20 -12q-91 -231 -246 -231q-33 0 -109.5 31.5t-109.5 26.5l-154 -331q105 58 256 58q143 0 212.5 -51.5 t69.5 -144.5q0 -89 -53.5 -167.5t-138.5 -133t-191.5 -95t-212.5 -61t-201 -22.5z" />
<glyph unicode="6" horiz-adv-x="936" d="M46 281q0 117 41 232t110 208.5t157 176t184 142t189.5 99t174.5 53.5l10 -33q-112 -30 -221.5 -112t-200.5 -203t-147.5 -289t-56.5 -352q0 -110 21 -151.5t65 -41.5q70 0 130 85t90.5 196.5t30.5 208.5q0 76 -23 111t-60 35q-42 0 -82 -41t-68 -129l-27 8 q68 239 270 239q105 0 169.5 -65t64.5 -184q0 -128 -72.5 -242.5t-197 -184.5t-267.5 -70q-284 0 -284 304z" />
<glyph unicode="7" horiz-adv-x="830" d="M69 633q0 93 65.5 161t194.5 68q73 0 195.5 -37t198.5 -39q54 -2 93.5 11.5t70.5 54.5h44q-32 -37 -92.5 -106.5t-88.5 -102.5t-77 -93t-74.5 -98t-61.5 -96t-58.5 -108.5t-46 -114.5t-41.5 -133q-13 -51 -20 -89t-8 -41q-10 -50 -48.5 -82t-98.5 -32q-127 0 -91 151 q19 83 77.5 179t145 193.5t166 178.5t178.5 177t145 146q-122 -82 -189 -114.5t-141 -32.5q-60 0 -137.5 25.5t-120.5 25.5q-54 0 -87 -24t-33 -73q0 -120 200 -167l-9 -26q-251 51 -251 238z" />
<glyph unicode="8" horiz-adv-x="949" d="M-5 193q0 65 36 127t98 112.5t132 90t152 72.5q-39 38 -60.5 61t-48 59.5t-38.5 74.5t-12 82q0 93 62.5 167.5t161.5 113.5t212 39q122 0 198.5 -44.5t76.5 -131.5q0 -180 -351 -345q6 -6 19 -17q47 -42 71 -66t56.5 -65t47 -84.5t14.5 -93.5q0 -105 -70 -190.5 t-184.5 -131.5t-247.5 -46q-143 0 -234 54t-91 162zM230 170q0 -78 28 -120.5t95 -42.5q96 0 170.5 81t74.5 196q0 62 -27 119.5t-57 91t-83 83.5q-90 -66 -145.5 -176t-55.5 -232zM464 928q0 -70 34.5 -125t97.5 -114q64 60 105 150.5t41 187.5q0 136 -93 136 q-73 0 -129 -70.5t-56 -164.5z" />
<glyph unicode="9" horiz-adv-x="914" d="M3 -277q86 23 172.5 78t165 140.5t139.5 191.5t97 240.5t36 277.5q0 110 -21 151.5t-65 41.5q-53 0 -102 -50.5t-80.5 -126t-50 -159.5t-18.5 -155q0 -145 81 -145q42 0 82 41t68 129l28 -8q-68 -240 -271 -240q-104 0 -168.5 65.5t-64.5 184.5q0 128 72.5 242.5 t197 184.5t267.5 70q284 0 284 -304q0 -135 -57 -266.5t-148 -233.5t-203 -185t-223.5 -133t-207.5 -66z" />
<glyph unicode=":" horiz-adv-x="513" d="M23 84q2 63 48 105t111 42q55 0 84.5 -29t27.5 -80q-4 -58 -51.5 -101.5t-110.5 -43.5q-55 0 -84 28.5t-25 78.5zM188 730q2 63 48 105t111 42q55 0 84.5 -29t27.5 -80q-4 -58 -51.5 -101.5t-110.5 -43.5q-55 0 -84 28.5t-25 78.5z" />
<glyph unicode=";" horiz-adv-x="525" d="M15 66q0 67 51 116t121 49q109 0 109 -119q0 -105 -65.5 -195.5t-180.5 -141.5l-9 27q76 38 125.5 96.5t54.5 126.5q-48 -48 -104 -48q-102 0 -102 89zM197 730q4 63 49.5 105t110.5 42q55 0 83.5 -29t26.5 -80q-4 -58 -51 -101.5t-109 -43.5q-55 0 -84.5 28.5 t-25.5 78.5z" />
<glyph unicode="&#x3c;" horiz-adv-x="981" d="M79 586l912 375l16 -48l-804 -333l547 -288l-27 -53z" />
<glyph unicode="=" horiz-adv-x="1073" d="M104 446l15 49h827l-15 -49h-827zM170 677l15 50h827l-14 -50h-828z" />
<glyph unicode="&#x3e;" horiz-adv-x="982" d="M79 304l760 317l-611 327l26 48l709 -382l-867 -358z" />
<glyph unicode="?" horiz-adv-x="802" d="M130 494q0 19 4.5 38.5t9 35t18 35t21 32t28.5 33t30.5 30t37 32t37 30.5t42.5 33.5t42 32.5q49 39 72 57.5t56 47.5t47.5 47t30.5 42t21.5 46.5t5.5 48.5q0 64 -35.5 102t-102.5 38q-37 0 -79 -12t-63 -37q44 0 80 -31.5t36 -76.5q-2 -49 -38 -83t-89 -34 q-49 0 -83 30.5t-34 81.5q0 68 56 115t130 65.5t155 18.5q134 0 225 -53.5t91 -151.5q0 -73 -66.5 -149.5t-227.5 -197.5q-165 -121 -215.5 -173.5t-50.5 -117.5q0 -47 28 -77t84 -30q82 0 128 43q-32 10 -56 37.5t-24 66.5q0 45 32 76t82 31q40 0 68 -26t28 -68 q0 -64 -52.5 -110t-120 -64.5t-136.5 -18.5q-112 0 -182.5 47t-70.5 138zM183 84q2 63 48 105t111 42q55 0 84.5 -29t27.5 -80q-4 -58 -51.5 -101.5t-110.5 -43.5q-55 0 -84 28.5t-25 78.5z" />
<glyph unicode="@" horiz-adv-x="1425" d="M46 258q0 119 35.5 235.5t105.5 219t166 181.5t225 124.5t274 45.5q241 0 383 -114t142 -337q0 -106 -33 -200t-87 -160t-120.5 -114.5t-134 -72t-127.5 -23.5q-157 0 -125 167q-84 -167 -233 -167q-87 0 -137.5 50.5t-50.5 150.5q0 86 36.5 182.5t95.5 176.5t141.5 133 t165.5 53q59 0 87 -28t30 -84l27 89q130 0 208 23l-175 -596q-15 -53 -8.5 -75t36.5 -22q29 0 73 19.5t96 63t97 101.5t75 146t30 187q0 108 -37 190t-104 132t-155 74.5t-196 24.5q-135 0 -258 -43t-215.5 -118.5t-160.5 -173t-103.5 -210.5t-35.5 -228q0 -125 43.5 -219.5 t120 -150t171 -82.5t205.5 -27q225 0 397 101l10 -22q-160 -107 -405 -107q-93 0 -176 17t-157 55t-127 95.5t-84 143.5t-31 193zM540 246q0 -64 16 -94t52 -30q53 0 98.5 65t92.5 199l66 223q11 123 -62 123q-55 0 -117 -72t-104 -187t-42 -227z" />
<glyph unicode="A" horiz-adv-x="1078" d="M-152 0l7 33q43 11 83.5 49t102.5 126l689 970q22 -2 43 -2t41 2l66 -1039q5 -54 28.5 -79t52.5 -27l-6 -33q-93 5 -240 5q-160 0 -248 -5l7 33q84 3 116 31q27 24 27 87q0 10 -1 21l-13 271h-359l-145 -207q-49 -70 -51 -115q0 -3 -1 -6q-1 -41 33 -59q36 -20 105 -23 l-8 -33q-153 5 -215 5q-56 0 -114 -5zM269 476h332l-25 436z" />
<glyph unicode="B" horiz-adv-x="1121" d="M-69 0l6 33q86 4 116.5 28.5t53.5 113.5l218 819q13 49 14 80t-24 46t-87 16l8 33q97 -5 251 -5q55 0 131 2t110 2q186 0 275 -57.5t89 -160.5q0 -130 -123 -223.5t-322 -112.5q180 -9 276 -79t96 -178q0 -114 -71 -195.5t-192.5 -121.5t-279.5 -40q-26 0 -119 2.5 t-170 2.5q-158 0 -256 -5zM356.5 95.5q0.5 -19.5 8.5 -31t25.5 -19t45.5 -7.5q145 0 226 99t81 249q0 95 -45.5 151t-144.5 56h-72l-111 -418q-7 -26 -10.5 -43t-3 -36.5zM487 621h58q89 0 155.5 52t99 131.5t32.5 171.5q0 78 -29 119t-98 41q-49 0 -71 -23t-41 -94z" />
<glyph unicode="C" horiz-adv-x="1144" d="M71 386q0 96 27 193.5t75.5 187t120.5 167.5t157.5 135t191 90t217.5 33q93 0 147 -28t100 -79q12 -14 23 -14q23 0 48 52l19 46h35q-55 -144 -106 -380h-36q12 71 12 126q0 83 -27 130q-58 108 -195 108q-133 0 -253 -117t-191 -302t-71 -381q0 -164 58.5 -245.5 t164.5 -81.5q63 0 131 28.5t117 80.5q43 46 75 103t73 158h37q-78 -283 -98 -396h-36q5 38 5 56q0 42 -22 42q-13 0 -33 -14q-156 -107 -323 -107q-221 0 -332 105t-111 304z" />
<glyph unicode="D" horiz-adv-x="1273" d="M-63 0l5 33q82 4 112 28.5t53 113.5l217 819q13 45 13 75q-1 32 -27 49q-26 16 -82 18l5 33q112 -6 204 -6q35 0 67 1q145 5 246 5q242 0 370.5 -100t128.5 -294q0 -110 -31.5 -219t-98 -209.5t-160.5 -177.5t-230 -123t-295 -46q-20 0 -104 2.5t-145 2.5q-151 0 -248 -5 zM354 61q10 -31 80 -31q102 0 192 46.5t153.5 125.5t110 181.5t69 216t22.5 227.5q0 156 -64 234.5t-204 78.5q-61 0 -82 -24.5t-45 -117.5l-216 -826q-19 -58 -19 -90q0 -12 3 -21z" />
<glyph unicode="E" horiz-adv-x="1033" d="M-71 0l8 33q85 4 115.5 28.5t54.5 113.5l218 819q12 51 12 81q0 23 -7 33q-17 24 -102 28l8 33q180 -5 537 -5q234 0 335 5q-46 -128 -63 -195q-6 -24 -21 -102h-36q2 29 2 55q0 101 -32 147q-40 56 -152 57h-51q-84 0 -114 -23.5t-53 -113.5l-104 -390h61q82 0 137.5 58 t88.5 141h38q-16 -46 -26.5 -82t-20.5 -77.5t-14 -55.5q-20 -75 -48 -215h-36q2 19 2 36q0 162 -139 162h-51l-106 -396q-13 -47 -15 -72.5t9.5 -41t33.5 -19.5t66 -4h61q132 0 208 63.5t149 228.5h38q-14 -36 -36 -119q-25 -86 -43 -211q-112 5 -375 5q-357 0 -537 -5z" />
<glyph unicode="F" horiz-adv-x="971" d="M-71 0l8 33q85 4 115.5 28.5t54.5 113.5l218 819q12 51 12 81q0 23 -7 33q-17 24 -102 28l8 33q180 -5 537 -5q234 0 335 5q-32 -87 -64 -201q-27 -99 -35 -145h-38q6 54 6 98q0 97 -29 143q-42 68 -165 67h-38q-78 0 -106.5 -24t-50.5 -113l-106 -396h76q141 0 227 198 h36q-18 -56 -61 -215q-16 -66 -51 -244h-37q1 14 1 28q0 91 -24 142q-27 58 -109 58h-66l-104 -390q-13 -47 -14 -73t15.5 -41.5t44 -20.5t83.5 -7l-7 -33q-113 5 -294 5q-172 0 -269 -5z" />
<glyph unicode="G" horiz-adv-x="1220" d="M63 355q0 112 36.5 230t107.5 226t165.5 193.5t220.5 136.5t263 51q98 0 156.5 -27t113.5 -80q24 -27 46.5 -8.5t48.5 92.5h36q-55 -144 -106 -380h-36q8 69 8 124q0 77 -23 121q-32 62 -97.5 95.5t-156.5 33.5q-97 0 -184 -60t-147 -154.5t-104 -210.5t-65 -229 t-21 -208q0 -148 58.5 -219.5t178.5 -71.5q73 0 127 35q26 17 39.5 42.5t27.5 77.5l38 146q11 42 13.5 67.5t-2 44t-22.5 27.5t-43 13t-69 6l8 33q113 -5 281 -5q147 0 232 5l-8 -33q-56 -4 -76.5 -27.5t-45.5 -114.5l-88 -327h-33q1 11 1 20q0 29 -9 48q-12 26 -38 26 q-12 0 -25 -2.5t-29.5 -9.5t-25.5 -11t-30.5 -15.5t-28.5 -14.5q-119 -64 -239 -64q-216 0 -335 99t-119 279z" />
<glyph unicode="H" horiz-adv-x="1337" d="M-68 0l9 33q82 4 112.5 28.5t53.5 113.5l218 819q12 51 12 81q0 23 -7 33q-17 24 -102 28l8 33q93 -5 269 -5q148 0 261 5l-8 -33q-87 -4 -117 -28.5t-53 -113.5l-104 -390h431l104 390q13 47 15 73t-10 41.5t-34.5 20.5t-67.5 7l8 33q98 -5 258 -5q170 0 272 5l-8 -33 q-87 -4 -117 -28.5t-53 -113.5l-218 -819q-12 -48 -14 -73t9.5 -41t34 -21t67.5 -7l-7 -33q-98 5 -270 5q-158 0 -260 -5l7 33q86 4 116.5 28.5t53.5 113.5l104 396h-431l-104 -396q-12 -48 -14 -73t9.5 -41t34 -21t67.5 -7l-6 -33q-102 5 -260 5q-171 0 -269 -5z" />
<glyph unicode="I" horiz-adv-x="644" d="M-68 0l9 33q82 4 112.5 28.5t53.5 113.5l218 819q12 51 12 81q0 23 -7 33q-17 24 -102 28l8 33q92 -5 259 -5q153 0 271 5l-8 -33q-87 -4 -117 -28.5t-53 -113.5l-218 -819q-12 -48 -14 -73t9.5 -41t34 -21t67.5 -7l-6 -33q-107 5 -269 5q-163 0 -260 -5z" />
<glyph unicode="J" horiz-adv-x="1128" d="M45 -187q0 54 37 90t101 36q56 0 92 -26t37 -73q0 -76 -91 -117q15 -5 47 -5q86 0 138 101q34 65 86 261q1 3 3 11q5 16 7 25l89 317q16 62 48 138h-224l5 33h234q71 149 182.5 254t293.5 224q-61 -21 -140.5 -61t-143 -62.5t-136.5 -22.5t-185 41.5t-168 41.5 q-47 0 -74 -24t-27 -70q3 -110 187 -127l-5 -32q-129 10 -208 69.5t-80 165.5v6q0 96 59 154q61 60 176 60q59 0 112 -17t95 -41.5t84 -49.5t96 -42t113 -17q142 0 279 64q62 97 103 97q13 0 23 -9q11 -13 8.5 -28t-33 -36t-86.5 -42q-97 -77 -165 -201t-119 -295h164 l-5 -33h-169q-3 -11 -8.5 -32t-9.5 -32l-102 -400q-23 -89 -61 -161.5t-95.5 -131.5t-142.5 -92t-190 -33t-168 30t-63 94z" />
<glyph unicode="K" horiz-adv-x="1222" d="M-68 0l9 33q82 4 112.5 28.5t53.5 113.5l218 819q12 51 12 81q0 23 -7 33q-17 24 -102 28l8 33q93 -5 269 -5q148 0 261 5l-8 -33q-87 -4 -117 -28.5t-53 -113.5l-218 -819q-12 -48 -14 -73t9.5 -41t34 -21t67.5 -7l-6 -33q-102 5 -260 5q-171 0 -269 -5zM522 596 q-1 6 0 13q4 28 33 33q6 1 13 1q32 0 98 -17q61 8 105.5 42t68.5 80t45 103.5t34.5 110.5t36 103.5t51.5 79.5q47 47 118 47q73 0 115 -42q41 -40 40 -102v-6q0 -61 -40.5 -110.5t-109.5 -49.5q-46 0 -78 30q-31 30 -31 78q0 51 33.5 96.5t88.5 69.5q-12 5 -27 5 q-51 0 -84 -36q-29 -31 -53 -93t-43 -124.5t-44.5 -125t-70 -108.5t-106.5 -60q144 -16 195 -78q39 -48 40 -144q0 -28 -4 -60l-18 -173v-12q0 -50 41 -50q31 0 53 24.5t40 75.5l28 84h33l-43 -127q-30 -90 -88 -133.5t-133 -43.5q-105 0 -153 56q-38 43 -38 111q0 19 3 41 l31 231q5 41 5 71q-1 28 -5 46q-8 37 -38 60q-64 -17 -100 -17q-38 0 -42 20z" />
<glyph unicode="L" horiz-adv-x="999" d="M-71 0l8 33q85 4 115.5 28.5t54.5 113.5l218 819q12 51 12 81q0 23 -7 33q-17 24 -102 28l8 33q97 -5 273 -5q144 0 257 5l-8 -33q-87 -4 -117.5 -28.5t-54.5 -113.5l-218 -819q-12 -48 -14 -73t9.5 -40.5t33.5 -19.5t67 -4h66q118 0 207 71.5t155 237.5h36 q-17 -45 -39 -136q-26 -90 -45 -211q-112 5 -375 5q-360 0 -540 -5z" />
<glyph unicode="M" horiz-adv-x="1514" d="M-69 0l8 33q80 4 118 48t60 132l210 781q12 51 12 81q0 23 -7 33q-17 24 -102 28l8 33q83 -5 226 -5q81 0 149 5l94 -844l535 839h129q148 0 266 5l-9 -33q-87 -4 -117 -28.5t-53 -113.5l-218 -819q-12 -51 -12 -80q0 -25 8 -35q18 -24 102 -27l-7 -33q-115 5 -264 5 q-171 0 -264 -5l6 33q87 4 117 28.5t53 113.5l240 890l-686 -1073h-36l-134 1014l-208 -793q-13 -54 -13 -93t33 -62t104 -25l-6 -33q-67 5 -185 5q-94 0 -157 -5z" />
<glyph unicode="N" horiz-adv-x="1362" d="M-132 18q0 65 42 107.5t108 42.5q54 0 84 -27.5t30 -71.5q0 -54 -35 -95.5t-90 -57.5q10 -7 28 -7q85 0 138 89q111 173 271 996q9 45 9 73q1 29 -9 41q-20 24 -117 28l8 33q58 -5 147 -5q71 0 134 5l342 -786q138 598 248 757q73 105 178 105q73 0 115 -39.5t42 -100.5 q0 -64 -42.5 -107t-107.5 -43q-54 0 -84 27t-30 72q0 54 35 95.5t89 57.5q-7 7 -27 7q-79 0 -139 -88q-73 -109 -152 -383.5t-180 -750.5h-36l-410 897q-155 -772 -257 -907q-37 -49 -77 -76.5t-100 -27.5q-73 0 -114 39.5t-41 100.5z" />
<glyph unicode="O" horiz-adv-x="1283" d="M69 373q0 110 34 225t100 221t155 189.5t209 133.5t251 50q212 0 330.5 -104t118.5 -294q0 -109 -34 -224t-100.5 -220.5t-156 -189t-209 -133.5t-250.5 -50q-212 0 -330 103.5t-118 292.5zM353 352q0 -159 50 -252t129 -93q112 0 217 119t168.5 307.5t63.5 384.5 q0 159 -49.5 252t-128.5 93q-112 0 -217.5 -119t-169 -307.5t-63.5 -384.5z" />
<glyph unicode="P" horiz-adv-x="1061" d="M-69 0l6 33q86 4 116.5 28.5t53.5 113.5l218 819q11 50 11.5 80.5t-23.5 45t-85 16.5l8 33q93 -5 263 -5q39 0 119 2t122 2q388 0 388 -250q0 -129 -85 -231t-241 -160t-356 -58l-78 -294q-12 -45 -12 -74q0 -35 26 -51t84 -17l-7 -33q-110 5 -254 5q-177 0 -274 -5z M456 502h6q84 0 152 27t111.5 71t72.5 104t41.5 122.5t12.5 129.5q0 90 -38 135t-122 45q-48 0 -65 -25t-41 -117z" />
<glyph unicode="Q" horiz-adv-x="1372" d="M-63 -2q0 80 65.5 132.5t165.5 52.5q61 0 128.5 -25t113.5 -53t120 -79q233 121 385 337t152 464q0 158 -64.5 247t-184.5 89q-85 0 -158.5 -45.5t-122 -118.5t-76 -163.5t-27.5 -181.5q0 -205 169 -205q100 0 174.5 62.5t94.5 147.5q8 28 8 60q0 9 -1 19 q-17 -49 -59 -74t-87 -25q-54 0 -86.5 34.5t-32.5 87.5q0 66 45 109t112 43q69 0 109 -49t40 -132q0 -144 -114.5 -237.5t-293.5 -93.5q-160 0 -257.5 78.5t-97.5 215.5q0 104 58.5 197.5t154.5 158.5t222.5 103t259.5 38q221 0 358.5 -91.5t137.5 -243.5 q0 -107 -69.5 -229.5t-184 -234.5t-253 -211.5t-283.5 -174.5q61 -42 99 -66t95 -54t112 -43.5t112 -13.5q152 0 213 117q-47 -36 -106 -36q-56 0 -92 32t-36 88q0 60 42 99.5t108 39.5q61 0 98 -36t37 -103q0 -129 -135.5 -235.5t-324.5 -106.5q-73 0 -138.5 18t-125 55.5 t-96 66.5t-91.5 79q-127 -43 -220 -43q-81 0 -126.5 33.5t-45.5 99.5zM-28 -13q0 -44 39 -69t111 -25q70 0 184 38q-51 46 -81 70.5t-73 45.5t-83 21q-43 0 -70 -21.5t-27 -59.5z" />
<glyph unicode="R" horiz-adv-x="1174" d="M-69 0l6 33q86 4 116.5 28.5t53.5 113.5l217 819q15 46 15 75q-1 19 -7 32q-16 31 -104 35l8 33q93 -5 250 -5q54 0 133.5 2t113.5 2q201 0 298 -56.5t97 -173.5q0 -147 -133 -245.5t-359 -121.5h3q63 -6 107 -13.5t88 -23.5t68 -40q26 -23 38 -61q8 -24 8 -54 q0 -17 -3 -35l-23 -171q-2 -19 -2 -36q0 -79 53 -79q32 0 55.5 29t45.5 90l8 23h38l-7 -22q-31 -104 -91 -152.5t-162 -48.5q-111 0 -161 52q-40 42 -40 107q0 16 2 32l24 189q4 27 4 51q-1 20 -3 36q-6 38 -27.5 63t-67.5 38.5t-120 14.5l-101 -385q-10 -36 -13.5 -54 t-2 -37.5t14 -28t35.5 -14.5t62 -8l-7 -33q-110 5 -258 5q-173 0 -270 -5zM479 591h13q166 0 268 98.5t102 273.5q0 89 -37.5 131t-115.5 42q-50 0 -73.5 -22.5t-40.5 -86.5z" />
<glyph unicode="S" horiz-adv-x="969" d="M-46 -12q53 125 112 397h33q-15 -59 -15 -113v-18q11 -241 269 -241q214 0 214 174q0 77 -36.5 149t-88 129.5t-103 115.5t-88 130.5t-36.5 150.5q0 81 37 146t97 104t130 59.5t142 20.5q141 0 261 -72q44 -27 54 -27q25 0 55 88h33q-63 -159 -97 -337h-33q9 40 9 92 q0 99 -61 158t-175 59q-90 0 -145 -44t-55 -136q0 -55 29 -112.5t72 -105t93.5 -102.5t93.5 -105t72 -114t29 -127q0 -68 -29.5 -124.5t-76.5 -94t-107.5 -63t-122 -37t-120.5 -11.5q-107 0 -165 18.5t-121 57.5q-37 25 -58 25t-33.5 -17.5t-35.5 -72.5h-33z" />
<glyph unicode="T" horiz-adv-x="1124" d="M142 966q0 108 107 160q82 40 222 40q105 0 296 -18t275 -18q111 0 175 21q-58 54 -58 131q0 60 36 97.5t95 37.5q58 0 92.5 -34.5t34.5 -81.5q0 -100 -114 -156q-102 -48 -276 -48q-45 0 -97 3l-241 -908q-11 -45 -11 -75q0 -31 12 -47q24 -32 123 -37l-7 -33 q-115 5 -306 5q-185 0 -290 -5l6 33q103 4 144 35.5t66 123.5l250 933q-112 11 -199 11q-135 0 -186 -28q44 -13 71.5 -49t27.5 -85q0 -58 -36.5 -98t-92.5 -40q-55 0 -87 37.5t-32 92.5z" />
<glyph unicode="U" horiz-adv-x="1146" d="M124 260q0 89 36 216l137 518q12 51 12 81q0 23 -7 33q-17 24 -102 28l10 33q93 -5 272 -5q143 0 256 5l-10 -33q-87 -4 -117 -28.5t-53 -113.5l-145 -546q-41 -143 -41 -237q0 -40 8 -72q25 -104 142 -104q90 0 161 31.5t121 91t84.5 133.5t59.5 171l114 436 q15 58 21 94q5 27 5 49q0 9 -1 15q-2 28 -17 43t-40 23.5t-67 13.5l8 33q68 -5 177 -5q85 0 145 5l-8 -33q-81 -11 -116 -54t-66 -164l-112 -437q-60 -230 -162 -351q-61 -71 -149.5 -112t-188.5 -41q-241 0 -323 130q-44 61 -44 153z" />
<glyph unicode="V" horiz-adv-x="1091" d="M152 1136l8 33q93 -5 238 -5q156 0 253 5l-9 -33q-85 -4 -113 -30q-21 -19 -21 -71q0 -17 2 -37l83 -734l434 669q36 55 46.5 93.5t-4 61.5t-46 34t-83.5 14l8 33q72 -5 216 -5q66 0 124 5l-8 -33q-54 -15 -98 -52t-99 -123l-630 -969q-22 2 -43 2t-42 -2l-130 1039 q-7 53 -32 78t-54 27z" />
<glyph unicode="W" horiz-adv-x="1621" d="M142 1136l8 33q92 -5 232 -5q131 0 214 5l-8 -33q-55 -4 -74 -31q-14 -20 -14 -68q0 -18 2 -39l79 -716l303 496l-35 253q-12 100 -71 105l8 33q85 -5 215 -5q161 0 258 5l-9 -33q-86 -4 -113 -30q-19 -18 -19 -65q0 -19 3 -43l88 -691l340 626q41 76 41 120q0 45 -34 62 t-104 21l8 33q75 -5 216 -5q68 0 126 5l-8 -33q-58 -16 -102 -51.5t-93 -123.5l-520 -969h-86l-103 736l-444 -736h-86l-130 1039q-12 100 -88 105z" />
<glyph unicode="X" horiz-adv-x="1223" d="M-66 130q2 68 42.5 112.5t104.5 44.5q51 0 79 -30q27 -28 27 -74v-6q-1 -55 -35 -99t-89 -63q7 -7 28 -7q51 0 109 38q71 48 160.5 160.5t171.5 272.5l-60 489q-13 115 -92 115q-74 0 -112 -110l-29 -84h-33l43 127q62 176 242 176q119 0 174.5 -65.5t71.5 -191.5 l23 -205q61 128 134 237.5t138 165.5q74 59 151 59q69 0 109 -44q38 -41 38 -103v-6q-2 -67 -43 -112t-104 -45q-51 0 -79.5 30.5t-28.5 80.5q1 54 36 98t90 63q-10 7 -28 7q-58 0 -108 -38q-64 -49 -144 -165.5t-155 -281.5l57 -470q17 -112 94 -112q40 0 66.5 24t45.5 79 l28 84h33l-43 -127q-34 -93 -90.5 -135t-138.5 -42q-66 0 -114 19t-76.5 55.5t-43.5 80.5t-22 103l-24 191q-63 -121 -146 -228t-159 -165q-74 -56 -154 -56q-71 -1 -109 43q-37 41 -36 104v6z" />
<glyph unicode="Y" horiz-adv-x="1212" d="M137 889l41 127q58 176 233 176q48 0 86.5 -13.5t67.5 -37.5t52 -64.5t39 -85t29.5 -110t22.5 -128.5t19 -150q109 309 271 487q93 102 194 102q73 0 114 -42q40 -39 40 -97v-6q-2 -62 -43.5 -103.5t-106.5 -41.5q-54 0 -84 28t-30 73q1 54 35.5 94.5t89.5 56.5 q-10 7 -28 7q-48 0 -99 -38q-74 -53 -169.5 -205.5t-172.5 -377.5l-91 -365q-9 -37 -9.5 -61t5.5 -39.5t24 -24t39.5 -12t58.5 -5.5l-9 -33q-105 5 -284 5q-169 0 -266 -5l9 33q86 4 117 28.5t53 113.5l89 357q-62 538 -190 538q-29 0 -46.5 -20t-29.5 -57l-35 -104h-36z " />
<glyph unicode="Z" horiz-adv-x="1086" d="M-52.5 9.5q-1.5 10.5 5 23.5t20 26.5t39 28.5t59.5 28l464 455h-267l11 33h289l461 453q-170 -149 -335 -149q-68 0 -131 18t-115.5 36.5t-95.5 18.5q-75 0 -75 -66q0 -71 121 -96l-8 -31q-42 7 -78 20t-68 35t-50.5 57t-18.5 79q0 94 65.5 153.5t174.5 59.5 q52 0 100.5 -15t86.5 -37t76 -43.5t85.5 -36.5t98.5 -15q43 0 80 10.5t95 34.5q39 56 81 82q24 15 41 15q14 0 24 -9q8 -7 9.5 -17.5t-5 -23.5t-20 -26.5t-39 -28.5t-59.5 -28l-458 -450h251l-13 -33h-271l-467 -459q170 149 337 149q85 0 189.5 -36.5t151.5 -36.5 q35 0 55 17t20 49q0 70 -121 96l7 32q42 -7 78 -20t68 -35t50.5 -57.5t18.5 -79.5q0 -94 -65.5 -153.5t-174.5 -59.5q-63 0 -124 23t-102 50.5t-100.5 50.5t-121.5 23q-43 0 -80 -10.5t-95 -34.5q-38 -55 -80 -81q-23 -15 -42 -15q-13 0 -23 9q-8 7 -9.5 17.5z" />
<glyph unicode="[" horiz-adv-x="597" d="M-36 -299l391 1574h380l-7 -31h-133l-379 -1512h134l-6 -31h-380z" />
<glyph unicode="\" horiz-adv-x="810" d="M216 1192h52l376 -1215h-54z" />
<glyph unicode="]" horiz-adv-x="599" d="M-135 -299l6 31h134l378 1512h-134l7 31h380l-392 -1574h-379z" />
<glyph unicode="^" horiz-adv-x="872" d="M112 535q124 54 234.5 145t178.5 192h30q16 -103 77 -192.5t161 -142.5l-13 -25q-189 42 -341 139q-133 -85 -320 -139z" />
<glyph unicode="_" horiz-adv-x="1152" d="M-91 -289l48 145h908l-49 -145h-907z" />
<glyph unicode="a" horiz-adv-x="1075" d="M-150 0l5 33q44 16 84.5 55.5t106.5 124.5l644 803q21 -2 42.5 -2t42.5 2l102 -877q7 -54 29.5 -79t51.5 -27l-8 -33q-93 5 -240 5q-160 0 -248 -5l9 33q87 3 119 31q25 22 25 76q0 15 -2 32l-25 205h-370l-122 -152q-52 -65 -52 -108q0 -69 133 -84l-4 -33 q-122 5 -201 5q-67 0 -122 -5zM244 410h339l-43 366z" />
<glyph unicode="b" horiz-adv-x="1098" d="M-69 0l6 33q86 4 116.5 28.5t53.5 113.5l175 654q15 46 15 76q-1 21 -7 33q-16 32 -105 33l8 33q93 -5 256 -5q37 0 114 2t119 2q367 0 367 -192q0 -105 -113 -180t-302 -98q185 -9 267.5 -69.5t82.5 -148.5q0 -147 -142 -231t-366 -84q-38 0 -130.5 2.5t-153.5 2.5 q-164 0 -261 -5zM355.5 92.5q-0.5 -19.5 5.5 -30t20 -17.5t37 -7q292 0 292 304q0 78 -42.5 123t-134.5 45h-74l-89 -335q-7 -28 -10.5 -45.5t-4 -37zM466 538h46q125 0 198 85.5t73 207.5q0 140 -129 140q-45 0 -64 -16.5t-32 -67.5z" />
<glyph unicode="c" horiz-adv-x="1121" d="M50 324q0 98 32.5 198t96.5 190t151 161t205.5 112.5t250.5 41.5q90 0 146 -28.5t99 -78.5q11 -14 23 -14q31 0 67 98h37q-55 -160 -108 -380h-36q10 80 10 127q0 66 -26 118q-30 63 -90.5 96t-136.5 33q-89 0 -173 -66.5t-143 -169.5t-95 -229t-36 -242 q0 -137 49 -210.5t134 -73.5q76 0 156.5 33.5t140.5 94.5q44 45 75.5 101.5t73.5 159.5h36q-75 -273 -97 -396h-36q4 31 4 56q0 34 -13 40.5t-41 -12.5q-76 -52 -147.5 -79.5t-166.5 -27.5q-209 0 -325.5 90.5t-116.5 256.5z" />
<glyph unicode="d" horiz-adv-x="1278" d="M-63 0l5 33q82 4 112 28.5t53 113.5l175 654q16 45 16 75q0 20 -8 34q-18 32 -105 33l5 33q106 -6 196 -6q34 0 65 1q147 5 246 5q269 0 398.5 -93.5t129.5 -279.5q0 -131 -56.5 -246.5t-158.5 -200.5t-252.5 -134.5t-329.5 -49.5q-25 0 -108.5 2.5t-142.5 2.5 q-148 0 -240 -5zM358 60q12 -30 81 -30q103 0 189 33.5t146 92t102 137.5t62 169.5t20 189.5q0 159 -72.5 240.5t-214.5 81.5q-58 0 -81.5 -26.5t-46.5 -115.5l-173 -660q-16 -55 -16 -87q0 -15 4 -25z" />
<glyph unicode="e" horiz-adv-x="1047" d="M-71 0l7 33q86 4 116.5 28.5t53.5 113.5l176 654q12 51 12 81q0 24 -7 34q-17 24 -102 27l8 33q177 -5 529 -5q242 0 348 5q-34 -84 -61 -188q-13 -47 -25 -109h-36q6 42 6 77q0 82 -32 124q-45 58 -159 58h-51q-84 0 -114 -23.5t-53 -113.5l-83 -307h76q76 0 132 55 t85 130h36q-27 -82 -56 -202q-28 -96 -45 -201h-36q1 13 1 24q0 161 -141 161h-61l-85 -314q-12 -48 -14 -73t9.5 -40.5t33.5 -19.5t67 -4h61q127 0 208.5 65.5t146.5 226.5h37q-18 -48 -37 -125q-22 -72 -43 -205q-112 5 -378 5q-352 0 -530 -5z" />
<glyph unicode="f" horiz-adv-x="982" d="M-71 0l7 33q86 4 116.5 28.5t53.5 113.5l176 654q12 51 12 81q0 23 -7 34q-17 23 -102 27l8 33q177 -5 529 -5q244 0 350 5q-31 -82 -63 -195q-18 -71 -30 -132h-36q6 44 6 81q0 208 -186 208h-51q-84 0 -114 -23.5t-53 -113.5l-83 -309h93q74 0 128.5 49t86.5 126h36 q-34 -102 -58 -201q-4 -19 -12 -54t-15.5 -71.5t-15.5 -86.5h-36v12q0 87 -26 138q-28 55 -106 55h-84l-85 -312q-12 -47 -13 -72.5t15.5 -41.5t44.5 -21t84 -7l-7 -33q-113 5 -294 5q-171 0 -269 -5z" />
<glyph unicode="g" horiz-adv-x="1197" d="M50 322q0 94 31 192.5t94 190t149.5 163.5t206.5 115.5t255 43.5q167 0 281 -107q24 -27 46 -8.5t48 92.5h36q-49 -143 -105 -380h-37q9 77 9 124q0 81 -23 121q-75 129 -265 129q-80 0 -149.5 -37t-118.5 -99t-88 -139t-62 -160t-34.5 -157.5t-11.5 -137.5 q0 -258 228 -258q159 0 190 132l30 111q12 43 12 73q0 32 -14 49q-26 32 -122 36l6 33q113 -5 283 -5q146 0 231 5l-7 -33q-59 -4 -79.5 -27.5t-45.5 -114.5l-73 -269h-33q6 35 -2 56.5t-31 21.5q-37 0 -119 -40q-74 -34 -130.5 -47.5t-125.5 -13.5q-222 0 -341 89.5 t-119 255.5z" />
<glyph unicode="h" horiz-adv-x="1337" d="M-68 0l9 33q82 4 112.5 28.5t53.5 113.5l174 654q12 51 12 80q1 25 -7 35q-18 24 -103 27l9 33q93 -5 269 -5q148 0 261 5l-9 -33q-87 -4 -117 -28.5t-53 -113.5l-82 -307h431l82 307q13 47 15 73t-10 41.5t-34.5 20.5t-67.5 7l8 33q98 -5 258 -5q174 0 272 5l-8 -33 q-87 -4 -117 -28.5t-53 -113.5l-173 -654q-12 -48 -14 -73t9.5 -41t34 -21t67.5 -7l-7 -33q-97 5 -270 5q-158 0 -260 -5l7 33q86 4 116.5 28.5t53.5 113.5l83 314h-431l-83 -314q-12 -48 -14 -73t9.5 -41t34 -21t67.5 -7l-6 -33q-102 5 -260 5q-171 0 -269 -5z" />
<glyph unicode="i" horiz-adv-x="644" d="M-68 0l9 33q82 4 112.5 28.5t53.5 113.5l174 654q12 51 12 80q1 25 -7 35q-18 24 -103 27l9 33q92 -5 259 -5q153 0 271 5l-9 -33q-87 -4 -117 -28.5t-53 -113.5l-173 -654q-12 -48 -14 -73t9.5 -41t34 -21t67.5 -7l-6 -33q-105 5 -269 5q-163 0 -260 -5z" />
<glyph unicode="j" horiz-adv-x="1121" d="M2 -183q0 52 38 87t102 35q55 0 91 -26.5t36 -72.5q0 -78 -91 -117q15 -5 52 -5q39 0 69 14t50 34t40 62.5t32 77.5t32 102l89 298q13 50 29 84h-209l5 33h218q36 81 83.5 147t110.5 120.5t120 95.5t144 97q18 11 27 17q-67 -22 -151.5 -61.5t-146 -61.5t-121.5 -22 q-68 0 -172.5 41t-156.5 41q-46 0 -73 -24q-26 -23 -26 -67q0 -113 185 -130l-3 -31q-130 10 -208.5 69t-79.5 165v6q0 96 59 154q61 60 176 60q58 0 110.5 -17t94 -41.5t83 -49.5t94.5 -42t112 -17q134 0 259 64q62 96 103 96q13 0 24 -10q24 -23 -13.5 -51.5t-98.5 -52.5 q-104 -84 -163 -195.5t-116 -299.5h165l-5 -33h-170q-1 -2 -2 -5.5t-2 -4.5l-115 -388q-40 -133 -158.5 -217.5t-290.5 -84.5q-258 0 -261 127z" />
<glyph unicode="k" horiz-adv-x="1194" d="M-68 0l9 33q82 4 112.5 28.5t53.5 113.5l174 654q12 51 12 80q1 25 -7 35q-18 24 -103 27l9 33q93 -5 269 -5q148 0 261 5l-9 -33q-87 -4 -117 -28.5t-53 -113.5l-173 -654q-12 -48 -14 -73t9.5 -41t34 -21t67.5 -7l-6 -33q-102 5 -260 5q-171 0 -269 -5zM492 522 q0 31 46 30q33 0 90 -15q62 6 104.5 43t65.5 90t38.5 107.5t36 109.5t45.5 82q54 58 132 58q73 0 114 -38q40 -37 40 -101q0 -68 -40.5 -114.5t-104.5 -46.5q-55 1 -85 29q-29 27 -29 72v6q0 49 31.5 95.5t78.5 63.5q-5 3 -21 3q-52 0 -91 -46q-20 -25 -38.5 -77t-35 -105 t-39.5 -105.5t-63 -90.5t-96 -48q60 -9 101.5 -22t73.5 -38q33 -26 46 -66q8 -26 9 -59q0 -18 -3 -38l-13 -146q0 -5 -1 -10q0 -48 46 -48q31 0 52 23.5t40 76.5l28 84h33l-43 -127q-31 -94 -88.5 -135.5t-142.5 -41.5q-100 1 -146 55q-34 40 -34 109q0 26 5 56l23 152 q5 32 5 57q0 74 -39 99q-53 -15 -85 -15q-46 0 -46 32z" />
<glyph unicode="l" horiz-adv-x="1007" d="M-73 0l9 33q86 4 116.5 28.5t53.5 113.5l176 654q12 48 14.5 73t-9 41t-33.5 21t-67 7l8 33q93 -5 271 -5q144 0 257 5l-8 -33q-87 -4 -117 -28.5t-53 -113.5l-178 -654q-11 -51 -11 -81q0 -23 6 -33q16 -23 91 -23h69q69 0 133.5 28t128.5 99.5t106 181.5h38 q-28 -78 -43 -142q-22 -72 -43 -205q-112 5 -380 5q-357 0 -535 -5z" />
<glyph unicode="m" horiz-adv-x="1461" d="M-71 0l7 33q82 4 116.5 37.5t56.5 116.5l173 652q12 51 12 81q0 24 -7 34q-17 24 -102 27l8 33q58 -5 147 -5q105 0 198 5l126 -768l533 763h80q148 0 266 5l-9 -33q-87 -4 -117 -28.5t-53 -113.5l-175 -664q-12 -51 -12 -80q-1 -25 7 -35q18 -24 103 -27l-7 -33 q-115 5 -264 5q-172 0 -265 -5l7 33q86 4 115.5 28t54.5 114l167 621l-563 -804q-22 2 -43.5 2t-42.5 -2l-136 814l-165 -619q-10 -39 -10 -67q0 -32 13 -50q24 -33 129 -37l-8 -33q-67 5 -185 5q-95 0 -155 -5z" />
<glyph unicode="n" horiz-adv-x="1443" d="M-129 18q0 65 42.5 107.5t106.5 42.5q54 0 84 -27t30 -72q0 -54 -35 -95.5t-89 -57.5q7 -7 26 -7q83 3 141 89q113 168 280 896v7q0 39 -23 53q-25 14 -104 17l9 33q58 -5 147 -5q95 0 183 5l327 -652q139 485 243 622q79 106 178 106q73 0 114 -39.5t41 -100.5 q0 -64 -42.5 -107.5t-107.5 -43.5q-53 0 -82.5 27.5t-29.5 72.5q0 54 35.5 96t88.5 57q-10 7 -27 7q-45 0 -77 -23t-62 -65q-145 -205 -332 -969h-36l-428 816q-166 -701 -269 -826q-40 -49 -80 -76.5t-97 -27.5q-74 0 -114.5 39.5t-40.5 100.5z" />
<glyph unicode="o" horiz-adv-x="1286" d="M56 375q0 88 32.5 180t96.5 176t149 150.5t199.5 106t239.5 39.5q214 0 340 -100.5t126 -297.5q0 -88 -32.5 -180t-96.5 -176t-149 -150.5t-199.5 -106t-239.5 -39.5q-214 0 -340 100.5t-126 297.5zM342 352q0 -178 52 -261.5t143 -83.5q88 0 167 56.5t132.5 148t85 207 t31.5 233.5q0 178 -52 262t-143 84q-88 0 -167 -56.5t-132.5 -148t-85 -207.5t-31.5 -234z" />
<glyph unicode="p" horiz-adv-x="1050" d="M-69 0l6 33q86 4 116.5 28.5t53.5 113.5l174 654q12 48 12.5 78.5t-24.5 46t-86 17.5l9 33q97 -5 251 -5q54 0 134 2t112 2q201 0 297.5 -58t96.5 -162q0 -106 -81.5 -192t-231.5 -136.5t-342 -51.5l-61 -228q-13 -43 -13 -71q0 -21 8 -34q17 -31 104 -37l-7 -33 q-110 5 -257 5q-173 0 -271 -5zM438 436q80 1 144 23t105.5 59t69.5 88t39.5 106.5t11.5 116.5q0 75 -31.5 108.5t-104.5 33.5q-57 0 -82 -28.5t-48 -113.5z" />
<glyph unicode="q" horiz-adv-x="1365" d="M-64 -5q0 81 64 131.5t163 50.5q88 0 169.5 -40t191.5 -116q217 107 357.5 276.5t140.5 369.5q0 156 -62 243.5t-176 87.5q-109 0 -198.5 -70.5t-137.5 -181t-48 -232.5q0 -197 162 -197q100 0 179.5 63t92.5 152q3 32 -2 54q-16 -49 -57 -74t-86 -25q-54 0 -86.5 34.5 t-32.5 87.5q0 65 45.5 108.5t109.5 43.5q69 0 109.5 -48.5t40.5 -129.5q0 -142 -115 -228t-288 -86q-160 0 -255 73t-95 201q0 105 60.5 197t158 154t221.5 97.5t252 35.5q214 0 351.5 -91.5t137.5 -243.5q0 -90 -64 -191t-170 -192.5t-234.5 -173t-266.5 -143.5 q112 -78 201 -120t186 -42q152 0 226 87q-49 -39 -109 -39q-56 0 -91.5 32.5t-35.5 87.5q0 60 41.5 99.5t106.5 39.5q60 0 98 -36t38 -101q0 -123 -133.5 -216.5t-320.5 -93.5q-75 0 -141.5 17.5t-124 52t-96.5 64.5t-89 77q-127 -36 -215 -36q-82 0 -127.5 33t-45.5 97z M-30 -15q0 -43 40.5 -67.5t103.5 -24.5q82 0 183 33q-50 46 -78.5 69.5t-71 44.5t-81.5 21q-43 0 -69.5 -19.5t-26.5 -56.5z" />
<glyph unicode="r" horiz-adv-x="1141" d="M-69 0l6 33q86 4 116 28t54 114l175 654q12 47 12.5 77t-24.5 46t-85 19l8 33q93 -5 251 -5q58 0 153.5 2t124.5 2q352 0 352 -202q0 -126 -115 -210t-318 -109q5 0 6 -1q136 -19 195 -67q54 -43 54 -134q0 -9 -1 -19l-5 -88q-1 -17 -1 -31q0 -32 6 -50q9 -26 38 -24 q50 5 88 109l8 23h38l-7 -22q-63 -201 -251 -201q-97 -1 -141 47q-40 44 -40 113v13l8 118q1 16 1 30q0 82 -29 121q-34 46 -142 53h-18l-80 -297q-13 -43 -13 -71q0 -22 8 -36q18 -30 103 -35l-7 -33q-110 5 -259 5q-172 0 -269 -5zM456 505h30q156 0 239.5 83t83.5 234 q0 149 -140 149q-54 0 -79.5 -29.5t-46.5 -112.5z" />
<glyph unicode="s" horiz-adv-x="1002" d="M-46 -12q53 125 112 397h33q-15 -86 -15 -125v-9q4 -112 76 -175t213 -63q90 0 147.5 39t57.5 120q0 68 -44 125.5t-143 133.5q-110 86 -160.5 152.5t-50.5 153.5q0 72 37 129t99.5 91.5t138 52t158.5 17.5q136 0 236 -62q54 -37 73 -37q14 0 25.5 20t28.5 68h33 q-59 -148 -97 -337h-33q10 44 10 92q0 97 -68 160t-182 63q-93 0 -147 -41.5t-54 -110.5q0 -68 43.5 -121.5t162.5 -147.5q43 -34 57.5 -45.5t48 -39.5t45 -41.5t32 -38.5t28 -44t14 -44t6.5 -52q0 -74 -41.5 -131.5t-110.5 -91.5t-152.5 -51t-174.5 -17q-90 0 -149.5 18 t-125.5 55q-42 28 -66 28q-20 0 -33 -19.5t-35 -70.5h-33z" />
<glyph unicode="t" horiz-adv-x="1106" d="M106 799q0 105 105 166q82 46 218 46q92 0 279.5 -23t272.5 -23q109 0 169 24q-67 50 -67 131q0 56 35 94t96 38q58 0 92.5 -34.5t34.5 -81.5q0 -88 -94 -150q-93 -54 -278 -54q-43 0 -89 3l-213 -743q-14 -48 -14 -80q0 -28 11 -43q24 -32 127 -36l-7 -33q-118 5 -305 5 q-186 0 -291 -5l7 33q103 4 143 35t67 124l221 773q-110 16 -197 16q-120 0 -178 -38q45 -13 73.5 -49t28.5 -85q0 -58 -36 -98t-92 -40q-55 0 -87 37t-32 91z" />
<glyph unicode="u" horiz-adv-x="1151" d="M116 220q0 5 -1 10q0 89 44 246l94 353q12 51 12 80q1 25 -7 35q-18 24 -103 27l10 33q93 -5 273 -5q143 0 256 5l-10 -33q-87 -4 -117 -28.5t-53 -113.5l-103 -381q-41 -147 -41 -241q0 -40 8 -71q25 -101 142 -101q90 0 161 31.5t121 91t84.5 133.5t59.5 171l73 271 q26 92 26 143q0 24 -6 38q-18 46 -119 57l10 33q68 -5 177 -5q92 0 155 5l-10 -33q-83 -11 -120.5 -54t-69.5 -164l-73 -272q-60 -230 -162 -351q-131 -153 -363 -153q-211 0 -289 89q-57 64 -59 154z" />
<glyph unicode="v" horiz-adv-x="1078" d="M122 971l8 33q92 -5 238 -5q151 0 248 5l-8 -33q-85 -4 -113 -30q-21 -20 -21 -72q0 -17 2 -37l72 -599l430 535q63 77 63 123q0 11 -3 19q-16 48 -131 61l6 33q118 -5 215 -5q54 0 109 5l-8 -33q-47 -21 -85.5 -57.5t-107.5 -125.5l-635 -796q-21 2 -42 2l-42 -2 l-109 873q-7 54 -32 79t-54 27z" />
<glyph unicode="w" horiz-adv-x="1532" d="M107 971l7 33q105 -5 211 -5q140 0 220 5l-7 -33q-53 -5 -67 -37q-8 -18 -8 -50q0 -22 4 -52l81 -551l240 404l-30 180q-15 102 -64 106l6 33q92 -5 197 -5q168 0 261 5l-7 -33q-88 -4 -114 -30q-16 -16 -16 -56q0 -23 5 -53l89 -566l300 495q53 85 53 132q0 11 -2 19 q-14 46 -125 59l8 33q118 -5 200 -5q70 0 122 5l-6 -33q-56 -22 -98 -58.5t-94 -124.5l-487 -796q-22 2 -43 2l-43 -2l-104 642l-383 -642q-22 2 -43 2l-43 -2l-139 873q-9 54 -31 80t-50 26z" />
<glyph unicode="x" horiz-adv-x="1195" d="M-58 130q2 68 42.5 112.5t104.5 44.5q51 0 79 -30q27 -28 27 -74v-6q0 -54 -34.5 -98.5t-89.5 -63.5q10 -7 28 -7q56 0 109 38q62 41 140.5 135.5t153.5 226.5l-40 340q-8 76 -33 117.5t-77 41.5q-42 0 -68 -25.5t-44 -77.5l-29 -81h-33l38 114q65 190 237 190 q67 0 115.5 -20t76.5 -57.5t43 -80.5t21 -99l14 -121q115 228 225 320q71 58 154 58q70 1 110 -43q38 -41 37 -104v-6q-2 -67 -43 -112t-104 -45q-51 0 -79.5 30t-28.5 80q1 54 36 98.5t90 63.5q-10 7 -28 7q-58 0 -108 -38q-55 -42 -122.5 -136.5t-133.5 -228.5l38 -337 q10 -78 35 -118.5t76 -40.5q44 0 69.5 25t42.5 75l28 84h33l-42 -127q-59 -177 -223 -177q-69 0 -119 20t-79 57.5t-44.5 80.5t-22.5 100l-13 120q-60 -103 -130 -189t-134 -133q-74 -56 -155 -56q-70 -1 -109 43q-37 41 -37 104v6z" />
<glyph unicode="y" horiz-adv-x="1129" d="M109 723l46 137q28 83 80 125t137 42q52 0 90 -15t66 -43.5t49 -78.5t35.5 -109.5t29.5 -146.5l14 -74q98 232 218 362q41 47 92.5 76t103.5 29q67 0 106 -44q36 -42 36 -103v-6q0 -67 -41.5 -112t-105.5 -45q-51 0 -78 29.5t-27 80.5q0 54 34 98.5t89 63.5q-7 5 -28 5 q-59 0 -117 -54q-151 -135 -279 -459l-79 -306q-12 -48 -14 -73t9.5 -41t34 -21t67.5 -7l-8 -33q-102 5 -264 5q-169 0 -266 -5l8 33q88 4 118 28.5t52 113.5l71 273q-13 100 -25 171t-29 136.5t-40 98.5t-51 33q-22 0 -37 -15t-26 -49l-35 -100h-36z" />
<glyph unicode="z" horiz-adv-x="1088" d="M-64 -5q-7 9 -7 19q0 20 26 44q40 36 98 58l457 373h-234l11 33h263l453 370q-38 -19 -96.5 -52t-91.5 -50.5t-79 -32t-89 -14.5q-63 0 -122 18.5t-109 36.5t-91 18q-74 0 -74 -66q0 -71 121 -96l-9 -31q-42 7 -77.5 20t-67.5 35t-50.5 57t-18.5 79q0 94 65 153.5 t174 59.5q63 0 124 -23t102 -50.5t100.5 -50.5t121.5 -23q43 0 80 10.5t95 34.5q31 47 75 79q25 18 45 18q15 0 27 -11q10 -10 10 -22q0 -18 -23 -40q-39 -37 -103 -60l-449 -367h225l-14 -33h-251l-460 -377q38 19 96 52t91 50.5t79 32t90 14.5q63 0 122 -18.5t109 -36.5 t91 -18q35 0 55 17t20 49q0 71 -121 96l7 32q91 -15 152.5 -61t61.5 -131q0 -95 -64.5 -154t-174.5 -59q-63 0 -124 23t-102 50.5t-100.5 50.5t-121.5 23q-43 0 -80 -10.5t-95 -34.5q-30 -45 -76 -79q-25 -18 -43 -18q-17 0 -29 13z" />
<glyph unicode="{" horiz-adv-x="596" d="M46 472l5 30h8q78 6 124 87.5t103 313.5q29 118 68 193.5t97 119t127.5 60t171.5 16.5l-8 -32q-35 -1 -56.5 -7.5t-42.5 -25t-38.5 -59.5t-36.5 -102.5t-44 -162.5q-27 -109 -66.5 -184.5t-95 -121.5t-117 -70.5t-149.5 -39.5q125 -28 183 -81t62 -135.5t-26 -199.5 q-50 -201 -47 -268q0 -48 22 -64t72 -18l-9 -32q-72 -1 -125 7.5t-88.5 23t-56 41t-29.5 54.5t-7 71.5t9 84.5t22 100q54 221 54 304q-1 50 -19.5 72.5t-57.5 24.5h-9z" />
<glyph unicode="|" horiz-adv-x="609" d="M248 -322v1739h145v-1739h-145z" />
<glyph unicode="}" horiz-adv-x="596" d="M-152 -310l8 31q35 1 56.5 7.5t42.5 25t38.5 59.5t36.5 102.5t44 162.5q27 109 66.5 184.5t95 121.5t117 70.5t149.5 39.5q-125 28 -183 81t-62 135.5t25 199.5q50 205 48 268q0 48 -21.5 64t-72.5 18l8 32q72 1 125 -7.5t88.5 -23t56.5 -41t30 -54.5t7 -71.5t-9 -84.5 t-22 -100q-54 -220 -54 -304q1 -50 19.5 -72.5t57.5 -24.5h9l-5 -30h-9q-78 -6 -123.5 -87t-102.5 -314q-29 -118 -68 -193.5t-97 -118.5t-127.5 -59.5t-171.5 -16.5z" />
<glyph unicode="~" horiz-adv-x="1065" d="M81 393q46 119 134.5 187.5t197.5 68.5q56 0 110 -20t90.5 -44.5t87.5 -44.5t102 -20q107 0 168 96l23 -8q-46 -118 -135 -187t-197 -69q-46 0 -89.5 13.5t-77.5 32t-67.5 37.5t-73.5 32.5t-82 13.5q-107 0 -168 -96z" />
<glyph unicode="&#xa1;" horiz-adv-x="488" d="M-69 -198q6 55 44 142t83.5 169.5t97 198.5t79.5 215l29 -5q-27 -107 -37.5 -227t-13 -252t-7.5 -193q-2 -77 -44 -119t-117 -42q-58 0 -88.5 29.5t-25.5 83.5zM185 730q4 63 49.5 105t110.5 42q55 0 85 -29t26 -80q-4 -58 -50.5 -101.5t-109.5 -43.5q-54 0 -83.5 28.5 t-27.5 78.5z" />
<glyph unicode="&#xa2;" horiz-adv-x="787" d="M51 324q0 132 56.5 262.5t169.5 239t261 160.5l50 183h36l-46 -171q93 29 210 29q90 0 145.5 -28.5t98.5 -78.5q42 -52 91 84h36q-52 -150 -107 -380h-36q10 80 10 127q0 64 -27 118q-30 63 -90 96t-136 33q-117 0 -226 -114l-200 -745q45 -132 162 -132q76 0 156.5 33.5 t140.5 94.5q44 45 75.5 101.5t73.5 159.5h36q-75 -273 -97 -396h-37q5 38 5 56q0 34 -13 40.5t-41 -12.5q-76 -52 -147.5 -79.5t-166.5 -27.5q-101 0 -185 23l-79 -299h-37l83 309q-109 39 -167 119t-58 195zM325 291q0 -38 5 -80l162 607q-76 -108 -121.5 -251t-45.5 -276z " />
<glyph unicode="&#xa3;" horiz-adv-x="1109" d="M-46 -7q0 31 43 68t120 53q70 136 118 312l16 64h-160l10 34h158l37 132h-161l10 33h159l10 36q28 107 74 193t113 154.5t161.5 106t209.5 37.5q90 0 142.5 -43t52.5 -108q0 -73 -42.5 -120t-107.5 -47q-51 0 -81 27.5t-30 77.5q0 59 36 103t93 58q-4 11 -22.5 19 t-43.5 8q-98 1 -153 -71t-93 -215l-56 -216h224l-10 -33h-223l-10 -35q-13 -57 -34 -97h233l-10 -34h-240q-30 -53 -76.5 -101.5t-88.5 -81.5t-94 -84t-89 -106q156 134 305 134q81 0 183.5 -32t145.5 -32q36 0 61 19t25 52q0 68 -116 92l8 30q90 -15 151 -59.5t61 -122.5 q0 -92 -72.5 -156.5t-182.5 -64.5q-51 0 -99 14.5t-86 34.5t-76 40.5t-85.5 35t-98.5 14.5q-69 0 -136 -25q-33 -56 -76.5 -85t-85.5 -29q-21 0 -21 16z" />
<glyph unicode="&#xa4;" horiz-adv-x="1086" d="M137 228l96 96q-46 77 -46 172q0 89 48 171l-98 96l140 140l96 -95q77 48 174 48q92 0 171 -48l98 97l140 -140l-97 -98q48 -82 48 -172q0 -91 -48 -173l96 -96l-141 -140l-97 97q-77 -46 -170 -46q-98 0 -172 46l-96 -95zM358 496q0 -90 55 -147t135 -57t135 57t55 147 t-55 147t-135 57t-135 -57t-55 -147z" />
<glyph unicode="&#xa5;" horiz-adv-x="1281" d="M165 889l43 127q58 176 233 176q48 0 86.5 -14t67 -37t51.5 -64.5t39 -85t29.5 -110t22.5 -128.5t19 -150q107 305 270 487q93 102 196 102q72 0 113 -41.5t39 -103.5q0 -61 -42.5 -103t-106.5 -42q-54 0 -83.5 27.5t-29.5 73.5q0 54 34.5 94.5t88.5 56.5q-7 7 -26 7 q-48 0 -99 -38q-76 -55 -172 -210t-173 -384l-10 -38h221l-8 -34h-221l-25 -99h218l-8 -33h-219l-37 -150q-9 -37 -9.5 -61t5.5 -39.5t23.5 -24t39 -12t58.5 -5.5l-8 -33q-102 5 -285 5q-168 0 -265 -5l8 33q86 4 117 28.5t53 113.5l38 150h-231l8 33h231l25 99h-228l8 34 h228l10 41q-11 100 -26.5 188.5t-38 170.5t-54.5 130.5t-69 48.5q-54 0 -76 -77l-37 -104h-36z" />
<glyph unicode="&#xa6;" horiz-adv-x="614" d="M251 -322v860h145v-860h-145zM251 634v783h145v-783h-145z" />
<glyph unicode="&#xa7;" horiz-adv-x="951" d="M-20 -160q0 62 45 108.5t110 46.5q47 0 73.5 -22.5t26.5 -61.5q0 -51 -33.5 -91.5t-84.5 -60.5q7 -17 43 -27.5t76 -10.5q91 0 155.5 54.5t64.5 153.5q0 20 -4 38t-15.5 36.5t-20 31t-30.5 33.5t-33 30.5t-42 35.5t-43 36q-58 48 -86.5 74.5t-61 63.5t-45 70.5 t-12.5 72.5q0 197 271 329q-75 86 -75 171q0 79 41 145.5t107 108t145.5 64.5t159.5 23q40 0 81 -7t84 -22.5t70 -47t27 -74.5q0 -62 -45.5 -108.5t-110.5 -46.5q-47 0 -74 25t-27 66q0 46 34.5 85.5t84.5 59.5q-9 18 -43.5 28t-75.5 10q-91 0 -156.5 -53.5t-65.5 -152.5 q0 -20 4 -38t15.5 -37t20.5 -31.5t31 -33.5t33.5 -31t41.5 -35.5t43 -36.5q58 -49 86.5 -74.5t61 -63t45.5 -71t13 -72.5q0 -197 -272 -329q76 -84 76 -171q0 -79 -41.5 -145.5t-107.5 -107.5t-145 -64t-159 -23q-42 0 -82.5 6t-83 21t-69 47t-26.5 76zM261 590 q0 -55 45.5 -109t155.5 -141q84 -65 133 -114q82 60 92 146q7 45 -13 85.5t-60.5 79t-124.5 104.5q-92 74 -131 114q-97 -75 -97 -165z" />
<glyph unicode="&#xa9;" horiz-adv-x="1504" d="M134 634q0 134 52 255.5t140 210t209.5 140.5t255.5 52t255.5 -52t209.5 -140.5t140 -210t52 -255.5q0 -179 -88 -330t-239 -239t-330 -88t-330 88t-239 239t-88 330zM200 634q0 -123 46.5 -235t126 -192.5t189 -128.5t229.5 -48t229.5 48t189 128.5t126 192.5t46.5 235 q0 164 -79 303.5t-215 220.5t-297 81t-297 -81t-215 -220.5t-79 -303.5zM420 631q0 217 113 335.5t296 118.5q74 0 139.5 -20.5t111.5 -69t46 -115.5q0 -58 -36.5 -95t-93.5 -37q-58 0 -92.5 34t-34.5 90q0 49 30.5 85t78.5 49q-16 18 -48.5 29.5t-67.5 11.5 q-44 0 -77.5 -18.5t-60.5 -61.5t-41 -122t-14 -193q0 -100 18.5 -172.5t50.5 -112.5t68.5 -58t80.5 -18q137 0 216 165l30 -12q-33 -106 -116.5 -182.5t-212.5 -76.5q-171 0 -277.5 111.5t-106.5 334.5z" />
<glyph unicode="&#xaa;" horiz-adv-x="878" d="M164 748q0 99 63.5 203.5t164 172.5t199.5 68q64 0 70 -57l11 43q127 0 215 14l-142 -449q-11 -31 -7 -49t27 -18q48 0 72 72l15 41h32l-22 -59q-49 -135 -193 -135q-72 0 -103 38.5t-11 129.5q-88 -168 -231 -168q-77 0 -118.5 39.5t-41.5 113.5zM383 756q0 -84 40 -84 q37 0 85.5 67.5t87.5 167.5l51 183q-3 63 -39 63q-43 0 -95.5 -57.5t-91 -152t-38.5 -187.5z" />
<glyph unicode="&#xab;" horiz-adv-x="967" d="M31 408l5 20q262 165 542 449h30q-50 -109 -151 -251.5t-178 -207.5q50 -61 96.5 -198.5t55.5 -242.5h-30q-179 279 -370 431zM393 408l5 20q232 146 494 409h30q-42 -97 -132 -228t-159 -191q44 -55 85 -181t49 -221h-30q-171 259 -342 392z" />
<glyph unicode="&#xac;" horiz-adv-x="1066" d="M142 562l15 49h827l-97 -338h-60l83 289h-768z" />
<glyph unicode="&#xad;" horiz-adv-x="835" />
<glyph unicode="&#xae;" horiz-adv-x="1131" d="M197 831q0 191 135 326t325 135q125 0 231 -62t168 -168t62 -231t-62 -231t-168 -168t-231 -62q-190 0 -325 135t-135 326zM266 831q0 -168 114 -288t277 -120t277.5 120t114.5 288t-114.5 288t-277.5 120t-277 -120t-114 -288zM433 581v25q24 2 31 13t7 48v362 q0 39 -7 50t-31 13v24q12 -1 102 -1q35 0 85 0.5t57 0.5q202 0 202 -130q0 -45 -38 -82t-131 -53q75 -6 105.5 -28t40.5 -68l24 -108q8 -39 25 -39q11 0 18 10l13 -17q-26 -30 -85 -30q-53 0 -79.5 17t-34.5 54l-25 121q-8 42 -26.5 57t-77.5 17v-170q0 -37 7 -48t31 -13 v-25q-12 0 -48 1t-56 1q-23 0 -61.5 -1t-47.5 -1zM608 865h20q112 0 112 111q0 116 -89 116q-26 0 -34.5 -10t-8.5 -37v-180z" />
<glyph unicode="&#xb0;" horiz-adv-x="549" d="M231 1156q0 89 58.5 143.5t141.5 54.5t142.5 -54.5t59.5 -143.5q0 -90 -59 -145t-143 -55q-83 0 -141.5 55t-58.5 145zM271 1156q0 -80 49 -124t111 -44t112 44.5t50 123.5q0 76 -50.5 121.5t-111.5 45.5t-110.5 -45t-49.5 -122z" />
<glyph unicode="&#xb1;" horiz-adv-x="1020" d="M-38 0l15 50h827l-15 -50h-827zM117 562l15 49h385l111 390h59l-111 -390h384l-15 -49h-383l-111 -389h-60l111 389h-385z" />
<glyph unicode="&#xb2;" horiz-adv-x="587" d="M125 722l7 29q14 10 55.5 38t76 52t79 60t74.5 68.5t51.5 71.5t21.5 74q0 68 -82 68q-88 0 -164 -80l-23 18q47 54 117.5 89t160.5 35q68 0 108 -23t40 -69q0 -36 -22.5 -71.5t-63 -68.5t-79 -58.5t-88.5 -57t-74 -48.5q28 0 102.5 -15t101.5 -15q31 0 49 13t18 37 q0 17 -6 29l28 12q26 -40 26 -81q0 -50 -40 -82t-113 -32q-36 0 -111.5 14t-120.5 16q-41 1 -66 -3.5t-63 -19.5z" />
<glyph unicode="&#xb3;" horiz-adv-x="559" d="M63 573v30q95 8 180.5 38.5t145.5 88t60 129.5q0 77 -71 86q-33 -17 -53 -17q-29 0 -29 22q0 31 72 28q61 26 97.5 64.5t36.5 82.5q0 61 -71 61q-90 0 -178 -84l-23 19q44 49 118 86.5t157 37.5q69 0 110.5 -22.5t41.5 -66.5t-46 -85t-105.5 -66.5t-117.5 -36.5 q220 -4 220 -122q0 -59 -53.5 -109.5t-137 -83.5t-175.5 -53.5t-179 -26.5z" />
<glyph unicode="&#xb6;" horiz-adv-x="1169" d="M66 378q0 162 61 308.5t164 253t248 169t305 62.5q58 0 155.5 -2.5t141.5 -2.5q108 0 159 3l-8 -31q-77 -4 -109 -29t-48 -83l-237 -900q-27 -100 -66 -176t-97 -136.5t-142 -92.5t-190 -32q-105 0 -168 30t-63 94q0 54 38.5 91t103.5 37q53 0 87.5 -25t34.5 -68 q0 -78 -88 -125q15 -5 47 -5q71 0 112.5 61t83.5 200q-525 0 -525 399zM241 580q-1 -5 55 -13t163 -14t223 -6q-28 -120 -45 -238t-18 -167t2 -63q266 997 269 1004q-7 0 -37 -62t-74 -176t-79 -231q-114 0 -226 -7t-172 -15t-61 -12z" />
<glyph unicode="&#xb7;" horiz-adv-x="477" d="M91 416q2 63 47.5 105t110.5 42q55 0 85 -29t28 -80q-4 -58 -51.5 -101.5t-110.5 -43.5q-55 0 -84 28.5t-25 78.5z" />
<glyph unicode="&#xb9;" horiz-adv-x="442" d="M177 1047l8 32q83 22 152.5 54t102 52.5t84.5 58.5h31l-167 -522h-157l126 386q-9 -3 -30.5 -12t-33.5 -13.5t-32 -11.5t-40.5 -13t-43.5 -11z" />
<glyph unicode="&#xba;" horiz-adv-x="810" d="M173 798q0 46 16.5 98.5t52 105t84 95t118.5 69t149 26.5q122 0 190.5 -51t68.5 -152q0 -59 -27.5 -125t-77.5 -127t-133 -101t-181 -40q-121 0 -190.5 51t-69.5 151zM381 722q0 -96 60 -96q49 0 97 68.5t77 171.5t29 201q0 96 -59 96q-49 0 -97 -69t-77.5 -172 t-29.5 -200z" />
<glyph unicode="&#xbb;" horiz-adv-x="966" d="M16 16q42 98 131 228t157 190q-43 57 -83.5 183t-48.5 220h29q172 -261 342 -393l-5 -20q-239 -150 -492 -408h-30zM329 -23q50 109 150.5 251t177.5 206q-50 61 -96.5 199.5t-55.5 243.5h30q182 -284 372 -433l-5 -20q-268 -168 -544 -447h-29z" />
<glyph unicode="&#xbc;" horiz-adv-x="1103" d="M-187 -69l1376 1430l25 -22l-1376 -1430zM177 1047l8 31q83 22 153 54.5t101.5 52.5t84.5 59h31l-167 -522h-157l126 386q-9 -3 -30.5 -12t-33.5 -13.5t-32 -11.5t-40.5 -13t-43.5 -11zM213 13l8 30l555 481h32l-121 -413h86l-28 -98h-86l-45 -153h-125l44 153h-320z M345 111h217l72 249z" />
<glyph unicode="&#xbd;" horiz-adv-x="1025" d="M-187 -69l1376 1430l25 -22l-1376 -1430zM177 1047l8 32q83 22 152.5 54t102 52.5t84.5 58.5h31l-167 -522h-157l126 386q-9 -3 -30.5 -12t-33.5 -13.5t-32 -11.5t-40.5 -13t-43.5 -11zM386 0l7 30q14 10 55.5 38t76 52t79 60t74.5 68t51.5 71t21.5 74q0 68 -82 68 q-89 0 -164 -79l-23 18q47 54 117.5 89t160.5 35q68 0 108 -23.5t40 -69.5q0 -36 -22.5 -71.5t-63 -68.5t-79 -58.5t-88.5 -57t-74 -48.5q27 0 101 -15t102 -15q31 0 49.5 13t18.5 37q0 18 -6 30l28 11q26 -40 26 -81q0 -50 -40 -82t-113 -32q-36 0 -111.5 14t-120.5 16 q-41 1 -66 -3.5t-63 -19.5z" />
<glyph unicode="&#xbe;" horiz-adv-x="1238" d="M-21 -69l1375 1430l25 -22l-1376 -1430zM63 573v30q95 8 180.5 38.5t145.5 88t60 129.5q0 77 -71 86q-33 -17 -53 -17q-29 0 -29 22q0 31 72 28q61 26 97.5 64.5t36.5 82.5q0 61 -71 61q-90 0 -178 -84l-23 19q44 49 118 86.5t157 37.5q69 0 110.5 -22.5t41.5 -66.5 t-46 -85t-105.5 -66.5t-117.5 -36.5q220 -4 220 -122q0 -59 -53.5 -109.5t-137 -83.5t-175.5 -53.5t-179 -26.5zM378 13l9 30l554 481h32l-121 -413h86l-28 -98h-86l-44 -153h-126l45 153h-321zM510 111h217l72 249z" />
<glyph unicode="&#xbf;" horiz-adv-x="805" d="M-73 -126q0 70 55 125t203 153q125 87 158 118q57 55 57 118q0 42 -27 71.5t-82 29.5q-36 0 -72.5 -11t-53.5 -29q32 -2 57.5 -26.5t25.5 -60.5q0 -40 -32.5 -68t-81.5 -28q-41 0 -66 21t-25 63q0 45 31 80t80 54.5t102.5 29.5t106.5 10q120 0 196.5 -45.5t76.5 -126.5 q0 -38 -15.5 -72.5t-61 -75t-67 -57t-92.5 -65.5q-10 -7 -15 -11q-122 -81 -168.5 -127.5t-46.5 -105.5q0 -53 37.5 -82.5t101.5 -29.5q39 0 82 10.5t62 30.5q-41 5 -70.5 35t-29.5 71q1 46 38 76.5t88 30.5q47 0 78 -26.5t31 -75.5q0 -64 -56 -108.5t-133 -62.5t-164 -18 q-141 0 -224.5 49t-83.5 136zM345 730q4 63 49.5 105t110.5 42q55 0 85 -29t26 -80q-4 -58 -50.5 -101.5t-109.5 -43.5q-54 0 -83.5 28.5t-27.5 78.5z" />
<glyph unicode="&#xc0;" horiz-adv-x="1078" d="M-152 0l7 33q43 11 83.5 49t102.5 126l689 970q44 -5 84 0l66 -1039q5 -54 28.5 -79t52.5 -27l-6 -33q-93 5 -240 5q-160 0 -248 -5l7 33q84 4 115.5 31.5t26.5 107.5l-13 271h-359l-145 -207q-49 -70 -51.5 -115t33 -64.5t104.5 -23.5l-8 -33q-153 5 -215 5 q-56 0 -114 -5zM269 476h332l-25 436zM489.5 1457.5q-12.5 34.5 5.5 70.5q20 35 64.5 39t73.5 -18q29 -17 56 -51t73 -92t102 -114l-13 -19q-85 40 -184 74t-132 55t-45.5 55.5z" />
<glyph unicode="&#xc1;" horiz-adv-x="1078" d="M-152 0l7 33q43 11 83.5 49t102.5 126l689 970q44 -5 84 0l66 -1039q5 -54 28.5 -79t52.5 -27l-6 -33q-93 5 -240 5q-160 0 -248 -5l7 33q84 4 115.5 31.5t26.5 107.5l-13 271h-359l-145 -207q-49 -70 -51.5 -115t33 -64.5t104.5 -23.5l-8 -33q-153 5 -215 5 q-56 0 -114 -5zM269 476h332l-25 436zM748 1295q66 52 129.5 111t105 96.5t79.5 58.5q33 22 81 17.5t69 -44.5q18 -36 -1.5 -69.5t-64.5 -57.5q-43 -24 -169 -60t-217 -72z" />
<glyph unicode="&#xc2;" horiz-adv-x="1078" d="M-152 0l7 33q43 11 83.5 49t102.5 126l689 970q44 -5 84 0l66 -1039q5 -54 28.5 -79t52.5 -27l-6 -33q-93 5 -240 5q-160 0 -248 -5l7 33q84 4 115.5 31.5t26.5 107.5l-13 271h-359l-145 -207q-49 -70 -51.5 -115t33 -64.5t104.5 -23.5l-8 -33q-153 5 -215 5 q-56 0 -114 -5zM269 476h332l-25 436zM415 1297q137 43 255.5 111t191.5 145h30q38 -93 90 -153.5t139 -102.5l-6 -24q-75 12 -139 29.5t-101 31t-92 37.5q-170 -62 -360 -98z" />
<glyph unicode="&#xc3;" horiz-adv-x="1078" d="M-152 0l7 33q43 11 83.5 49t102.5 126l689 970q44 -5 84 0l66 -1039q5 -54 28.5 -79t52.5 -27l-6 -33q-93 5 -240 5q-160 0 -248 -5l7 33q84 4 115.5 31.5t26.5 107.5l-13 271h-359l-145 -207q-49 -70 -51.5 -115t33 -64.5t104.5 -23.5l-8 -33q-153 5 -215 5 q-56 0 -114 -5zM269 476h332l-25 436zM449 1301q45 117 118.5 173.5t155.5 56.5q55 0 101 -19t72 -41.5t63.5 -41.5t77.5 -19q70 0 127 96l30 -8q-45 -116 -118.5 -173t-155.5 -57q-55 0 -101 19t-72 41.5t-63.5 41.5t-77.5 19q-70 0 -127 -96z" />
<glyph unicode="&#xc4;" horiz-adv-x="1078" d="M-152 0l7 33q43 11 83.5 49t102.5 126l689 970q44 -5 84 0l66 -1039q5 -54 28.5 -79t52.5 -27l-6 -33q-93 5 -240 5q-160 0 -248 -5l7 33q84 4 115.5 31.5t26.5 107.5l-13 271h-359l-145 -207q-49 -70 -51.5 -115t33 -64.5t104.5 -23.5l-8 -33q-153 5 -215 5 q-56 0 -114 -5zM269 476h332l-25 436zM469 1374q0 64 42 102.5t100 38.5q52 0 79.5 -30.5t27.5 -80.5q0 -65 -42 -102t-101 -37q-52 0 -79 29.5t-27 79.5zM865 1374q0 64 42 102.5t100 38.5q52 0 80 -30.5t28 -80.5q0 -65 -42.5 -102t-101.5 -37q-53 0 -79.5 29.5 t-26.5 79.5z" />
<glyph unicode="&#xc5;" horiz-adv-x="1078" d="M-152 0l7 33q43 11 83.5 49t102.5 126l689 970q44 -5 84 0l66 -1039q5 -54 28.5 -79t52.5 -27l-6 -33q-93 5 -240 5q-160 0 -248 -5l7 33q84 4 115.5 31.5t26.5 107.5l-13 271h-359l-145 -207q-49 -70 -51.5 -115t33 -64.5t104.5 -23.5l-8 -33q-153 5 -215 5 q-56 0 -114 -5zM269 476h332l-25 436zM621 1368q0 76 58 128t142 52q70 0 116 -39t46 -102q0 -75 -62 -128.5t-143 -53.5q-68 0 -112.5 39t-44.5 104zM666 1368q0 -50 35.5 -79t83.5 -29q61 0 108 42.5t47 103.5q0 51 -37.5 79t-86.5 28q-60 0 -105 -44t-45 -101z" />
<glyph unicode="&#xc6;" horiz-adv-x="1494" d="M-142 0v33q51 3 142 106l799 941q-2 32 -25.5 43t-84.5 13l8 33q82 -3 175 -3l94 111h43l-94 -111q124 -2 315 -2q238 0 342 5q-4 -10 -62 -195q-16 -54 -22 -102h-36q26 145 -4 202t-130 57h-104q-83 0 -112.5 -24t-52.5 -113l-104 -389h129q35 0 62 13.5t47.5 44 t32 55.5t28.5 71h36q-18 -55 -56 -201q-18 -68 -43 -202h-36q0 16 4 46.5t4 50t-5 41t-25.5 33.5t-55.5 14h-131l-105 -396q-22 -91 -5.5 -114t99.5 -23h120q117 0 178 62.5t118 229.5h36q-9 -21 -34 -119q-25 -86 -43 -211q-112 5 -373 5q-356 0 -536 -5l7 33 q86 4 116.5 28.5t53.5 113.5l106 396h-264l-354 -416q-21 -24 -32 -40t-14.5 -31.5t6 -24.5t33 -16t62.5 -10v-33q-50 5 -142 5q-68 0 -111 -5zM438 605h244l104 389l7 28z" />
<glyph unicode="&#xc7;" horiz-adv-x="1144" d="M71 386q0 96 27 193.5t75.5 187t120.5 167.5t157.5 135t191 90t217.5 33q93 0 147 -28t100 -79q34 -40 71 38l19 46h35q-55 -144 -106 -380h-36q29 179 -15 256q-58 108 -195 108q-133 0 -253 -117t-191 -302t-71 -381q0 -164 58.5 -245.5t164.5 -81.5q63 0 131 28.5 t117 80.5q43 46 75 103t73 158h37q-78 -283 -98 -396h-36q5 38 5 56q0 66 -55 28q-150 -101 -304 -107l-36 -81q45 16 96 16t81 -20t30 -59q0 -49 -44.5 -83t-105.5 -47.5t-131 -13.5q-110 0 -180 34l10 24q65 -18 133 -18q22 0 45 3t48 10.5t40.5 23.5t15.5 39q0 38 -53 38 q-30 0 -58 -11l65 145q-209 6 -313.5 111t-104.5 298z" />
<glyph unicode="&#xc8;" horiz-adv-x="1033" d="M-71 0l8 33q85 4 115.5 28.5t54.5 113.5l218 819q22 91 5 114.5t-102 27.5l8 33q180 -5 537 -5q234 0 335 5q-46 -128 -63 -195q-6 -24 -21 -102h-36q10 146 -29.5 202.5t-152.5 56.5h-51q-84 0 -114 -23.5t-53 -113.5l-104 -390h61q82 0 137.5 58t88.5 141h38 q-16 -46 -26.5 -82t-20.5 -77.5t-14 -55.5q-20 -75 -48 -215h-36q16 198 -137 198h-51l-106 -396q-13 -47 -15 -72.5t9.5 -41t33.5 -19.5t66 -4h61q132 0 208 63.5t149 228.5h38q-14 -36 -36 -119q-25 -86 -43 -211q-112 5 -375 5q-357 0 -537 -5zM423.5 1457.5 q-12.5 34.5 5.5 70.5q20 35 64.5 39t73.5 -18q29 -17 56 -51t73 -92t102 -114l-13 -19q-85 40 -184 74t-132 55t-45.5 55.5z" />
<glyph unicode="&#xc9;" horiz-adv-x="1033" d="M-71 0l8 33q85 4 115.5 28.5t54.5 113.5l218 819q22 91 5 114.5t-102 27.5l8 33q180 -5 537 -5q234 0 335 5q-46 -128 -63 -195q-6 -24 -21 -102h-36q10 146 -29.5 202.5t-152.5 56.5h-51q-84 0 -114 -23.5t-53 -113.5l-104 -390h61q82 0 137.5 58t88.5 141h38 q-16 -46 -26.5 -82t-20.5 -77.5t-14 -55.5q-20 -75 -48 -215h-36q16 198 -137 198h-51l-106 -396q-13 -47 -15 -72.5t9.5 -41t33.5 -19.5t66 -4h61q132 0 208 63.5t149 228.5h38q-14 -36 -36 -119q-25 -86 -43 -211q-112 5 -375 5q-357 0 -537 -5zM682 1295q66 52 129.5 111 t105 96.5t79.5 58.5q33 22 81 17.5t69 -44.5q18 -36 -1.5 -69.5t-64.5 -57.5q-43 -24 -169 -60t-217 -72z" />
<glyph unicode="&#xca;" horiz-adv-x="1033" d="M-71 0l8 33q85 4 115.5 28.5t54.5 113.5l218 819q22 91 5 114.5t-102 27.5l8 33q180 -5 537 -5q234 0 335 5q-46 -128 -63 -195q-6 -24 -21 -102h-36q10 146 -29.5 202.5t-152.5 56.5h-51q-84 0 -114 -23.5t-53 -113.5l-104 -390h61q82 0 137.5 58t88.5 141h38 q-16 -46 -26.5 -82t-20.5 -77.5t-14 -55.5q-20 -75 -48 -215h-36q16 198 -137 198h-51l-106 -396q-13 -47 -15 -72.5t9.5 -41t33.5 -19.5t66 -4h61q132 0 208 63.5t149 228.5h38q-14 -36 -36 -119q-25 -86 -43 -211q-112 5 -375 5q-357 0 -537 -5zM348 1297 q138 43 256.5 111.5t191.5 144.5h30q38 -93 90 -153.5t139 -102.5l-6 -24q-75 12 -139 29.5t-101 31t-92 37.5q-170 -62 -360 -98z" />
<glyph unicode="&#xcb;" horiz-adv-x="1033" d="M-71 0l8 33q85 4 115.5 28.5t54.5 113.5l218 819q22 91 5 114.5t-102 27.5l8 33q180 -5 537 -5q234 0 335 5q-46 -128 -63 -195q-6 -24 -21 -102h-36q10 146 -29.5 202.5t-152.5 56.5h-51q-84 0 -114 -23.5t-53 -113.5l-104 -390h61q82 0 137.5 58t88.5 141h38 q-16 -46 -26.5 -82t-20.5 -77.5t-14 -55.5q-20 -75 -48 -215h-36q16 198 -137 198h-51l-106 -396q-13 -47 -15 -72.5t9.5 -41t33.5 -19.5t66 -4h61q132 0 208 63.5t149 228.5h38q-14 -36 -36 -119q-25 -86 -43 -211q-112 5 -375 5q-357 0 -537 -5zM401 1374q0 64 42 102.5 t100 38.5q52 0 80 -30.5t28 -80.5q0 -65 -42.5 -102t-101.5 -37q-52 0 -79 29.5t-27 79.5zM798 1374q0 64 42 102.5t100 38.5q52 0 79.5 -30.5t27.5 -80.5q0 -65 -42.5 -102t-101.5 -37q-53 0 -79 29.5t-26 79.5z" />
<glyph unicode="&#xcc;" horiz-adv-x="644" d="M-68 0l9 33q82 4 112.5 28.5t53.5 113.5l218 819q22 91 5 114.5t-102 27.5l8 33q92 -5 259 -5q153 0 271 5l-8 -33q-87 -4 -117 -28.5t-53 -113.5l-218 -819q-12 -48 -14 -73t9.5 -41t34 -21t67.5 -7l-6 -33q-107 5 -269 5q-163 0 -260 -5zM260.5 1457.5 q-12.5 34.5 5.5 70.5q20 35 64 39t73 -18q29 -17 56 -51t73 -92t102 -114l-13 -19q-85 40 -183.5 74t-131.5 55t-45.5 55.5z" />
<glyph unicode="&#xcd;" horiz-adv-x="644" d="M-68 0l9 33q82 4 112.5 28.5t53.5 113.5l218 819q22 91 5 114.5t-102 27.5l8 33q92 -5 259 -5q153 0 271 5l-8 -33q-87 -4 -117 -28.5t-53 -113.5l-218 -819q-12 -48 -14 -73t9.5 -41t34 -21t67.5 -7l-6 -33q-107 5 -269 5q-163 0 -260 -5zM519 1295q76 60 171 150 t142 116q33 22 81.5 17.5t69.5 -44.5q18 -36 -1.5 -69.5t-64.5 -57.5q-43 -24 -169 -60t-218 -72z" />
<glyph unicode="&#xce;" horiz-adv-x="644" d="M-68 0l9 33q82 4 112.5 28.5t53.5 113.5l218 819q22 91 5 114.5t-102 27.5l8 33q92 -5 259 -5q153 0 271 5l-8 -33q-87 -4 -117 -28.5t-53 -113.5l-218 -819q-12 -48 -14 -73t9.5 -41t34 -21t67.5 -7l-6 -33q-107 5 -269 5q-163 0 -260 -5zM183 1297q138 43 256.5 111.5 t191.5 144.5h30q38 -93 90 -153.5t139 -102.5l-6 -24q-75 12 -139 29.5t-101 31t-92 37.5q-170 -62 -360 -98z" />
<glyph unicode="&#xcf;" horiz-adv-x="644" d="M-68 0l9 33q82 4 112.5 28.5t53.5 113.5l218 819q22 91 5 114.5t-102 27.5l8 33q92 -5 259 -5q153 0 271 5l-8 -33q-87 -4 -117 -28.5t-53 -113.5l-218 -819q-12 -48 -14 -73t9.5 -41t34 -21t67.5 -7l-6 -33q-107 5 -269 5q-163 0 -260 -5zM238 1374q0 64 42 102.5 t100 38.5q52 0 79.5 -30.5t27.5 -80.5q0 -65 -42 -102t-101 -37q-52 0 -79 29.5t-27 79.5zM634 1374q0 64 42 102.5t100 38.5q52 0 80 -30.5t28 -80.5q0 -65 -42.5 -102t-101.5 -37q-53 0 -79.5 29.5t-26.5 79.5z" />
<glyph unicode="&#xd0;" horiz-adv-x="1273" d="M-63 0l5 33q82 4 112 28.5t53 113.5l103 388h-177l10 41h178l103 390q13 47 12.5 77.5t-26 46.5t-82.5 18l5 33q154 -8 271 -5q145 5 246 5q242 0 370.5 -100t128.5 -294q0 -110 -31.5 -219t-98 -209.5t-160.5 -177.5t-230 -123t-295 -46q-20 0 -104 2.5t-145 2.5 q-151 0 -248 -5zM354 61q10 -31 80 -31q102 0 192 46.5t153.5 125.5t110 181.5t69 216t22.5 227.5q0 156 -64 234.5t-204 78.5q-61 0 -82 -24.5t-45 -117.5l-102 -394h259l-10 -41h-261l-102 -391q-26 -80 -16 -111z" />
<glyph unicode="&#xd1;" horiz-adv-x="1362" d="M-132 18q0 65 42 107.5t108 42.5q54 0 84 -27.5t30 -71.5q0 -54 -35 -95.5t-90 -57.5q10 -7 28 -7q85 0 138 89q111 173 271 996q19 91 -0.5 114.5t-116.5 27.5l8 33q58 -5 147 -5q71 0 134 5l342 -786q138 598 248 757q73 105 178 105q73 0 115 -39.5t42 -100.5 q0 -64 -42.5 -107t-107.5 -43q-54 0 -84 27t-30 72q0 54 35 95.5t89 57.5q-7 7 -27 7q-79 0 -139 -88q-73 -109 -152 -383.5t-180 -750.5h-36l-410 897q-155 -772 -257 -907q-37 -49 -77 -76.5t-100 -27.5q-73 0 -114 39.5t-41 100.5zM580 1301q45 117 118.5 173.5 t155.5 56.5q55 0 101 -19t72 -41.5t63.5 -41.5t77.5 -19q70 0 127 96l30 -8q-45 -116 -119 -173t-156 -57q-55 0 -101 19t-72 41.5t-63 41.5t-77 19q-71 0 -128 -96z" />
<glyph unicode="&#xd2;" horiz-adv-x="1283" d="M69 373q0 110 34 225t100 221t155 189.5t209 133.5t251 50q212 0 330.5 -104t118.5 -294q0 -109 -34 -224t-100.5 -220.5t-156 -189t-209 -133.5t-250.5 -50q-212 0 -330 103.5t-118 292.5zM353 352q0 -159 50 -252t129 -93q112 0 217 119t168.5 307.5t63.5 384.5 q0 159 -49.5 252t-128.5 93q-112 0 -217.5 -119t-169 -307.5t-63.5 -384.5zM567.5 1457.5q-12.5 34.5 5.5 70.5q20 35 64 39t73 -18q29 -17 56 -51t73 -92t102 -114l-13 -19q-85 40 -183.5 74t-131.5 55t-45.5 55.5z" />
<glyph unicode="&#xd3;" horiz-adv-x="1283" d="M69 373q0 110 34 225t100 221t155 189.5t209 133.5t251 50q212 0 330.5 -104t118.5 -294q0 -109 -34 -224t-100.5 -220.5t-156 -189t-209 -133.5t-250.5 -50q-212 0 -330 103.5t-118 292.5zM353 352q0 -159 50 -252t129 -93q112 0 217 119t168.5 307.5t63.5 384.5 q0 159 -49.5 252t-128.5 93q-112 0 -217.5 -119t-169 -307.5t-63.5 -384.5zM826 1295q66 52 129.5 111t105 96.5t79.5 58.5q33 22 81 17.5t69 -44.5q18 -36 -1.5 -69.5t-64.5 -57.5q-43 -24 -169 -60t-218 -72z" />
<glyph unicode="&#xd4;" horiz-adv-x="1283" d="M69 373q0 110 34 225t100 221t155 189.5t209 133.5t251 50q212 0 330.5 -104t118.5 -294q0 -109 -34 -224t-100.5 -220.5t-156 -189t-209 -133.5t-250.5 -50q-212 0 -330 103.5t-118 292.5zM353 352q0 -159 50 -252t129 -93q112 0 217 119t168.5 307.5t63.5 384.5 q0 159 -49.5 252t-128.5 93q-112 0 -217.5 -119t-169 -307.5t-63.5 -384.5zM492 1297q138 43 256.5 111.5t191.5 144.5h29q38 -92 90.5 -153t139.5 -103l-7 -24q-75 12 -139 29.5t-101 31t-92 37.5q-170 -62 -360 -98z" />
<glyph unicode="&#xd5;" horiz-adv-x="1283" d="M69 373q0 110 34 225t100 221t155 189.5t209 133.5t251 50q212 0 330.5 -104t118.5 -294q0 -109 -34 -224t-100.5 -220.5t-156 -189t-209 -133.5t-250.5 -50q-212 0 -330 103.5t-118 292.5zM353 352q0 -159 50 -252t129 -93q112 0 217 119t168.5 307.5t63.5 384.5 q0 159 -49.5 252t-128.5 93q-112 0 -217.5 -119t-169 -307.5t-63.5 -384.5zM527 1301q45 117 118.5 173.5t155.5 56.5q55 0 101 -19t72 -41.5t63.5 -41.5t77.5 -19q70 0 127 96l30 -8q-45 -116 -118.5 -173t-155.5 -57q-55 0 -101 19t-72 41.5t-63.5 41.5t-77.5 19 q-70 0 -127 -96z" />
<glyph unicode="&#xd6;" horiz-adv-x="1283" d="M69 373q0 110 34 225t100 221t155 189.5t209 133.5t251 50q212 0 330.5 -104t118.5 -294q0 -109 -34 -224t-100.5 -220.5t-156 -189t-209 -133.5t-250.5 -50q-212 0 -330 103.5t-118 292.5zM353 352q0 -159 50 -252t129 -93q112 0 217 119t168.5 307.5t63.5 384.5 q0 159 -49.5 252t-128.5 93q-112 0 -217.5 -119t-169 -307.5t-63.5 -384.5zM547 1374q0 64 42 102.5t100 38.5q52 0 79.5 -30.5t27.5 -80.5q0 -65 -42.5 -102t-101.5 -37q-52 0 -78.5 29.5t-26.5 79.5zM943 1374q0 64 42 102.5t100 38.5q52 0 79.5 -30.5t27.5 -80.5 q0 -65 -42 -102t-101 -37q-53 0 -79.5 29.5t-26.5 79.5z" />
<glyph unicode="&#xd7;" horiz-adv-x="819" d="M31 301l369 285l-207 289l43 30l203 -289l375 292l27 -36l-375 -291l206 -285l-41 -30l-205 286l-370 -288z" />
<glyph unicode="&#xd8;" horiz-adv-x="1283" d="M-5 -97l182 188q-108 103 -108 282q0 110 34 225t100 221t155 189.5t209 133.5t251 50q199 0 317 -92l168 177l25 -22l-169 -178q108 -106 108 -283q0 -109 -34 -224t-100.5 -220.5t-156 -189t-209 -133.5t-250.5 -50q-195 0 -312 89l-182 -187zM353 352q0 -62 7 -108 l611 699q-17 105 -61.5 162.5t-106.5 57.5q-112 0 -217.5 -119t-169 -307.5t-63.5 -384.5zM368 198q19 -91 62.5 -141t101.5 -50q112 0 217 119t168.5 307.5t63.5 384.5q0 41 -3 80z" />
<glyph unicode="&#xd9;" horiz-adv-x="1146" d="M124.5 258q-0.5 90 35.5 218l137 518q22 91 5 114.5t-102 27.5l10 33q93 -5 272 -5q143 0 256 5l-10 -33q-87 -4 -117 -28.5t-53 -113.5l-145 -546q-58 -205 -33 -309t142 -104q90 0 161 31.5t121 91t84.5 133.5t59.5 171l114 436q15 58 21 93.5t4 64t-17 43.5t-40 23.5 t-67 13.5l8 33q68 -5 177 -5q85 0 145 5l-8 -33q-81 -11 -116 -54t-66 -164l-112 -437q-60 -230 -162 -351q-61 -71 -149.5 -112t-188.5 -41q-241 0 -323 130q-43 61 -43.5 151zM524.5 1457.5q-12.5 34.5 5.5 70.5q20 35 64 39t73 -18q29 -17 56 -51t73 -92t102 -114 l-13 -19q-85 40 -183.5 74t-131.5 55t-45.5 55.5z" />
<glyph unicode="&#xda;" horiz-adv-x="1146" d="M124.5 258q-0.5 90 35.5 218l137 518q22 91 5 114.5t-102 27.5l10 33q93 -5 272 -5q143 0 256 5l-10 -33q-87 -4 -117 -28.5t-53 -113.5l-145 -546q-58 -205 -33 -309t142 -104q90 0 161 31.5t121 91t84.5 133.5t59.5 171l114 436q15 58 21 93.5t4 64t-17 43.5t-40 23.5 t-67 13.5l8 33q68 -5 177 -5q85 0 145 5l-8 -33q-81 -11 -116 -54t-66 -164l-112 -437q-60 -230 -162 -351q-61 -71 -149.5 -112t-188.5 -41q-241 0 -323 130q-43 61 -43.5 151zM783 1295q66 52 129.5 111t105 96.5t79.5 58.5q33 22 81 17.5t69 -44.5q18 -36 -1.5 -69.5 t-64.5 -57.5q-43 -24 -169 -60t-218 -72z" />
<glyph unicode="&#xdb;" horiz-adv-x="1146" d="M124.5 258q-0.5 90 35.5 218l137 518q22 91 5 114.5t-102 27.5l10 33q93 -5 272 -5q143 0 256 5l-10 -33q-87 -4 -117 -28.5t-53 -113.5l-145 -546q-58 -205 -33 -309t142 -104q90 0 161 31.5t121 91t84.5 133.5t59.5 171l114 436q15 58 21 93.5t4 64t-17 43.5t-40 23.5 t-67 13.5l8 33q68 -5 177 -5q85 0 145 5l-8 -33q-81 -11 -116 -54t-66 -164l-112 -437q-60 -230 -162 -351q-61 -71 -149.5 -112t-188.5 -41q-241 0 -323 130q-43 61 -43.5 151zM449 1297q138 43 256.5 111.5t191.5 144.5h30q38 -93 90 -153.5t139 -102.5l-6 -24 q-75 12 -139 29.5t-101 31t-92 37.5q-169 -62 -361 -98z" />
<glyph unicode="&#xdc;" horiz-adv-x="1146" d="M124.5 258q-0.5 90 35.5 218l137 518q22 91 5 114.5t-102 27.5l10 33q93 -5 272 -5q143 0 256 5l-10 -33q-87 -4 -117 -28.5t-53 -113.5l-145 -546q-58 -205 -33 -309t142 -104q90 0 161 31.5t121 91t84.5 133.5t59.5 171l114 436q15 58 21 93.5t4 64t-17 43.5t-40 23.5 t-67 13.5l8 33q68 -5 177 -5q85 0 145 5l-8 -33q-81 -11 -116 -54t-66 -164l-112 -437q-60 -230 -162 -351q-61 -71 -149.5 -112t-188.5 -41q-241 0 -323 130q-43 61 -43.5 151zM504 1374q0 64 42 102.5t100 38.5q52 0 79.5 -30.5t27.5 -80.5q0 -65 -42.5 -102t-101.5 -37 q-52 0 -78.5 29.5t-26.5 79.5zM900 1374q0 64 42 102.5t100 38.5q52 0 80 -30.5t28 -80.5q0 -65 -42.5 -102t-101.5 -37q-53 0 -79.5 29.5t-26.5 79.5z" />
<glyph unicode="&#xdd;" horiz-adv-x="1212" d="M137 889l41 127q58 176 233 176q48 0 86.5 -13.5t67.5 -37.5t52 -64.5t39 -85t29.5 -110t22.5 -128.5t19 -150q109 309 271 487q93 102 194 102q73 0 114.5 -41.5t39.5 -103.5t-43.5 -103.5t-106.5 -41.5q-54 0 -84 28t-30 73q1 54 35.5 94.5t89.5 56.5q-10 7 -28 7 q-48 0 -99 -38q-74 -53 -169.5 -205.5t-172.5 -377.5l-91 -365q-9 -37 -9.5 -61t5.5 -39.5t24 -24t39.5 -12t58.5 -5.5l-9 -33q-105 5 -284 5q-169 0 -266 -5l9 33q86 4 117 28.5t53 113.5l89 357q-62 538 -190 538q-29 0 -46.5 -20t-29.5 -57l-35 -104h-36zM771 1295 q66 52 129.5 111t105 96.5t79.5 58.5q33 22 81 17.5t69 -44.5q18 -36 -1.5 -69.5t-64.5 -57.5q-43 -24 -169 -60t-217 -72z" />
<glyph unicode="&#xde;" horiz-adv-x="1091" d="M-68 0l9 33q82 4 112.5 28.5t53.5 113.5l218 819q22 91 5 114.5t-102 27.5l8 33q92 -5 259 -5q153 0 271 5l-8 -33q-87 -4 -117 -28.5t-53 -113.5l-18 -66q21 0 64 1t66 1q192 0 290 -67t98 -183q0 -129 -85 -231t-241 -160t-356 -58h-21l-15 -56q-12 -48 -14 -73 t9.5 -41t34 -21t67.5 -7l-6 -33q-107 5 -269 5q-163 0 -260 -5zM393 264h30q99 0 176 36.5t122.5 99.5t68.5 140.5t23 166.5q0 90 -45.5 140.5t-134.5 50.5q-62 0 -71 -1z" />
<glyph unicode="&#xdf;" horiz-adv-x="1121" d="M-81 -310l238 867q30 110 74.5 193t96.5 135t117.5 84.5t132 45t145.5 12.5q156 0 238.5 -47t82.5 -138q0 -108 -109.5 -181.5t-287.5 -108.5q193 -15 280 -87t87 -171q0 -90 -63.5 -163.5t-168 -113.5t-225.5 -40q-200 0 -200 124q0 60 38 106.5t100 46.5 q46 0 74.5 -27.5t28.5 -71.5q0 -50 -35.5 -91t-88.5 -54q25 -7 61 -7q94 0 157.5 85.5t63.5 203.5q0 103 -42 174t-100 71q-60 -20 -84 -20q-35 0 -35 20q0 13 13 23t35 10q40 0 81 -15q73 40 112.5 130.5t39.5 196.5q0 63 -19 92t-68 29q-66 0 -122.5 -53t-89.5 -175 l-294 -1061q-150 -3 -264 -24z" />
<glyph unicode="&#xe0;" horiz-adv-x="1075" d="M-150 0l5 33q44 16 84.5 55.5t106.5 124.5l644 803q42 -3 85 0l102 -877q7 -54 29.5 -79t51.5 -27l-8 -33q-93 5 -240 5q-160 0 -248 -5l9 33q86 4 118.5 31.5t23.5 107.5l-25 205h-370l-122 -152q-135 -168 81 -192l-4 -33q-122 5 -201 5q-67 0 -122 -5zM244 410h339 l-43 366zM460.5 1292.5q-12.5 34.5 5.5 70.5q20 35 64 39t73 -18q29 -17 56 -51t73 -92.5t102 -114.5l-13 -18q-85 40 -184 74t-132 55q-32 21 -44.5 55.5z" />
<glyph unicode="&#xe1;" horiz-adv-x="1075" d="M-150 0l5 33q44 16 84.5 55.5t106.5 124.5l644 803q42 -3 85 0l102 -877q7 -54 29.5 -79t51.5 -27l-8 -33q-93 5 -240 5q-160 0 -248 -5l9 33q86 4 118.5 31.5t23.5 107.5l-25 205h-370l-122 -152q-135 -168 81 -192l-4 -33q-122 5 -201 5q-67 0 -122 -5zM244 410h339 l-43 366zM609 1130q73 58 169.5 148.5t144.5 117.5q33 22 81.5 17.5t69.5 -44.5q18 -36 -1.5 -69.5t-64.5 -57.5q-43 -24 -169 -60t-218 -72z" />
<glyph unicode="&#xe2;" horiz-adv-x="1075" d="M-150 0l5 33q44 16 84.5 55.5t106.5 124.5l644 803q42 -3 85 0l102 -877q7 -54 29.5 -79t51.5 -27l-8 -33q-93 5 -240 5q-160 0 -248 -5l9 33q86 4 118.5 31.5t23.5 107.5l-25 205h-370l-122 -152q-135 -168 81 -192l-4 -33q-122 5 -201 5q-67 0 -122 -5zM244 410h339 l-43 366zM372 1131q137 43 255.5 111t191.5 145h30q38 -93 90 -153.5t139 -102.5l-6 -23q-75 12 -139 29.5t-101 31t-92 37.5q-170 -62 -360 -98z" />
<glyph unicode="&#xe3;" horiz-adv-x="1075" d="M-150 0l5 33q44 16 84.5 55.5t106.5 124.5l644 803q42 -3 85 0l102 -877q7 -54 29.5 -79t51.5 -27l-8 -33q-93 5 -240 5q-160 0 -248 -5l9 33q86 4 118.5 31.5t23.5 107.5l-25 205h-370l-122 -152q-135 -168 81 -192l-4 -33q-122 5 -201 5q-67 0 -122 -5zM244 410h339 l-43 366zM367 1136q45 117 118.5 173.5t155.5 56.5q55 0 101 -19t72 -41.5t63.5 -41.5t77.5 -19q70 0 127 96l30 -8q-45 -116 -119 -173t-156 -57q-55 0 -101 19t-72 41.5t-63 41.5t-77 19q-71 0 -128 -96z" />
<glyph unicode="&#xe4;" horiz-adv-x="1075" d="M-150 0l5 33q44 16 84.5 55.5t106.5 124.5l644 803q42 -3 85 0l102 -877q7 -54 29.5 -79t51.5 -27l-8 -33q-93 5 -240 5q-160 0 -248 -5l9 33q86 4 118.5 31.5t23.5 107.5l-25 205h-370l-122 -152q-135 -168 81 -192l-4 -33q-122 5 -201 5q-67 0 -122 -5zM244 410h339 l-43 366zM428 1209q0 64 42 102t100 38q52 0 79.5 -30t27.5 -80q0 -65 -42.5 -102t-101.5 -37q-52 0 -78.5 29.5t-26.5 79.5zM824 1209q0 64 42 102t100 38q52 0 80 -30t28 -80q0 -65 -42.5 -102t-101.5 -37q-53 0 -79.5 29.5t-26.5 79.5z" />
<glyph unicode="&#xe5;" horiz-adv-x="1075" d="M-150 0l5 33q44 16 84.5 55.5t106.5 124.5l644 803q42 -3 85 0l102 -877q7 -54 29.5 -79t51.5 -27l-8 -33q-93 5 -240 5q-160 0 -248 -5l9 33q86 4 118.5 31.5t23.5 107.5l-25 205h-370l-122 -152q-135 -168 81 -192l-4 -33q-122 5 -201 5q-67 0 -122 -5zM244 410h339 l-43 366zM598 1202q0 76 58 128t142 52q70 0 116 -38.5t46 -101.5q0 -75 -62 -128.5t-143 -53.5q-68 0 -112.5 38.5t-44.5 103.5zM642 1202q0 -50 35.5 -78.5t83.5 -28.5q61 0 108.5 42t47.5 103q0 51 -37.5 79.5t-86.5 28.5q-60 0 -105.5 -44.5t-45.5 -101.5z" />
<glyph unicode="&#xe6;" horiz-adv-x="1509" d="M-135 0v33q51 3 142 106l725 819q-22 10 -85 13l9 33q18 -1 114 -1l79 89h43l-79 -91q145 -2 376 -2q238 0 342 5q-12 -33 -63 -195q-15 -49 -21 -102h-37q26 145 -3.5 202t-129.5 57h-104q-83 0 -113 -24t-53 -113l-82 -307h124q29 0 52.5 11t39.5 25.5t31.5 43t24 48.5 t22.5 57h36q-17 -51 -56 -202q-19 -70 -43 -201h-36q0 16 4 46.5t4 50t-5 41t-25.5 33.5t-55.5 14h-125l-85 -314q-22 -91 -5 -114t100 -23h120q117 0 178 62.5t118 229.5h36q-11 -28 -35 -119q-25 -86 -43 -211q-112 5 -373 5q-355 0 -535 -5l7 33q86 4 116.5 28.5 t53.5 113.5l84 314h-296l-295 -334q-21 -24 -32 -40t-14.5 -31.5t6 -24.5t32.5 -16t62 -10v-33q-50 5 -142 5q-67 0 -110 -5zM388 522h274l83 307q20 82 8 106z" />
<glyph unicode="&#xe7;" horiz-adv-x="1121" d="M50 324q0 98 32.5 198t96.5 190t151 161t205.5 112.5t250.5 41.5q90 0 146 -28.5t99 -78.5q41 -51 90 84h37q-55 -160 -108 -380h-36q10 80 10 127q0 66 -26 118q-30 63 -90.5 96t-136.5 33q-89 0 -173 -66.5t-143 -169.5t-95 -229t-36 -242q0 -127 42 -200t116 -83h42 v-1q73 4 148 37t132 91q44 45 75.5 101.5t73.5 159.5h36q-75 -273 -97 -396h-36q4 31 4 56q0 34 -13 40.5t-41 -12.5q-74 -51 -141 -78t-156 -29l-37 -81q45 16 96 16t81 -20t30 -59q0 -49 -44.5 -82.5t-105.5 -47t-131 -13.5q-112 0 -180 33l10 24q65 -18 134 -18 q22 0 44.5 3t47.5 10.5t40.5 23.5t15.5 39q0 38 -53 38q-29 0 -57 -11l66 145q-197 6 -306.5 96t-109.5 251z" />
<glyph unicode="&#xe8;" horiz-adv-x="1047" d="M-71 0l7 33q86 4 116.5 28.5t53.5 113.5l176 654q22 91 5 114.5t-102 27.5l8 33q177 -5 529 -5q242 0 348 5q-34 -84 -61 -188q-13 -47 -25 -109h-36q19 142 -26 200.5t-159 58.5h-51q-84 0 -114 -23.5t-53 -113.5l-83 -307h76q76 0 132 55t85 130h36q-27 -82 -56 -202 q-28 -96 -45 -201h-36q11 185 -140 185h-61l-85 -314q-12 -48 -14 -73t9.5 -40.5t33.5 -19.5t67 -4h61q127 0 208.5 65.5t146.5 226.5h37q-18 -48 -37 -125q-22 -72 -43 -205q-112 5 -378 5q-352 0 -530 -5zM395.5 1292.5q-12.5 34.5 5.5 70.5q20 35 64 39t73 -18 q29 -17 56.5 -51t73.5 -92.5t102 -114.5l-14 -18q-85 40 -183.5 74t-131.5 55t-45.5 55.5z" />
<glyph unicode="&#xe9;" horiz-adv-x="1047" d="M-71 0l7 33q86 4 116.5 28.5t53.5 113.5l176 654q22 91 5 114.5t-102 27.5l8 33q177 -5 529 -5q242 0 348 5q-34 -84 -61 -188q-13 -47 -25 -109h-36q19 142 -26 200.5t-159 58.5h-51q-84 0 -114 -23.5t-53 -113.5l-83 -307h76q76 0 132 55t85 130h36q-27 -82 -56 -202 q-28 -96 -45 -201h-36q11 185 -140 185h-61l-85 -314q-12 -48 -14 -73t9.5 -40.5t33.5 -19.5t67 -4h61q127 0 208.5 65.5t146.5 226.5h37q-18 -48 -37 -125q-22 -72 -43 -205q-112 5 -378 5q-352 0 -530 -5zM545 1130q66 52 129.5 111t105 96.5t79.5 58.5q33 22 81 17.5 t69 -44.5q18 -36 -1.5 -69.5t-64.5 -57.5q-43 -24 -169 -60t-217 -72z" />
<glyph unicode="&#xea;" horiz-adv-x="1047" d="M-71 0l7 33q86 4 116.5 28.5t53.5 113.5l176 654q22 91 5 114.5t-102 27.5l8 33q177 -5 529 -5q242 0 348 5q-34 -84 -61 -188q-13 -47 -25 -109h-36q19 142 -26 200.5t-159 58.5h-51q-84 0 -114 -23.5t-53 -113.5l-83 -307h76q76 0 132 55t85 130h36q-27 -82 -56 -202 q-28 -96 -45 -201h-36q11 185 -140 185h-61l-85 -314q-12 -48 -14 -73t9.5 -40.5t33.5 -19.5t67 -4h61q127 0 208.5 65.5t146.5 226.5h37q-18 -48 -37 -125q-22 -72 -43 -205q-112 5 -378 5q-352 0 -530 -5zM309 1131q137 43 255.5 111t191.5 145h30q38 -92 90.5 -153 t139.5 -103l-7 -23q-75 12 -139 29.5t-101 31t-92 37.5q-170 -62 -360 -98z" />
<glyph unicode="&#xeb;" horiz-adv-x="1047" d="M-71 0l7 33q86 4 116.5 28.5t53.5 113.5l176 654q22 91 5 114.5t-102 27.5l8 33q177 -5 529 -5q242 0 348 5q-34 -84 -61 -188q-13 -47 -25 -109h-36q19 142 -26 200.5t-159 58.5h-51q-84 0 -114 -23.5t-53 -113.5l-83 -307h76q76 0 132 55t85 130h36q-27 -82 -56 -202 q-28 -96 -45 -201h-36q11 185 -140 185h-61l-85 -314q-12 -48 -14 -73t9.5 -40.5t33.5 -19.5t67 -4h61q127 0 208.5 65.5t146.5 226.5h37q-18 -48 -37 -125q-22 -72 -43 -205q-112 5 -378 5q-352 0 -530 -5zM363 1209q0 64 42 102t100 38q52 0 80 -30t28 -80 q0 -65 -42.5 -102t-101.5 -37q-52 0 -79 29.5t-27 79.5zM760 1209q0 64 42 102t100 38q52 0 79.5 -30t27.5 -80q0 -65 -42.5 -102t-101.5 -37q-53 0 -79 29.5t-26 79.5z" />
<glyph unicode="&#xec;" horiz-adv-x="644" d="M-68 0l9 33q82 4 112.5 28.5t53.5 113.5l174 654q22 91 4.5 114.5t-102.5 27.5l9 33q92 -5 259 -5q153 0 271 5l-9 -33q-87 -4 -117 -28.5t-53 -113.5l-173 -654q-12 -48 -14 -73t9.5 -41t34 -21t67.5 -7l-6 -33q-105 5 -269 5q-163 0 -260 -5zM215.5 1292.5 q-12.5 34.5 5.5 70.5q20 35 64 39t73 -18q29 -17 56.5 -51t73.5 -92.5t102 -114.5l-14 -18q-85 40 -183.5 74t-131.5 55t-45.5 55.5z" />
<glyph unicode="&#xed;" horiz-adv-x="644" d="M-68 0l9 33q82 4 112.5 28.5t53.5 113.5l174 654q22 91 4.5 114.5t-102.5 27.5l9 33q92 -5 259 -5q153 0 271 5l-9 -33q-87 -4 -117 -28.5t-53 -113.5l-173 -654q-12 -48 -14 -73t9.5 -41t34 -21t67.5 -7l-6 -33q-105 5 -269 5q-163 0 -260 -5zM363 1130q66 52 129.5 111 t105 96.5t79.5 58.5q33 22 81 17.5t69 -44.5q18 -36 -1.5 -69.5t-64.5 -57.5q-43 -24 -169 -60t-217 -72z" />
<glyph unicode="&#xee;" horiz-adv-x="644" d="M-68 0l9 33q82 4 112.5 28.5t53.5 113.5l174 654q22 91 4.5 114.5t-102.5 27.5l9 33q92 -5 259 -5q153 0 271 5l-9 -33q-87 -4 -117 -28.5t-53 -113.5l-173 -654q-12 -48 -14 -73t9.5 -41t34 -21t67.5 -7l-6 -33q-105 5 -269 5q-163 0 -260 -5zM127 1131 q138 43 256.5 111.5t191.5 144.5h29q38 -92 90.5 -153t139.5 -103l-7 -23q-75 12 -139 29.5t-101 31t-92 37.5q-170 -62 -360 -98z" />
<glyph unicode="&#xef;" horiz-adv-x="644" d="M-68 0l9 33q82 4 112.5 28.5t53.5 113.5l174 654q22 91 4.5 114.5t-102.5 27.5l9 33q92 -5 259 -5q153 0 271 5l-9 -33q-87 -4 -117 -28.5t-53 -113.5l-173 -654q-12 -48 -14 -73t9.5 -41t34 -21t67.5 -7l-6 -33q-105 5 -269 5q-163 0 -260 -5zM182 1209q0 64 42 102 t100 38q52 0 79.5 -30t27.5 -80q0 -65 -42.5 -102t-101.5 -37q-52 0 -78.5 29.5t-26.5 79.5zM578 1209q0 64 42 102t100 38q52 0 79.5 -30t27.5 -80q0 -65 -42 -102t-101 -37q-53 0 -79.5 29.5t-26.5 79.5z" />
<glyph unicode="&#xf0;" horiz-adv-x="1278" d="M-63 0l5 33q82 4 112 28.5t53 113.5l83 311h-167l10 41h168l81 302q26 76 8.5 108.5t-105.5 33.5l5 33q146 -8 261 -5q147 5 246 5q269 0 398.5 -93.5t129.5 -279.5q0 -131 -56.5 -246.5t-158.5 -200.5t-252.5 -134.5t-329.5 -49.5q-25 0 -108.5 2.5t-142.5 2.5 q-148 0 -240 -5zM358 59.5q12 -29.5 81 -29.5q103 0 189 33.5t146 92t102 137.5t62 169.5t20 189.5q0 159 -72.5 240.5t-214.5 81.5q-58 0 -81.5 -26.5t-46.5 -115.5l-81 -305h271l-10 -41h-270l-83 -314q-24 -83 -12 -112.5z" />
<glyph unicode="&#xf1;" horiz-adv-x="1443" d="M-129 18q0 65 42.5 107.5t106.5 42.5q54 0 84 -27t30 -72q0 -54 -35 -95.5t-89 -57.5q7 -7 26 -7q83 3 141 89q113 168 280 896q2 46 -23 60.5t-104 16.5l9 33q58 -5 147 -5q95 0 183 5l327 -652q139 485 243 622q79 106 178 106q73 0 114 -39.5t41 -100.5 q0 -64 -42.5 -107.5t-107.5 -43.5q-53 0 -82.5 27.5t-29.5 72.5q0 54 35.5 96t88.5 57q-10 7 -27 7q-45 0 -77 -23t-62 -65q-145 -205 -332 -969h-36l-428 816q-166 -701 -269 -826q-40 -49 -80 -76.5t-97 -27.5q-74 0 -114.5 39.5t-40.5 100.5zM558 1136 q45 117 118.5 173.5t155.5 56.5q55 0 101 -19t72 -41.5t63.5 -41.5t77.5 -19q70 0 127 96l30 -8q-45 -116 -118.5 -173t-155.5 -57q-55 0 -101 19t-72 41.5t-63.5 41.5t-77.5 19q-70 0 -127 -96z" />
<glyph unicode="&#xf2;" horiz-adv-x="1286" d="M56 375q0 88 32.5 180t96.5 176t149 150.5t199.5 106t239.5 39.5q214 0 340 -100.5t126 -297.5q0 -88 -32.5 -180t-96.5 -176t-149 -150.5t-199.5 -106t-239.5 -39.5q-214 0 -340 100.5t-126 297.5zM342 352q0 -178 52 -261.5t143 -83.5q88 0 167 56.5t132.5 148t85 207 t31.5 233.5q0 178 -52 262t-143 84q-88 0 -167 -56.5t-132.5 -148t-85 -207.5t-31.5 -234zM544.5 1292.5q-12.5 34.5 5.5 70.5q20 35 64 39t73 -18q29 -17 56 -51t73 -92.5t102 -114.5l-13 -18q-85 40 -183.5 74t-131.5 55t-45.5 55.5z" />
<glyph unicode="&#xf3;" horiz-adv-x="1286" d="M56 375q0 88 32.5 180t96.5 176t149 150.5t199.5 106t239.5 39.5q214 0 340 -100.5t126 -297.5q0 -88 -32.5 -180t-96.5 -176t-149 -150.5t-199.5 -106t-239.5 -39.5q-214 0 -340 100.5t-126 297.5zM342 352q0 -178 52 -261.5t143 -83.5q88 0 167 56.5t132.5 148t85 207 t31.5 233.5q0 178 -52 262t-143 84q-88 0 -167 -56.5t-132.5 -148t-85 -207.5t-31.5 -234zM694 1130q76 60 171 150t142 116q33 22 81.5 17.5t69.5 -44.5q18 -36 -1.5 -69.5t-64.5 -57.5q-43 -24 -169 -60t-218 -72z" />
<glyph unicode="&#xf4;" horiz-adv-x="1286" d="M56 375q0 88 32.5 180t96.5 176t149 150.5t199.5 106t239.5 39.5q214 0 340 -100.5t126 -297.5q0 -88 -32.5 -180t-96.5 -176t-149 -150.5t-199.5 -106t-239.5 -39.5q-214 0 -340 100.5t-126 297.5zM342 352q0 -178 52 -261.5t143 -83.5q88 0 167 56.5t132.5 148t85 207 t31.5 233.5q0 178 -52 262t-143 84q-88 0 -167 -56.5t-132.5 -148t-85 -207.5t-31.5 -234zM456 1131q137 43 255.5 111t191.5 145h30q38 -92 90.5 -153t139.5 -103l-7 -23q-75 12 -139 29.5t-101 31t-92 37.5q-170 -62 -360 -98z" />
<glyph unicode="&#xf5;" horiz-adv-x="1286" d="M56 375q0 88 32.5 180t96.5 176t149 150.5t199.5 106t239.5 39.5q214 0 340 -100.5t126 -297.5q0 -88 -32.5 -180t-96.5 -176t-149 -150.5t-199.5 -106t-239.5 -39.5q-214 0 -340 100.5t-126 297.5zM342 352q0 -178 52 -261.5t143 -83.5q88 0 167 56.5t132.5 148t85 207 t31.5 233.5q0 178 -52 262t-143 84q-88 0 -167 -56.5t-132.5 -148t-85 -207.5t-31.5 -234zM451 1136q45 117 118.5 173.5t155.5 56.5q55 0 101 -19t72 -41.5t63.5 -41.5t77.5 -19q70 0 127 96l30 -8q-45 -116 -118.5 -173t-155.5 -57q-55 0 -101 19t-72 41.5t-63.5 41.5 t-77.5 19q-70 0 -127 -96z" />
<glyph unicode="&#xf6;" horiz-adv-x="1286" d="M56 375q0 88 32.5 180t96.5 176t149 150.5t199.5 106t239.5 39.5q214 0 340 -100.5t126 -297.5q0 -88 -32.5 -180t-96.5 -176t-149 -150.5t-199.5 -106t-239.5 -39.5q-214 0 -340 100.5t-126 297.5zM342 352q0 -178 52 -261.5t143 -83.5q88 0 167 56.5t132.5 148t85 207 t31.5 233.5q0 178 -52 262t-143 84q-88 0 -167 -56.5t-132.5 -148t-85 -207.5t-31.5 -234zM512 1209q0 64 42 102t100 38q52 0 79.5 -30t27.5 -80q0 -65 -42 -102t-101 -37q-52 0 -79 29.5t-27 79.5zM908 1209q0 64 42 102t100 38q52 0 80 -30t28 -80q0 -65 -42.5 -102 t-101.5 -37q-53 0 -79.5 29.5t-26.5 79.5z" />
<glyph unicode="&#xf7;" horiz-adv-x="1050" d="M129 562l15 49h827l-15 -49h-827zM418 348q11 38 45.5 64.5t71.5 26.5q38 0 57.5 -27t8.5 -64q-11 -38 -46 -65t-73 -27t-56.5 27t-7.5 65zM555 824q11 38 45.5 64.5t71.5 26.5q38 0 57.5 -27t8.5 -64q-11 -38 -46 -64.5t-73 -26.5t-56.5 26.5t-7.5 64.5z" />
<glyph unicode="&#xf8;" horiz-adv-x="1286" d="M8 -121l187 189q-139 104 -139 307q0 88 32.5 180t96.5 176t149 150.5t199.5 106t239.5 39.5q157 0 267 -54l171 177l24 -22l-163 -173q167 -101 167 -326q0 -88 -32.5 -180t-96.5 -176t-149 -150.5t-199.5 -106t-239.5 -39.5q-179 0 -296 69l-190 -190zM342 352 q0 -84 13 -154l572 656q-44 144 -169 144q-88 0 -167 -56.5t-132.5 -148t-85 -207.5t-31.5 -234zM365 157q47 -150 172 -150q88 0 167 56.5t132.5 148t85 207t31.5 233.5q0 94 -15 162z" />
<glyph unicode="&#xf9;" horiz-adv-x="1151" d="M115.5 220.5q-2.5 89.5 43.5 255.5l94 353q22 91 4.5 114.5t-102.5 27.5l10 33q93 -5 273 -5q143 0 256 5l-10 -33q-87 -4 -117 -28.5t-53 -113.5l-103 -381q-58 -211 -33 -312t142 -101q90 0 161 31.5t121 91t84.5 133.5t59.5 171l73 271q38 136 20 181.5t-119 56.5 l10 33q68 -5 177 -5q92 0 155 5l-10 -33q-83 -11 -120.5 -54t-69.5 -164l-73 -272q-60 -230 -162 -351q-131 -153 -363 -153q-211 0 -289 89q-57 65 -59.5 154.5zM486.5 1292.5q-12.5 34.5 5.5 70.5q20 35 64 39t73 -18q29 -17 56 -51t73 -92.5t102 -114.5l-13 -18 q-85 40 -183.5 74t-131.5 55t-45.5 55.5z" />
<glyph unicode="&#xfa;" horiz-adv-x="1151" d="M115.5 220.5q-2.5 89.5 43.5 255.5l94 353q22 91 4.5 114.5t-102.5 27.5l10 33q93 -5 273 -5q143 0 256 5l-10 -33q-87 -4 -117 -28.5t-53 -113.5l-103 -381q-58 -211 -33 -312t142 -101q90 0 161 31.5t121 91t84.5 133.5t59.5 171l73 271q38 136 20 181.5t-119 56.5 l10 33q68 -5 177 -5q92 0 155 5l-10 -33q-83 -11 -120.5 -54t-69.5 -164l-73 -272q-60 -230 -162 -351q-131 -153 -363 -153q-211 0 -289 89q-57 65 -59.5 154.5zM636 1130q66 52 129.5 111t105 96.5t79.5 58.5q33 22 81 17.5t69 -44.5q18 -36 -1.5 -69.5t-64.5 -57.5 q-43 -24 -169 -60t-218 -72z" />
<glyph unicode="&#xfb;" horiz-adv-x="1151" d="M115.5 220.5q-2.5 89.5 43.5 255.5l94 353q22 91 4.5 114.5t-102.5 27.5l10 33q93 -5 273 -5q143 0 256 5l-10 -33q-87 -4 -117 -28.5t-53 -113.5l-103 -381q-58 -211 -33 -312t142 -101q90 0 161 31.5t121 91t84.5 133.5t59.5 171l73 271q38 136 20 181.5t-119 56.5 l10 33q68 -5 177 -5q92 0 155 5l-10 -33q-83 -11 -120.5 -54t-69.5 -164l-73 -272q-60 -230 -162 -351q-131 -153 -363 -153q-211 0 -289 89q-57 65 -59.5 154.5zM400 1131q137 43 255.5 111t191.5 145h30q38 -92 90.5 -153t139.5 -103l-7 -23q-75 12 -139 29.5t-101 31 t-92 37.5q-170 -62 -360 -98z" />
<glyph unicode="&#xfc;" horiz-adv-x="1151" d="M115.5 220.5q-2.5 89.5 43.5 255.5l94 353q22 91 4.5 114.5t-102.5 27.5l10 33q93 -5 273 -5q143 0 256 5l-10 -33q-87 -4 -117 -28.5t-53 -113.5l-103 -381q-58 -211 -33 -312t142 -101q90 0 161 31.5t121 91t84.5 133.5t59.5 171l73 271q38 136 20 181.5t-119 56.5 l10 33q68 -5 177 -5q92 0 155 5l-10 -33q-83 -11 -120.5 -54t-69.5 -164l-73 -272q-60 -230 -162 -351q-131 -153 -363 -153q-211 0 -289 89q-57 65 -59.5 154.5zM454 1209q0 64 42 102t100 38q52 0 80 -30t28 -80q0 -65 -42.5 -102t-101.5 -37q-52 0 -79 29.5t-27 79.5z M851 1209q0 64 42 102t100 38q52 0 79.5 -30t27.5 -80q0 -65 -42.5 -102t-101.5 -37q-53 0 -79 29.5t-26 79.5z" />
<glyph unicode="&#xfd;" horiz-adv-x="1129" d="M109 723l46 138q28 82 80 124t137 42q52 0 90 -15t66 -43.5t49 -78.5t35.5 -109.5t29.5 -146.5l14 -74q98 232 218 362q41 47 92.5 76t103.5 29q67 0 105.5 -44t36.5 -109q0 -67 -41.5 -112t-105.5 -45q-51 0 -78 29.5t-27 80.5q0 54 34 98.5t89 63.5q-7 5 -28 5 q-59 0 -117 -54q-151 -135 -279 -459l-79 -306q-12 -48 -14 -73t9.5 -41t34 -21t67.5 -7l-8 -33q-102 5 -264 5q-169 0 -266 -5l8 33q88 4 118 28.5t52 113.5l71 273q-13 100 -25 171t-29 136.5t-40 98.5t-51 33q-22 0 -37 -15t-26 -49l-35 -100h-36zM596 1130 q66 52 129.5 111t105 96.5t79.5 58.5q33 22 81 17.5t69 -44.5q18 -36 -1.5 -69.5t-64.5 -57.5q-43 -24 -169 -60t-217 -72z" />
<glyph unicode="&#xfe;" horiz-adv-x="1075" d="M-68 0l9 33q82 4 112.5 28.5t53.5 113.5l174 654q22 91 4.5 114.5t-102.5 27.5l9 33q92 -5 259 -5q153 0 271 5l-9 -33q-87 -4 -117 -28.5t-53 -113.5l-6 -25q38 2 117 2q201 0 298 -58t97 -162q0 -163 -186 -271.5t-480 -108.5h-5l-8 -31q-12 -48 -14 -73t9.5 -41 t34 -21t67.5 -7l-6 -33q-105 5 -269 5q-163 0 -260 -5zM386 240h14q81 0 146 23t106.5 60t69.5 87t39.5 100.5t11.5 103.5q0 85 -44.5 123t-130.5 38h-70z" />
<glyph unicode="&#xff;" horiz-adv-x="1129" d="M109 723l46 137q28 83 80 125t137 42q52 0 90 -15t66 -43.5t49 -78.5t35.5 -109.5t29.5 -146.5l14 -74q98 232 218 362q41 47 92.5 76t103.5 29q67 0 105.5 -44t36.5 -109q0 -67 -41.5 -112t-105.5 -45q-51 0 -78 29.5t-27 80.5q0 54 34 98.5t89 63.5q-7 5 -28 5 q-59 0 -117 -54q-151 -135 -279 -459l-79 -306q-12 -48 -14 -73t9.5 -41t34 -21t67.5 -7l-8 -33q-102 5 -264 5q-169 0 -266 -5l8 33q88 4 118 28.5t52 113.5l71 273q-13 100 -25 171t-29 136.5t-40 98.5t-51 33q-22 0 -37 -15.5t-26 -49.5l-35 -99h-36zM415 1209 q0 64 42 102t100 38q52 0 79.5 -30t27.5 -80q0 -65 -42.5 -102t-101.5 -37q-52 0 -78.5 29.5t-26.5 79.5zM811 1209q0 64 42 102t100 38q52 0 79.5 -30t27.5 -80q0 -65 -42 -102t-101 -37q-53 0 -79.5 29.5t-26.5 79.5z" />
<glyph unicode="&#x100;" horiz-adv-x="1078" d="M-152 0l7 33q43 11 83.5 49t102.5 126l689 970q44 -5 84 0l66 -1039q5 -54 28.5 -79t52.5 -27l-6 -33q-93 5 -240 5q-160 0 -248 -5l7 33q84 4 115.5 31.5t26.5 107.5l-13 271h-359l-145 -207q-49 -70 -51.5 -115t33 -64.5t104.5 -23.5l-8 -33q-153 5 -215 5 q-56 0 -114 -5zM269 476h332l-25 436zM443 1353l10 41h660l-10 -41h-660z" />
<glyph unicode="&#x101;" horiz-adv-x="1075" d="M-150 0l5 33q44 16 84.5 55.5t106.5 124.5l644 803q42 -3 85 0l102 -877q7 -54 29.5 -79t51.5 -27l-8 -33q-93 5 -240 5q-160 0 -248 -5l9 33q86 4 118.5 31.5t23.5 107.5l-25 205h-370l-122 -152q-135 -168 81 -192l-4 -33q-122 5 -201 5q-67 0 -122 -5zM244 410h339 l-43 366zM398 1187l10 42h661l-10 -42h-661z" />
<glyph unicode="&#x102;" horiz-adv-x="1078" d="M-152 0l7 33q43 11 83.5 49t102.5 126l689 970q44 -5 84 0l66 -1039q5 -54 28.5 -79t52.5 -27l-6 -33q-93 5 -240 5q-160 0 -248 -5l7 33q84 4 115.5 31.5t26.5 107.5l-13 271h-359l-145 -207q-49 -70 -51.5 -115t33 -64.5t104.5 -23.5l-8 -33q-153 5 -215 5 q-56 0 -114 -5zM269 476h332l-25 436zM514 1511l24 12q48 -47 110.5 -67.5t159.5 -20.5q218 0 376 94l18 -16q-69 -97 -189 -168.5t-238 -71.5q-110 0 -175.5 66t-85.5 172z" />
<glyph unicode="&#x103;" horiz-adv-x="1075" d="M-150 0l5 33q44 16 84.5 55.5t106.5 124.5l644 803q42 -3 85 0l102 -877q7 -54 29.5 -79t51.5 -27l-8 -33q-93 5 -240 5q-160 0 -248 -5l9 33q86 4 118.5 31.5t23.5 107.5l-25 205h-370l-122 -152q-135 -168 81 -192l-4 -33q-122 5 -201 5q-67 0 -122 -5zM244 410h339 l-43 366zM439 1346l25 12q48 -47 110 -67.5t159 -20.5q219 0 377 94l18 -16q-69 -97 -189.5 -168.5t-238.5 -71.5q-110 0 -175.5 66t-85.5 172z" />
<glyph unicode="&#x104;" horiz-adv-x="1078" d="M-152 0l7 33q43 11 83.5 49t102.5 126l689 970q44 -5 84 0l66 -1039q5 -54 28.5 -79t52.5 -27l-6 -33q-15 2 -57 2q-73 -27 -119.5 -76.5t-46.5 -103.5q0 -50 54 -50q56 0 121 36l18 -28q-112 -91 -240 -91q-66 0 -103 26.5t-37 73.5q0 49 48.5 93t114.5 72t148 49 q-45 2 -141 2q-160 0 -248 -5l7 33q84 4 115.5 31.5t26.5 107.5l-13 271h-359l-145 -207q-49 -70 -51.5 -115t33 -64.5t104.5 -23.5l-8 -33q-153 5 -215 5q-56 0 -114 -5zM269 476h332l-25 436z" />
<glyph unicode="&#x105;" horiz-adv-x="1075" d="M-150 0l5 33q44 16 84.5 55.5t106.5 124.5l644 803q42 -3 85 0l102 -877q7 -54 29.5 -79t51.5 -27l-8 -33q-17 2 -60 2q-96 -26 -154.5 -75.5t-58.5 -104.5q0 -50 55 -50t120 36l18 -28q-114 -90 -237 -90q-68 0 -105 26t-37 73q0 75 95.5 131t254.5 83q-45 2 -131 2 q-160 0 -248 -5l9 33q86 4 118.5 31.5t23.5 107.5l-25 205h-370l-122 -152q-135 -168 81 -192l-4 -33q-122 5 -201 5q-67 0 -122 -5zM244 410h339l-43 366z" />
<glyph unicode="&#x106;" horiz-adv-x="1144" d="M71 386q0 96 27 193.5t75.5 187t120.5 167.5t157.5 135t191 90t217.5 33q93 0 147 -28t100 -79q34 -40 71 38l19 46h35q-55 -144 -106 -380h-36q29 179 -15 256q-58 108 -195 108q-133 0 -253 -117t-191 -302t-71 -381q0 -164 58.5 -245.5t164.5 -81.5q63 0 131 28.5 t117 80.5q43 46 75 103t73 158h37q-78 -283 -98 -396h-36q5 38 5 56q0 66 -55 28q-156 -107 -323 -107q-221 0 -332 105t-111 304zM808 1295q76 60 171 150t142 116q33 22 81.5 17.5t69.5 -44.5q18 -36 -1.5 -69.5t-64.5 -57.5q-43 -24 -169 -60t-218 -72z" />
<glyph unicode="&#x107;" horiz-adv-x="1121" d="M50 324q0 98 32.5 198t96.5 190t151 161t205.5 112.5t250.5 41.5q90 0 146 -28.5t99 -78.5q41 -51 90 84h37q-55 -160 -108 -380h-36q10 80 10 127q0 66 -26 118q-30 63 -90.5 96t-136.5 33q-89 0 -173 -66.5t-143 -169.5t-95 -229t-36 -242q0 -137 49 -210.5t134 -73.5 q76 0 156.5 33.5t140.5 94.5q44 45 75.5 101.5t73.5 159.5h36q-75 -273 -97 -396h-36q4 31 4 56q0 34 -13 40.5t-41 -12.5q-76 -52 -147.5 -79.5t-166.5 -27.5q-209 0 -325.5 90.5t-116.5 256.5zM657 1130q66 52 129.5 111t105 96.5t79.5 58.5q33 22 81 17.5t69 -44.5 q18 -36 -1.5 -69.5t-64.5 -57.5q-43 -24 -169 -60t-217 -72z" />
<glyph unicode="&#x108;" horiz-adv-x="1144" d="M71 386q0 96 27 193.5t75.5 187t120.5 167.5t157.5 135t191 90t217.5 33q93 0 147 -28t100 -79q34 -40 71 38l19 46h35q-55 -144 -106 -380h-36q29 179 -15 256q-58 108 -195 108q-133 0 -253 -117t-191 -302t-71 -381q0 -164 58.5 -245.5t164.5 -81.5q63 0 131 28.5 t117 80.5q43 46 75 103t73 158h37q-78 -283 -98 -396h-36q5 38 5 56q0 66 -55 28q-156 -107 -323 -107q-221 0 -332 105t-111 304zM472 1297q138 43 256.5 111.5t191.5 144.5h30q38 -93 90 -153.5t139 -102.5l-6 -24q-75 12 -139 29.5t-101 31t-92 37.5q-170 -62 -360 -98z " />
<glyph unicode="&#x109;" horiz-adv-x="1121" d="M50 324q0 98 32.5 198t96.5 190t151 161t205.5 112.5t250.5 41.5q90 0 146 -28.5t99 -78.5q41 -51 90 84h37q-55 -160 -108 -380h-36q10 80 10 127q0 66 -26 118q-30 63 -90.5 96t-136.5 33q-89 0 -173 -66.5t-143 -169.5t-95 -229t-36 -242q0 -137 49 -210.5t134 -73.5 q76 0 156.5 33.5t140.5 94.5q44 45 75.5 101.5t73.5 159.5h36q-75 -273 -97 -396h-36q4 31 4 56q0 34 -13 40.5t-41 -12.5q-76 -52 -147.5 -79.5t-166.5 -27.5q-209 0 -325.5 90.5t-116.5 256.5zM421 1131q138 43 256.5 111.5t191.5 144.5h29q38 -92 90.5 -153t139.5 -103 l-7 -23q-75 12 -139 29.5t-101 31t-92 37.5q-170 -62 -360 -98z" />
<glyph unicode="&#x10a;" horiz-adv-x="1144" d="M71 386q0 96 27 193.5t75.5 187t120.5 167.5t157.5 135t191 90t217.5 33q93 0 147 -28t100 -79q34 -40 71 38l19 46h35q-55 -144 -106 -380h-36q29 179 -15 256q-58 108 -195 108q-133 0 -253 -117t-191 -302t-71 -381q0 -164 58.5 -245.5t164.5 -81.5q63 0 131 28.5 t117 80.5q43 46 75 103t73 158h37q-78 -283 -98 -396h-36q5 38 5 56q0 66 -55 28q-156 -107 -323 -107q-221 0 -332 105t-111 304zM723 1364q0 69 48 111.5t121 42.5q59 0 90.5 -27.5t31.5 -75.5q0 -64 -49.5 -108t-122.5 -44q-57 0 -88 26.5t-31 74.5z" />
<glyph unicode="&#x10b;" horiz-adv-x="1121" d="M50 324q0 98 32.5 198t96.5 190t151 161t205.5 112.5t250.5 41.5q90 0 146 -28.5t99 -78.5q41 -51 90 84h37q-55 -160 -108 -380h-36q10 80 10 127q0 66 -26 118q-30 63 -90.5 96t-136.5 33q-89 0 -173 -66.5t-143 -169.5t-95 -229t-36 -242q0 -137 49 -210.5t134 -73.5 q76 0 156.5 33.5t140.5 94.5q44 45 75.5 101.5t73.5 159.5h36q-75 -273 -97 -396h-36q4 31 4 56q0 34 -13 40.5t-41 -12.5q-76 -52 -147.5 -79.5t-166.5 -27.5q-209 0 -325.5 90.5t-116.5 256.5zM682 1202q0 70 48 113t122 43q58 0 90 -27.5t32 -75.5q0 -66 -49.5 -109.5 t-121.5 -43.5q-58 0 -89.5 26t-31.5 74z" />
<glyph unicode="&#x10c;" horiz-adv-x="1144" d="M71 386q0 96 27 193.5t75.5 187t120.5 167.5t157.5 135t191 90t217.5 33q93 0 147 -28t100 -79q34 -40 71 38l19 46h35q-55 -144 -106 -380h-36q29 179 -15 256q-58 108 -195 108q-133 0 -253 -117t-191 -302t-71 -381q0 -164 58.5 -245.5t164.5 -81.5q63 0 131 28.5 t117 80.5q43 46 75 103t73 158h37q-78 -283 -98 -396h-36q5 38 5 56q0 66 -55 28q-156 -107 -323 -107q-221 0 -332 105t-111 304zM596 1524l7 24q162 -26 333 -98q171 62 359 98l8 -24q-137 -43 -256 -111.5t-191 -144.5h-30q-39 93 -90.5 153.5t-139.5 102.5z" />
<glyph unicode="&#x10d;" horiz-adv-x="1121" d="M50 324q0 98 32.5 198t96.5 190t151 161t205.5 112.5t250.5 41.5q90 0 146 -28.5t99 -78.5q41 -51 90 84h37q-55 -160 -108 -380h-36q10 80 10 127q0 66 -26 118q-30 63 -90.5 96t-136.5 33q-89 0 -173 -66.5t-143 -169.5t-95 -229t-36 -242q0 -137 49 -210.5t134 -73.5 q76 0 156.5 33.5t140.5 94.5q44 45 75.5 101.5t73.5 159.5h36q-75 -273 -97 -396h-36q4 31 4 56q0 34 -13 40.5t-41 -12.5q-76 -52 -147.5 -79.5t-166.5 -27.5q-209 0 -325.5 90.5t-116.5 256.5zM543 1359l7 23q167 -27 334 -97q167 61 358 97l8 -23q-137 -43 -256 -111.5 t-191 -144.5h-30q-39 93 -90.5 153.5t-139.5 102.5z" />
<glyph unicode="&#x10e;" horiz-adv-x="1273" d="M-63 0l5 33q82 4 112 28.5t53 113.5l217 819q13 47 12.5 77.5t-26 46.5t-82.5 18l5 33q154 -8 271 -5q145 5 246 5q242 0 370.5 -100t128.5 -294q0 -110 -31.5 -219t-98 -209.5t-160.5 -177.5t-230 -123t-295 -46q-20 0 -104 2.5t-145 2.5q-151 0 -248 -5zM354 61 q10 -31 80 -31q102 0 192 46.5t153.5 125.5t110 181.5t69 216t22.5 227.5q0 156 -64 234.5t-204 78.5q-61 0 -82 -24.5t-45 -117.5l-216 -826q-26 -80 -16 -111zM504 1524l6 24q75 -12 139.5 -29.5t100.5 -31t94 -37.5q172 63 358 98l9 -24q-137 -43 -256.5 -111.5 t-191.5 -144.5h-30q-39 94 -90 154t-139 102z" />
<glyph unicode="&#x10f;" horiz-adv-x="1278" d="M-63 0l5 33q82 4 112 28.5t53 113.5l175 654q26 76 8.5 108.5t-105.5 33.5l5 33q146 -8 261 -5q147 5 246 5q269 0 398.5 -93.5t129.5 -279.5q0 -131 -56.5 -246.5t-158.5 -200.5t-252.5 -134.5t-329.5 -49.5q-25 0 -108.5 2.5t-142.5 2.5q-148 0 -240 -5zM358 59.5 q12 -29.5 81 -29.5q103 0 189 33.5t146 92t102 137.5t62 169.5t20 189.5q0 159 -72.5 240.5t-214.5 81.5q-58 0 -81.5 -26.5t-46.5 -115.5l-173 -660q-24 -83 -12 -112.5zM441 1359l7 23q107 -18 177.5 -39.5t155.5 -57.5q166 60 359 97l8 -23q-137 -43 -256.5 -111.5 t-191.5 -144.5h-29q-39 93 -90.5 153.5t-139.5 102.5z" />
<glyph unicode="&#x110;" horiz-adv-x="1273" d="M-63 0l5 33q82 4 112 28.5t53 113.5l103 388h-177l10 41h178l103 390q13 47 12.5 77.5t-26 46.5t-82.5 18l5 33q154 -8 271 -5q145 5 246 5q242 0 370.5 -100t128.5 -294q0 -110 -31.5 -219t-98 -209.5t-160.5 -177.5t-230 -123t-295 -46q-20 0 -104 2.5t-145 2.5 q-151 0 -248 -5zM354 61q10 -31 80 -31q102 0 192 46.5t153.5 125.5t110 181.5t69 216t22.5 227.5q0 156 -64 234.5t-204 78.5q-61 0 -82 -24.5t-45 -117.5l-102 -394h259l-10 -41h-261l-102 -391q-26 -80 -16 -111z" />
<glyph unicode="&#x111;" horiz-adv-x="1278" d="M-63 0l5 33q82 4 112 28.5t53 113.5l83 311h-167l10 41h168l81 302q26 76 8.5 108.5t-105.5 33.5l5 33q146 -8 261 -5q147 5 246 5q269 0 398.5 -93.5t129.5 -279.5q0 -131 -56.5 -246.5t-158.5 -200.5t-252.5 -134.5t-329.5 -49.5q-25 0 -108.5 2.5t-142.5 2.5 q-148 0 -240 -5zM358 59.5q12 -29.5 81 -29.5q103 0 189 33.5t146 92t102 137.5t62 169.5t20 189.5q0 159 -72.5 240.5t-214.5 81.5q-58 0 -81.5 -26.5t-46.5 -115.5l-81 -305h271l-10 -41h-270l-83 -314q-24 -83 -12 -112.5z" />
<glyph unicode="&#x112;" horiz-adv-x="1033" d="M-71 0l8 33q85 4 115.5 28.5t54.5 113.5l218 819q22 91 5 114.5t-102 27.5l8 33q180 -5 537 -5q234 0 335 5q-46 -128 -63 -195q-6 -24 -21 -102h-36q10 146 -29.5 202.5t-152.5 56.5h-51q-84 0 -114 -23.5t-53 -113.5l-104 -390h61q82 0 137.5 58t88.5 141h38 q-16 -46 -26.5 -82t-20.5 -77.5t-14 -55.5q-20 -75 -48 -215h-36q16 198 -137 198h-51l-106 -396q-13 -47 -15 -72.5t9.5 -41t33.5 -19.5t66 -4h61q132 0 208 63.5t149 228.5h38q-14 -36 -36 -119q-25 -86 -43 -211q-112 5 -375 5q-357 0 -537 -5zM377 1353l9 41h661 l-10 -41h-660z" />
<glyph unicode="&#x113;" horiz-adv-x="1047" d="M-71 0l7 33q86 4 116.5 28.5t53.5 113.5l176 654q22 91 5 114.5t-102 27.5l8 33q177 -5 529 -5q242 0 348 5q-34 -84 -61 -188q-13 -47 -25 -109h-36q19 142 -26 200.5t-159 58.5h-51q-84 0 -114 -23.5t-53 -113.5l-83 -307h76q76 0 132 55t85 130h36q-27 -82 -56 -202 q-28 -96 -45 -201h-36q11 185 -140 185h-61l-85 -314q-12 -48 -14 -73t9.5 -40.5t33.5 -19.5t67 -4h61q127 0 208.5 65.5t146.5 226.5h37q-18 -48 -37 -125q-22 -72 -43 -205q-112 5 -378 5q-352 0 -530 -5zM335 1187l10 42h661l-10 -42h-661z" />
<glyph unicode="&#x114;" horiz-adv-x="1033" d="M-71 0l8 33q85 4 115.5 28.5t54.5 113.5l218 819q22 91 5 114.5t-102 27.5l8 33q180 -5 537 -5q234 0 335 5q-46 -128 -63 -195q-6 -24 -21 -102h-36q10 146 -29.5 202.5t-152.5 56.5h-51q-84 0 -114 -23.5t-53 -113.5l-104 -390h61q82 0 137.5 58t88.5 141h38 q-16 -46 -26.5 -82t-20.5 -77.5t-14 -55.5q-20 -75 -48 -215h-36q16 198 -137 198h-51l-106 -396q-13 -47 -15 -72.5t9.5 -41t33.5 -19.5t66 -4h61q132 0 208 63.5t149 228.5h38q-14 -36 -36 -119q-25 -86 -43 -211q-112 5 -375 5q-357 0 -537 -5zM448 1511l24 12 q48 -47 110.5 -67.5t159.5 -20.5q218 0 376 94l18 -16q-69 -97 -189 -168.5t-238 -71.5q-110 0 -175.5 66t-85.5 172z" />
<glyph unicode="&#x115;" horiz-adv-x="1047" d="M-71 0l7 33q86 4 116.5 28.5t53.5 113.5l176 654q22 91 5 114.5t-102 27.5l8 33q177 -5 529 -5q242 0 348 5q-34 -84 -61 -188q-13 -47 -25 -109h-36q19 142 -26 200.5t-159 58.5h-51q-84 0 -114 -23.5t-53 -113.5l-83 -307h76q76 0 132 55t85 130h36q-27 -82 -56 -202 q-28 -96 -45 -201h-36q11 185 -140 185h-61l-85 -314q-12 -48 -14 -73t9.5 -40.5t33.5 -19.5t67 -4h61q127 0 208.5 65.5t146.5 226.5h37q-18 -48 -37 -125q-22 -72 -43 -205q-112 5 -378 5q-352 0 -530 -5zM377 1346l24 12q48 -47 110.5 -67.5t159.5 -20.5q218 0 376 94 l18 -16q-69 -97 -189 -168.5t-238 -71.5q-110 0 -175.5 66t-85.5 172z" />
<glyph unicode="&#x116;" horiz-adv-x="1033" d="M-71 0l8 33q85 4 115.5 28.5t54.5 113.5l218 819q22 91 5 114.5t-102 27.5l8 33q180 -5 537 -5q234 0 335 5q-46 -128 -63 -195q-6 -24 -21 -102h-36q10 146 -29.5 202.5t-152.5 56.5h-51q-84 0 -114 -23.5t-53 -113.5l-104 -390h61q82 0 137.5 58t88.5 141h38 q-16 -46 -26.5 -82t-20.5 -77.5t-14 -55.5q-20 -75 -48 -215h-36q16 198 -137 198h-51l-106 -396q-13 -47 -15 -72.5t9.5 -41t33.5 -19.5t66 -4h61q132 0 208 63.5t149 228.5h38q-14 -36 -36 -119q-25 -86 -43 -211q-112 5 -375 5q-357 0 -537 -5zM600 1364q0 69 47.5 111.5 t120.5 42.5q59 0 90.5 -27.5t31.5 -75.5q0 -64 -49.5 -108t-122.5 -44q-57 0 -87.5 26.5t-30.5 74.5z" />
<glyph unicode="&#x117;" horiz-adv-x="1047" d="M-71 0l7 33q86 4 116.5 28.5t53.5 113.5l176 654q22 91 5 114.5t-102 27.5l8 33q177 -5 529 -5q242 0 348 5q-34 -84 -61 -188q-13 -47 -25 -109h-36q19 142 -26 200.5t-159 58.5h-51q-84 0 -114 -23.5t-53 -113.5l-83 -307h76q76 0 132 55t85 130h36q-27 -82 -56 -202 q-28 -96 -45 -201h-36q11 185 -140 185h-61l-85 -314q-12 -48 -14 -73t9.5 -40.5t33.5 -19.5t67 -4h61q127 0 208.5 65.5t146.5 226.5h37q-18 -48 -37 -125q-22 -72 -43 -205q-112 5 -378 5q-352 0 -530 -5zM570 1202q0 70 48 113t122 43q58 0 90 -27.5t32 -75.5 q0 -66 -49.5 -109.5t-122.5 -43.5q-58 0 -89 26t-31 74z" />
<glyph unicode="&#x118;" horiz-adv-x="1033" d="M-71 0l8 33q85 4 115.5 28.5t54.5 113.5l218 819q22 91 5 114.5t-102 27.5l8 33q180 -5 537 -5q234 0 335 5q-46 -128 -63 -195q-6 -24 -21 -102h-36q10 146 -29.5 202.5t-152.5 56.5h-51q-84 0 -114 -23.5t-53 -113.5l-104 -390h61q82 0 137.5 58t88.5 141h38 q-16 -46 -26.5 -82t-20.5 -77.5t-14 -55.5q-20 -75 -48 -215h-36q16 198 -137 198h-51l-106 -396q-13 -47 -15 -72.5t9.5 -41t33.5 -19.5t66 -4h61q132 0 208 63.5t149 228.5h38q-14 -36 -36 -119q-25 -86 -43 -211h-17q-71 -28 -116.5 -77t-45.5 -101q0 -50 55 -50t120 36 l19 -28q-112 -91 -240 -91q-66 0 -103 26.5t-37 73.5q0 37 26 70.5t71 60t97 47t111 35.5q-102 3 -315 3q-357 0 -537 -5z" />
<glyph unicode="&#x119;" horiz-adv-x="1047" d="M-71 0l7 33q86 4 116.5 28.5t53.5 113.5l176 654q22 91 5 114.5t-102 27.5l8 33q177 -5 529 -5q242 0 348 5q-34 -84 -61 -188q-13 -47 -25 -109h-36q19 142 -26 200.5t-159 58.5h-51q-84 0 -114 -23.5t-53 -113.5l-83 -307h76q76 0 132 55t85 130h36q-27 -82 -56 -202 q-28 -96 -45 -201h-36q11 185 -140 185h-61l-85 -314q-12 -48 -14 -73t9.5 -40.5t33.5 -19.5t67 -4h61q127 0 208.5 65.5t146.5 226.5h37q-18 -48 -37 -125q-22 -72 -43 -205q-7 0 -23.5 1t-24.5 1q-95 -27 -153 -76t-58 -104q0 -50 55 -50t120 36l18 -28q-114 -90 -238 -90 q-68 0 -105 26t-37 73q0 75 94.5 130.5t251.5 83.5q-92 2 -278 2q-352 0 -530 -5z" />
<glyph unicode="&#x11a;" horiz-adv-x="1033" d="M-71 0l8 33q85 4 115.5 28.5t54.5 113.5l218 819q22 91 5 114.5t-102 27.5l8 33q180 -5 537 -5q234 0 335 5q-46 -128 -63 -195q-6 -24 -21 -102h-36q10 146 -29.5 202.5t-152.5 56.5h-51q-84 0 -114 -23.5t-53 -113.5l-104 -390h61q82 0 137.5 58t88.5 141h38 q-16 -46 -26.5 -82t-20.5 -77.5t-14 -55.5q-20 -75 -48 -215h-36q16 198 -137 198h-51l-106 -396q-13 -47 -15 -72.5t9.5 -41t33.5 -19.5t66 -4h61q132 0 208 63.5t149 228.5h38q-14 -36 -36 -119q-25 -86 -43 -211q-112 5 -375 5q-357 0 -537 -5zM471 1524l6 24 q75 -12 139.5 -29.5t100.5 -31t94 -37.5q172 63 358 98l9 -24q-137 -43 -256.5 -111.5t-191.5 -144.5h-30q-39 94 -90 154t-139 102z" />
<glyph unicode="&#x11b;" horiz-adv-x="1047" d="M-71 0l7 33q86 4 116.5 28.5t53.5 113.5l176 654q22 91 5 114.5t-102 27.5l8 33q177 -5 529 -5q242 0 348 5q-34 -84 -61 -188q-13 -47 -25 -109h-36q19 142 -26 200.5t-159 58.5h-51q-84 0 -114 -23.5t-53 -113.5l-83 -307h76q76 0 132 55t85 130h36q-27 -82 -56 -202 q-28 -96 -45 -201h-36q11 185 -140 185h-61l-85 -314q-12 -48 -14 -73t9.5 -40.5t33.5 -19.5t67 -4h61q127 0 208.5 65.5t146.5 226.5h37q-18 -48 -37 -125q-22 -72 -43 -205q-112 5 -378 5q-352 0 -530 -5zM433 1359l6 23q167 -27 334 -97q167 61 358 97l9 -23 q-137 -43 -256.5 -111.5t-191.5 -144.5h-30q-39 94 -90 154t-139 102z" />
<glyph unicode="&#x11c;" horiz-adv-x="1220" d="M63 355q0 112 36.5 230t107.5 226t165.5 193.5t220.5 136.5t263 51q98 0 156.5 -27t113.5 -80q24 -27 46.5 -8.5t48.5 92.5h36q-55 -144 -106 -380h-36q8 69 8 124q0 77 -23 121q-32 62 -97.5 95.5t-156.5 33.5q-97 0 -184 -60t-147 -154.5t-104 -210.5t-65 -229 t-21 -208q0 -148 58.5 -219.5t178.5 -71.5q73 0 127 35q26 17 39.5 42.5t27.5 77.5l38 146q11 42 13.5 67.5t-2 44t-22.5 27.5t-43 13t-69 6l8 33q113 -5 281 -5q147 0 232 5l-8 -33q-56 -4 -76.5 -27.5t-45.5 -114.5l-88 -327h-33q4 43 -8 68.5t-38 25.5q-12 0 -25 -2.5 t-29.5 -9.5t-25.5 -11t-30.5 -15.5t-28.5 -14.5q-119 -64 -239 -64q-216 0 -335 99t-119 279zM492 1297q138 43 256.5 111.5t191.5 144.5h29q38 -92 90.5 -153t139.5 -103l-7 -24q-75 12 -139 29.5t-101 31t-92 37.5q-170 -62 -360 -98z" />
<glyph unicode="&#x11d;" horiz-adv-x="1197" d="M50 322q0 94 31 192.5t94 190t149.5 163.5t206.5 115.5t255 43.5q167 0 281 -107q24 -27 46 -8.5t48 92.5h36q-49 -143 -105 -380h-37q9 77 9 124q0 81 -23 121q-75 129 -265 129q-80 0 -149.5 -37t-118.5 -99t-88 -139t-62 -160t-34.5 -157.5t-11.5 -137.5 q0 -258 228 -258q159 0 190 132l30 111q24 90 -2 122t-122 36l6 33q113 -5 283 -5q146 0 231 5l-7 -33q-59 -4 -79.5 -27.5t-45.5 -114.5l-73 -269h-33q6 35 -2 56.5t-31 21.5q-37 0 -119 -40q-74 -34 -130.5 -47.5t-125.5 -13.5q-222 0 -341 89.5t-119 255.5zM426 1131 q138 43 256.5 111.5t191.5 144.5h29q38 -92 90.5 -153t139.5 -103l-7 -23q-75 12 -139 29.5t-101 31t-92 37.5q-170 -62 -360 -98z" />
<glyph unicode="&#x11e;" horiz-adv-x="1220" d="M63 355q0 112 36.5 230t107.5 226t165.5 193.5t220.5 136.5t263 51q98 0 156.5 -27t113.5 -80q24 -27 46.5 -8.5t48.5 92.5h36q-55 -144 -106 -380h-36q8 69 8 124q0 77 -23 121q-32 62 -97.5 95.5t-156.5 33.5q-97 0 -184 -60t-147 -154.5t-104 -210.5t-65 -229 t-21 -208q0 -148 58.5 -219.5t178.5 -71.5q73 0 127 35q26 17 39.5 42.5t27.5 77.5l38 146q11 42 13.5 67.5t-2 44t-22.5 27.5t-43 13t-69 6l8 33q113 -5 281 -5q147 0 232 5l-8 -33q-56 -4 -76.5 -27.5t-45.5 -114.5l-88 -327h-33q4 43 -8 68.5t-38 25.5q-12 0 -25 -2.5 t-29.5 -9.5t-25.5 -11t-30.5 -15.5t-28.5 -14.5q-119 -64 -239 -64q-216 0 -335 99t-119 279zM591 1511l25 12q48 -47 110 -67.5t159 -20.5q219 0 377 94l18 -16q-69 -97 -189.5 -168.5t-238.5 -71.5q-110 0 -175.5 66t-85.5 172z" />
<glyph unicode="&#x11f;" horiz-adv-x="1197" d="M50 322q0 94 31 192.5t94 190t149.5 163.5t206.5 115.5t255 43.5q167 0 281 -107q24 -27 46 -8.5t48 92.5h36q-49 -143 -105 -380h-37q9 77 9 124q0 81 -23 121q-75 129 -265 129q-80 0 -149.5 -37t-118.5 -99t-88 -139t-62 -160t-34.5 -157.5t-11.5 -137.5 q0 -258 228 -258q159 0 190 132l30 111q24 90 -2 122t-122 36l6 33q113 -5 283 -5q146 0 231 5l-7 -33q-59 -4 -79.5 -27.5t-45.5 -114.5l-73 -269h-33q6 35 -2 56.5t-31 21.5q-37 0 -119 -40q-74 -34 -130.5 -47.5t-125.5 -13.5q-222 0 -341 89.5t-119 255.5zM494 1346 l25 12q48 -47 110 -67.5t159 -20.5q218 0 376 94l19 -16q-69 -97 -189.5 -168.5t-238.5 -71.5q-110 0 -175.5 66t-85.5 172z" />
<glyph unicode="&#x120;" horiz-adv-x="1220" d="M63 355q0 112 36.5 230t107.5 226t165.5 193.5t220.5 136.5t263 51q98 0 156.5 -27t113.5 -80q24 -27 46.5 -8.5t48.5 92.5h36q-55 -144 -106 -380h-36q8 69 8 124q0 77 -23 121q-32 62 -97.5 95.5t-156.5 33.5q-97 0 -184 -60t-147 -154.5t-104 -210.5t-65 -229 t-21 -208q0 -148 58.5 -219.5t178.5 -71.5q73 0 127 35q26 17 39.5 42.5t27.5 77.5l38 146q11 42 13.5 67.5t-2 44t-22.5 27.5t-43 13t-69 6l8 33q113 -5 281 -5q147 0 232 5l-8 -33q-56 -4 -76.5 -27.5t-45.5 -114.5l-88 -327h-33q4 43 -8 68.5t-38 25.5q-12 0 -25 -2.5 t-29.5 -9.5t-25.5 -11t-30.5 -15.5t-28.5 -14.5q-119 -64 -239 -64q-216 0 -335 99t-119 279zM743 1364q0 69 48 111.5t121 42.5q59 0 90.5 -27.5t31.5 -75.5q0 -64 -49.5 -108t-122.5 -44q-57 0 -88 26.5t-31 74.5z" />
<glyph unicode="&#x121;" horiz-adv-x="1197" d="M50 322q0 94 31 192.5t94 190t149.5 163.5t206.5 115.5t255 43.5q167 0 281 -107q24 -27 46 -8.5t48 92.5h36q-49 -143 -105 -380h-37q9 77 9 124q0 81 -23 121q-75 129 -265 129q-80 0 -149.5 -37t-118.5 -99t-88 -139t-62 -160t-34.5 -157.5t-11.5 -137.5 q0 -258 228 -258q159 0 190 132l30 111q24 90 -2 122t-122 36l6 33q113 -5 283 -5q146 0 231 5l-6 -33q-59 -4 -80 -27.5t-46 -114.5l-73 -269h-33q6 35 -2 56.5t-31 21.5q-37 0 -119 -40q-74 -34 -130.5 -47.5t-125.5 -13.5q-222 0 -341 89.5t-119 255.5zM687 1202 q0 70 48 113t122 43q58 0 90 -27.5t32 -75.5q0 -66 -49.5 -109.5t-121.5 -43.5q-58 0 -89.5 26t-31.5 74z" />
<glyph unicode="&#x122;" horiz-adv-x="1220" d="M63 355q0 112 36.5 230t107.5 226t165.5 193.5t220.5 136.5t263 51q98 0 156.5 -27t113.5 -80q24 -27 46.5 -8.5t48.5 92.5h36q-55 -144 -106 -380h-36q8 69 8 124q0 77 -23 121q-32 62 -97.5 95.5t-156.5 33.5q-97 0 -184 -60t-147 -154.5t-104 -210.5t-65 -229 t-21 -208q0 -148 58.5 -219.5t178.5 -71.5q73 0 127 35q26 17 39.5 42.5t27.5 77.5l38 146q11 42 13.5 67.5t-2 44t-22.5 27.5t-43 13t-69 6l8 33q113 -5 281 -5q147 0 232 5l-8 -33q-56 -4 -76.5 -27.5t-45.5 -114.5l-88 -327h-33q4 43 -8 68.5t-38 25.5q-12 0 -25 -2.5 t-29.5 -9.5t-25.5 -11t-30.5 -15.5t-28.5 -14.5q-119 -64 -239 -64q-216 0 -335 99t-119 279zM380 -218q0 55 42.5 92.5t106.5 37.5q47 0 79.5 -26t32.5 -74q0 -83 -59 -139t-169 -71l-3 31q64 6 109 31.5t54 64.5q-38 -28 -94 -28q-99 0 -99 81z" />
<glyph unicode="&#x123;" horiz-adv-x="1197" d="M50 322q0 94 31 192.5t94 190t149.5 163.5t206.5 115.5t255 43.5q167 0 281 -107q24 -27 46 -8.5t48 92.5h36q-49 -143 -105 -380h-37q9 77 9 124q0 81 -23 121q-75 129 -265 129q-80 0 -149.5 -37t-118.5 -99t-88 -139t-62 -160t-34.5 -157.5t-11.5 -137.5 q0 -258 228 -258q159 0 190 132l30 111q24 90 -2 122t-122 36l6 33q113 -5 283 -5q146 0 231 5l-7 -33q-59 -4 -79.5 -27.5t-45.5 -114.5l-73 -269h-33q6 35 -2 56.5t-31 21.5q-37 0 -119 -40q-74 -34 -130.5 -47.5t-125.5 -13.5q-222 0 -341 89.5t-119 255.5zM363 -218 q0 55 42.5 92.5t106.5 37.5q47 0 79.5 -26t32.5 -74q0 -83 -59 -139t-169 -71l-3 31q64 6 109.5 31.5t54.5 64.5q-38 -28 -95 -28q-99 0 -99 81z" />
<glyph unicode="&#x124;" horiz-adv-x="1337" d="M-68 0l9 33q82 4 112.5 28.5t53.5 113.5l218 819q22 91 5 114.5t-102 27.5l8 33q93 -5 269 -5q148 0 261 5l-8 -33q-87 -4 -117 -28.5t-53 -113.5l-104 -390h431l104 390q13 47 15 73t-10 41.5t-34.5 20.5t-67.5 7l8 33q98 -5 258 -5q170 0 272 5l-8 -33 q-87 -4 -117 -28.5t-53 -113.5l-218 -819q-12 -48 -14 -73t9.5 -41t34 -21t67.5 -7l-7 -33q-98 5 -270 5q-158 0 -260 -5l7 33q86 4 116.5 28.5t53.5 113.5l104 396h-431l-104 -396q-12 -48 -14 -73t9.5 -41t34 -21t67.5 -7l-6 -33q-102 5 -260 5q-171 0 -269 -5zM495 1297 q138 43 256.5 111.5t191.5 144.5h30q38 -93 90 -153.5t139 -102.5l-6 -24q-75 12 -139 29.5t-101 31t-92 37.5q-170 -62 -360 -98z" />
<glyph unicode="&#x125;" horiz-adv-x="1337" d="M-68 0l9 33q82 4 112.5 28.5t53.5 113.5l174 654q22 91 4.5 114.5t-102.5 27.5l9 33q93 -5 269 -5q148 0 261 5l-9 -33q-87 -4 -117 -28.5t-53 -113.5l-82 -307h431l82 307q13 47 15 73t-10 41.5t-34.5 20.5t-67.5 7l8 33q98 -5 258 -5q174 0 272 5l-8 -33 q-87 -4 -117 -28.5t-53 -113.5l-173 -654q-12 -48 -14 -73t9.5 -41t34 -21t67.5 -7l-7 -33q-97 5 -270 5q-158 0 -260 -5l7 33q86 4 116.5 28.5t53.5 113.5l83 314h-431l-83 -314q-12 -48 -14 -73t9.5 -41t34 -21t67.5 -7l-6 -33q-102 5 -260 5q-171 0 -269 -5zM461 1131 q137 43 255.5 111t191.5 145h30q38 -92 90.5 -153t139.5 -103l-7 -23q-75 12 -139 29.5t-101 31t-92 37.5q-170 -62 -360 -98z" />
<glyph unicode="&#x126;" horiz-adv-x="1337" d="M-68 0l9 33q82 4 112.5 28.5t53.5 113.5l179 672h-187l8 33h187l31 114q22 91 5 114.5t-102 27.5l8 33q93 -5 269 -5q148 0 261 5l-8 -33q-87 -4 -117 -28.5t-53 -113.5l-31 -114h431l31 114q13 47 15 73t-10 41.5t-34.5 20.5t-67.5 7l8 33q98 -5 258 -5q170 0 272 5 l-8 -33q-87 -4 -117 -28.5t-53 -113.5l-32 -114h190l-8 -33h-190l-178 -672q-12 -48 -14 -73t9.5 -41t34 -21t67.5 -7l-7 -33q-98 5 -270 5q-158 0 -260 -5l7 33q86 4 116.5 28.5t53.5 113.5l104 396h-431l-104 -396q-12 -48 -14 -73t9.5 -41t34 -21t67.5 -7l-6 -33 q-102 5 -260 5q-171 0 -269 -5zM484 604h431l64 243h-431z" />
<glyph unicode="&#x127;" horiz-adv-x="1337" d="M-68 0l9 33q82 4 112.5 28.5t53.5 113.5l144 542h-167l8 33h167l22 79q22 91 4.5 114.5t-102.5 27.5l9 33q93 -5 269 -5q148 0 261 5l-9 -33q-87 -4 -117 -28.5t-53 -113.5l-21 -79h431l21 79q13 47 15 73t-10 41.5t-34.5 20.5t-67.5 7l8 33q98 -5 258 -5q174 0 272 5 l-8 -33q-87 -4 -117 -28.5t-53 -113.5l-21 -79h209l-8 -33h-210l-143 -542q-12 -48 -14 -73t9.5 -41t34 -21t67.5 -7l-7 -33q-97 5 -270 5q-158 0 -260 -5l7 33q86 4 116.5 28.5t53.5 113.5l83 314h-431l-83 -314q-12 -48 -14 -73t9.5 -41t34 -21t67.5 -7l-6 -33 q-102 5 -260 5q-171 0 -269 -5zM461 522h431l53 195h-431z" />
<glyph unicode="&#x128;" horiz-adv-x="644" d="M-68 0l9 33q82 4 112.5 28.5t53.5 113.5l218 819q22 91 5 114.5t-102 27.5l8 33q92 -5 259 -5q153 0 271 5l-8 -33q-87 -4 -117 -28.5t-53 -113.5l-218 -819q-12 -48 -14 -73t9.5 -41t34 -21t67.5 -7l-6 -33q-107 5 -269 5q-163 0 -260 -5zM218 1301q45 117 118.5 173.5 t155.5 56.5q55 0 101 -19t72 -41.5t63.5 -41.5t77.5 -19q70 0 127 96l30 -8q-45 -116 -118.5 -173t-155.5 -57q-55 0 -101 19t-72 41.5t-63.5 41.5t-77.5 19q-70 0 -127 -96z" />
<glyph unicode="&#x129;" horiz-adv-x="644" d="M-68 0l9 33q82 4 112.5 28.5t53.5 113.5l174 654q22 91 4.5 114.5t-102.5 27.5l9 33q92 -5 259 -5q153 0 271 5l-8 -33q-87 -4 -117.5 -28.5t-53.5 -113.5l-173 -654q-12 -48 -14 -73t9.5 -41t34 -21t67.5 -7l-6 -33q-105 5 -269 5q-163 0 -260 -5zM122 1136 q45 117 118.5 173.5t155.5 56.5q55 0 101 -19t72 -41.5t63.5 -41.5t77.5 -19q70 0 127 96l30 -8q-45 -116 -118.5 -173t-155.5 -57q-55 0 -101 19t-72 41.5t-63.5 41.5t-77.5 19q-70 0 -127 -96z" />
<glyph unicode="&#x12a;" horiz-adv-x="644" d="M-68 0l9 33q82 4 112.5 28.5t53.5 113.5l218 819q22 91 5 114.5t-102 27.5l8 33q92 -5 259 -5q153 0 271 5l-8 -33q-87 -4 -117 -28.5t-53 -113.5l-218 -819q-12 -48 -14 -73t9.5 -41t34 -21t67.5 -7l-6 -33q-107 5 -269 5q-163 0 -260 -5zM211 1353l10 41h661l-10 -41 h-661z" />
<glyph unicode="&#x12b;" horiz-adv-x="644" d="M-68 0l9 33q82 4 112.5 28.5t53.5 113.5l174 654q22 91 4.5 114.5t-102.5 27.5l9 33q92 -5 259 -5q153 0 271 5l-9 -33q-87 -4 -117 -28.5t-53 -113.5l-173 -654q-12 -48 -14 -73t9.5 -41t34 -21t67.5 -7l-6 -33q-105 5 -269 5q-163 0 -260 -5zM154 1187l9 42h661 l-10 -42h-660z" />
<glyph unicode="&#x12c;" horiz-adv-x="644" d="M-68 0l9 33q82 4 112.5 28.5t53.5 113.5l218 819q22 91 5 114.5t-102 27.5l8 33q92 -5 259 -5q153 0 271 5l-8 -33q-87 -4 -117 -28.5t-53 -113.5l-218 -819q-12 -48 -14 -73t9.5 -41t34 -21t67.5 -7l-6 -33q-107 5 -269 5q-163 0 -260 -5zM284 1511l25 12 q48 -47 110 -67.5t159 -20.5q219 0 377 94l18 -16q-69 -97 -189.5 -168.5t-238.5 -71.5q-110 0 -175.5 66t-85.5 172z" />
<glyph unicode="&#x12d;" horiz-adv-x="644" d="M-68 0l9 33q82 4 112.5 28.5t53.5 113.5l174 654q22 91 4.5 114.5t-102.5 27.5l9 33q92 -5 259 -5q153 0 271 5l-9 -33q-87 -4 -117 -28.5t-53 -113.5l-173 -654q-12 -48 -14 -73t9.5 -41t34 -21t67.5 -7l-6 -33q-105 5 -269 5q-163 0 -260 -5zM195 1346l25 12 q48 -47 110 -67.5t159 -20.5q218 0 376 94l19 -16q-69 -97 -189.5 -168.5t-238.5 -71.5q-110 0 -175.5 66t-85.5 172z" />
<glyph unicode="&#x12e;" horiz-adv-x="644" d="M-68 0l9 33q82 4 112.5 28.5t53.5 113.5l218 819q22 91 5 114.5t-102 27.5l8 33q92 -5 259 -5q153 0 271 5l-8 -33q-87 -4 -117 -28.5t-53 -113.5l-218 -819q-12 -48 -14 -73t9.5 -41t34 -21t67.5 -7l-6 -33h-18q-71 -28 -116.5 -77t-45.5 -101q0 -50 54 -50q56 0 121 36 l18 -28q-112 -91 -239 -91q-66 0 -103.5 26.5t-37.5 73.5q0 37 26 71t71.5 60.5t97.5 46.5t112 35q-91 3 -209 3q-163 0 -260 -5z" />
<glyph unicode="&#x12f;" horiz-adv-x="644" d="M-68 0l9 33q82 4 112.5 28.5t53.5 113.5l174 654q22 91 4.5 114.5t-102.5 27.5l9 33q92 -5 259 -5q153 0 271 5l-9 -33q-87 -4 -117 -28.5t-53 -113.5l-173 -654q-12 -48 -14 -73t9.5 -41t34 -21t67.5 -7l-6 -33q-17 0 -25 2q-95 -27 -152.5 -76.5t-57.5 -103.5 q0 -50 55 -50t120 36l18 -28q-114 -90 -237 -90q-68 0 -105 26t-37 73q0 75 93 130.5t250 83.5q-56 2 -191 2q-163 0 -260 -5z" />
<glyph unicode="&#x130;" horiz-adv-x="644" d="M-68 0l9 33q82 4 112.5 28.5t53.5 113.5l218 819q22 91 5 114.5t-102 27.5l8 33q92 -5 259 -5q153 0 271 5l-8 -33q-87 -4 -117 -28.5t-53 -113.5l-218 -819q-12 -48 -14 -73t9.5 -41t34 -21t67.5 -7l-6 -33q-107 5 -269 5q-163 0 -260 -5zM434 1364q0 69 48 111.5 t121 42.5q59 0 90.5 -27.5t31.5 -75.5q0 -64 -49.5 -108t-122.5 -44q-57 0 -88 26.5t-31 74.5z" />
<glyph unicode="&#x131;" horiz-adv-x="531" d="M41 581l45 126q60 170 229 170q56 0 91 -21t46 -56t8.5 -73.5t-16.5 -80.5l-175 -506q-28 -82 23 -82q55 0 104 130l30 80h31l-41 -121q-60 -170 -223 -170q-107 0 -138 69.5t13 192.5l162 474q27 83 -19 83q-31 0 -56 -30t-51 -100l-31 -85h-32z" />
<glyph unicode="&#x132;" horiz-adv-x="1397" d="M26 0l9 33q80 4 108.5 28.5t57.5 113.5l182 601q-99 21 -158.5 76t-59.5 146q0 100 76 161.5t210 61.5q78 0 150 -17t128 -41.5t111 -49.5t124 -42t143 -17q169 0 327 64q81 125 125 88q11 -13 8.5 -28t-33 -36t-86.5 -42q-91 -79 -147.5 -197t-104.5 -299h172l-7 -33 h-173q-5 -23 -12 -43l-101 -421q-22 -89 -59 -161t-94 -131.5t-141.5 -92.5t-189.5 -33q-68 0 -118 11.5t-82 40t-33 72.5q-2 53 36 89.5t103 36.5q55 0 91.5 -26t37.5 -73q3 -77 -89 -118q12 -4 46 -4q85 0 136 99q32 65 82 260q8 32 10 39l89 338q21 76 36 117h-214l6 33 h222q35 82 80 148t109 126t117 100.5t145 103.5q-68 -21 -157 -61t-159.5 -62.5t-151.5 -22.5q-99 0 -260.5 41.5t-256.5 41.5q-132 0 -132 -92q0 -61 65.5 -94.5t170.5 -33.5q139 0 250 61l13 -28q-60 -34 -136 -52l-183 -605q-27 -87 -8 -113.5t106 -28.5l-7 -33 q-107 5 -269 5q-163 0 -260 -5z" />
<glyph unicode="&#x133;" horiz-adv-x="1418" d="M25 0l8 33q82 4 111 28.5t56 113.5l130 423q-94 22 -149 76.5t-55 141.5q0 100 75.5 161.5t209.5 61.5q77 0 147 -17t124.5 -41.5t108.5 -49.5t121 -42t140 -17q175 0 342 64q81 125 125 88q8 -7 10 -15.5t-4 -19t-19.5 -21.5t-38 -24t-58.5 -26q-91 -78 -148.5 -195.5 t-110.5 -299.5h165l-5 -33h-170q-1 -6 -5.5 -20.5t-6.5 -22.5l-74 -286q-22 -79 -60 -143.5t-96 -117t-143 -82t-190 -29.5t-168 29.5t-63 94.5q-2 54 35.5 90t102.5 36q55 0 91.5 -26t37.5 -73q0 -76 -91 -117q15 -5 45 -5q33 0 58.5 8.5t47 31.5t36.5 45.5t32.5 70.5 t29 85.5t32.5 109.5l58 203q19 67 40 118h-218l5 33h227q30 66 68.5 124t76 101t94 90t100.5 79.5t117 82.5q-60 -18 -130 -46.5t-115.5 -48.5t-108.5 -35t-128 -15q-95 0 -251 41t-249 41q-133 0 -133 -92q0 -61 66 -94t171 -33q143 0 264 54l10 -28q-81 -37 -164 -53 l-129 -416q-14 -46 -16.5 -72t10.5 -41.5t36 -21t68 -7.5l-7 -33q-105 5 -269 5q-162 0 -259 -5z" />
<glyph unicode="&#x134;" horiz-adv-x="1128" d="M45 -187q0 54 37 90t101 36q56 0 92 -26t37 -73q0 -76 -91 -117q15 -5 47 -5q86 0 138 101q34 65 86 261q1 3 3 11q5 16 7 25l89 317q16 62 48 138h-224l5 33h234q71 149 182.5 254t293.5 224q-61 -21 -140.5 -61t-143 -62.5t-136.5 -22.5t-185 41.5t-168 41.5 q-47 0 -74 -24t-27 -70q3 -110 187 -127l-5 -32q-129 10 -208 69.5t-80 165.5q-2 100 59 160t176 60q59 0 112 -17t95 -41.5t84 -49.5t96 -42t113 -17q142 0 279 64q81 126 126 88q11 -13 8.5 -28t-33 -36t-86.5 -42q-97 -77 -165 -201t-119 -295h164l-5 -33h-169 q-3 -11 -8.5 -32t-9.5 -32l-102 -400q-23 -89 -61 -161.5t-95.5 -131.5t-142.5 -92t-190 -33t-168 30t-63 94zM512 1297q138 43 256.5 111.5t191.5 144.5h29q38 -92 90.5 -153t139.5 -103l-7 -24q-75 12 -139 29.5t-101 31t-92 37.5q-170 -62 -360 -98z" />
<glyph unicode="&#x135;" horiz-adv-x="1121" d="M2 -183q0 52 38 87t102 35q55 0 91 -26.5t36 -72.5q0 -78 -91 -117q15 -5 52 -5q39 0 69 14t50 34t40 62.5t32 77.5t32 102l89 298q13 50 29 84h-209l5 33h218q36 81 83.5 147t110.5 120.5t120 95.5t144 97q18 11 27 17q-67 -22 -151.5 -61.5t-146 -61.5t-121.5 -22 q-68 0 -172.5 41t-156.5 41q-46 0 -73 -24t-26 -70q0 -110 185 -127l-3 -31q-130 10 -208.5 69t-79.5 165q-2 100 59 160t176 60q58 0 110.5 -17t94 -41.5t83 -49.5t94.5 -42t112 -17q134 0 259 64q83 128 127 86q24 -23 -13.5 -51.5t-98.5 -52.5q-104 -84 -163 -195.5 t-116 -299.5h165l-5 -33h-170q-1 -2 -2 -5.5t-2 -4.5l-115 -388q-40 -133 -158.5 -217.5t-290.5 -84.5q-258 0 -261 127zM403 1131q138 43 256.5 111.5t191.5 144.5h29q38 -92 90.5 -153t139.5 -103l-7 -23q-75 12 -139 29.5t-101 31t-92 37.5q-170 -62 -360 -98z" />
<glyph unicode="&#x136;" horiz-adv-x="1222" d="M-68 0l9 33q82 4 112.5 28.5t53.5 113.5l218 819q22 91 5 114.5t-102 27.5l8 33q93 -5 269 -5q148 0 261 5l-8 -33q-87 -4 -117 -28.5t-53 -113.5l-218 -819q-12 -48 -14 -73t9.5 -41t34 -21t67.5 -7l-6 -33q-102 5 -260 5q-171 0 -269 -5zM315 -218q0 55 42.5 92.5 t106.5 37.5q47 0 79.5 -26t32.5 -74q0 -83 -59 -139t-169 -71l-3 31q64 6 109.5 31.5t54.5 64.5q-38 -28 -94 -28q-100 0 -100 81zM522 596q-1 6 0 13q4 28 33 33t111 -16q61 8 105.5 42t68.5 80t45 103.5t34.5 110.5t36 103.5t51.5 79.5q47 47 118 47q72 0 114.5 -41.5 t40.5 -108.5q0 -61 -40.5 -110.5t-109.5 -49.5q-47 0 -78.5 30.5t-30.5 80.5q0 48 33.5 93.5t88.5 69.5q-12 5 -27 5q-51 0 -84 -36q-29 -31 -53 -93t-43 -124.5t-44.5 -125t-70 -108.5t-106.5 -60q144 -16 195 -78.5t36 -203.5l-18 -173q-5 -62 41 -62q31 0 53 24.5 t40 75.5l28 84h33l-43 -127q-30 -90 -88 -133.5t-133 -43.5q-105 0 -153.5 56t-34.5 152l31 231q9 80 0.5 117t-38.5 60q-134 -35 -142 3z" />
<glyph unicode="&#x137;" horiz-adv-x="1194" d="M-68 0l9 33q82 4 112.5 28.5t53.5 113.5l174 654q22 91 4.5 114.5t-102.5 27.5l9 33q93 -5 269 -5q148 0 261 5l-9 -33q-87 -4 -117 -28.5t-53 -113.5l-173 -654q-12 -48 -14 -73t9.5 -41t34 -21t67.5 -7l-6 -33q-102 5 -260 5q-171 0 -269 -5zM325 -218q0 55 42.5 92.5 t106.5 37.5q47 0 79.5 -26t32.5 -74q0 -83 -59 -139t-169 -71l-3 31q64 6 109.5 31.5t54.5 64.5q-38 -28 -95 -28q-99 0 -99 81zM492 522q0 53 136 15q62 6 104.5 43t65.5 90t38.5 107.5t36 109.5t45.5 82q54 58 132 58q73 0 114 -38t40 -104q0 -65 -40.5 -111.5 t-104.5 -46.5q-55 0 -85.5 28.5t-28.5 78.5q0 49 31.5 95.5t78.5 63.5q-5 3 -21 3q-52 0 -91 -46q-20 -25 -38.5 -77t-35 -105t-39.5 -105.5t-63 -90.5t-96 -48q60 -9 101.5 -22t74 -38t45.5 -65.5t6 -97.5l-13 -146q-5 -58 45 -58q31 0 52 23.5t40 76.5l28 84h33l-43 -127 q-31 -94 -88.5 -135.5t-142.5 -41.5q-100 0 -146 54.5t-29 165.5l23 152q18 123 -34 156q-131 -36 -131 17z" />
<glyph unicode="&#x138;" horiz-adv-x="977" d="M25 0l201 713q13 43 9.5 63t-27.5 20q-31 0 -56 -29.5t-51 -100.5l-32 -85h-31l45 126q61 170 216 170q186 0 125 -231l-51 -200q53 7 93.5 33.5t63 61.5t41.5 79t31.5 83.5t32.5 77t44 58.5q49 38 104 38q76 0 115 -43.5t37 -108.5q0 -61 -38.5 -101.5t-98.5 -40.5 q-52 0 -80 27.5t-28 68.5q1 48 32.5 88t78.5 64q-11 13 -26 13q-38 0 -71 -25q-24 -20 -44 -63.5t-37 -90.5t-38.5 -94t-59.5 -84t-89 -51q308 -6 273 -233l-12 -76q-6 -41 0 -55t25 -14q55 0 102 130l28 80h32l-40 -121q-60 -170 -238 -170q-169 0 -132 190l16 81 q16 86 -9.5 125t-112.5 50l-110 -423h-233z" />
<glyph unicode="&#x139;" horiz-adv-x="999" d="M-71 0l8 33q85 4 115.5 28.5t54.5 113.5l218 819q22 91 5 114.5t-102 27.5l8 33q97 -5 273 -5q144 0 257 5l-8 -33q-87 -4 -117.5 -28.5t-54.5 -113.5l-218 -819q-12 -48 -14 -73t9.5 -40.5t33.5 -19.5t67 -4h66q118 0 207 71.5t155 237.5h36q-17 -45 -39 -136 q-26 -90 -45 -211q-112 5 -375 5q-360 0 -540 -5zM489 1295q66 52 129.5 111t105 96.5t79.5 58.5q33 22 81 17.5t69 -44.5q18 -36 -1.5 -69.5t-64.5 -57.5q-43 -24 -169 -60t-218 -72z" />
<glyph unicode="&#x13a;" horiz-adv-x="1007" d="M-73 0l9 33q86 4 116.5 28.5t53.5 113.5l176 654q12 48 14.5 73t-9 41t-33.5 21t-67 7l8 33q93 -5 271 -5q144 0 257 5l-8 -33q-87 -4 -117 -28.5t-53 -113.5l-178 -654q-20 -91 -4.5 -114t90.5 -23h69q69 0 133.5 28t128.5 99.5t106 181.5h38q-28 -78 -43 -142 q-22 -72 -43 -205q-112 5 -380 5q-357 0 -535 -5zM344 1130q76 60 171 150t142 116q33 22 81.5 17.5t69.5 -44.5q18 -36 -1.5 -69.5t-64.5 -57.5q-43 -24 -169 -60t-218 -72z" />
<glyph unicode="&#x13b;" horiz-adv-x="999" d="M-71 0l8 33q85 4 115.5 28.5t54.5 113.5l218 819q22 91 5 114.5t-102 27.5l8 33q97 -5 273 -5q144 0 257 5l-8 -33q-87 -4 -117.5 -28.5t-54.5 -113.5l-218 -819q-12 -48 -14 -73t9.5 -40.5t33.5 -19.5t67 -4h66q118 0 207 71.5t155 237.5h36q-17 -45 -39 -136 q-26 -90 -45 -211q-112 5 -375 5q-360 0 -540 -5zM299 -218q0 55 42.5 92.5t106.5 37.5q47 0 79.5 -26t32.5 -74q0 -83 -59 -139t-169 -71l-3 31q64 6 109 31.5t54 64.5q-38 -28 -94 -28q-99 0 -99 81z" />
<glyph unicode="&#x13c;" horiz-adv-x="1007" d="M-73 0l9 33q86 4 116.5 28.5t53.5 113.5l176 654q12 48 14.5 73t-9 41t-33.5 21t-67 7l8 33q93 -5 271 -5q144 0 257 5l-8 -33q-87 -4 -117 -28.5t-53 -113.5l-178 -654q-20 -91 -4.5 -114t90.5 -23h69q69 0 133.5 28t128.5 99.5t106 181.5h38q-28 -78 -43 -142 q-22 -72 -43 -205q-112 5 -380 5q-357 0 -535 -5zM292 -218q0 55 42.5 92.5t106.5 37.5q47 0 79.5 -26t32.5 -74q0 -83 -59 -139t-169 -71l-3 31q64 6 109.5 31.5t54.5 64.5q-38 -28 -95 -28q-99 0 -99 81z" />
<glyph unicode="&#x13d;" horiz-adv-x="999" d="M-71 0l8 33q85 4 115.5 28.5t54.5 113.5l218 819q22 91 5 114.5t-102 27.5l8 33q97 -5 273 -5q144 0 257 5l-8 -33q-87 -4 -117.5 -28.5t-54.5 -113.5l-218 -819q-12 -48 -14 -73t9.5 -40.5t33.5 -19.5t67 -4h66q118 0 207 71.5t155 237.5h36q-17 -45 -39 -136 q-26 -90 -45 -211q-112 5 -375 5q-360 0 -540 -5zM765 801q50 104 73.5 184.5t23.5 117.5q0 32 -44 32l5 34q14 0 36.5 -0.5t32.5 -0.5q78 0 158 20q2 -3 2 -17q0 -60 -70 -160t-194 -217z" />
<glyph unicode="&#x13e;" horiz-adv-x="1007" d="M-73 0l9 33q86 4 116.5 28.5t53.5 113.5l176 654q12 48 14.5 73t-9 41t-33.5 21t-67 7l8 33q93 -5 271 -5q144 0 257 5l-8 -33q-87 -4 -117 -28.5t-53 -113.5l-178 -654q-20 -91 -4.5 -114t90.5 -23h69q69 0 133.5 28t128.5 99.5t106 181.5h38q-28 -78 -43 -142 q-22 -72 -43 -205q-112 5 -380 5q-357 0 -535 -5zM720 624q46 106 68.5 189t22.5 120q0 32 -31 32l4 34q11 0 29 -0.5t26 -0.5q82 0 160 19q2 -3 2 -16q0 -61 -68 -161.5t-190 -221.5z" />
<glyph unicode="&#x13f;" horiz-adv-x="1025" d="M-71 0l8 33q85 4 115.5 28.5t54.5 113.5l218 819q22 91 5 114.5t-102 27.5l8 33q97 -5 273 -5q144 0 257 5l-8 -33q-87 -4 -117.5 -28.5t-54.5 -113.5l-218 -819q-12 -48 -14 -73t9.5 -40.5t33.5 -19.5t67 -4h66q118 0 207 71.5t155 237.5h36q-17 -45 -39 -136 q-26 -90 -45 -211q-112 5 -375 5q-360 0 -540 -5zM755 588q2 63 47.5 105t110.5 42q56 0 85.5 -29t25.5 -80q-2 -58 -49 -101.5t-111 -43.5q-55 0 -84 28.5t-25 78.5z" />
<glyph unicode="&#x140;" horiz-adv-x="1007" d="M-73 0l9 33q86 4 116.5 28.5t53.5 113.5l176 654q12 48 14.5 73t-9 41t-33.5 21t-67 7l8 33q93 -5 271 -5q144 0 257 5l-8 -33q-87 -4 -117 -28.5t-53 -113.5l-178 -654q-20 -91 -4.5 -114t90.5 -23h69q69 0 133.5 28t128.5 99.5t106 181.5h38q-28 -78 -43 -142 q-22 -72 -43 -205q-112 5 -380 5q-357 0 -535 -5zM732 540q4 63 49.5 105t110.5 42q55 0 85 -29t26 -80q-4 -58 -51 -101.5t-110 -43.5q-54 0 -83 28.5t-27 78.5z" />
<glyph unicode="&#x141;" horiz-adv-x="1000" d="M-68 0l7 33q86 4 116.5 28.5t53.5 113.5l66 246l-149 -74l10 38l149 74l142 535q10 38 13 61t0 39.5t-18 24.5t-35 11.5t-56 5.5l8 33q93 -5 271 -5q148 0 258 5l-8 -33q-87 -4 -117 -28.5t-53 -113.5l-108 -399l372 186l-10 -38l-372 -186l-102 -382q-12 -48 -14 -73 t9.5 -40.5t33.5 -19.5t67 -4h66q118 0 207 71.5t155 237.5h36q-20 -53 -40 -136q-25 -86 -43 -211q-112 5 -376 5q-361 0 -539 -5z" />
<glyph unicode="&#x142;" horiz-adv-x="1009" d="M-69 0l6 33q86 4 116.5 28.5t53.5 113.5l48 175l-143 -73l9 38l144 73l121 441q22 91 4.5 114.5t-102.5 27.5l9 33q93 -5 270 -5q147 0 260 5l-9 -33q-87 -4 -117.5 -28.5t-53.5 -113.5l-83 -305l375 188l-10 -38l-375 -188l-84 -311q-21 -91 -5.5 -114t89.5 -23h70 q108 0 207 74t163 235h36q-28 -78 -43 -142q-21 -70 -41 -205q-114 5 -382 5q-356 0 -533 -5z" />
<glyph unicode="&#x143;" horiz-adv-x="1362" d="M-132 18q0 65 42 107.5t108 42.5q54 0 84 -27.5t30 -71.5q0 -54 -35 -95.5t-90 -57.5q10 -7 28 -7q85 0 138 89q111 173 271 996q19 91 -0.5 114.5t-116.5 27.5l8 33q58 -5 147 -5q71 0 134 5l342 -786q138 598 248 757q73 105 178 105q73 0 115 -39.5t42 -100.5 q0 -64 -42.5 -107t-107.5 -43q-54 0 -84 27t-30 72q0 54 35 95.5t89 57.5q-7 7 -27 7q-79 0 -139 -88q-73 -109 -152 -383.5t-180 -750.5h-36l-410 897q-155 -772 -257 -907q-37 -49 -77 -76.5t-100 -27.5q-73 0 -114 39.5t-41 100.5zM879 1295q76 60 171 150t142 116 q33 22 81.5 17.5t69.5 -44.5q18 -36 -1.5 -69.5t-64.5 -57.5q-43 -24 -169 -60t-218 -72z" />
<glyph unicode="&#x144;" horiz-adv-x="1443" d="M-129 18q0 65 42.5 107.5t106.5 42.5q54 0 84 -27t30 -72q0 -54 -35 -95.5t-89 -57.5q7 -7 26 -7q83 3 141 89q113 168 280 896q2 46 -23 60.5t-104 16.5l9 33q58 -5 147 -5q95 0 183 5l327 -652q139 485 243 622q79 106 178 106q73 0 114 -39.5t41 -100.5 q0 -64 -42.5 -107.5t-107.5 -43.5q-53 0 -82.5 27.5t-29.5 72.5q0 54 35.5 96t88.5 57q-10 7 -27 7q-45 0 -77 -23t-62 -65q-145 -205 -332 -969h-36l-428 816q-166 -701 -269 -826q-40 -49 -80 -76.5t-97 -27.5q-74 0 -114.5 39.5t-40.5 100.5zM801 1130q66 52 129.5 111 t105 96.5t79.5 58.5q33 22 81 17.5t69 -44.5q18 -36 -1.5 -69.5t-64.5 -57.5q-43 -24 -169 -60t-217 -72z" />
<glyph unicode="&#x145;" horiz-adv-x="1362" d="M-132 18q0 65 42 107.5t108 42.5q54 0 84 -27.5t30 -71.5q0 -54 -35 -95.5t-90 -57.5q10 -7 28 -7q85 0 138 89q111 173 271 996q19 91 -0.5 114.5t-116.5 27.5l8 33q58 -5 147 -5q71 0 134 5l342 -786q138 598 248 757q73 105 178 105q73 0 115 -39.5t42 -100.5 q0 -64 -42.5 -107t-107.5 -43q-54 0 -84 27t-30 72q0 54 35 95.5t89 57.5q-7 7 -27 7q-79 0 -139 -88q-73 -109 -152 -383.5t-180 -750.5h-36l-410 897q-155 -772 -257 -907q-37 -49 -77 -76.5t-100 -27.5q-73 0 -114 39.5t-41 100.5zM362 -218q0 55 42 92.5t106 37.5 q47 0 80 -26t33 -74q0 -83 -59 -139t-169 -71l-4 31q64 6 109.5 31.5t54.5 64.5q-38 -28 -94 -28q-99 0 -99 81z" />
<glyph unicode="&#x146;" horiz-adv-x="1443" d="M-129 18q0 65 42.5 107.5t106.5 42.5q54 0 84 -27t30 -72q0 -54 -35 -95.5t-89 -57.5q7 -7 26 -7q83 3 141 89q113 168 280 896q2 46 -23 60.5t-104 16.5l9 33q58 -5 147 -5q95 0 183 5l327 -652q139 485 243 622q79 106 178 106q73 0 114 -39.5t41 -100.5 q0 -64 -42.5 -107.5t-107.5 -43.5q-53 0 -82.5 27.5t-29.5 72.5q0 54 35.5 96t88.5 57q-10 7 -27 7q-45 0 -77 -23t-62 -65q-145 -205 -332 -969h-36l-428 816q-166 -701 -269 -826q-40 -49 -80 -76.5t-97 -27.5q-74 0 -114.5 39.5t-40.5 100.5zM383 -218q0 55 42.5 92.5 t106.5 37.5q47 0 79.5 -26t32.5 -74q0 -83 -59 -139t-169 -71l-3 31q64 6 109 31.5t54 64.5q-38 -28 -94 -28q-99 0 -99 81z" />
<glyph unicode="&#x147;" horiz-adv-x="1362" d="M-132 18q0 65 42 107.5t108 42.5q54 0 84 -27.5t30 -71.5q0 -54 -35 -95.5t-90 -57.5q10 -7 28 -7q85 0 138 89q111 173 271 996q19 91 -0.5 114.5t-116.5 27.5l8 33q58 -5 147 -5q71 0 134 5l342 -786q138 598 248 757q73 105 178 105q73 0 115 -39.5t42 -100.5 q0 -64 -42.5 -107t-107.5 -43q-54 0 -84 27t-30 72q0 54 35 95.5t89 57.5q-7 7 -27 7q-79 0 -139 -88q-73 -109 -152 -383.5t-180 -750.5h-36l-410 897q-155 -772 -257 -907q-37 -49 -77 -76.5t-100 -27.5q-73 0 -114 39.5t-41 100.5zM669 1524l7 24q162 -26 333 -98 q171 62 359 98l8 -24q-137 -43 -256.5 -111.5t-191.5 -144.5h-30q-39 94 -90 154t-139 102z" />
<glyph unicode="&#x148;" horiz-adv-x="1443" d="M-129 18q0 65 42.5 107.5t106.5 42.5q54 0 84 -27t30 -72q0 -54 -35 -95.5t-89 -57.5q7 -7 26 -7q83 3 141 89q113 168 280 896q2 46 -23 60.5t-104 16.5l9 33q58 -5 147 -5q95 0 183 5l327 -652q139 485 243 622q79 106 178 106q73 0 114 -39.5t41 -100.5 q0 -64 -42.5 -107.5t-107.5 -43.5q-53 0 -82.5 27.5t-29.5 72.5q0 54 35.5 96t88.5 57q-10 7 -27 7q-45 0 -77 -23t-62 -65q-145 -205 -332 -969h-36l-428 816q-166 -701 -269 -826q-40 -49 -80 -76.5t-97 -27.5q-74 0 -114.5 39.5t-40.5 100.5zM687 1359l7 23 q107 -18 177.5 -39.5t155.5 -57.5q166 60 359 97l8 -23q-137 -43 -256.5 -111.5t-191.5 -144.5h-29q-39 93 -90.5 153.5t-139.5 102.5z" />
<glyph unicode="&#x14a;" horiz-adv-x="1190" d="M-66 0l7 33q85 4 116.5 31t54.5 118l217 812q22 89 2.5 113.5t-111.5 28.5l8 33q58 -5 147 -5q71 0 134 5l439 -801l162 620q23 91 4 117.5t-107 30.5l9 33q63 -5 158 -5q89 0 152 5l-8 -33q-85 -4 -116 -30.5t-54 -117.5l-251 -948q-37 -174 -103.5 -262.5t-185.5 -88.5 q-80 0 -138.5 30.5t-59.5 93.5q0 55 37 90.5t101 35.5q56 0 92 -26t37 -73q0 -76 -92 -117q17 -5 34 -5q38 0 71 15.5t56.5 40.5t44 62t33.5 73.5t25 80.5l-509 912l-191 -720q-23 -91 -3.5 -118t107.5 -31l-9 -33q-63 5 -155 5q-95 0 -155 -5z" />
<glyph unicode="&#x14b;" horiz-adv-x="1192" d="M-68 0l9 33q85 4 116.5 31t54.5 118l174 647q22 89 2 113.5t-113 28.5l8 33q58 -5 147 -5q68 0 131 5l475 -687l131 505q23 91 5 118t-106 31l8 33q63 -5 159 -5q89 0 152 5l-8 -33q-86 -4 -118.5 -31.5t-55.5 -117.5l-205 -779q-42 -172 -116 -263t-194 -91 q-80 0 -138.5 30.5t-59.5 93.5q0 55 37.5 90.5t102.5 35.5q55 0 91 -26.5t36 -72.5q0 -76 -92 -117q17 -5 36 -5q91 0 152.5 76.5t95.5 195.5l-545 780l-155 -588q-23 -91 -4.5 -118t106.5 -31l-7 -33q-67 5 -155 5q-97 0 -157 -5z" />
<glyph unicode="&#x14c;" horiz-adv-x="1283" d="M69 373q0 110 34 225t100 221t155 189.5t209 133.5t251 50q212 0 330.5 -104t118.5 -294q0 -109 -34 -224t-100.5 -220.5t-156 -189t-209 -133.5t-250.5 -50q-212 0 -330 103.5t-118 292.5zM353 352q0 -159 50 -252t129 -93q112 0 217 119t168.5 307.5t63.5 384.5 q0 159 -49.5 252t-128.5 93q-112 0 -217.5 -119t-169 -307.5t-63.5 -384.5zM520 1353l10 41h661l-10 -41h-661z" />
<glyph unicode="&#x14d;" horiz-adv-x="1286" d="M56 375q0 88 32.5 180t96.5 176t149 150.5t199.5 106t239.5 39.5q214 0 340 -100.5t126 -297.5q0 -88 -32.5 -180t-96.5 -176t-149 -150.5t-199.5 -106t-239.5 -39.5q-214 0 -340 100.5t-126 297.5zM342 352q0 -178 52 -261.5t143 -83.5q88 0 167 56.5t132.5 148t85 207 t31.5 233.5q0 178 -52 262t-143 84q-88 0 -167 -56.5t-132.5 -148t-85 -207.5t-31.5 -234zM482 1187l10 42h661l-10 -42h-661z" />
<glyph unicode="&#x14e;" horiz-adv-x="1283" d="M69 373q0 110 34 225t100 221t155 189.5t209 133.5t251 50q212 0 330.5 -104t118.5 -294q0 -109 -34 -224t-100.5 -220.5t-156 -189t-209 -133.5t-250.5 -50q-212 0 -330 103.5t-118 292.5zM353 352q0 -159 50 -252t129 -93q112 0 217 119t168.5 307.5t63.5 384.5 q0 159 -49.5 252t-128.5 93q-112 0 -217.5 -119t-169 -307.5t-63.5 -384.5zM591 1511l25 12q48 -47 110 -67.5t159 -20.5q219 0 377 94l18 -16q-69 -97 -189.5 -168.5t-238.5 -71.5q-110 0 -175.5 66t-85.5 172z" />
<glyph unicode="&#x14f;" horiz-adv-x="1286" d="M56 375q0 88 32.5 180t96.5 176t149 150.5t199.5 106t239.5 39.5q214 0 340 -100.5t126 -297.5q0 -88 -32.5 -180t-96.5 -176t-149 -150.5t-199.5 -106t-239.5 -39.5q-214 0 -340 100.5t-126 297.5zM342 352q0 -178 52 -261.5t143 -83.5q88 0 167 56.5t132.5 148t85 207 t31.5 233.5q0 178 -52 262t-143 84q-88 0 -167 -56.5t-132.5 -148t-85 -207.5t-31.5 -234zM524 1346l24 12q48 -47 110.5 -67.5t159.5 -20.5q218 0 376 94l18 -16q-69 -97 -189 -168.5t-238 -71.5q-110 0 -175.5 66t-85.5 172z" />
<glyph unicode="&#x150;" horiz-adv-x="1283" d="M69 373q0 110 34 225t100 221t155 189.5t209 133.5t251 50q212 0 330.5 -104t118.5 -294q0 -109 -34 -224t-100.5 -220.5t-156 -189t-209 -133.5t-250.5 -50q-212 0 -330 103.5t-118 292.5zM353 352q0 -159 50 -252t129 -93q112 0 217 119t168.5 307.5t63.5 384.5 q0 159 -49.5 252t-128.5 93q-112 0 -217.5 -119t-169 -307.5t-63.5 -384.5zM586 1293q44 48 113 136.5t105 114.5q29 23 71.5 19t65.5 -39q18 -34 6.5 -68.5t-47.5 -58.5q-37 -25 -140.5 -61t-159.5 -61zM935 1293q44 48 113 136.5t105 114.5q29 23 71 19t64 -39 q21 -34 9 -68t-48 -59q-37 -25 -140.5 -61t-160.5 -61z" />
<glyph unicode="&#x151;" horiz-adv-x="1286" d="M56 375q0 88 32.5 180t96.5 176t149 150.5t199.5 106t239.5 39.5q214 0 340 -100.5t126 -297.5q0 -88 -32.5 -180t-96.5 -176t-149 -150.5t-199.5 -106t-239.5 -39.5q-214 0 -340 100.5t-126 297.5zM342 352q0 -178 52 -261.5t143 -83.5q88 0 167 56.5t132.5 148t85 207 t31.5 233.5q0 178 -52 262t-143 84q-88 0 -167 -56.5t-132.5 -148t-85 -207.5t-31.5 -234zM547 1128q44 48 113 136.5t105 114.5q29 23 72 19t65 -39q19 -35 6.5 -69t-48.5 -58q-37 -25 -140.5 -61t-159.5 -61zM895 1128q44 48 113 136.5t105 114.5q29 23 71 19t65 -39 q21 -34 8.5 -68t-48.5 -59q-37 -25 -140.5 -61t-160.5 -61z" />
<glyph unicode="&#x152;" horiz-adv-x="1641" d="M71 373q0 110 33 225t98.5 221t152.5 189.5t204.5 133.5t246.5 50q85 0 154 -26q98 -2 432 -2q228 0 329 5q-40 -103 -63 -195q-17 -53 -21 -102h-37q26 145 -3.5 202t-129.5 57h-98q-83 0 -112.5 -24t-52.5 -113l-104 -389h122q35 0 62 13.5t47.5 44t32 55.5t28.5 71h37 q-18 -55 -56 -201q-25 -91 -43 -202h-37q0 15 3 39t5 41t0 37.5t-10 33.5t-26.5 22.5t-48.5 11.5h-126l-104 -396q-22 -91 -5.5 -114t99.5 -23h114q117 0 178 62.5t118 229.5h36q-10 -23 -35 -119q-30 -103 -43 -211q-111 5 -366 5q-264 0 -403 -2q-89 -26 -174 -26 q-206 0 -320 103.5t-114 292.5zM355 352q0 -161 48 -253t132 -92q73 0 115 25.5t60 91.5l231 870q26 98 -7 133.5t-123 35.5q-118 0 -225 -119.5t-169 -307t-62 -384.5z" />
<glyph unicode="&#x153;" horiz-adv-x="1641" d="M55 355q0 116 51 234.5t139.5 216t223 159.5t287.5 62q77 0 151 -24q213 -4 428 -4q229 0 328 5q-42 -110 -63 -195q-6 -24 -21 -102h-36q26 145 -4 202t-130 57h-91q-83 0 -112.5 -24t-52.5 -113l-83 -307h111q29 0 52.5 11t39.5 25.5t31.5 43t24 48.5t22.5 57h36 q-17 -51 -56 -202q-19 -70 -43 -201h-36q0 16 4 46.5t4 50t-5 41t-25.5 33.5t-55.5 14h-112l-84 -314q-22 -91 -5.5 -114t99.5 -23h107q117 0 178.5 62.5t117.5 229.5h36q-1 -3 -34 -119q-25 -86 -43 -211q-107 5 -360 5q-260 0 -420 -2q-75 -26 -162 -26q-203 0 -320 96.5 t-117 281.5zM335 327q0 -161 46 -240.5t126 -79.5q86 0 135 37.5t73 130.5l175 654q45 169 -145 169q-112 0 -208 -102.5t-149 -256.5t-53 -312z" />
<glyph unicode="&#x154;" horiz-adv-x="1174" d="M-69 0l6 33q86 4 116.5 28.5t53.5 113.5l217 819q25 76 8.5 107t-104.5 35l8 33q93 -5 250 -5q54 0 133.5 2t113.5 2q201 0 298 -56.5t97 -173.5q0 -147 -133 -245.5t-359 -121.5h3q63 -6 107 -13.5t88 -23.5t68.5 -39.5t37 -61.5t5.5 -89l-23 -171q-13 -115 51 -115 q32 0 55.5 29t45.5 90l8 23h38l-7 -22q-31 -104 -91 -152.5t-162 -48.5q-111 0 -161 52t-38 139l24 189q7 49 1.5 86.5t-27.5 63t-68 39t-120 14.5l-101 -385q-10 -36 -13.5 -54t-2 -37.5t14 -28t35.5 -14.5t62 -8l-7 -33q-110 5 -258 5q-173 0 -270 -5zM479 591h13 q166 0 268 98.5t102 273.5q0 89 -37.5 131t-115.5 42q-50 0 -73.5 -22.5t-40.5 -86.5zM672 1295q66 52 129.5 111t105 96.5t79.5 58.5q33 22 81 17.5t69 -44.5q18 -36 -1.5 -69.5t-64.5 -57.5q-43 -24 -169 -60t-217 -72z" />
<glyph unicode="&#x155;" horiz-adv-x="1141" d="M-69 0l6 33q86 4 116 28t54 114l175 654q12 47 12.5 77t-24.5 46t-85 19l8 33q93 -5 251 -5q58 0 153.5 2t124.5 2q352 0 352 -202q0 -126 -115 -210t-318 -109q5 0 6 -1q136 -20 195 -67.5t53 -152.5l-5 -88q-4 -54 5 -80.5t38 -24.5q50 5 88 109l8 23h38l-7 -22 q-63 -201 -251 -201q-97 0 -141 47.5t-40 125.5l8 118q6 105 -28 151t-142 53h-18l-80 -297q-23 -76 -5 -106.5t103 -35.5l-7 -33q-110 5 -259 5q-172 0 -269 -5zM456 505h30q156 0 239.5 83t83.5 234q0 149 -140 149q-54 0 -79.5 -29.5t-46.5 -112.5zM548 1130 q66 52 129.5 111t105 96.5t79.5 58.5q33 22 81 17.5t69 -44.5q18 -36 -1.5 -69.5t-64.5 -57.5q-43 -24 -169 -60t-217 -72z" />
<glyph unicode="&#x156;" horiz-adv-x="1174" d="M-69 0l6 33q86 4 116.5 28.5t53.5 113.5l217 819q25 76 8.5 107t-104.5 35l8 33q93 -5 250 -5q54 0 133.5 2t113.5 2q201 0 298 -56.5t97 -173.5q0 -147 -133 -245.5t-359 -121.5h3q63 -6 107 -13.5t88 -23.5t68.5 -39.5t37 -61.5t5.5 -89l-23 -171q-13 -115 51 -115 q32 0 55.5 29t45.5 90l8 23h38l-7 -22q-31 -104 -91 -152.5t-162 -48.5q-111 0 -161 52t-38 139l24 189q7 49 1.5 86.5t-27.5 63t-68 39t-120 14.5l-101 -385q-10 -36 -13.5 -54t-2 -37.5t14 -28t35.5 -14.5t62 -8l-7 -33q-110 5 -258 5q-173 0 -270 -5zM357 -218 q0 55 42 92.5t106 37.5q47 0 80 -26t33 -74q0 -83 -59 -139t-169 -71l-4 31q64 6 109.5 31.5t54.5 64.5q-38 -28 -94 -28q-99 0 -99 81zM479 591h13q166 0 268 98.5t102 273.5q0 89 -37.5 131t-115.5 42q-50 0 -73.5 -22.5t-40.5 -86.5z" />
<glyph unicode="&#x157;" horiz-adv-x="1141" d="M-69 0l6 33q86 4 116 28t54 114l175 654q12 47 12.5 77t-24.5 46t-85 19l8 33q93 -5 251 -5q58 0 153.5 2t124.5 2q352 0 352 -202q0 -126 -115 -210t-318 -109q5 0 6 -1q136 -20 195 -67.5t53 -152.5l-5 -88q-4 -54 5 -80.5t38 -24.5q50 5 88 109l8 23h38l-7 -22 q-63 -201 -251 -201q-97 0 -141 47.5t-40 125.5l8 118q6 105 -28 151t-142 53h-18l-80 -297q-23 -76 -5 -106.5t103 -35.5l-7 -33q-110 5 -259 5q-172 0 -269 -5zM329 -218q0 55 42 92.5t106 37.5q47 0 80 -26t33 -74q0 -83 -59 -139t-169 -71l-4 31q64 6 109.5 31.5 t54.5 64.5q-38 -28 -94 -28q-99 0 -99 81zM456 505h30q156 0 239.5 83t83.5 234q0 149 -140 149q-54 0 -79.5 -29.5t-46.5 -112.5z" />
<glyph unicode="&#x158;" horiz-adv-x="1174" d="M-69 0l6 33q86 4 116.5 28.5t53.5 113.5l217 819q25 76 8.5 107t-104.5 35l8 33q93 -5 250 -5q54 0 133.5 2t113.5 2q201 0 298 -56.5t97 -173.5q0 -147 -133 -245.5t-359 -121.5h3q63 -6 107 -13.5t88 -23.5t68.5 -39.5t37 -61.5t5.5 -89l-23 -171q-13 -115 51 -115 q32 0 55.5 29t45.5 90l8 23h38l-7 -22q-31 -104 -91 -152.5t-162 -48.5q-111 0 -161 52t-38 139l24 189q7 49 1.5 86.5t-27.5 63t-68 39t-120 14.5l-101 -385q-10 -36 -13.5 -54t-2 -37.5t14 -28t35.5 -14.5t62 -8l-7 -33q-110 5 -258 5q-173 0 -270 -5zM462 1524l7 24 q75 -12 139.5 -29.5t100.5 -31t94 -37.5q172 63 358 98l8 -24q-137 -43 -256 -111.5t-191 -144.5h-30q-39 93 -90.5 153.5t-139.5 102.5zM479 591h13q166 0 268 98.5t102 273.5q0 89 -37.5 131t-115.5 42q-50 0 -73.5 -22.5t-40.5 -86.5z" />
<glyph unicode="&#x159;" horiz-adv-x="1141" d="M-69 0l6 33q86 4 116 28t54 114l175 654q12 47 12.5 77t-24.5 46t-85 19l8 33q93 -5 251 -5q58 0 153.5 1.5t124.5 1.5q352 0 352 -201q0 -126 -115 -210t-318 -109q5 0 6 -1q136 -20 195 -67.5t53 -152.5l-5 -88q-4 -54 5 -80.5t38 -24.5q50 5 88 109l8 23h38l-7 -22 q-63 -201 -251 -201q-97 0 -141 47.5t-40 125.5l8 118q6 105 -28 151t-142 53h-18l-80 -297q-23 -76 -5 -106.5t103 -35.5l-7 -33q-110 5 -259 5q-172 0 -269 -5zM434 1359l7 23q167 -27 334 -97q167 61 358 97l8 -23q-137 -43 -256 -111.5t-191 -144.5h-30 q-39 93 -90.5 153.5t-139.5 102.5zM456 505h30q156 0 239.5 83t83.5 234q0 149 -140 149q-54 0 -79.5 -29.5t-46.5 -112.5z" />
<glyph unicode="&#x15a;" horiz-adv-x="969" d="M-46 -12q53 125 112 397h33q-18 -69 -15 -131q11 -241 269 -241q214 0 214 174q0 77 -36.5 149t-88 129.5t-103 115.5t-88 130.5t-36.5 150.5q0 81 37 146t97 104t130 59.5t142 20.5q141 0 261 -72q44 -27 54 -27q25 0 55 88h33q-63 -159 -97 -337h-33q9 40 9 92 q0 99 -61 158t-175 59q-90 0 -145 -44t-55 -136q0 -55 29 -112.5t72 -105t93.5 -102.5t93.5 -105t72 -114t29 -127q0 -68 -29.5 -124.5t-76.5 -94t-107.5 -63t-122 -37t-120.5 -11.5q-107 0 -165 18.5t-121 57.5q-37 25 -58 25t-33.5 -17.5t-35.5 -72.5h-33zM638 1295 q76 60 171 150t142 116q33 22 81.5 17.5t69.5 -44.5q18 -36 -1.5 -69.5t-64.5 -57.5q-43 -24 -169 -60t-218 -72z" />
<glyph unicode="&#x15b;" horiz-adv-x="1002" d="M-46 -12q53 125 112 397h33q-17 -96 -15 -134q4 -112 76 -175t213 -63q90 0 147.5 39t57.5 120q0 68 -44 125.5t-143 133.5q-110 86 -160.5 152.5t-50.5 153.5q0 72 37 129t99.5 91.5t138 52t158.5 17.5q136 0 236 -62q54 -37 73 -37q14 0 25.5 20t28.5 68h33 q-59 -148 -97 -337h-33q10 44 10 92q0 97 -68 160t-182 63q-93 0 -147 -41.5t-54 -110.5q0 -68 43.5 -121.5t162.5 -147.5q43 -34 57.5 -45.5t48 -39.5t45 -41.5t32 -38.5t28 -44t14 -44t6.5 -52q0 -74 -41.5 -131.5t-110.5 -91.5t-152.5 -51t-174.5 -17q-90 0 -149.5 18 t-125.5 55q-42 28 -66 28q-20 0 -33 -19.5t-35 -70.5h-33zM533 1130q66 52 129.5 111t105 96.5t79.5 58.5q33 22 81.5 17.5t69.5 -44.5q18 -36 -1.5 -69.5t-64.5 -57.5q-43 -24 -169 -60t-218 -72z" />
<glyph unicode="&#x15c;" horiz-adv-x="969" d="M-46 -12q53 125 112 397h33q-18 -69 -15 -131q11 -241 269 -241q214 0 214 174q0 77 -36.5 149t-88 129.5t-103 115.5t-88 130.5t-36.5 150.5q0 81 37 146t97 104t130 59.5t142 20.5q141 0 261 -72q44 -27 54 -27q25 0 55 88h33q-63 -159 -97 -337h-33q9 40 9 92 q0 99 -61 158t-175 59q-90 0 -145 -44t-55 -136q0 -55 29 -112.5t72 -105t93.5 -102.5t93.5 -105t72 -114t29 -127q0 -68 -29.5 -124.5t-76.5 -94t-107.5 -63t-122 -37t-120.5 -11.5q-107 0 -165 18.5t-121 57.5q-37 25 -58 25t-33.5 -17.5t-35.5 -72.5h-33zM304 1297 q137 43 255.5 111t191.5 145h30q38 -92 90.5 -153t139.5 -103l-7 -24q-75 12 -139 29.5t-101 31t-92 37.5q-170 -62 -360 -98z" />
<glyph unicode="&#x15d;" horiz-adv-x="1002" d="M-46 -12q53 125 112 397h33q-17 -96 -15 -134q4 -112 76 -175t213 -63q90 0 147.5 39t57.5 120q0 68 -44 125.5t-143 133.5q-110 86 -160.5 152.5t-50.5 153.5q0 72 37 129t99.5 91.5t138 52t158.5 17.5q136 0 236 -62q54 -37 73 -37q14 0 25.5 20t28.5 68h33 q-59 -148 -97 -337h-33q10 44 10 92q0 97 -68 160t-182 63q-93 0 -147 -41.5t-54 -110.5q0 -68 43.5 -121.5t162.5 -147.5q43 -34 57.5 -45.5t48 -39.5t45 -41.5t32 -38.5t28 -44t14 -44t6.5 -52q0 -74 -41.5 -131.5t-110.5 -91.5t-152.5 -51t-174.5 -17q-90 0 -149.5 18 t-125.5 55q-42 28 -67 28q-19 0 -32 -19t-35 -71h-33zM297 1131q138 43 256.5 111.5t191.5 144.5h30q38 -93 90 -153.5t139 -102.5l-6 -23q-75 12 -139 29.5t-101 31t-92 37.5q-170 -62 -360 -98z" />
<glyph unicode="&#x15e;" horiz-adv-x="969" d="M-46 -12q53 125 112 397h33q-18 -69 -15 -131q11 -241 269 -241q214 0 214 174q0 77 -36.5 149t-88 129.5t-103 115.5t-88 130.5t-36.5 150.5q0 81 37 146t97 104t130 59.5t142 20.5q141 0 261 -72q44 -27 54 -27q25 0 55 88h33q-63 -159 -97 -337h-33q9 40 9 92 q0 99 -61 158t-175 59q-90 0 -145 -44t-55 -136q0 -55 29 -112.5t72 -105t93.5 -102.5t93.5 -105t72 -114t29 -127q0 -68 -29.5 -124.5t-76.5 -94t-107.5 -63t-122 -37t-120.5 -11.5h-12l-36 -81q45 16 96 16t80.5 -20t29.5 -59q0 -49 -44.5 -83t-105.5 -47.5t-131 -13.5 q-110 0 -180 34l10 24q65 -18 134 -18q22 0 45 3t48 10.5t40.5 23.5t15.5 39q0 38 -53 38q-31 0 -58 -11l66 147q-80 5 -128 22.5t-103 51.5q-37 25 -58 25t-33.5 -17.5t-35.5 -72.5h-33z" />
<glyph unicode="&#x15f;" horiz-adv-x="1002" d="M-46 -12q53 125 112 397h33q-17 -96 -15 -134q4 -112 76 -175t213 -63q90 0 147.5 39t57.5 120q0 68 -44 125.5t-143 133.5q-110 86 -160.5 152.5t-50.5 153.5q0 72 37 129t99.5 91.5t138 52t158.5 17.5q136 0 236 -62q54 -37 73 -37q14 0 25.5 20t28.5 68h33 q-59 -148 -97 -337h-33q10 44 10 92q0 97 -68 160t-182 63q-93 0 -147 -41.5t-54 -110.5q0 -68 43.5 -121.5t162.5 -147.5q43 -34 57.5 -45.5t48 -39.5t45 -41.5t32 -38.5t28 -44t14 -44t6.5 -52q0 -95 -69.5 -162.5t-171.5 -97t-224 -31.5l-37 -81q45 16 96 16t81 -20 t30 -59q0 -49 -44.5 -83t-105.5 -47.5t-131 -13.5q-110 0 -180 34l10 24q65 -18 134 -18q22 0 44.5 3t47.5 10.5t40.5 23.5t15.5 39q0 38 -53 38q-30 0 -57 -11l66 145q-77 3 -131 21t-115 52q-42 28 -66 28q-20 0 -33 -19.5t-35 -70.5h-33z" />
<glyph unicode="&#x160;" horiz-adv-x="969" d="M-46 -12q53 125 112 397h33q-18 -69 -15 -131q11 -241 269 -241q214 0 214 174q0 77 -36.5 149t-88 129.5t-103 115.5t-88 130.5t-36.5 150.5q0 81 37 146t97 104t130 59.5t142 20.5q141 0 261 -72q44 -27 54 -27q25 0 55 88h33q-63 -159 -97 -337h-33q9 40 9 92 q0 99 -61 158t-175 59q-90 0 -145 -44t-55 -136q0 -55 29 -112.5t72 -105t93.5 -102.5t93.5 -105t72 -114t29 -127q0 -68 -29.5 -124.5t-76.5 -94t-107.5 -63t-122 -37t-120.5 -11.5q-107 0 -165 18.5t-121 57.5q-37 25 -58 25t-33.5 -17.5t-35.5 -72.5h-33zM426 1524l7 24 q162 -26 333 -98q171 62 359 98l8 -24q-137 -43 -256.5 -111.5t-191.5 -144.5h-29q-39 93 -90.5 153.5t-139.5 102.5z" />
<glyph unicode="&#x161;" horiz-adv-x="1002" d="M-46 -12q53 125 112 397h33q-17 -96 -15 -134q4 -112 76 -175t213 -63q90 0 147.5 39t57.5 120q0 68 -44 125.5t-143 133.5q-110 86 -160.5 152.5t-50.5 153.5q0 72 37 129t99.5 91.5t138 52t158.5 17.5q136 0 236 -62q54 -37 73 -37q14 0 25.5 20t28.5 68h33 q-59 -148 -97 -337h-33q10 44 10 92q0 97 -68 160t-182 63q-93 0 -147 -41.5t-54 -110.5q0 -68 43.5 -121.5t162.5 -147.5q43 -34 57.5 -45.5t48 -39.5t45 -41.5t32 -38.5t28 -44t14 -44t6.5 -52q0 -74 -41.5 -131.5t-110.5 -91.5t-152.5 -51t-174.5 -17q-90 0 -149.5 18 t-125.5 55q-42 28 -67 28q-19 0 -32 -19t-35 -71h-33zM419 1359l7 23q167 -27 334 -97q167 61 358 97l8 -23q-137 -43 -256 -111.5t-191 -144.5h-30q-39 93 -90.5 153.5t-139.5 102.5z" />
<glyph unicode="&#x162;" horiz-adv-x="1124" d="M142 966q0 108 107 160q82 40 222 40q105 0 296 -18t275 -18q111 0 175 21q-58 54 -58 131q0 60 36 97.5t95 37.5q58 0 92.5 -34.5t34.5 -81.5q0 -100 -114 -156q-102 -48 -276 -48q-45 0 -97 3l-241 -908q-23 -91 1 -122.5t123 -36.5l-7 -33q-107 5 -281 5l-49 -109 q45 16 95 16q51 0 81 -20t30 -59q0 -49 -44.5 -83t-105.5 -47.5t-131 -13.5q-110 0 -180 34l10 24q65 -18 134 -18q22 0 45 3t48 10.5t40.5 23.5t15.5 39q0 38 -53 38q-31 0 -58 -11l78 173q-173 0 -271 -5l6 33q103 4 144 35.5t66 123.5l250 933q-112 11 -199 11 q-135 0 -186 -28q44 -13 71.5 -49t27.5 -85q0 -58 -36.5 -98t-92.5 -40q-55 0 -87 37.5t-32 92.5z" />
<glyph unicode="&#x163;" horiz-adv-x="1106" d="M106 799q0 105 105 166q82 46 218 46q92 0 279.5 -23t272.5 -23q109 0 169 24q-67 50 -67 131q0 56 35 94t96 38q58 0 92.5 -34.5t34.5 -81.5q0 -88 -94 -150q-93 -54 -277 -54q-44 0 -90 3l-213 -743q-27 -91 -3 -123t127 -36l-6 -33q-110 5 -281 5l-50 -109 q45 16 96 16t81 -20t30 -59q0 -49 -44.5 -82.5t-105.5 -47t-131 -13.5q-112 0 -180 33l10 24q65 -18 134 -18q22 0 44.5 3t47.5 10.5t40.5 23.5t15.5 39q0 38 -53 38q-29 0 -57 -11l77 173q-174 0 -271 -5l7 33q103 4 143 35t67 124l221 773q-110 16 -197 16 q-120 0 -178 -38q45 -13 73.5 -49t28.5 -85q0 -58 -36 -98t-92 -40q-55 0 -87 37t-32 91z" />
<glyph unicode="&#x164;" horiz-adv-x="1124" d="M142 966q0 108 107 160q82 40 222 40q105 0 296 -18t275 -18q111 0 175 21q-58 54 -58 131q0 60 36 97.5t95 37.5q58 0 92.5 -34.5t34.5 -81.5q0 -100 -114 -156q-102 -48 -276 -48q-45 0 -97 3l-241 -908q-23 -91 1 -122.5t123 -36.5l-7 -33q-115 5 -306 5 q-185 0 -290 -5l6 33q103 4 144 35.5t66 123.5l250 933q-112 11 -199 11q-135 0 -186 -28q44 -13 71.5 -49t27.5 -85q0 -58 -36.5 -98t-92.5 -40q-55 0 -87 37.5t-32 92.5zM560 1524l7 24q162 -26 333 -98q171 62 359 98l8 -24q-137 -43 -256.5 -111.5t-191.5 -144.5h-30 q-39 94 -90 154t-139 102z" />
<glyph unicode="&#x165;" horiz-adv-x="1106" d="M106 799q0 105 105 166q82 46 218 46q92 0 279.5 -23t272.5 -23q109 0 169 24q-67 50 -67 131q0 56 35 94t96 38q58 0 92.5 -34.5t34.5 -81.5q0 -88 -94 -150q-93 -54 -278 -54q-43 0 -89 3l-213 -743q-27 -91 -3 -123t127 -36l-7 -33q-118 5 -305 5q-186 0 -291 -5l7 33 q103 4 143 35t67 124l221 773q-110 16 -197 16q-120 0 -178 -38q45 -13 73.5 -49t28.5 -85q0 -58 -36 -98t-92 -40q-55 0 -87 37t-32 91zM505 1359l7 23q167 -27 334 -97q167 61 358 97l8 -23q-137 -43 -256 -111.5t-191 -144.5h-30q-39 93 -90.5 153.5t-139.5 102.5z" />
<glyph unicode="&#x166;" horiz-adv-x="1124" d="M142 966q0 108 107 160q82 40 222 40q105 0 296 -18t275 -18q111 0 175 21q-58 54 -58 131q0 60 36 97.5t95 37.5q58 0 92.5 -34.5t34.5 -81.5q0 -100 -114 -156q-102 -48 -276 -48q-45 0 -97 3l-131 -496h205l-10 -41h-206l-99 -371q-23 -91 1 -122.5t123 -36.5l-7 -33 q-115 5 -306 5q-185 0 -290 -5l6 33q103 4 144 35.5t66 123.5l99 371h-231l10 41h233l139 521q-112 11 -199 11q-135 0 -186 -28q44 -13 71.5 -49t27.5 -85q0 -58 -36.5 -98t-92.5 -40q-55 0 -87 37.5t-32 92.5z" />
<glyph unicode="&#x167;" horiz-adv-x="1106" d="M106 799q0 105 105 166q82 46 218 46q92 0 279.5 -23t272.5 -23q113 0 169 24q-67 50 -67 131q0 56 35 94t96 38q58 0 92.5 -34.5t34.5 -81.5q0 -88 -94 -150q-93 -54 -278 -54q-43 0 -89 3l-140 -491h203l-10 -41h-206l-60 -211q-27 -91 -3 -123t127 -36l-6 -33 q-118 5 -306 5q-186 0 -291 -5l7 33q103 4 143 35t67 124l59 211h-231l10 41h234l149 521q-110 16 -197 16q-120 0 -178 -38q45 -13 73.5 -49t28.5 -85q0 -58 -36 -98t-92 -40q-55 0 -87 37t-32 91z" />
<glyph unicode="&#x168;" horiz-adv-x="1146" d="M124.5 258q-0.5 90 35.5 218l137 518q22 91 5 114.5t-102 27.5l10 33q93 -5 272 -5q143 0 256 5l-10 -33q-87 -4 -117 -28.5t-53 -113.5l-145 -546q-58 -205 -33 -309t142 -104q90 0 161 31.5t121 91t84.5 133.5t59.5 171l114 436q15 58 21 93.5t4 64t-17 43.5t-40 23.5 t-67 13.5l8 33q68 -5 177 -5q85 0 145 5l-8 -33q-81 -11 -116 -54t-66 -164l-112 -437q-60 -230 -162 -351q-61 -71 -149.5 -112t-188.5 -41q-241 0 -323 130q-43 61 -43.5 151zM484 1301q45 117 118.5 173.5t155.5 56.5q55 0 101 -19t72 -41.5t63.5 -41.5t77.5 -19 q70 0 127 96l30 -8q-45 -116 -118.5 -173t-155.5 -57q-55 0 -101 19t-72 41.5t-63.5 41.5t-77.5 19q-70 0 -127 -96z" />
<glyph unicode="&#x169;" horiz-adv-x="1151" d="M115.5 220.5q-2.5 89.5 43.5 255.5l94 353q22 91 4.5 114.5t-102.5 27.5l10 33q93 -5 273 -5q143 0 256 5l-10 -33q-87 -4 -117 -28.5t-53 -113.5l-103 -381q-58 -211 -33 -312t142 -101q90 0 161 31.5t121 91t84.5 133.5t59.5 171l73 271q38 136 20 181.5t-119 56.5 l10 33q68 -5 177 -5q92 0 155 5l-10 -33q-83 -11 -120.5 -54t-69.5 -164l-73 -272q-60 -230 -162 -351q-131 -153 -363 -153q-211 0 -289 89q-57 65 -59.5 154.5zM395 1136q45 117 118.5 173.5t155.5 56.5q55 0 101 -19t72 -41.5t63.5 -41.5t77.5 -19q70 0 127 96l30 -8 q-45 -116 -119 -173t-156 -57q-55 0 -101 19t-72 41.5t-63 41.5t-77 19q-71 0 -128 -96z" />
<glyph unicode="&#x16a;" horiz-adv-x="1146" d="M124.5 258q-0.5 90 35.5 218l137 518q22 91 5 114.5t-102 27.5l10 33q93 -5 272 -5q143 0 256 5l-10 -33q-87 -4 -117 -28.5t-53 -113.5l-145 -546q-58 -205 -33 -309t142 -104q90 0 161 31.5t121 91t84.5 133.5t59.5 171l114 436q15 58 21 93.5t4 64t-17 43.5t-40 23.5 t-67 13.5l8 33q68 -5 177 -5q85 0 145 5l-8 -33q-81 -11 -116 -54t-66 -164l-112 -437q-60 -230 -162 -351q-61 -71 -149.5 -112t-188.5 -41q-241 0 -323 130q-43 61 -43.5 151zM477 1353l10 41h661l-10 -41h-661z" />
<glyph unicode="&#x16b;" horiz-adv-x="1151" d="M115.5 220.5q-2.5 89.5 43.5 255.5l94 353q22 91 4.5 114.5t-102.5 27.5l10 33q93 -5 273 -5q143 0 256 5l-10 -33q-87 -4 -117 -28.5t-53 -113.5l-103 -381q-58 -211 -33 -312t142 -101q90 0 161 31.5t121 91t84.5 133.5t59.5 171l73 271q38 136 20 181.5t-119 56.5 l10 33q68 -5 177 -5q92 0 155 5l-10 -33q-83 -11 -120.5 -54t-69.5 -164l-73 -272q-60 -230 -162 -351q-131 -153 -363 -153q-211 0 -289 89q-57 65 -59.5 154.5zM426 1187l10 42h661l-10 -42h-661z" />
<glyph unicode="&#x16c;" horiz-adv-x="1146" d="M124.5 258q-0.5 90 35.5 218l137 518q22 91 5 114.5t-102 27.5l10 33q93 -5 272 -5q143 0 256 5l-10 -33q-87 -4 -117 -28.5t-53 -113.5l-145 -546q-58 -205 -33 -309t142 -104q90 0 161 31.5t121 91t84.5 133.5t59.5 171l114 436q15 58 21 93.5t4 64t-17 43.5t-40 23.5 t-67 13.5l8 33q68 -5 177 -5q85 0 145 5l-8 -33q-81 -11 -116 -54t-66 -164l-112 -437q-60 -230 -162 -351q-61 -71 -149.5 -112t-188.5 -41q-241 0 -323 130q-43 61 -43.5 151zM548 1511l25 12q48 -47 110 -67.5t159 -20.5q219 0 377 94l18 -16q-69 -97 -189.5 -168.5 t-238.5 -71.5q-110 0 -175.5 66t-85.5 172z" />
<glyph unicode="&#x16d;" horiz-adv-x="1151" d="M115.5 220.5q-2.5 89.5 43.5 255.5l94 353q22 91 4.5 114.5t-102.5 27.5l10 33q93 -5 273 -5q143 0 256 5l-10 -33q-87 -4 -117 -28.5t-53 -113.5l-103 -381q-58 -211 -33 -312t142 -101q90 0 161 31.5t121 91t84.5 133.5t59.5 171l73 271q38 136 20 181.5t-119 56.5 l10 33q68 -5 177 -5q92 0 155 5l-10 -33q-83 -11 -120.5 -54t-69.5 -164l-73 -272q-60 -230 -162 -351q-131 -153 -363 -153q-211 0 -289 89q-57 65 -59.5 154.5zM467 1346l25 12q48 -47 110 -67.5t159 -20.5q219 0 377 94l18 -16q-69 -97 -189.5 -168.5t-238.5 -71.5 q-110 0 -175.5 66t-85.5 172z" />
<glyph unicode="&#x16e;" horiz-adv-x="1146" d="M124.5 258q-0.5 90 35.5 218l137 518q22 91 5 114.5t-102 27.5l10 33q93 -5 272 -5q143 0 256 5l-10 -33q-87 -4 -117 -28.5t-53 -113.5l-145 -546q-58 -205 -33 -309t142 -104q90 0 161 31.5t121 91t84.5 133.5t59.5 171l114 436q15 58 21 93.5t4 64t-17 43.5t-40 23.5 t-67 13.5l8 33q68 -5 177 -5q85 0 145 5l-8 -33q-81 -11 -116 -54t-66 -164l-112 -437q-60 -230 -162 -351q-61 -71 -149.5 -112t-188.5 -41q-241 0 -323 130q-43 61 -43.5 151zM656 1368q0 76 58 128t142 52q70 0 115.5 -39t45.5 -102q0 -75 -61.5 -128.5t-142.5 -53.5 q-68 0 -112.5 39t-44.5 104zM700 1368q0 -50 35.5 -79t83.5 -29q61 0 108 42.5t47 103.5q0 51 -37 79t-86 28q-60 0 -105.5 -44t-45.5 -101z" />
<glyph unicode="&#x16f;" horiz-adv-x="1151" d="M115.5 220.5q-2.5 89.5 43.5 255.5l94 353q22 91 4.5 114.5t-102.5 27.5l10 33q93 -5 273 -5q143 0 256 5l-10 -33q-87 -4 -117 -28.5t-53 -113.5l-103 -381q-58 -211 -33 -312t142 -101q90 0 161 31.5t121 91t84.5 133.5t59.5 171l73 271q38 136 20 181.5t-119 56.5 l10 33q68 -5 177 -5q92 0 155 5l-10 -33q-83 -11 -120.5 -54t-69.5 -164l-73 -272q-60 -230 -162 -351q-131 -153 -363 -153q-211 0 -289 89q-57 65 -59.5 154.5zM624 1202q0 76 58 128t142 52q70 0 116 -38.5t46 -101.5q0 -75 -62 -128.5t-143 -53.5q-68 0 -112.5 38.5 t-44.5 103.5zM669 1202q0 -50 35.5 -78.5t83.5 -28.5q61 0 108 42t47 103q0 51 -37.5 79.5t-86.5 28.5q-60 0 -105 -44.5t-45 -101.5z" />
<glyph unicode="&#x170;" horiz-adv-x="1146" d="M124.5 258q-0.5 90 35.5 218l137 518q22 91 5 114.5t-102 27.5l10 33q93 -5 272 -5q143 0 256 5l-10 -33q-87 -4 -117 -28.5t-53 -113.5l-145 -546q-58 -205 -33 -309t142 -104q90 0 161 31.5t121 91t84.5 133.5t59.5 171l114 436q15 58 21 93.5t4 64t-17 43.5t-40 23.5 t-67 13.5l8 33q68 -5 177 -5q85 0 145 5l-8 -33q-81 -11 -116 -54t-66 -164l-112 -437q-60 -230 -162 -351q-61 -71 -149.5 -112t-188.5 -41q-241 0 -323 130q-43 61 -43.5 151zM543 1293q44 48 113 136.5t105 114.5q29 23 71.5 19t65.5 -39q18 -34 6.5 -68.5t-47.5 -58.5 q-37 -25 -140.5 -61t-159.5 -61zM892 1293q44 48 113 136.5t105 114.5q29 23 71 19t64 -39q21 -34 9 -68t-48 -59q-37 -25 -140.5 -61t-160.5 -61z" />
<glyph unicode="&#x171;" horiz-adv-x="1151" d="M115.5 220.5q-2.5 89.5 43.5 255.5l94 353q22 91 4.5 114.5t-102.5 27.5l10 33q93 -5 273 -5q143 0 256 5l-10 -33q-87 -4 -117 -28.5t-53 -113.5l-103 -381q-58 -211 -33 -312t142 -101q90 0 161 31.5t121 91t84.5 133.5t59.5 171l73 271q38 136 20 181.5t-119 56.5 l10 33q68 -5 177 -5q92 0 155 5l-10 -33q-83 -11 -120.5 -54t-69.5 -164l-73 -272q-60 -230 -162 -351q-131 -153 -363 -153q-211 0 -289 89q-57 65 -59.5 154.5zM489 1128q44 48 113 136.5t105 114.5q29 23 72 19t65 -39q19 -35 7 -69t-48 -58q-37 -25 -140.5 -61 t-160.5 -61zM837 1128q44 48 113 136.5t105 114.5q29 23 71 19t65 -39q21 -34 8.5 -68t-48.5 -59q-37 -25 -140.5 -61t-159.5 -61z" />
<glyph unicode="&#x172;" horiz-adv-x="1146" d="M124.5 258q-0.5 90 35.5 218l137 518q22 91 5 114.5t-102 27.5l10 33q93 -5 272 -5q143 0 256 5l-10 -33q-87 -4 -117 -28.5t-53 -113.5l-145 -546q-58 -205 -33 -309t142 -104q90 0 161 31.5t121 91t84.5 133.5t59.5 171l114 436q15 58 21 93.5t4 64t-17 43.5t-40 23.5 t-67 13.5l8 33q68 -5 177 -5q85 0 145 5l-8 -33q-81 -11 -116 -54t-66 -164l-112 -437q-60 -230 -162 -351q-82 -94 -203 -133q-69 -29 -112 -76.5t-43 -98.5q0 -50 54 -50q56 0 121 36l18 -28q-112 -91 -240 -91q-66 0 -103 26.5t-37 73.5q0 59 62 106.5t161 81.5h-16 q-241 0 -323 130q-43 61 -43.5 151z" />
<glyph unicode="&#x173;" horiz-adv-x="1151" d="M115.5 220.5q-2.5 89.5 43.5 255.5l94 353q22 91 4.5 114.5t-102.5 27.5l10 33q93 -5 273 -5q143 0 256 5l-10 -33q-87 -4 -117 -28.5t-53 -113.5l-103 -381q-58 -211 -33 -312t142 -101q90 0 161 31.5t121 91t84.5 133.5t59.5 171l73 271q38 136 20 181.5t-119 56.5 l10 33q68 -5 177 -5q92 0 155 5l-10 -33q-83 -11 -120.5 -54t-69.5 -164l-73 -272q-60 -230 -162 -351q-96 -112 -249 -142q-77 -30 -122.5 -74.5t-45.5 -91.5q0 -50 54 -50q56 0 121 36l18 -28q-114 -90 -238 -90q-68 0 -105 26t-37 73q0 60 62 108t171 80q-206 4 -281 89 q-57 65 -59.5 154.5z" />
<glyph unicode="&#x174;" horiz-adv-x="1621" d="M142 1136l8 33q92 -5 232 -5q131 0 214 5l-8 -33q-55 -4 -74 -31t-12 -107l79 -716l303 496l-35 253q-12 100 -71 105l8 33q85 -5 215 -5q161 0 258 5l-9 -33q-86 -4 -113 -30t-16 -108l88 -691l340 626q41 77 40.5 121t-34 61t-103.5 21l8 33q75 -5 216 -5q68 0 126 5 l-8 -33q-58 -16 -102 -51.5t-93 -123.5l-520 -969h-86l-103 736l-444 -736h-86l-130 1039q-12 100 -88 105zM676 1293q137 43 255.5 111t191.5 145h30q38 -93 90 -153.5t139 -102.5l-6 -23q-75 12 -139 29.5t-101 31t-92 37.5q-170 -62 -360 -98z" />
<glyph unicode="&#x175;" horiz-adv-x="1532" d="M107 971l7 33q105 -5 211 -5q140 0 220 5l-7 -33q-53 -6 -67 -37.5t-4 -101.5l81 -551l240 404l-30 180q-15 102 -64 106l6 33q92 -5 197 -5q168 0 261 5l-7 -33q-88 -4 -114 -30t-11 -109l89 -566l300 495q65 104 50.5 150.5t-124.5 59.5l8 33q118 -5 200 -5q70 0 122 5 l-6 -33q-56 -22 -98 -58.5t-94 -124.5l-487 -796q-43 5 -86 0l-104 642l-383 -642q-43 5 -86 0l-139 873q-9 54 -31 80t-50 26zM565 1131q137 43 255.5 111t191.5 145h30q38 -92 90.5 -153t139.5 -103l-7 -23q-75 12 -139 29.5t-101 31t-92 37.5q-170 -62 -360 -98z" />
<glyph unicode="&#x176;" horiz-adv-x="1212" d="M137 889l41 127q58 176 233 176q48 0 86.5 -13.5t67.5 -37.5t52 -64.5t39 -85t29.5 -110t22.5 -128.5t19 -150q109 309 271 487q93 102 194 102q73 0 114.5 -41.5t39.5 -103.5t-43.5 -103.5t-106.5 -41.5q-54 0 -84 28t-30 73q1 54 35.5 94.5t89.5 56.5q-10 7 -28 7 q-48 0 -99 -38q-74 -53 -169.5 -205.5t-172.5 -377.5l-91 -365q-9 -37 -9.5 -61t5.5 -39.5t24 -24t39.5 -12t58.5 -5.5l-9 -33q-105 5 -284 5q-169 0 -266 -5l9 33q86 4 117 28.5t53 113.5l89 357q-62 538 -190 538q-29 0 -46.5 -20t-29.5 -57l-35 -104h-36zM436 1297 q138 43 256.5 111.5t191.5 144.5h29q38 -92 90.5 -153t139.5 -103l-7 -24q-75 12 -139 29.5t-101 31t-92 37.5q-170 -62 -360 -98z" />
<glyph unicode="&#x177;" horiz-adv-x="1129" d="M109 723l46 137q28 83 80 125t137 42q52 0 90 -15t66 -43.5t49 -78.5t35.5 -109.5t29.5 -146.5l14 -74q98 232 218 362q41 47 92.5 76t103.5 29q67 0 105.5 -44t36.5 -109q0 -67 -41.5 -112t-105.5 -45q-51 0 -78 29.5t-27 80.5q0 54 34 98.5t89 63.5q-7 5 -28 5 q-59 0 -117 -54q-151 -135 -279 -459l-79 -306q-12 -48 -14 -73t9.5 -41t34 -21t67.5 -7l-8 -33q-102 5 -264 5q-169 0 -266 -5l8 33q88 4 118 28.5t52 113.5l71 273q-13 100 -25 171t-29 136.5t-40 98.5t-51 33q-22 0 -37 -15t-26 -49l-35 -100h-36zM360 1131 q138 43 256.5 111.5t191.5 144.5h29q38 -92 90.5 -153t139.5 -103l-7 -23q-75 12 -139 29.5t-101 31t-92 37.5q-170 -62 -360 -98z" />
<glyph unicode="&#x178;" horiz-adv-x="1212" d="M137 889l41 127q58 176 233 176q48 0 86.5 -13.5t67.5 -37.5t52 -64.5t39 -85t29.5 -110t22.5 -128.5t19 -150q109 309 271 487q93 102 194 102q73 0 114.5 -41.5t39.5 -103.5t-43.5 -103.5t-106.5 -41.5q-54 0 -84 28t-30 73q1 54 35.5 94.5t89.5 56.5q-10 7 -28 7 q-48 0 -99 -38q-74 -53 -169.5 -205.5t-172.5 -377.5l-91 -365q-9 -37 -9.5 -61t5.5 -39.5t24 -24t39.5 -12t58.5 -5.5l-9 -33q-105 5 -284 5q-169 0 -266 -5l9 33q86 4 117 28.5t53 113.5l89 357q-62 538 -190 538q-29 0 -46.5 -20t-29.5 -57l-35 -104h-36zM491 1374 q0 64 42 102.5t100 38.5q52 0 79.5 -30.5t27.5 -80.5q0 -65 -42.5 -102t-101.5 -37q-52 0 -78.5 29.5t-26.5 79.5zM887 1374q0 64 42 102.5t100 38.5q52 0 79.5 -30.5t27.5 -80.5q0 -65 -42 -102t-101 -37q-53 0 -79.5 29.5t-26.5 79.5z" />
<glyph unicode="&#x179;" horiz-adv-x="1086" d="M-52.5 9.5q-1.5 10.5 5 23.5t20 26.5t39 28.5t59.5 28l464 455h-267l11 33h289l461 453q-170 -149 -335 -149q-68 0 -131 18t-115.5 36.5t-95.5 18.5q-75 0 -75 -66q0 -71 121 -96l-8 -31q-42 7 -78 20t-68 35t-50.5 57t-18.5 79q0 94 65.5 153.5t174.5 59.5 q52 0 100.5 -15t86.5 -37t76 -43.5t85.5 -36.5t98.5 -15q43 0 80 10.5t95 34.5q39 55 80.5 81.5t65.5 6.5q8 -7 9.5 -17.5t-5 -23.5t-20 -26.5t-39 -28.5t-59.5 -28l-458 -450h251l-13 -33h-271l-467 -459q170 149 337 149q85 0 189.5 -36.5t151.5 -36.5q35 0 55 17t20 49 q0 70 -121 96l7 32q42 -7 78 -20t68 -35t50.5 -57.5t18.5 -79.5q0 -94 -65.5 -153.5t-174.5 -59.5q-63 0 -124 23t-102 50.5t-100.5 50.5t-121.5 23q-43 0 -80 -10.5t-95 -34.5q-39 -55 -80.5 -81t-64.5 -6q-8 7 -9.5 17.5zM697 1295q66 52 129.5 111t105 96.5t79.5 58.5 q33 22 81 17.5t69 -44.5q18 -36 -1.5 -69.5t-64.5 -57.5q-43 -24 -169 -60t-217 -72z" />
<glyph unicode="&#x17a;" horiz-adv-x="1088" d="M-64 -5q-21 26 19 62.5t98 58.5l457 373h-234l11 33h263l453 370q-38 -19 -96.5 -52t-91.5 -50.5t-79 -32t-89 -14.5q-63 0 -122 18.5t-109 36.5t-91 18q-74 0 -74 -66q0 -71 121 -96l-9 -31q-42 7 -77.5 20t-67.5 35t-50.5 57t-18.5 79q0 94 65 153.5t174 59.5 q63 0 124 -23t102 -50.5t100.5 -50.5t121.5 -23q43 0 80 10.5t95 34.5q31 46 75.5 78.5t71.5 7.5q26 -25 -13 -62t-103 -60l-449 -367h225l-14 -33h-251l-460 -377q38 19 96 52t91 50.5t79 32t90 14.5q63 0 122 -18.5t109 -36.5t91 -18q35 0 55 17t20 49q0 71 -121 96l7 32 q91 -15 152.5 -61t61.5 -131q0 -95 -64.5 -154t-174.5 -59q-63 0 -124 23t-102 50.5t-100.5 50.5t-121.5 23q-43 0 -80 -10.5t-95 -34.5q-29 -46 -75.5 -79.5t-72.5 -4.5zM604 1130q66 52 129.5 111t105 96.5t79.5 58.5q33 22 81.5 17.5t69.5 -44.5q18 -36 -1.5 -69.5 t-64.5 -57.5q-43 -24 -169 -60t-218 -72z" />
<glyph unicode="&#x17b;" horiz-adv-x="1086" d="M-52.5 9.5q-1.5 10.5 5 23.5t20 26.5t39 28.5t59.5 28l464 455h-267l11 33h289l461 453q-170 -149 -335 -149q-68 0 -131 18t-115.5 36.5t-95.5 18.5q-75 0 -75 -66q0 -71 121 -96l-8 -31q-42 7 -78 20t-68 35t-50.5 57t-18.5 79q0 94 65.5 153.5t174.5 59.5 q52 0 100.5 -15t86.5 -37t76 -43.5t85.5 -36.5t98.5 -15q43 0 80 10.5t95 34.5q39 55 80.5 81.5t65.5 6.5q8 -7 9.5 -17.5t-5 -23.5t-20 -26.5t-39 -28.5t-59.5 -28l-458 -450h251l-13 -33h-271l-467 -459q170 149 337 149q85 0 189.5 -36.5t151.5 -36.5q35 0 55 17t20 49 q0 70 -121 96l7 32q42 -7 78 -20t68 -35t50.5 -57.5t18.5 -79.5q0 -94 -65.5 -153.5t-174.5 -59.5q-63 0 -124 23t-102 50.5t-100.5 50.5t-121.5 23q-43 0 -80 -10.5t-95 -34.5q-39 -55 -80.5 -81t-64.5 -6q-8 7 -9.5 17.5zM614 1364q0 69 48 111.5t121 42.5 q59 0 90.5 -27.5t31.5 -75.5q0 -64 -49.5 -108t-122.5 -44q-57 0 -88 26.5t-31 74.5z" />
<glyph unicode="&#x17c;" horiz-adv-x="1088" d="M-64 -5q-21 26 19 62.5t98 58.5l457 373h-234l11 33h263l453 370q-38 -19 -96.5 -52t-91.5 -50.5t-79 -32t-89 -14.5q-63 0 -122 18.5t-109 36.5t-91 18q-74 0 -74 -66q0 -71 121 -96l-9 -31q-42 7 -77.5 20t-67.5 35t-50.5 57t-18.5 79q0 94 65 153.5t174 59.5 q63 0 124 -23t102 -50.5t100.5 -50.5t121.5 -23q43 0 80 10.5t95 34.5q31 46 75.5 78.5t71.5 7.5q26 -25 -13 -62t-103 -60l-449 -367h225l-14 -33h-251l-461 -377q38 19 96 52t91 50.5t79.5 32t90.5 14.5q63 0 122 -18.5t109 -36.5t91 -18q35 0 55 17t20 49q0 71 -121 96 l7 32q91 -15 152.5 -61t61.5 -131q0 -95 -64.5 -154t-174.5 -59q-63 0 -124 23t-102 50.5t-100.5 50.5t-121.5 23q-43 0 -80 -10.5t-95 -34.5q-29 -46 -75.5 -79.5t-72.5 -4.5zM629 1202q0 70 48 113t122 43q58 0 90.5 -27.5t32.5 -75.5q0 -66 -49.5 -109.5t-122.5 -43.5 q-58 0 -89.5 26t-31.5 74z" />
<glyph unicode="&#x17d;" horiz-adv-x="1086" d="M-52.5 9.5q-1.5 10.5 5 23.5t20 26.5t39 28.5t59.5 28l464 455h-267l11 33h289l461 453q-170 -149 -335 -149q-68 0 -131 18t-115.5 36.5t-95.5 18.5q-75 0 -75 -66q0 -71 121 -96l-8 -31q-42 7 -78 20t-68 35t-50.5 57t-18.5 79q0 94 65.5 153.5t174.5 59.5 q52 0 100.5 -15t86.5 -37t76 -43.5t85.5 -36.5t98.5 -15q43 0 80 10.5t95 34.5q39 55 80.5 81.5t65.5 6.5q8 -7 9.5 -17.5t-5 -23.5t-20 -26.5t-39 -28.5t-59.5 -28l-458 -450h251l-13 -33h-271l-467 -459q170 149 337 149q85 0 189.5 -36.5t151.5 -36.5q35 0 55 17t20 49 q0 70 -121 96l7 32q42 -7 78 -20t68 -35t50.5 -57.5t18.5 -79.5q0 -94 -65.5 -153.5t-174.5 -59.5q-63 0 -124 23t-102 50.5t-100.5 50.5t-121.5 23q-43 0 -80 -10.5t-95 -34.5q-39 -55 -80.5 -81t-64.5 -6q-8 7 -9.5 17.5zM487 1524l7 24q162 -26 333 -98q171 62 359 98 l8 -24q-137 -43 -256 -111.5t-191 -144.5h-30q-39 93 -90.5 153.5t-139.5 102.5z" />
<glyph unicode="&#x17e;" horiz-adv-x="1088" d="M-64 -5q-21 26 19 62.5t98 58.5l457 373h-234l11 33h263l453 370q-38 -19 -96.5 -52t-91.5 -50.5t-79 -32t-89 -14.5q-63 0 -122 18.5t-109 36.5t-91 18q-74 0 -74 -66q0 -71 121 -96l-9 -31q-42 7 -77.5 20t-67.5 35t-50.5 57t-18.5 79q0 94 65 153.5t174 59.5 q63 0 124 -23t102 -50.5t100.5 -50.5t121.5 -23q43 0 80 10.5t95 34.5q31 46 75.5 78.5t71.5 7.5q26 -25 -13 -62t-103 -60l-449 -367h225l-14 -33h-251l-460 -377q38 19 96 52t91 50.5t79 32t90 14.5q63 0 122 -18.5t109 -36.5t91 -18q35 0 55 17t20 49q0 71 -121 96l7 32 q91 -15 152.5 -61t61.5 -131q0 -95 -64.5 -154t-174.5 -59q-63 0 -124 23t-102 50.5t-100.5 50.5t-121.5 23q-43 0 -80 -10.5t-95 -34.5q-29 -46 -75.5 -79.5t-72.5 -4.5zM492 1359l7 23q107 -18 177.5 -39.5t155.5 -57.5q166 60 359 97l8 -23q-137 -43 -256.5 -111.5 t-191.5 -144.5h-29q-39 93 -90.5 153.5t-139.5 102.5z" />
<glyph unicode="&#x192;" horiz-adv-x="870" d="M-228 -205q2 48 38.5 80.5t87.5 32.5q47 0 74 -28.5t23 -67.5q-2 -25 -18 -52.5t-45 -45.5q67 8 106.5 48t63.5 131l248 923h-203l8 33h203v2q68 247 189 345q123 96 272 96q98 0 148 -49t44 -122q-6 -59 -45.5 -105t-95.5 -46q-49 0 -75 25.5t-22 74.5q4 55 37.5 100 t89.5 70q-12 25 -61 25q-58 0 -102 -59q-29 -39 -54.5 -112t-71.5 -243v-2h276l-8 -33h-276l-169 -626q-71 -275 -237 -405q-120 -95 -273 -95q-78 0 -117.5 28.5t-34.5 76.5z" />
<glyph unicode="&#x1f4;" horiz-adv-x="1220" d="M63 355q0 112 36.5 230t107.5 226t165.5 193.5t220.5 136.5t263 51q98 0 156.5 -27t113.5 -80q24 -27 46.5 -8.5t48.5 92.5h36q-55 -144 -106 -380h-36q8 69 8 124q0 77 -23 121q-32 62 -97.5 95.5t-156.5 33.5q-97 0 -184 -60t-147 -154.5t-104 -210.5t-65 -229 t-21 -208q0 -148 58.5 -219.5t178.5 -71.5q73 0 127 35q26 17 39.5 42.5t27.5 77.5l38 146q11 42 13.5 67.5t-2 44t-22.5 27.5t-43 13t-69 6l8 33q113 -5 281 -5q147 0 232 5l-8 -33q-56 -4 -76.5 -27.5t-45.5 -114.5l-88 -327h-33q4 43 -8 68.5t-38 25.5q-12 0 -25 -2.5 t-29.5 -9.5t-25.5 -11t-30.5 -15.5t-28.5 -14.5q-119 -64 -239 -64q-216 0 -335 99t-119 279zM826 1295q66 52 129.5 111t105 96.5t79.5 58.5q33 22 81 17.5t69 -44.5q18 -36 -1.5 -69.5t-64.5 -57.5q-43 -24 -169 -60t-218 -72z" />
<glyph unicode="&#x1f5;" horiz-adv-x="1197" d="M50 322q0 94 31 192.5t94 190t149.5 163.5t206.5 115.5t255 43.5q167 0 281 -107q24 -27 46 -8.5t48 92.5h36q-49 -143 -105 -380h-37q9 77 9 124q0 81 -23 121q-75 129 -265 129q-80 0 -149.5 -37t-118.5 -99t-88 -139t-62 -160t-34.5 -157.5t-11.5 -137.5 q0 -258 228 -258q159 0 190 132l30 111q24 90 -2 122t-122 36l6 33q113 -5 283 -5q146 0 231 5l-7 -33q-59 -4 -79.5 -27.5t-45.5 -114.5l-73 -269h-33q6 35 -2 56.5t-31 21.5q-37 0 -119 -40q-74 -34 -130.5 -47.5t-125.5 -13.5q-222 0 -341 89.5t-119 255.5zM662 1130 q66 52 129.5 111t105 96.5t79.5 58.5q33 22 81 17.5t69 -44.5q18 -36 -1.5 -69.5t-64.5 -57.5q-43 -24 -169 -60t-217 -72z" />
<glyph unicode="&#x218;" horiz-adv-x="969" d="M-46 -12q53 125 112 397h33q-18 -69 -15 -131q11 -241 269 -241q214 0 214 174q0 77 -36.5 149t-88 129.5t-103 115.5t-88 130.5t-36.5 150.5q0 81 37 146t97 104t130 59.5t142 20.5q141 0 261 -72q44 -27 54 -27q25 0 55 88h33q-63 -159 -97 -337h-33q9 40 9 92 q0 99 -61 158t-175 59q-90 0 -145 -44t-55 -136q0 -55 29 -112.5t72 -105t93.5 -102.5t93.5 -105t72 -114t29 -127q0 -68 -29.5 -124.5t-76.5 -94t-107.5 -63t-122 -37t-120.5 -11.5q-107 0 -165 18.5t-121 57.5q-37 25 -58 25t-33.5 -17.5t-35.5 -72.5h-33zM205 -218 q0 55 42 92.5t106 37.5q47 0 80 -26t33 -74q0 -83 -59 -139t-169 -71l-3 31q64 6 109 31.5t54 64.5q-38 -28 -94 -28q-99 0 -99 81z" />
<glyph unicode="&#x219;" horiz-adv-x="1002" d="M-46 -12q53 125 112 397h33q-17 -96 -15 -134q4 -112 76 -175t213 -63q90 0 147.5 39t57.5 120q0 68 -44 125.5t-143 133.5q-110 86 -160.5 152.5t-50.5 153.5q0 72 37 129t99.5 91.5t138 52t158.5 17.5q136 0 236 -62q54 -37 73 -37q14 0 25.5 20t28.5 68h33 q-59 -148 -97 -337h-33q10 44 10 92q0 97 -68 160t-182 63q-93 0 -147 -41.5t-54 -110.5q0 -68 43.5 -121.5t162.5 -147.5q43 -34 57.5 -45.5t48 -39.5t45 -41.5t32 -38.5t28 -44t14 -44t6.5 -52q0 -74 -41.5 -131.5t-110.5 -91.5t-152.5 -51t-174.5 -17q-90 0 -149.5 18 t-125.5 55q-42 28 -66 28q-20 0 -33 -19.5t-35 -70.5h-33zM228 -218q0 55 42.5 92.5t106.5 37.5q47 0 79.5 -26t32.5 -74q0 -83 -59 -139t-169 -71l-3 31q64 6 109 31.5t54 64.5q-38 -28 -94 -28q-99 0 -99 81z" />
<glyph unicode="&#x21a;" horiz-adv-x="1124" d="M142 966q0 108 107 160q82 40 222 40q105 0 296 -18t275 -18q111 0 175 21q-58 54 -58 131q0 60 36 97.5t95 37.5q58 0 92.5 -34.5t34.5 -81.5q0 -100 -114 -156q-102 -48 -276 -48q-45 0 -97 3l-241 -908q-23 -91 1 -122.5t123 -36.5l-7 -33q-115 5 -306 5 q-185 0 -290 -5l6 33q103 4 144 35.5t66 123.5l250 933q-112 11 -199 11q-135 0 -186 -28q44 -13 71.5 -49t27.5 -85q0 -58 -36.5 -98t-92.5 -40q-55 0 -87 37.5t-32 92.5zM330 -218q0 55 42.5 92.5t106.5 37.5q47 0 79.5 -26t32.5 -74q0 -83 -59 -139t-169 -71l-3 31 q64 6 109.5 31.5t54.5 64.5q-38 -28 -95 -28q-99 0 -99 81z" />
<glyph unicode="&#x21b;" horiz-adv-x="1106" d="M106 799q0 105 105 166q82 46 218 46q92 0 279.5 -23t272.5 -23q109 0 169 24q-67 50 -67 131q0 56 35 94t96 38q58 0 92.5 -34.5t34.5 -81.5q0 -88 -94 -150q-93 -54 -278 -54q-43 0 -89 3l-213 -743q-27 -91 -3 -123t127 -36l-7 -33q-118 5 -305 5q-186 0 -291 -5l7 33 q103 4 143 35t67 124l221 773q-110 16 -197 16q-120 0 -178 -38q45 -13 73.5 -49t28.5 -85q0 -58 -36 -98t-92 -40q-55 0 -87 37t-32 91zM309 -218q0 55 42 92.5t106 37.5q47 0 80 -26t33 -74q0 -83 -59 -139t-169 -71l-3 31q64 6 109 31.5t54 64.5q-38 -28 -94 -28 q-99 0 -99 81z" />
<glyph unicode="&#x237;" horiz-adv-x="497" d="M-330 -213q0 48 38 84.5t89 36.5q43 0 70 -26t27 -62q0 -28 -17 -57.5t-47 -48.5q63 8 100 47.5t63 131.5l232 820q13 44 8 63.5t-28 19.5q-57 0 -104 -130l-32 -85h-31l45 126q59 170 229 170q190 0 126 -231l-127 -456q-48 -177 -106.5 -278t-141.5 -150 q-99 -73 -236 -73q-157 0 -157 98z" />
<glyph unicode="&#x300;" d="M-175 1339.5q7 35.5 38 54.5q35 19 74 6.5t60 -47.5q23 -37 49 -146.5t63 -205.5l-20 -12q-65 80 -145.5 160t-102.5 116q-23 39 -16 74.5z" />
<glyph unicode="&#x301;" d="M-213 1006q55 77 121.5 190.5t104.5 151.5q34 35 75 42t75 -24q29 -30 22 -66t-46 -75q-34 -35 -145.5 -105.5t-190.5 -130.5z" />
<glyph unicode="&#x302;" d="M-504 1031q120 52 224.5 138.5t170.5 184.5h30q23 -117 67.5 -192t128.5 -131l-6 -24q-176 38 -308 123q-137 -78 -298 -123z" />
<glyph unicode="&#x303;" d="M-477 1069q42 116 110.5 172.5t143.5 56.5q45 0 82 -19t57.5 -41t50 -41t61.5 -19q65 0 117 95l30 -8q-42 -116 -110 -172.5t-144 -56.5q-44 0 -81 19t-58 41t-50.5 41t-61.5 19q-65 0 -118 -96z" />
<glyph unicode="&#x304;" d="M-411 1135l10 41h555l-10 -41h-555z" />
<glyph unicode="&#x306;" d="M-413 1283l27 12q39 -59 86 -83.5t128 -24.5q187 0 335 114l19 -16q-63 -104 -172.5 -181.5t-215.5 -77.5q-87 0 -139 71t-68 186z" />
<glyph unicode="&#x307;" d="M-142 1125q0 70 48 112.5t122 42.5q58 0 90 -26.5t32 -74.5q0 -65 -49 -109t-122 -44q-58 0 -89.5 26t-31.5 73z" />
<glyph unicode="&#x308;" d="M-484 1116q0 63 42 101t100 38q52 0 79.5 -30t27.5 -79q0 -65 -42 -102t-101 -37q-53 0 -79.5 29.5t-26.5 79.5zM-109 1116q0 63 42 101t100 38q52 0 79.5 -30t27.5 -79q0 -65 -42.5 -102t-99.5 -37q-53 0 -80 29.5t-27 79.5z" />
<glyph unicode="&#x30a;" d="M-213 1136q0 76 58 128t142 52q70 0 116 -38.5t46 -101.5q0 -75 -62 -128.5t-143 -53.5q-68 0 -112.5 38.5t-44.5 103.5zM-168 1136q0 -50 35 -78.5t83 -28.5q61 0 108.5 42t47.5 103q0 51 -37.5 79.5t-86.5 28.5q-60 0 -105 -44.5t-45 -101.5z" />
<glyph unicode="&#x30b;" d="M-423 1001q38 78 75.5 179t60.5 133q26 34 65.5 39.5t71.5 -19.5q29 -25 31 -61t-26 -70q-20 -25 -55 -52t-93 -70t-112 -92zM-129 1001q40 80 76.5 180.5t59.5 131.5q27 34 67 39.5t70 -19.5q29 -25 31 -61t-26 -70q-24 -31 -109.5 -94t-148.5 -120z" />
<glyph unicode="&#x30c;" d="M-429 1331l6 23q177 -38 307 -122q139 77 299 122l9 -23q-119 -52 -224 -139t-171 -185h-30q-23 118 -67.5 193.5t-128.5 130.5z" />
<glyph unicode="&#x326;" d="M-454 -218q0 55 42 92.5t106 37.5q47 0 80 -26t33 -74q0 -83 -59 -139t-169 -71l-3 31q64 6 109 31.5t54 64.5q-38 -28 -94 -28q-99 0 -99 81z" />
<glyph unicode="&#x327;" d="M-603 -277l10 24q61 -18 101 -18q17 0 36.5 3t41.5 10.5t36.5 24t14.5 38.5q0 17 -12.5 27.5t-34.5 10.5q-28 0 -51 -11l114 168h46l-72 -114q53 17 89 17q44 0 71.5 -18.5t27.5 -51.5q0 -49 -42.5 -83t-101.5 -47.5t-127 -13.5q-90 0 -147 34z" />
<glyph unicode="&#x328;" d="M-550 -211q0 50 49.5 94.5t116.5 72.5t151 49h43q-74 -27 -123.5 -78t-49.5 -107q0 -48 48 -48q54 0 104 50l21 -20q-93 -113 -221 -113q-64 0 -101.5 27t-37.5 73z" />
<glyph unicode="&#x335;" d="M-529 1004l10 33h638l-10 -33h-638z" />
<glyph unicode="&#x337;" d="M-846 -121l154 215l17 -30l-146 -201zM-674 94l418 682l17 -28l-417 -684zM-244 768l155 221l25 -15l-164 -234z" />
<glyph unicode="&#x338;" d="M-1288 -97l243 251l21 -30l-236 -245zM-998 159l773 885l17 -33l-768 -882zM-203 1044l223 233l25 -22l-232 -244z" />
<glyph unicode="&#x394;" horiz-adv-x="924" d="M31 0l385 1192h27l318 -1192q-202 5 -363 5q-164 0 -367 -5zM81 50h431l-200 726z" />
<glyph unicode="&#x3a9;" horiz-adv-x="1402" d="M185 780q0 195 137 303.5t388 108.5t388 -108.5t137 -303.5q0 -103 -43 -202.5t-98 -169t-139 -177t-136 -193.5h88q118 0 184.5 67.5t92.5 228.5h38q-5 -52 -5 -119q0 -86 12 -215q-63 5 -215 5q-6 0 -236 -5v26q32 57 61.5 121.5t64.5 160.5t56 211t21 228 q0 205 -63 310.5t-208 105.5t-208 -105.5t-63 -310.5q0 -113 21 -228.5t55.5 -210.5t64.5 -160.5t62 -121.5v-26q-230 5 -237 5q-152 0 -215 -5q11 118 11 215q0 78 -4 119h37q26 -161 93 -228.5t185 -67.5h89q-52 86 -136 193.5t-139 177t-98 169t-43 202.5z" />
<glyph unicode="&#x3bc;" horiz-adv-x="1166" d="M-139 -231q0 11 2 21.5t7.5 21t10.5 18t16 18.5l17.5 17.5t22 18t24 17.5t28.5 20t29 21q263 187 292 524q15 96 25 244q7 79 58.5 123t123.5 44q47 0 73 -25.5t24 -78.5q-1 -38 -23 -73.5t-56 -68t-71 -66t-74.5 -80.5t-59.5 -99q-3 -32 -3.5 -55.5t8 -39t17.5 -25 t24.5 -15t28 -7t29.5 -1.5q183 0 298 176h3q27 181 38 268q9 96 56.5 143t118.5 47q54 0 79.5 -26t21.5 -73q-1 -37 -20 -68.5t-50.5 -58.5t-66 -55.5t-74 -73.5t-67.5 -99q-12 -61 -13 -75q-9 -51 14 -78t65 -27q124 0 212 170l29 -10q-16 -47 -30 -83.5t-37.5 -91 t-49 -94.5t-56.5 -78t-68 -58.5t-77 -20.5q-52 0 -76.5 34t-24.5 88q0 55 30 165q-157 -287 -316 -287q-63 0 -90 45t-27 113q-73 -241 -140 -341q-71 -105 -167 -105q-42 0 -65 22t-23 58z" />
<glyph unicode="&#x3c0;" horiz-adv-x="992" d="M-12 64q0 52 38 95t118 90q96 53 130 81q109 87 162 271q3 9 5 18h-58q-116 0 -184.5 -33t-130.5 -127l-27 10q38 93 79.5 159t98.5 117.5t132.5 76.5t172.5 25h475l-64 -228h-276l-73 -234q-21 -62 -2.5 -102t75.5 -40q122 0 221 170l30 -10q-18 -49 -37 -94.5 t-53.5 -109.5t-70 -110t-84 -79t-97.5 -33q-45 0 -71.5 20.5t-33 55.5t-2.5 72t16 80q24 80 82.5 234.5t66.5 179.5h-155q-89 -393 -223 -556q-69 -86 -162 -86q-45 0 -71.5 24.5t-26.5 62.5z" />
<glyph unicode="&#x401;" horiz-adv-x="1033" d="M-71 0l8 33q85 4 115.5 28.5t54.5 113.5l218 819q22 91 5 114.5t-102 27.5l8 33q180 -5 537 -5q234 0 335 5q-46 -128 -63 -195q-6 -24 -21 -102h-36q10 146 -29.5 202.5t-152.5 56.5h-51q-84 0 -114 -23.5t-53 -113.5l-104 -390h61q82 0 137.5 58t88.5 141h38 q-16 -46 -26.5 -82t-20.5 -77.5t-14 -55.5q-20 -75 -48 -215h-36q16 198 -137 198h-51l-106 -396q-13 -47 -15 -72.5t9.5 -41t33.5 -19.5t66 -4h61q132 0 208 63.5t149 228.5h38q-14 -36 -36 -119q-25 -86 -43 -211q-112 5 -375 5q-357 0 -537 -5zM401 1374q0 64 42 102.5 t100 38.5q52 0 80 -30.5t28 -80.5q0 -65 -42.5 -102t-101.5 -37q-52 0 -79 29.5t-27 79.5zM798 1374q0 64 42 102.5t100 38.5q52 0 79.5 -30.5t27.5 -80.5q0 -65 -42.5 -102t-101.5 -37q-53 0 -79 29.5t-26 79.5z" />
<glyph unicode="&#x402;" horiz-adv-x="1531" d="M145 966q0 46 25 89t83 71q80 40 221 40q104 0 295 -18t273 -18q100 0 155 23q-54 54 -54 129q0 60 35 97.5t95 37.5q58 0 92 -33.5t34 -86.5q0 -96 -109 -149q-97 -51 -259 -51q-41 0 -141 6l-139 -522q166 106 375 106q158 0 250 -68t92 -201q0 -118 -71 -220 t-189 -161.5t-253 -59.5q-98 0 -166.5 39.5t-68.5 120.5q0 71 54 121.5t128 50.5q47 0 73 -23.5t26 -67.5q0 -64 -49 -114t-118 -68q37 -24 94 -24q81 0 143.5 57.5t92.5 143t30 180.5q0 230 -206 230q-68 0 -134.5 -20.5t-110.5 -55.5l-150 -565q-85 23 -241 23 q-77 0 -182 -5l8 33q101 2 142 34.5t65 120.5l249 940q-88 8 -157 8q-134 0 -185 -28q45 -13 73 -48.5t28 -85.5q0 -58 -36.5 -98t-93.5 -40q-55 0 -86.5 37t-31.5 93z" />
<glyph unicode="&#x403;" horiz-adv-x="921" d="M-71 0l8 33q85 4 115.5 28.5t54.5 113.5l218 819q22 91 5 114.5t-102 27.5l8 33q148 -5 264 -5h273q207 0 296 5q-36 -98 -65 -201q-27 -99 -35 -145h-37q20 167 -19.5 237.5t-132.5 70.5h-43q-67 0 -97 -25.5t-52 -111.5l-218 -819q-13 -47 -14 -73t15.5 -41.5t44 -20.5 t83.5 -7l-7 -33q-113 5 -294 5q-172 0 -269 -5zM603 1295q66 52 129.5 111t105 96.5t79.5 58.5q33 22 81 17.5t69 -44.5q18 -36 -1.5 -69.5t-64.5 -57.5q-43 -24 -169 -60t-218 -72z" />
<glyph unicode="&#x404;" horiz-adv-x="1154" d="M71 386q0 96 27 193.5t75.5 187t120.5 167.5t157.5 135t191 90t217.5 33q93 0 147 -28t100 -79q34 -40 71 38l19 46h35q-55 -144 -106 -380h-36q29 179 -15 256q-58 108 -195 108q-114 0 -220.5 -88t-180 -231.5t-101.5 -311.5q114 226 255 226q43 0 85 -19.5t69.5 -43 t67.5 -43t81 -19.5q74 0 139 79l22 -15q-76 -125 -145 -187t-146 -62q-45 0 -88.5 19.5t-73 43t-72 43t-85.5 19.5q-33 0 -60 -18.5t-55 -67.5q-7 -57 -7 -124q0 -164 58.5 -245.5t164.5 -81.5q63 0 131 28.5t117 80.5q43 46 75 103t73 158h37q-78 -283 -98 -396h-36 q5 38 5 56q0 66 -55 28q-156 -107 -323 -107q-221 0 -332 105t-111 304z" />
<glyph unicode="&#x405;" horiz-adv-x="969" d="M-46 -12q53 125 112 397h33q-18 -69 -15 -131q11 -241 269 -241q214 0 214 174q0 77 -36.5 149t-88 129.5t-103 115.5t-88 130.5t-36.5 150.5q0 81 37 146t97 104t130 59.5t142 20.5q141 0 261 -72q44 -27 54 -27q25 0 55 88h33q-63 -159 -97 -337h-33q9 40 9 92 q0 99 -61 158t-175 59q-90 0 -145 -44t-55 -136q0 -55 29 -112.5t72 -105t93.5 -102.5t93.5 -105t72 -114t29 -127q0 -68 -29.5 -124.5t-76.5 -94t-107.5 -63t-122 -37t-120.5 -11.5q-107 0 -165 18.5t-121 57.5q-37 25 -58 25t-33.5 -17.5t-35.5 -72.5h-33z" />
<glyph unicode="&#x406;" horiz-adv-x="644" d="M-68 0l9 33q82 4 112.5 28.5t53.5 113.5l218 819q22 91 5 114.5t-102 27.5l8 33q92 -5 259 -5q153 0 271 5l-8 -33q-87 -4 -117 -28.5t-53 -113.5l-218 -819q-12 -48 -14 -73t9.5 -41t34 -21t67.5 -7l-6 -33q-107 5 -269 5q-163 0 -260 -5z" />
<glyph unicode="&#x407;" horiz-adv-x="644" d="M-68 0l9 33q82 4 112.5 28.5t53.5 113.5l218 819q22 91 5 114.5t-102 27.5l8 33q92 -5 259 -5q153 0 271 5l-8 -33q-87 -4 -117 -28.5t-53 -113.5l-218 -819q-12 -48 -14 -73t9.5 -41t34 -21t67.5 -7l-6 -33q-107 5 -269 5q-163 0 -260 -5zM238 1374q0 64 42 102.5 t100 38.5q52 0 79.5 -30.5t27.5 -80.5q0 -65 -42 -102t-101 -37q-52 0 -79 29.5t-27 79.5zM634 1374q0 64 42 102.5t100 38.5q52 0 80 -30.5t28 -80.5q0 -65 -42.5 -102t-101.5 -37q-53 0 -79.5 29.5t-26.5 79.5z" />
<glyph unicode="&#x408;" horiz-adv-x="1128" d="M45 -187q0 54 37 90t101 36q56 0 92 -26t37 -73q0 -76 -91 -117q15 -5 47 -5q86 0 138 101q34 65 86 261q1 3 3 11q5 16 7 25l89 317q16 62 48 138h-224l5 33h234q71 149 182.5 254t293.5 224q-61 -21 -140.5 -61t-143 -62.5t-136.5 -22.5t-185 41.5t-168 41.5 q-47 0 -74 -24t-27 -70q3 -110 187 -127l-5 -32q-129 10 -208 69.5t-80 165.5q-2 100 59 160t176 60q59 0 112 -17t95 -41.5t84 -49.5t96 -42t113 -17q142 0 279 64q81 126 126 88q11 -13 8.5 -28t-33 -36t-86.5 -42q-97 -77 -165 -201t-119 -295h164l-5 -33h-169 q-3 -11 -8.5 -32t-9.5 -32l-102 -400q-23 -89 -61 -161.5t-95.5 -131.5t-142.5 -92t-190 -33t-168 30t-63 94z" />
<glyph unicode="&#x409;" horiz-adv-x="1628" d="M-104 122q2 62 43.5 104t106.5 42q54 0 84.5 -28t28.5 -73q0 -53 -35 -94.5t-89 -57.5q20 -5 26 -5q65 3 114 45q96 87 203 329t208 610q22 91 5 114.5t-102 27.5l8 33q58 -5 154 -5q9 0 48 2.5t79 2.5q67 0 151.5 -2.5t111.5 -2.5q152 0 262 5l-8 -33q-87 -4 -117 -28.5 t-53 -113.5l-101 -373h79q166 0 267 -29t142.5 -81t41.5 -133q0 -116 -75 -203t-197 -131t-270 -44q-26 0 -119 2.5t-170 2.5q-158 0 -256 -5l7 33q86 4 116.5 28.5t53.5 113.5l218 819q18 58 11 89.5t-26.5 42t-61.5 10.5h-24q-63 0 -91 -27.5t-51 -114.5 q-89 -328 -196.5 -590.5t-222.5 -368.5q-65 -58 -149 -58q-74 0 -115.5 41t-39.5 104zM893 95.5q0 -20.5 7.5 -31.5t25 -18.5t45.5 -7.5q145 0 227 105t82 263q0 96 -50 141.5t-176 45.5h-37l-110 -418q-7 -27 -10.5 -43t-3.5 -36.5z" />
<glyph unicode="&#x40a;" horiz-adv-x="1772" d="M-68 0l9 33q82 4 112.5 28.5t53.5 113.5l218 819q22 91 5 114.5t-102 27.5l8 33q92 -5 259 -5q153 0 271 5l-8 -33q-87 -4 -117 -28.5t-53 -113.5l-104 -390h431l104 390q22 91 5 114.5t-102 27.5l8 33q92 -5 258 -5q154 0 272 5l-8 -33q-87 -4 -117 -28.5t-53 -113.5 l-104 -390h125q393 0 393 -229q0 -89 -47.5 -161t-127.5 -118t-182.5 -71t-215.5 -25q-20 0 -97.5 2.5t-141.5 2.5q-158 0 -260 -5l9 33q85 4 115 28.5t53 113.5l106 396h-431l-106 -396q-12 -48 -14 -73t9.5 -41t34 -21t67.5 -7l-6 -33q-105 5 -269 5q-163 0 -260 -5z M1052.5 119.5q-2.5 -21.5 0.5 -42.5t20 -31t47 -10q133 0 217.5 110t84.5 269q0 82 -41 119t-139 37h-73l-105 -396q-9 -34 -11.5 -55.5z" />
<glyph unicode="&#x40b;" horiz-adv-x="1476" d="M145 966q0 46 25 89t83 71q80 40 221 40q104 0 295.5 -18t274.5 -18q98 0 153 23q-54 54 -54 129q0 60 35 97.5t95 37.5q58 0 92 -33.5t34 -86.5q0 -93 -102 -146q-94 -54 -263 -54q-44 0 -144 6l-132 -494q146 68 316 68q164 0 241 -77q44 -44 50 -107t-17 -145 l-48 -194q-15 -72 -1 -94.5t64 -24.5l-9 -35q-150 7 -234 7q-76 0 -233 -7l8 35q64 0 94.5 26t47.5 93l60 223q21 79 20 134t-40 84t-119 29q-126 0 -207 -43l-104 -389q-24 -92 1 -123t123 -36l-6 -33q-115 5 -304 5q-188 0 -293 -5l7 33q103 4 145 36t65 123l249 936 q-88 8 -153 8q-138 0 -189 -28q45 -13 73 -48.5t28 -85.5q0 -58 -36.5 -98t-93.5 -40q-55 0 -86.5 37t-31.5 93z" />
<glyph unicode="&#x40c;" horiz-adv-x="1222" d="M-68 0l9 33q82 4 112.5 28.5t53.5 113.5l218 819q22 91 5 114.5t-102 27.5l8 33q93 -5 269 -5q148 0 261 5l-8 -33q-87 -4 -117 -28.5t-53 -113.5l-218 -819q-12 -48 -14 -73t9.5 -41t34 -21t67.5 -7l-6 -33q-102 5 -260 5q-171 0 -269 -5zM522 596q-1 6 0 13q4 28 33 33 t111 -16q61 8 105.5 42t68.5 80t45 103.5t34.5 110.5t36 103.5t51.5 79.5q47 47 118 47q72 0 114.5 -41.5t40.5 -108.5q0 -61 -40.5 -110.5t-109.5 -49.5q-47 0 -78.5 30.5t-30.5 80.5q0 48 33.5 93.5t88.5 69.5q-12 5 -27 5q-51 0 -84 -36q-29 -31 -53 -93t-43 -124.5 t-44.5 -125t-70 -108.5t-106.5 -60q144 -16 195 -78.5t36 -203.5l-18 -173q-5 -62 41 -62q31 0 53 24.5t40 75.5l28 84h33l-43 -127q-30 -90 -88 -133.5t-133 -43.5q-105 0 -153.5 56t-34.5 152l31 231q9 80 0.5 117t-38.5 60q-134 -35 -142 3zM733 1295q66 52 129.5 111 t105 96.5t79.5 58.5q33 22 81 17.5t69 -44.5q18 -36 -1.5 -69.5t-64.5 -57.5q-43 -24 -169 -60t-217 -72z" />
<glyph unicode="&#x40d;" horiz-adv-x="1372" d="M-69 0l8 33q83 4 113.5 28.5t54.5 113.5l218 819q22 91 5 114.5t-102 27.5l8 33q97 -5 271 -5q149 0 259 5l-8 -33q-87 -4 -117 -28.5t-53 -113.5l-205 -764l677 786q18 74 -1.5 95t-100.5 25l8 33q98 -5 258 -5q174 0 272 5l-8 -33q-87 -4 -117 -28.5t-53 -113.5 l-220 -819q-22 -91 -4.5 -114.5t102.5 -27.5l-8 -33q-97 5 -271 5q-158 0 -260 -5l9 33q86 4 116.5 28.5t53.5 113.5l205 765l-676 -783q-19 -76 0 -98t101 -26l-7 -33q-102 5 -259 5q-171 0 -269 -5zM575.5 1457.5q-12.5 34.5 5.5 70.5q20 35 64 39t73 -18q29 -17 56.5 -51 t73.5 -92.5t102 -113.5l-14 -19q-85 40 -183.5 74t-131.5 55t-45.5 55.5z" />
<glyph unicode="&#x40e;" horiz-adv-x="1091" d="M99 116q0 61 42.5 101.5t104.5 40.5q52 0 84 -26.5t33 -72.5q0 -55 -35.5 -93t-92.5 -51q19 -8 56 -8q77 0 130.5 41t113.5 132l-277 834q-19 58 -46 84.5t-65 37.5l8 33q93 -5 246 -5q126 0 223 5l-8 -33q-84 -5 -100.5 -29t9.5 -108l182 -558l348 530q53 86 31 123 t-121 42l8 33q52 -5 201 -5q63 0 118 5l-9 -33q-50 -12 -92 -46.5t-94 -113.5l-504 -768q-38 -60 -63 -94t-61.5 -70t-79 -51.5t-95.5 -15.5q-90 0 -141.5 37.5t-53.5 101.5zM439 1402q0 55 42 92t105 37q123 0 123 -99q0 -42 -32 -77t-81 -49q45 -26 154 -26 q130 1 242.5 58t196.5 157l23 -18q-93 -117 -217.5 -174.5t-254.5 -57.5q-131 0 -216 40.5t-85 116.5z" />
<glyph unicode="&#x40f;" horiz-adv-x="1337" d="M-71 0l8 33q87 4 117 28.5t53 113.5l218 819q12 48 14 73t-9.5 41t-34 21t-67.5 7l7 33q97 -5 270 -5q158 0 260 5l-7 -33q-86 -4 -116.5 -28.5t-53.5 -113.5l-218 -819q-24 -91 -5.5 -116.5t102.5 -25.5h167q83 0 113.5 26t53.5 116l218 819q12 48 14 73t-9.5 41t-34 21 t-67.5 7l6 33q102 -5 260 -5q171 0 269 5l-9 -33q-82 -4 -112.5 -28.5t-53.5 -113.5l-218 -819q-22 -91 -5 -114.5t102 -27.5l-8 -33q-93 5 -269 5h-60h-1q-2 0 -7 -1t-8 -1q-110 -4 -193 -72.5t-143 -219.5h-38q29 156 -20 225t-163 69h2h-52q-174 0 -272 -5z" />
<glyph unicode="&#x410;" horiz-adv-x="1078" d="M-152 0l7 33q43 11 83.5 49t102.5 126l689 970q44 -5 84 0l66 -1039q5 -54 28.5 -79t52.5 -27l-6 -33q-93 5 -240 5q-160 0 -248 -5l7 33q84 4 115.5 31.5t26.5 107.5l-13 271h-359l-145 -207q-49 -70 -51.5 -115t33 -64.5t104.5 -23.5l-8 -33q-153 5 -215 5 q-56 0 -114 -5zM269 476h332l-25 436z" />
<glyph unicode="&#x411;" horiz-adv-x="1103" d="M-69 0l6 33q86 4 116.5 28.5t53.5 113.5l218 819q22 91 5 114.5t-102 27.5l8 33q143 -5 256 -5h278q238 0 342 5q-35 -90 -63 -195q-26 -102 -32 -132h-36q18 157 -26 223t-147 66h-63q-78 0 -107.5 -24t-49.5 -113l-99 -373h78q166 0 267 -29t142 -81t41 -133 q0 -116 -74.5 -203t-196 -131t-270.5 -44q-25 0 -118.5 2.5t-170.5 2.5q-158 0 -256 -5zM356.5 95.5q0.5 -19.5 8.5 -31t25.5 -19t45.5 -7.5q145 0 226 105t81 263q0 96 -49.5 141.5t-176.5 45.5h-36l-111 -418q-7 -26 -10.5 -43t-3 -36.5z" />
<glyph unicode="&#x412;" horiz-adv-x="1121" d="M-69 0l6 33q86 4 116.5 28.5t53.5 113.5l218 819q13 49 14 80t-24 46t-87 16l8 33q97 -5 251 -5q55 0 131 2t110 2q186 0 275 -57.5t89 -160.5q0 -130 -123 -223.5t-322 -112.5q180 -9 276 -79t96 -178q0 -114 -71 -195.5t-192.5 -121.5t-279.5 -40q-26 0 -119 2.5 t-170 2.5q-158 0 -256 -5zM356.5 95.5q0.5 -19.5 8.5 -31t25.5 -19t45.5 -7.5q145 0 226 99t81 249q0 95 -45.5 151t-144.5 56h-72l-111 -418q-7 -26 -10.5 -43t-3 -36.5zM487 621h58q89 0 155.5 52t99 131.5t32.5 171.5q0 78 -29 119t-98 41q-49 0 -71 -23t-41 -94z" />
<glyph unicode="&#x413;" horiz-adv-x="921" d="M-71 0l8 33q85 4 115.5 28.5t54.5 113.5l218 819q22 91 5 114.5t-102 27.5l8 33q148 -5 264 -5h273q207 0 296 5q-36 -98 -65 -201q-27 -99 -35 -145h-37q20 167 -19.5 237.5t-132.5 70.5h-43q-67 0 -97 -25.5t-52 -111.5l-218 -819q-13 -47 -14 -73t15.5 -41.5t44 -20.5 t83.5 -7l-7 -33q-113 5 -294 5q-172 0 -269 -5z" />
<glyph unicode="&#x414;" horiz-adv-x="1083" d="M-254 -314q29 76 38 103q47 138 67 244h109q63 0 114 45q97 86 202.5 321.5t202.5 594.5q13 47 15 73t-10 41.5t-34.5 20.5t-67.5 7l8 33q58 -5 153 -5q10 0 49.5 2.5t78.5 2.5q68 0 152.5 -2.5t111.5 -2.5q154 0 261 5l-8 -33q-87 -4 -117.5 -28.5t-53.5 -113.5 l-218 -819q-22 -91 -4.5 -115.5t102.5 -26.5h51q-34 -92 -73 -244q-4 -20 -11 -54t-10 -49h-36q21 175 -35.5 246t-202.5 71q-17 0 -101.5 -1.5t-172.5 -1.5h-100q-109 0 -181 -26t-131 -94.5t-112 -193.5h-36zM69 33h304q80 0 110.5 26.5t53.5 115.5l218 819q19 58 12 89.5 t-27.5 42t-62.5 10.5h-23q-63 0 -91 -27.5t-51 -114.5q-53 -202 -112.5 -374.5t-139.5 -331.5t-159 -230q-9 -9 -32 -25z" />
<glyph unicode="&#x415;" horiz-adv-x="1033" d="M-71 0l8 33q85 4 115.5 28.5t54.5 113.5l218 819q22 91 5 114.5t-102 27.5l8 33q180 -5 537 -5q234 0 335 5q-46 -128 -63 -195q-6 -24 -21 -102h-36q10 146 -29.5 202.5t-152.5 56.5h-51q-84 0 -114 -23.5t-53 -113.5l-104 -390h61q82 0 137.5 58t88.5 141h38 q-16 -46 -26.5 -82t-20.5 -77.5t-14 -55.5q-20 -75 -48 -215h-36q16 198 -137 198h-51l-106 -396q-13 -47 -15 -72.5t9.5 -41t33.5 -19.5t66 -4h61q132 0 208 63.5t149 228.5h38q-14 -36 -36 -119q-25 -86 -43 -211q-112 5 -375 5q-357 0 -537 -5z" />
<glyph unicode="&#x416;" horiz-adv-x="1696" d="M-74 142l26 13q28 -58 79 -58q47 0 76 62l76 173q61 142 145.5 204t239.5 78q-86 22 -86 133q0 50 25.5 170.5t21.5 164.5q-10 79 -75 79q-17 0 -25 -2q48 -39 48 -110q0 -74 -51.5 -120.5t-114.5 -46.5q-47 0 -73.5 28t-26.5 73q0 83 73 146t165 63q47 0 77 -23.5 t36 -70.5q7 -50 -20 -173.5t-27 -174.5q0 -53 23.5 -84.5t84.5 -39.5q33 11 54 12.5t28.5 -6.5t3.5 -23q-5 -33 -43 -33q-21 0 -60 15q-42 -23 -71 -61t-61 -114l-96 -231q-46 -112 -101 -160t-148 -48q-82 0 -129.5 38t-73.5 127zM456 0l8 33q83 4 113.5 29t53.5 113 l216 819q13 48 14 78t-23.5 45t-86.5 19l9 33q93 -5 262 -5q155 0 268 5l-8 -33q-87 -4 -117 -28.5t-53 -113.5l-217 -819q-7 -26 -10 -39t-5 -31t1 -26t9.5 -18t20 -14.5t33 -8t47.5 -5.5l-7 -33q-102 5 -266 5t-262 -5zM1042 609q7 32 43 32q13 0 56 -15q67 10 114 54 t72.5 106t44 125.5t43 127.5t55.5 97q51 56 132 56q69 0 111 -41t41 -107q0 -61 -40 -111.5t-107 -50.5q-49 0 -81 29.5t-31 79.5q0 51 36 98t93 69q-12 3 -33 3q-64 0 -100 -51q-26 -34 -48 -96t-39.5 -122.5t-42.5 -119.5t-69 -102t-106 -56q28 -3 50.5 -7t46 -10.5 t40.5 -14.5t34.5 -20t28 -27.5t21 -35.5t13.5 -44.5t4.5 -55t-4.5 -67.5l-18 -173q-5 -62 42 -62q31 0 52.5 24.5t39.5 75.5l28 84h33l-43 -127q-59 -177 -228 -177q-98 0 -146.5 56.5t-34.5 151.5l31 231q11 53 4 98.5t-42 76.5q-34 -13 -64 -13q-18 0 -26 8t-6 23z" />
<glyph unicode="&#x417;" horiz-adv-x="979" d="M-23 178q0 62 43 113t114 51q51 0 81.5 -27.5t30.5 -79.5q0 -61 -41.5 -112t-102.5 -64q15 -18 61 -32t106 -14q146 0 245.5 91.5t99.5 240.5q0 93 -49.5 170t-135.5 89q-57 -26 -84 -23q-14 2 -20.5 7.5t-5.5 17.5q2 26 40.5 28.5t60.5 -8.5q118 25 208 125.5t90 217.5 q0 144 -153 144q-67 0 -120.5 -25t-92.5 -73t-66 -100.5t-53 -125.5h-36q73 235 95 380h35q-2 -12 -3 -23.5t-1.5 -26t2 -24t8 -17t16.5 -6.5t26 11q62 40 96.5 58.5t93 34.5t125.5 16q134 0 216 -52.5t82 -148.5q0 -74 -52.5 -140.5t-135.5 -111.5t-169 -75t-170 -45 q83 1 156 -13.5t134 -45.5t96 -85t35 -127q0 -81 -48.5 -151.5t-128 -118t-179.5 -74.5t-204 -27q-179 0 -271 69q-74 56 -74 132z" />
<glyph unicode="&#x418;" horiz-adv-x="1372" d="M-69 0l8 33q83 4 113.5 28.5t54.5 113.5l218 819q22 91 5 114.5t-102 27.5l8 33q97 -5 271 -5q149 0 259 5l-8 -33q-87 -4 -117 -28.5t-53 -113.5l-205 -764l677 786q18 74 -1.5 95t-100.5 25l8 33q98 -5 258 -5q174 0 272 5l-8 -33q-87 -4 -117 -28.5t-53 -113.5 l-220 -819q-22 -91 -4.5 -114.5t102.5 -27.5l-8 -33q-97 5 -271 5q-158 0 -260 -5l9 33q86 4 116.5 28.5t53.5 113.5l205 765l-676 -783q-19 -76 0 -98t101 -26l-7 -33q-102 5 -259 5q-171 0 -269 -5z" />
<glyph unicode="&#x419;" horiz-adv-x="1372" d="M-69 0l8 33q83 4 113.5 28.5t54.5 113.5l218 819q22 91 5 114.5t-102 27.5l8 33q97 -5 271 -5q149 0 259 5l-8 -33q-87 -4 -117 -28.5t-53 -113.5l-205 -764l677 786q18 74 -1.5 95t-100.5 25l8 33q98 -5 258 -5q174 0 272 5l-8 -33q-87 -4 -117 -28.5t-53 -113.5 l-220 -819q-22 -91 -4.5 -114.5t102.5 -27.5l-8 -33q-97 5 -271 5q-158 0 -260 -5l9 33q86 4 116.5 28.5t53.5 113.5l205 765l-676 -783q-19 -76 0 -98t101 -26l-7 -33q-102 5 -259 5q-171 0 -269 -5zM548 1402q0 55 42 92t105 37q123 0 123 -99q0 -42 -32 -77t-81 -49 q45 -26 154 -26q130 1 242.5 58t196.5 157l23 -18q-93 -117 -217.5 -174.5t-254.5 -57.5q-131 0 -216 40.5t-85 116.5z" />
<glyph unicode="&#x41a;" horiz-adv-x="1222" d="M-68 0l9 33q82 4 112.5 28.5t53.5 113.5l218 819q22 91 5 114.5t-102 27.5l8 33q93 -5 269 -5q148 0 261 5l-8 -33q-87 -4 -117 -28.5t-53 -113.5l-218 -819q-12 -48 -14 -73t9.5 -41t34 -21t67.5 -7l-6 -33q-102 5 -260 5q-171 0 -269 -5zM522 596q-1 6 0 13q4 28 33 33 t111 -16q61 8 105.5 42t68.5 80t45 103.5t34.5 110.5t36 103.5t51.5 79.5q47 47 118 47q72 0 114.5 -41.5t40.5 -108.5q0 -61 -40.5 -110.5t-109.5 -49.5q-47 0 -78.5 30.5t-30.5 80.5q0 48 33.5 93.5t88.5 69.5q-12 5 -27 5q-51 0 -84 -36q-29 -31 -53 -93t-43 -124.5 t-44.5 -125t-70 -108.5t-106.5 -60q144 -16 195 -78.5t36 -203.5l-18 -173q-5 -62 41 -62q31 0 53 24.5t40 75.5l28 84h33l-43 -127q-30 -90 -88 -133.5t-133 -43.5q-105 0 -153.5 56t-34.5 152l31 231q9 80 0.5 117t-38.5 60q-134 -35 -142 3z" />
<glyph unicode="&#x41b;" horiz-adv-x="1180" d="M-104 122q2 62 43.5 104t106.5 42q54 0 84.5 -28t28.5 -73q0 -53 -35 -94.5t-89 -57.5q20 -5 28 -5q63 3 112 45q96 87 203 329t208 610q22 91 5 114.5t-102 27.5l8 33q58 -5 154 -5q9 0 48 2.5t79 2.5q67 0 151.5 -2.5t111.5 -2.5q152 0 262 5l-8 -33q-87 -4 -117 -28.5 t-53 -113.5l-218 -819q-12 -48 -14 -73t9.5 -41t34 -21t67.5 -7l-6 -33q-102 5 -271 5q-162 0 -260 -5l9 33q84 4 114.5 28.5t53.5 113.5l218 819q18 58 11 89.5t-26.5 42t-61.5 10.5h-24q-63 0 -91 -27.5t-51 -114.5q-89 -328 -196.5 -590.5t-222.5 -368.5 q-65 -58 -149 -58q-74 0 -115.5 41t-39.5 104z" />
<glyph unicode="&#x41c;" horiz-adv-x="1514" d="M-69 0l8 33q80 4 118 48t60 132l210 781q22 91 5 114.5t-102 27.5l8 33q83 -5 226 -5q81 0 149 5l94 -844l535 839h129q148 0 266 5l-9 -33q-87 -4 -117 -28.5t-53 -113.5l-218 -819q-22 -91 -4.5 -114.5t102.5 -27.5l-7 -33q-115 5 -264 5q-171 0 -264 -5l6 33 q87 4 117 28.5t53 113.5l240 890l-686 -1073h-36l-134 1014l-208 -793q-13 -54 -13 -93t33 -62t104 -25l-6 -33q-67 5 -185 5q-94 0 -157 -5z" />
<glyph unicode="&#x41d;" horiz-adv-x="1337" d="M-68 0l9 33q82 4 112.5 28.5t53.5 113.5l218 819q22 91 5 114.5t-102 27.5l8 33q93 -5 269 -5q148 0 261 5l-8 -33q-87 -4 -117 -28.5t-53 -113.5l-104 -390h431l104 390q13 47 15 73t-10 41.5t-34.5 20.5t-67.5 7l8 33q98 -5 258 -5q170 0 272 5l-8 -33 q-87 -4 -117 -28.5t-53 -113.5l-218 -819q-12 -48 -14 -73t9.5 -41t34 -21t67.5 -7l-7 -33q-98 5 -270 5q-158 0 -260 -5l7 33q86 4 116.5 28.5t53.5 113.5l104 396h-431l-104 -396q-12 -48 -14 -73t9.5 -41t34 -21t67.5 -7l-6 -33q-102 5 -260 5q-171 0 -269 -5z" />
<glyph unicode="&#x41e;" horiz-adv-x="1283" d="M69 373q0 110 34 225t100 221t155 189.5t209 133.5t251 50q212 0 330.5 -104t118.5 -294q0 -109 -34 -224t-100.5 -220.5t-156 -189t-209 -133.5t-250.5 -50q-212 0 -330 103.5t-118 292.5zM353 352q0 -159 50 -252t129 -93q112 0 217 119t168.5 307.5t63.5 384.5 q0 159 -49.5 252t-128.5 93q-112 0 -217.5 -119t-169 -307.5t-63.5 -384.5z" />
<glyph unicode="&#x41f;" horiz-adv-x="1337" d="M-68 0l9 33q82 4 112.5 28.5t53.5 113.5l218 819q22 91 5 114.5t-102 27.5l8 33q93 -5 269 -5q32 0 139.5 2.5t204.5 2.5q91 0 198 -2.5t141 -2.5q174 0 272 5l-8 -33q-87 -4 -117 -28.5t-53 -113.5l-218 -819q-12 -48 -14 -73t9.5 -41t34 -21t67.5 -7l-7 -33 q-97 5 -270 5q-158 0 -260 -5l7 33q86 4 116.5 28.5t53.5 113.5l218 819q24 91 5.5 116.5t-102.5 25.5h-167q-83 0 -113.5 -26t-53.5 -116l-218 -819q-12 -48 -14 -73t9.5 -41t34 -21t67.5 -7l-6 -33q-102 5 -260 5q-171 0 -269 -5z" />
<glyph unicode="&#x420;" horiz-adv-x="1061" d="M-69 0l6 33q86 4 116.5 28.5t53.5 113.5l218 819q11 50 11.5 80.5t-23.5 45t-85 16.5l8 33q93 -5 263 -5q39 0 119 2t122 2q388 0 388 -250q0 -129 -85 -231t-241 -160t-356 -58l-78 -294q-13 -48 -12 -78.5t26.5 -46t83.5 -17.5l-7 -33q-110 5 -254 5q-177 0 -274 -5z M456 502h6q84 0 152 27t111.5 71t72.5 104t41.5 122.5t12.5 129.5q0 90 -38 135t-122 45q-48 0 -65 -25t-41 -117z" />
<glyph unicode="&#x421;" horiz-adv-x="1144" d="M71 386q0 96 27 193.5t75.5 187t120.5 167.5t157.5 135t191 90t217.5 33q93 0 147 -28t100 -79q34 -40 71 38l19 46h35q-55 -144 -106 -380h-36q29 179 -15 256q-58 108 -195 108q-133 0 -253 -117t-191 -302t-71 -381q0 -164 58.5 -245.5t164.5 -81.5q63 0 131 28.5 t117 80.5q43 46 75 103t73 158h37q-78 -283 -98 -396h-36q5 38 5 56q0 66 -55 28q-156 -107 -323 -107q-221 0 -332 105t-111 304z" />
<glyph unicode="&#x422;" horiz-adv-x="1124" d="M142 966q0 108 107 160q82 40 222 40q105 0 296 -18t275 -18q111 0 175 21q-58 54 -58 131q0 60 36 97.5t95 37.5q58 0 92.5 -34.5t34.5 -81.5q0 -100 -114 -156q-102 -48 -276 -48q-45 0 -97 3l-241 -908q-23 -91 1 -122.5t123 -36.5l-7 -33q-115 5 -306 5 q-185 0 -290 -5l6 33q103 4 144 35.5t66 123.5l250 933q-112 11 -199 11q-135 0 -186 -28q44 -13 71.5 -49t27.5 -85q0 -58 -36.5 -98t-92.5 -40q-55 0 -87 37.5t-32 92.5z" />
<glyph unicode="&#x423;" horiz-adv-x="1091" d="M99 116q0 61 42.5 101.5t104.5 40.5q52 0 84 -26.5t33 -72.5q0 -55 -35.5 -93t-92.5 -51q19 -8 56 -8q77 0 130.5 41t113.5 132l-277 834q-19 58 -46 84.5t-65 37.5l8 33q93 -5 246 -5q126 0 223 5l-8 -33q-84 -5 -100.5 -29t9.5 -108l182 -558l348 530q53 86 31 123 t-121 42l8 33q52 -5 201 -5q63 0 118 5l-9 -33q-50 -12 -92 -46.5t-94 -113.5l-504 -768q-38 -60 -63 -94t-61.5 -70t-79 -51.5t-95.5 -15.5q-90 0 -141.5 37.5t-53.5 101.5z" />
<glyph unicode="&#x424;" horiz-adv-x="1610" d="M38 431q0 73 36.5 144t110.5 134t176.5 111t245 76t305.5 29q60 61 135.5 114.5t186.5 118.5q-51 -17 -152 -59t-169.5 -62t-132.5 -20q-56 0 -105.5 16t-79 35.5t-64 35.5t-64.5 16q-31 0 -49 -15.5t-18 -42.5q0 -44 69 -79l-20 -28q-125 48 -125 163q0 77 58 125.5 t155 48.5q60 0 126 -22t116.5 -48.5t122 -48.5t140.5 -22q94 0 217 38q81 125 125 88q11 -13 8.5 -28t-33 -36t-86.5 -42q-118 -93 -194 -253q248 -21 383 -107.5t135 -224.5q0 -85 -51 -167t-144.5 -150t-240.5 -114.5t-324 -58.5q-111 -407 -490 -407q-100 0 -163.5 30.5 t-64.5 97.5q0 52 38 87t102 35q56 0 91.5 -26t35.5 -73q3 -77 -90 -117q17 -5 46 -5q87 0 141 104q32 65 85 258q4 14 5 17q-257 20 -396 106.5t-139 227.5zM304 416q0 -239 277 -284l109 395q62 221 192 368q-282 -6 -430 -135t-148 -344zM846 129q238 26 361.5 150.5 t123.5 321.5q0 235 -269 283q-53 -125 -93 -283z" />
<glyph unicode="&#x425;" horiz-adv-x="1223" d="M-66 130q2 68 42.5 112.5t104.5 44.5q51 0 79.5 -30t26.5 -80q-1 -55 -35 -99t-89 -63q7 -7 28 -7q51 0 109 38q71 48 160.5 160.5t171.5 272.5l-60 489q-13 115 -92 115q-74 0 -112 -110l-29 -84h-33l43 127q62 176 242 176q119 0 174.5 -65.5t71.5 -191.5l23 -205 q61 128 134 237.5t138 165.5q74 59 151 59q70 0 109.5 -43.5t37.5 -109.5q-2 -67 -43 -112t-104 -45q-51 0 -79.5 30.5t-28.5 80.5q1 54 36 98t90 63q-10 7 -28 7q-58 0 -108 -38q-64 -49 -144 -165.5t-155 -281.5l57 -470q17 -112 94 -112q40 0 66.5 24t45.5 79l28 84h33 l-43 -127q-34 -93 -90.5 -135t-138.5 -42q-66 0 -114 19t-76.5 55.5t-43.5 80.5t-22 103l-24 191q-63 -121 -146 -228t-159 -165q-74 -56 -154 -56q-70 0 -108.5 43.5t-36.5 109.5z" />
<glyph unicode="&#x426;" horiz-adv-x="1346" d="M-71 0l8 33q87 4 117 28.5t53 113.5l218 819q12 48 14 73t-9.5 41t-34 21t-67.5 7l7 33q97 -5 270 -5q158 0 260 5l-7 -33q-86 -4 -116.5 -28.5t-53.5 -113.5l-218 -819q-24 -91 -5.5 -116.5t102.5 -25.5h167q83 0 113.5 26t53.5 116l218 819q12 48 14 73t-9.5 41t-34 21 t-67.5 7l6 33q102 -5 260 -5q171 0 269 5l-9 -33q-82 -4 -112.5 -28.5t-53.5 -113.5l-218 -819q-23 -91 -5 -116.5t102 -25.5h51q-29 -75 -72 -244q-18 -80 -22 -103h-36q21 175 -36 246t-202 71q-25 0 -121.5 -1.5t-182.5 -1.5q-90 0 -198 2.5t-141 2.5q-174 0 -272 -5z " />
<glyph unicode="&#x427;" horiz-adv-x="1220" d="M167.5 616.5q-6.5 62.5 17.5 144.5l63 255q16 72 2 94.5t-65 24.5l8 34q135 -6 235 -6q98 0 233 6l-9 -34q-63 0 -93 -26t-49 -93l-74 -283q-22 -79 -20.5 -134t40.5 -84t119 -29q119 0 203 41l125 467q13 47 15.5 72.5t-9.5 41.5t-34 21t-67 7l8 33q93 -5 261 -5 q164 0 269 5l-8 -33q-87 -4 -117.5 -28.5t-54.5 -113.5l-220 -819q-10 -38 -13 -61t0 -39.5t18 -24.5t35 -11.5t56 -5.5l-8 -33q-97 5 -271 5q-179 0 -292 -5l8 33q107 4 144 28.5t61 113.5l86 324q-142 -66 -311 -66q-164 0 -241 77q-44 44 -50.5 106.5z" />
<glyph unicode="&#x428;" horiz-adv-x="1853" d="M-71 0l8 33q85 4 115.5 28.5t54.5 113.5l218 819q12 48 14 73t-9.5 41t-34 21t-67.5 7l8 33q97 -5 266 -5q151 0 248 5l-8 -33q-76 -4 -103.5 -28.5t-52.5 -113.5l-216 -819q-23 -91 -6.5 -116.5t92.5 -25.5h94q79 0 109 26t53 116l216 819q24 87 11 112t-90 30l8 33 q93 -5 250 -5q154 0 247 5l-8 -33q-76 -4 -103.5 -28.5t-50.5 -113.5l-218 -819q-24 -89 -7.5 -115.5t93.5 -26.5h94q79 0 108 26t54 116l218 819q22 89 7 113.5t-88 28.5l9 33q97 -5 247 -5q167 0 265 5l-9 -33q-84 -4 -114.5 -28.5t-53.5 -113.5l-218 -819 q-10 -38 -13 -61t0 -39.5t18 -24.5t35 -11.5t56 -5.5l-9 -33q-93 5 -251 5q-61 0 -156.5 -2.5t-155.5 -2.5q-71 0 -168 2.5t-131 2.5q-33 0 -135 -2.5t-175 -2.5q-61 0 -156 2.5t-155 2.5q-157 0 -254 -5z" />
<glyph unicode="&#x429;" horiz-adv-x="1859" d="M-71 0l8 33q86 4 116.5 28.5t53.5 113.5l218 819q12 48 14 73t-9.5 41t-34 21t-67.5 7l8 33q97 -5 266 -5q151 0 248 5l-8 -33q-75 -4 -103 -29t-51 -113l-218 -819q-23 -89 -6.5 -115.5t92.5 -26.5h94q80 0 109.5 26t52.5 116l218 819q22 89 7 113.5t-88 28.5l8 33 q93 -5 250 -5q154 0 247 5l-8 -33q-76 -4 -103.5 -28.5t-50.5 -113.5l-218 -819q-23 -89 -6.5 -115.5t92.5 -26.5h94q80 0 109.5 26t52.5 116l218 819q22 89 7 113.5t-88 28.5l9 33q97 -5 247 -5q164 0 266 5l-10 -33q-84 -4 -114.5 -28.5t-53.5 -113.5l-218 -819 q-23 -91 -5.5 -115.5t101.5 -26.5h38q-36 -101 -71 -231q-12 -48 -25 -116h-36q22 177 -29.5 247t-195.5 70q-19 0 -109.5 -1.5t-146.5 -1.5q-68 0 -164.5 2.5t-129.5 2.5q-34 0 -137 -2.5t-175 -2.5q-61 0 -156 2.5t-155 2.5q-157 0 -254 -5z" />
<glyph unicode="&#x42a;" horiz-adv-x="1327" d="M137 943q0 49 27 95.5t79 77.5q90 53 224 53q22 0 114.5 -2.5t158.5 -2.5q149 0 267 5l-8 -33q-87 -4 -117 -28.5t-53 -113.5l-99 -373h78q166 0 267 -29t142.5 -81t41.5 -133q0 -116 -75 -203t-197 -131t-270 -44q-26 0 -119 2.5t-170 2.5q-158 0 -256 -5l6 33 q86 4 116.5 28.5t53.5 113.5l219 819q26 91 8 118.5t-106 27.5q-127 0 -187 -45q45 -13 74 -52.5t29 -91.5q0 -59 -36.5 -98.5t-92.5 -39.5t-87.5 37t-31.5 93zM597.5 95q0.5 -20 8 -31t25 -18.5t45.5 -7.5q146 0 227 105t81 263q0 96 -50 141.5t-176 45.5h-36l-111 -418 q-7 -27 -10.5 -43.5t-3 -36.5z" />
<glyph unicode="&#x42b;" horiz-adv-x="1730" d="M-69 0l6 33q86 4 116.5 28.5t53.5 113.5l218 819q22 91 5 114.5t-102 27.5l8 33q92 -5 258 -5q154 0 272 5l-8 -33q-87 -4 -117 -28.5t-53 -113.5l-99 -373h78q166 0 267 -29t142 -81t41 -133q0 -116 -74.5 -203t-196 -131t-270.5 -44q-25 0 -118.5 2.5t-170.5 2.5 q-158 0 -256 -5zM356.5 95.5q0.5 -19.5 8.5 -31t25.5 -19t45.5 -7.5q145 0 226 105t81 263q0 96 -49.5 141.5t-176.5 45.5h-36l-111 -418q-7 -26 -10.5 -43t-3 -36.5zM1019 0l8 33q83 4 113.5 29t53.5 113l218 819q22 91 5 114.5t-102 27.5l8 33q92 -5 259 -5q153 0 271 5 l-8 -33q-87 -4 -117 -28.5t-53 -113.5l-218 -819q-12 -48 -14 -73t9.5 -41t34 -21t67.5 -7l-6 -33q-107 5 -270 5q-162 0 -259 -5z" />
<glyph unicode="&#x42c;" horiz-adv-x="1086" d="M-69 0l6 33q86 4 116.5 28.5t53.5 113.5l218 819q22 91 5 114.5t-102 27.5l8 33q92 -5 258 -5q154 0 272 5l-8 -33q-87 -4 -117 -28.5t-53 -113.5l-99 -373h78q166 0 267 -29t142 -81t41 -133q0 -116 -74.5 -203t-196 -131t-270.5 -44q-25 0 -118.5 2.5t-170.5 2.5 q-158 0 -256 -5zM356.5 95.5q0.5 -19.5 8.5 -31t25.5 -19t45.5 -7.5q145 0 226 105t81 263q0 96 -49.5 141.5t-176.5 45.5h-36l-111 -418q-7 -26 -10.5 -43t-3 -36.5z" />
<glyph unicode="&#x42d;" horiz-adv-x="1162" d="M-25 0q56 155 109 386h37q-17 -117 0 -180q15 -79 73 -134t154 -55q176 0 313 184t171 463q-114 -226 -252 -226q-44 0 -86 19.5t-70 43t-68.5 43t-81.5 19.5q-74 0 -137 -79l-21 15q74 125 143 187t146 62q45 0 88.5 -19.5t73 -43t71.5 -43t85 -19.5q32 0 59 17.5 t55 64.5q5 58 5 109q0 158 -58 243.5t-166 85.5q-63 0 -127.5 -29t-115.5 -80q-45 -44 -78 -103t-71 -151h-36q72 248 97 389h37q-3 -17 -4 -27.5t-2 -26.5t2 -23.5t8.5 -14t16.5 -4.5t27 12q58 37 92.5 55.5t97.5 35t137 16.5q214 0 325 -117t111 -314q0 -152 -57 -294.5 t-155.5 -250.5t-243 -173.5t-309.5 -65.5q-90 0 -149 28.5t-109 80.5q-50 50 -100 -86h-37z" />
<glyph unicode="&#x42e;" horiz-adv-x="1849" d="M-68 0l9 33q82 4 112.5 28.5t53.5 113.5l218 819q22 91 5 114.5t-102 27.5l8 33q92 -5 259 -5q153 0 271 5l-8 -33q-87 -4 -117 -28.5t-53 -113.5l-104 -390h211q32 115 95 219.5t150.5 187.5t204.5 132t246 49q205 0 319.5 -113.5t114.5 -313.5q0 -109 -33 -221 t-97.5 -213t-151 -180.5t-202 -126.5t-241.5 -47q-204 0 -318.5 113.5t-114.5 312.5q0 82 20 168h-211l-106 -396q-12 -48 -14 -73t9.5 -41t34 -21t67.5 -7l-6 -33q-105 5 -269 5q-163 0 -260 -5zM951 342q0 -157 45 -246t125 -89q72 0 147.5 68t135 178.5t97.5 263.5 t38 310t-44.5 246.5t-123.5 89.5q-72 0 -147.5 -68t-135.5 -178.5t-98.5 -264t-38.5 -310.5z" />
</font>
</defs>
</svg>
