<?xml version="1.0" standalone="no"?>
<!DOCTYPE svg PUBLIC "-//W3C//DTD SVG 1.1//EN" "http://www.w3.org/Graphics/SVG/1.1/DTD/svg11.dtd" >
<svg xmlns="http://www.w3.org/2000/svg" xmlns:xlink="http://www.w3.org/1999/xlink" version="1.1">
<metadata></metadata>
<defs>
<font id="playfair_display_scregular" horiz-adv-x="694" >
<font-face units-per-em="2048" ascent="1638" descent="-410" />
<missing-glyph horiz-adv-x="510" />
<glyph unicode="&#xd;" horiz-adv-x="0" />
<glyph unicode=" "  horiz-adv-x="510" />
<glyph unicode="&#x09;" horiz-adv-x="510" />
<glyph unicode="&#xa0;" horiz-adv-x="510" />
<glyph unicode="!" horiz-adv-x="537" d="M137 102q0 54 38.5 92.5t92.5 38.5t92.5 -38.5t38.5 -92.5q0 -53 -38.5 -92t-92.5 -39t-92.5 39t-38.5 92zM174 1487q0 59 26 87t68 28q41 0 67.5 -28.5t26.5 -86.5q0 -80 -37.5 -461t-37.5 -625h-37q0 244 -38 625t-38 461z" />
<glyph unicode="&#x22;" horiz-adv-x="610" d="M121 1399q0 43 21 68.5t53 27.5q32 0 52.5 -25.5t20.5 -68.5q0 -60 -7 -116t-24 -151t-28 -176h-29q-11 75 -27.5 170t-24 152.5t-7.5 118.5zM344 1399q0 43 21 68.5t53 27.5q32 0 52.5 -25.5t20.5 -68.5q0 -60 -7 -116t-24 -151t-28 -176h-29q-11 75 -27.5 170 t-24 152.5t-7.5 118.5z" />
<glyph unicode="#" horiz-adv-x="1305" d="M98 506l8 41h302l66 342h-300l6 41h302l59 303h41l-59 -303h342l59 303h41l-59 -303h300l-6 -41h-302l-66 -342h301l-9 -41h-300l-58 -299h-41l58 299h-342l-58 -299h-41l58 299h-302zM449 547h342l66 342h-342z" />
<glyph unicode="$" horiz-adv-x="1071" d="M111 -14q8 112 8 491h47q12 -175 75.5 -295.5t192.5 -156.5v665q-74 46 -123 84t-96.5 90t-70.5 115t-23 139q0 152 87.5 241.5t225.5 108.5v252h41v-248l31 1q58 0 100 -9v256h41v-266q48 -16 109 -57q44 -29 69 -29q19 0 29 21.5t16 68.5h48q-11 -113 -11 -418h-47 q-9 127 -61.5 228.5t-151.5 142.5v-608q68 -43 112.5 -74.5t92 -74.5t74 -84t44 -95t17.5 -115q0 -162 -94 -260t-246 -122v-248h-41v243q-34 -2 -53 -2q-30 0 -78 4v-245h-41v251q-81 17 -162 66q-44 29 -69 29q-19 0 -29 -21.5t-16 -68.5h-47zM274 1196q0 -84 40.5 -144 t119.5 -115v483q-73 -24 -116.5 -83.5t-43.5 -140.5zM475 17q33 -5 64 -5q36 0 67 7v563q-49 35 -121 77l-10 6v-648zM475 909q21 -13 64.5 -40t66.5 -41v596q-36 10 -82 10q-28 0 -49 -4v-521zM647 31q72 27 115 91t43 163q0 81 -40 144.5t-118 123.5v-522z" />
<glyph unicode="%" horiz-adv-x="1520" d="M72 1214q0 153 86 249t219 96q138 0 221.5 -89t83.5 -245q0 -154 -86 -249t-219 -95q-138 0 -221.5 89t-83.5 244zM153 -86l1198 1774l39 -27l-1198 -1774zM215 1217q0 -146 44 -222.5t122 -76.5q156 0 156 303q0 148 -43 224.5t-121 76.5q-158 0 -158 -305zM834 305 q0 153 86 248.5t219 95.5q138 0 221.5 -89t83.5 -245q0 -153 -86 -248.5t-219 -95.5q-139 0 -222 89t-83 245zM977 307q0 -146 43.5 -222.5t122.5 -76.5q155 0 155 303q0 148 -42.5 224.5t-120.5 76.5q-158 0 -158 -305z" />
<glyph unicode="&#x26;" horiz-adv-x="1714" d="M111 481q0 84 30 156.5t72.5 118t98 82t97.5 53.5t80 27q-100 43 -153 114t-53 150q0 106 91.5 181t254.5 75q137 0 213 -62t76 -141q0 -49 -35 -79t-80 -30q-44 0 -75.5 28t-31.5 75q0 44 30.5 76t78.5 36q-9 27 -52 46.5t-104 19.5q-107 0 -172 -64t-65 -180 q0 -137 104 -233q70 12 127 12q38 0 60 -12t22 -35q0 -18 -15.5 -28.5t-41.5 -10.5q-44 0 -150 45q-266 -79 -266 -336q0 -137 73.5 -238.5t197 -152.5t278.5 -51q146 0 267.5 44t196 131t74.5 200q0 34 -7.5 68.5t-27 78.5t-63.5 84t-108 66q-173 -54 -236 -78 q-86 -33 -133 -75t-47 -103q0 -74 60.5 -119t127.5 -45q35 0 76.5 12t46.5 33q-39 7 -67.5 32t-28.5 72q0 48 32 77.5t80 29.5q49 0 79 -30.5t30 -80.5q0 -55 -39 -96.5t-93.5 -60.5t-111.5 -19q-45 0 -88.5 14t-81.5 41.5t-61 75.5t-23 109q0 104 70.5 177t212.5 122 q2 1 205.5 60.5t294.5 100.5q97 46 136.5 93.5t39.5 103.5q0 87 -70.5 147t-167.5 60q-52 0 -61 -18q27 -14 42 -40.5t15 -54.5q0 -42 -34 -71t-81 -29q-44 0 -76 26.5t-32 75.5q0 50 37 83.5t85.5 46t102.5 12.5q130 0 214.5 -75t84.5 -202q0 -98 -53 -170.5t-141 -116.5 q-75 -36 -304 -107q115 -48 169.5 -139t54.5 -208q0 -94 -43 -181.5t-120.5 -156.5t-198 -110.5t-263.5 -41.5q-133 0 -253 36t-211 100.5t-145 161.5t-54 212z" />
<glyph unicode="'" horiz-adv-x="387" d="M121 1399q0 43 21 68.5t53 27.5q32 0 52.5 -25.5t20.5 -68.5q0 -60 -7 -116t-24 -151t-28 -176h-29q-11 75 -27.5 170t-24 152.5t-7.5 118.5z" />
<glyph unicode="(" horiz-adv-x="602" d="M90 639q0 602 451 1012l28 -27q-167 -195 -237 -430.5t-70 -554.5t70 -554.5t237 -430.5l-28 -27q-451 410 -451 1012z" />
<glyph unicode=")" horiz-adv-x="602" d="M33 -346q167 195 237 430.5t70 554.5t-70 554.5t-237 430.5l28 27q451 -410 451 -1012t-451 -1012z" />
<glyph unicode="*" horiz-adv-x="1008" d="M120 877q0 47 68 88q30 17 69.5 30t112.5 32t122 33q-45 13 -119.5 32.5t-115.5 33t-71 29.5q-65 39 -65 88q0 18 10 35q16 32 56 32q33 0 75 -24q30 -17 60.5 -44t87 -84.5t88.5 -88.5q-11 43 -31.5 119t-29.5 118t-9 76q0 57 22 84t54 27q31 0 52.5 -27t21.5 -84 q0 -26 -6.5 -61.5t-14 -65t-23.5 -86.5t-26 -98q35 33 88.5 87t85.5 83.5t61 46.5q42 23 73 23q44 0 63 -35q9 -16 9 -31q0 -49 -69 -88q-29 -17 -68.5 -30t-113.5 -32t-122 -33q45 -13 119 -32.5t115.5 -33t71.5 -29.5q66 -39 66 -88q0 -18 -10 -35q-18 -32 -57 -32 q-33 0 -75 24q-23 13 -50.5 36t-49 44.5l-63.5 63.5t-72 71q11 -44 32 -120t30 -117.5t10 -74.5q-1 -57 -24 -83.5t-56 -26.5q-30 0 -51 26t-21 84q0 35 8 73.5t29.5 117.5t32.5 121q-35 -33 -88.5 -87.5t-86 -83.5t-61.5 -46q-40 -23 -73 -23q-43 0 -62 35q-9 16 -9 31z " />
<glyph unicode="+" horiz-adv-x="1202" d="M88 696v62h477v483h74v-483h475v-62h-475v-481h-74v481h-477z" />
<glyph unicode="," horiz-adv-x="535" d="M127 102q0 56 38 93.5t93 37.5q79 0 121 -65q35 -54 35 -135q0 -103 -52.5 -184.5t-158.5 -131.5l-19 37q64 27 110 84.5t46 116.5q0 25 -6 43q-35 -27 -76 -27q-56 0 -93.5 35.5t-37.5 95.5z" />
<glyph unicode="-" horiz-adv-x="1022" d="M141 492v118h740v-118h-740z" />
<glyph unicode="." horiz-adv-x="516" d="M127 102q0 54 38.5 92.5t92.5 38.5t92.5 -38.5t38.5 -92.5q0 -53 -38.5 -92t-92.5 -39t-92.5 39t-38.5 92z" />
<glyph unicode="/" horiz-adv-x="762" d="M70 -29l557 1508h67l-557 -1508h-67z" />
<glyph unicode="0" horiz-adv-x="1229" d="M106 512q0 162 63.5 291.5t182.5 204.5t273 75q218 0 356.5 -148t138.5 -390q0 -249 -144.5 -411.5t-373.5 -162.5q-217 0 -356.5 148.5t-139.5 392.5zM305 518q0 -134 25 -234.5t69.5 -159.5t100 -87.5t121.5 -28.5q134 0 217.5 142.5t83.5 388.5q0 133 -25 233 t-69.5 159t-100 87.5t-121.5 28.5q-135 0 -218 -141.5t-83 -387.5z" />
<glyph unicode="1" horiz-adv-x="758" d="M96 928v45q150 3 247.5 26.5t174.5 77.5v-866q0 -96 44 -132t153 -36v-43q-224 8 -283 8q-63 0 -315 -8v43q109 0 163 36.5t54 131.5v496q0 75 -10 117.5t-40.5 66t-71.5 30.5t-116 7z" />
<glyph unicode="2" horiz-adv-x="981" d="M96 827q54 112 153 184t251 72q143 0 225 -67.5t82 -190.5q0 -77 -38 -153t-101 -143t-128.5 -126t-137 -126t-109.5 -119h416q80 0 104.5 21t32.5 83h35q0 -188 8 -272q-46 10 -305 10h-480v35q34 37 114 111t137.5 133.5t120.5 140.5t97.5 172.5t34.5 187.5 q0 221 -205 221q-167 0 -274 -192z" />
<glyph unicode="3" horiz-adv-x="924" d="M76 -272q107 2 206.5 34.5t179.5 90t128.5 148t48.5 200.5q0 120 -59 199.5t-158 86.5q-77 -30 -96 -30q-33 0 -33 26q0 18 15 28.5t38 10.5q13 0 37 -3.5t35 -4.5q157 120 157 295q0 94 -46.5 139t-131.5 45q-179 0 -272 -182l-35 16q118 256 375 256q130 0 212.5 -63 t82.5 -170q0 -113 -89 -203t-216 -135q74 -2 140 -21.5t120.5 -56t86.5 -97t32 -136.5q0 -91 -45 -172.5t-121 -142t-173.5 -105.5t-205.5 -67.5t-213 -22.5v37z" />
<glyph unicode="4" horiz-adv-x="1012" d="M35 111v43l665 929h33v-835h25q80 0 104.5 21t32.5 83h35q0 -172 8 -252q-31 8 -205 10v-399h-164v400h-534zM156 248h413v584z" />
<glyph unicode="5" horiz-adv-x="850" d="M92 -266q92 1 176.5 30.5t153.5 85.5t110 146.5t41 202.5q0 130 -67 202t-191 72q-80 0 -168 -35l-20 13l39 610q41 -8 110 -8h232q81 0 105 21t32 83h39q0 -208 8 -299q-44 10 -284 10h-218l-24 -395q56 29 110 45.5t130 16.5q178 0 270 -87t92 -229q0 -92 -39.5 -175.5 t-106.5 -145.5t-153.5 -108t-183.5 -69.5t-193 -23.5v37z" />
<glyph unicode="6" horiz-adv-x="1059" d="M113 553q0 128 24 242.5t65 202.5t97 162.5t118 127.5t131.5 93.5t133 64t125.5 35.5l8 -41q-71 -23 -127 -50t-122.5 -82t-113 -127t-84 -188.5t-50.5 -263.5q47 87 129.5 127.5t164.5 40.5q72 0 138 -30t118 -85t82.5 -141t30.5 -190q0 -223 -129.5 -351.5 t-321.5 -128.5q-196 0 -306.5 153t-110.5 429zM311 557q0 -155 21 -266.5t57 -169.5t76 -83.5t86 -25.5q100 0 165.5 104.5t65.5 319.5q0 208 -61 305t-160 97q-72 0 -142.5 -42.5t-104.5 -134.5q-3 -49 -3 -104z" />
<glyph unicode="7" horiz-adv-x="831" d="M55 1063q46 -10 305 -10h455v-43q-28 -66 -81 -168t-96 -189t-86.5 -196t-67.5 -235t-23 -259q0 -35 4 -89t4 -73q0 -46 -26.5 -75t-69.5 -29q-45 0 -68.5 33t-23.5 82q0 98 21.5 200.5t51 184.5t81 184.5t90 169t102 171t94.5 159.5h-485q-81 0 -105 -20.5t-33 -84.5 h-35q0 202 -8 287z" />
<glyph unicode="8" horiz-adv-x="1065" d="M106 315q0 142 90 252.5t239 184.5q-60 49 -100 86.5t-80.5 88.5t-60.5 109t-20 123q0 141 107 230.5t268 89.5q145 0 241.5 -74t96.5 -207q0 -110 -67.5 -202t-192.5 -176q141 -103 195 -157q139 -138 139 -301q0 -174 -125 -282.5t-318 -108.5q-83 0 -156 21.5t-131 63 t-91.5 108.5t-33.5 151zM287 346q0 -93 22.5 -166t79 -122.5t141.5 -49.5q109 0 182.5 71.5t73.5 196.5q0 71 -24 133t-73 117.5t-92.5 94.5t-113.5 94l-6 4.5t-5 4t-6 4.5q-179 -131 -179 -382zM334 1223q0 -61 20 -115.5t61 -102t80.5 -82.5t100.5 -80q127 121 127 328 q0 124 -51.5 197.5t-145.5 73.5q-83 0 -137.5 -60t-54.5 -159z" />
<glyph unicode="9" horiz-adv-x="1042" d="M76 604q0 112 36 204t97.5 151.5t143 91.5t173.5 32q196 0 307 -141.5t111 -398.5q0 -116 -24 -220.5t-65 -185t-97.5 -149t-118.5 -117t-131 -85t-132.5 -58t-125.5 -31.5l-8 41q66 19 119 41t116 66.5t109.5 102.5t85.5 150.5t57 208.5q-49 -77 -128 -113t-157 -36 q-72 0 -138 30t-117.5 85t-82 141t-30.5 190zM274 618q0 -208 61.5 -304.5t160.5 -96.5q69 0 137 38.5t104 122.5q8 80 8 161q0 143 -21 246t-57 156.5t-75.5 77t-85.5 23.5q-100 0 -166 -104.5t-66 -319.5z" />
<glyph unicode=":" horiz-adv-x="545" d="M141 102q0 54 38.5 92.5t92.5 38.5t92.5 -38.5t38.5 -92.5q0 -53 -38.5 -92t-92.5 -39t-92.5 39t-38.5 92zM141 950q0 54 38.5 92.5t92.5 38.5t92.5 -38.5t38.5 -92.5q0 -53 -38.5 -92t-92.5 -39t-92.5 39t-38.5 92z" />
<glyph unicode=";" horiz-adv-x="584" d="M150 102q0 56 38 93.5t93 37.5q79 0 121 -65q35 -54 35 -135q0 -103 -52.5 -184.5t-158.5 -131.5l-19 37q64 27 110 84.5t46 116.5q0 25 -6 43q-35 -27 -76 -27q-56 0 -93.5 35.5t-37.5 95.5zM164 950q0 54 38.5 92.5t92.5 38.5t92.5 -38.5t38.5 -92.5q0 -53 -38.5 -92 t-92.5 -39t-92.5 39t-38.5 92z" />
<glyph unicode="&#x3c;" horiz-adv-x="1245" d="M61 727l998 465l35 -74l-838 -391l838 -391l-35 -74z" />
<glyph unicode="=" horiz-adv-x="1325" d="M150 553v61h1026v-61h-1026zM150 840v61h1026v-61h-1026z" />
<glyph unicode="&#x3e;" horiz-adv-x="1245" d="M151 336l838 391l-838 391l35 74l998 -465l-998 -465z" />
<glyph unicode="?" horiz-adv-x="940" d="M66 1380q0 83 96 148q108 74 278 74q194 0 312 -99.5t118 -269.5q0 -168 -123 -284t-337 -171v-299h-41v318q99 36 164 80.5t98 97t45 103t12 116.5q0 186 -76.5 276.5t-210.5 90.5q-141 0 -200 -74q39 -8 62.5 -35.5t23.5 -69.5q0 -50 -32.5 -80t-80.5 -30 q-47 0 -77.5 30.5t-30.5 77.5zM260 102q0 54 38.5 92.5t92.5 38.5t92.5 -38.5t38.5 -92.5q0 -53 -38.5 -92t-92.5 -39t-92.5 39t-38.5 92z" />
<glyph unicode="@" horiz-adv-x="1798" d="M100 293q0 204 78 400t209.5 344.5t316.5 239.5t386 91q109 0 203.5 -20t175 -63.5t138 -108.5t90 -159.5t32.5 -211.5q0 -133 -36.5 -254.5t-97.5 -210t-138.5 -154.5t-160.5 -99.5t-161 -33.5q-148 0 -148 133q0 21 4 47t8 40.5t11.5 40t7.5 26.5v2q-58 -149 -134 -219 t-182 -70q-110 0 -160 67.5t-50 180.5q0 152 72 311t187 263t228 104q125 0 148 -109l16 80q117 0 184 29l-172 -752q-13 -42 -13 -70q0 -29 14.5 -41t45.5 -12q40 0 91 21t105.5 60t106 101t92.5 137t66 175t25 209q0 138 -47.5 241t-131 163.5t-188 90t-229.5 29.5 q-185 0 -360 -84.5t-304.5 -224t-208 -330.5t-78.5 -395q0 -154 46 -269.5t130 -184.5t193.5 -102.5t245.5 -33.5q236 0 422 111l14 -27q-79 -56 -192.5 -88.5t-245.5 -32.5q-116 0 -214.5 23t-180 71.5t-139 121t-89 176t-31.5 231.5zM666 313q0 -198 106 -198 q80 0 159.5 119t130.5 322l51 249q-7 127 -126 127q-85 0 -160.5 -95t-118 -237.5t-42.5 -286.5z" />
<glyph unicode="A" horiz-adv-x="1290" d="M-14 0v41q102 23 161 178l482 1241h33l499 -1288q50 -127 142 -131v-41q-84 6 -220 6q-175 0 -262 -6v41q78 3 111.5 19t33.5 57q0 35 -24 96l-126 336h-494l-84 -217q-41 -104 -41 -168q0 -65 43.5 -93t134.5 -30v-41q-117 6 -236 6q-92 0 -153 -6zM337 590h464 l-229 611z" />
<glyph unicode="B" horiz-adv-x="1276" d="M86 0v41q74 3 106.5 16t46 48t13.5 112v1016q0 77 -13.5 112t-46 48t-106.5 16v41q85 -6 250 -6q74 0 184 2t125 2q209 0 320.5 -88t111.5 -234q0 -118 -74.5 -212t-236.5 -144v-4q117 -16 201 -52t130 -87t66.5 -107.5t20.5 -122.5q0 -177 -132.5 -287t-359.5 -110 q-17 0 -136 3t-216 3q-168 0 -254 -6zM442 217q0 -107 29 -138.5t125 -31.5q383 0 383 359q0 161 -87.5 245t-277.5 84h-172v-518zM442 770h138q87 0 148 26.5t93.5 75t46 104.5t13.5 128q0 154 -68 229.5t-219 75.5q-93 0 -122.5 -34.5t-29.5 -141.5v-463z" />
<glyph unicode="C" horiz-adv-x="1409" d="M109 713q0 226 83 400.5t231 270t337 95.5q122 0 208.5 -35t168.5 -98q22 -18 40 -18q42 0 52 122h47q-8 -133 -8 -471h-47q-22 134 -41 191.5t-62 111.5q-62 80 -157 120t-205 40q-201 0 -322 -195t-121 -526q0 -334 129.5 -521.5t333.5 -187.5q102 0 199 39t151 117 q42 56 60 121.5t35 202.5h47q0 -353 8 -492h-47q-5 64 -16.5 92.5t-33.5 28.5q-16 0 -42 -17q-93 -65 -176.5 -99t-202.5 -34q-296 0 -472.5 197.5t-176.5 544.5z" />
<glyph unicode="D" horiz-adv-x="1481" d="M86 0v41q74 3 106.5 16t46 48t13.5 112v1016q0 77 -13.5 112t-46 48t-106.5 16v41q110 -7 200 -7q8 0 25 0.5t25 0.5q282 6 309 6q362 0 542.5 -181t180.5 -528q0 -339 -196 -540t-545 -201q-28 0 -134 3t-153 3q-168 0 -254 -6zM442 213q0 -108 29.5 -142t124.5 -34 q111 0 197 20t148.5 61.5t105.5 99t68.5 137.5t36.5 171t11 207q0 176 -29.5 300.5t-96 211t-176 127.5t-267.5 41q-93 0 -122.5 -34.5t-29.5 -141.5v-1024z" />
<glyph unicode="E" horiz-adv-x="1247" d="M86 0v41q74 3 106.5 16t46 48t13.5 112v1016q0 77 -13.5 112t-46 48t-106.5 16v41q201 -6 594 -6q301 0 428 6q-14 -134 -14 -242q0 -80 6 -127h-47q-7 67 -14.5 108.5t-20.5 81.5t-31 62t-47 39.5t-68 24t-94 6.5h-170q-106 0 -136 -30t-30 -140v-483h136q37 0 65.5 9 t47.5 28t31.5 37.5t20.5 49t11.5 49.5t7.5 52t6 45h47q-7 -102 -7 -193q0 -20 0.5 -52t0.5 -46q0 -104 12 -291h-47q-14 115 -23 146q-28 99 -116 119q-25 6 -57 6h-136v-492q0 -110 30 -140t136 -30h150q97 0 156.5 17.5t96.5 63.5t54 109.5t29 172.5h47q-6 -55 -6 -148 q0 -116 14 -262q-139 6 -469 6q-393 0 -594 -6z" />
<glyph unicode="F" horiz-adv-x="1165" d="M86 0v41q74 3 106.5 16t46 48t13.5 112v1016q0 77 -13.5 112t-46 48t-106.5 16v41q201 -6 594 -6q301 0 428 6q-14 -146 -14 -262q0 -104 6 -168h-47q-6 59 -11.5 98.5t-14 81t-19.5 67.5t-28 51t-38.5 39t-51.5 25.5t-67.5 16t-85.5 4.5h-129q-106 0 -136 -30t-30 -140 v-504h150q37 0 65.5 9t47.5 28t31.5 37.5t20.5 49t11.5 49.5t7.5 52t6 45h47q-7 -100 -7 -193q0 -19 0.5 -51t0.5 -46q0 -108 13 -291h-48q-14 115 -23 147q-28 97 -116 117q-26 6 -57 6h-150v-471q0 -58 7.5 -90t32.5 -51.5t61.5 -26t105.5 -8.5v-41q-107 6 -301 6 q-176 0 -262 -6z" />
<glyph unicode="G" horiz-adv-x="1440" d="M111 700q0 176 49.5 323t137 246.5t209 154.5t263.5 55q64 0 117 -10t100 -32t76.5 -40t75.5 -51q26 -21 41 -21q39 0 51 125h47q-8 -133 -8 -471h-47q-12 73 -21 115.5t-30.5 96.5t-51.5 91q-60 74 -155 117t-199 43q-205 0 -328 -195t-123 -524q0 -368 118.5 -539.5 t369.5 -171.5q123 0 213 64q37 25 48 48t11 64v197q0 123 -38 157.5t-169 39.5v41q101 -7 289 -7q144 0 213 7v-41q-48 -4 -68 -16.5t-28 -46.5t-8 -113v-406h-41q-2 42 -17 79.5t-39 37.5q-21 0 -67 -35q-147 -111 -320 -111q-317 0 -494 193t-177 536z" />
<glyph unicode="H" horiz-adv-x="1550" d="M86 0v41q74 3 106.5 16t46 48t13.5 112v1016q0 77 -13.5 112t-46 48t-106.5 16v41q85 -6 262 -6q166 0 260 6v-41q-74 -3 -106.5 -16t-46 -48t-13.5 -112v-483h666v483q0 77 -13.5 112t-46 48t-106.5 16v41q96 -6 260 -6q176 0 262 6v-41q-74 -3 -106.5 -16t-46 -48 t-13.5 -112v-1016q0 -77 13.5 -112t46 -48t106.5 -16v-41q-86 6 -262 6q-164 0 -260 -6v41q74 3 106.5 16t46 48t13.5 112v492h-666v-492q0 -77 13.5 -112t46 -48t106.5 -16v-41q-94 6 -260 6q-176 0 -262 -6z" />
<glyph unicode="I" d="M86 0v41q74 3 106.5 16t46 48t13.5 112v1016q0 77 -13.5 112t-46 48t-106.5 16v41q85 -6 262 -6q166 0 260 6v-41q-74 -3 -106.5 -16t-46 -48t-13.5 -112v-1016q0 -77 13.5 -112t46 -48t106.5 -16v-41q-94 6 -260 6q-176 0 -262 -6z" />
<glyph unicode="J" horiz-adv-x="668" d="M-307 -207q0 48 30.5 78.5t77.5 30.5q49 0 81 -30t32 -81q0 -43 -23 -69.5t-63 -34.5q33 -33 131 -33q89 0 153.5 46t92.5 128q21 64 28 159.5t7 309.5v936q0 77 -13.5 112t-46 48t-106.5 16v41q85 -6 262 -6q164 0 260 6v-41q-74 -3 -106.5 -16t-46 -48t-13.5 -112v-750 q0 -389 -35 -534q-35 -148 -149 -241t-283 -93q-100 0 -172 37q-98 51 -98 141z" />
<glyph unicode="K" horiz-adv-x="1341" d="M86 0v41q74 3 106.5 16t46 48t13.5 112v1016q0 77 -13.5 112t-46 48t-106.5 16v41q85 -6 262 -6q166 0 260 6v-41q-74 -3 -106.5 -16t-46 -48t-13.5 -112v-459q148 5 234 115l196 250q105 133 105 196q0 71 -127 74v41q117 -6 235 -6q113 0 175 6v-41q-142 -20 -242 -149 l-334 -428l475 -666q34 -52 76 -81t104 -44v-41q-97 6 -245 6q-111 0 -211 -6v41q94 4 94 43q0 19 -21 49l-299 451q-60 91 -101 118t-114 31v-516q0 -77 13.5 -112t46 -48t106.5 -16v-41q-94 6 -260 6q-176 0 -262 -6z" />
<glyph unicode="L" horiz-adv-x="1204" d="M86 0v41q74 3 106.5 16t46 48t13.5 112v1016q0 77 -13.5 112t-46 48t-106.5 16v41q85 -6 262 -6q166 0 260 6v-41q-74 -3 -106.5 -16t-46 -48t-13.5 -112v-1016q0 -110 30 -140t136 -30h150q97 0 156.5 18.5t96.5 67.5t54 115.5t29 181.5h47q-6 -64 -6 -168 q0 -116 14 -262q-139 6 -469 6q-393 0 -594 -6z" />
<glyph unicode="M" horiz-adv-x="1784" d="M86 0v41q103 4 134.5 43.5t31.5 153.5v995q0 77 -13.5 112t-46 48t-106.5 16v41q67 -6 190 -6q108 0 175 6l450 -1188l440 1182h97q164 0 260 6v-41q-74 -3 -106.5 -16t-46 -48t-13.5 -112v-1016q0 -77 13.5 -112t46 -48t106.5 -16v-41q-96 6 -260 6q-176 0 -262 -6v41 q56 2 85 8.5t49 26.5t25.5 51.5t5.5 89.5v1096l-493 -1323h-33l-516 1329v-1081q0 -115 34.5 -154t151.5 -43v-41q-74 6 -209 6q-122 0 -190 -6z" />
<glyph unicode="N" horiz-adv-x="1446" d="M86 0v41q103 4 134.5 43.5t31.5 153.5v995q0 77 -13.5 112t-46 48t-106.5 16v41q67 -6 190 -6q93 0 160 6l723 -1114v876q0 60 -6.5 94t-27 58t-56 33.5t-96.5 11.5v41q73 -6 209 -6q122 0 190 6v-41q-103 -4 -134.5 -43.5t-31.5 -153.5v-1222h-47l-860 1329v-1081 q0 -115 34.5 -154t151.5 -43v-41q-74 6 -209 6q-122 0 -190 -6z" />
<glyph unicode="O" horiz-adv-x="1518" d="M109 713q0 226 83 400.5t231 270t337 95.5q296 0 472.5 -197.5t176.5 -544.5q0 -226 -83 -400.5t-231 -270t-337 -95.5q-296 0 -472.5 197.5t-176.5 544.5zM313 721q0 -320 129.5 -516.5t323.5 -196.5q131 0 231 91.5t153.5 255t53.5 374.5q0 320 -129.5 516.5 t-322.5 196.5q-131 0 -231.5 -91.5t-154 -255t-53.5 -374.5z" />
<glyph unicode="P" horiz-adv-x="1198" d="M86 0v41q74 3 106.5 16t46 48t13.5 112v1016q0 77 -13.5 112t-46 48t-106.5 16v41q85 -6 250 -6q74 0 184 2t125 2q241 0 367.5 -110t126.5 -294q0 -64 -15 -124t-53.5 -122t-97 -108t-155 -75t-218.5 -29h-158v-369q0 -58 7.5 -90t32.5 -51.5t61.5 -26t105.5 -8.5v-41 q-107 6 -301 6q-176 0 -262 -6zM442 627h138q84 0 147.5 21.5t102.5 57t63 88t32.5 107t8.5 121.5q0 198 -79 292.5t-261 94.5q-93 0 -122.5 -34.5t-29.5 -141.5v-606z" />
<glyph unicode="Q" horiz-adv-x="1518" d="M109 713q0 226 83 400.5t231 270t337 95.5q296 0 472.5 -197.5t176.5 -544.5q0 -321 -162 -529.5t-424 -233.5v-1q-70 -8 -167 -48.5t-136 -51.5q490 -98 649 -98q146 0 231 42.5t132 135.5l31 -12q-46 -157 -129 -234q-102 -92 -277 -92q-97 0 -196.5 32.5t-236 93.5 t-226.5 91q-10 3 -26.5 7.5t-22.5 6.5q-90 -30 -170 -30q-95 0 -95 41q0 43 111 43q74 0 154 -17q55 15 133 50t98 42q-263 26 -417 220.5t-154 517.5zM313 721q0 -320 129.5 -516.5t323.5 -196.5q131 0 231 91.5t153.5 255t53.5 374.5q0 320 -129.5 516.5t-322.5 196.5 q-131 0 -231.5 -91.5t-154 -255t-53.5 -374.5z" />
<glyph unicode="R" horiz-adv-x="1327" d="M86 0v41q74 3 106.5 16t46 48t13.5 112v1016q0 77 -13.5 112t-46 48t-106.5 16v41q85 -6 250 -6q74 0 184 2t125 2q238 0 366 -99.5t128 -256.5q0 -58 -19.5 -115.5t-62.5 -115.5t-124.5 -102t-191.5 -61l25 -4q134 -22 195.5 -81t91.5 -189l51 -209q20 -93 42 -130.5 t63 -37.5q34 0 56 17.5t56 60.5l31 -23q-48 -69 -95 -100t-124 -31q-84 0 -138 49t-82 173l-45 204q-10 46 -16.5 72t-18 61.5t-22 55t-27.5 42t-37 34t-48 19t-62 7.5h-195v-471q0 -77 13.5 -112t46 -48t106.5 -16v-41q-94 6 -260 6q-176 0 -262 -6zM442 729h138 q85 0 148 17.5t102 47.5t62.5 74.5t32.5 92.5t9 108q0 168 -80 254t-260 86q-93 0 -122.5 -34.5t-29.5 -141.5v-504z" />
<glyph unicode="S" horiz-adv-x="1106" d="M129 -14q8 112 8 491h47q7 -98 29.5 -178t64.5 -146.5t113 -103.5t166 -37q110 0 188 69t78 204q0 60 -21.5 111t-68.5 97t-97.5 81.5t-131.5 84.5q-59 36 -95.5 59.5t-84.5 59.5t-76.5 68.5t-56 75t-40 91.5t-12.5 105q0 88 31.5 157t85.5 111.5t122.5 64.5t145.5 22 q63 0 114 -13t75.5 -26t60.5 -37q46 -29 70 -29q19 0 29 21.5t16 68.5h47q-10 -120 -10 -418h-47q-6 77 -27.5 144.5t-60.5 125t-102.5 91t-145.5 33.5q-110 0 -180 -66.5t-70 -171.5q0 -30 5 -57.5t17.5 -52t25 -44.5t36 -41.5t40.5 -36.5t49.5 -36.5t52 -34t58.5 -36 t60 -36.5q54 -34 88.5 -56.5t77.5 -54t69.5 -57.5t54.5 -60.5t43.5 -68.5t25.5 -76t10 -88q0 -126 -60 -215.5t-156.5 -131.5t-218.5 -42q-98 0 -161 20.5t-119 55.5q-46 29 -70 29q-19 0 -29 -21.5t-16 -68.5h-47z" />
<glyph unicode="T" horiz-adv-x="1272" d="M59 1450q170 -6 578 -6q405 0 575 6q-14 -146 -14 -262q0 -104 6 -168h-47q-8 80 -15.5 128t-22 97t-35 74.5t-53.5 47t-78.5 29t-110.5 7.5h-111v-1165q0 -52 5.5 -84t17.5 -55t37.5 -34.5t58.5 -16.5t88 -7v-41q-108 6 -301 6q-205 0 -303 -6v41q55 2 88 7t58.5 16.5 t37.5 34.5t17.5 55t5.5 84v1165h-111q-65 0 -110.5 -7.5t-79 -29t-53.5 -47t-34.5 -74t-22 -97t-15.5 -128.5h-47q6 64 6 168q0 120 -15 262z" />
<glyph unicode="U" horiz-adv-x="1397" d="M55 1409v41q87 -6 262 -6q165 0 261 6v-41q-56 -2 -85.5 -8.5t-49.5 -26.5t-25.5 -51.5t-5.5 -89.5v-678q0 -79 4 -136.5t15 -120.5t33.5 -105.5t57 -78.5t88.5 -53.5t125 -17.5q113 0 191.5 39t121.5 113t61.5 165.5t18.5 212.5v639q0 111 -40 151.5t-146 45.5v41 q74 -6 209 -6q123 0 190 6v-41q-102 -4 -133.5 -43t-31.5 -154v-616q0 -291 -84 -434q-52 -88 -151.5 -139.5t-223.5 -51.5q-225 0 -344 111q-90 84 -121 190t-31 318v643q0 58 -5.5 89.5t-25.5 51.5t-49.5 26.5t-85.5 8.5z" />
<glyph unicode="V" horiz-adv-x="1290" d="M-12 1409v41q83 -6 219 -6q177 0 262 6v-41q-78 -3 -111.5 -19t-33.5 -57q0 -35 24 -96l371 -984l334 865q41 106 41 167q0 65 -44 93.5t-135 30.5v41q117 -6 236 -6q93 0 154 6v-41q-103 -23 -162 -178l-481 -1241h-17h-16l-500 1288q-50 127 -141 131z" />
<glyph unicode="W" horiz-adv-x="1853" d="M-14 1409v41q83 -6 219 -6q147 0 221 6v-41q-54 -4 -77 -20t-23 -51q0 -33 22 -101l300 -913l248 793l-54 161q-42 127 -121 131v41q74 -6 199 -6q175 0 262 6v-41q-40 -2 -61.5 -4.5t-42 -10t-28.5 -21.5t-8 -37q0 -34 21 -99l294 -911l253 792q33 104 33 165 q0 68 -41.5 96t-133.5 30v41q117 -6 236 -6q92 0 154 6v-41q-114 -25 -162 -178l-387 -1241h-17h-16l-356 1055l-326 -1055h-16h-17l-434 1288q-44 126 -141 131z" />
<glyph unicode="X" horiz-adv-x="1298" d="M33 0v41q115 16 231 188l309 461l-401 615q-38 59 -64.5 79t-72.5 23v43q140 -8 176 -8q137 0 289 8v-43q-137 0 -137 -45q0 -16 18 -45l319 -488l201 301q89 133 89 197q0 43 -39.5 61.5t-119.5 20.5v41q117 -6 236 -6q113 0 174 6v-41q-62 -9 -117.5 -55.5 t-113.5 -132.5l-287 -428l424 -648q38 -59 64.5 -79t72.5 -23v-43q-140 8 -176 8q-69 0 -289 -8v43q80 0 113 7t33 26q0 14 -15 37l-350 536l-221 -330q-78 -116 -78 -180q0 -52 46.5 -74t135.5 -24v-41q-115 6 -276 6q-113 0 -174 -6z" />
<glyph unicode="Y" horiz-adv-x="1210" d="M-6 1407v43q80 -6 180 -6q199 0 287 6v-43q-144 0 -144 -79q0 -30 21 -71l341 -653l261 520q56 113 56 176q0 58 -45 82.5t-136 26.5v41q117 -6 236 -6q91 0 153 6v-41q-41 -9 -80 -51.5t-84 -130.5l-321 -637v-373q0 -58 5.5 -89.5t25.5 -51.5t49.5 -26.5t85.5 -8.5v-41 q-96 6 -260 6q-176 0 -263 -6v41q56 2 85.5 8.5t49.5 26.5t25.5 51.5t5.5 89.5v309l-415 766q-38 69 -65.5 92t-53.5 23z" />
<glyph unicode="Z" horiz-adv-x="1217" d="M86 0v41l854 1362h-430q-97 0 -156.5 -18.5t-96.5 -67.5t-54 -115.5t-29 -181.5h-47q6 64 6 168q0 116 -14 262q151 -6 510 -6q348 0 497 6v-41l-847 -1362h432q97 0 156.5 18.5t96.5 67.5t54 115.5t29 181.5h47q-7 -75 -7 -168q0 -106 15 -262q-152 6 -510 6 q-350 0 -506 -6z" />
<glyph unicode="[" horiz-adv-x="606" d="M188 -371v1952h351v-39h-166v-1874h166v-39h-351z" />
<glyph unicode="\" horiz-adv-x="762" d="M68 1479h67l557 -1508h-67z" />
<glyph unicode="]" horiz-adv-x="606" d="M67 -332h166v1874h-166v39h351v-1952h-351v39z" />
<glyph unicode="^" horiz-adv-x="1098" d="M147 688q131 63 233 169t150 224h37q49 -118 151 -224t232 -169l-16 -29q-124 45 -240 112t-186 134q-58 -67 -151.5 -134t-192.5 -112z" />
<glyph unicode="_" horiz-adv-x="1210" d="M141 -235h928v-82h-928v82z" />
<glyph unicode="`" horiz-adv-x="457" d="M42 1608q0 34 28 57q19 15 44 15q44 0 79 -46q29 -38 93 -161.5t130 -227.5l-23 -18q-84 90 -188.5 181.5t-134.5 129.5q-28 37 -28 70z" />
<glyph unicode="a" horiz-adv-x="1262" d="M-6 0v41q54 14 94 62.5t74 127.5l452 1024h33l479 -1083q56 -127 142 -131v-41q-84 6 -219 6q-176 0 -263 -6v41q77 3 112 19t35 56q0 37 -28 97l-103 233h-500l-69 -153q-34 -79 -34 -131q0 -108 159 -121v-41q-62 6 -186 6q-126 0 -178 -6zM320 487h464l-231 521z" />
<glyph unicode="b" horiz-adv-x="1235" d="M86 0v41q74 3 106.5 16t46 48t13.5 112v811q0 59 -5.5 91t-26 51.5t-49 25.5t-85.5 8v41q85 -6 250 -6q70 0 173 2t116 2q198 0 304.5 -77t106.5 -203q0 -99 -69 -177t-222 -118v-4q111 -14 191.5 -47t124 -79t63 -95.5t19.5 -106.5q0 -150 -126.5 -243t-344.5 -93 q-16 0 -128 3t-204 3q-168 0 -254 -6zM442 217q0 -107 25 -138.5t108 -31.5q187 0 275 75t88 222q0 142 -82 215.5t-262 73.5h-152v-416zM442 668h117q82 0 138.5 20t87 58.5t43 85t12.5 108.5q0 132 -63.5 198t-203.5 66q-80 0 -105.5 -34.5t-25.5 -141.5v-360z" />
<glyph unicode="c" horiz-adv-x="1317" d="M111 610q0 196 78 347.5t216.5 234t315.5 82.5q99 0 168.5 -34t146.5 -99q25 -20 40 -20q42 0 52 124h48q-9 -118 -9 -430h-47q-20 107 -40.5 157.5t-61.5 104.5q-58 76 -137.5 116t-167.5 40q-183 0 -290.5 -164.5t-107.5 -450.5t116.5 -446t295.5 -160q91 0 174 40 t139 116q40 53 59.5 112.5t35.5 170.5h47q0 -323 8 -451h-47q-10 124 -51 124q-16 0 -41 -20q-78 -65 -152.5 -99t-179.5 -34q-278 0 -443 169t-165 470z" />
<glyph unicode="d" horiz-adv-x="1399" d="M86 0v41q74 3 106.5 16t46 48t13.5 112v811q0 59 -5.5 91t-26 51.5t-49 25.5t-85.5 8v41q110 -7 200 -7q8 0 25 0.5t25 0.5q282 6 309 6q320 0 480.5 -154.5t160.5 -451.5q0 -293 -173.5 -466t-485.5 -173q-28 0 -134 3t-153 3q-168 0 -254 -6zM442 213q0 -108 29.5 -142 t124.5 -34q141 0 236 37.5t149.5 116t77 184t22.5 256.5q0 149 -25 254t-82 179t-150.5 109t-229.5 35q-93 0 -122.5 -34.5t-29.5 -141.5v-819z" />
<glyph unicode="e" horiz-adv-x="1219" d="M86 0v41q74 3 106.5 16t46 48t13.5 112v811q0 77 -13.5 112t-46 48t-106.5 16v41q195 -6 573 -6q287 0 408 6q-14 -123 -14 -221q0 -80 6 -127h-47q-16 169 -72 235t-182 66h-150q-106 0 -136 -29.5t-30 -140.5v-381h170q48 0 81.5 19.5t50 54t24 62.5t13.5 64q1 6 1 9 h47q-7 -81 -7 -152q0 -15 0.5 -40.5t0.5 -36.5q0 -82 13 -230h-48q-4 36 -9 61t-17 55.5t-30 48.5t-48.5 31t-71.5 13h-170v-389q0 -110 30 -140t136 -30h150q150 0 214 74.5t81 267.5h47q-6 -56 -6 -147q0 -108 14 -242q-133 6 -449 6q-378 0 -573 -6z" />
<glyph unicode="f" horiz-adv-x="1128" d="M86 0v41q74 3 106.5 16t46 48t13.5 112v811q0 77 -13.5 112t-46 48t-106.5 16v41q195 -6 573 -6q287 0 408 6q-14 -123 -14 -221q0 -80 6 -127h-47q-16 169 -72 235t-182 66h-150q-106 0 -136 -29.5t-30 -140.5v-381h170q48 0 81.5 19.5t50 54t24 62.5t13.5 64q1 6 1 9 h47q-7 -81 -7 -152q0 -15 0.5 -40.5t0.5 -36.5q0 -82 13 -230h-48q-4 36 -9 61t-17 55.5t-30 48.5t-48.5 31t-71.5 13h-170v-389q0 -58 7.5 -90t32.5 -51.5t61.5 -26t105.5 -8.5v-41q-107 6 -301 6q-176 0 -262 -6z" />
<glyph unicode="g" horiz-adv-x="1354" d="M111 598q0 308 169.5 492t440.5 184q61 0 110.5 -10t91.5 -32t68 -40t66 -51q25 -20 41 -20q40 0 51 124h47q-8 -117 -8 -409h-47q-35 164 -103 241q-68 78 -142 119t-179 41q-186 0 -294 -166t-108 -450q0 -314 115 -461.5t342 -147.5q92 0 158 17q36 9 49.5 26.5 t13.5 50.5v177q0 65 -7.5 100.5t-32.5 57.5t-61.5 29t-105.5 9v41q111 -6 289 -6q139 0 213 6v-41q-47 -3 -67 -15.5t-28.5 -47.5t-8.5 -113v-303h-41q-3 49 -31 49q-8 0 -23 -5.5t-41 -16.5l-26 -11q-132 -45 -268 -45q-308 0 -475.5 165t-167.5 462z" />
<glyph unicode="h" horiz-adv-x="1509" d="M86 0v41q74 3 106.5 16t46 48t13.5 112v811q0 77 -13.5 112t-46 48t-106.5 16v41q85 -6 262 -6q166 0 260 6v-41q-74 -3 -106.5 -16t-46 -48t-13.5 -112v-362h625v362q0 77 -13.5 112t-46 48t-106.5 16v41q96 -6 260 -6q177 0 262 6v-41q-74 -3 -106.5 -16t-46 -48 t-13.5 -112v-811q0 -77 13.5 -112t46 -48t106.5 -16v-41q-85 6 -262 6q-164 0 -260 -6v41q74 3 106.5 16t46 48t13.5 112v408h-625v-408q0 -77 13.5 -112t46 -48t106.5 -16v-41q-94 6 -260 6q-176 0 -262 -6z" />
<glyph unicode="i" d="M86 0v41q74 3 106.5 16t46 48t13.5 112v811q0 77 -13.5 112t-46 48t-106.5 16v41q85 -6 262 -6q166 0 260 6v-41q-74 -3 -106.5 -16t-46 -48t-13.5 -112v-811q0 -77 13.5 -112t46 -48t106.5 -16v-41q-94 6 -260 6q-176 0 -262 -6z" />
<glyph unicode="j" horiz-adv-x="659" d="M-193 -250q0 41 28.5 69.5t70.5 28.5q40 0 70 -28.5t30 -69.5q0 -26 -15 -51t-38 -39q24 -4 55 -4q140 0 193 172q20 66 27.5 163.5t7.5 305.5v731q0 77 -13.5 112t-46 48t-106.5 16v41q85 -6 262 -6q164 0 260 6v-41q-74 -3 -106.5 -16t-46 -48t-13.5 -112v-545 q0 -379 -35 -534q-34 -149 -134.5 -239.5t-256.5 -90.5q-86 0 -137 33q-56 34 -56 98z" />
<glyph unicode="k" horiz-adv-x="1339" d="M86 0v41q74 3 106.5 16t46 48t13.5 112v811q0 77 -13.5 112t-46 48t-106.5 16v41q85 -6 262 -6q166 0 260 6v-41q-74 -3 -106.5 -16t-46 -48t-13.5 -112v-371q73 5 135 34t140 104l244 249q53 50 53 92q0 31 -30.5 50t-90.5 20v39q111 -6 242 -6q87 0 145 6v-39 q-73 -13 -121.5 -42t-128.5 -105l-323 -323l452 -570q71 -90 160 -125v-41q-99 6 -229 6q-140 0 -261 -6v41q67 2 95 11.5t28 28.5q0 18 -26 52l-273 379q-43 59 -87 83.5t-124 27.5v-406q0 -77 13.5 -112t46 -48t106.5 -16v-41q-94 6 -260 6q-176 0 -262 -6z" />
<glyph unicode="l" horiz-adv-x="1174" d="M86 0v41q74 3 106.5 16t46 48t13.5 112v811q0 77 -13.5 112t-46 48t-106.5 16v41q85 -6 262 -6q166 0 260 6v-41q-74 -3 -106.5 -16t-46 -48t-13.5 -112v-811q0 -110 30 -140t136 -30h129q142 0 220.5 83.5t95.5 279.5h47q-6 -65 -6 -168q0 -108 14 -242q-133 6 -449 6 q-378 0 -573 -6z" />
<glyph unicode="m" horiz-adv-x="1743" d="M86 0v41q103 4 134.5 43.5t31.5 153.5v790q0 77 -13.5 112t-46 48t-106.5 16v41q67 -6 190 -6q97 0 175 6l410 -998l439 992h97q164 0 260 6v-41q-74 -3 -106.5 -16t-46 -48t-13.5 -112v-811q0 -77 13.5 -112t46 -48t106.5 -16v-41q-96 6 -260 6q-177 0 -262 -6v41 q56 2 85 8.5t49 26.5t25.5 51.5t5.5 89.5v899l-493 -1126h-33l-475 1124v-876q0 -115 34.5 -154t151.5 -43v-41q-74 6 -209 6q-122 0 -190 -6z" />
<glyph unicode="n" horiz-adv-x="1403" d="M86 0v41q103 4 134.5 43.5t31.5 153.5v790q0 77 -13.5 112t-46 48t-106.5 16v41q67 -6 190 -6q112 0 189 6l653 -909v672q0 115 -34.5 153.5t-151.5 42.5v41q73 -6 209 -6q123 0 190 6v-41q-103 -4 -134.5 -43t-31.5 -153v-1018h-47l-819 1134v-886q0 -115 34.5 -154 t151.5 -43v-41q-74 6 -209 6q-122 0 -190 -6z" />
<glyph unicode="o" horiz-adv-x="1477" d="M109 610q0 196 80.5 347.5t223.5 234t326 82.5q287 0 458 -169t171 -470q0 -296 -176.5 -480t-454.5 -184q-287 0 -457.5 169t-170.5 470zM313 618q0 -274 124 -442t308 -168q125 0 220.5 79t146.5 219t51 321q0 274 -124 442t-308 168q-125 0 -220.5 -79t-146.5 -219 t-51 -321z" />
<glyph unicode="p" horiz-adv-x="1159" d="M86 0v41q74 3 106.5 16t46 48t13.5 112v811q0 77 -13.5 112t-46 48t-106.5 16v41q85 -6 250 -6q74 0 184 2t125 2q220 0 336.5 -93t116.5 -249q0 -46 -10.5 -90t-33 -90t-63 -84t-96 -68.5t-136.5 -47.5t-179 -17h-138v-287q0 -77 13.5 -112t46 -48t106.5 -16v-41 q-94 6 -260 6q-176 0 -262 -6zM442 545h117q80 0 140 18t96.5 47.5t59 74t30.5 90.5t8 104q0 166 -69.5 245.5t-229.5 79.5q-93 0 -122.5 -34.5t-29.5 -141.5v-483z" />
<glyph unicode="q" horiz-adv-x="1479" d="M111 610q0 196 80.5 347.5t223.5 234t326 82.5q287 0 458 -169t171 -470q0 -277 -155.5 -457.5t-407.5 -203.5v-1q-70 -8 -167 -48.5t-136 -51.5q266 -49 360 -63q212 -35 330 -35q161 0 256 42.5t147 135.5l31 -12q-43 -162 -147.5 -244t-278.5 -82q-89 0 -197 28 t-194 64t-195.5 78t-183.5 61q-88 -30 -170 -30q-94 0 -94 41q0 43 111 43q74 0 153 -17q55 14 131 48.5t100 42.5q-255 23 -403.5 189.5t-148.5 446.5zM315 618q0 -274 124 -442t308 -168q125 0 220.5 79t146.5 219t51 321q0 274 -124 442t-308 168q-125 0 -220.5 -79 t-146.5 -219t-51 -321z" />
<glyph unicode="r" horiz-adv-x="1278" d="M86 0v41q74 3 106.5 16t46 48t13.5 112v811q0 59 -5.5 91t-26 51.5t-49 25.5t-85.5 8v41q85 -6 250 -6q70 0 173 2t116 2q228 0 350.5 -85.5t122.5 -223.5q0 -43 -11.5 -83.5t-41 -83.5t-74 -77t-117 -61t-164.5 -38q35 -1 70 -7q109 -17 172.5 -66t89.5 -158l45 -186 q17 -72 36 -101.5t50 -29.5q51 0 113 70l28 -27q-80 -115 -209 -115q-170 0 -211 156l-63 256q-28 114 -85 153t-167 39h-117v-358q0 -77 13.5 -112t46 -48t106.5 -16v-41q-94 6 -260 6q-176 0 -262 -6zM442 616h138q94 0 157.5 22t96.5 64t46 92t13 117q0 148 -74.5 220.5 t-245.5 72.5q-80 0 -105.5 -34.5t-25.5 -141.5v-412z" />
<glyph unicode="s" horiz-adv-x="1096" d="M129 -14q8 100 8 450h47q5 -71 20 -131.5t43.5 -115.5t69.5 -93.5t102.5 -61t137.5 -22.5q48 0 91.5 13.5t80 40.5t58.5 73t22 105q0 42 -17 79t-41 64.5t-72 60t-87 54t-109 57.5q-63 32 -107 58t-92.5 63.5t-77.5 75.5t-48 89t-19 109q0 102 55 176.5t140.5 109 t189.5 34.5q63 0 114 -13t75.5 -26t60.5 -37q48 -29 70 -29q19 0 29 22t16 69h47q-10 -107 -10 -377h-47q-6 69 -27.5 129t-60.5 111.5t-102.5 81.5t-145.5 30q-109 0 -179.5 -57.5t-70.5 -145.5q0 -28 7.5 -54t18 -46t31.5 -41t38.5 -35.5t50 -34.5t53 -31.5t61.5 -33.5 t63 -35q74 -39 122 -67.5t101 -68t82.5 -76.5t49.5 -86t20 -104q0 -112 -58 -192t-151.5 -118t-210.5 -38q-98 0 -161 20.5t-119 55.5q-46 29 -70 29q-19 0 -29 -21.5t-16 -68.5h-47z" />
<glyph unicode="t" horiz-adv-x="1292" d="M70 1245q170 -6 577 -6q406 0 576 6q-15 -131 -15 -241q0 -106 6 -168h-47q-9 107 -24 171.5t-48.5 110t-86 63t-136.5 17.5h-131v-960q0 -52 5.5 -84t17.5 -55t37.5 -34.5t58.5 -16.5t88 -7v-41q-106 6 -301 6q-204 0 -303 -6v41q55 2 88 7t58.5 16.5t37.5 34.5t17.5 55 t5.5 84v960h-131q-84 0 -136.5 -17.5t-85.5 -63t-48.5 -110t-24.5 -171.5h-47q6 64 6 168q0 107 -14 241z" />
<glyph unicode="u" horiz-adv-x="1348" d="M51 1204v41q87 -6 262 -6q165 0 260 6v-41q-56 -2 -85 -8.5t-49 -26t-25.5 -51t-5.5 -90.5v-514q0 -73 3.5 -126t14 -111t31.5 -97t53.5 -72t83 -49t117.5 -16q86 0 151 24.5t106.5 66.5t67.5 105t36.5 134t10.5 159v476q0 110 -40 150.5t-146 45.5v41q73 -6 209 -6 q122 0 190 6v-41q-103 -4 -134.5 -43t-31.5 -153v-453q0 -277 -83 -414q-49 -78 -143 -124t-212 -46q-210 0 -323 90q-90 81 -121 183.5t-31 304.5v479q0 77 -13.5 112t-46 48t-106.5 16z" />
<glyph unicode="v" horiz-adv-x="1262" d="M-6 1204v41q82 -6 219 -6q176 0 262 6v-41q-77 -3 -111.5 -19t-34.5 -56q0 -35 27 -97l352 -795l306 681q50 112 50 175q0 57 -40 82.5t-121 28.5v41q61 -6 227 -6q86 0 138 6v-41q-58 -14 -92.5 -56.5t-79.5 -143.5l-449 -1014h-33l-479 1083q-55 127 -141 131z" />
<glyph unicode="w" horiz-adv-x="1786" d="M-12 1204v41q83 -6 219 -6q177 0 262 6v-41q-78 -3 -110 -18t-32 -56q0 -34 23 -98l291 -793l249 589l-99 245q-52 127 -142 131v41q84 -6 219 -6q176 0 262 6v-41q-77 -3 -110 -19t-33 -56q0 -31 25 -97l296 -779l220 642q39 111 39 181q0 68 -38 96.5t-114 31.5v41 q61 -6 187 -6q128 0 178 6v-41q-56 -12 -94.5 -58.5t-71.5 -144.5l-352 -1011h-33l-316 781l-333 -781h-33l-418 1083q-49 127 -141 131z" />
<glyph unicode="x" horiz-adv-x="1257" d="M33 0v41q43 4 98.5 44.5t95.5 92.5l317 412l-372 510q-44 61 -66.5 80t-60.5 22v43q93 -6 166 -6q121 0 289 6v-43q-129 0 -129 -34q0 -15 16 -35l299 -410l240 311q34 45 34 85q0 38 -32.5 61.5t-96.5 23.5v41q117 -6 232 -6q87 0 137 6v-41q-45 -5 -97 -41.5t-99 -97.5 l-292 -378l394 -542q40 -54 66 -75t61 -27v-43q-93 6 -166 6q-121 0 -289 -6v43q67 0 98 7.5t31 27.5q0 15 -16 35l-319 439l-259 -339q-35 -47 -35 -89q0 -38 30.5 -60.5t92.5 -22.5v-41q-115 6 -231 6q-22 0 -70.5 -2.5t-66.5 -3.5z" />
<glyph unicode="y" horiz-adv-x="1174" d="M-4 1202v43q130 -8 180 -8q142 0 287 8v-43q-34 0 -55 -1.5t-44.5 -7t-34.5 -19t-11 -34.5q0 -36 36 -96l310 -515l254 446q46 82 46 132q0 86 -143 95v43q77 -8 174 -8q117 0 158 8v-43q-35 -9 -64 -39.5t-67 -99.5l-322 -575v-271q0 -77 13.5 -112t46 -48t106.5 -16 v-41q-94 6 -260 6q-176 0 -262 -6v41q74 3 106.5 16t46 48t13.5 112v212l-395 658q-40 66 -65 88t-54 27z" />
<glyph unicode="z" horiz-adv-x="1178" d="M106 0v41l723 1157h-430q-107 0 -162 -77t-71 -265h-47q6 64 6 168q0 98 -14 221q145 -6 489 -6q313 0 457 6v-41l-723 -1157h450q107 0 162 77t72 265h47q-6 -65 -6 -168q0 -98 14 -221q-145 6 -489 6q-328 0 -478 -6z" />
<glyph unicode="{" horiz-adv-x="623" d="M55 594v37h11q38 2 64 18t44 49t28 92t14.5 139t4.5 199q0 183 33.5 284.5t107.5 145.5t207 44v-39q-36 -1 -58.5 -6.5t-42.5 -22.5t-30.5 -44.5t-18.5 -77.5t-10.5 -117t-2.5 -167q0 -107 -16.5 -190.5t-42.5 -137.5t-65.5 -93t-79 -59.5t-89.5 -35.5q50 -15 89.5 -35.5 t79 -60t65.5 -93t42.5 -137t16.5 -190.5q0 -104 2.5 -173t10.5 -120t18 -78.5t30.5 -44t42.5 -21t59 -5.5v-39q-101 0 -165 22t-106 77.5t-59.5 147t-17.5 234.5q0 149 -6.5 239t-24.5 149t-47 82.5t-77 27.5h-11z" />
<glyph unicode="|" horiz-adv-x="455" d="M186 -399v2156h82v-2156h-82z" />
<glyph unicode="}" horiz-adv-x="623" d="M54 -346q37 1 59 5.5t42.5 21t30.5 44t18 78.5t10.5 120t2.5 173q0 107 16.5 190.5t42.5 137t65.5 93t79 60t89.5 35.5q-50 15 -89.5 35.5t-79 59.5t-65.5 93t-42.5 137.5t-16.5 190.5q0 100 -2.5 167t-10.5 117t-18.5 77.5t-30.5 44.5t-42.5 22.5t-58.5 6.5v39 q133 0 207 -44t107.5 -145.5t33.5 -284.5q0 -119 4.5 -199t14.5 -139t28 -92t44 -49t64 -18h11v-37h-11q-48 -4 -77 -27.5t-47 -82.5t-24.5 -149t-6.5 -239q0 -143 -17.5 -234.5t-59.5 -147t-106 -77.5t-165 -22v39z" />
<glyph unicode="~" horiz-adv-x="1329" d="M152 530q12 99 94 158.5t194 59.5q67 0 139.5 -24.5t125.5 -54.5t123 -54.5t133 -24.5q134 0 184 119l35 -11q-12 -99 -94.5 -158t-194.5 -59q-67 0 -139.5 24.5t-125.5 54.5t-122.5 54.5t-132.5 24.5q-135 0 -185 -119z" />
<glyph unicode="&#xa1;" horiz-adv-x="510" d="M125 952q0 54 38.5 92.5t92.5 38.5t92.5 -38.5t38.5 -92.5q0 -53 -38.5 -92t-92.5 -39t-92.5 39t-38.5 92zM160 -270q0 68 38 391.5t38 529.5h36q0 -206 38 -529.5t38 -391.5q0 -59 -26 -87t-68 -28q-41 0 -67.5 28.5t-26.5 86.5z" />
<glyph unicode="&#xa2;" horiz-adv-x="971" d="M86 610q0 236 111.5 404.5t300.5 229.5v206h45v-194q72 18 153 18q99 0 168.5 -34t146.5 -99q25 -20 40 -20q42 0 52 124h48q-9 -118 -9 -430h-47q-20 107 -40.5 157.5t-61.5 104.5q-58 76 -137.5 116t-167.5 40q-78 0 -145 -32v-1151q74 -38 159 -38q91 0 174 40 t139 116q40 53 59.5 112.5t35.5 170.5h47q0 -323 8 -451h-47q-10 124 -51 124q-16 0 -41 -20q-78 -65 -152.5 -99t-179.5 -34q-79 0 -151 15v-357h-45v367q-193 54 -302.5 212.5t-109.5 401.5zM290 618q0 -194 55.5 -331.5t152.5 -208.5v1096q-99 -69 -153.5 -212.5 t-54.5 -343.5z" />
<glyph unicode="&#xa3;" horiz-adv-x="1233" d="M72 -8q0 30 59 82t125 76q14 66 18.5 144.5t4.5 233.5v80h-158v41h158v164h-158v41h158v45q0 608 454 608q121 0 193 -55q61 -49 61 -113q0 -43 -28.5 -71.5t-67.5 -28.5q-37 0 -65.5 26t-28.5 66q0 71 67 96q-4 20 -43.5 35t-83.5 15q-39 0 -71.5 -7t-57 -22.5 t-44.5 -33t-34.5 -46.5t-25 -54t-17 -63.5t-10.5 -68t-5.5 -75t-2 -76t-0.5 -79.5v-98h297v-41h-297v-164h297v-41h-298q-4 -122 -35.5 -218t-96.5 -210q87 41 176 41q69 0 204.5 -46t215.5 -46q69 0 104 33.5t35 83.5q0 69 -47 114.5t-127 61.5l8 33q108 -17 185 -84 t77 -172q0 -93 -59 -160.5t-164 -67.5q-55 0 -114 21.5t-102.5 49t-99.5 59.5t-98 46q-43 17 -100 17q-58 0 -113 -21q-47 -81 -103 -126.5t-110 -45.5q-32 0 -32 21z" />
<glyph unicode="&#xa4;" horiz-adv-x="1096" d="M158 283l88 88q-86 105 -86 243q0 139 88 246l-90 90l57 58l90 -90q107 86 244 86q136 0 244 -89l92 93l57 -58l-92 -92q86 -109 86 -244q0 -138 -86 -243l90 -88l-57 -60l-90 90q-110 -86 -244 -86q-139 0 -244 84l-88 -88zM244 614q0 -127 90 -219t215 -92 q124 0 213.5 91.5t89.5 219.5q0 127 -89.5 220.5t-213.5 93.5q-126 0 -215.5 -93t-89.5 -221z" />
<glyph unicode="&#xa5;" horiz-adv-x="1325" d="M55 1407v43q80 -6 180 -6q199 0 287 6v-43q-144 0 -144 -79q0 -30 21 -71l340 -651h2l260 518q56 113 56 176q0 58 -45 82.5t-136 26.5v41q117 -6 236 -6q92 0 153 6v-41q-41 -9 -80 -51.5t-84 -130.5l-313 -621h279v-41h-287v-164h287v-41h-287v-143q0 -58 5.5 -89.5 t25.5 -51.5t49.5 -26.5t85.5 -8.5v-41q-96 6 -260 6q-176 0 -263 -6v41q56 2 85.5 8.5t49.5 26.5t25.5 51.5t5.5 89.5v143h-286v41h286v125l-21 39h-265v41h243l-372 686q-38 69 -65.5 92t-53.5 23z" />
<glyph unicode="&#xa6;" horiz-adv-x="459" d="M188 -399v1067h82v-1067h-82zM188 786v971h82v-971h-82z" />
<glyph unicode="&#xa7;" horiz-adv-x="1040" d="M84 639q0 224 235 354q-71 65 -108 133.5t-37 153.5q0 144 98.5 233t262.5 89q92 0 182 -35q73 -31 115 -81t42 -104q0 -47 -29 -78.5t-79 -31.5q-47 0 -80 30t-33 78q0 38 21.5 68t66.5 41q-19 39 -79 56.5t-119 17.5q-61 0 -106.5 -18.5t-70.5 -49t-37 -64.5t-12 -71 q0 -53 22.5 -101.5t77 -98.5t90 -77t114.5 -81q24 -17 36 -25q82 -56 131.5 -96.5t91.5 -89t60 -99.5t18 -114q0 -219 -240 -350q74 -66 112 -135.5t38 -155.5q0 -144 -98.5 -233t-261.5 -89q-98 0 -182 35q-74 31 -116 80.5t-42 103.5q0 47 29 79t79 32q48 0 80.5 -30.5 t32.5 -78.5q0 -86 -88 -108q17 -39 78 -56.5t123 -17.5q114 0 168.5 61t54.5 142q0 43 -18.5 85.5t-44 74.5t-71.5 71.5t-80 64t-91 63.5q-23 16 -35 24q-82 56 -131.5 96.5t-91.5 89t-60 99.5t-18 114zM195 741q0 -40 17 -79t40.5 -69.5t67.5 -68.5t77.5 -62.5t91.5 -64.5 q154 -106 207 -150q152 85 152 228q0 49 -22 94.5t-69.5 91t-89.5 77.5t-114 81q-154 106 -208 151q-75 -42 -112.5 -102t-37.5 -127z" />
<glyph unicode="&#xa8;" horiz-adv-x="799" d="M63 1403q0 48 35.5 83.5t83.5 35.5t83.5 -36t35.5 -83q0 -49 -35.5 -84t-83.5 -35q-49 0 -84 35t-35 84zM498 1403q0 48 35 83.5t83 35.5t83.5 -36t35.5 -83q0 -49 -35.5 -84t-83.5 -35q-49 0 -83.5 35t-34.5 84z" />
<glyph unicode="&#xa9;" horiz-adv-x="1831" d="M100 786q0 166 64.5 317t173.5 260.5t260 174t317 64.5t317 -64.5t260.5 -174t174 -260.5t64.5 -317t-64.5 -317t-174 -260t-260.5 -173.5t-317 -64.5t-317 64.5t-260 173.5t-173.5 260t-64.5 317zM182 786q0 -152 58 -290.5t156 -239t234 -160t285 -59.5q150 0 286 59.5 t234 160t156 239t58 290.5q0 153 -58 291.5t-156.5 239t-234 160t-285.5 59.5q-149 0 -285 -59.5t-234 -160t-156 -239t-58 -291.5zM471 774q0 252 133 410.5t346 158.5q151 0 246 -71q86 -60 86 -152q0 -53 -30.5 -83.5t-77.5 -30.5q-48 0 -80.5 30t-32.5 80q0 42 23 69 t63 36q-20 37 -73 61.5t-111 24.5q-101 0 -177 -80q-116 -128 -116 -428q0 -128 23.5 -223t65 -150t92.5 -81t112 -26q89 0 168.5 51t130.5 160l38 -14q-16 -53 -45.5 -101t-74.5 -90.5t-110.5 -68t-143.5 -25.5q-197 0 -326 147.5t-129 395.5z" />
<glyph unicode="&#xaa;" horiz-adv-x="948" d="M117 897q0 34 14 63t34.5 49.5t58.5 41.5t71.5 35t87.5 34q32 12 47.5 18.5t42 19t39.5 22.5t24 25t11 30v37q0 89 -35 128.5t-104 39.5q-85 0 -152 -43q30 -9 50 -34.5t20 -62.5q0 -39 -27 -64.5t-63 -25.5q-45 0 -72 25.5t-27 67.5q0 81 99 129q99 47 225 47 q132 0 191 -61.5t59 -198.5v-334q0 -43 11.5 -59.5t39.5 -16.5q49 0 84 35l22 -31q-80 -76 -184 -76q-73 0 -103.5 24.5t-33.5 72.5q-100 -97 -240 -97q-77 0 -133.5 41t-56.5 119zM285 934q0 -56 31 -90.5t81 -34.5q77 0 150 65v297q-8 -17 -31.5 -32.5t-83.5 -42.5 q-77 -35 -112 -72t-35 -90z" />
<glyph unicode="&#xab;" horiz-adv-x="1028" d="M66 526v2q158 88 270.5 223.5t200.5 331.5l34 -14q-71 -191 -155 -313.5t-197 -220.5q110 -96 194.5 -225.5t157.5 -323.5l-34 -15q-88 196 -200.5 332t-270.5 223zM424 526v2q158 88 270.5 223.5t200.5 331.5l35 -14q-72 -191 -155.5 -313.5t-196.5 -220.5 q110 -96 194.5 -225t157.5 -324l-35 -15q-88 196 -200.5 332t-270.5 223z" />
<glyph unicode="&#xac;" horiz-adv-x="1343" d="M168 696v62h1026v-420h-74v358h-952z" />
<glyph unicode="&#xad;" horiz-adv-x="1022" />
<glyph unicode="&#xae;" horiz-adv-x="1389" d="M123 1030q0 155 76.5 287t208 208.5t286.5 76.5t287 -76.5t208.5 -208.5t76.5 -287t-76.5 -286.5t-208.5 -208t-287 -76.5t-286.5 76.5t-208 208t-76.5 286.5zM209 1030q0 -136 64.5 -252.5t176.5 -185t244 -68.5q133 0 245 68.5t176.5 185t64.5 252.5q0 137 -64.5 253 t-176.5 184.5t-245 68.5t-244.5 -68.5t-176 -184.5t-64.5 -253zM438 721v31q30 3 38.5 16t8.5 59v449q0 48 -8.5 61.5t-38.5 16.5v30q25 -2 99 -2q43 0 105 1t71 1q115 0 176 -42t61 -119q0 -139 -198 -174q81 -9 116 -37t45 -82l25 -117q1 -5 3 -14.5t3 -14.5t3 -12.5 t4.5 -11t5.5 -8t7.5 -6t10.5 -1.5q15 0 24 17l21 -14q-21 -43 -90 -43q-52 0 -77 19.5t-36 63.5l-35 152q-12 58 -43 75t-137 19v-207q0 -46 8.5 -59t38.5 -16v-31q-12 0 -48 1t-56 1q-24 0 -60.5 -1t-46.5 -1zM602 1067h49q101 0 136.5 35t35.5 100q0 79 -32.5 115.5 t-110.5 36.5q-49 0 -63.5 -13t-14.5 -55v-219z" />
<glyph unicode="&#xaf;" horiz-adv-x="741" d="M51 1407v51h639v-51h-639z" />
<glyph unicode="&#xb0;" horiz-adv-x="682" d="M92 1434q0 110 73 177.5t175 67.5q104 0 177 -67.5t73 -177.5q0 -112 -73 -180t-177 -68q-102 0 -175 68t-73 180zM143 1432q0 -101 60 -156t137 -55t138 55.5t61 155.5q0 98 -61.5 155.5t-137.5 57.5t-136.5 -57.5t-60.5 -155.5z" />
<glyph unicode="&#xb1;" horiz-adv-x="1313" d="M129 696v62h477v483h74v-483h475v-62h-475v-481h-74v481h-477zM150 0v62h1026v-62h-1026z" />
<glyph unicode="&#xb2;" horiz-adv-x="692" d="M72 897v41q23 20 82 63.5t99 77.5t85.5 81t69.5 99t24 107q0 111 -133 111q-124 0 -195 -111l-30 16q38 71 109.5 117.5t172.5 46.5q93 0 149 -39t56 -114q0 -47 -23 -91.5t-63 -82.5t-81 -70t-89.5 -70t-75.5 -67h271q45 0 63 15t33 54l35 -6q-28 -104 -31 -184 q-25 6 -78 6h-450z" />
<glyph unicode="&#xb3;" horiz-adv-x="664" d="M57 1384q38 71 110 117.5t177 46.5q94 0 150.5 -39t56.5 -110q0 -68 -52.5 -118.5t-138.5 -74.5q100 -2 169 -50.5t69 -133.5q0 -91 -82.5 -163.5t-202.5 -109t-247 -36.5v35q161 5 284 84.5t123 189.5q0 70 -40.5 114.5t-108.5 47.5q-7 -3 -21 -10.5t-20 -10t-15.5 -5.5 t-17.5 -3q-33 0 -33 25q0 32 90 28q62 26 88.5 68t26.5 84q0 54 -38 86.5t-101 32.5q-127 0 -195 -111z" />
<glyph unicode="&#xb4;" horiz-adv-x="457" d="M41 1245q66 104 130 227.5t93 161.5q35 46 78 46q26 0 45 -15q28 -23 28 -57q0 -33 -28 -70q-30 -38 -134.5 -129.5t-189.5 -181.5z" />
<glyph unicode="&#xb6;" horiz-adv-x="1321" d="M72 737q0 210 85.5 370.5t253 252.5t394.5 92q58 0 160.5 -3.5t148.5 -3.5q72 0 123 5v-39q-95 -4 -126.5 -35.5t-31.5 -103.5v-1426q0 -77 13.5 -112t46 -48t106.5 -16v-41q-95 6 -260 6q-204 0 -303 -6v41q126 4 166.5 44.5t40.5 152.5v106q-177 0 -316.5 38 t-232.5 105t-154 164t-87.5 209.5t-26.5 247.5zM254 719q0 -4 74.5 -11t213.5 -12.5t285 -5.5q2 -153 15.5 -297.5t27.5 -219.5t21 -75v1245q-7 0 -21 -78t-27.5 -223t-15.5 -292q-144 0 -284.5 -6.5t-214.5 -14t-74 -10.5z" />
<glyph unicode="&#xb7;" horiz-adv-x="541" d="M139 548q0 54 38.5 92.5t92.5 38.5t92.5 -38.5t38.5 -92.5q0 -53 -38.5 -92t-92.5 -39t-92.5 39t-38.5 92z" />
<glyph unicode="&#xb8;" horiz-adv-x="467" d="M20 -362l9 36q42 -6 77 -6q74 0 129.5 21.5t55.5 70.5q0 58 -86 58q-59 0 -101 -15l70 209h55l-53 -159q61 14 121 14q58 0 91.5 -25.5t33.5 -70.5q0 -54 -38.5 -91t-88.5 -51t-105 -14q-105 0 -170 23z" />
<glyph unicode="&#xb9;" horiz-adv-x="539" d="M70 1436v43q105 2 172.5 16t122.5 47v-504q0 -58 30.5 -79t106.5 -21v-43q-78 4 -199 4q-133 0 -219 -4v43q76 0 114 21.5t38 78.5v265q0 86 -32.5 109.5t-133.5 23.5z" />
<glyph unicode="&#xba;" horiz-adv-x="930" d="M102 1108q0 71 20.5 132t55.5 104.5t81.5 74t98.5 45.5t107 15q93 0 173.5 -40.5t134.5 -127t54 -203.5t-54 -203.5t-134.5 -127t-173.5 -40.5q-55 0 -107 15t-98.5 45.5t-81.5 74t-55.5 104.5t-20.5 132zM272 1108q0 -169 54 -251.5t139 -82.5q84 0 138 82.5t54 251.5 t-54 251.5t-138 82.5q-85 0 -139 -82.5t-54 -251.5z" />
<glyph unicode="&#xbb;" horiz-adv-x="1026" d="M98 -16q72 191 155.5 313t197.5 221q-110 96 -194.5 225t-158.5 324l35 14q88 -196 200.5 -331.5t270.5 -223.5v-2q-158 -88 -270.5 -223.5t-200.5 -331.5zM457 -16q71 190 154.5 312.5t197.5 221.5q-110 96 -194.5 225.5t-157.5 323.5l35 14q87 -196 199.5 -331.5 t271.5 -223.5v-2q-159 -88 -271.5 -223.5t-199.5 -331.5z" />
<glyph unicode="&#xbc;" horiz-adv-x="1419" d="M103 1436v43q105 2 172.5 16t122.5 47v-504q0 -58 30.5 -79t106.5 -21v-43q-78 4 -199 4q-133 0 -219 -4v43q76 0 114 21.5t38 78.5v265q0 86 -32.5 109.5t-133.5 23.5zM131 -86l1198 1774l39 -27l-1198 -1774zM613 37v43l469 541h43v-500h16q46 0 63 15t33 54l35 -6 q-25 -86 -29 -153q-24 6 -77 6h-41v-240h-115v240h-397zM694 121h316v367z" />
<glyph unicode="&#xbd;" horiz-adv-x="1434" d="M98 -86l1198 1774l39 -27l-1198 -1774zM119 1436v43q105 2 172.5 16t122.5 47v-504q0 -58 30.5 -79t106.5 -21v-43q-78 4 -199 4q-133 0 -219 -4v43q76 0 114 21.5t38 78.5v265q0 86 -32.5 109.5t-133.5 23.5zM795 2v41q23 20 82 63.5t99 77.5t85.5 81t69.5 99t24 107 q0 111 -133 111q-124 0 -195 -111l-30 16q38 71 109.5 117.5t172.5 46.5q93 0 149 -39t56 -114q0 -47 -23 -91.5t-63 -82.5t-81 -70t-89.5 -70t-75.5 -67h271q45 0 63 15t33 54l35 -6q-28 -104 -31 -184q-25 6 -78 6h-450z" />
<glyph unicode="&#xbe;" horiz-adv-x="1524" d="M104 1384q38 71 110 117.5t177 46.5q94 0 150.5 -39t56.5 -110q0 -68 -52.5 -118.5t-138.5 -74.5q100 -2 169 -50.5t69 -133.5q0 -91 -82.5 -163.5t-202.5 -109t-247 -36.5v35q161 5 284 84.5t123 189.5q0 70 -40.5 114.5t-108.5 47.5q-7 -3 -21 -10.5t-20 -10 t-15.5 -5.5t-17.5 -3q-33 0 -33 25q0 32 90 28q62 26 88.5 68t26.5 84q0 54 -38 86.5t-101 32.5q-128 0 -195 -111zM227 -86l1198 1774l39 -27l-1198 -1774zM709 37v43l469 541h43v-500h16q46 0 63 15t33 54l35 -6q-25 -86 -29 -153q-24 6 -77 6h-41v-240h-115v240h-397z M790 121h316v367z" />
<glyph unicode="&#xbf;" horiz-adv-x="928" d="M63 -37q0 161 124.5 273t336.5 161v258h41v-276q-99 -34 -164 -76t-98 -92t-45 -98t-12 -111q0 -176 76 -261t210 -85q143 0 201 53q-40 8 -63 34.5t-23 70.5q0 50 32.5 80t80.5 30q47 0 77.5 -30.5t30.5 -77.5q0 -85 -96 -142q-101 -59 -278 -59q-194 0 -312.5 93.5 t-118.5 254.5zM412 954q0 54 38.5 92.5t92.5 38.5t92.5 -38.5t38.5 -92.5q0 -53 -38.5 -92t-92.5 -39t-92.5 39t-38.5 92z" />
<glyph unicode="&#xc0;" horiz-adv-x="1290" d="M-14 0v41q102 23 161 178l482 1241h33l499 -1288q50 -127 142 -131v-41q-84 6 -220 6q-175 0 -262 -6v41q78 3 111.5 19t33.5 57q0 35 -24 96l-126 336h-494l-84 -217q-41 -104 -41 -168q0 -65 43.5 -93t134.5 -30v-41q-117 6 -236 6q-92 0 -153 -6zM290 1844q0 19 11 38 q23 34 63 34q31 0 62 -20q41 -26 143.5 -119.5t200.5 -168.5l-14 -27q-112 57 -242 107.5t-170 74.5q-54 36 -54 81zM337 590h464l-229 611z" />
<glyph unicode="&#xc1;" horiz-adv-x="1290" d="M-14 0v41q102 23 161 178l482 1241h33l499 -1288q50 -127 142 -131v-41q-84 6 -220 6q-175 0 -262 -6v41q78 3 111.5 19t33.5 57q0 35 -24 96l-126 336h-494l-84 -217q-41 -104 -41 -168q0 -65 43.5 -93t134.5 -30v-41q-117 6 -236 6q-92 0 -153 -6zM337 590h464 l-229 611zM508 1608q98 75 200.5 168.5t143.5 119.5q31 20 62 20q40 0 63 -34q11 -19 11 -38q0 -45 -54 -81q-40 -24 -170 -74.5t-242 -107.5z" />
<glyph unicode="&#xc2;" horiz-adv-x="1290" d="M-14 0v41q102 23 161 178l482 1241h33l499 -1288q50 -127 142 -131v-41q-84 6 -220 6q-175 0 -262 -6v41q78 3 111.5 19t33.5 57q0 35 -24 96l-126 336h-494l-84 -217q-41 -104 -41 -168q0 -65 43.5 -93t134.5 -30v-41q-117 6 -236 6q-92 0 -153 -6zM232 1606 q131 45 232.5 117.5t150.5 152.5h37q48 -80 149.5 -152.5t233.5 -117.5l-11 -29q-124 26 -243 65.5t-189 77.5q-58 -38 -154.5 -77.5t-195.5 -65.5zM337 590h464l-229 611z" />
<glyph unicode="&#xc3;" horiz-adv-x="1290" d="M-14 0v41q102 23 161 178l482 1241h33l499 -1288q50 -127 142 -131v-41q-84 6 -220 6q-175 0 -262 -6v41q78 3 111.5 19t33.5 57q0 35 -24 96l-126 336h-494l-84 -217q-41 -104 -41 -168q0 -65 43.5 -93t134.5 -30v-41q-117 6 -236 6q-92 0 -153 -6zM240 1630 q9 99 74 158t153 59q51 0 106.5 -24.5t96.5 -54t94.5 -54t100.5 -24.5q95 0 127 114l30 -6q-9 -99 -73.5 -158t-153.5 -59q-42 0 -85 16.5t-80 39.5l-74 46t-78 39.5t-80 16.5q-96 0 -127 -115zM337 590h464l-229 611z" />
<glyph unicode="&#xc4;" horiz-adv-x="1290" d="M-14 0v41q102 23 161 178l482 1241h33l499 -1288q50 -127 142 -131v-41q-84 6 -220 6q-175 0 -262 -6v41q78 3 111.5 19t33.5 57q0 35 -24 96l-126 336h-494l-84 -217q-41 -104 -41 -168q0 -65 43.5 -93t134.5 -30v-41q-117 6 -236 6q-92 0 -153 -6zM297 1700 q0 48 35 83.5t84 35.5q47 0 83 -36t36 -83q0 -49 -35.5 -84t-83.5 -35q-50 0 -84.5 34.5t-34.5 84.5zM337 590h464l-229 611zM731 1700q0 48 35.5 83.5t83.5 35.5t83.5 -36t35.5 -83q0 -49 -35.5 -84t-83.5 -35q-49 0 -84 35t-35 84z" />
<glyph unicode="&#xc5;" horiz-adv-x="1290" d="M-14 0v41q102 23 161 178l482 1241h33l499 -1288q50 -127 142 -131v-41q-84 6 -220 6q-175 0 -262 -6v41q78 3 111.5 19t33.5 57q0 35 -24 96l-126 336h-494l-84 -217q-41 -104 -41 -168q0 -65 43.5 -93t134.5 -30v-41q-117 6 -236 6q-92 0 -153 -6zM337 590h464 l-229 611zM437 1708q0 83 57.5 134.5t138.5 51.5q83 0 141 -51t58 -135q0 -85 -58 -136.5t-141 -51.5q-81 0 -138.5 51.5t-57.5 136.5zM494 1706q0 -67 42.5 -105t96.5 -38q56 0 99 38t43 105q0 66 -43.5 105.5t-98.5 39.5q-53 0 -96 -39.5t-43 -105.5z" />
<glyph unicode="&#xc6;" horiz-adv-x="1749" d="M-20 0v41q33 2 66 31.5t75 99.5l718 1184q-15 29 -48 39.5t-101 13.5v41q61 -2 203 -4l82 135h49l-82 -136q113 -1 281 -1q272 0 387 6q-15 -131 -15 -242q0 -84 7 -127h-48q-7 80 -14 127.5t-21 89.5t-36.5 62.5t-56.5 31.5t-85 11h-129q-106 0 -135.5 -29.5 t-29.5 -140.5v-483h149q34 0 60 12.5t40 28t24 44.5t13 47t7 52.5t6 44.5h47q-8 -104 -8 -171q0 -16 0.5 -41.5t0.5 -37.5q0 -75 13 -250h-47l-3 24q-11 105 -33 144q-35 61 -120 62h-149v-492q0 -111 29.5 -140.5t135.5 -29.5h150q51 0 85.5 6.5t59.5 29t38.5 43t24 71.5 t14.5 90.5t11 122.5h47q-6 -55 -6 -148q0 -120 15 -262q-127 6 -428 6q-322 0 -492 -6v41q57 3 81.5 16.5t34 48t9.5 111.5v492h-358l-299 -496q-38 -64 -38 -100t35 -52.5t107 -19.5v-41q-61 6 -186 6q-86 0 -137 -6zM523 750h333v483q0 38 -3 65z" />
<glyph unicode="&#xc7;" horiz-adv-x="1409" d="M109 713q0 226 83 400.5t231 270t337 95.5q122 0 208.5 -35t168.5 -98q22 -18 40 -18q42 0 52 122h47q-8 -133 -8 -471h-47q-22 134 -41 191.5t-62 111.5q-62 80 -157 120t-205 40q-201 0 -322 -195t-121 -526q0 -334 129.5 -521.5t333.5 -187.5q102 0 199 39t151 117 q42 56 60 121.5t35 202.5h47q0 -353 8 -492h-47q-5 64 -16.5 92.5t-33.5 28.5q-16 0 -42 -17q-90 -63 -169.5 -96.5t-191.5 -36.5l-41 -118q61 14 121 14q58 0 91.5 -25.5t33.5 -70.5q0 -54 -38.5 -91t-88.5 -51t-104 -14q-105 0 -170 23l8 36q42 -6 78 -6q74 0 129 21.5 t55 70.5q0 58 -86 58q-58 0 -100 -15l56 169q-280 13 -445.5 209t-165.5 532z" />
<glyph unicode="&#xc8;" horiz-adv-x="1247" d="M86 0v41q74 3 106.5 16t46 48t13.5 112v1016q0 77 -13.5 112t-46 48t-106.5 16v41q201 -6 594 -6q301 0 428 6q-14 -134 -14 -242q0 -80 6 -127h-47q-7 67 -14.5 108.5t-20.5 81.5t-31 62t-47 39.5t-68 24t-94 6.5h-170q-106 0 -136 -30t-30 -140v-483h136q37 0 65.5 9 t47.5 28t31.5 37.5t20.5 49t11.5 49.5t7.5 52t6 45h47q-7 -102 -7 -193q0 -20 0.5 -52t0.5 -46q0 -104 12 -291h-47q-14 115 -23 146q-28 99 -116 119q-25 6 -57 6h-136v-492q0 -110 30 -140t136 -30h150q97 0 156.5 17.5t96.5 63.5t54 109.5t29 172.5h47q-6 -55 -6 -148 q0 -116 14 -262q-139 6 -469 6q-393 0 -594 -6zM284 1844q0 19 11 38q23 34 63 34q31 0 62 -20q41 -26 143.5 -119.5t200.5 -168.5l-14 -27q-112 57 -242 107.5t-170 74.5q-54 36 -54 81z" />
<glyph unicode="&#xc9;" horiz-adv-x="1247" d="M86 0v41q74 3 106.5 16t46 48t13.5 112v1016q0 77 -13.5 112t-46 48t-106.5 16v41q201 -6 594 -6q301 0 428 6q-14 -134 -14 -242q0 -80 6 -127h-47q-7 67 -14.5 108.5t-20.5 81.5t-31 62t-47 39.5t-68 24t-94 6.5h-170q-106 0 -136 -30t-30 -140v-483h136q37 0 65.5 9 t47.5 28t31.5 37.5t20.5 49t11.5 49.5t7.5 52t6 45h47q-7 -102 -7 -193q0 -20 0.5 -52t0.5 -46q0 -104 12 -291h-47q-14 115 -23 146q-28 99 -116 119q-25 6 -57 6h-136v-492q0 -110 30 -140t136 -30h150q97 0 156.5 17.5t96.5 63.5t54 109.5t29 172.5h47q-6 -55 -6 -148 q0 -116 14 -262q-139 6 -469 6q-393 0 -594 -6zM502 1608q98 75 200.5 168.5t143.5 119.5q31 20 62 20q40 0 63 -34q11 -19 11 -38q0 -45 -54 -81q-40 -24 -170 -74.5t-242 -107.5z" />
<glyph unicode="&#xca;" horiz-adv-x="1247" d="M86 0v41q74 3 106.5 16t46 48t13.5 112v1016q0 77 -13.5 112t-46 48t-106.5 16v41q201 -6 594 -6q301 0 428 6q-14 -134 -14 -242q0 -80 6 -127h-47q-7 67 -14.5 108.5t-20.5 81.5t-31 62t-47 39.5t-68 24t-94 6.5h-170q-106 0 -136 -30t-30 -140v-483h136q37 0 65.5 9 t47.5 28t31.5 37.5t20.5 49t11.5 49.5t7.5 52t6 45h47q-7 -102 -7 -193q0 -20 0.5 -52t0.5 -46q0 -104 12 -291h-47q-14 115 -23 146q-28 99 -116 119q-25 6 -57 6h-136v-492q0 -110 30 -140t136 -30h150q97 0 156.5 17.5t96.5 63.5t54 109.5t29 172.5h47q-6 -55 -6 -148 q0 -116 14 -262q-139 6 -469 6q-393 0 -594 -6zM226 1606q131 45 232.5 117.5t150.5 152.5h37q48 -80 149.5 -152.5t233.5 -117.5l-11 -29q-124 26 -243 65.5t-189 77.5q-58 -38 -154.5 -77.5t-195.5 -65.5z" />
<glyph unicode="&#xcb;" horiz-adv-x="1247" d="M86 0v41q74 3 106.5 16t46 48t13.5 112v1016q0 77 -13.5 112t-46 48t-106.5 16v41q201 -6 594 -6q301 0 428 6q-14 -134 -14 -242q0 -80 6 -127h-47q-7 67 -14.5 108.5t-20.5 81.5t-31 62t-47 39.5t-68 24t-94 6.5h-170q-106 0 -136 -30t-30 -140v-483h136q37 0 65.5 9 t47.5 28t31.5 37.5t20.5 49t11.5 49.5t7.5 52t6 45h47q-7 -102 -7 -193q0 -20 0.5 -52t0.5 -46q0 -104 12 -291h-47q-14 115 -23 146q-28 99 -116 119q-25 6 -57 6h-136v-492q0 -110 30 -140t136 -30h150q97 0 156.5 17.5t96.5 63.5t54 109.5t29 172.5h47q-6 -55 -6 -148 q0 -116 14 -262q-139 6 -469 6q-393 0 -594 -6zM291 1700q0 48 35 83.5t84 35.5q47 0 83 -36t36 -83q0 -49 -35.5 -84t-83.5 -35q-50 0 -84.5 34.5t-34.5 84.5zM725 1700q0 48 35.5 83.5t83.5 35.5t83.5 -36t35.5 -83q0 -49 -35.5 -84t-83.5 -35q-49 0 -84 35t-35 84z" />
<glyph unicode="&#xcc;" d="M5 1844q0 19 11 38q23 34 63 34q31 0 62 -20q41 -26 143.5 -119.5t200.5 -168.5l-14 -27q-112 57 -242 107.5t-170 74.5q-54 36 -54 81zM86 0v41q74 3 106.5 16t46 48t13.5 112v1016q0 77 -13.5 112t-46 48t-106.5 16v41q85 -6 262 -6q166 0 260 6v-41q-74 -3 -106.5 -16 t-46 -48t-13.5 -112v-1016q0 -77 13.5 -112t46 -48t106.5 -16v-41q-94 6 -260 6q-176 0 -262 -6z" />
<glyph unicode="&#xcd;" d="M86 0v41q74 3 106.5 16t46 48t13.5 112v1016q0 77 -13.5 112t-46 48t-106.5 16v41q85 -6 262 -6q166 0 260 6v-41q-74 -3 -106.5 -16t-46 -48t-13.5 -112v-1016q0 -77 13.5 -112t46 -48t106.5 -16v-41q-94 6 -260 6q-176 0 -262 -6zM223 1608q98 75 200.5 168.5 t143.5 119.5q31 20 62 20q40 0 63 -34q11 -19 11 -38q0 -45 -54 -81q-40 -24 -170 -74.5t-242 -107.5z" />
<glyph unicode="&#xce;" d="M-53 1606q131 45 232.5 117.5t150.5 152.5h37q48 -80 149.5 -152.5t233.5 -117.5l-11 -29q-124 26 -243 65.5t-189 77.5q-58 -38 -154.5 -77.5t-195.5 -65.5zM86 0v41q74 3 106.5 16t46 48t13.5 112v1016q0 77 -13.5 112t-46 48t-106.5 16v41q85 -6 262 -6q166 0 260 6 v-41q-74 -3 -106.5 -16t-46 -48t-13.5 -112v-1016q0 -77 13.5 -112t46 -48t106.5 -16v-41q-94 6 -260 6q-176 0 -262 -6z" />
<glyph unicode="&#xcf;" d="M12 1700q0 48 35 83.5t84 35.5q47 0 83 -36t36 -83q0 -49 -35.5 -84t-83.5 -35q-49 0 -84 34.5t-35 84.5zM86 0v41q74 3 106.5 16t46 48t13.5 112v1016q0 77 -13.5 112t-46 48t-106.5 16v41q85 -6 262 -6q166 0 260 6v-41q-74 -3 -106.5 -16t-46 -48t-13.5 -112v-1016 q0 -77 13.5 -112t46 -48t106.5 -16v-41q-94 6 -260 6q-176 0 -262 -6zM446 1700q0 48 35.5 83.5t83.5 35.5t83.5 -36t35.5 -83q0 -49 -35.5 -84t-83.5 -35q-49 0 -84 35t-35 84z" />
<glyph unicode="&#xd0;" horiz-adv-x="1483" d="M88 0v41q74 3 106.5 16t46 48t13.5 112v492h-166v41h166v483q0 77 -13.5 112t-46 48t-106.5 16v41q110 -7 200 -7q8 0 25 0.5t25 0.5q282 6 309 6q362 0 542.5 -181t180.5 -528q0 -339 -196 -540t-545 -201q-28 0 -134 3t-153 3q-168 0 -254 -6zM444 213 q0 -108 29.5 -142t124.5 -34q111 0 197 20t148.5 61.5t105.5 99t68.5 137.5t36.5 171t11 207q0 176 -29.5 300.5t-96 211t-176 127.5t-267.5 41q-93 0 -122.5 -34.5t-29.5 -141.5v-487h285v-41h-285v-496z" />
<glyph unicode="&#xd1;" horiz-adv-x="1446" d="M86 0v41q103 4 134.5 43.5t31.5 153.5v995q0 77 -13.5 112t-46 48t-106.5 16v41q67 -6 190 -6q93 0 160 6l723 -1114v876q0 60 -6.5 94t-27 58t-56 33.5t-96.5 11.5v41q73 -6 209 -6q122 0 190 6v-41q-103 -4 -134.5 -43.5t-31.5 -153.5v-1222h-47l-860 1329v-1081 q0 -115 34.5 -154t151.5 -43v-41q-74 6 -209 6q-122 0 -190 -6zM373 1630q9 99 74 158t153 59q51 0 106.5 -24.5t96.5 -54t94.5 -54t100.5 -24.5q95 0 127 114l30 -6q-9 -99 -73.5 -158t-153.5 -59q-42 0 -85 16.5t-80 39.5l-74 46t-78 39.5t-80 16.5q-96 0 -127 -115z" />
<glyph unicode="&#xd2;" horiz-adv-x="1518" d="M109 713q0 226 83 400.5t231 270t337 95.5q296 0 472.5 -197.5t176.5 -544.5q0 -226 -83 -400.5t-231 -270t-337 -95.5q-296 0 -472.5 197.5t-176.5 544.5zM313 721q0 -320 129.5 -516.5t323.5 -196.5q131 0 231 91.5t153.5 255t53.5 374.5q0 320 -129.5 516.5 t-322.5 196.5q-131 0 -231.5 -91.5t-154 -255t-53.5 -374.5zM413 1844q0 19 11 38q23 34 63 34q31 0 62 -20q41 -26 143.5 -119.5t200.5 -168.5l-14 -27q-112 57 -242 107.5t-170 74.5q-54 36 -54 81z" />
<glyph unicode="&#xd3;" horiz-adv-x="1518" d="M109 713q0 226 83 400.5t231 270t337 95.5q296 0 472.5 -197.5t176.5 -544.5q0 -226 -83 -400.5t-231 -270t-337 -95.5q-296 0 -472.5 197.5t-176.5 544.5zM313 721q0 -320 129.5 -516.5t323.5 -196.5q131 0 231 91.5t153.5 255t53.5 374.5q0 320 -129.5 516.5 t-322.5 196.5q-131 0 -231.5 -91.5t-154 -255t-53.5 -374.5zM631 1608q98 75 200.5 168.5t143.5 119.5q31 20 62 20q40 0 63 -34q11 -19 11 -38q0 -45 -54 -81q-40 -24 -170 -74.5t-242 -107.5z" />
<glyph unicode="&#xd4;" horiz-adv-x="1518" d="M109 713q0 226 83 400.5t231 270t337 95.5q296 0 472.5 -197.5t176.5 -544.5q0 -226 -83 -400.5t-231 -270t-337 -95.5q-296 0 -472.5 197.5t-176.5 544.5zM313 721q0 -320 129.5 -516.5t323.5 -196.5q131 0 231 91.5t153.5 255t53.5 374.5q0 320 -129.5 516.5 t-322.5 196.5q-131 0 -231.5 -91.5t-154 -255t-53.5 -374.5zM355 1606q131 45 232.5 117.5t150.5 152.5h37q48 -80 149.5 -152.5t233.5 -117.5l-11 -29q-124 26 -243 65.5t-189 77.5q-58 -38 -154.5 -77.5t-195.5 -65.5z" />
<glyph unicode="&#xd5;" horiz-adv-x="1518" d="M109 713q0 226 83 400.5t231 270t337 95.5q296 0 472.5 -197.5t176.5 -544.5q0 -226 -83 -400.5t-231 -270t-337 -95.5q-296 0 -472.5 197.5t-176.5 544.5zM313 721q0 -320 129.5 -516.5t323.5 -196.5q131 0 231 91.5t153.5 255t53.5 374.5q0 320 -129.5 516.5 t-322.5 196.5q-131 0 -231.5 -91.5t-154 -255t-53.5 -374.5zM363 1630q9 99 74 158t153 59q51 0 106.5 -24.5t96.5 -54t94.5 -54t100.5 -24.5q95 0 127 114l30 -6q-9 -99 -73.5 -158t-153.5 -59q-42 0 -85 16.5t-80 39.5l-74 46t-78 39.5t-80 16.5q-96 0 -127 -115z" />
<glyph unicode="&#xd6;" horiz-adv-x="1518" d="M109 713q0 226 83 400.5t231 270t337 95.5q296 0 472.5 -197.5t176.5 -544.5q0 -226 -83 -400.5t-231 -270t-337 -95.5q-296 0 -472.5 197.5t-176.5 544.5zM313 721q0 -320 129.5 -516.5t323.5 -196.5q131 0 231 91.5t153.5 255t53.5 374.5q0 320 -129.5 516.5 t-322.5 196.5q-131 0 -231.5 -91.5t-154 -255t-53.5 -374.5zM420 1700q0 48 35 83.5t84 35.5q47 0 83 -36t36 -83q0 -49 -35.5 -84t-83.5 -35q-49 0 -84 34.5t-35 84.5zM854 1700q0 48 35.5 83.5t83.5 35.5t83.5 -36t35.5 -83q0 -49 -35.5 -84t-83.5 -35q-49 0 -84 35 t-35 84z" />
<glyph unicode="&#xd7;" horiz-adv-x="1044" d="M121 1085l45 45l358 -358l355 354l45 -45l-355 -352l355 -354l-45 -45l-355 354l-356 -356l-45 45l356 354z" />
<glyph unicode="&#xd8;" horiz-adv-x="1518" d="M109 713q0 226 83 400.5t231 270t337 95.5q236 0 398 -127l159 231l39 -27l-161 -236q103 -96 158.5 -244t55.5 -339q0 -226 -83 -400.5t-231 -270t-337 -95.5q-234 0 -398 127l-167 -248l-43 29l172 252q-213 200 -213 582zM313 721q0 -279 103 -472l657 999 q-61 93 -144 143.5t-177 50.5q-131 0 -231.5 -91.5t-154 -255t-53.5 -374.5zM446 200q61 -93 143.5 -142.5t176.5 -49.5q131 0 231 91.5t153.5 255t53.5 374.5q0 282 -103 472z" />
<glyph unicode="&#xd9;" horiz-adv-x="1397" d="M55 1409v41q87 -6 262 -6q165 0 261 6v-41q-56 -2 -85.5 -8.5t-49.5 -26.5t-25.5 -51.5t-5.5 -89.5v-678q0 -79 4 -136.5t15 -120.5t33.5 -105.5t57 -78.5t88.5 -53.5t125 -17.5q113 0 191.5 39t121.5 113t61.5 165.5t18.5 212.5v639q0 111 -40 151.5t-146 45.5v41 q74 -6 209 -6q123 0 190 6v-41q-102 -4 -133.5 -43t-31.5 -154v-616q0 -291 -84 -434q-52 -88 -151.5 -139.5t-223.5 -51.5q-225 0 -344 111q-90 84 -121 190t-31 318v643q0 58 -5.5 89.5t-25.5 51.5t-49.5 26.5t-85.5 8.5zM378 1844q0 19 11 38q23 34 63 34q31 0 62 -20 q41 -26 143.5 -119.5t200.5 -168.5l-14 -27q-112 57 -242 107.5t-170 74.5q-54 36 -54 81z" />
<glyph unicode="&#xda;" horiz-adv-x="1397" d="M55 1409v41q87 -6 262 -6q165 0 261 6v-41q-56 -2 -85.5 -8.5t-49.5 -26.5t-25.5 -51.5t-5.5 -89.5v-678q0 -79 4 -136.5t15 -120.5t33.5 -105.5t57 -78.5t88.5 -53.5t125 -17.5q113 0 191.5 39t121.5 113t61.5 165.5t18.5 212.5v639q0 111 -40 151.5t-146 45.5v41 q74 -6 209 -6q123 0 190 6v-41q-102 -4 -133.5 -43t-31.5 -154v-616q0 -291 -84 -434q-52 -88 -151.5 -139.5t-223.5 -51.5q-225 0 -344 111q-90 84 -121 190t-31 318v643q0 58 -5.5 89.5t-25.5 51.5t-49.5 26.5t-85.5 8.5zM596 1608q98 75 200.5 168.5t143.5 119.5 q31 20 62 20q40 0 63 -34q11 -19 11 -38q0 -45 -54 -81q-40 -24 -170 -74.5t-242 -107.5z" />
<glyph unicode="&#xdb;" horiz-adv-x="1397" d="M55 1409v41q87 -6 262 -6q165 0 261 6v-41q-56 -2 -85.5 -8.5t-49.5 -26.5t-25.5 -51.5t-5.5 -89.5v-678q0 -79 4 -136.5t15 -120.5t33.5 -105.5t57 -78.5t88.5 -53.5t125 -17.5q113 0 191.5 39t121.5 113t61.5 165.5t18.5 212.5v639q0 111 -40 151.5t-146 45.5v41 q74 -6 209 -6q123 0 190 6v-41q-102 -4 -133.5 -43t-31.5 -154v-616q0 -291 -84 -434q-52 -88 -151.5 -139.5t-223.5 -51.5q-225 0 -344 111q-90 84 -121 190t-31 318v643q0 58 -5.5 89.5t-25.5 51.5t-49.5 26.5t-85.5 8.5zM320 1606q131 45 232.5 117.5t150.5 152.5h37 q48 -80 149.5 -152.5t233.5 -117.5l-11 -29q-124 26 -243 65.5t-189 77.5q-58 -38 -154.5 -77.5t-195.5 -65.5z" />
<glyph unicode="&#xdc;" horiz-adv-x="1397" d="M55 1409v41q87 -6 262 -6q165 0 261 6v-41q-56 -2 -85.5 -8.5t-49.5 -26.5t-25.5 -51.5t-5.5 -89.5v-678q0 -79 4 -136.5t15 -120.5t33.5 -105.5t57 -78.5t88.5 -53.5t125 -17.5q113 0 191.5 39t121.5 113t61.5 165.5t18.5 212.5v639q0 111 -40 151.5t-146 45.5v41 q74 -6 209 -6q123 0 190 6v-41q-102 -4 -133.5 -43t-31.5 -154v-616q0 -291 -84 -434q-52 -88 -151.5 -139.5t-223.5 -51.5q-225 0 -344 111q-90 84 -121 190t-31 318v643q0 58 -5.5 89.5t-25.5 51.5t-49.5 26.5t-85.5 8.5zM385 1700q0 48 35 83.5t84 35.5q47 0 83 -36 t36 -83q0 -49 -35.5 -84t-83.5 -35q-50 0 -84.5 34.5t-34.5 84.5zM819 1700q0 48 35.5 83.5t83.5 35.5t83.5 -36t35.5 -83q0 -49 -35.5 -84t-83.5 -35q-49 0 -84 35t-35 84z" />
<glyph unicode="&#xdd;" horiz-adv-x="1210" d="M-6 1407v43q80 -6 180 -6q199 0 287 6v-43q-144 0 -144 -79q0 -30 21 -71l341 -653l261 520q56 113 56 176q0 58 -45 82.5t-136 26.5v41q117 -6 236 -6q91 0 153 6v-41q-41 -9 -80 -51.5t-84 -130.5l-321 -637v-373q0 -58 5.5 -89.5t25.5 -51.5t49.5 -26.5t85.5 -8.5v-41 q-96 6 -260 6q-176 0 -263 -6v41q56 2 85.5 8.5t49.5 26.5t25.5 51.5t5.5 89.5v309l-415 766q-38 69 -65.5 92t-53.5 23zM498 1608q98 75 200.5 168.5t143.5 119.5q31 20 62 20q40 0 63 -34q11 -19 11 -38q0 -45 -54 -81q-40 -24 -170 -74.5t-242 -107.5z" />
<glyph unicode="&#xde;" horiz-adv-x="1188" d="M86 0v41q74 3 106.5 16t46 48t13.5 112v1016q0 77 -13.5 112t-46 48t-106.5 16v41q85 -6 262 -6q166 0 260 6v-41q-74 -3 -106.5 -16t-46 -48t-13.5 -112v-91q40 0 106 1.5t83 1.5q239 0 366 -111.5t127 -288.5q0 -66 -14.5 -127.5t-53 -124t-97.5 -108t-155 -74 t-218 -28.5h-144v-66q0 -77 13.5 -112t46 -48t106.5 -16v-41q-94 6 -260 6q-176 0 -262 -6zM442 324h123q85 0 148.5 22t102.5 58.5t63 90.5t32.5 111t8.5 127q0 188 -79.5 280.5t-260.5 92.5q-46 0 -138 -2v-780z" />
<glyph unicode="&#xdf;" horiz-adv-x="1339" d="M35 0v41q74 3 106.5 16t46 48t13.5 112v404q0 653 534 653q242 0 428 -146l-309 -407q174 -36 287.5 -137t113.5 -250q0 -154 -122 -258.5t-326 -104.5q-113 0 -193 37q-100 49 -100 142q0 47 30.5 77.5t78.5 30.5q49 0 80.5 -30t31.5 -81q0 -43 -23 -69.5t-63 -34.5 q17 -17 63 -25t85 -8q81 0 140.5 48t86.5 121.5t27 160.5q0 164 -102 267t-279 128l321 443q-37 29 -102 44t-131 15q-61 0 -112 -13.5t-99.5 -48t-82 -89t-53.5 -141.5t-20 -200v-528q0 -104 21.5 -139.5t91.5 -36.5v-41q-23 0 -93.5 3t-140.5 3q-150 0 -235 -6z" />
<glyph unicode="&#xe0;" horiz-adv-x="1262" d="M-6 0v41q54 14 94 62.5t74 127.5l452 1024h33l479 -1083q56 -127 142 -131v-41q-84 6 -219 6q-176 0 -263 -6v41q77 3 112 19t35 56q0 37 -28 97l-103 233h-500l-69 -153q-34 -79 -34 -131q0 -108 159 -121v-41q-62 6 -186 6q-126 0 -178 -6zM249 1713q0 19 11 38 q23 34 63 34q31 0 62 -20q41 -26 143.5 -119.5t200.5 -168.5l-14 -27q-111 56 -241 106.5t-171 75.5q-54 36 -54 81zM320 487h464l-231 521z" />
<glyph unicode="&#xe1;" horiz-adv-x="1262" d="M-6 0v41q54 14 94 62.5t74 127.5l452 1024h33l479 -1083q56 -127 142 -131v-41q-84 6 -219 6q-176 0 -263 -6v41q77 3 112 19t35 56q0 37 -28 97l-103 233h-500l-69 -153q-34 -79 -34 -131q0 -108 159 -121v-41q-62 6 -186 6q-126 0 -178 -6zM320 487h464l-231 521z M464 1477q99 75 201.5 168.5t142.5 119.5q33 20 62 20q42 0 63 -34q12 -18 12 -39q0 -44 -55 -80q-41 -25 -170.5 -75.5t-240.5 -106.5z" />
<glyph unicode="&#xe2;" horiz-adv-x="1262" d="M-6 0v41q54 14 94 62.5t74 127.5l452 1024h33l479 -1083q56 -127 142 -131v-41q-84 6 -219 6q-176 0 -263 -6v41q77 3 112 19t35 56q0 37 -28 97l-103 233h-500l-69 -153q-34 -79 -34 -131q0 -108 159 -121v-41q-62 6 -186 6q-126 0 -178 -6zM229 1479q124 45 220.5 118 t142.5 152h37q45 -79 141.5 -152t220.5 -118l-10 -29q-118 26 -231.5 65.5t-180.5 77.5q-55 -38 -146 -77.5t-184 -65.5zM320 487h464l-231 521z" />
<glyph unicode="&#xe3;" horiz-adv-x="1262" d="M-6 0v41q54 14 94 62.5t74 127.5l452 1024h33l479 -1083q56 -127 142 -131v-41q-84 6 -219 6q-176 0 -263 -6v41q77 3 112 19t35 56q0 37 -28 97l-103 233h-500l-69 -153q-34 -79 -34 -131q0 -108 159 -121v-41q-62 6 -186 6q-126 0 -178 -6zM204 1499q23 102 82.5 159.5 t144.5 57.5q51 0 107 -24.5t97.5 -54t94.5 -54t99 -24.5q104 0 143 118l35 -10q-23 -102 -82.5 -159.5t-144.5 -57.5q-42 0 -85.5 16.5t-81 39.5t-74.5 46t-78 39.5t-79 16.5q-104 0 -143 -119zM320 487h464l-231 521z" />
<glyph unicode="&#xe4;" horiz-adv-x="1262" d="M-6 0v41q54 14 94 62.5t74 127.5l452 1024h33l479 -1083q56 -127 142 -131v-41q-84 6 -219 6q-176 0 -263 -6v41q77 3 112 19t35 56q0 37 -28 97l-103 233h-500l-69 -153q-34 -79 -34 -131q0 -108 159 -121v-41q-62 6 -186 6q-126 0 -178 -6zM272 1581q0 48 35 83.5 t84 35.5q47 0 83 -35.5t36 -83.5t-35.5 -83.5t-83.5 -35.5q-49 0 -84 35t-35 84zM320 487h464l-231 521zM706 1581q0 48 35 83.5t84 35.5q48 0 83.5 -35.5t35.5 -83.5q0 -49 -35.5 -84t-83.5 -35q-49 0 -84 35t-35 84z" />
<glyph unicode="&#xe5;" horiz-adv-x="1262" d="M-6 0v41q54 14 94 62.5t74 127.5l452 1024h33l479 -1083q56 -127 142 -131v-41q-84 6 -219 6q-176 0 -263 -6v41q77 3 112 19t35 56q0 37 -28 97l-103 233h-500l-69 -153q-34 -79 -34 -131q0 -108 159 -121v-41q-62 6 -186 6q-126 0 -178 -6zM320 487h464l-231 521z M412 1585q0 84 57.5 135.5t138.5 51.5q83 0 141 -51.5t58 -135.5q0 -85 -58 -136.5t-141 -51.5q-81 0 -138.5 51.5t-57.5 136.5zM469 1583q0 -67 42.5 -105t96.5 -38q56 0 99 38t43 105t-43.5 106.5t-98.5 39.5q-53 0 -96 -40t-43 -106z" />
<glyph unicode="&#xe6;" horiz-adv-x="1624" d="M-6 0v41q33 2 66.5 31.5t74.5 99.5l570 999q-17 17 -47.5 24t-86.5 9v41q56 -2 174 -4l62 109h47l-62 -110q124 -1 312 -1q258 0 366 6q-14 -123 -14 -221q0 -80 6 -127h-47q-8 93 -18 143.5t-33 90t-61 53.5t-101 14h-108q-56 0 -85.5 -5t-49.5 -24t-25.5 -50.5 t-5.5 -90.5v-381h149q34 0 60 11t40 25.5t24 41t13 43.5t7 47.5t6 40.5h47q-7 -80 -7 -152q0 -15 0.5 -40.5t0.5 -36.5q0 -80 12 -230h-47q-11 96 -21 124q-32 84 -135 85h-149v-389q0 -111 30 -140.5t136 -29.5h129q38 0 66.5 3.5t51 14.5t38 22t27.5 36t19 44.5t13.5 60.5 t9.5 72t8 89h47q-6 -56 -6 -147q0 -108 14 -242q-120 6 -407 6q-322 0 -492 -6v41q57 3 81.5 16.5t34 48t9.5 111.5v389h-304l-222 -393q-35 -61 -35 -99q0 -36 34.5 -53t106.5 -20v-41q-61 6 -186 6q-85 0 -137 -6zM456 647h281v381q0 69 -9 100z" />
<glyph unicode="&#xe7;" horiz-adv-x="1317" d="M111 610q0 196 78 347.5t216.5 234t315.5 82.5q99 0 168.5 -34t146.5 -99q25 -20 40 -20q42 0 52 124h48q-9 -118 -9 -430h-47q-20 107 -40.5 157.5t-61.5 104.5q-58 76 -137.5 116t-167.5 40q-183 0 -290.5 -164.5t-107.5 -450.5t116.5 -446t295.5 -160q91 0 174 40 t139 116q40 53 59.5 112.5t35.5 170.5h47q0 -323 8 -451h-47q-10 124 -51 124q-16 0 -41 -20q-76 -62 -146 -96t-168 -37l-41 -118q61 14 121 14q58 0 91.5 -25.5t33.5 -70.5q0 -54 -38.5 -91t-88.5 -51t-104 -14q-105 0 -170 23l8 36q42 -6 78 -6q74 0 129 21.5t55 70.5 q0 58 -86 58q-58 0 -100 -15l56 169q-262 11 -416 179t-154 459z" />
<glyph unicode="&#xe8;" horiz-adv-x="1219" d="M86 0v41q74 3 106.5 16t46 48t13.5 112v811q0 77 -13.5 112t-46 48t-106.5 16v41q195 -6 573 -6q287 0 408 6q-14 -123 -14 -221q0 -80 6 -127h-47q-16 169 -72 235t-182 66h-150q-106 0 -136 -29.5t-30 -140.5v-381h170q48 0 81.5 19.5t50 54t24 62.5t13.5 64q1 6 1 9 h47q-7 -81 -7 -152q0 -15 0.5 -40.5t0.5 -36.5q0 -82 13 -230h-48q-4 36 -9 61t-17 55.5t-30 48.5t-48.5 31t-71.5 13h-170v-389q0 -110 30 -140t136 -30h150q150 0 214 74.5t81 267.5h47q-6 -56 -6 -147q0 -108 14 -242q-133 6 -449 6q-378 0 -573 -6zM253 1713q0 19 11 38 q23 34 63 34q31 0 62 -20q41 -26 143.5 -119.5t200.5 -168.5l-14 -27q-111 56 -241 106.5t-171 75.5q-54 36 -54 81z" />
<glyph unicode="&#xe9;" horiz-adv-x="1219" d="M86 0v41q74 3 106.5 16t46 48t13.5 112v811q0 77 -13.5 112t-46 48t-106.5 16v41q195 -6 573 -6q287 0 408 6q-14 -123 -14 -221q0 -80 6 -127h-47q-16 169 -72 235t-182 66h-150q-106 0 -136 -29.5t-30 -140.5v-381h170q48 0 81.5 19.5t50 54t24 62.5t13.5 64q1 6 1 9 h47q-7 -81 -7 -152q0 -15 0.5 -40.5t0.5 -36.5q0 -82 13 -230h-48q-4 36 -9 61t-17 55.5t-30 48.5t-48.5 31t-71.5 13h-170v-389q0 -110 30 -140t136 -30h150q150 0 214 74.5t81 267.5h47q-6 -56 -6 -147q0 -108 14 -242q-133 6 -449 6q-378 0 -573 -6zM468 1477 q99 75 201.5 168.5t142.5 119.5q33 20 62 20q42 0 63 -34q12 -18 12 -39q0 -44 -55 -80q-41 -25 -170.5 -75.5t-240.5 -106.5z" />
<glyph unicode="&#xea;" horiz-adv-x="1219" d="M86 0v41q74 3 106.5 16t46 48t13.5 112v811q0 77 -13.5 112t-46 48t-106.5 16v41q195 -6 573 -6q287 0 408 6q-14 -123 -14 -221q0 -80 6 -127h-47q-16 169 -72 235t-182 66h-150q-106 0 -136 -29.5t-30 -140.5v-381h170q48 0 81.5 19.5t50 54t24 62.5t13.5 64q1 6 1 9 h47q-7 -81 -7 -152q0 -15 0.5 -40.5t0.5 -36.5q0 -82 13 -230h-48q-4 36 -9 61t-17 55.5t-30 48.5t-48.5 31t-71.5 13h-170v-389q0 -110 30 -140t136 -30h150q150 0 214 74.5t81 267.5h47q-6 -56 -6 -147q0 -108 14 -242q-133 6 -449 6q-378 0 -573 -6zM233 1479 q124 45 220.5 118t142.5 152h37q45 -79 141.5 -152t220.5 -118l-10 -29q-118 26 -231.5 65.5t-180.5 77.5q-55 -38 -146 -77.5t-184 -65.5z" />
<glyph unicode="&#xeb;" horiz-adv-x="1219" d="M86 0v41q74 3 106.5 16t46 48t13.5 112v811q0 77 -13.5 112t-46 48t-106.5 16v41q195 -6 573 -6q287 0 408 6q-14 -123 -14 -221q0 -80 6 -127h-47q-16 169 -72 235t-182 66h-150q-106 0 -136 -29.5t-30 -140.5v-381h170q48 0 81.5 19.5t50 54t24 62.5t13.5 64q1 6 1 9 h47q-7 -81 -7 -152q0 -15 0.5 -40.5t0.5 -36.5q0 -82 13 -230h-48q-4 36 -9 61t-17 55.5t-30 48.5t-48.5 31t-71.5 13h-170v-389q0 -110 30 -140t136 -30h150q150 0 214 74.5t81 267.5h47q-6 -56 -6 -147q0 -108 14 -242q-133 6 -449 6q-378 0 -573 -6zM276 1581 q0 48 35 83.5t84 35.5q47 0 83 -35.5t36 -83.5t-35.5 -83.5t-83.5 -35.5q-49 0 -84 35t-35 84zM710 1581q0 48 35 83.5t84 35.5q48 0 83.5 -35.5t35.5 -83.5q0 -49 -35.5 -84t-83.5 -35q-49 0 -84 35t-35 84z" />
<glyph unicode="&#xec;" d="M-11 1713q0 19 11 38q23 34 63 34q31 0 62 -20q41 -26 143.5 -119.5t200.5 -168.5l-14 -27q-111 56 -241 106.5t-171 75.5q-54 36 -54 81zM86 0v41q74 3 106.5 16t46 48t13.5 112v811q0 77 -13.5 112t-46 48t-106.5 16v41q85 -6 262 -6q166 0 260 6v-41 q-74 -3 -106.5 -16t-46 -48t-13.5 -112v-811q0 -77 13.5 -112t46 -48t106.5 -16v-41q-94 6 -260 6q-176 0 -262 -6z" />
<glyph unicode="&#xed;" d="M86 0v41q74 3 106.5 16t46 48t13.5 112v811q0 77 -13.5 112t-46 48t-106.5 16v41q85 -6 262 -6q166 0 260 6v-41q-74 -3 -106.5 -16t-46 -48t-13.5 -112v-811q0 -77 13.5 -112t46 -48t106.5 -16v-41q-94 6 -260 6q-176 0 -262 -6zM204 1477q99 75 201.5 168.5 t142.5 119.5q33 20 62 20q42 0 63 -34q12 -18 12 -39q0 -44 -55 -80q-41 -25 -170.5 -75.5t-240.5 -106.5z" />
<glyph unicode="&#xee;" d="M-31 1479q124 45 220.5 118t142.5 152h37q45 -79 141.5 -152t220.5 -118l-10 -29q-118 26 -231.5 65.5t-180.5 77.5q-55 -38 -146 -77.5t-184 -65.5zM86 0v41q74 3 106.5 16t46 48t13.5 112v811q0 77 -13.5 112t-46 48t-106.5 16v41q85 -6 262 -6q166 0 260 6v-41 q-74 -3 -106.5 -16t-46 -48t-13.5 -112v-811q0 -77 13.5 -112t46 -48t106.5 -16v-41q-94 6 -260 6q-176 0 -262 -6z" />
<glyph unicode="&#xef;" d="M12 1581q0 48 35 83.5t84 35.5q47 0 83 -35.5t36 -83.5t-35.5 -83.5t-83.5 -35.5q-49 0 -84 35t-35 84zM86 0v41q74 3 106.5 16t46 48t13.5 112v811q0 77 -13.5 112t-46 48t-106.5 16v41q85 -6 262 -6q166 0 260 6v-41q-74 -3 -106.5 -16t-46 -48t-13.5 -112v-811 q0 -77 13.5 -112t46 -48t106.5 -16v-41q-94 6 -260 6q-176 0 -262 -6zM446 1581q0 48 35 83.5t84 35.5q48 0 83.5 -35.5t35.5 -83.5q0 -49 -35.5 -84t-83.5 -35q-49 0 -84 35t-35 84z" />
<glyph unicode="&#xf0;" horiz-adv-x="1401" d="M88 0v41q74 3 106.5 16t46 48t13.5 112v389h-166v41h166v381q0 59 -5.5 91t-26 51.5t-49 25.5t-85.5 8v41q110 -7 200 -7q8 0 25 0.5t25 0.5q282 6 309 6q320 0 480.5 -154.5t160.5 -451.5q0 -293 -173.5 -466t-485.5 -173q-28 0 -134 3t-153 3q-168 0 -254 -6zM444 213 q0 -108 29.5 -142t124.5 -34q141 0 236 37.5t149.5 116t77 184t22.5 256.5q0 149 -25 254t-82 179t-150.5 109t-229.5 35q-93 0 -122.5 -34.5t-29.5 -141.5v-385h283v-41h-283v-393z" />
<glyph unicode="&#xf1;" horiz-adv-x="1403" d="M86 0v41q103 4 134.5 43.5t31.5 153.5v790q0 77 -13.5 112t-46 48t-106.5 16v41q67 -6 190 -6q112 0 189 6l653 -909v672q0 115 -34.5 153.5t-151.5 42.5v41q73 -6 209 -6q123 0 190 6v-41q-103 -4 -134.5 -43t-31.5 -153v-1018h-47l-819 1134v-886q0 -115 34.5 -154 t151.5 -43v-41q-74 6 -209 6q-122 0 -190 -6zM311 1499q23 102 82.5 159.5t144.5 57.5q51 0 107 -24.5t97.5 -54t94.5 -54t99 -24.5q104 0 143 118l35 -10q-23 -102 -82.5 -159.5t-144.5 -57.5q-42 0 -85.5 16.5t-81 39.5t-74.5 46t-78 39.5t-79 16.5q-104 0 -143 -119z" />
<glyph unicode="&#xf2;" horiz-adv-x="1477" d="M109 610q0 196 80.5 347.5t223.5 234t326 82.5q287 0 458 -169t171 -470q0 -296 -176.5 -480t-454.5 -184q-287 0 -457.5 169t-170.5 470zM313 618q0 -274 124 -442t308 -168q125 0 220.5 79t146.5 219t51 321q0 274 -124 442t-308 168q-125 0 -220.5 -79t-146.5 -219 t-51 -321zM376 1713q0 19 11 38q23 34 63 34q31 0 62 -20q41 -26 143.5 -119.5t200.5 -168.5l-14 -27q-111 56 -241 106.5t-171 75.5q-54 36 -54 81z" />
<glyph unicode="&#xf3;" horiz-adv-x="1477" d="M109 610q0 196 80.5 347.5t223.5 234t326 82.5q287 0 458 -169t171 -470q0 -296 -176.5 -480t-454.5 -184q-287 0 -457.5 169t-170.5 470zM313 618q0 -274 124 -442t308 -168q125 0 220.5 79t146.5 219t51 321q0 274 -124 442t-308 168q-125 0 -220.5 -79t-146.5 -219 t-51 -321zM591 1477q99 75 201.5 168.5t142.5 119.5q33 20 62 20q42 0 63 -34q12 -18 12 -39q0 -44 -55 -80q-41 -25 -170.5 -75.5t-240.5 -106.5z" />
<glyph unicode="&#xf4;" horiz-adv-x="1477" d="M109 610q0 196 80.5 347.5t223.5 234t326 82.5q287 0 458 -169t171 -470q0 -296 -176.5 -480t-454.5 -184q-287 0 -457.5 169t-170.5 470zM313 618q0 -274 124 -442t308 -168q125 0 220.5 79t146.5 219t51 321q0 274 -124 442t-308 168q-125 0 -220.5 -79t-146.5 -219 t-51 -321zM356 1479q124 45 220.5 118t142.5 152h37q45 -79 141.5 -152t220.5 -118l-10 -29q-118 26 -231.5 65.5t-180.5 77.5q-55 -38 -146 -77.5t-184 -65.5z" />
<glyph unicode="&#xf5;" horiz-adv-x="1477" d="M109 610q0 196 80.5 347.5t223.5 234t326 82.5q287 0 458 -169t171 -470q0 -296 -176.5 -480t-454.5 -184q-287 0 -457.5 169t-170.5 470zM313 618q0 -274 124 -442t308 -168q125 0 220.5 79t146.5 219t51 321q0 274 -124 442t-308 168q-125 0 -220.5 -79t-146.5 -219 t-51 -321zM331 1499q23 102 82.5 159.5t144.5 57.5q51 0 107 -24.5t97.5 -54t94.5 -54t99 -24.5q104 0 143 118l35 -10q-23 -102 -82.5 -159.5t-144.5 -57.5q-42 0 -85.5 16.5t-81 39.5t-74.5 46t-78 39.5t-79 16.5q-104 0 -143 -119z" />
<glyph unicode="&#xf6;" horiz-adv-x="1477" d="M109 610q0 196 80.5 347.5t223.5 234t326 82.5q287 0 458 -169t171 -470q0 -296 -176.5 -480t-454.5 -184q-287 0 -457.5 169t-170.5 470zM313 618q0 -274 124 -442t308 -168q125 0 220.5 79t146.5 219t51 321q0 274 -124 442t-308 168q-125 0 -220.5 -79t-146.5 -219 t-51 -321zM399 1581q0 48 35 83.5t84 35.5q47 0 83 -35.5t36 -83.5t-35.5 -83.5t-83.5 -35.5q-49 0 -84 35t-35 84zM833 1581q0 48 35 83.5t84 35.5q48 0 83.5 -35.5t35.5 -83.5q0 -49 -35.5 -84t-83.5 -35q-49 0 -84 35t-35 84z" />
<glyph unicode="&#xf7;" horiz-adv-x="1329" d="M150 696v62h1026v-62h-1026zM551 432q0 46 33.5 79.5t79.5 33.5q47 0 80.5 -33t33.5 -80t-33.5 -81t-80.5 -34q-46 0 -79.5 34t-33.5 81zM551 1022q0 46 33.5 79.5t79.5 33.5q47 0 80.5 -33.5t33.5 -79.5q0 -48 -33 -80.5t-81 -32.5q-47 0 -80 32.5t-33 80.5z" />
<glyph unicode="&#xf8;" horiz-adv-x="1477" d="M109 610q0 196 80.5 347.5t223.5 234t326 82.5q211 0 359 -92l145 211l39 -27l-144 -211q111 -82 170.5 -214t59.5 -306q0 -296 -176.5 -480t-454.5 -184q-199 0 -344 83l-135 -201l-45 28l136 200q-115 82 -177.5 216t-62.5 313zM313 618q0 -264 117 -432l595 902 q-120 149 -294 149q-125 0 -220.5 -79t-146.5 -219t-51 -321zM463 143q118 -135 282 -135q125 0 220.5 79t146.5 219t51 321q0 251 -108 419z" />
<glyph unicode="&#xf9;" horiz-adv-x="1348" d="M51 1204v41q87 -6 262 -6q165 0 260 6v-41q-56 -2 -85 -8.5t-49 -26t-25.5 -51t-5.5 -90.5v-514q0 -73 3.5 -126t14 -111t31.5 -97t53.5 -72t83 -49t117.5 -16q86 0 151 24.5t106.5 66.5t67.5 105t36.5 134t10.5 159v476q0 110 -40 150.5t-146 45.5v41q73 -6 209 -6 q122 0 190 6v-41q-103 -4 -134.5 -43t-31.5 -153v-453q0 -277 -83 -414q-49 -78 -143 -124t-212 -46q-210 0 -323 90q-90 81 -121 183.5t-31 304.5v479q0 77 -13.5 112t-46 48t-106.5 16zM325 1713q0 19 11 38q23 34 63 34q31 0 62 -20q41 -26 143.5 -119.5t200.5 -168.5 l-14 -27q-111 56 -241 106.5t-171 75.5q-54 36 -54 81z" />
<glyph unicode="&#xfa;" horiz-adv-x="1348" d="M51 1204v41q87 -6 262 -6q165 0 260 6v-41q-56 -2 -85 -8.5t-49 -26t-25.5 -51t-5.5 -90.5v-514q0 -73 3.5 -126t14 -111t31.5 -97t53.5 -72t83 -49t117.5 -16q86 0 151 24.5t106.5 66.5t67.5 105t36.5 134t10.5 159v476q0 110 -40 150.5t-146 45.5v41q73 -6 209 -6 q122 0 190 6v-41q-103 -4 -134.5 -43t-31.5 -153v-453q0 -277 -83 -414q-49 -78 -143 -124t-212 -46q-210 0 -323 90q-90 81 -121 183.5t-31 304.5v479q0 77 -13.5 112t-46 48t-106.5 16zM540 1477q99 75 201.5 168.5t142.5 119.5q33 20 62 20q42 0 63 -34q12 -18 12 -39 q0 -44 -55 -80q-41 -25 -170.5 -75.5t-240.5 -106.5z" />
<glyph unicode="&#xfb;" horiz-adv-x="1348" d="M51 1204v41q87 -6 262 -6q165 0 260 6v-41q-56 -2 -85 -8.5t-49 -26t-25.5 -51t-5.5 -90.5v-514q0 -73 3.5 -126t14 -111t31.5 -97t53.5 -72t83 -49t117.5 -16q86 0 151 24.5t106.5 66.5t67.5 105t36.5 134t10.5 159v476q0 110 -40 150.5t-146 45.5v41q73 -6 209 -6 q122 0 190 6v-41q-103 -4 -134.5 -43t-31.5 -153v-453q0 -277 -83 -414q-49 -78 -143 -124t-212 -46q-210 0 -323 90q-90 81 -121 183.5t-31 304.5v479q0 77 -13.5 112t-46 48t-106.5 16zM305 1479q124 45 220.5 118t142.5 152h37q45 -79 141.5 -152t220.5 -118l-10 -29 q-118 26 -231.5 65.5t-180.5 77.5q-55 -38 -146 -77.5t-184 -65.5z" />
<glyph unicode="&#xfc;" horiz-adv-x="1348" d="M51 1204v41q87 -6 262 -6q165 0 260 6v-41q-56 -2 -85 -8.5t-49 -26t-25.5 -51t-5.5 -90.5v-514q0 -73 3.5 -126t14 -111t31.5 -97t53.5 -72t83 -49t117.5 -16q86 0 151 24.5t106.5 66.5t67.5 105t36.5 134t10.5 159v476q0 110 -40 150.5t-146 45.5v41q73 -6 209 -6 q122 0 190 6v-41q-103 -4 -134.5 -43t-31.5 -153v-453q0 -277 -83 -414q-49 -78 -143 -124t-212 -46q-210 0 -323 90q-90 81 -121 183.5t-31 304.5v479q0 77 -13.5 112t-46 48t-106.5 16zM348 1581q0 48 35 83.5t84 35.5q47 0 83 -35.5t36 -83.5t-35.5 -83.5t-83.5 -35.5 q-49 0 -84 35t-35 84zM782 1581q0 48 35 83.5t84 35.5q48 0 83.5 -35.5t35.5 -83.5q0 -49 -35.5 -84t-83.5 -35q-49 0 -84 35t-35 84z" />
<glyph unicode="&#xfd;" horiz-adv-x="1174" d="M-4 1202v43q130 -8 180 -8q142 0 287 8v-43q-34 0 -55 -1.5t-44.5 -7t-34.5 -19t-11 -34.5q0 -36 36 -96l310 -515l254 446q46 82 46 132q0 86 -143 95v43q77 -8 174 -8q117 0 158 8v-43q-35 -9 -64 -39.5t-67 -99.5l-322 -575v-271q0 -77 13.5 -112t46 -48t106.5 -16 v-41q-94 6 -260 6q-176 0 -262 -6v41q74 3 106.5 16t46 48t13.5 112v212l-395 658q-40 66 -65 88t-54 27zM452 1477q99 75 201.5 168.5t142.5 119.5q33 20 62 20q42 0 63 -34q12 -18 12 -39q0 -44 -55 -80q-41 -25 -170.5 -75.5t-240.5 -106.5z" />
<glyph unicode="&#xfe;" horiz-adv-x="1176" d="M86 0v41q74 3 106.5 16t46 48t13.5 112v811q0 77 -13.5 112t-46 48t-106.5 16v41q85 -6 262 -6q166 0 260 6v-41q-74 -3 -106.5 -16t-46 -48t-13.5 -112v-28q50 1 123 2.5t90 1.5q219 0 336 -93.5t117 -248.5q0 -56 -14.5 -109t-51.5 -106.5t-93.5 -93t-149 -64.5 t-209.5 -25h-148v-47q0 -77 13.5 -112t46 -48t106.5 -16v-41q-94 6 -260 6q-176 0 -262 -6zM442 305h127q92 0 159 26.5t104 74.5t54 105.5t17 127.5q0 326 -299 326q-78 0 -162 -2v-658z" />
<glyph unicode="&#xff;" horiz-adv-x="1174" d="M-4 1202v43q130 -8 180 -8q142 0 287 8v-43q-34 0 -55 -1.5t-44.5 -7t-34.5 -19t-11 -34.5q0 -36 36 -96l310 -515l254 446q46 82 46 132q0 86 -143 95v43q77 -8 174 -8q117 0 158 8v-43q-35 -9 -64 -39.5t-67 -99.5l-322 -575v-271q0 -77 13.5 -112t46 -48t106.5 -16 v-41q-94 6 -260 6q-176 0 -262 -6v41q74 3 106.5 16t46 48t13.5 112v212l-395 658q-40 66 -65 88t-54 27zM260 1581q0 48 35 83.5t84 35.5q47 0 83 -35.5t36 -83.5t-35.5 -83.5t-83.5 -35.5q-49 0 -84 35t-35 84zM694 1581q0 48 35 83.5t84 35.5q48 0 83.5 -35.5t35.5 -83.5 q0 -49 -35.5 -84t-83.5 -35q-49 0 -84 35t-35 84z" />
<glyph unicode="&#x100;" horiz-adv-x="1290" d="M-14 0v41q102 23 161 178l482 1241h33l499 -1288q50 -127 142 -131v-41q-84 6 -220 6q-175 0 -262 -6v41q78 3 111.5 19t33.5 57q0 35 -24 96l-126 336h-494l-84 -217q-41 -104 -41 -168q0 -65 43.5 -93t134.5 -30v-41q-117 6 -236 6q-92 0 -153 -6zM272 1677v52h721v-52 h-721zM337 590h464l-229 611z" />
<glyph unicode="&#x101;" horiz-adv-x="1262" d="M-6 0v41q54 14 94 62.5t74 127.5l452 1024h33l479 -1083q56 -127 142 -131v-41q-84 6 -219 6q-176 0 -263 -6v41q77 3 112 19t35 56q0 37 -28 97l-103 233h-500l-69 -153q-34 -79 -34 -131q0 -108 159 -121v-41q-62 6 -186 6q-126 0 -178 -6zM243 1530v51h721v-51h-721z M320 487h464l-231 521z" />
<glyph unicode="&#x102;" horiz-adv-x="1290" d="M-14 0v41q102 23 161 178l482 1241h33l499 -1288q50 -127 142 -131v-41q-84 6 -220 6q-175 0 -262 -6v41q78 3 111.5 19t33.5 57q0 35 -24 96l-126 336h-494l-84 -217q-41 -104 -41 -168q0 -65 43.5 -93t134.5 -30v-41q-117 6 -236 6q-92 0 -153 -6zM225 1839l27 21 q56 -55 151 -93t230 -38q134 0 230 38.5t153 94.5l24 -23q-27 -44 -63 -82.5t-85.5 -75t-116.5 -58t-142 -21.5q-98 0 -183.5 39t-136 88.5t-88.5 109.5zM337 590h464l-229 611z" />
<glyph unicode="&#x103;" horiz-adv-x="1262" d="M-6 0v41q54 14 94 62.5t74 127.5l452 1024h33l479 -1083q56 -127 142 -131v-41q-84 6 -219 6q-176 0 -263 -6v41q77 3 112 19t35 56q0 37 -28 97l-103 233h-500l-69 -153q-34 -79 -34 -131q0 -108 159 -121v-41q-62 6 -186 6q-126 0 -178 -6zM219 1673l26 21 q127 -131 361 -131q127 0 218 39t144 94l25 -23q-26 -44 -60 -82.5t-81.5 -75t-111 -58t-134.5 -21.5t-135 21.5t-111.5 58t-81.5 75t-59 82.5zM320 487h464l-231 521z" />
<glyph unicode="&#x104;" horiz-adv-x="1290" d="M-14 0v41q102 23 161 178l482 1241h33l499 -1288q50 -127 142 -131v-41l-38 2q-105 -30 -151.5 -85t-46.5 -114q0 -41 23.5 -65.5t64.5 -24.5q37 0 70.5 19.5t54.5 48.5l30 -27q-91 -139 -231 -139q-73 0 -117.5 36.5t-44.5 96.5q0 79 72.5 146t206.5 111q-37 1 -113 1 q-175 0 -262 -6v41q78 3 111.5 19t33.5 57q0 35 -24 96l-126 336h-494l-84 -217q-41 -104 -41 -168q0 -65 43.5 -93t134.5 -30v-41q-117 6 -236 6q-92 0 -153 -6zM337 590h464l-229 611z" />
<glyph unicode="&#x105;" horiz-adv-x="1262" d="M-6 0v41q54 14 94 62.5t74 127.5l452 1024h33l479 -1083q56 -127 142 -131v-41q-28 2 -66 3q-106 -30 -153.5 -85t-47.5 -115q0 -41 23.5 -65.5t64.5 -24.5q37 0 70.5 19.5t54.5 48.5l30 -27q-91 -139 -231 -139q-73 0 -117.5 36.5t-44.5 96.5q0 80 73 146.5t208 110.5 l-83 1q-176 0 -263 -6v41q77 3 112 19t35 56q0 37 -28 97l-103 233h-500l-69 -153q-34 -79 -34 -131q0 -108 159 -121v-41q-62 6 -186 6q-126 0 -178 -6zM320 487h464l-231 521z" />
<glyph unicode="&#x106;" horiz-adv-x="1409" d="M109 713q0 226 83 400.5t231 270t337 95.5q122 0 208.5 -35t168.5 -98q22 -18 40 -18q42 0 52 122h47q-8 -133 -8 -471h-47q-22 134 -41 191.5t-62 111.5q-62 80 -157 120t-205 40q-201 0 -322 -195t-121 -526q0 -334 129.5 -521.5t333.5 -187.5q102 0 199 39t151 117 q42 56 60 121.5t35 202.5h47q0 -353 8 -492h-47q-5 64 -16.5 92.5t-33.5 28.5q-16 0 -42 -17q-93 -65 -176.5 -99t-202.5 -34q-296 0 -472.5 197.5t-176.5 544.5zM620 1608q98 75 200.5 168.5t143.5 119.5q31 20 62 20q40 0 63 -34q11 -19 11 -38q0 -45 -54 -81 q-40 -24 -170 -74.5t-242 -107.5z" />
<glyph unicode="&#x107;" horiz-adv-x="1317" d="M111 610q0 196 78 347.5t216.5 234t315.5 82.5q99 0 168.5 -34t146.5 -99q25 -20 40 -20q42 0 52 124h48q-9 -118 -9 -430h-47q-20 107 -40.5 157.5t-61.5 104.5q-58 76 -137.5 116t-167.5 40q-183 0 -290.5 -164.5t-107.5 -450.5t116.5 -446t295.5 -160q91 0 174 40 t139 116q40 53 59.5 112.5t35.5 170.5h47q0 -323 8 -451h-47q-10 124 -51 124q-16 0 -41 -20q-78 -65 -152.5 -99t-179.5 -34q-278 0 -443 169t-165 470zM556 1477q99 75 201.5 168.5t142.5 119.5q33 20 62 20q42 0 63 -34q12 -18 12 -39q0 -44 -55 -80 q-41 -25 -170.5 -75.5t-240.5 -106.5z" />
<glyph unicode="&#x108;" horiz-adv-x="1409" d="M109 713q0 226 83 400.5t231 270t337 95.5q122 0 208.5 -35t168.5 -98q22 -18 40 -18q42 0 52 122h47q-8 -133 -8 -471h-47q-22 134 -41 191.5t-62 111.5q-62 80 -157 120t-205 40q-201 0 -322 -195t-121 -526q0 -334 129.5 -521.5t333.5 -187.5q102 0 199 39t151 117 q42 56 60 121.5t35 202.5h47q0 -353 8 -492h-47q-5 64 -16.5 92.5t-33.5 28.5q-16 0 -42 -17q-93 -65 -176.5 -99t-202.5 -34q-296 0 -472.5 197.5t-176.5 544.5zM344 1606q131 45 232.5 117.5t150.5 152.5h37q48 -80 149.5 -152.5t233.5 -117.5l-11 -29q-124 26 -243 65.5 t-189 77.5q-58 -38 -154.5 -77.5t-195.5 -65.5z" />
<glyph unicode="&#x109;" horiz-adv-x="1317" d="M111 610q0 196 78 347.5t216.5 234t315.5 82.5q99 0 168.5 -34t146.5 -99q25 -20 40 -20q42 0 52 124h48q-9 -118 -9 -430h-47q-20 107 -40.5 157.5t-61.5 104.5q-58 76 -137.5 116t-167.5 40q-183 0 -290.5 -164.5t-107.5 -450.5t116.5 -446t295.5 -160q91 0 174 40 t139 116q40 53 59.5 112.5t35.5 170.5h47q0 -323 8 -451h-47q-10 124 -51 124q-16 0 -41 -20q-78 -65 -152.5 -99t-179.5 -34q-278 0 -443 169t-165 470zM321 1479q124 45 220.5 118t142.5 152h37q45 -79 141.5 -152t220.5 -118l-10 -29q-118 26 -231.5 65.5t-180.5 77.5 q-55 -38 -146 -77.5t-184 -65.5z" />
<glyph unicode="&#x10a;" horiz-adv-x="1409" d="M109 713q0 226 83 400.5t231 270t337 95.5q122 0 208.5 -35t168.5 -98q22 -18 40 -18q42 0 52 122h47q-8 -133 -8 -471h-47q-22 134 -41 191.5t-62 111.5q-62 80 -157 120t-205 40q-201 0 -322 -195t-121 -526q0 -334 129.5 -521.5t333.5 -187.5q102 0 199 39t151 117 q42 56 60 121.5t35 202.5h47q0 -353 8 -492h-47q-5 64 -16.5 92.5t-33.5 28.5q-16 0 -42 -17q-93 -65 -176.5 -99t-202.5 -34q-296 0 -472.5 197.5t-176.5 544.5zM641 1712q0 54 38.5 92.5t92.5 38.5q53 0 92 -38.5t39 -92.5t-39 -92.5t-92 -38.5q-54 0 -92.5 38.5 t-38.5 92.5z" />
<glyph unicode="&#x10b;" horiz-adv-x="1317" d="M111 610q0 196 78 347.5t216.5 234t315.5 82.5q99 0 168.5 -34t146.5 -99q25 -20 40 -20q42 0 52 124h48q-9 -118 -9 -430h-47q-20 107 -40.5 157.5t-61.5 104.5q-58 76 -137.5 116t-167.5 40q-183 0 -290.5 -164.5t-107.5 -450.5t116.5 -446t295.5 -160q91 0 174 40 t139 116q40 53 59.5 112.5t35.5 170.5h47q0 -323 8 -451h-47q-10 124 -51 124q-16 0 -41 -20q-78 -65 -152.5 -99t-179.5 -34q-278 0 -443 169t-165 470zM569 1581q0 54 38.5 92.5t92.5 38.5q53 0 92 -38.5t39 -92.5t-39 -92.5t-92 -38.5q-54 0 -92.5 38.5t-38.5 92.5z" />
<glyph unicode="&#x10c;" horiz-adv-x="1409" d="M109 713q0 226 83 400.5t231 270t337 95.5q122 0 208.5 -35t168.5 -98q22 -18 40 -18q42 0 52 122h47q-8 -133 -8 -471h-47q-22 134 -41 191.5t-62 111.5q-62 80 -157 120t-205 40q-201 0 -322 -195t-121 -526q0 -334 129.5 -521.5t333.5 -187.5q102 0 199 39t151 117 q42 56 60 121.5t35 202.5h47q0 -353 8 -492h-47q-5 64 -16.5 92.5t-33.5 28.5q-16 0 -42 -17q-93 -65 -176.5 -99t-202.5 -34q-296 0 -472.5 197.5t-176.5 544.5zM338 1868l10 28q122 -25 241.5 -65t190.5 -78q59 38 155.5 78t194.5 65l11 -28q-132 -46 -233.5 -118.5 t-149.5 -152.5h-37q-49 80 -150.5 152.5t-232.5 118.5z" />
<glyph unicode="&#x10d;" horiz-adv-x="1317" d="M111 610q0 196 78 347.5t216.5 234t315.5 82.5q99 0 168.5 -34t146.5 -99q25 -20 40 -20q42 0 52 124h48q-9 -118 -9 -430h-47q-20 107 -40.5 157.5t-61.5 104.5q-58 76 -137.5 116t-167.5 40q-183 0 -290.5 -164.5t-107.5 -450.5t116.5 -446t295.5 -160q91 0 174 40 t139 116q40 53 59.5 112.5t35.5 170.5h47q0 -323 8 -451h-47q-10 124 -51 124q-16 0 -41 -20q-78 -65 -152.5 -99t-179.5 -34q-278 0 -443 169t-165 470zM317 1704l10 29q261 -59 412 -144q124 85 330 144l10 -29q-124 -46 -220.5 -118.5t-141.5 -151.5h-37 q-46 79 -142.5 151.5t-220.5 118.5z" />
<glyph unicode="&#x10e;" horiz-adv-x="1481" d="M86 0v41q74 3 106.5 16t46 48t13.5 112v1016q0 77 -13.5 112t-46 48t-106.5 16v41q110 -7 200 -7q8 0 25 0.5t25 0.5q282 6 309 6q362 0 542.5 -181t180.5 -528q0 -339 -196 -540t-545 -201q-28 0 -134 3t-153 3q-168 0 -254 -6zM238 1868l10 28q122 -25 241.5 -65 t190.5 -78q59 38 155.5 78t194.5 65l11 -28q-132 -46 -233.5 -118.5t-149.5 -152.5h-37q-49 80 -150.5 152.5t-232.5 118.5zM442 213q0 -108 29.5 -142t124.5 -34q111 0 197 20t148.5 61.5t105.5 99t68.5 137.5t36.5 171t11 207q0 176 -29.5 300.5t-96 211t-176 127.5 t-267.5 41q-93 0 -122.5 -34.5t-29.5 -141.5v-1024z" />
<glyph unicode="&#x10f;" horiz-adv-x="1399" d="M86 0v41q74 3 106.5 16t46 48t13.5 112v811q0 59 -5.5 91t-26 51.5t-49 25.5t-85.5 8v41q110 -7 200 -7q8 0 25 0.5t25 0.5q282 6 309 6q320 0 480.5 -154.5t160.5 -451.5q0 -293 -173.5 -466t-485.5 -173q-28 0 -134 3t-153 3q-168 0 -254 -6zM262 1704l10 29 q261 -59 412 -144q124 85 330 144l10 -29q-124 -46 -220.5 -118.5t-141.5 -151.5h-37q-46 79 -142.5 151.5t-220.5 118.5zM442 213q0 -108 29.5 -142t124.5 -34q141 0 236 37.5t149.5 116t77 184t22.5 256.5q0 149 -25 254t-82 179t-150.5 109t-229.5 35q-93 0 -122.5 -34.5 t-29.5 -141.5v-819z" />
<glyph unicode="&#x110;" horiz-adv-x="1483" d="M88 0v41q74 3 106.5 16t46 48t13.5 112v492h-166v41h166v483q0 77 -13.5 112t-46 48t-106.5 16v41q110 -7 200 -7q8 0 25 0.5t25 0.5q282 6 309 6q362 0 542.5 -181t180.5 -528q0 -339 -196 -540t-545 -201q-28 0 -134 3t-153 3q-168 0 -254 -6zM444 213 q0 -108 29.5 -142t124.5 -34q111 0 197 20t148.5 61.5t105.5 99t68.5 137.5t36.5 171t11 207q0 176 -29.5 300.5t-96 211t-176 127.5t-267.5 41q-93 0 -122.5 -34.5t-29.5 -141.5v-487h285v-41h-285v-496z" />
<glyph unicode="&#x111;" horiz-adv-x="1401" d="M88 0v41q74 3 106.5 16t46 48t13.5 112v389h-166v41h166v381q0 59 -5.5 91t-26 51.5t-49 25.5t-85.5 8v41q110 -7 200 -7q8 0 25 0.5t25 0.5q282 6 309 6q320 0 480.5 -154.5t160.5 -451.5q0 -293 -173.5 -466t-485.5 -173q-28 0 -134 3t-153 3q-168 0 -254 -6zM444 213 q0 -108 29.5 -142t124.5 -34q141 0 236 37.5t149.5 116t77 184t22.5 256.5q0 149 -25 254t-82 179t-150.5 109t-229.5 35q-93 0 -122.5 -34.5t-29.5 -141.5v-385h283v-41h-283v-393z" />
<glyph unicode="&#x112;" horiz-adv-x="1247" d="M86 0v41q74 3 106.5 16t46 48t13.5 112v1016q0 77 -13.5 112t-46 48t-106.5 16v41q201 -6 594 -6q301 0 428 6q-14 -134 -14 -242q0 -80 6 -127h-47q-7 67 -14.5 108.5t-20.5 81.5t-31 62t-47 39.5t-68 24t-94 6.5h-170q-106 0 -136 -30t-30 -140v-483h136q37 0 65.5 9 t47.5 28t31.5 37.5t20.5 49t11.5 49.5t7.5 52t6 45h47q-7 -102 -7 -193q0 -20 0.5 -52t0.5 -46q0 -104 12 -291h-47q-14 115 -23 146q-28 99 -116 119q-25 6 -57 6h-136v-492q0 -110 30 -140t136 -30h150q97 0 156.5 17.5t96.5 63.5t54 109.5t29 172.5h47q-6 -55 -6 -148 q0 -116 14 -262q-139 6 -469 6q-393 0 -594 -6zM266 1677v52h721v-52h-721z" />
<glyph unicode="&#x113;" horiz-adv-x="1219" d="M86 0v41q74 3 106.5 16t46 48t13.5 112v811q0 77 -13.5 112t-46 48t-106.5 16v41q195 -6 573 -6q287 0 408 6q-14 -123 -14 -221q0 -80 6 -127h-47q-16 169 -72 235t-182 66h-150q-106 0 -136 -29.5t-30 -140.5v-381h170q48 0 81.5 19.5t50 54t24 62.5t13.5 64q1 6 1 9 h47q-7 -81 -7 -152q0 -15 0.5 -40.5t0.5 -36.5q0 -82 13 -230h-48q-4 36 -9 61t-17 55.5t-30 48.5t-48.5 31t-71.5 13h-170v-389q0 -110 30 -140t136 -30h150q150 0 214 74.5t81 267.5h47q-6 -56 -6 -147q0 -108 14 -242q-133 6 -449 6q-378 0 -573 -6zM247 1530v51h721v-51 h-721z" />
<glyph unicode="&#x114;" horiz-adv-x="1247" d="M86 0v41q74 3 106.5 16t46 48t13.5 112v1016q0 77 -13.5 112t-46 48t-106.5 16v41q201 -6 594 -6q301 0 428 6q-14 -134 -14 -242q0 -80 6 -127h-47q-7 67 -14.5 108.5t-20.5 81.5t-31 62t-47 39.5t-68 24t-94 6.5h-170q-106 0 -136 -30t-30 -140v-483h136q37 0 65.5 9 t47.5 28t31.5 37.5t20.5 49t11.5 49.5t7.5 52t6 45h47q-7 -102 -7 -193q0 -20 0.5 -52t0.5 -46q0 -104 12 -291h-47q-14 115 -23 146q-28 99 -116 119q-25 6 -57 6h-136v-492q0 -110 30 -140t136 -30h150q97 0 156.5 17.5t96.5 63.5t54 109.5t29 172.5h47q-6 -55 -6 -148 q0 -116 14 -262q-139 6 -469 6q-393 0 -594 -6zM219 1839l27 21q56 -55 151 -93t230 -38q134 0 230 38.5t153 94.5l24 -23q-27 -44 -63 -82.5t-85.5 -75t-116.5 -58t-142 -21.5q-98 0 -183.5 39t-136 88.5t-88.5 109.5z" />
<glyph unicode="&#x115;" horiz-adv-x="1219" d="M86 0v41q74 3 106.5 16t46 48t13.5 112v811q0 77 -13.5 112t-46 48t-106.5 16v41q195 -6 573 -6q287 0 408 6q-14 -123 -14 -221q0 -80 6 -127h-47q-16 169 -72 235t-182 66h-150q-106 0 -136 -29.5t-30 -140.5v-381h170q48 0 81.5 19.5t50 54t24 62.5t13.5 64q1 6 1 9 h47q-7 -81 -7 -152q0 -15 0.5 -40.5t0.5 -36.5q0 -82 13 -230h-48q-4 36 -9 61t-17 55.5t-30 48.5t-48.5 31t-71.5 13h-170v-389q0 -110 30 -140t136 -30h150q150 0 214 74.5t81 267.5h47q-6 -56 -6 -147q0 -108 14 -242q-133 6 -449 6q-378 0 -573 -6zM223 1673l26 21 q127 -131 361 -131q127 0 218 39t144 94l25 -23q-26 -44 -60 -82.5t-81.5 -75t-111 -58t-134.5 -21.5t-135 21.5t-111.5 58t-81.5 75t-59 82.5z" />
<glyph unicode="&#x116;" horiz-adv-x="1247" d="M86 0v41q74 3 106.5 16t46 48t13.5 112v1016q0 77 -13.5 112t-46 48t-106.5 16v41q201 -6 594 -6q301 0 428 6q-14 -134 -14 -242q0 -80 6 -127h-47q-7 67 -14.5 108.5t-20.5 81.5t-31 62t-47 39.5t-68 24t-94 6.5h-170q-106 0 -136 -30t-30 -140v-483h136q37 0 65.5 9 t47.5 28t31.5 37.5t20.5 49t11.5 49.5t7.5 52t6 45h47q-7 -102 -7 -193q0 -20 0.5 -52t0.5 -46q0 -104 12 -291h-47q-14 115 -23 146q-28 99 -116 119q-25 6 -57 6h-136v-492q0 -110 30 -140t136 -30h150q97 0 156.5 17.5t96.5 63.5t54 109.5t29 172.5h47q-6 -55 -6 -148 q0 -116 14 -262q-139 6 -469 6q-393 0 -594 -6zM523 1712q0 54 38.5 92.5t92.5 38.5q53 0 92 -38.5t39 -92.5t-39 -92.5t-92 -38.5q-54 0 -92.5 38.5t-38.5 92.5z" />
<glyph unicode="&#x117;" horiz-adv-x="1219" d="M86 0v41q74 3 106.5 16t46 48t13.5 112v811q0 77 -13.5 112t-46 48t-106.5 16v41q195 -6 573 -6q287 0 408 6q-14 -123 -14 -221q0 -80 6 -127h-47q-16 169 -72 235t-182 66h-150q-106 0 -136 -29.5t-30 -140.5v-381h170q48 0 81.5 19.5t50 54t24 62.5t13.5 64q1 6 1 9 h47q-7 -81 -7 -152q0 -15 0.5 -40.5t0.5 -36.5q0 -82 13 -230h-48q-4 36 -9 61t-17 55.5t-30 48.5t-48.5 31t-71.5 13h-170v-389q0 -110 30 -140t136 -30h150q150 0 214 74.5t81 267.5h47q-6 -56 -6 -147q0 -108 14 -242q-133 6 -449 6q-378 0 -573 -6zM481 1581 q0 54 38.5 92.5t92.5 38.5q53 0 92 -38.5t39 -92.5t-39 -92.5t-92 -38.5q-54 0 -92.5 38.5t-38.5 92.5z" />
<glyph unicode="&#x118;" horiz-adv-x="1247" d="M86 0v41q74 3 106.5 16t46 48t13.5 112v1016q0 77 -13.5 112t-46 48t-106.5 16v41q201 -6 594 -6q301 0 428 6q-14 -134 -14 -242q0 -80 6 -127h-47q-7 67 -14.5 108.5t-20.5 81.5t-31 62t-47 39.5t-68 24t-94 6.5h-170q-106 0 -136 -30t-30 -140v-483h136q37 0 65.5 9 t47.5 28t31.5 37.5t20.5 49t11.5 49.5t7.5 52t6 45h47q-7 -102 -7 -193q0 -20 0.5 -52t0.5 -46q0 -104 12 -291h-47q-14 115 -23 146q-28 99 -116 119q-25 6 -57 6h-136v-492q0 -110 30 -140t136 -30h150q97 0 156.5 17.5t96.5 63.5t54 109.5t29 172.5h47q-6 -55 -6 -148 q0 -109 13 -256q1 -2 1 -6l-18 1q-102 -31 -147.5 -85.5t-45.5 -112.5q0 -41 23.5 -65.5t64.5 -24.5q37 0 70.5 19.5t54.5 48.5l30 -27q-91 -139 -231 -139q-73 0 -117.5 36.5t-44.5 96.5q0 79 71 145t203 110q-126 3 -382 3q-393 0 -594 -6z" />
<glyph unicode="&#x119;" horiz-adv-x="1219" d="M86 0v41q74 3 106.5 16t46 48t13.5 112v811q0 77 -13.5 112t-46 48t-106.5 16v41q195 -6 573 -6q287 0 408 6q-14 -123 -14 -221q0 -80 6 -127h-47q-16 169 -72 235t-182 66h-150q-106 0 -136 -29.5t-30 -140.5v-381h170q48 0 81.5 19.5t50 54t24 62.5t13.5 64q1 6 1 9 h47q-7 -81 -7 -152q0 -15 0.5 -40.5t0.5 -36.5q0 -82 13 -230h-48q-4 36 -9 61t-17 55.5t-30 48.5t-48.5 31t-71.5 13h-170v-389q0 -110 30 -140t136 -30h150q150 0 214 74.5t81 267.5h47q-6 -56 -6 -147q0 -100 13 -236q1 -2 1 -6l-18 1q-102 -31 -147.5 -85.5 t-45.5 -112.5q0 -41 23.5 -65.5t64.5 -24.5q37 0 70.5 19.5t54.5 48.5l30 -27q-91 -139 -231 -139q-73 0 -117.5 36.5t-44.5 96.5q0 78 71.5 144.5t202.5 110.5q-119 3 -362 3q-378 0 -573 -6z" />
<glyph unicode="&#x11a;" horiz-adv-x="1247" d="M86 0v41q74 3 106.5 16t46 48t13.5 112v1016q0 77 -13.5 112t-46 48t-106.5 16v41q201 -6 594 -6q301 0 428 6q-14 -134 -14 -242q0 -80 6 -127h-47q-7 67 -14.5 108.5t-20.5 81.5t-31 62t-47 39.5t-68 24t-94 6.5h-170q-106 0 -136 -30t-30 -140v-483h136q37 0 65.5 9 t47.5 28t31.5 37.5t20.5 49t11.5 49.5t7.5 52t6 45h47q-7 -102 -7 -193q0 -20 0.5 -52t0.5 -46q0 -104 12 -291h-47q-14 115 -23 146q-28 99 -116 119q-25 6 -57 6h-136v-492q0 -110 30 -140t136 -30h150q97 0 156.5 17.5t96.5 63.5t54 109.5t29 172.5h47q-6 -55 -6 -148 q0 -116 14 -262q-139 6 -469 6q-393 0 -594 -6zM220 1868l10 28q122 -25 241.5 -65t190.5 -78q59 38 155.5 78t194.5 65l11 -28q-132 -46 -233.5 -118.5t-149.5 -152.5h-37q-49 80 -150.5 152.5t-232.5 118.5z" />
<glyph unicode="&#x11b;" horiz-adv-x="1219" d="M86 0v41q74 3 106.5 16t46 48t13.5 112v811q0 77 -13.5 112t-46 48t-106.5 16v41q195 -6 573 -6q287 0 408 6q-14 -123 -14 -221q0 -80 6 -127h-47q-16 169 -72 235t-182 66h-150q-106 0 -136 -29.5t-30 -140.5v-381h170q48 0 81.5 19.5t50 54t24 62.5t13.5 64q1 6 1 9 h47q-7 -81 -7 -152q0 -15 0.5 -40.5t0.5 -36.5q0 -82 13 -230h-48q-4 36 -9 61t-17 55.5t-30 48.5t-48.5 31t-71.5 13h-170v-389q0 -110 30 -140t136 -30h150q150 0 214 74.5t81 267.5h47q-6 -56 -6 -147q0 -108 14 -242q-133 6 -449 6q-378 0 -573 -6zM229 1704l10 29 q261 -59 412 -144q124 85 330 144l10 -29q-124 -46 -220.5 -118.5t-141.5 -151.5h-37q-46 79 -142.5 151.5t-220.5 118.5z" />
<glyph unicode="&#x11c;" horiz-adv-x="1440" d="M111 700q0 176 49.5 323t137 246.5t209 154.5t263.5 55q64 0 117 -10t100 -32t76.5 -40t75.5 -51q26 -21 41 -21q39 0 51 125h47q-8 -133 -8 -471h-47q-12 73 -21 115.5t-30.5 96.5t-51.5 91q-60 74 -155 117t-199 43q-205 0 -328 -195t-123 -524q0 -368 118.5 -539.5 t369.5 -171.5q123 0 213 64q37 25 48 48t11 64v197q0 123 -38 157.5t-169 39.5v41q101 -7 289 -7q144 0 213 7v-41q-48 -4 -68 -16.5t-28 -46.5t-8 -113v-406h-41q-2 42 -17 79.5t-39 37.5q-21 0 -67 -35q-147 -111 -320 -111q-317 0 -494 193t-177 536zM338 1606 q131 45 232.5 117.5t150.5 152.5h37q48 -80 149.5 -152.5t233.5 -117.5l-11 -29q-124 26 -243 65.5t-189 77.5q-58 -38 -154.5 -77.5t-195.5 -65.5z" />
<glyph unicode="&#x11d;" horiz-adv-x="1354" d="M111 598q0 308 169.5 492t440.5 184q61 0 110.5 -10t91.5 -32t68 -40t66 -51q25 -20 41 -20q40 0 51 124h47q-8 -117 -8 -409h-47q-35 164 -103 241q-68 78 -142 119t-179 41q-186 0 -294 -166t-108 -450q0 -314 115 -461.5t342 -147.5q92 0 158 17q36 9 49.5 26.5 t13.5 50.5v177q0 65 -7.5 100.5t-32.5 57.5t-61.5 29t-105.5 9v41q111 -6 289 -6q139 0 213 6v-41q-47 -3 -67 -15.5t-28.5 -47.5t-8.5 -113v-303h-41q-3 49 -31 49q-8 0 -23 -5.5t-41 -16.5l-26 -11q-132 -45 -268 -45q-308 0 -475.5 165t-167.5 462zM352 1479 q124 45 220.5 118t142.5 152h37q45 -79 141.5 -152t220.5 -118l-10 -29q-118 26 -231.5 65.5t-180.5 77.5q-55 -38 -146 -77.5t-184 -65.5z" />
<glyph unicode="&#x11e;" horiz-adv-x="1440" d="M111 700q0 176 49.5 323t137 246.5t209 154.5t263.5 55q64 0 117 -10t100 -32t76.5 -40t75.5 -51q26 -21 41 -21q39 0 51 125h47q-8 -133 -8 -471h-47q-12 73 -21 115.5t-30.5 96.5t-51.5 91q-60 74 -155 117t-199 43q-205 0 -328 -195t-123 -524q0 -368 118.5 -539.5 t369.5 -171.5q123 0 213 64q37 25 48 48t11 64v197q0 123 -38 157.5t-169 39.5v41q101 -7 289 -7q144 0 213 7v-41q-48 -4 -68 -16.5t-28 -46.5t-8 -113v-406h-41q-2 42 -17 79.5t-39 37.5q-21 0 -67 -35q-147 -111 -320 -111q-317 0 -494 193t-177 536zM331 1839l27 21 q56 -55 151 -93t230 -38q134 0 230 38.5t153 94.5l24 -23q-27 -44 -63 -82.5t-85.5 -75t-116.5 -58t-142 -21.5q-98 0 -183.5 39t-136 88.5t-88.5 109.5z" />
<glyph unicode="&#x11f;" horiz-adv-x="1354" d="M111 598q0 308 169.5 492t440.5 184q61 0 110.5 -10t91.5 -32t68 -40t66 -51q25 -20 41 -20q40 0 51 124h47q-8 -117 -8 -409h-47q-35 164 -103 241q-68 78 -142 119t-179 41q-186 0 -294 -166t-108 -450q0 -314 115 -461.5t342 -147.5q92 0 158 17q36 9 49.5 26.5 t13.5 50.5v177q0 65 -7.5 100.5t-32.5 57.5t-61.5 29t-105.5 9v41q111 -6 289 -6q139 0 213 6v-41q-47 -3 -67 -15.5t-28.5 -47.5t-8.5 -113v-303h-41q-3 49 -31 49q-8 0 -23 -5.5t-41 -16.5l-26 -11q-132 -45 -268 -45q-308 0 -475.5 165t-167.5 462zM342 1673l26 21 q127 -131 361 -131q127 0 218 39t144 94l25 -23q-26 -44 -60 -82.5t-81.5 -75t-111 -58t-134.5 -21.5t-135 21.5t-111.5 58t-81.5 75t-59 82.5z" />
<glyph unicode="&#x120;" horiz-adv-x="1440" d="M111 700q0 176 49.5 323t137 246.5t209 154.5t263.5 55q64 0 117 -10t100 -32t76.5 -40t75.5 -51q26 -21 41 -21q39 0 51 125h47q-8 -133 -8 -471h-47q-12 73 -21 115.5t-30.5 96.5t-51.5 91q-60 74 -155 117t-199 43q-205 0 -328 -195t-123 -524q0 -368 118.5 -539.5 t369.5 -171.5q123 0 213 64q37 25 48 48t11 64v197q0 123 -38 157.5t-169 39.5v41q101 -7 289 -7q144 0 213 7v-41q-48 -4 -68 -16.5t-28 -46.5t-8 -113v-406h-41q-2 42 -17 79.5t-39 37.5q-21 0 -67 -35q-147 -111 -320 -111q-317 0 -494 193t-177 536zM635 1712 q0 54 38.5 92.5t92.5 38.5q53 0 92 -38.5t39 -92.5t-39 -92.5t-92 -38.5q-54 0 -92.5 38.5t-38.5 92.5z" />
<glyph unicode="&#x121;" horiz-adv-x="1354" d="M111 598q0 308 169.5 492t440.5 184q61 0 110.5 -10t91.5 -32t68 -40t66 -51q25 -20 41 -20q40 0 51 124h47q-8 -117 -8 -409h-47q-35 164 -103 241q-68 78 -142 119t-179 41q-186 0 -294 -166t-108 -450q0 -314 115 -461.5t342 -147.5q92 0 158 17q36 9 49.5 26.5 t13.5 50.5v177q0 65 -7.5 100.5t-32.5 57.5t-61.5 29t-105.5 9v41q111 -6 289 -6q139 0 213 6v-41q-47 -3 -67 -15.5t-28.5 -47.5t-8.5 -113v-303h-41q-3 49 -31 49q-8 0 -23 -5.5t-41 -16.5l-26 -11q-132 -45 -268 -45q-308 0 -475.5 165t-167.5 462zM629 1581 q0 54 38.5 92.5t92.5 38.5q53 0 92 -38.5t39 -92.5t-39 -92.5t-92 -38.5q-54 0 -92.5 38.5t-38.5 92.5z" />
<glyph unicode="&#x122;" horiz-adv-x="1440" d="M111 700q0 176 49.5 323t137 246.5t209 154.5t263.5 55q64 0 117 -10t100 -32t76.5 -40t75.5 -51q26 -21 41 -21q39 0 51 125h47q-8 -133 -8 -471h-47q-12 73 -21 115.5t-30.5 96.5t-51.5 91q-60 74 -155 117t-199 43q-205 0 -328 -195t-123 -524q0 -368 118.5 -539.5 t369.5 -171.5q123 0 213 64q37 25 48 48t11 64v197q0 123 -38 157.5t-169 39.5v41q101 -7 289 -7q144 0 213 7v-41q-48 -4 -68 -16.5t-28 -46.5t-8 -113v-406h-41q-2 42 -17 79.5t-39 37.5q-21 0 -67 -35q-147 -111 -320 -111q-317 0 -494 193t-177 536zM645 -250 q0 46 33.5 77.5t81.5 31.5q59 0 96 -41.5t37 -102.5q0 -77 -36.5 -125.5t-131.5 -83.5l-14 37q53 16 90 50t37 79q-37 -32 -86 -32q-47 0 -77 29t-30 81z" />
<glyph unicode="&#x123;" horiz-adv-x="1354" d="M111 598q0 308 169.5 492t440.5 184q61 0 110.5 -10t91.5 -32t68 -40t66 -51q25 -20 41 -20q40 0 51 124h47q-8 -117 -8 -409h-47q-35 164 -103 241q-68 78 -142 119t-179 41q-186 0 -294 -166t-108 -450q0 -314 115 -461.5t342 -147.5q92 0 158 17q36 9 49.5 26.5 t13.5 50.5v177q0 65 -7.5 100.5t-32.5 57.5t-61.5 29t-105.5 9v41q111 -6 289 -6q139 0 213 6v-41q-47 -3 -67 -15.5t-28.5 -47.5t-8.5 -113v-303h-41q-3 49 -31 49q-8 0 -23 -5.5t-41 -16.5l-26 -11q-132 -45 -268 -45q-308 0 -475.5 165t-167.5 462zM637 -250 q0 46 33.5 77.5t81.5 31.5q59 0 96 -41.5t37 -102.5q0 -77 -36.5 -125.5t-131.5 -83.5l-14 37q53 16 90.5 50t36.5 79q-37 -32 -86 -32q-47 0 -77 29t-30 81z" />
<glyph unicode="&#x124;" horiz-adv-x="1550" d="M86 0v41q74 3 106.5 16t46 48t13.5 112v1016q0 77 -13.5 112t-46 48t-106.5 16v41q85 -6 262 -6q166 0 260 6v-41q-74 -3 -106.5 -16t-46 -48t-13.5 -112v-483h666v483q0 77 -13.5 112t-46 48t-106.5 16v41q96 -6 260 -6q176 0 262 6v-41q-74 -3 -106.5 -16t-46 -48 t-13.5 -112v-1016q0 -77 13.5 -112t46 -48t106.5 -16v-41q-86 6 -262 6q-164 0 -260 -6v41q74 3 106.5 16t46 48t13.5 112v492h-666v-492q0 -77 13.5 -112t46 -48t106.5 -16v-41q-94 6 -260 6q-176 0 -262 -6zM379 1606q131 45 232.5 117.5t150.5 152.5h37 q48 -80 149.5 -152.5t233.5 -117.5l-11 -29q-124 26 -243 65.5t-189 77.5q-58 -38 -154.5 -77.5t-195.5 -65.5z" />
<glyph unicode="&#x125;" horiz-adv-x="1509" d="M86 0v41q74 3 106.5 16t46 48t13.5 112v811q0 77 -13.5 112t-46 48t-106.5 16v41q85 -6 262 -6q166 0 260 6v-41q-74 -3 -106.5 -16t-46 -48t-13.5 -112v-362h625v362q0 77 -13.5 112t-46 48t-106.5 16v41q96 -6 260 -6q177 0 262 6v-41q-74 -3 -106.5 -16t-46 -48 t-13.5 -112v-811q0 -77 13.5 -112t46 -48t106.5 -16v-41q-85 6 -262 6q-164 0 -260 -6v41q74 3 106.5 16t46 48t13.5 112v408h-625v-408q0 -77 13.5 -112t46 -48t106.5 -16v-41q-94 6 -260 6q-176 0 -262 -6zM383 1479q124 45 220.5 118t142.5 152h37q45 -79 141.5 -152 t220.5 -118l-10 -29q-118 26 -231.5 65.5t-180.5 77.5q-55 -38 -146 -77.5t-184 -65.5z" />
<glyph unicode="&#x126;" horiz-adv-x="1550" d="M86 0v41q74 3 106.5 16t46 48t13.5 112v834h-166v41h166v141q0 77 -13.5 112t-46 48t-106.5 16v41q85 -6 262 -6q166 0 260 6v-41q-74 -3 -106.5 -16t-46 -48t-13.5 -112v-141h666v141q0 77 -13.5 112t-46 48t-106.5 16v41q96 -6 260 -6q176 0 262 6v-41 q-74 -3 -106.5 -16t-46 -48t-13.5 -112v-141h166v-41h-166v-834q0 -77 13.5 -112t46 -48t106.5 -16v-41q-86 6 -262 6q-164 0 -260 -6v41q74 3 106.5 16t46 48t13.5 112v492h-666v-492q0 -77 13.5 -112t46 -48t106.5 -16v-41q-94 6 -260 6q-176 0 -262 -6zM442 750h666v301 h-666v-301z" />
<glyph unicode="&#x127;" horiz-adv-x="1509" d="M86 0v41q74 3 106.5 16t46 48t13.5 112v690h-166v41h166v80q0 77 -13.5 112t-46 48t-106.5 16v41q85 -6 262 -6q166 0 260 6v-41q-74 -3 -106.5 -16t-46 -48t-13.5 -112v-80h625v80q0 77 -13.5 112t-46 48t-106.5 16v41q96 -6 260 -6q177 0 262 6v-41q-74 -3 -106.5 -16 t-46 -48t-13.5 -112v-80h166v-41h-166v-690q0 -77 13.5 -112t46 -48t106.5 -16v-41q-85 6 -262 6q-164 0 -260 -6v41q74 3 106.5 16t46 48t13.5 112v408h-625v-408q0 -77 13.5 -112t46 -48t106.5 -16v-41q-94 6 -260 6q-176 0 -262 -6zM442 666h625v241h-625v-241z" />
<glyph unicode="&#x128;" d="M-45 1630q9 99 74 158t153 59q51 0 106.5 -24.5t96.5 -54t94.5 -54t100.5 -24.5q95 0 127 114l30 -6q-9 -99 -73.5 -158t-153.5 -59q-42 0 -85 16.5t-80 39.5l-74 46t-78 39.5t-80 16.5q-96 0 -127 -115zM86 0v41q74 3 106.5 16t46 48t13.5 112v1016q0 77 -13.5 112 t-46 48t-106.5 16v41q85 -6 262 -6q166 0 260 6v-41q-74 -3 -106.5 -16t-46 -48t-13.5 -112v-1016q0 -77 13.5 -112t46 -48t106.5 -16v-41q-94 6 -260 6q-176 0 -262 -6z" />
<glyph unicode="&#x129;" d="M-56 1499q23 102 82.5 159.5t144.5 57.5q51 0 107 -24.5t97.5 -54t94.5 -54t99 -24.5q104 0 143 118l35 -10q-23 -102 -82.5 -159.5t-144.5 -57.5q-42 0 -85.5 16.5t-81 39.5t-74.5 46t-78 39.5t-79 16.5q-104 0 -143 -119zM86 0v41q74 3 106.5 16t46 48t13.5 112v811 q0 77 -13.5 112t-46 48t-106.5 16v41q85 -6 262 -6q166 0 260 6v-41q-74 -3 -106.5 -16t-46 -48t-13.5 -112v-811q0 -77 13.5 -112t46 -48t106.5 -16v-41q-94 6 -260 6q-176 0 -262 -6z" />
<glyph unicode="&#x12a;" d="M-13 1677v52h721v-52h-721zM86 0v41q74 3 106.5 16t46 48t13.5 112v1016q0 77 -13.5 112t-46 48t-106.5 16v41q85 -6 262 -6q166 0 260 6v-41q-74 -3 -106.5 -16t-46 -48t-13.5 -112v-1016q0 -77 13.5 -112t46 -48t106.5 -16v-41q-94 6 -260 6q-176 0 -262 -6z" />
<glyph unicode="&#x12b;" d="M-17 1530v51h721v-51h-721zM86 0v41q74 3 106.5 16t46 48t13.5 112v811q0 77 -13.5 112t-46 48t-106.5 16v41q85 -6 262 -6q166 0 260 6v-41q-74 -3 -106.5 -16t-46 -48t-13.5 -112v-811q0 -77 13.5 -112t46 -48t106.5 -16v-41q-94 6 -260 6q-176 0 -262 -6z" />
<glyph unicode="&#x12c;" d="M-60 1839l27 21q56 -55 151 -93t230 -38q134 0 230 38.5t153 94.5l24 -23q-27 -44 -63 -82.5t-85.5 -75t-116.5 -58t-142 -21.5q-98 0 -183.5 39t-136 88.5t-88.5 109.5zM86 0v41q74 3 106.5 16t46 48t13.5 112v1016q0 77 -13.5 112t-46 48t-106.5 16v41q85 -6 262 -6 q166 0 260 6v-41q-74 -3 -106.5 -16t-46 -48t-13.5 -112v-1016q0 -77 13.5 -112t46 -48t106.5 -16v-41q-94 6 -260 6q-176 0 -262 -6z" />
<glyph unicode="&#x12d;" d="M-41 1673l26 21q127 -131 361 -131q127 0 218 39t144 94l25 -23q-26 -44 -60 -82.5t-81.5 -75t-111 -58t-134.5 -21.5t-135 21.5t-111.5 58t-81.5 75t-59 82.5zM86 0v41q74 3 106.5 16t46 48t13.5 112v811q0 77 -13.5 112t-46 48t-106.5 16v41q85 -6 262 -6q166 0 260 6 v-41q-74 -3 -106.5 -16t-46 -48t-13.5 -112v-811q0 -77 13.5 -112t46 -48t106.5 -16v-41q-94 6 -260 6q-176 0 -262 -6z" />
<glyph unicode="&#x12e;" d="M86 0v41q74 3 106.5 16t46 48t13.5 112v1016q0 77 -13.5 112t-46 48t-106.5 16v41q85 -6 262 -6q166 0 260 6v-41q-74 -3 -106.5 -16t-46 -48t-13.5 -112v-1016q0 -77 13.5 -112t46 -48t106.5 -16v-41l-18 1q-102 -31 -147.5 -85.5t-45.5 -112.5q0 -41 23.5 -65.5 t64.5 -24.5q37 0 70.5 19.5t54.5 48.5l30 -27q-91 -139 -231 -139q-73 0 -117.5 36.5t-44.5 96.5q0 79 71.5 145.5t204.5 110.5q-108 2 -175 2q-176 0 -262 -6z" />
<glyph unicode="&#x12f;" d="M86 0v41q74 3 106.5 16t46 48t13.5 112v811q0 77 -13.5 112t-46 48t-106.5 16v41q85 -6 262 -6q166 0 260 6v-41q-74 -3 -106.5 -16t-46 -48t-13.5 -112v-811q0 -77 13.5 -112t46 -48t106.5 -16v-41l-18 1q-102 -31 -147.5 -85.5t-45.5 -112.5q0 -41 23.5 -65.5 t64.5 -24.5q37 0 70.5 19.5t54.5 48.5l30 -27q-91 -139 -231 -139q-73 0 -117.5 36.5t-44.5 96.5q0 79 71.5 145.5t204.5 110.5q-108 2 -175 2q-176 0 -262 -6z" />
<glyph unicode="&#x130;" d="M86 0v41q74 3 106.5 16t46 48t13.5 112v1016q0 77 -13.5 112t-46 48t-106.5 16v41q85 -6 262 -6q166 0 260 6v-41q-74 -3 -106.5 -16t-46 -48t-13.5 -112v-1016q0 -77 13.5 -112t46 -48t106.5 -16v-41q-94 6 -260 6q-176 0 -262 -6zM217 1833q0 53 38.5 92t92.5 39 q53 0 92 -39t39 -92q0 -54 -39 -92.5t-92 -38.5q-54 0 -92.5 38.5t-38.5 92.5z" />
<glyph unicode="&#x131;" horiz-adv-x="600" d="M59 0v43q86 0 121 31.5t35 115.5v641q0 95 -34.5 138t-121.5 43v43q64 -6 127 -6q130 0 213 28v-887q0 -84 35 -115.5t121 -31.5v-43q-188 8 -248 8t-248 -8z" />
<glyph unicode="&#x132;" horiz-adv-x="1325" d="M86 0v41q74 3 106.5 16t46 48t13.5 112v1016q0 77 -13.5 112t-46 48t-106.5 16v41q85 -6 262 -6q166 0 260 6v-41q-74 -3 -106.5 -16t-46 -48t-13.5 -112v-1016q0 -77 13.5 -112t46 -48t106.5 -16v-41q-94 6 -260 6q-176 0 -262 -6zM350 -207q0 48 30.5 78.5t77.5 30.5 q49 0 81 -30t32 -81q0 -43 -23 -69.5t-63 -34.5q33 -33 131 -33q89 0 153.5 46t92.5 128q21 64 28 159.5t7 309.5v936q0 77 -13.5 112t-46 48t-106.5 16v41q85 -6 262 -6q164 0 260 6v-41q-74 -3 -106.5 -16t-46 -48t-13.5 -112v-750q0 -389 -35 -534q-35 -148 -149 -241 t-283 -93q-100 0 -172 37q-98 51 -98 141z" />
<glyph unicode="&#x133;" horiz-adv-x="1309" d="M86 0v41q74 3 106.5 16t46 48t13.5 112v811q0 77 -13.5 112t-46 48t-106.5 16v41q85 -6 262 -6q166 0 260 6v-41q-74 -3 -106.5 -16t-46 -48t-13.5 -112v-811q0 -77 13.5 -112t46 -48t106.5 -16v-41q-94 6 -260 6q-176 0 -262 -6zM456 -250q0 41 28.5 69.5t70.5 28.5 q40 0 70 -28.5t30 -69.5q0 -26 -15 -51t-38 -39q24 -4 55 -4q140 0 193 172q20 66 27.5 163.5t7.5 305.5v731q0 77 -13.5 112t-46 48t-106.5 16v41q85 -6 262 -6q164 0 260 6v-41q-74 -3 -106.5 -16t-46 -48t-13.5 -112v-545q0 -379 -35 -534q-34 -149 -134.5 -239.5 t-256.5 -90.5q-86 0 -137 33q-56 34 -56 98z" />
<glyph unicode="&#x134;" horiz-adv-x="668" d="M-307 -207q0 48 30.5 78.5t77.5 30.5q49 0 81 -30t32 -81q0 -43 -23 -69.5t-63 -34.5q33 -33 131 -33q89 0 153.5 46t92.5 128q21 64 28 159.5t7 309.5v936q0 77 -13.5 112t-46 48t-106.5 16v41q85 -6 262 -6q164 0 260 6v-41q-74 -3 -106.5 -16t-46 -48t-13.5 -112v-750 q0 -389 -35 -534q-35 -148 -149 -241t-283 -93q-100 0 -172 37q-98 51 -98 141zM-65 1606q131 45 232.5 117.5t150.5 152.5h37q48 -80 149.5 -152.5t233.5 -117.5l-11 -29q-124 26 -243 65.5t-189 77.5q-58 -38 -154.5 -77.5t-195.5 -65.5z" />
<glyph unicode="&#x135;" horiz-adv-x="659" d="M-193 -250q0 41 28.5 69.5t70.5 28.5q40 0 70 -28.5t30 -69.5q0 -26 -15 -51t-38 -39q24 -4 55 -4q140 0 193 172q20 66 27.5 163.5t7.5 305.5v731q0 77 -13.5 112t-46 48t-106.5 16v41q85 -6 262 -6q164 0 260 6v-41q-74 -3 -106.5 -16t-46 -48t-13.5 -112v-545 q0 -379 -35 -534q-34 -149 -134.5 -239.5t-256.5 -90.5q-86 0 -137 33q-56 34 -56 98zM-47 1479q124 45 220.5 118t142.5 152h37q45 -79 141.5 -152t220.5 -118l-10 -29q-118 26 -231.5 65.5t-180.5 77.5q-55 -38 -146 -77.5t-184 -65.5z" />
<glyph unicode="&#x136;" horiz-adv-x="1341" d="M86 0v41q74 3 106.5 16t46 48t13.5 112v1016q0 77 -13.5 112t-46 48t-106.5 16v41q85 -6 262 -6q166 0 260 6v-41q-74 -3 -106.5 -16t-46 -48t-13.5 -112v-459q148 5 234 115l196 250q105 133 105 196q0 71 -127 74v41q117 -6 235 -6q113 0 175 6v-41q-142 -20 -242 -149 l-334 -428l475 -666q34 -52 76 -81t104 -44v-41q-97 6 -245 6q-111 0 -211 -6v41q94 4 94 43q0 19 -21 49l-299 451q-60 91 -101 118t-114 31v-516q0 -77 13.5 -112t46 -48t106.5 -16v-41q-94 6 -260 6q-176 0 -262 -6zM582 -250q0 46 33.5 77.5t81.5 31.5q59 0 96 -41.5 t37 -102.5q0 -77 -36.5 -125.5t-131.5 -83.5l-14 37q53 16 90 50t37 79q-37 -32 -86 -32q-47 0 -77 29t-30 81z" />
<glyph unicode="&#x137;" horiz-adv-x="1339" d="M86 0v41q74 3 106.5 16t46 48t13.5 112v811q0 77 -13.5 112t-46 48t-106.5 16v41q85 -6 262 -6q166 0 260 6v-41q-74 -3 -106.5 -16t-46 -48t-13.5 -112v-371q73 5 135 34t140 104l244 249q53 50 53 92q0 31 -30.5 50t-90.5 20v39q111 -6 242 -6q87 0 145 6v-39 q-73 -13 -121.5 -42t-128.5 -105l-323 -323l452 -570q71 -90 160 -125v-41q-99 6 -229 6q-140 0 -261 -6v41q67 2 95 11.5t28 28.5q0 18 -26 52l-273 379q-43 59 -87 83.5t-124 27.5v-406q0 -77 13.5 -112t46 -48t106.5 -16v-41q-94 6 -260 6q-176 0 -262 -6zM561 -250 q0 46 33.5 77.5t81.5 31.5q59 0 96 -41.5t37 -102.5q0 -77 -36.5 -125.5t-131.5 -83.5l-14 37q53 16 90.5 50t36.5 79q-37 -32 -86 -32q-47 0 -77 29t-30 81z" />
<glyph unicode="&#x138;" horiz-adv-x="1153" d="M59 0v43q86 0 121 31.5t35 115.5v641q0 95 -34.5 138t-121.5 43v43q64 -6 127 -6q130 0 213 28v-535q53 9 87 30t73 61l244 268q29 32 29 58t-28 40.5t-81 14.5v41q108 -6 211 -6q84 0 137 6v-41q-57 -5 -96.5 -23.5t-87.5 -72.5l-299 -328l397 -434q46 -51 79.5 -79.5 t65.5 -33.5v-43q-120 8 -165 8q-56 0 -228 -8v43q30 0 47.5 11t17.5 29q0 16 -14 30l-274 303q-64 79 -115 84v-310q0 -84 30 -115.5t106 -31.5v-43q-172 8 -228 8q-60 0 -248 -8z" />
<glyph unicode="&#x139;" horiz-adv-x="1204" d="M86 0v41q74 3 106.5 16t46 48t13.5 112v1016q0 77 -13.5 112t-46 48t-106.5 16v41q85 -6 262 -6q166 0 260 6v-41q-74 -3 -106.5 -16t-46 -48t-13.5 -112v-1016q0 -110 30 -140t136 -30h150q97 0 156.5 18.5t96.5 67.5t54 115.5t29 181.5h47q-6 -64 -6 -168 q0 -116 14 -262q-139 6 -469 6q-393 0 -594 -6zM223 1608q98 75 200.5 168.5t143.5 119.5q31 20 62 20q40 0 63 -34q11 -19 11 -38q0 -45 -54 -81q-40 -24 -170 -74.5t-242 -107.5z" />
<glyph unicode="&#x13a;" horiz-adv-x="1174" d="M86 0v41q74 3 106.5 16t46 48t13.5 112v811q0 77 -13.5 112t-46 48t-106.5 16v41q85 -6 262 -6q166 0 260 6v-41q-74 -3 -106.5 -16t-46 -48t-13.5 -112v-811q0 -110 30 -140t136 -30h129q142 0 220.5 83.5t95.5 279.5h47q-6 -65 -6 -168q0 -108 14 -242q-133 6 -449 6 q-378 0 -573 -6zM204 1477q99 75 201.5 168.5t142.5 119.5q33 20 62 20q42 0 63 -34q12 -18 12 -39q0 -44 -55 -80q-41 -25 -170.5 -75.5t-240.5 -106.5z" />
<glyph unicode="&#x13b;" horiz-adv-x="1204" d="M86 0v41q74 3 106.5 16t46 48t13.5 112v1016q0 77 -13.5 112t-46 48t-106.5 16v41q85 -6 262 -6q166 0 260 6v-41q-74 -3 -106.5 -16t-46 -48t-13.5 -112v-1016q0 -110 30 -140t136 -30h150q97 0 156.5 18.5t96.5 67.5t54 115.5t29 181.5h47q-6 -64 -6 -168 q0 -116 14 -262q-139 6 -469 6q-393 0 -594 -6zM553 -250q0 46 33.5 77.5t81.5 31.5q59 0 96 -41.5t37 -102.5q0 -77 -36.5 -125.5t-131.5 -83.5l-14 37q53 16 90 50t37 79q-37 -32 -86 -32q-47 0 -77 29t-30 81z" />
<glyph unicode="&#x13c;" horiz-adv-x="1174" d="M86 0v41q74 3 106.5 16t46 48t13.5 112v811q0 77 -13.5 112t-46 48t-106.5 16v41q85 -6 262 -6q166 0 260 6v-41q-74 -3 -106.5 -16t-46 -48t-13.5 -112v-811q0 -110 30 -140t136 -30h129q142 0 220.5 83.5t95.5 279.5h47q-6 -65 -6 -168q0 -108 14 -242q-133 6 -449 6 q-378 0 -573 -6zM496 -250q0 46 33.5 77.5t81.5 31.5q59 0 96 -41.5t37 -102.5q0 -77 -36.5 -125.5t-131.5 -83.5l-14 37q53 16 90.5 50t36.5 79q-37 -32 -86 -32q-47 0 -77 29t-30 81z" />
<glyph unicode="&#x13d;" horiz-adv-x="1204" d="M86 0v41q74 3 106.5 16t46 48t13.5 112v1016q0 77 -13.5 112t-46 48t-106.5 16v41q85 -6 262 -6q166 0 260 6v-41q-74 -3 -106.5 -16t-46 -48t-13.5 -112v-1016q0 -110 30 -140t136 -30h150q97 0 156.5 18.5t96.5 67.5t54 115.5t29 181.5h47q-6 -64 -6 -168 q0 -116 14 -262q-139 6 -469 6q-393 0 -594 -6zM680 1407v43q43 -4 84 -4q69 0 133 16q10 -23 10 -73q0 -32 -10 -69t-41 -101t-51 -100.5t-76 -139.5l-29 8q41 260 41 338q0 43 -12.5 62.5t-48.5 19.5z" />
<glyph unicode="&#x13e;" horiz-adv-x="1174" d="M86 0v41q74 3 106.5 16t46 48t13.5 112v811q0 77 -13.5 112t-46 48t-106.5 16v41q85 -6 262 -6q166 0 260 6v-41q-74 -3 -106.5 -16t-46 -48t-13.5 -112v-811q0 -110 30 -140t136 -30h129q142 0 220.5 83.5t95.5 279.5h47q-6 -65 -6 -168q0 -108 14 -242q-133 6 -449 6 q-378 0 -573 -6zM678 1202v43q39 -4 79 -4q71 0 127 16q11 -22 11 -73q0 -24 -6.5 -51.5t-26.5 -71.5t-32.5 -69.5t-49.5 -95.5t-53 -101l-29 8q41 244 41 317q0 44 -12.5 63t-48.5 19z" />
<glyph unicode="&#x13f;" horiz-adv-x="1268" d="M86 0v41q74 3 106.5 16t46 48t13.5 112v1016q0 77 -13.5 112t-46 48t-106.5 16v41q85 -6 262 -6q166 0 260 6v-41q-74 -3 -106.5 -16t-46 -48t-13.5 -112v-1016q0 -110 30 -140t136 -30h150q97 0 156.5 18.5t96.5 67.5t54 115.5t29 181.5h47q-6 -64 -6 -168 q0 -116 14 -262q-139 6 -469 6q-393 0 -594 -6zM950 729q0 54 38.5 92.5t92.5 38.5t92.5 -38.5t38.5 -92.5q0 -53 -38.5 -92t-92.5 -39t-92.5 39t-38.5 92z" />
<glyph unicode="&#x140;" horiz-adv-x="1233" d="M86 0v41q74 3 106.5 16t46 48t13.5 112v811q0 77 -13.5 112t-46 48t-106.5 16v41q85 -6 262 -6q166 0 260 6v-41q-74 -3 -106.5 -16t-46 -48t-13.5 -112v-811q0 -110 30 -140t136 -30h129q142 0 220.5 83.5t95.5 279.5h47q-6 -65 -6 -168q0 -108 14 -242q-133 6 -449 6 q-378 0 -573 -6zM905 688q0 54 38.5 92.5t92.5 38.5t92.5 -38.5t38.5 -92.5q0 -53 -38.5 -92t-92.5 -39t-92.5 39t-38.5 92z" />
<glyph unicode="&#x141;" horiz-adv-x="1204" d="M86 0v41q74 3 106.5 16t46 48t13.5 112v309l-166 -96v47l166 96v660q0 77 -13.5 112t-46 48t-106.5 16v41q85 -6 262 -6q166 0 260 6v-41q-74 -3 -106.5 -16t-46 -48t-13.5 -112v-570l527 306v-47l-527 -306v-399q0 -110 30 -140t136 -30h150q97 0 156.5 18.5t96.5 67.5 t54 115.5t29 181.5h47q-6 -64 -6 -168q0 -116 14 -262q-139 6 -469 6q-393 0 -594 -6z" />
<glyph unicode="&#x142;" horiz-adv-x="1176" d="M88 0v41q74 3 106.5 16t46 48t13.5 112v225l-166 -94v47l166 94v539q0 77 -13.5 112t-46 48t-106.5 16v41q85 -6 262 -6q166 0 260 6v-41q-74 -3 -106.5 -16t-46 -48t-13.5 -112v-452l404 229v-47l-404 -229v-312q0 -110 30 -140t136 -30h129q142 0 220.5 83.5 t95.5 279.5h47q-6 -65 -6 -168q0 -108 14 -242q-133 6 -449 6q-378 0 -573 -6z" />
<glyph unicode="&#x143;" horiz-adv-x="1446" d="M86 0v41q103 4 134.5 43.5t31.5 153.5v995q0 77 -13.5 112t-46 48t-106.5 16v41q67 -6 190 -6q93 0 160 6l723 -1114v876q0 60 -6.5 94t-27 58t-56 33.5t-96.5 11.5v41q73 -6 209 -6q122 0 190 6v-41q-103 -4 -134.5 -43.5t-31.5 -153.5v-1222h-47l-860 1329v-1081 q0 -115 34.5 -154t151.5 -43v-41q-74 6 -209 6q-122 0 -190 -6zM641 1608q98 75 200.5 168.5t143.5 119.5q31 20 62 20q40 0 63 -34q11 -19 11 -38q0 -45 -54 -81q-40 -24 -170 -74.5t-242 -107.5z" />
<glyph unicode="&#x144;" horiz-adv-x="1403" d="M86 0v41q103 4 134.5 43.5t31.5 153.5v790q0 77 -13.5 112t-46 48t-106.5 16v41q67 -6 190 -6q112 0 189 6l653 -909v672q0 115 -34.5 153.5t-151.5 42.5v41q73 -6 209 -6q123 0 190 6v-41q-103 -4 -134.5 -43t-31.5 -153v-1018h-47l-819 1134v-886q0 -115 34.5 -154 t151.5 -43v-41q-74 6 -209 6q-122 0 -190 -6zM571 1477q99 75 201.5 168.5t142.5 119.5q33 20 62 20q42 0 63 -34q12 -18 12 -39q0 -44 -55 -80q-41 -25 -170.5 -75.5t-240.5 -106.5z" />
<glyph unicode="&#x145;" horiz-adv-x="1446" d="M86 0v41q103 4 134.5 43.5t31.5 153.5v995q0 77 -13.5 112t-46 48t-106.5 16v41q67 -6 190 -6q93 0 160 6l723 -1114v876q0 60 -6.5 94t-27 58t-56 33.5t-96.5 11.5v41q73 -6 209 -6q122 0 190 6v-41q-103 -4 -134.5 -43.5t-31.5 -153.5v-1222h-47l-860 1329v-1081 q0 -115 34.5 -154t151.5 -43v-41q-74 6 -209 6q-122 0 -190 -6zM625 -250q0 46 33.5 77.5t81.5 31.5q59 0 96 -41.5t37 -102.5q0 -77 -36.5 -125.5t-131.5 -83.5l-14 37q53 16 90 50t37 79q-37 -32 -86 -32q-47 0 -77 29t-30 81z" />
<glyph unicode="&#x146;" horiz-adv-x="1403" d="M86 0v41q103 4 134.5 43.5t31.5 153.5v790q0 77 -13.5 112t-46 48t-106.5 16v41q67 -6 190 -6q112 0 189 6l653 -909v672q0 115 -34.5 153.5t-151.5 42.5v41q73 -6 209 -6q123 0 190 6v-41q-103 -4 -134.5 -43t-31.5 -153v-1018h-47l-819 1134v-886q0 -115 34.5 -154 t151.5 -43v-41q-74 6 -209 6q-122 0 -190 -6zM586 -250q0 46 33.5 77.5t81.5 31.5q59 0 96 -41.5t37 -102.5q0 -77 -36.5 -125.5t-131.5 -83.5l-14 37q53 16 90.5 50t36.5 79q-37 -32 -86 -32q-47 0 -77 29t-30 81z" />
<glyph unicode="&#x147;" horiz-adv-x="1446" d="M86 0v41q103 4 134.5 43.5t31.5 153.5v995q0 77 -13.5 112t-46 48t-106.5 16v41q67 -6 190 -6q93 0 160 6l723 -1114v876q0 60 -6.5 94t-27 58t-56 33.5t-96.5 11.5v41q73 -6 209 -6q122 0 190 6v-41q-103 -4 -134.5 -43.5t-31.5 -153.5v-1222h-47l-860 1329v-1081 q0 -115 34.5 -154t151.5 -43v-41q-74 6 -209 6q-122 0 -190 -6zM359 1868l10 28q122 -25 241.5 -65t190.5 -78q59 38 155.5 78t194.5 65l11 -28q-132 -46 -233.5 -118.5t-149.5 -152.5h-37q-49 80 -150.5 152.5t-232.5 118.5z" />
<glyph unicode="&#x148;" horiz-adv-x="1403" d="M86 0v41q103 4 134.5 43.5t31.5 153.5v790q0 77 -13.5 112t-46 48t-106.5 16v41q67 -6 190 -6q112 0 189 6l653 -909v672q0 115 -34.5 153.5t-151.5 42.5v41q73 -6 209 -6q123 0 190 6v-41q-103 -4 -134.5 -43t-31.5 -153v-1018h-47l-819 1134v-886q0 -115 34.5 -154 t151.5 -43v-41q-74 6 -209 6q-122 0 -190 -6zM332 1704l10 29q261 -59 412 -144q124 85 330 144l10 -29q-124 -46 -220.5 -118.5t-141.5 -151.5h-37q-46 79 -142.5 151.5t-220.5 118.5z" />
<glyph unicode="&#x14a;" horiz-adv-x="1444" d="M86 0v41q74 3 106.5 16t46 48t13.5 112v1016q0 77 -13.5 112t-46 48t-106.5 16v41q67 -6 190 -6q112 0 189 6l694 -1073v856q0 58 -5.5 89.5t-25.5 51.5t-49.5 26.5t-85.5 8.5v41q73 -6 189 -6q122 0 190 6v-41q-74 -3 -106.5 -16t-46 -48t-13.5 -112v-1047 q0 -138 -15 -240t-40.5 -164.5t-63.5 -100.5t-79 -52t-93 -14q-79 0 -131.5 31t-52.5 96q0 46 27.5 74t68.5 28q42 0 72.5 -28t30.5 -68q0 -27 -15 -53.5t-38 -40.5q24 -4 47 -4q205 0 231 346l-856 1323v-1102q0 -77 13.5 -112t46 -48t106.5 -16v-41q-74 6 -189 6 q-122 0 -190 -6z" />
<glyph unicode="&#x14b;" horiz-adv-x="1401" d="M86 0v41q74 3 106.5 16t46 48t13.5 112v811q0 77 -13.5 112t-46 48t-106.5 16v41q67 -6 190 -6q112 0 189 6l653 -909v692q0 59 -5.5 90.5t-25.5 51t-49 26t-86 8.5v41q74 -6 189 -6q123 0 190 6v-41q-74 -3 -106.5 -16t-46 -48t-13.5 -112v-842q0 -138 -15 -240 t-40.5 -164.5t-63.5 -100.5t-79 -52t-93 -14q-79 0 -131.5 31t-52.5 96q0 46 27.5 74t68.5 28q42 0 72.5 -28t30.5 -68q0 -27 -15 -53.5t-38 -40.5q24 -4 47 -4q204 0 231 345l-815 1129v-907q0 -77 13.5 -112t46 -48t106.5 -16v-41q-74 6 -189 6q-122 0 -190 -6z" />
<glyph unicode="&#x14c;" horiz-adv-x="1518" d="M109 713q0 226 83 400.5t231 270t337 95.5q296 0 472.5 -197.5t176.5 -544.5q0 -226 -83 -400.5t-231 -270t-337 -95.5q-296 0 -472.5 197.5t-176.5 544.5zM313 721q0 -320 129.5 -516.5t323.5 -196.5q131 0 231 91.5t153.5 255t53.5 374.5q0 320 -129.5 516.5 t-322.5 196.5q-131 0 -231.5 -91.5t-154 -255t-53.5 -374.5zM395 1677v52h721v-52h-721z" />
<glyph unicode="&#x14d;" horiz-adv-x="1477" d="M109 610q0 196 80.5 347.5t223.5 234t326 82.5q287 0 458 -169t171 -470q0 -296 -176.5 -480t-454.5 -184q-287 0 -457.5 169t-170.5 470zM313 618q0 -274 124 -442t308 -168q125 0 220.5 79t146.5 219t51 321q0 274 -124 442t-308 168q-125 0 -220.5 -79t-146.5 -219 t-51 -321zM370 1530v51h721v-51h-721z" />
<glyph unicode="&#x14e;" horiz-adv-x="1518" d="M109 713q0 226 83 400.5t231 270t337 95.5q296 0 472.5 -197.5t176.5 -544.5q0 -226 -83 -400.5t-231 -270t-337 -95.5q-296 0 -472.5 197.5t-176.5 544.5zM313 721q0 -320 129.5 -516.5t323.5 -196.5q131 0 231 91.5t153.5 255t53.5 374.5q0 320 -129.5 516.5 t-322.5 196.5q-131 0 -231.5 -91.5t-154 -255t-53.5 -374.5zM348 1839l27 21q56 -55 151 -93t230 -38q134 0 230 38.5t153 94.5l24 -23q-27 -44 -63 -82.5t-85.5 -75t-116.5 -58t-142 -21.5q-98 0 -183.5 39t-136 88.5t-88.5 109.5z" />
<glyph unicode="&#x14f;" horiz-adv-x="1477" d="M109 610q0 196 80.5 347.5t223.5 234t326 82.5q287 0 458 -169t171 -470q0 -296 -176.5 -480t-454.5 -184q-287 0 -457.5 169t-170.5 470zM313 618q0 -274 124 -442t308 -168q125 0 220.5 79t146.5 219t51 321q0 274 -124 442t-308 168q-125 0 -220.5 -79t-146.5 -219 t-51 -321zM346 1673l26 21q127 -131 361 -131q127 0 218 39t144 94l25 -23q-26 -44 -60 -82.5t-81.5 -75t-111 -58t-134.5 -21.5t-135 21.5t-111.5 58t-81.5 75t-59 82.5z" />
<glyph unicode="&#x150;" horiz-adv-x="1518" d="M109 713q0 226 83 400.5t231 270t337 95.5q296 0 472.5 -197.5t176.5 -544.5q0 -226 -83 -400.5t-231 -270t-337 -95.5q-296 0 -472.5 197.5t-176.5 544.5zM313 721q0 -320 129.5 -516.5t323.5 -196.5q131 0 231 91.5t153.5 255t53.5 374.5q0 320 -129.5 516.5 t-322.5 196.5q-131 0 -231.5 -91.5t-154 -255t-53.5 -374.5zM453 1606q47 47 123 147t116 135q34 30 69 30t56 -26q19 -21 19 -47q0 -41 -43 -78q-41 -33 -153.5 -90t-168.5 -96zM836 1606q47 47 123 147t116 135q34 30 69 30t56 -26q19 -21 19 -47q0 -41 -43 -78 q-41 -33 -153.5 -90t-168.5 -96z" />
<glyph unicode="&#x151;" horiz-adv-x="1477" d="M109 610q0 196 80.5 347.5t223.5 234t326 82.5q287 0 458 -169t171 -470q0 -296 -176.5 -480t-454.5 -184q-287 0 -457.5 169t-170.5 470zM313 618q0 -274 124 -442t308 -168q125 0 220.5 79t146.5 219t51 321q0 274 -124 442t-308 168q-125 0 -220.5 -79t-146.5 -219 t-51 -321zM389 1452q89 89 177 196t124 138q34 30 69 30t56 -26q19 -22 19 -47q0 -41 -43 -78q-37 -30 -158.5 -98t-224.5 -140zM772 1452q89 89 177 196t124 138q34 30 69 30t56 -26q19 -22 19 -47q0 -41 -43 -78q-37 -30 -158.5 -98t-224.5 -140z" />
<glyph unicode="&#x152;" horiz-adv-x="1901" d="M109 713q0 226 83 400.5t231 270t337 95.5q95 0 180 -31q164 -4 434 -4q273 0 387 6q-14 -134 -14 -242q0 -80 6 -127h-47q-7 67 -14.5 108.5t-20.5 82t-31 62t-46.5 39t-67.5 24t-94 6.5h-68q-106 0 -136 -30t-30 -140v-483h88q32 0 58.5 7t44 17t31.5 27t22 32.5 t14 37.5t9 37.5t6.5 37.5t5.5 33h47q-7 -83 -7 -159q0 -18 0.5 -48t0.5 -43q0 -88 12 -250h-47q-1 6 -5 32.5t-5 34.5t-6 31t-9.5 31.5t-12.5 26.5t-17.5 25.5t-23.5 19.5t-30.5 16.5t-39 8.5t-48.5 4h-88v-492q0 -110 30 -140t136 -30h47q97 0 156.5 17.5t96.5 63.5 t54 109.5t29 172.5h47q-6 -55 -6 -148q0 -116 14 -262q-127 6 -428 6q-287 0 -448 -4q-84 -31 -168 -31q-296 0 -472.5 197.5t-176.5 544.5zM313 721q0 -320 129.5 -516.5t323.5 -196.5q57 0 110 20t92.5 69.5t39.5 119.5v1016q0 106 -71.5 157.5t-184.5 51.5 q-131 0 -231.5 -91.5t-154 -255t-53.5 -374.5z" />
<glyph unicode="&#x153;" horiz-adv-x="1913" d="M109 610q0 297 182 480.5t469 183.5q99 0 180 -31q164 -4 434 -4q273 0 387 6q-14 -123 -14 -221q0 -80 6 -127h-47q-15 168 -71.5 234.5t-182.5 66.5h-88q-106 0 -136 -29.5t-30 -140.5v-381h109q118 0 154 132q6 21 16 77h47q-7 -76 -7 -146q0 -17 0.5 -44t0.5 -39 q0 -80 12 -230h-47q-5 37 -10 61.5t-17 55t-29.5 48.5t-48 31t-71.5 13h-109v-389q0 -110 30 -140t136 -30h88q150 0 214 74.5t81 267.5h47q-6 -56 -6 -147q0 -108 14 -242q-127 6 -428 6q-287 0 -448 -4q-84 -31 -168 -31q-296 0 -472.5 169t-176.5 470zM313 618 q0 -274 129.5 -442t323.5 -168q57 0 110 20t92.5 69.5t39.5 119.5v811q0 106 -71.5 157.5t-184.5 51.5q-131 0 -231.5 -79t-154 -219t-53.5 -321z" />
<glyph unicode="&#x154;" horiz-adv-x="1327" d="M86 0v41q74 3 106.5 16t46 48t13.5 112v1016q0 77 -13.5 112t-46 48t-106.5 16v41q85 -6 250 -6q74 0 184 2t125 2q238 0 366 -99.5t128 -256.5q0 -58 -19.5 -115.5t-62.5 -115.5t-124.5 -102t-191.5 -61l25 -4q134 -22 195.5 -81t91.5 -189l51 -209q20 -93 42 -130.5 t63 -37.5q34 0 56 17.5t56 60.5l31 -23q-48 -69 -95 -100t-124 -31q-84 0 -138 49t-82 173l-45 204q-10 46 -16.5 72t-18 61.5t-22 55t-27.5 42t-37 34t-48 19t-62 7.5h-195v-471q0 -77 13.5 -112t46 -48t106.5 -16v-41q-94 6 -260 6q-176 0 -262 -6zM442 729h138 q85 0 148 17.5t102 47.5t62.5 74.5t32.5 92.5t9 108q0 168 -80 254t-260 86q-93 0 -122.5 -34.5t-29.5 -141.5v-504zM481 1608q98 75 200.5 168.5t143.5 119.5q31 20 62 20q40 0 63 -34q11 -19 11 -38q0 -45 -54 -81q-40 -24 -170 -74.5t-242 -107.5z" />
<glyph unicode="&#x155;" horiz-adv-x="1278" d="M86 0v41q74 3 106.5 16t46 48t13.5 112v811q0 59 -5.5 91t-26 51.5t-49 25.5t-85.5 8v41q85 -6 250 -6q70 0 173 2t116 2q228 0 350.5 -85.5t122.5 -223.5q0 -43 -11.5 -83.5t-41 -83.5t-74 -77t-117 -61t-164.5 -38q35 -1 70 -7q109 -17 172.5 -66t89.5 -158l45 -186 q17 -72 36 -101.5t50 -29.5q51 0 113 70l28 -27q-80 -115 -209 -115q-170 0 -211 156l-63 256q-28 114 -85 153t-167 39h-117v-358q0 -77 13.5 -112t46 -48t106.5 -16v-41q-94 6 -260 6q-176 0 -262 -6zM442 616h138q94 0 157.5 22t96.5 64t46 92t13 117q0 148 -74.5 220.5 t-245.5 72.5q-80 0 -105.5 -34.5t-25.5 -141.5v-412zM499 1477q99 75 201.5 168.5t142.5 119.5q33 20 62 20q42 0 63 -34q12 -18 12 -39q0 -44 -55 -80q-41 -25 -170.5 -75.5t-240.5 -106.5z" />
<glyph unicode="&#x156;" horiz-adv-x="1327" d="M86 0v41q74 3 106.5 16t46 48t13.5 112v1016q0 77 -13.5 112t-46 48t-106.5 16v41q85 -6 250 -6q74 0 184 2t125 2q238 0 366 -99.5t128 -256.5q0 -58 -19.5 -115.5t-62.5 -115.5t-124.5 -102t-191.5 -61l25 -4q134 -22 195.5 -81t91.5 -189l51 -209q20 -93 42 -130.5 t63 -37.5q34 0 56 17.5t56 60.5l31 -23q-48 -69 -95 -100t-124 -31q-84 0 -138 49t-82 173l-45 204q-10 46 -16.5 72t-18 61.5t-22 55t-27.5 42t-37 34t-48 19t-62 7.5h-195v-471q0 -77 13.5 -112t46 -48t106.5 -16v-41q-94 6 -260 6q-176 0 -262 -6zM442 729h138 q85 0 148 17.5t102 47.5t62.5 74.5t32.5 92.5t9 108q0 168 -80 254t-260 86q-93 0 -122.5 -34.5t-29.5 -141.5v-504zM563 -250q0 46 33.5 77.5t81.5 31.5q59 0 96 -41.5t37 -102.5q0 -77 -36.5 -125.5t-131.5 -83.5l-14 37q53 16 90 50t37 79q-37 -32 -86 -32q-47 0 -77 29 t-30 81z" />
<glyph unicode="&#x157;" horiz-adv-x="1278" d="M86 0v41q74 3 106.5 16t46 48t13.5 112v811q0 59 -5.5 91t-26 51.5t-49 25.5t-85.5 8v41q85 -6 250 -6q70 0 173 2t116 2q228 0 350.5 -85.5t122.5 -223.5q0 -43 -11.5 -83.5t-41 -83.5t-74 -77t-117 -61t-164.5 -38q35 -1 70 -7q109 -17 172.5 -66t89.5 -158l45 -186 q17 -72 36 -101.5t50 -29.5q51 0 113 70l28 -27q-80 -115 -209 -115q-170 0 -211 156l-63 256q-28 114 -85 153t-167 39h-117v-358q0 -77 13.5 -112t46 -48t106.5 -16v-41q-94 6 -260 6q-176 0 -262 -6zM442 616h138q94 0 157.5 22t96.5 64t46 92t13 117q0 148 -74.5 220.5 t-245.5 72.5q-80 0 -105.5 -34.5t-25.5 -141.5v-412zM553 -250q0 46 33.5 77.5t81.5 31.5q59 0 96 -41.5t37 -102.5q0 -77 -36.5 -125.5t-131.5 -83.5l-14 37q53 16 90.5 50t36.5 79q-37 -32 -86 -32q-47 0 -77 29t-30 81z" />
<glyph unicode="&#x158;" horiz-adv-x="1327" d="M86 0v41q74 3 106.5 16t46 48t13.5 112v1016q0 77 -13.5 112t-46 48t-106.5 16v41q85 -6 250 -6q74 0 184 2t125 2q238 0 366 -99.5t128 -256.5q0 -58 -19.5 -115.5t-62.5 -115.5t-124.5 -102t-191.5 -61l25 -4q134 -22 195.5 -81t91.5 -189l51 -209q20 -93 42 -130.5 t63 -37.5q34 0 56 17.5t56 60.5l31 -23q-48 -69 -95 -100t-124 -31q-84 0 -138 49t-82 173l-45 204q-10 46 -16.5 72t-18 61.5t-22 55t-27.5 42t-37 34t-48 19t-62 7.5h-195v-471q0 -77 13.5 -112t46 -48t106.5 -16v-41q-94 6 -260 6q-176 0 -262 -6zM199 1868l10 28 q122 -25 241.5 -65t190.5 -78q59 38 155.5 78t194.5 65l11 -28q-132 -46 -233.5 -118.5t-149.5 -152.5h-37q-49 80 -150.5 152.5t-232.5 118.5zM442 729h138q85 0 148 17.5t102 47.5t62.5 74.5t32.5 92.5t9 108q0 168 -80 254t-260 86q-93 0 -122.5 -34.5t-29.5 -141.5v-504 z" />
<glyph unicode="&#x159;" horiz-adv-x="1278" d="M86 0v41q74 3 106.5 16t46 48t13.5 112v811q0 59 -5.5 91t-26 51.5t-49 25.5t-85.5 8v41q85 -6 250 -6q70 0 173 2t116 2q228 0 350.5 -85.5t122.5 -223.5q0 -43 -11.5 -83.5t-41 -83.5t-74 -77t-117 -61t-164.5 -38q35 -1 70 -7q109 -17 172.5 -66t89.5 -158l45 -186 q17 -72 36 -101.5t50 -29.5q51 0 113 70l28 -27q-80 -115 -209 -115q-170 0 -211 156l-63 256q-28 114 -85 153t-167 39h-117v-358q0 -77 13.5 -112t46 -48t106.5 -16v-41q-94 6 -260 6q-176 0 -262 -6zM260 1704l10 29q261 -59 412 -144q124 85 330 144l10 -29 q-124 -46 -220.5 -118.5t-141.5 -151.5h-37q-46 79 -142.5 151.5t-220.5 118.5zM442 616h138q94 0 157.5 22t96.5 64t46 92t13 117q0 148 -74.5 220.5t-245.5 72.5q-80 0 -105.5 -34.5t-25.5 -141.5v-412z" />
<glyph unicode="&#x15a;" horiz-adv-x="1106" d="M129 -14q8 112 8 491h47q7 -98 29.5 -178t64.5 -146.5t113 -103.5t166 -37q110 0 188 69t78 204q0 60 -21.5 111t-68.5 97t-97.5 81.5t-131.5 84.5q-59 36 -95.5 59.5t-84.5 59.5t-76.5 68.5t-56 75t-40 91.5t-12.5 105q0 88 31.5 157t85.5 111.5t122.5 64.5t145.5 22 q63 0 114 -13t75.5 -26t60.5 -37q46 -29 70 -29q19 0 29 21.5t16 68.5h47q-10 -120 -10 -418h-47q-6 77 -27.5 144.5t-60.5 125t-102.5 91t-145.5 33.5q-110 0 -180 -66.5t-70 -171.5q0 -30 5 -57.5t17.5 -52t25 -44.5t36 -41.5t40.5 -36.5t49.5 -36.5t52 -34t58.5 -36 t60 -36.5q54 -34 88.5 -56.5t77.5 -54t69.5 -57.5t54.5 -60.5t43.5 -68.5t25.5 -76t10 -88q0 -126 -60 -215.5t-156.5 -131.5t-218.5 -42q-98 0 -161 20.5t-119 55.5q-46 29 -70 29q-19 0 -29 -21.5t-16 -68.5h-47zM438 1608q98 75 200.5 168.5t143.5 119.5q31 20 62 20 q40 0 63 -34q11 -19 11 -38q0 -45 -54 -81q-40 -24 -170 -74.5t-242 -107.5z" />
<glyph unicode="&#x15b;" horiz-adv-x="1096" d="M129 -14q8 100 8 450h47q5 -71 20 -131.5t43.5 -115.5t69.5 -93.5t102.5 -61t137.5 -22.5q48 0 91.5 13.5t80 40.5t58.5 73t22 105q0 42 -17 79t-41 64.5t-72 60t-87 54t-109 57.5q-63 32 -107 58t-92.5 63.5t-77.5 75.5t-48 89t-19 109q0 102 55 176.5t140.5 109 t189.5 34.5q63 0 114 -13t75.5 -26t60.5 -37q48 -29 70 -29q19 0 29 22t16 69h47q-10 -107 -10 -377h-47q-6 69 -27.5 129t-60.5 111.5t-102.5 81.5t-145.5 30q-109 0 -179.5 -57.5t-70.5 -145.5q0 -28 7.5 -54t18 -46t31.5 -41t38.5 -35.5t50 -34.5t53 -31.5t61.5 -33.5 t63 -35q74 -39 122 -67.5t101 -68t82.5 -76.5t49.5 -86t20 -104q0 -112 -58 -192t-151.5 -118t-210.5 -38q-98 0 -161 20.5t-119 55.5q-46 29 -70 29q-19 0 -29 -21.5t-16 -68.5h-47zM409 1477q99 75 201.5 168.5t142.5 119.5q33 20 62 20q42 0 63 -34q12 -18 12 -39 q0 -44 -55 -80q-41 -25 -170.5 -75.5t-240.5 -106.5z" />
<glyph unicode="&#x15c;" horiz-adv-x="1106" d="M129 -14q8 112 8 491h47q7 -98 29.5 -178t64.5 -146.5t113 -103.5t166 -37q110 0 188 69t78 204q0 60 -21.5 111t-68.5 97t-97.5 81.5t-131.5 84.5q-59 36 -95.5 59.5t-84.5 59.5t-76.5 68.5t-56 75t-40 91.5t-12.5 105q0 88 31.5 157t85.5 111.5t122.5 64.5t145.5 22 q63 0 114 -13t75.5 -26t60.5 -37q46 -29 70 -29q19 0 29 21.5t16 68.5h47q-10 -120 -10 -418h-47q-6 77 -27.5 144.5t-60.5 125t-102.5 91t-145.5 33.5q-110 0 -180 -66.5t-70 -171.5q0 -30 5 -57.5t17.5 -52t25 -44.5t36 -41.5t40.5 -36.5t49.5 -36.5t52 -34t58.5 -36 t60 -36.5q54 -34 88.5 -56.5t77.5 -54t69.5 -57.5t54.5 -60.5t43.5 -68.5t25.5 -76t10 -88q0 -126 -60 -215.5t-156.5 -131.5t-218.5 -42q-98 0 -161 20.5t-119 55.5q-46 29 -70 29q-19 0 -29 -21.5t-16 -68.5h-47zM162 1606q131 45 232.5 117.5t150.5 152.5h37 q48 -80 149.5 -152.5t233.5 -117.5l-11 -29q-124 26 -243 65.5t-189 77.5q-58 -38 -154.5 -77.5t-195.5 -65.5z" />
<glyph unicode="&#x15d;" horiz-adv-x="1096" d="M129 -14q8 100 8 450h47q5 -71 20 -131.5t43.5 -115.5t69.5 -93.5t102.5 -61t137.5 -22.5q48 0 91.5 13.5t80 40.5t58.5 73t22 105q0 42 -17 79t-41 64.5t-72 60t-87 54t-109 57.5q-63 32 -107 58t-92.5 63.5t-77.5 75.5t-48 89t-19 109q0 102 55 176.5t140.5 109 t189.5 34.5q63 0 114 -13t75.5 -26t60.5 -37q48 -29 70 -29q19 0 29 22t16 69h47q-10 -107 -10 -377h-47q-6 69 -27.5 129t-60.5 111.5t-102.5 81.5t-145.5 30q-109 0 -179.5 -57.5t-70.5 -145.5q0 -28 7.5 -54t18 -46t31.5 -41t38.5 -35.5t50 -34.5t53 -31.5t61.5 -33.5 t63 -35q74 -39 122 -67.5t101 -68t82.5 -76.5t49.5 -86t20 -104q0 -112 -58 -192t-151.5 -118t-210.5 -38q-98 0 -161 20.5t-119 55.5q-46 29 -70 29q-19 0 -29 -21.5t-16 -68.5h-47zM174 1479q124 45 220.5 118t142.5 152h37q45 -79 141.5 -152t220.5 -118l-10 -29 q-118 26 -231.5 65.5t-180.5 77.5q-55 -38 -146 -77.5t-184 -65.5z" />
<glyph unicode="&#x15e;" horiz-adv-x="1106" d="M129 -14q8 112 8 491h47q7 -98 29.5 -178t64.5 -146.5t113 -103.5t166 -37q110 0 188 69t78 204q0 60 -21.5 111t-68.5 97t-97.5 81.5t-131.5 84.5q-59 36 -95.5 59.5t-84.5 59.5t-76.5 68.5t-56 75t-40 91.5t-12.5 105q0 88 31.5 157t85.5 111.5t122.5 64.5t145.5 22 q63 0 114 -13t75.5 -26t60.5 -37q46 -29 70 -29q19 0 29 21.5t16 68.5h47q-10 -120 -10 -418h-47q-6 77 -27.5 144.5t-60.5 125t-102.5 91t-145.5 33.5q-110 0 -180 -66.5t-70 -171.5q0 -30 5 -57.5t17.5 -52t25 -44.5t36 -41.5t40.5 -36.5t49.5 -36.5t52 -34t58.5 -36 t60 -36.5q54 -34 88.5 -56.5t77.5 -54t69.5 -57.5t54.5 -60.5t43.5 -68.5t25.5 -76t10 -88q0 -92 -32 -165t-88 -120.5t-130 -74t-160 -29.5l-41 -118q61 14 121 14q58 0 91.5 -25.5t33.5 -70.5q0 -54 -38.5 -91t-88.5 -51t-104 -14q-105 0 -170 23l8 36q42 -6 78 -6 q74 0 129 21.5t55 70.5q0 58 -86 58q-58 0 -100 -15l56 169q-137 5 -249 75q-46 29 -70 29q-19 0 -29 -21.5t-16 -68.5h-47z" />
<glyph unicode="&#x15f;" horiz-adv-x="1096" d="M129 -14q8 100 8 450h47q5 -71 20 -131.5t43.5 -115.5t69.5 -93.5t102.5 -61t137.5 -22.5q48 0 91.5 13.5t80 40.5t58.5 73t22 105q0 42 -17 79t-41 64.5t-72 60t-87 54t-109 57.5q-63 32 -107 58t-92.5 63.5t-77.5 75.5t-48 89t-19 109q0 102 55 176.5t140.5 109 t189.5 34.5q63 0 114 -13t75.5 -26t60.5 -37q48 -29 70 -29q19 0 29 22t16 69h47q-10 -107 -10 -377h-47q-6 69 -27.5 129t-60.5 111.5t-102.5 81.5t-145.5 30q-109 0 -179.5 -57.5t-70.5 -145.5q0 -28 7.5 -54t18 -46t31.5 -41t38.5 -35.5t50 -34.5t53 -31.5t61.5 -33.5 t63 -35q74 -39 122 -67.5t101 -68t82.5 -76.5t49.5 -86t20 -104q0 -112 -58 -192t-151.5 -118t-210.5 -38l-41 -118q61 14 121 14q58 0 91.5 -25.5t33.5 -70.5q0 -54 -38.5 -91t-88.5 -51t-104 -14q-105 0 -170 23l8 36q42 -6 78 -6q74 0 129 21.5t55 70.5q0 58 -86 58 q-58 0 -100 -15l57 170q-123 10 -225 74q-46 29 -70 29q-19 0 -29 -21.5t-16 -68.5h-47z" />
<glyph unicode="&#x160;" horiz-adv-x="1106" d="M129 -14q8 112 8 491h47q7 -98 29.5 -178t64.5 -146.5t113 -103.5t166 -37q110 0 188 69t78 204q0 60 -21.5 111t-68.5 97t-97.5 81.5t-131.5 84.5q-59 36 -95.5 59.5t-84.5 59.5t-76.5 68.5t-56 75t-40 91.5t-12.5 105q0 88 31.5 157t85.5 111.5t122.5 64.5t145.5 22 q63 0 114 -13t75.5 -26t60.5 -37q46 -29 70 -29q19 0 29 21.5t16 68.5h47q-10 -120 -10 -418h-47q-6 77 -27.5 144.5t-60.5 125t-102.5 91t-145.5 33.5q-110 0 -180 -66.5t-70 -171.5q0 -30 5 -57.5t17.5 -52t25 -44.5t36 -41.5t40.5 -36.5t49.5 -36.5t52 -34t58.5 -36 t60 -36.5q54 -34 88.5 -56.5t77.5 -54t69.5 -57.5t54.5 -60.5t43.5 -68.5t25.5 -76t10 -88q0 -126 -60 -215.5t-156.5 -131.5t-218.5 -42q-98 0 -161 20.5t-119 55.5q-46 29 -70 29q-19 0 -29 -21.5t-16 -68.5h-47zM156 1868l10 28q122 -25 241.5 -65t190.5 -78 q59 38 155.5 78t194.5 65l11 -28q-132 -46 -233.5 -118.5t-149.5 -152.5h-37q-49 80 -150.5 152.5t-232.5 118.5z" />
<glyph unicode="&#x161;" horiz-adv-x="1096" d="M129 -14q8 100 8 450h47q5 -71 20 -131.5t43.5 -115.5t69.5 -93.5t102.5 -61t137.5 -22.5q48 0 91.5 13.5t80 40.5t58.5 73t22 105q0 42 -17 79t-41 64.5t-72 60t-87 54t-109 57.5q-63 32 -107 58t-92.5 63.5t-77.5 75.5t-48 89t-19 109q0 102 55 176.5t140.5 109 t189.5 34.5q63 0 114 -13t75.5 -26t60.5 -37q48 -29 70 -29q19 0 29 22t16 69h47q-10 -107 -10 -377h-47q-6 69 -27.5 129t-60.5 111.5t-102.5 81.5t-145.5 30q-109 0 -179.5 -57.5t-70.5 -145.5q0 -28 7.5 -54t18 -46t31.5 -41t38.5 -35.5t50 -34.5t53 -31.5t61.5 -33.5 t63 -35q74 -39 122 -67.5t101 -68t82.5 -76.5t49.5 -86t20 -104q0 -112 -58 -192t-151.5 -118t-210.5 -38q-98 0 -161 20.5t-119 55.5q-46 29 -70 29q-19 0 -29 -21.5t-16 -68.5h-47zM170 1704l10 29q261 -59 412 -144q124 85 330 144l10 -29q-124 -46 -220.5 -118.5 t-141.5 -151.5h-37q-46 79 -142.5 151.5t-220.5 118.5z" />
<glyph unicode="&#x162;" horiz-adv-x="1272" d="M59 1450q170 -6 578 -6q405 0 575 6q-14 -146 -14 -262q0 -104 6 -168h-47q-8 80 -15.5 128t-22 97t-35 74.5t-53.5 47t-78.5 29t-110.5 7.5h-111v-1165q0 -52 5.5 -84t17.5 -55t37.5 -34.5t58.5 -16.5t88 -7v-41q-100 6 -279 6l-53 -153q61 14 121 14q58 0 91.5 -25.5 t33.5 -70.5q0 -54 -38.5 -91t-88.5 -51t-104 -14q-105 0 -170 23l8 36q42 -6 78 -6q74 0 129 21.5t55 70.5q0 58 -86 58q-58 0 -100 -15l68 203q-181 0 -269 -6v41q55 2 88 7t58.5 16.5t37.5 34.5t17.5 55t5.5 84v1165h-111q-65 0 -110.5 -7.5t-79 -29t-53.5 -47t-34.5 -74 t-22 -97t-15.5 -128.5h-47q6 64 6 168q0 120 -15 262z" />
<glyph unicode="&#x163;" horiz-adv-x="1292" d="M70 1245q170 -6 577 -6q406 0 576 6q-15 -131 -15 -241q0 -106 6 -168h-47q-9 107 -24 171.5t-48.5 110t-86 63t-136.5 17.5h-131v-960q0 -52 5.5 -84t17.5 -55t37.5 -34.5t58.5 -16.5t88 -7v-41q-96 6 -269 6l-53 -153q61 14 121 14q58 0 91.5 -25.5t33.5 -70.5 q0 -54 -38.5 -91t-88.5 -51t-104 -14q-105 0 -170 23l8 36q42 -6 78 -6q74 0 129 21.5t55 70.5q0 58 -86 58q-58 0 -100 -15l68 203q-186 0 -279 -6v41q55 2 88 7t58.5 16.5t37.5 34.5t17.5 55t5.5 84v960h-131q-84 0 -136.5 -17.5t-85.5 -63t-48.5 -110t-24.5 -171.5h-47 q6 64 6 168q0 107 -14 241z" />
<glyph unicode="&#x164;" horiz-adv-x="1272" d="M59 1450q170 -6 578 -6q405 0 575 6q-14 -146 -14 -262q0 -104 6 -168h-47q-8 80 -15.5 128t-22 97t-35 74.5t-53.5 47t-78.5 29t-110.5 7.5h-111v-1165q0 -52 5.5 -84t17.5 -55t37.5 -34.5t58.5 -16.5t88 -7v-41q-108 6 -301 6q-205 0 -303 -6v41q55 2 88 7t58.5 16.5 t37.5 34.5t17.5 55t5.5 84v1165h-111q-65 0 -110.5 -7.5t-79 -29t-53.5 -47t-34.5 -74t-22 -97t-15.5 -128.5h-47q6 64 6 168q0 120 -15 262zM230 1868l10 28q122 -25 241.5 -65t190.5 -78q59 38 155.5 78t194.5 65l11 -28q-132 -46 -233.5 -118.5t-149.5 -152.5h-37 q-49 80 -150.5 152.5t-232.5 118.5z" />
<glyph unicode="&#x165;" horiz-adv-x="1292" d="M70 1245q170 -6 577 -6q406 0 576 6q-15 -131 -15 -241q0 -106 6 -168h-47q-9 107 -24 171.5t-48.5 110t-86 63t-136.5 17.5h-131v-960q0 -52 5.5 -84t17.5 -55t37.5 -34.5t58.5 -16.5t88 -7v-41q-106 6 -301 6q-204 0 -303 -6v41q55 2 88 7t58.5 16.5t37.5 34.5t17.5 55 t5.5 84v960h-131q-84 0 -136.5 -17.5t-85.5 -63t-48.5 -110t-24.5 -171.5h-47q6 64 6 168q0 107 -14 241zM264 1704l10 29q261 -59 412 -144q124 85 330 144l10 -29q-124 -46 -220.5 -118.5t-141.5 -151.5h-37q-46 79 -142.5 151.5t-220.5 118.5z" />
<glyph unicode="&#x166;" horiz-adv-x="1284" d="M63 1450q170 -6 578 -6q405 0 575 6q-14 -146 -14 -262q0 -104 6 -168h-47q-8 80 -15.5 128t-22 97t-35 74.5t-53.5 47t-78.5 29t-110.5 7.5h-111v-653h328v-41h-328v-471q0 -52 5.5 -84t17.5 -55t37.5 -34.5t58.5 -16.5t88 -7v-41q-108 6 -301 6q-205 0 -303 -6v41 q55 2 88 7t58.5 16.5t37.5 34.5t17.5 55t5.5 84v471h-330v41h330v653h-111q-65 0 -110.5 -7.5t-79 -29t-53.5 -47t-34.5 -74t-22 -97t-15.5 -128.5h-47q6 64 6 168q0 120 -15 262z" />
<glyph unicode="&#x167;" horiz-adv-x="1296" d="M72 1245q170 -6 577 -6q406 0 576 6q-15 -131 -15 -241q0 -106 6 -168h-47q-9 107 -24 171.5t-48.5 110t-86 63t-136.5 17.5h-131v-551h285v-41h-285v-368q0 -52 5.5 -84t17.5 -55t37.5 -34.5t58.5 -16.5t88 -7v-41q-106 6 -301 6q-204 0 -303 -6v41q55 2 88 7t58.5 16.5 t37.5 34.5t17.5 55t5.5 84v368h-289v41h289v551h-131q-84 0 -136.5 -17.5t-85.5 -63t-48.5 -110t-24.5 -171.5h-47q6 64 6 168q0 107 -14 241z" />
<glyph unicode="&#x168;" horiz-adv-x="1397" d="M55 1409v41q87 -6 262 -6q165 0 261 6v-41q-56 -2 -85.5 -8.5t-49.5 -26.5t-25.5 -51.5t-5.5 -89.5v-678q0 -79 4 -136.5t15 -120.5t33.5 -105.5t57 -78.5t88.5 -53.5t125 -17.5q113 0 191.5 39t121.5 113t61.5 165.5t18.5 212.5v639q0 111 -40 151.5t-146 45.5v41 q74 -6 209 -6q123 0 190 6v-41q-102 -4 -133.5 -43t-31.5 -154v-616q0 -291 -84 -434q-52 -88 -151.5 -139.5t-223.5 -51.5q-225 0 -344 111q-90 84 -121 190t-31 318v643q0 58 -5.5 89.5t-25.5 51.5t-49.5 26.5t-85.5 8.5zM328 1630q9 99 74 158t153 59q51 0 106.5 -24.5 t96.5 -54t94.5 -54t100.5 -24.5q95 0 127 114l30 -6q-9 -99 -73.5 -158t-153.5 -59q-42 0 -85 16.5t-80 39.5l-74 46t-78 39.5t-80 16.5q-96 0 -127 -115z" />
<glyph unicode="&#x169;" horiz-adv-x="1348" d="M51 1204v41q87 -6 262 -6q165 0 260 6v-41q-56 -2 -85 -8.5t-49 -26t-25.5 -51t-5.5 -90.5v-514q0 -73 3.5 -126t14 -111t31.5 -97t53.5 -72t83 -49t117.5 -16q86 0 151 24.5t106.5 66.5t67.5 105t36.5 134t10.5 159v476q0 110 -40 150.5t-146 45.5v41q73 -6 209 -6 q122 0 190 6v-41q-103 -4 -134.5 -43t-31.5 -153v-453q0 -277 -83 -414q-49 -78 -143 -124t-212 -46q-210 0 -323 90q-90 81 -121 183.5t-31 304.5v479q0 77 -13.5 112t-46 48t-106.5 16zM280 1499q23 102 82.5 159.5t144.5 57.5q51 0 107 -24.5t97.5 -54t94.5 -54t99 -24.5 q104 0 143 118l35 -10q-23 -102 -82.5 -159.5t-144.5 -57.5q-42 0 -85.5 16.5t-81 39.5t-74.5 46t-78 39.5t-79 16.5q-104 0 -143 -119z" />
<glyph unicode="&#x16a;" horiz-adv-x="1397" d="M55 1409v41q87 -6 262 -6q165 0 261 6v-41q-56 -2 -85.5 -8.5t-49.5 -26.5t-25.5 -51.5t-5.5 -89.5v-678q0 -79 4 -136.5t15 -120.5t33.5 -105.5t57 -78.5t88.5 -53.5t125 -17.5q113 0 191.5 39t121.5 113t61.5 165.5t18.5 212.5v639q0 111 -40 151.5t-146 45.5v41 q74 -6 209 -6q123 0 190 6v-41q-102 -4 -133.5 -43t-31.5 -154v-616q0 -291 -84 -434q-52 -88 -151.5 -139.5t-223.5 -51.5q-225 0 -344 111q-90 84 -121 190t-31 318v643q0 58 -5.5 89.5t-25.5 51.5t-49.5 26.5t-85.5 8.5zM360 1677v52h721v-52h-721z" />
<glyph unicode="&#x16b;" horiz-adv-x="1348" d="M51 1204v41q87 -6 262 -6q165 0 260 6v-41q-56 -2 -85 -8.5t-49 -26t-25.5 -51t-5.5 -90.5v-514q0 -73 3.5 -126t14 -111t31.5 -97t53.5 -72t83 -49t117.5 -16q86 0 151 24.5t106.5 66.5t67.5 105t36.5 134t10.5 159v476q0 110 -40 150.5t-146 45.5v41q73 -6 209 -6 q122 0 190 6v-41q-103 -4 -134.5 -43t-31.5 -153v-453q0 -277 -83 -414q-49 -78 -143 -124t-212 -46q-210 0 -323 90q-90 81 -121 183.5t-31 304.5v479q0 77 -13.5 112t-46 48t-106.5 16zM319 1530v51h721v-51h-721z" />
<glyph unicode="&#x16c;" horiz-adv-x="1397" d="M55 1409v41q87 -6 262 -6q165 0 261 6v-41q-56 -2 -85.5 -8.5t-49.5 -26.5t-25.5 -51.5t-5.5 -89.5v-678q0 -79 4 -136.5t15 -120.5t33.5 -105.5t57 -78.5t88.5 -53.5t125 -17.5q113 0 191.5 39t121.5 113t61.5 165.5t18.5 212.5v639q0 111 -40 151.5t-146 45.5v41 q74 -6 209 -6q123 0 190 6v-41q-102 -4 -133.5 -43t-31.5 -154v-616q0 -291 -84 -434q-52 -88 -151.5 -139.5t-223.5 -51.5q-225 0 -344 111q-90 84 -121 190t-31 318v643q0 58 -5.5 89.5t-25.5 51.5t-49.5 26.5t-85.5 8.5zM313 1839l27 21q56 -55 151 -93t230 -38 q134 0 230 38.5t153 94.5l24 -23q-27 -44 -63 -82.5t-85.5 -75t-116.5 -58t-142 -21.5q-98 0 -183.5 39t-136 88.5t-88.5 109.5z" />
<glyph unicode="&#x16d;" horiz-adv-x="1348" d="M51 1204v41q87 -6 262 -6q165 0 260 6v-41q-56 -2 -85 -8.5t-49 -26t-25.5 -51t-5.5 -90.5v-514q0 -73 3.5 -126t14 -111t31.5 -97t53.5 -72t83 -49t117.5 -16q86 0 151 24.5t106.5 66.5t67.5 105t36.5 134t10.5 159v476q0 110 -40 150.5t-146 45.5v41q73 -6 209 -6 q122 0 190 6v-41q-103 -4 -134.5 -43t-31.5 -153v-453q0 -277 -83 -414q-49 -78 -143 -124t-212 -46q-210 0 -323 90q-90 81 -121 183.5t-31 304.5v479q0 77 -13.5 112t-46 48t-106.5 16zM295 1673l26 21q127 -131 361 -131q127 0 218 39t144 94l25 -23q-26 -44 -60 -82.5 t-81.5 -75t-111 -58t-134.5 -21.5t-135 21.5t-111.5 58t-81.5 75t-59 82.5z" />
<glyph unicode="&#x16e;" horiz-adv-x="1397" d="M55 1409v41q87 -6 262 -6q165 0 261 6v-41q-56 -2 -85.5 -8.5t-49.5 -26.5t-25.5 -51.5t-5.5 -89.5v-678q0 -79 4 -136.5t15 -120.5t33.5 -105.5t57 -78.5t88.5 -53.5t125 -17.5q113 0 191.5 39t121.5 113t61.5 165.5t18.5 212.5v639q0 111 -40 151.5t-146 45.5v41 q74 -6 209 -6q123 0 190 6v-41q-102 -4 -133.5 -43t-31.5 -154v-616q0 -291 -84 -434q-52 -88 -151.5 -139.5t-223.5 -51.5q-225 0 -344 111q-90 84 -121 190t-31 318v643q0 58 -5.5 89.5t-25.5 51.5t-49.5 26.5t-85.5 8.5zM525 1831q0 83 57.5 134.5t138.5 51.5 q83 0 141 -51.5t58 -134.5q0 -85 -58 -137t-141 -52q-81 0 -138.5 52t-57.5 137zM582 1829q0 -68 42.5 -106t96.5 -38q56 0 99 38t43 106q0 66 -43.5 105.5t-98.5 39.5q-53 0 -96 -39.5t-43 -105.5z" />
<glyph unicode="&#x16f;" horiz-adv-x="1348" d="M51 1204v41q87 -6 262 -6q165 0 260 6v-41q-56 -2 -85 -8.5t-49 -26t-25.5 -51t-5.5 -90.5v-514q0 -73 3.5 -126t14 -111t31.5 -97t53.5 -72t83 -49t117.5 -16q86 0 151 24.5t106.5 66.5t67.5 105t36.5 134t10.5 159v476q0 110 -40 150.5t-146 45.5v41q73 -6 209 -6 q122 0 190 6v-41q-103 -4 -134.5 -43t-31.5 -153v-453q0 -277 -83 -414q-49 -78 -143 -124t-212 -46q-210 0 -323 90q-90 81 -121 183.5t-31 304.5v479q0 77 -13.5 112t-46 48t-106.5 16zM488 1585q0 84 57.5 135.5t138.5 51.5q83 0 141 -51.5t58 -135.5q0 -85 -58 -136.5 t-141 -51.5q-81 0 -138.5 51.5t-57.5 136.5zM545 1583q0 -67 42.5 -105t96.5 -38q56 0 99 38t43 105t-43.5 106.5t-98.5 39.5q-53 0 -96 -40t-43 -106z" />
<glyph unicode="&#x170;" horiz-adv-x="1397" d="M55 1409v41q87 -6 262 -6q165 0 261 6v-41q-56 -2 -85.5 -8.5t-49.5 -26.5t-25.5 -51.5t-5.5 -89.5v-678q0 -79 4 -136.5t15 -120.5t33.5 -105.5t57 -78.5t88.5 -53.5t125 -17.5q113 0 191.5 39t121.5 113t61.5 165.5t18.5 212.5v639q0 111 -40 151.5t-146 45.5v41 q74 -6 209 -6q123 0 190 6v-41q-102 -4 -133.5 -43t-31.5 -154v-616q0 -291 -84 -434q-52 -88 -151.5 -139.5t-223.5 -51.5q-225 0 -344 111q-90 84 -121 190t-31 318v643q0 58 -5.5 89.5t-25.5 51.5t-49.5 26.5t-85.5 8.5zM418 1606q47 47 123 147t116 135q34 30 69 30 t56 -26q19 -21 19 -47q0 -41 -43 -78q-41 -33 -153.5 -90t-168.5 -96zM801 1606q47 47 123 147t116 135q34 30 69 30t56 -26q19 -21 19 -47q0 -41 -43 -78q-41 -33 -153.5 -90t-168.5 -96z" />
<glyph unicode="&#x171;" horiz-adv-x="1348" d="M51 1204v41q87 -6 262 -6q165 0 260 6v-41q-56 -2 -85 -8.5t-49 -26t-25.5 -51t-5.5 -90.5v-514q0 -73 3.5 -126t14 -111t31.5 -97t53.5 -72t83 -49t117.5 -16q86 0 151 24.5t106.5 66.5t67.5 105t36.5 134t10.5 159v476q0 110 -40 150.5t-146 45.5v41q73 -6 209 -6 q122 0 190 6v-41q-103 -4 -134.5 -43t-31.5 -153v-453q0 -277 -83 -414q-49 -78 -143 -124t-212 -46q-210 0 -323 90q-90 81 -121 183.5t-31 304.5v479q0 77 -13.5 112t-46 48t-106.5 16zM338 1452q89 89 177 196t124 138q34 30 69 30t56 -26q19 -22 19 -47q0 -41 -43 -78 q-37 -30 -158.5 -98t-224.5 -140zM721 1452q89 89 177 196t124 138q34 30 69 30t56 -26q19 -22 19 -47q0 -41 -43 -78q-37 -30 -158.5 -98t-224.5 -140z" />
<glyph unicode="&#x172;" horiz-adv-x="1397" d="M55 1409v41q87 -6 262 -6q165 0 261 6v-41q-56 -2 -85.5 -8.5t-49.5 -26.5t-25.5 -51.5t-5.5 -89.5v-678q0 -79 4 -136.5t15 -120.5t33.5 -105.5t57 -78.5t88.5 -53.5t125 -17.5q113 0 191.5 39t121.5 113t61.5 165.5t18.5 212.5v639q0 111 -40 151.5t-146 45.5v41 q74 -6 209 -6q123 0 190 6v-41q-102 -4 -133.5 -43t-31.5 -154v-616q0 -291 -84 -434q-80 -135 -253 -177q-78 -33 -113.5 -82t-35.5 -100q0 -41 23.5 -65.5t64.5 -24.5q37 0 70.5 19.5t54.5 48.5l30 -27q-91 -139 -231 -139q-73 0 -117.5 36.5t-44.5 96.5q0 66 50 123 t144 100h-17q-225 0 -344 111q-90 84 -121 190t-31 318v643q0 58 -5.5 89.5t-25.5 51.5t-49.5 26.5t-85.5 8.5z" />
<glyph unicode="&#x173;" horiz-adv-x="1348" d="M51 1204v41q87 -6 262 -6q165 0 260 6v-41q-56 -2 -85 -8.5t-49 -26t-25.5 -51t-5.5 -90.5v-514q0 -73 3.5 -126t14 -111t31.5 -97t53.5 -72t83 -49t117.5 -16q86 0 151 24.5t106.5 66.5t67.5 105t36.5 134t10.5 159v476q0 110 -40 150.5t-146 45.5v41q73 -6 209 -6 q122 0 190 6v-41q-103 -4 -134.5 -43t-31.5 -153v-453q0 -277 -83 -414q-74 -117 -231 -155q-79 -33 -114.5 -82.5t-35.5 -100.5q0 -41 23.5 -65.5t64.5 -24.5q37 0 70.5 19.5t54.5 48.5l30 -27q-91 -139 -231 -139q-73 0 -117.5 36.5t-44.5 96.5q0 66 50 123t144 100h-18 q-210 0 -323 90q-90 81 -121 183.5t-31 304.5v479q0 77 -13.5 112t-46 48t-106.5 16z" />
<glyph unicode="&#x174;" horiz-adv-x="1853" d="M-14 1409v41q83 -6 219 -6q147 0 221 6v-41q-54 -4 -77 -20t-23 -51q0 -33 22 -101l300 -913l248 793l-54 161q-42 127 -121 131v41q74 -6 199 -6q175 0 262 6v-41q-40 -2 -61.5 -4.5t-42 -10t-28.5 -21.5t-8 -37q0 -34 21 -99l294 -911l253 792q33 104 33 165 q0 68 -41.5 96t-133.5 30v41q117 -6 236 -6q92 0 154 6v-41q-114 -25 -162 -178l-387 -1241h-17h-16l-356 1055l-326 -1055h-16h-17l-434 1288q-44 126 -141 131zM549 1606q131 45 232.5 117.5t150.5 152.5h37q48 -80 149.5 -152.5t233.5 -117.5l-11 -29q-124 26 -243 65.5 t-189 77.5q-58 -38 -154.5 -77.5t-195.5 -65.5z" />
<glyph unicode="&#x175;" horiz-adv-x="1786" d="M-12 1204v41q83 -6 219 -6q177 0 262 6v-41q-78 -3 -110 -18t-32 -56q0 -34 23 -98l291 -793l249 589l-99 245q-52 127 -142 131v41q84 -6 219 -6q176 0 262 6v-41q-77 -3 -110 -19t-33 -56q0 -31 25 -97l296 -779l220 642q39 111 39 181q0 68 -38 96.5t-114 31.5v41 q61 -6 187 -6q128 0 178 6v-41q-56 -12 -94.5 -58.5t-71.5 -144.5l-352 -1011h-33l-316 781l-333 -781h-33l-418 1083q-49 127 -141 131zM549 1479q124 45 220.5 118t142.5 152h37q45 -79 141.5 -152t220.5 -118l-10 -29q-118 26 -231.5 65.5t-180.5 77.5 q-55 -38 -146 -77.5t-184 -65.5z" />
<glyph unicode="&#x176;" horiz-adv-x="1210" d="M-6 1407v43q80 -6 180 -6q199 0 287 6v-43q-144 0 -144 -79q0 -30 21 -71l341 -653l261 520q56 113 56 176q0 58 -45 82.5t-136 26.5v41q117 -6 236 -6q91 0 153 6v-41q-41 -9 -80 -51.5t-84 -130.5l-321 -637v-373q0 -58 5.5 -89.5t25.5 -51.5t49.5 -26.5t85.5 -8.5v-41 q-96 6 -260 6q-176 0 -263 -6v41q56 2 85.5 8.5t49.5 26.5t25.5 51.5t5.5 89.5v309l-415 766q-38 69 -65.5 92t-53.5 23zM222 1606q131 45 232.5 117.5t150.5 152.5h37q48 -80 149.5 -152.5t233.5 -117.5l-11 -29q-124 26 -243 65.5t-189 77.5q-58 -38 -154.5 -77.5 t-195.5 -65.5z" />
<glyph unicode="&#x177;" horiz-adv-x="1174" d="M-4 1202v43q130 -8 180 -8q142 0 287 8v-43q-34 0 -55 -1.5t-44.5 -7t-34.5 -19t-11 -34.5q0 -36 36 -96l310 -515l254 446q46 82 46 132q0 86 -143 95v43q77 -8 174 -8q117 0 158 8v-43q-35 -9 -64 -39.5t-67 -99.5l-322 -575v-271q0 -77 13.5 -112t46 -48t106.5 -16 v-41q-94 6 -260 6q-176 0 -262 -6v41q74 3 106.5 16t46 48t13.5 112v212l-395 658q-40 66 -65 88t-54 27zM217 1479q124 45 220.5 118t142.5 152h37q45 -79 141.5 -152t220.5 -118l-10 -29q-118 26 -231.5 65.5t-180.5 77.5q-55 -38 -146 -77.5t-184 -65.5z" />
<glyph unicode="&#x178;" horiz-adv-x="1210" d="M-6 1407v43q80 -6 180 -6q199 0 287 6v-43q-144 0 -144 -79q0 -30 21 -71l341 -653l261 520q56 113 56 176q0 58 -45 82.5t-136 26.5v41q117 -6 236 -6q91 0 153 6v-41q-41 -9 -80 -51.5t-84 -130.5l-321 -637v-373q0 -58 5.5 -89.5t25.5 -51.5t49.5 -26.5t85.5 -8.5v-41 q-96 6 -260 6q-176 0 -263 -6v41q56 2 85.5 8.5t49.5 26.5t25.5 51.5t5.5 89.5v309l-415 766q-38 69 -65.5 92t-53.5 23zM287 1700q0 48 35 83.5t84 35.5q47 0 83 -36t36 -83q0 -49 -35.5 -84t-83.5 -35q-50 0 -84.5 34.5t-34.5 84.5zM721 1700q0 48 35.5 83.5t83.5 35.5 t83.5 -36t35.5 -83q0 -49 -35.5 -84t-83.5 -35q-49 0 -84 35t-35 84z" />
<glyph unicode="&#x179;" horiz-adv-x="1217" d="M86 0v41l854 1362h-430q-97 0 -156.5 -18.5t-96.5 -67.5t-54 -115.5t-29 -181.5h-47q6 64 6 168q0 116 -14 262q151 -6 510 -6q348 0 497 6v-41l-847 -1362h432q97 0 156.5 18.5t96.5 67.5t54 115.5t29 181.5h47q-7 -75 -7 -168q0 -106 15 -262q-152 6 -510 6 q-350 0 -506 -6zM479 1608q98 75 200.5 168.5t143.5 119.5q31 20 62 20q40 0 63 -34q11 -19 11 -38q0 -45 -54 -81q-40 -24 -170 -74.5t-242 -107.5z" />
<glyph unicode="&#x17a;" horiz-adv-x="1178" d="M106 0v41l723 1157h-430q-107 0 -162 -77t-71 -265h-47q6 64 6 168q0 98 -14 221q145 -6 489 -6q313 0 457 6v-41l-723 -1157h450q107 0 162 77t72 265h47q-6 -65 -6 -168q0 -98 14 -221q-145 6 -489 6q-328 0 -478 -6zM456 1477q99 75 201.5 168.5t142.5 119.5 q33 20 62 20q42 0 63 -34q12 -18 12 -39q0 -44 -55 -80q-41 -25 -170.5 -75.5t-240.5 -106.5z" />
<glyph unicode="&#x17b;" horiz-adv-x="1217" d="M86 0v41l854 1362h-430q-97 0 -156.5 -18.5t-96.5 -67.5t-54 -115.5t-29 -181.5h-47q6 64 6 168q0 116 -14 262q151 -6 510 -6q348 0 497 6v-41l-847 -1362h432q97 0 156.5 18.5t96.5 67.5t54 115.5t29 181.5h47q-7 -75 -7 -168q0 -106 15 -262q-152 6 -510 6 q-350 0 -506 -6zM473 1833q0 53 38.5 92t92.5 39q53 0 92 -39t39 -92q0 -54 -39 -92.5t-92 -38.5q-54 0 -92.5 38.5t-38.5 92.5z" />
<glyph unicode="&#x17c;" horiz-adv-x="1178" d="M106 0v41l723 1157h-430q-107 0 -162 -77t-71 -265h-47q6 64 6 168q0 98 -14 221q145 -6 489 -6q313 0 457 6v-41l-723 -1157h450q107 0 162 77t72 265h47q-6 -65 -6 -168q0 -98 14 -221q-145 6 -489 6q-328 0 -478 -6zM469 1581q0 54 38.5 92.5t92.5 38.5q53 0 92 -38.5 t39 -92.5t-39 -92.5t-92 -38.5q-54 0 -92.5 38.5t-38.5 92.5z" />
<glyph unicode="&#x17d;" horiz-adv-x="1217" d="M86 0v41l854 1362h-430q-97 0 -156.5 -18.5t-96.5 -67.5t-54 -115.5t-29 -181.5h-47q6 64 6 168q0 116 -14 262q151 -6 510 -6q348 0 497 6v-41l-847 -1362h432q97 0 156.5 18.5t96.5 67.5t54 115.5t29 181.5h47q-7 -75 -7 -168q0 -106 15 -262q-152 6 -510 6 q-350 0 -506 -6zM197 1868l10 28q122 -25 241.5 -65t190.5 -78q59 38 155.5 78t194.5 65l11 -28q-132 -46 -233.5 -118.5t-149.5 -152.5h-37q-49 80 -150.5 152.5t-232.5 118.5z" />
<glyph unicode="&#x17e;" horiz-adv-x="1178" d="M106 0v41l723 1157h-430q-107 0 -162 -77t-71 -265h-47q6 64 6 168q0 98 -14 221q145 -6 489 -6q313 0 457 6v-41l-723 -1157h450q107 0 162 77t72 265h47q-6 -65 -6 -168q0 -98 14 -221q-145 6 -489 6q-328 0 -478 -6zM217 1704l10 29q261 -59 412 -144q124 85 330 144 l10 -29q-124 -46 -220.5 -118.5t-141.5 -151.5h-37q-46 79 -142.5 151.5t-220.5 118.5z" />
<glyph unicode="&#x192;" horiz-adv-x="940" d="M10 -276q0 42 26 69t70 27q41 0 67 -26.5t26 -65.5q0 -48 -33 -82q77 9 110 49q24 26 33 67q10 48 10 105v1145h-245v41h245v2q0 180 23 277.5t82 166.5q40 48 104.5 75.5t139.5 27.5q107 0 174 -53t67 -130q0 -44 -28.5 -74t-75.5 -30q-50 0 -80.5 27t-30.5 75 q0 77 88 105q-6 19 -36.5 34t-71.5 15q-92 0 -133 -76q-25 -43 -31 -129.5t-6 -310.5v-2h342v-41h-342v-776q0 -166 -23 -291t-86 -205q-47 -61 -114 -93t-134 -32t-102 31t-35 78z" />
<glyph unicode="&#x1f4;" horiz-adv-x="1440" d="M111 700q0 176 49.5 323t137 246.5t209 154.5t263.5 55q64 0 117 -10t100 -32t76.5 -40t75.5 -51q26 -21 41 -21q39 0 51 125h47q-8 -133 -8 -471h-47q-12 73 -21 115.5t-30.5 96.5t-51.5 91q-60 74 -155 117t-199 43q-205 0 -328 -195t-123 -524q0 -368 118.5 -539.5 t369.5 -171.5q123 0 213 64q37 25 48 48t11 64v197q0 123 -38 157.5t-169 39.5v41q101 -7 289 -7q144 0 213 7v-41q-48 -4 -68 -16.5t-28 -46.5t-8 -113v-406h-41q-2 42 -17 79.5t-39 37.5q-21 0 -67 -35q-147 -111 -320 -111q-317 0 -494 193t-177 536zM614 1608 q98 75 200.5 168.5t143.5 119.5q31 20 62 20q40 0 63 -34q11 -19 11 -38q0 -45 -54 -81q-40 -24 -170 -74.5t-242 -107.5z" />
<glyph unicode="&#x1f5;" horiz-adv-x="1354" d="M111 598q0 308 169.5 492t440.5 184q61 0 110.5 -10t91.5 -32t68 -40t66 -51q25 -20 41 -20q40 0 51 124h47q-8 -117 -8 -409h-47q-35 164 -103 241q-68 78 -142 119t-179 41q-186 0 -294 -166t-108 -450q0 -314 115 -461.5t342 -147.5q92 0 158 17q36 9 49.5 26.5 t13.5 50.5v177q0 65 -7.5 100.5t-32.5 57.5t-61.5 29t-105.5 9v41q111 -6 289 -6q139 0 213 6v-41q-47 -3 -67 -15.5t-28.5 -47.5t-8.5 -113v-303h-41q-3 49 -31 49q-8 0 -23 -5.5t-41 -16.5l-26 -11q-132 -45 -268 -45q-308 0 -475.5 165t-167.5 462zM587 1477 q99 75 201.5 168.5t142.5 119.5q33 20 62 20q42 0 63 -34q12 -18 12 -39q0 -44 -55 -80q-41 -25 -170.5 -75.5t-240.5 -106.5z" />
<glyph unicode="&#x218;" horiz-adv-x="1106" d="M129 -14q8 112 8 491h47q7 -98 29.5 -178t64.5 -146.5t113 -103.5t166 -37q110 0 188 69t78 204q0 60 -21.5 111t-68.5 97t-97.5 81.5t-131.5 84.5q-59 36 -95.5 59.5t-84.5 59.5t-76.5 68.5t-56 75t-40 91.5t-12.5 105q0 88 31.5 157t85.5 111.5t122.5 64.5t145.5 22 q63 0 114 -13t75.5 -26t60.5 -37q46 -29 70 -29q19 0 29 21.5t16 68.5h47q-10 -120 -10 -418h-47q-6 77 -27.5 144.5t-60.5 125t-102.5 91t-145.5 33.5q-110 0 -180 -66.5t-70 -171.5q0 -30 5 -57.5t17.5 -52t25 -44.5t36 -41.5t40.5 -36.5t49.5 -36.5t52 -34t58.5 -36 t60 -36.5q54 -34 88.5 -56.5t77.5 -54t69.5 -57.5t54.5 -60.5t43.5 -68.5t25.5 -76t10 -88q0 -126 -60 -215.5t-156.5 -131.5t-218.5 -42q-98 0 -161 20.5t-119 55.5q-46 29 -70 29q-19 0 -29 -21.5t-16 -68.5h-47zM459 -250q0 46 33.5 77.5t81.5 31.5q59 0 96 -41.5 t37 -102.5q0 -77 -36.5 -125.5t-131.5 -83.5l-14 37q53 16 90 50t37 79q-37 -32 -86 -32q-47 0 -77 29t-30 81z" />
<glyph unicode="&#x219;" horiz-adv-x="1096" d="M129 -14q8 100 8 450h47q5 -71 20 -131.5t43.5 -115.5t69.5 -93.5t102.5 -61t137.5 -22.5q48 0 91.5 13.5t80 40.5t58.5 73t22 105q0 42 -17 79t-41 64.5t-72 60t-87 54t-109 57.5q-63 32 -107 58t-92.5 63.5t-77.5 75.5t-48 89t-19 109q0 102 55 176.5t140.5 109 t189.5 34.5q63 0 114 -13t75.5 -26t60.5 -37q48 -29 70 -29q19 0 29 22t16 69h47q-10 -107 -10 -377h-47q-6 69 -27.5 129t-60.5 111.5t-102.5 81.5t-145.5 30q-109 0 -179.5 -57.5t-70.5 -145.5q0 -28 7.5 -54t18 -46t31.5 -41t38.5 -35.5t50 -34.5t53 -31.5t61.5 -33.5 t63 -35q74 -39 122 -67.5t101 -68t82.5 -76.5t49.5 -86t20 -104q0 -112 -58 -192t-151.5 -118t-210.5 -38q-98 0 -161 20.5t-119 55.5q-46 29 -70 29q-19 0 -29 -21.5t-16 -68.5h-47zM438 -250q0 46 33.5 77.5t81.5 31.5q59 0 96 -41.5t37 -102.5q0 -77 -36.5 -125.5 t-131.5 -83.5l-14 37q53 16 90.5 50t36.5 79q-37 -32 -86 -32q-47 0 -77 29t-30 81z" />
<glyph unicode="&#x21a;" horiz-adv-x="1272" d="M59 1450q170 -6 578 -6q405 0 575 6q-14 -146 -14 -262q0 -104 6 -168h-47q-8 80 -15.5 128t-22 97t-35 74.5t-53.5 47t-78.5 29t-110.5 7.5h-111v-1165q0 -52 5.5 -84t17.5 -55t37.5 -34.5t58.5 -16.5t88 -7v-41q-108 6 -301 6q-205 0 -303 -6v41q55 2 88 7t58.5 16.5 t37.5 34.5t17.5 55t5.5 84v1165h-111q-65 0 -110.5 -7.5t-79 -29t-53.5 -47t-34.5 -74t-22 -97t-15.5 -128.5h-47q6 64 6 168q0 120 -15 262zM510 -250q0 46 33.5 77.5t81.5 31.5q59 0 96 -41.5t37 -102.5q0 -77 -36.5 -125.5t-131.5 -83.5l-14 37q53 16 90 50t37 79 q-37 -32 -86 -32q-47 0 -77 29t-30 81z" />
<glyph unicode="&#x21b;" horiz-adv-x="1292" d="M70 1245q170 -6 577 -6q406 0 576 6q-15 -131 -15 -241q0 -106 6 -168h-47q-9 107 -24 171.5t-48.5 110t-86 63t-136.5 17.5h-131v-960q0 -52 5.5 -84t17.5 -55t37.5 -34.5t58.5 -16.5t88 -7v-41q-106 6 -301 6q-204 0 -303 -6v41q55 2 88 7t58.5 16.5t37.5 34.5t17.5 55 t5.5 84v960h-131q-84 0 -136.5 -17.5t-85.5 -63t-48.5 -110t-24.5 -171.5h-47q6 64 6 168q0 107 -14 241zM516 -250q0 46 33.5 77.5t81.5 31.5q59 0 96 -41.5t37 -102.5q0 -77 -36.5 -125.5t-131.5 -83.5l-14 37q53 16 90.5 50t36.5 79q-37 -32 -86 -32q-47 0 -77 29t-30 81 z" />
<glyph unicode="&#x237;" horiz-adv-x="547" d="M-131 -260q0 47 29.5 76.5t76.5 29.5q49 0 78 -25t29 -75q0 -70 -78 -98q12 -2 35 -2q71 0 115 47q47 59 47 174v964q0 95 -34.5 138t-121.5 43v43q64 -6 127 -6q130 0 213 28v-841q0 -167 -22.5 -291.5t-86.5 -204.5q-47 -61 -113.5 -93t-133.5 -32q-72 0 -115 31 q-45 34 -45 94z" />
<glyph unicode="&#x2c6;" horiz-adv-x="823" d="M51 1290q117 58 208.5 153t133.5 199h37q42 -104 133.5 -199t208.5 -153l-16 -28q-111 38 -216 93.5t-169 110.5q-52 -55 -134.5 -110.5t-168.5 -93.5z" />
<glyph unicode="&#x2c7;" horiz-adv-x="823" d="M51 1614l17 28q111 -38 216 -94t169 -110q52 55 134.5 110.5t168.5 93.5l16 -28q-117 -58 -208.5 -153t-133.5 -199h-37q-42 104 -133.5 199t-208.5 153z" />
<glyph unicode="&#x2d8;" horiz-adv-x="877" d="M72 1595l34 19q120 -197 332 -197q214 0 332 197l35 -19q-23 -56 -55.5 -105.5t-77.5 -95t-105.5 -72t-128.5 -26.5q-67 0 -127.5 27t-105.5 72t-77.5 94.5t-55.5 105.5z" />
<glyph unicode="&#x2d9;" horiz-adv-x="406" d="M72 1436q0 53 38.5 92t92.5 39q53 0 92 -39t39 -92q0 -54 -39 -92.5t-92 -38.5q-54 0 -92.5 38.5t-38.5 92.5z" />
<glyph unicode="&#x2da;" horiz-adv-x="539" d="M72 1434q0 83 57.5 134.5t138.5 51.5q83 0 141 -51.5t58 -134.5q0 -85 -58 -137t-141 -52q-81 0 -138.5 52t-57.5 137zM129 1432q0 -68 42.5 -106t96.5 -38q56 0 99 38t43 106q0 66 -43.5 105.5t-98.5 39.5q-53 0 -96 -39.5t-43 -105.5z" />
<glyph unicode="&#x2db;" horiz-adv-x="496" d="M49 -252q0 80 73.5 147t209.5 111h65q-5 -5 -20 -10q-178 -76 -178 -193q0 -41 23.5 -65.5t64.5 -24.5q37 0 70.5 19.5t54.5 48.5l30 -27q-91 -139 -231 -139q-73 0 -117.5 36.5t-44.5 96.5z" />
<glyph unicode="&#x2dc;" horiz-adv-x="842" d="M51 1362q31 108 95.5 159.5t148.5 51.5q41 0 76.5 -14t62 -33.5t52 -39.5t55.5 -34t63 -14q93 0 158 108l29 -14q-31 -108 -95.5 -159.5t-146.5 -51.5q-50 0 -95 21.5t-72.5 47t-66 47t-77.5 21.5q-91 0 -158 -110z" />
<glyph unicode="&#x2dd;" horiz-adv-x="842" d="M51 1245q66 104 130 227.5t93 161.5q35 46 79 46q25 0 44 -15q28 -23 28 -57q0 -33 -28 -70q-30 -38 -134.5 -129.5t-188.5 -181.5zM416 1245q66 104 130 227.5t93 161.5q35 46 78 46q25 0 45 -15q28 -23 28 -57q0 -33 -28 -70q-26 -33 -72 -73.5t-115 -103t-137 -134.5z " />
<glyph unicode="&#x326;" horiz-adv-x="0" d="M88 -250q0 46 33.5 77.5t81.5 31.5q59 0 96 -41.5t37 -102.5q0 -77 -36.5 -125.5t-131.5 -83.5l-14 37q53 16 90.5 50t36.5 79q-37 -32 -86 -32q-47 0 -77 29t-30 81z" />
<glyph unicode="&#x394;" horiz-adv-x="1032" d="M57 0l478 1479h32l396 -1479q-225 6 -451 6q-227 0 -455 -6zM119 61h622l-286 1049z" />
<glyph unicode="&#x3a9;" horiz-adv-x="1462" d="M141 967q0 241 153.5 376.5t436.5 135.5t436.5 -135.5t153.5 -376.5q0 -104 -28 -199.5t-78.5 -182t-104.5 -162.5t-124.5 -180t-119.5 -196h99q150 0 214 74.5t81 267.5h47q-7 -65 -7 -147q0 -98 15 -242q-60 6 -209 6q-48 0 -149.5 -2.5t-141.5 -3.5v33q36 54 70 112 t78.5 151t76 186t54 211.5t22.5 232.5q0 253 -90 384.5t-295 131.5q-204 0 -294.5 -131.5t-90.5 -384.5q0 -114 22.5 -232.5t54 -211.5t76 -186t78.5 -151t70 -112v-33q-40 1 -141.5 3.5t-149.5 2.5q-149 0 -209 -6q15 131 15 242q0 92 -6 147h47q17 -193 81 -267.5 t214 -74.5h98q-49 92 -119 196t-124 180t-105 162.5t-79 182t-28 199.5z" />
<glyph unicode="&#x3bc;" horiz-adv-x="1360" d="M51 -307q0 22 11.5 47.5t24.5 43t42.5 54.5t46.5 60q76 101 130.5 241t74.5 357q6 449 10 477q8 59 40 84.5t73 25.5q78 0 78 -86q0 -33 -16.5 -74t-38.5 -82t-50.5 -121t-47.5 -176l-21 -200q7 -82 51.5 -118t109.5 -36q115 0 193 63t129 206l6 48q6 438 10 466 q17 110 113 110q78 0 78 -86q0 -34 -17.5 -76.5t-41 -84.5t-53 -127t-47.5 -188q-18 -137 -18 -197q0 -76 23 -105t78 -29q83 0 138.5 62.5t94.5 206.5l39 -8q-10 -52 -23.5 -105.5t-40 -124t-58.5 -123.5t-81 -90t-104 -37q-129 0 -129 184q0 45 6 91l2 19 q-25 -58 -55.5 -107t-71 -93t-93.5 -69t-111 -25q-151 0 -162 189q-50 -298 -119 -465q-14 -36 -45 -58t-74 -22q-40 0 -62 21.5t-22 56.5z" />
<glyph unicode="&#x3c0;" horiz-adv-x="1235" d="M51 608q28 110 65.5 187.5t97.5 138t148.5 90t208.5 29.5h590v-172h-358l-62 -537q-2 -24 -2 -34q0 -120 103 -120q83 0 138.5 62.5t94.5 206.5l39 -8q-8 -43 -19 -86t-29 -101t-43 -107t-56 -92.5t-72.5 -68.5t-87.5 -25q-129 0 -129 184q0 45 6 91l80 635h-223 q-56 -551 -166 -830q-15 -36 -46 -58t-73 -22q-40 0 -62 21.5t-22 56.5q0 9 1 17t5 17.5t6.5 16.5t9.5 18t11 17t13.5 18.5t14 18t16.5 20.5t17 21q33 43 56.5 77t57 96.5t55.5 127.5t42 161.5t28 205.5h-77q-68 0 -113.5 -10t-89.5 -39.5t-77 -86t-62 -145.5z" />
<glyph unicode="&#x401;" horiz-adv-x="1247" d="M86 0v41q74 3 106.5 16t46 48t13.5 112v1016q0 77 -13.5 112t-46 48t-106.5 16v41q201 -6 594 -6q301 0 428 6q-14 -134 -14 -242q0 -80 6 -127h-47q-7 67 -14.5 108.5t-20.5 81.5t-31 62t-47 39.5t-68 24t-94 6.5h-170q-106 0 -136 -30t-30 -140v-483h136q37 0 65.5 9 t47.5 28t31.5 37.5t20.5 49t11.5 49.5t7.5 52t6 45h47q-7 -102 -7 -193q0 -20 0.5 -52t0.5 -46q0 -104 12 -291h-47q-14 115 -23 146q-28 99 -116 119q-25 6 -57 6h-136v-492q0 -110 30 -140t136 -30h150q97 0 156.5 17.5t96.5 63.5t54 109.5t29 172.5h47q-6 -55 -6 -148 q0 -116 14 -262q-139 6 -469 6q-393 0 -594 -6zM291 1700q0 48 35 83.5t84 35.5q47 0 83 -36t36 -83q0 -49 -35.5 -84t-83.5 -35q-50 0 -84.5 34.5t-34.5 84.5zM725 1700q0 48 35.5 83.5t83.5 35.5t83.5 -36t35.5 -83q0 -49 -35.5 -84t-83.5 -35q-49 0 -84 35t-35 84z" />
<glyph unicode="&#x402;" horiz-adv-x="1599" d="M59 1450q170 -6 578 -6q405 0 575 6q-14 -146 -14 -262q0 -104 6 -168h-47q-8 80 -15.5 128t-22 97t-35 74.5t-53.5 47t-78.5 29t-110.5 7.5h-111v-688q62 58 161 97.5t212 39.5q194 0 311 -110t117 -322q0 -114 -36.5 -202.5t-98.5 -141t-137.5 -79t-161.5 -26.5 q-68 0 -126 18t-98 59t-40 99q0 50 28 80.5t78 30.5q47 0 78 -27t31 -73q0 -79 -88 -107q6 -19 37.5 -34t74.5 -15q133 0 196.5 100t63.5 299q0 72 -7 126t-26.5 105t-52.5 83t-87 51.5t-128 19.5q-92 0 -174.5 -32t-126.5 -82v-695q-99 29 -270 29q-63 0 -127 -6v41 q55 2 88 7t58.5 16.5t37.5 34.5t17.5 55t5.5 84v1165h-111q-65 0 -110.5 -7.5t-79 -29t-53.5 -47t-34.5 -74t-22 -97t-15.5 -128.5h-47q6 64 6 168q0 120 -15 262z" />
<glyph unicode="&#x403;" horiz-adv-x="1081" d="M86 0v41q74 3 106.5 16t46 48t13.5 112v1016q0 77 -13.5 112t-46 48t-106.5 16v41q201 -6 594 -6q244 0 346 6q-14 -146 -14 -262q0 -104 6 -168h-47q-6 59 -11.5 98.5t-14 81t-19.5 67.5t-28 51t-38.5 39t-51.5 25.5t-67.5 16t-85.5 4.5h-47q-106 0 -136 -30t-30 -140 v-1016q0 -58 7.5 -90t32.5 -51.5t61.5 -26t105.5 -8.5v-41q-107 6 -301 6q-176 0 -262 -6zM391 1608q98 75 200.5 168.5t143.5 119.5q31 20 62 20q40 0 63 -34q11 -19 11 -38q0 -45 -54 -81q-40 -24 -170 -74.5t-242 -107.5z" />
<glyph unicode="&#x404;" horiz-adv-x="1415" d="M109 713q0 226 83 400.5t231 270t337 95.5q122 0 208.5 -35t168.5 -98q22 -18 40 -18q42 0 52 122h47q-8 -133 -8 -471h-47q-22 134 -41 191.5t-62 111.5q-62 80 -157 120t-205 40q-201 0 -322 -195t-121 -526v-7q34 72 98.5 110t143.5 38q48 0 96 -16t87.5 -39 t78.5 -45.5t84.5 -38.5t89.5 -16q57 0 103.5 28t64.5 86l31 -14q-27 -102 -103.5 -156.5t-175.5 -54.5q-61 0 -122.5 24.5t-103.5 53.5t-100 53.5t-114 24.5q-108 0 -157 -92q12 -306 140 -477t322 -171q102 0 199 39t151 117q42 56 60 121.5t35 202.5h47q0 -353 8 -492h-47 q-5 64 -16.5 92.5t-33.5 28.5q-16 0 -42 -17q-93 -65 -176.5 -99t-202.5 -34q-296 0 -472.5 197.5t-176.5 544.5z" />
<glyph unicode="&#x405;" horiz-adv-x="1106" d="M129 -14q8 112 8 491h47q7 -98 29.5 -178t64.5 -146.5t113 -103.5t166 -37q110 0 188 69t78 204q0 60 -21.5 111t-68.5 97t-97.5 81.5t-131.5 84.5q-59 36 -95.5 59.5t-84.5 59.5t-76.5 68.5t-56 75t-40 91.5t-12.5 105q0 88 31.5 157t85.5 111.5t122.5 64.5t145.5 22 q63 0 114 -13t75.5 -26t60.5 -37q46 -29 70 -29q19 0 29 21.5t16 68.5h47q-10 -120 -10 -418h-47q-6 77 -27.5 144.5t-60.5 125t-102.5 91t-145.5 33.5q-110 0 -180 -66.5t-70 -171.5q0 -30 5 -57.5t17.5 -52t25 -44.5t36 -41.5t40.5 -36.5t49.5 -36.5t52 -34t58.5 -36 t60 -36.5q54 -34 88.5 -56.5t77.5 -54t69.5 -57.5t54.5 -60.5t43.5 -68.5t25.5 -76t10 -88q0 -126 -60 -215.5t-156.5 -131.5t-218.5 -42q-98 0 -161 20.5t-119 55.5q-46 29 -70 29q-19 0 -29 -21.5t-16 -68.5h-47z" />
<glyph unicode="&#x406;" d="M86 0v41q74 3 106.5 16t46 48t13.5 112v1016q0 77 -13.5 112t-46 48t-106.5 16v41q85 -6 262 -6q166 0 260 6v-41q-74 -3 -106.5 -16t-46 -48t-13.5 -112v-1016q0 -77 13.5 -112t46 -48t106.5 -16v-41q-94 6 -260 6q-176 0 -262 -6z" />
<glyph unicode="&#x407;" d="M12 1700q0 48 35 83.5t84 35.5q47 0 83 -36t36 -83q0 -49 -35.5 -84t-83.5 -35q-49 0 -84 34.5t-35 84.5zM86 0v41q74 3 106.5 16t46 48t13.5 112v1016q0 77 -13.5 112t-46 48t-106.5 16v41q85 -6 262 -6q166 0 260 6v-41q-74 -3 -106.5 -16t-46 -48t-13.5 -112v-1016 q0 -77 13.5 -112t46 -48t106.5 -16v-41q-94 6 -260 6q-176 0 -262 -6zM446 1700q0 48 35.5 83.5t83.5 35.5t83.5 -36t35.5 -83q0 -49 -35.5 -84t-83.5 -35q-49 0 -84 35t-35 84z" />
<glyph unicode="&#x408;" horiz-adv-x="668" d="M-307 -207q0 48 30.5 78.5t77.5 30.5q49 0 81 -30t32 -81q0 -43 -23 -69.5t-63 -34.5q33 -33 131 -33q89 0 153.5 46t92.5 128q21 64 28 159.5t7 309.5v936q0 77 -13.5 112t-46 48t-106.5 16v41q85 -6 262 -6q164 0 260 6v-41q-74 -3 -106.5 -16t-46 -48t-13.5 -112v-750 q0 -389 -35 -534q-35 -148 -149 -241t-283 -93q-100 0 -172 37q-98 51 -98 141z" />
<glyph unicode="&#x409;" horiz-adv-x="1901" d="M-6 111q0 53 34 84.5t87 31.5q45 0 74.5 -24.5t29.5 -65.5q0 -43 -21 -70.5t-67 -54.5q19 -2 49 -2q191 0 280 331q59 221 89 697q3 48 12 195q2 34 2 46q0 76 -34 101t-134 29v41q87 -6 211 -6q31 0 91 3t89 3q51 0 142.5 -3t150.5 -3q159 0 244 6v-41 q-74 -3 -106.5 -16t-46 -48t-13.5 -112v-473q120 2 189 2q239 0 366 -102.5t127 -268.5q0 -59 -14.5 -112t-51 -104t-93.5 -88.5t-148.5 -61t-208.5 -25.5h-2h-21q-41 0 -111 5q-40 1 -128 1q-195 0 -301 -6v41q69 2 105.5 8.5t61.5 26t32.5 51.5t7.5 90v1016 q0 111 -30.5 143.5t-135.5 32.5h-27q-37 0 -61.5 -2.5t-43 -11.5t-28 -19t-16.5 -33.5t-10 -45.5t-7 -64q-5 -57 -11.5 -151.5t-11 -165.5t-13.5 -167t-19 -169t-27 -157.5t-37.5 -146.5t-50.5 -122.5t-66.5 -98.5t-85 -61t-106.5 -23q-77 0 -131.5 34.5t-54.5 105.5z M1157 217q0 -108 29 -139.5t130 -36.5q95 3 159.5 30.5t98 77.5t47 107t13.5 133q0 173 -81.5 253.5t-276.5 80.5l-119 -1v-505z" />
<glyph unicode="&#x40a;" horiz-adv-x="2042" d="M86 0v41q74 3 106.5 16t46 48t13.5 112v1016q0 77 -13.5 112t-46 48t-106.5 16v41q85 -6 262 -6q166 0 260 6v-41q-74 -3 -106.5 -16t-46 -48t-13.5 -112v-483h666v483q0 77 -13.5 112t-46 48t-106.5 16v41q96 -6 260 -6q176 0 262 6v-41q-74 -3 -106.5 -16t-46 -48 t-13.5 -112v-474q90 3 189 3q239 0 366 -102.5t127 -268.5q0 -49 -10.5 -93.5t-33 -89t-62.5 -80.5t-95.5 -64.5t-135.5 -45t-179 -18.5h-2h-20q-42 0 -112 5q-39 1 -128 1q-164 0 -260 -6v41q74 3 106.5 16t46 48t13.5 112v492h-666v-492q0 -77 13.5 -112t46 -48t106.5 -16 v-41q-94 6 -260 6q-176 0 -262 -6zM1298 217q0 -109 29 -140t130 -36q76 2 133.5 21.5t92.5 50t56 76t29 93t8 107.5q0 173 -82 253.5t-277 80.5l-119 -1v-505z" />
<glyph unicode="&#x40b;" horiz-adv-x="1667" d="M59 1450q170 -6 578 -6q405 0 575 6q-14 -146 -14 -262q0 -104 6 -168h-47q-8 80 -15.5 128t-22 97t-35 74.5t-53.5 47t-78.5 29t-110.5 7.5h-111v-606q62 30 172.5 52.5t212.5 22.5q168 0 262 -71q56 -43 77.5 -104t21.5 -171v-336q0 -84 34.5 -115.5t120.5 -31.5v-43 q-188 8 -252 8q-57 0 -229 -8v43q75 0 105 31.5t30 115.5v381q0 56 -7.5 92.5t-30.5 72.5t-72 53.5t-125 17.5q-192 0 -320 -45v-524q0 -52 5.5 -84t17.5 -55t37.5 -34.5t58.5 -16.5t88 -7v-41q-108 6 -301 6q-205 0 -303 -6v41q55 2 88 7t58.5 16.5t37.5 34.5t17.5 55 t5.5 84v1165h-111q-65 0 -110.5 -7.5t-79 -29t-53.5 -47t-34.5 -74t-22 -97t-15.5 -128.5h-47q6 64 6 168q0 120 -15 262z" />
<glyph unicode="&#x40c;" horiz-adv-x="1389" d="M86 0v41q74 3 106.5 16t46 48t13.5 112v1016q0 77 -13.5 112t-46 48t-106.5 16v41q85 -6 262 -6q166 0 260 6v-41q-74 -3 -106.5 -16t-46 -48t-13.5 -112v-463q152 3 242 119l197 250q104 132 104 196q0 71 -127 74v41q117 -6 236 -6q112 0 174 6v-41q-139 -20 -242 -149 l-386 -491q78 -3 139 -18t117 -47t95 -90t58 -141l59 -258q23 -99 41.5 -133.5t58.5 -34.5q35 0 57 17.5t56 60.5l31 -23q-47 -67 -93.5 -99t-125.5 -32q-82 0 -136.5 47.5t-83.5 174.5l-57 253q-10 45 -17 70t-19 60t-24.5 54t-33 41.5t-45.5 33.5t-60 18.5t-79 7.5h-136 v-514q0 -77 13.5 -112t46 -48t106.5 -16v-41q-94 6 -260 6q-176 0 -262 -6zM594 1608q98 75 200.5 168.5t143.5 119.5q31 20 62 20q40 0 63 -34q11 -19 11 -38q0 -45 -54 -81q-40 -24 -170 -74.5t-242 -107.5z" />
<glyph unicode="&#x40e;" horiz-adv-x="1325" d="M-4 1407v43q79 -6 180 -6q199 0 287 6v-43q-144 0 -144 -79q0 -32 21 -71l417 -778l322 645q56 113 56 176q0 58 -45 82.5t-136 26.5v41q117 -6 236 -6q93 0 153 6v-41q-41 -9 -79.5 -51.5t-83.5 -130.5l-449 -894l-82 -165q-46 -94 -90 -137q-60 -60 -153 -60 q-64 0 -104 32.5t-40 90.5q0 49 31 79t78 30q45 0 74.5 -25.5t29.5 -71.5q0 -60 -55 -92q4 -2 12 -2q54 0 96 39.5t80 118.5l56 114l-549 1008q-38 69 -65.5 92t-53.5 23zM264 1819q0 51 30 81.5t79 30.5t80.5 -29.5t31.5 -80.5q0 -42 -23.5 -69.5t-62.5 -35.5 q43 -40 123 -57t160 -17t159.5 17t122.5 57q-39 8 -62.5 35.5t-23.5 69.5q0 50 32.5 80t80.5 30t78.5 -30.5t30.5 -81.5q0 -43 -23.5 -76t-75.5 -64q-127 -77 -319 -77q-191 0 -320 77q-51 31 -74.5 64t-23.5 76z" />
<glyph unicode="&#x40f;" horiz-adv-x="1550" d="M86 0v41q74 3 106.5 16t46 48t13.5 112v1016q0 77 -13.5 112t-46 48t-106.5 16v41q85 -6 262 -6q166 0 260 6v-41q-74 -3 -106.5 -16t-46 -48t-13.5 -112v-1016q0 -111 30.5 -143.5t135.5 -32.5h334q105 0 135.5 32.5t30.5 143.5v1016q0 77 -13.5 112t-46 48t-106.5 16 v41q96 -6 260 -6q176 0 262 6v-41q-74 -3 -106.5 -16t-46 -48t-13.5 -112v-1016q0 -77 13.5 -112t46 -48t106.5 -16v-41q-86 6 -262 6q-57 0 -165 -2h3q-55 0 -93 -12.5t-62 -34t-39.5 -65t-23.5 -92t-15 -128.5h-47q-5 57 -10.5 95t-13.5 76.5t-19.5 61.5t-28 44t-39.5 32 t-53 17t-70 6h1q-116 2 -179 2q-176 0 -262 -6z" />
<glyph unicode="&#x410;" horiz-adv-x="1290" d="M-14 0v41q102 23 161 178l482 1241h33l499 -1288q50 -127 142 -131v-41q-84 6 -220 6q-175 0 -262 -6v41q78 3 111.5 19t33.5 57q0 35 -24 96l-126 336h-494l-84 -217q-41 -104 -41 -168q0 -65 43.5 -93t134.5 -30v-41q-117 6 -236 6q-92 0 -153 -6zM337 590h464 l-229 611z" />
<glyph unicode="&#x411;" horiz-adv-x="1221" d="M86 0v41q74 3 106.5 16t46 48t13.5 112v1016q0 77 -13.5 112t-46 48t-106.5 16v41q201 -6 594 -6q258 0 367 6q-15 -131 -15 -242q0 -80 6 -127h-47q-9 80 -18 127.5t-27 89.5t-47 62.5t-72.5 31.5t-109.5 11h-109q-106 0 -136 -30t-30 -140v-374q40 0 106 1.5t83 1.5 q240 0 366.5 -117.5t126.5 -312.5q0 -55 -10.5 -105.5t-34 -100t-65.5 -89.5t-99.5 -71.5t-141.5 -48.5t-187 -17q-28 0 -106 3t-152 3q-156 0 -242 -6zM442 217q0 -110 25 -143t113 -33q82 0 143 20.5t98 54t59.5 85t31 106t8.5 123.5q0 206 -82 299.5t-277 93.5 q-23 0 -119 -2v-604z" />
<glyph unicode="&#x412;" horiz-adv-x="1276" d="M86 0v41q74 3 106.5 16t46 48t13.5 112v1016q0 77 -13.5 112t-46 48t-106.5 16v41q85 -6 250 -6q74 0 184 2t125 2q209 0 320.5 -88t111.5 -234q0 -118 -74.5 -212t-236.5 -144v-4q117 -16 201 -52t130 -87t66.5 -107.5t20.5 -122.5q0 -177 -132.5 -287t-359.5 -110 q-17 0 -136 3t-216 3q-168 0 -254 -6zM442 217q0 -107 29 -138.5t125 -31.5q383 0 383 359q0 161 -87.5 245t-277.5 84h-172v-518zM442 770h138q87 0 148 26.5t93.5 75t46 104.5t13.5 128q0 154 -68 229.5t-219 75.5q-93 0 -122.5 -34.5t-29.5 -141.5v-463z" />
<glyph unicode="&#x413;" horiz-adv-x="1081" d="M86 0v41q74 3 106.5 16t46 48t13.5 112v1016q0 77 -13.5 112t-46 48t-106.5 16v41q201 -6 594 -6q244 0 346 6q-14 -146 -14 -262q0 -104 6 -168h-47q-6 59 -11.5 98.5t-14 81t-19.5 67.5t-28 51t-38.5 39t-51.5 25.5t-67.5 16t-85.5 4.5h-47q-106 0 -136 -30t-30 -140 v-1016q0 -58 7.5 -90t32.5 -51.5t61.5 -26t105.5 -8.5v-41q-107 6 -301 6q-176 0 -262 -6z" />
<glyph unicode="&#x414;" horiz-adv-x="1288" d="M6 41h37q193 0 282 333q58 217 88 683q3 49 9 145q1 21 2 31q1 15 1 41q0 79 -33 105t-134 30v41q86 -6 211 -6q31 0 91 3t89 3q51 0 142 -3t151 -3q157 0 244 6v-41q-74 -3 -106.5 -16t-46 -48t-13.5 -112v-1016q0 -111 30.5 -143.5t135.5 -32.5h63q-14 -134 -14 -242 q0 -81 6 -127h-47q-7 67 -14.5 109t-20.5 83t-31 63.5t-46.5 40.5t-67.5 25t-94 7h-584q-66 0 -110 -12t-72.5 -33t-46.5 -64t-27.5 -90.5t-18.5 -128.5h-47q6 46 6 127q0 108 -14 242zM181 41h483q104 0 134.5 32t30.5 144v1016q0 112 -30.5 144t-134.5 32h-27 q-32 0 -54 -2.5t-39.5 -6.5t-28.5 -15t-18.5 -21t-12 -33t-7 -42t-6.5 -56q-5 -59 -12.5 -159t-13 -175.5t-16 -175.5t-22.5 -177t-32.5 -161.5t-46 -146.5t-63.5 -115t-84 -82z" />
<glyph unicode="&#x415;" horiz-adv-x="1247" d="M86 0v41q74 3 106.5 16t46 48t13.5 112v1016q0 77 -13.5 112t-46 48t-106.5 16v41q201 -6 594 -6q301 0 428 6q-14 -134 -14 -242q0 -80 6 -127h-47q-7 67 -14.5 108.5t-20.5 81.5t-31 62t-47 39.5t-68 24t-94 6.5h-170q-106 0 -136 -30t-30 -140v-483h136q37 0 65.5 9 t47.5 28t31.5 37.5t20.5 49t11.5 49.5t7.5 52t6 45h47q-7 -102 -7 -193q0 -20 0.5 -52t0.5 -46q0 -104 12 -291h-47q-14 115 -23 146q-28 99 -116 119q-25 6 -57 6h-136v-492q0 -110 30 -140t136 -30h150q97 0 156.5 17.5t96.5 63.5t54 109.5t29 172.5h47q-6 -55 -6 -148 q0 -116 14 -262q-139 6 -469 6q-393 0 -594 -6z" />
<glyph unicode="&#x416;" horiz-adv-x="2013" d="M2 102l31 23q24 -30 36 -43t32 -24t44 -11q40 0 59 34.5t42 133.5l59 258q19 83 57.5 141t94.5 90t117 47t139 18l-385 491q-103 129 -242 149v41q62 -6 174 -6q119 0 236 6v-41q-127 -3 -127 -74q0 -64 104 -196l197 -250q90 -116 241 -119v463q0 58 -5.5 89.5 t-25.5 51.5t-49.5 26.5t-85.5 8.5v41q96 -6 261 -6q175 0 262 6v-41q-56 -2 -85.5 -8.5t-49.5 -26.5t-25.5 -51.5t-5.5 -89.5v-463q151 3 241 119l197 250q104 132 104 196q0 71 -126 74v41q116 -6 235 -6q113 0 174 6v-41q-140 -20 -241 -149l-386 -491q78 -3 139 -18 t117 -47t94.5 -90t57.5 -141l59 -258q23 -99 42 -133.5t59 -34.5q34 0 56.5 17.5t55.5 60.5l31 -23q-46 -67 -93 -99t-126 -32q-81 0 -135.5 47.5t-83.5 174.5l-57 253q-10 45 -17 70t-19 60t-24.5 54t-33 41.5t-45.5 33.5t-60.5 18.5t-79.5 7.5h-135v-514q0 -58 5.5 -89.5 t25.5 -51.5t49.5 -26.5t85.5 -8.5v-41q-87 6 -262 6q-165 0 -261 -6v41q56 2 85.5 8.5t49.5 26.5t25.5 51.5t5.5 89.5v514h-135q-39 0 -70.5 -4.5t-56 -16.5t-43 -24t-33.5 -34.5t-25 -40t-20 -49.5t-15.5 -54.5t-14.5 -61.5l-58 -253q-29 -127 -83.5 -174.5t-135.5 -47.5 q-79 0 -126 32t-93 99z" />
<glyph unicode="&#x417;" horiz-adv-x="1124" d="M72 190q0 48 30.5 78.5t77.5 30.5q49 0 81 -30t32 -81q0 -42 -23.5 -69t-62.5 -35q22 -31 102 -54.5t168 -23.5q176 0 265 100t89 265q0 164 -85 269t-238 110q-49 -27 -88 -27q-43 0 -43 35q0 15 12 24t31 9q27 0 90 -13q135 45 188.5 132.5t53.5 238.5q0 145 -53.5 218 t-174.5 73q-75 0 -136.5 -33.5t-100.5 -90.5t-61 -125.5t-27 -143.5h-47q0 287 -11 417h47q8 -49 17.5 -69.5t30.5 -20.5t67 29q4 2 21.5 13.5t25.5 15.5t26.5 13.5t33.5 13.5t37 10t47.5 8t54.5 2q184 0 295.5 -83t111.5 -224q0 -66 -26 -125.5t-67.5 -103t-97.5 -79.5 t-111 -59t-113 -37q91 -2 177 -26.5t157.5 -69.5t115 -118t43.5 -163q0 -99 -46.5 -180t-125.5 -132.5t-179.5 -79.5t-211.5 -28q-182 0 -303 74q-96 61 -96 145z" />
<glyph unicode="&#x418;" horiz-adv-x="1591" d="M86 0v41q74 3 106.5 16t46 48t13.5 112v1016q0 77 -13.5 112t-46 48t-106.5 16v41q85 -6 262 -6q166 0 260 6v-41q-74 -3 -106.5 -16t-46 -48t-13.5 -112v-970l706 1002q-3 88 -34.5 113.5t-130.5 30.5v41q96 -6 260 -6q177 0 262 6v-41q-74 -3 -106.5 -16t-46 -48 t-13.5 -112v-1016q0 -77 13.5 -112t46 -48t106.5 -16v-41q-85 6 -262 6q-164 0 -260 -6v41q74 3 106.5 16t46 48t13.5 112v969l-707 -1000q2 -37 7.5 -61t15.5 -40.5t30.5 -25t45.5 -12.5t67 -6v-41q-94 6 -260 6q-176 0 -262 -6z" />
<glyph unicode="&#x419;" horiz-adv-x="1591" d="M86 0v41q74 3 106.5 16t46 48t13.5 112v1016q0 77 -13.5 112t-46 48t-106.5 16v41q85 -6 262 -6q166 0 260 6v-41q-74 -3 -106.5 -16t-46 -48t-13.5 -112v-970l706 1002q-3 88 -34.5 113.5t-130.5 30.5v41q96 -6 260 -6q177 0 262 6v-41q-74 -3 -106.5 -16t-46 -48 t-13.5 -112v-1016q0 -77 13.5 -112t46 -48t106.5 -16v-41q-85 6 -262 6q-164 0 -260 -6v41q74 3 106.5 16t46 48t13.5 112v969l-707 -1000q2 -37 7.5 -61t15.5 -40.5t30.5 -25t45.5 -12.5t67 -6v-41q-94 6 -260 6q-176 0 -262 -6zM379 1819q0 51 30 81.5t79 30.5t80.5 -29.5 t31.5 -80.5q0 -42 -23.5 -69.5t-62.5 -35.5q43 -40 123 -57t160 -17t159.5 17t122.5 57q-39 8 -62.5 35.5t-23.5 69.5q0 50 32.5 80t80.5 30t78.5 -30.5t30.5 -81.5q0 -43 -23.5 -76t-75.5 -64q-127 -77 -319 -77q-191 0 -320 77q-51 31 -74.5 64t-23.5 76z" />
<glyph unicode="&#x41a;" horiz-adv-x="1389" d="M86 0v41q74 3 106.5 16t46 48t13.5 112v1016q0 77 -13.5 112t-46 48t-106.5 16v41q85 -6 262 -6q166 0 260 6v-41q-74 -3 -106.5 -16t-46 -48t-13.5 -112v-463q152 3 242 119l197 250q104 132 104 196q0 71 -127 74v41q117 -6 236 -6q112 0 174 6v-41q-139 -20 -242 -149 l-386 -491q78 -3 139 -18t117 -47t95 -90t58 -141l59 -258q23 -99 41.5 -133.5t58.5 -34.5q35 0 57 17.5t56 60.5l31 -23q-47 -67 -93.5 -99t-125.5 -32q-82 0 -136.5 47.5t-83.5 174.5l-57 253q-10 45 -17 70t-19 60t-24.5 54t-33 41.5t-45.5 33.5t-60 18.5t-79 7.5h-136 v-514q0 -77 13.5 -112t46 -48t106.5 -16v-41q-94 6 -260 6q-176 0 -262 -6z" />
<glyph unicode="&#x41b;" horiz-adv-x="1409" d="M-6 111q0 53 34 84.5t87 31.5q45 0 74.5 -24.5t29.5 -65.5q0 -43 -21 -70.5t-67 -54.5q19 -2 49 -2q191 0 280 331q59 221 89 697q3 48 12 195q2 34 2 46q0 76 -34 101t-134 29v41q87 -6 211 -6q31 0 91 3t89 3q51 0 142.5 -3t150.5 -3q159 0 244 6v-41 q-74 -3 -106.5 -16t-46 -48t-13.5 -112v-1016q0 -77 13.5 -112t46 -48t106.5 -16v-41q-85 6 -262 6q-195 0 -301 -6v41q69 2 105.5 8.5t61.5 26t32.5 51.5t7.5 90v1016q0 111 -30.5 143.5t-135.5 32.5h-27q-37 0 -61.5 -2.5t-43 -11.5t-28 -19t-16.5 -33.5t-10 -45.5t-7 -64 q-5 -57 -11.5 -151.5t-11 -165.5t-13.5 -167t-19 -169t-27 -157.5t-37.5 -146.5t-50.5 -122.5t-66.5 -98.5t-85 -61t-106.5 -23q-77 0 -131.5 34.5t-54.5 105.5z" />
<glyph unicode="&#x41c;" horiz-adv-x="1784" d="M86 0v41q103 4 134.5 43.5t31.5 153.5v995q0 77 -13.5 112t-46 48t-106.5 16v41q67 -6 190 -6q108 0 175 6l450 -1188l440 1182h97q164 0 260 6v-41q-74 -3 -106.5 -16t-46 -48t-13.5 -112v-1016q0 -77 13.5 -112t46 -48t106.5 -16v-41q-96 6 -260 6q-176 0 -262 -6v41 q56 2 85 8.5t49 26.5t25.5 51.5t5.5 89.5v1096l-493 -1323h-33l-516 1329v-1081q0 -115 34.5 -154t151.5 -43v-41q-74 6 -209 6q-122 0 -190 -6z" />
<glyph unicode="&#x41d;" horiz-adv-x="1550" d="M86 0v41q74 3 106.5 16t46 48t13.5 112v1016q0 77 -13.5 112t-46 48t-106.5 16v41q85 -6 262 -6q166 0 260 6v-41q-74 -3 -106.5 -16t-46 -48t-13.5 -112v-483h666v483q0 77 -13.5 112t-46 48t-106.5 16v41q96 -6 260 -6q176 0 262 6v-41q-74 -3 -106.5 -16t-46 -48 t-13.5 -112v-1016q0 -77 13.5 -112t46 -48t106.5 -16v-41q-86 6 -262 6q-164 0 -260 -6v41q74 3 106.5 16t46 48t13.5 112v492h-666v-492q0 -77 13.5 -112t46 -48t106.5 -16v-41q-94 6 -260 6q-176 0 -262 -6z" />
<glyph unicode="&#x41e;" horiz-adv-x="1518" d="M109 713q0 226 83 400.5t231 270t337 95.5q296 0 472.5 -197.5t176.5 -544.5q0 -226 -83 -400.5t-231 -270t-337 -95.5q-296 0 -472.5 197.5t-176.5 544.5zM313 721q0 -320 129.5 -516.5t323.5 -196.5q131 0 231 91.5t153.5 255t53.5 374.5q0 320 -129.5 516.5 t-322.5 196.5q-131 0 -231.5 -91.5t-154 -255t-53.5 -374.5z" />
<glyph unicode="&#x41f;" horiz-adv-x="1550" d="M86 0v41q74 3 106.5 16t46 48t13.5 112v1016q0 77 -13.5 112t-46 48t-106.5 16v41q85 -6 262 -6q88 0 239 3t191 3t188 -3t236 -3q176 0 262 6v-41q-74 -3 -106.5 -16t-46 -48t-13.5 -112v-1016q0 -77 13.5 -112t46 -48t106.5 -16v-41q-86 6 -262 6q-164 0 -260 -6v41 q74 3 106.5 16t46 48t13.5 112v1016q0 111 -30.5 143.5t-135.5 32.5h-334q-105 0 -135.5 -32.5t-30.5 -143.5v-1016q0 -77 13.5 -112t46 -48t106.5 -16v-41q-94 6 -260 6q-176 0 -262 -6z" />
<glyph unicode="&#x420;" horiz-adv-x="1198" d="M86 0v41q74 3 106.5 16t46 48t13.5 112v1016q0 77 -13.5 112t-46 48t-106.5 16v41q85 -6 250 -6q74 0 184 2t125 2q241 0 367.5 -110t126.5 -294q0 -64 -15 -124t-53.5 -122t-97 -108t-155 -75t-218.5 -29h-158v-369q0 -58 7.5 -90t32.5 -51.5t61.5 -26t105.5 -8.5v-41 q-107 6 -301 6q-176 0 -262 -6zM442 627h138q84 0 147.5 21.5t102.5 57t63 88t32.5 107t8.5 121.5q0 198 -79 292.5t-261 94.5q-93 0 -122.5 -34.5t-29.5 -141.5v-606z" />
<glyph unicode="&#x421;" horiz-adv-x="1409" d="M109 713q0 226 83 400.5t231 270t337 95.5q122 0 208.5 -35t168.5 -98q22 -18 40 -18q42 0 52 122h47q-8 -133 -8 -471h-47q-22 134 -41 191.5t-62 111.5q-62 80 -157 120t-205 40q-201 0 -322 -195t-121 -526q0 -334 129.5 -521.5t333.5 -187.5q102 0 199 39t151 117 q42 56 60 121.5t35 202.5h47q0 -353 8 -492h-47q-5 64 -16.5 92.5t-33.5 28.5q-16 0 -42 -17q-93 -65 -176.5 -99t-202.5 -34q-296 0 -472.5 197.5t-176.5 544.5z" />
<glyph unicode="&#x422;" horiz-adv-x="1272" d="M59 1450q170 -6 578 -6q405 0 575 6q-14 -146 -14 -262q0 -104 6 -168h-47q-8 80 -15.5 128t-22 97t-35 74.5t-53.5 47t-78.5 29t-110.5 7.5h-111v-1165q0 -52 5.5 -84t17.5 -55t37.5 -34.5t58.5 -16.5t88 -7v-41q-108 6 -301 6q-205 0 -303 -6v41q55 2 88 7t58.5 16.5 t37.5 34.5t17.5 55t5.5 84v1165h-111q-65 0 -110.5 -7.5t-79 -29t-53.5 -47t-34.5 -74t-22 -97t-15.5 -128.5h-47q6 64 6 168q0 120 -15 262z" />
<glyph unicode="&#x423;" horiz-adv-x="1325" d="M-4 1407v43q79 -6 180 -6q199 0 287 6v-43q-144 0 -144 -79q0 -32 21 -71l417 -778l322 645q56 113 56 176q0 58 -45 82.5t-136 26.5v41q117 -6 236 -6q93 0 153 6v-41q-41 -9 -79.5 -51.5t-83.5 -130.5l-449 -894l-82 -165q-46 -94 -90 -137q-60 -60 -153 -60 q-64 0 -104 32.5t-40 90.5q0 49 31 79t78 30q45 0 74.5 -25.5t29.5 -71.5q0 -60 -55 -92q4 -2 12 -2q54 0 96 39.5t80 118.5l56 114l-549 1008q-38 69 -65.5 92t-53.5 23z" />
<glyph unicode="&#x424;" horiz-adv-x="1739" d="M55 733q0 160 91 287t254 202.5t376 89.5v72q0 112 -29.5 142t-136.5 35v41q81 -7 262 -7q171 0 261 7v-41q-107 -5 -136.5 -35.5t-29.5 -141.5v-72q331 -20 523.5 -170t192.5 -405q0 -249 -197 -412t-519 -186v-73q0 -112 29.5 -142t136.5 -35v-41q-90 7 -261 7 q-181 0 -262 -7v41q107 5 136.5 35.5t29.5 141.5v72q-333 19 -527 175t-194 420zM260 741q0 -232 143 -383t373 -180v1096q-236 -25 -376 -170.5t-140 -362.5zM967 177q234 26 373 177t139 375q0 223 -142 368t-370 174v-1094z" />
<glyph unicode="&#x425;" horiz-adv-x="1298" d="M33 0v41q115 16 231 188l309 461l-401 615q-38 59 -64.5 79t-72.5 23v43q140 -8 176 -8q137 0 289 8v-43q-137 0 -137 -45q0 -16 18 -45l319 -488l201 301q89 133 89 197q0 43 -39.5 61.5t-119.5 20.5v41q117 -6 236 -6q113 0 174 6v-41q-62 -9 -117.5 -55.5 t-113.5 -132.5l-287 -428l424 -648q38 -59 64.5 -79t72.5 -23v-43q-140 8 -176 8q-69 0 -289 -8v43q80 0 113 7t33 26q0 14 -15 37l-350 536l-221 -330q-78 -116 -78 -180q0 -52 46.5 -74t135.5 -24v-41q-115 6 -276 6q-113 0 -174 -6z" />
<glyph unicode="&#x426;" horiz-adv-x="1567" d="M86 0v41q74 3 106.5 16t46 48t13.5 112v1016q0 77 -13.5 112t-46 48t-106.5 16v41q85 -6 262 -6q166 0 260 6v-41q-74 -3 -106.5 -16t-46 -48t-13.5 -112v-1016q0 -111 30.5 -143.5t135.5 -32.5h334q105 0 135.5 32.5t30.5 143.5v1016q0 77 -13.5 112t-46 48t-106.5 16 v41q96 -6 260 -6q176 0 262 6v-41q-74 -3 -106.5 -16t-46 -48t-13.5 -112v-1016q0 -111 30.5 -143.5t135.5 -32.5h64q-15 -144 -15 -242q0 -73 7 -127h-47q-9 81 -18.5 128.5t-27.5 90.5t-46.5 64t-72.5 33t-110 12h-420q-40 0 -191 3t-239 3q-176 0 -262 -6z" />
<glyph unicode="&#x427;" horiz-adv-x="1378" d="M35 1407v43q188 -8 252 -8q57 0 229 8v-43q-75 0 -105 -31.5t-30 -115.5v-381q0 -44 4 -75t18.5 -63.5t39 -52.5t68.5 -32.5t105 -12.5q192 0 320 45v545q0 77 -13.5 112t-46 48t-106.5 16v41q85 -6 262 -6q166 0 260 6v-41q-74 -3 -106.5 -16t-46 -48t-13.5 -112v-1016 q0 -77 13.5 -112t46 -48t106.5 -16v-41q-86 6 -262 6q-193 0 -301 -6v41q69 2 105.5 8.5t61.5 26t32.5 51.5t7.5 90v436q-62 -30 -172.5 -52.5t-212.5 -22.5q-168 0 -262 71q-56 43 -77.5 104t-21.5 171v336q0 84 -34.5 115.5t-120.5 31.5z" />
<glyph unicode="&#x428;" horiz-adv-x="2062" d="M86 0v41q74 3 106.5 16t46 48t13.5 112v1016q0 77 -13.5 112t-46 48t-106.5 16v41q85 -6 262 -6q150 0 240 6v-41q-49 -2 -75 -8.5t-43.5 -26.5t-22.5 -51.5t-5 -89.5v-1016q0 -111 30.5 -143.5t135.5 -32.5h162q105 0 135.5 32.5t30.5 143.5v1016q0 59 -4.5 90t-22 51 t-43 26.5t-75.5 8.5v41q89 -6 239 -6q162 0 242 6v-41q-50 -2 -76 -8.5t-43.5 -26.5t-22 -51t-4.5 -90v-1016q0 -111 30.5 -143.5t135.5 -32.5h162q105 0 135.5 32.5t30.5 143.5v1016q0 59 -4.5 90t-22 51t-43 26.5t-75.5 8.5v41q89 -6 239 -6q176 0 262 6v-41 q-74 -3 -106.5 -16t-46 -48t-13.5 -112v-1016q0 -77 13.5 -112t46 -48t106.5 -16v-41q-86 6 -262 6q-47 0 -166.5 -3t-197.5 -3q-71 0 -178 3t-138 3q-32 0 -141.5 -3t-181.5 -3q-81 0 -199 3t-164 3q-176 0 -262 -6z" />
<glyph unicode="&#x429;" horiz-adv-x="2038" d="M86 0v41q74 3 106.5 16t46 48t13.5 112v1016q0 77 -13.5 112t-46 48t-106.5 16v41q85 -6 262 -6q150 0 240 6v-41q-49 -2 -75 -8.5t-43.5 -26.5t-22.5 -51.5t-5 -89.5v-1016q0 -111 30.5 -143.5t135.5 -32.5h142q104 0 134.5 32t30.5 144v1016q0 59 -4.5 90t-21.5 51 t-43 26.5t-76 8.5v41q89 -6 240 -6q162 0 241 6v-41q-50 -2 -76 -8.5t-43 -26.5t-21.5 -51t-4.5 -90v-1016q0 -111 30.5 -143.5t135.5 -32.5h141q105 0 135.5 32.5t30.5 143.5v1016q0 59 -4.5 90t-21.5 51t-43 26.5t-76 8.5v41q88 -6 239 -6q177 0 262 6v-41 q-74 -3 -106.5 -16t-46 -48t-13.5 -112v-1016q0 -111 30.5 -143.5t135.5 -32.5h64q-14 -134 -14 -242q0 -81 6 -127h-47q-9 81 -18.5 128.5t-27.5 90.5t-46.5 64t-72.5 33t-110 12h-340q-71 0 -177.5 3t-137.5 3q-32 0 -142 -3t-182 -3q-68 0 -181 3t-161 3q-176 0 -262 -6z " />
<glyph unicode="&#x42a;" horiz-adv-x="1495" d="M57 1450q176 -6 598 -6q195 0 301 6v-41q-69 -2 -105.5 -8.5t-61.5 -26t-32 -51.5t-7 -90v-374q41 0 106 1.5t82 1.5q240 0 367 -112t127 -297q0 -64 -15 -124t-53.5 -121t-97 -106t-155 -73.5t-218.5 -28.5q-28 0 -107.5 3t-130.5 3q-175 0 -262 -6v41q74 3 106.5 16 t46 48t13.5 112v1186h-131q-65 0 -110.5 -7.5t-79 -29t-53.5 -47t-34.5 -74t-22 -97t-15.5 -128.5h-47q6 64 6 168q0 120 -15 262zM750 217q0 -113 25 -144.5t118 -31.5q80 0 140 21t96.5 55.5t59 86t30.5 105.5t8 121q0 199 -79.5 296t-260.5 97q-45 0 -137 -2v-604z" />
<glyph unicode="&#x42b;" horiz-adv-x="1821" d="M86 0v41q74 3 106.5 16t46 48t13.5 112v1016q0 77 -13.5 112t-46 48t-106.5 16v41q85 -6 262 -6q194 0 301 6v-41q-69 -2 -105.5 -8.5t-61.5 -26t-32.5 -51.5t-7.5 -90v-374q40 0 106 1.5t83 1.5q240 0 366.5 -112t126.5 -297q0 -64 -14.5 -124t-53 -121t-97.5 -106 t-155 -73.5t-218 -28.5q-28 0 -107.5 3t-130.5 3q-176 0 -262 -6zM442 217q0 -113 25.5 -144.5t118.5 -31.5q80 0 140 21t96.5 55.5t59 86t30.5 105.5t8 121q0 199 -79.5 296t-260.5 97q-46 0 -138 -2v-604zM1212 0v41q56 2 85.5 8.5t49.5 26.5t25.5 51.5t5.5 89.5v1016 q0 58 -5.5 89.5t-25.5 51.5t-49.5 26.5t-85.5 8.5v41q87 -6 263 -6q164 0 260 6v-41q-56 -2 -85.5 -8.5t-49.5 -26.5t-25.5 -51.5t-5.5 -89.5v-1016q0 -58 5.5 -89.5t25.5 -51.5t49.5 -26.5t85.5 -8.5v-41q-96 6 -260 6q-176 0 -263 -6z" />
<glyph unicode="&#x42c;" horiz-adv-x="1188" d="M86 0v41q74 3 106.5 16t46 48t13.5 112v1016q0 77 -13.5 112t-46 48t-106.5 16v41q85 -6 262 -6q194 0 301 6v-41q-69 -2 -105.5 -8.5t-61.5 -26t-32.5 -51.5t-7.5 -90v-374q40 0 106 1.5t83 1.5q240 0 366.5 -112t126.5 -297q0 -64 -14.5 -124t-53 -121t-97.5 -106 t-155 -73.5t-218 -28.5q-28 0 -107.5 3t-130.5 3q-176 0 -262 -6zM442 217q0 -113 25.5 -144.5t118.5 -31.5q80 0 140 21t96.5 55.5t59 86t30.5 105.5t8 121q0 199 -79.5 296t-260.5 97q-46 0 -138 -2v-604z" />
<glyph unicode="&#x42d;" horiz-adv-x="1417" d="M141 0q9 156 9 492h47q16 -136 34 -202t60 -122q55 -78 151.5 -117t198.5 -39q204 0 333.5 187.5t129.5 521.5l-1 41q-34 -76 -98.5 -116t-144.5 -40q-60 0 -121 24.5t-104 53.5t-101 53.5t-112 24.5q-57 0 -103 -28.5t-67 -86.5l-31 15q28 102 104.5 156t176.5 54 q51 0 99.5 -16t88 -39t78.5 -45.5t84.5 -38.5t91.5 -16q108 0 158 92q-16 293 -135 463t-305 170q-111 0 -206 -40t-157 -120q-42 -55 -61.5 -113t-40.5 -190h-47q0 321 -9 471h47q12 -122 53 -122q17 0 40 18q82 63 168 98t208 35q189 0 337.5 -95.5t231.5 -270t83 -400.5 q0 -347 -177 -544.5t-473 -197.5q-119 0 -202.5 34t-175.5 99q-26 17 -43 17q-21 0 -32.5 -28.5t-17.5 -92.5h-47z" />
<glyph unicode="&#x42e;" horiz-adv-x="2073" d="M86 0v41q74 3 106.5 16t46 48t13.5 112v1016q0 77 -13.5 112t-46 48t-106.5 16v41q85 -6 262 -6q166 0 260 6v-41q-74 -3 -106.5 -16t-46 -48t-13.5 -112v-492h260q5 218 87 386.5t223.5 260t320.5 91.5q287 0 458 -197.5t171 -544.5q0 -226 -80.5 -400.5t-224 -270 t-326.5 -95.5q-284 0 -454.5 193.5t-174.5 535.5h-260v-483q0 -77 13.5 -112t46 -48t106.5 -16v-41q-94 6 -260 6q-176 0 -262 -6zM907 721q0 -320 124 -516.5t308 -196.5q125 0 220.5 91.5t146.5 255t51 374.5q0 320 -124 516.5t-308 196.5q-125 0 -220.5 -91.5 t-146.5 -255t-51 -374.5z" />
<glyph unicode="&#x42f;" horiz-adv-x="1337" d="M-25 102l31 23q23 -29 36 -42.5t33 -24.5t43 -11q41 0 61 36.5t40 131.5l47 209q29 128 94 188t201 82l27 4q-108 16 -187 57.5t-121.5 98t-61.5 115.5t-19 123q0 157 127.5 256.5t365.5 99.5q14 0 124 -2t185 -2q165 0 250 6v-41q-74 -3 -106.5 -16t-46 -48t-13.5 -112 v-1016q0 -77 13.5 -112t46 -48t106.5 -16v-41q-85 6 -262 6q-164 0 -260 -6v41q74 3 106.5 16t46 48t13.5 112v471h-205q-34 0 -62 -7.5t-48 -19t-37 -34t-27.5 -42t-22 -55t-18 -61.5t-16.5 -72l-45 -204q-28 -124 -82 -173t-137 -49q-78 0 -125 31t-95 100zM403 1083 q0 -82 15 -141.5t52.5 -110t109.5 -76.5t178 -26h137v504q0 107 -29.5 141.5t-122.5 34.5q-178 0 -259 -84t-81 -242z" />
<glyph unicode="&#x430;" horiz-adv-x="1262" d="M-6 0v41q54 14 94 62.5t74 127.5l452 1024h33l479 -1083q56 -127 142 -131v-41q-84 6 -219 6q-176 0 -263 -6v41q77 3 112 19t35 56q0 37 -28 97l-103 233h-500l-69 -153q-34 -79 -34 -131q0 -108 159 -121v-41q-62 6 -186 6q-126 0 -178 -6zM320 487h464l-231 521z" />
<glyph unicode="&#x431;" horiz-adv-x="1241" d="M86 0v41q74 3 106.5 16t46 48t13.5 112v811q0 59 -5.5 91t-26 51.5t-49 25.5t-85.5 8v41q85 -6 250 -6h289q315 0 448 6q-14 -123 -14 -221q0 -80 6 -127h-47q-16 169 -72 235t-182 66h-191q-81 0 -106 -32t-25 -138v-360h117q110 0 191.5 -7.5t159 -28.5t126 -57t78 -96 t29.5 -143q0 -150 -126.5 -243t-344.5 -93q-16 0 -128 3t-204 3q-168 0 -254 -6zM442 217q0 -107 25 -138.5t108 -31.5q187 0 275 75t88 222q0 142 -82 215.5t-262 73.5h-152v-416z" />
<glyph unicode="&#x432;" horiz-adv-x="1235" d="M86 0v41q74 3 106.5 16t46 48t13.5 112v811q0 59 -5.5 91t-26 51.5t-49 25.5t-85.5 8v41q85 -6 250 -6q70 0 173 2t116 2q198 0 304.5 -77t106.5 -203q0 -99 -69 -177t-222 -118v-4q111 -14 191.5 -47t124 -79t63 -95.5t19.5 -106.5q0 -150 -126.5 -243t-344.5 -93 q-16 0 -128 3t-204 3q-168 0 -254 -6zM442 217q0 -107 25 -138.5t108 -31.5q187 0 275 75t88 222q0 142 -82 215.5t-262 73.5h-152v-416zM442 668h117q82 0 138.5 20t87 58.5t43 85t12.5 108.5q0 132 -63.5 198t-203.5 66q-80 0 -105.5 -34.5t-25.5 -141.5v-360z" />
<glyph unicode="&#x433;" horiz-adv-x="1096" d="M86 0v41q74 3 106.5 16t46 48t13.5 112v811q0 77 -13.5 112t-46 48t-106.5 16v41q240 -6 260 -6q44 -1 129 -1q46 0 115.5 0.5t89.5 0.5q244 0 346 6q-14 -146 -14 -262q0 -103 6 -168h-47q-6 59 -11.5 98.5t-14 81t-19.5 67.5t-28 51t-38.5 39t-51.5 25.5t-67.5 16 t-85.5 4.5h-47q-106 0 -136 -29.5t-30 -140.5v-811q0 -58 7.5 -90t32.5 -51.5t61.5 -26t105.5 -8.5v-41q-107 6 -301 6q-176 0 -262 -6z" />
<glyph unicode="&#x434;" horiz-adv-x="1251" d="M6 41h37q56 0 103 22.5t81.5 66t62 98.5t46.5 128t33 146t23.5 162t16 166.5t13.5 167.5q1 20 2 30q2 34 2 46q0 76 -34 101t-134 29v41q86 -6 211 -6q25 0 70.5 3t68.5 3q51 0 142 -3t151 -3q157 0 244 6v-41q-74 -3 -106.5 -16t-46 -48t-13.5 -112v-811 q0 -111 30.5 -143.5t135.5 -32.5h63q-14 -134 -14 -242q0 -81 6 -127h-47q-7 67 -14.5 109t-20.5 83t-31 63.5t-46.5 40.5t-67.5 25t-94 7h-543q-66 0 -110 -12t-72.5 -33t-46.5 -64t-27.5 -90.5t-18.5 -128.5h-47q6 46 6 127q0 108 -14 242zM192 41h431q104 0 134.5 32 t30.5 144v811q0 113 -26 144.5t-119 31.5h-27q-33 0 -54 -2t-37 -11.5t-24.5 -19t-14.5 -33.5t-8.5 -45.5t-6.5 -64.5q-6 -52 -14 -148.5t-15 -166.5t-19.5 -163.5t-30.5 -164t-44.5 -141t-66 -122t-89.5 -81.5z" />
<glyph unicode="&#x435;" horiz-adv-x="1219" d="M86 0v41q74 3 106.5 16t46 48t13.5 112v811q0 77 -13.5 112t-46 48t-106.5 16v41q195 -6 573 -6q287 0 408 6q-14 -123 -14 -221q0 -80 6 -127h-47q-16 169 -72 235t-182 66h-150q-106 0 -136 -29.5t-30 -140.5v-381h170q48 0 81.5 19.5t50 54t24 62.5t13.5 64q1 6 1 9 h47q-7 -81 -7 -152q0 -15 0.5 -40.5t0.5 -36.5q0 -82 13 -230h-48q-4 36 -9 61t-17 55.5t-30 48.5t-48.5 31t-71.5 13h-170v-389q0 -110 30 -140t136 -30h150q150 0 214 74.5t81 267.5h47q-6 -56 -6 -147q0 -108 14 -242q-133 6 -449 6q-378 0 -573 -6z" />
<glyph unicode="&#x436;" horiz-adv-x="2015" d="M47 102l31 23q24 -30 36 -43t32 -24t43 -11q40 0 59.5 35t44.5 133l59 217q25 97 98 151t203 74l33 4l-367 398q-73 76 -123 104.5t-126 42.5v39q58 -6 145 -6q131 0 242 6v-39q-114 -3 -114 -66q0 -40 48 -96l203 -229q68 -83 129.5 -112.5t137.5 -33.5h53v359 q0 77 -13.5 112t-46 48t-106.5 16v41q85 -6 262 -6q166 0 260 6v-41q-74 -3 -106.5 -16t-46 -48t-13.5 -112v-359h52q76 4 137.5 33.5t129.5 112.5l203 229q48 57 48 97q0 62 -113 65v39q109 -6 241 -6q88 0 146 6v-39q-77 -14 -127 -42.5t-123 -104.5l-368 -399l20 -3 q138 -20 214.5 -73.5t104.5 -151.5l57 -217q3 -10 7.5 -29t7 -27.5t7 -24t7.5 -22.5t8 -18.5t9 -17t10.5 -12t13 -10t14.5 -5.5t18 -2q34 0 56 17.5t55 60.5l31 -23q-46 -67 -93 -99t-126 -32q-40 0 -68.5 8t-58 30.5t-52 68t-40.5 115.5l-55 213q-10 34 -17 54.5t-19 47.5 t-25 42t-33.5 32.5t-46 26t-61 14.5t-79.5 6h-92v-412q0 -77 13.5 -112t46 -48t106.5 -16v-41q-94 6 -260 6q-176 0 -262 -6v41q74 3 106.5 16t46 48t13.5 112v412h-107q-61 0 -106 -11t-73 -28t-48.5 -48t-31 -60t-22.5 -76l-55 -213q-18 -70 -40.5 -115.5t-52 -68 t-58 -30.5t-68.5 -8q-73 0 -118 32.5t-87 98.5z" />
<glyph unicode="&#x437;" horiz-adv-x="1085" d="M74 190q0 48 30.5 78.5t77.5 30.5q49 0 81 -30t32 -81q0 -42 -23.5 -69t-62.5 -35q22 -31 102 -54.5t168 -23.5q153 0 233.5 89t80.5 224q0 123 -61.5 210t-172.5 110q-40 8 -70 8q-48 -26 -88 -26q-18 0 -30.5 8.5t-12.5 25.5q0 33 43 33q33 0 91 -12q125 36 173 106.5 t48 202.5q0 126 -43.5 188t-143.5 62q-138 0 -226 -108.5t-99 -276.5h-47q0 297 -11 410h47q8 -49 17 -70t31 -21q24 0 67 29q36 22 61.5 35t77.5 27t107 14q167 0 267 -70.5t100 -197.5q0 -73 -34 -133.5t-92.5 -100.5t-125.5 -66t-144 -40q69 -1 136 -14t128 -40 t107.5 -64.5t74 -91t27.5 -116.5q0 -174 -137.5 -271.5t-384.5 -97.5q-182 0 -303 74q-96 61 -96 145z" />
<glyph unicode="&#x438;" horiz-adv-x="1550" d="M86 0v41q74 3 106.5 16t46 48t13.5 112v811q0 77 -13.5 112t-46 48t-106.5 16v41q85 -6 262 -6q166 0 260 6v-41q-74 -3 -106.5 -16t-46 -48t-13.5 -112v-780l666 805q-1 49 -8 76.5t-27.5 44t-49 22.5t-81.5 8v41q96 -6 260 -6q176 0 262 6v-41q-74 -3 -106.5 -16 t-46 -48t-13.5 -112v-811q0 -77 13.5 -112t46 -48t106.5 -16v-41q-86 6 -262 6q-164 0 -260 -6v41q74 3 106.5 16t46 48t13.5 112v763l-665 -803q4 -83 36 -107.5t129 -28.5v-41q-94 6 -260 6q-176 0 -262 -6z" />
<glyph unicode="&#x439;" horiz-adv-x="1550" d="M86 0v41q74 3 106.5 16t46 48t13.5 112v811q0 77 -13.5 112t-46 48t-106.5 16v41q85 -6 262 -6q166 0 260 6v-41q-74 -3 -106.5 -16t-46 -48t-13.5 -112v-780l666 805q-1 49 -8 76.5t-27.5 44t-49 22.5t-81.5 8v41q96 -6 260 -6q176 0 262 6v-41q-74 -3 -106.5 -16 t-46 -48t-13.5 -112v-811q0 -77 13.5 -112t46 -48t106.5 -16v-41q-86 6 -262 6q-164 0 -260 -6v41q74 3 106.5 16t46 48t13.5 112v763l-665 -803q4 -83 36 -107.5t129 -28.5v-41q-94 6 -260 6q-176 0 -262 -6zM358 1653q0 51 30 81.5t79 30.5t80.5 -29.5t31.5 -80.5 q0 -42 -23 -69t-63 -36q79 -73 283 -73t282 73q-40 9 -63 36t-23 69q0 50 32.5 80t80.5 30t78.5 -30.5t30.5 -81.5q0 -43 -23.5 -76t-75.5 -64q-127 -77 -319 -77q-191 0 -320 77q-51 31 -74.5 64t-23.5 76z" />
<glyph unicode="&#x43a;" horiz-adv-x="1356" d="M86 0v41q74 3 106.5 16t46 48t13.5 112v811q0 77 -13.5 112t-46 48t-106.5 16v41q85 -6 262 -6q166 0 260 6v-41q-74 -3 -106.5 -16t-46 -48t-13.5 -112v-359q70 5 126.5 33t119.5 103l215 239q49 58 49 97q0 62 -116 65v39q110 -6 235 -6q93 0 152 6v-39 q-79 -14 -129.5 -42.5t-120.5 -104.5l-363 -393q36 -2 80 -9q139 -20 216.5 -73.5t103.5 -151.5l57 -217q9 -36 14 -53t12.5 -41t14 -34t15.5 -21.5t20 -15t25 -3.5q34 0 56 17.5t56 60.5l31 -23q-47 -68 -94.5 -99.5t-131.5 -31.5q-36 0 -63 7.5t-56 29.5t-52.5 68.5 t-41.5 116.5l-55 213q-12 47 -22.5 76t-31 60t-48 48t-72.5 28t-106 11h-95v-412q0 -77 13.5 -112t46 -48t106.5 -16v-41q-94 6 -260 6q-176 0 -262 -6z" />
<glyph unicode="&#x43b;" horiz-adv-x="1335" d="M23 111q0 52 33.5 84t86.5 32q47 0 76 -24.5t29 -69.5q0 -70 -88 -121q18 -2 49 -2q48 0 88 23.5t69 68.5t52 101.5t39 133.5t27 152.5t19 169t13.5 173t10.5 175.5q1 14 1 21q2 34 2 47q0 75 -33 100t-135 29v41q87 -6 199 -6q43 0 93 3t89 3q34 0 120 -3t151 -3 q150 0 235 6v-41q-74 -3 -106.5 -16t-46 -48t-13.5 -112v-811q0 -77 13.5 -112t46 -48t106.5 -16v-41q-85 6 -258 6q-168 0 -264 -6v41q74 3 106.5 16t46 48t13.5 112v811q0 113 -26.5 144.5t-118.5 31.5h-27q-33 0 -54 -2t-37 -11.5t-24.5 -19t-15 -33.5t-9 -45.5 t-6.5 -64.5q-4 -52 -12 -159q-7 -108 -12 -164t-15 -155.5t-22 -155t-31 -133.5t-44 -121t-58.5 -87t-78.5 -63t-99 -19q-71 0 -125.5 34.5t-54.5 105.5z" />
<glyph unicode="&#x43c;" horiz-adv-x="1743" d="M86 0v41q103 4 134.5 43.5t31.5 153.5v790q0 77 -13.5 112t-46 48t-106.5 16v41q67 -6 190 -6q97 0 175 6l410 -998l439 992h97q164 0 260 6v-41q-74 -3 -106.5 -16t-46 -48t-13.5 -112v-811q0 -77 13.5 -112t46 -48t106.5 -16v-41q-96 6 -260 6q-177 0 -262 -6v41 q56 2 85 8.5t49 26.5t25.5 51.5t5.5 89.5v899l-493 -1126h-33l-475 1124v-876q0 -115 34.5 -154t151.5 -43v-41q-74 6 -209 6q-122 0 -190 -6z" />
<glyph unicode="&#x43d;" horiz-adv-x="1509" d="M86 0v41q74 3 106.5 16t46 48t13.5 112v811q0 77 -13.5 112t-46 48t-106.5 16v41q85 -6 262 -6q166 0 260 6v-41q-74 -3 -106.5 -16t-46 -48t-13.5 -112v-362h625v362q0 77 -13.5 112t-46 48t-106.5 16v41q96 -6 260 -6q177 0 262 6v-41q-74 -3 -106.5 -16t-46 -48 t-13.5 -112v-811q0 -77 13.5 -112t46 -48t106.5 -16v-41q-85 6 -262 6q-164 0 -260 -6v41q74 3 106.5 16t46 48t13.5 112v408h-625v-408q0 -77 13.5 -112t46 -48t106.5 -16v-41q-94 6 -260 6q-176 0 -262 -6z" />
<glyph unicode="&#x43e;" horiz-adv-x="1477" d="M109 610q0 196 80.5 347.5t223.5 234t326 82.5q287 0 458 -169t171 -470q0 -296 -176.5 -480t-454.5 -184q-287 0 -457.5 169t-170.5 470zM313 618q0 -274 124 -442t308 -168q125 0 220.5 79t146.5 219t51 321q0 274 -124 442t-308 168q-125 0 -220.5 -79t-146.5 -219 t-51 -321z" />
<glyph unicode="&#x43f;" horiz-adv-x="1509" d="M86 0v41q74 3 106.5 16t46 48t13.5 112v811q0 77 -13.5 112t-46 48t-106.5 16v41q85 -6 262 -6q83 0 227.5 3t182.5 3q39 0 179.5 -3t223.5 -3q177 0 262 6v-41q-74 -3 -106.5 -16t-46 -48t-13.5 -112v-811q0 -77 13.5 -112t46 -48t106.5 -16v-41q-85 6 -262 6 q-164 0 -260 -6v41q74 3 106.5 16t46 48t13.5 112v811q0 112 -30.5 144t-135.5 32h-293q-105 0 -135.5 -32t-30.5 -144v-811q0 -77 13.5 -112t46 -48t106.5 -16v-41q-94 6 -260 6q-176 0 -262 -6z" />
<glyph unicode="&#x440;" horiz-adv-x="1159" d="M86 0v41q74 3 106.5 16t46 48t13.5 112v811q0 77 -13.5 112t-46 48t-106.5 16v41q85 -6 250 -6q74 0 184 2t125 2q220 0 336.5 -93t116.5 -249q0 -46 -10.5 -90t-33 -90t-63 -84t-96 -68.5t-136.5 -47.5t-179 -17h-138v-287q0 -77 13.5 -112t46 -48t106.5 -16v-41 q-94 6 -260 6q-176 0 -262 -6zM442 545h117q80 0 140 18t96.5 47.5t59 74t30.5 90.5t8 104q0 166 -69.5 245.5t-229.5 79.5q-93 0 -122.5 -34.5t-29.5 -141.5v-483z" />
</font>
</defs>
</svg>
