<?xml version="1.0" standalone="no"?>
<!DOCTYPE svg PUBLIC "-//W3C//DTD SVG 1.1//EN" "http://www.w3.org/Graphics/SVG/1.1/DTD/svg11.dtd" >
<svg xmlns="http://www.w3.org/2000/svg" xmlns:xlink="http://www.w3.org/1999/xlink" version="1.1">
<metadata></metadata>
<defs>
<font id="playfair_display_scitalic" horiz-adv-x="0" >
<font-face units-per-em="2048" ascent="1650" descent="-398" />
<missing-glyph horiz-adv-x="417" />
<glyph unicode="Th" horiz-adv-x="1897" d="M163 1009q0 86 88 129q78 38 221 38q116 0 315 -31.5t311 -31.5q138 0 223 40l38 137q98 4 151 23l-243 -864q97 228 189.5 325.5t203.5 97.5q190 0 109 -249l-160 -483q-36 -102 26 -102q33 0 63.5 37.5t63.5 130.5l22 62h31l-41 -121q-59 -170 -200 -170 q-48 0 -76 16.5t-35 49t-1.5 72.5t23.5 93l157 472q48 139 -37 139q-97 0 -214 -188t-210 -491l-40 -140h-143l312 1115q-85 -35 -223 -35q-110 0 -253 23l-243 -911q-27 -95 -3.5 -126t127.5 -33l-7 -33q-97 5 -246 5q-153 0 -241 -5l7 33q102 4 142 35.5t68 123.5l249 934 q-122 20 -213 20q-142 0 -185 -28q30 -41 30 -96q0 -38 -21.5 -66.5t-61.5 -28.5q-35 0 -54 22t-19 60z" />
<glyph unicode="&#xd;" />
<glyph unicode=" "  horiz-adv-x="417" />
<glyph unicode="&#x09;" horiz-adv-x="417" />
<glyph unicode="&#xa0;" horiz-adv-x="417" />
<glyph unicode="!" horiz-adv-x="434" d="M13 83q7 43 43 74t78 31q43 0 66.5 -30.5t15.5 -74.5q-9 -44 -44 -75t-78 -31q-42 0 -66 31.5t-15 74.5zM155 329q50 193 103 506t74 392q19 65 74 65q49 0 66.5 -30.5t3.5 -72.5q-14 -51 -126 -356t-165 -509z" />
<glyph unicode="&#x22;" horiz-adv-x="488" d="M231 856q8 65 13.5 125t9 92.5t10.5 62.5q8 35 27.5 52.5t42.5 17.5q51 0 51 -55q0 -33 -17 -70t-53 -101t-61 -124h-23zM411 856q8 65 13.5 125t9 92.5t10.5 62.5q8 35 27.5 52.5t42.5 17.5q51 0 51 -55q0 -33 -17 -70t-53 -101t-61 -124h-23z" />
<glyph unicode="#" horiz-adv-x="1055" d="M61 408l15 33h243l127 276h-241l13 33h243l114 244h39l-114 -244h270l114 244h39l-114 -244h236l-13 -33h-238l-127 -276h236l-16 -33h-235l-112 -241h-40l113 241h-269l-113 -241h-39l112 241h-243zM358 441h270l127 276h-269z" />
<glyph unicode="$" horiz-adv-x="910" d="M2 246q0 54 27 92.5t72 38.5q42 0 63 -31.5t21 -76.5q0 -77 -64 -175q38 -38 94 -59l150 545q-68 70 -105 136.5t-37 153.5q0 137 90.5 220.5t221.5 98.5l55 198h36l-55 -195h15q64 0 118 -13l57 208h37l-61 -219q13 -5 26.5 -11t22.5 -11t21.5 -13.5t17.5 -12t17 -12.5 t14 -11q32 -25 58.5 -73.5t26.5 -100.5q0 -54 -27 -92t-72 -38q-42 0 -63 31t-21 76q0 34 11 69t22.5 55.5t31.5 50.5q-33 33 -95 61l-143 -518q44 -41 72 -71.5t58 -71.5t45 -84.5t15 -89.5q0 -75 -32 -135t-86 -98t-117.5 -60t-133.5 -29l-54 -197h-37l55 195h-13 q-69 0 -119 15l-58 -210h-36l61 220q-16 6 -30 12.5t-28 15.5t-20.5 14t-21.5 16.5t-17 12.5q-37 29 -61.5 74t-24.5 99zM248 25q50 -15 114 -15h16l122 438q-15 16 -32.5 33t-40 38t-34.5 33zM357 951q0 -82 64 -168l104 373q-78 -16 -123 -67t-45 -138zM416 13 q188 25 188 203q0 106 -75 199zM449 750q31 -35 106 -104l140 500q-50 15 -107 15h-25z" />
<glyph unicode="%" horiz-adv-x="1265" d="M-15 -69l1376 1430l25 -22l-1376 -1430zM185 882q0 87 43.5 173t124 144t174.5 58q87 0 135 -45t48 -127q0 -88 -43 -173.5t-123 -143.5t-174 -58q-88 0 -136.5 44.5t-48.5 127.5zM296 851q0 -111 86 -111q50 0 93.5 42t69.5 103t40.5 123.5t14.5 109.5q0 109 -86 109 q-50 0 -93.5 -42t-69.5 -103t-40.5 -122.5t-14.5 -108.5zM621 149q0 87 43.5 173t124 144t174.5 58q87 0 135 -45t48 -127q0 -88 -43 -173.5t-123 -143.5t-174 -58q-88 0 -136.5 44.5t-48.5 127.5zM732 117q0 -110 86 -110q50 0 93.5 42t69.5 103t40.5 123.5t14.5 109.5 q0 109 -86 109q-50 0 -93.5 -42t-69.5 -103t-40.5 -123t-14.5 -109z" />
<glyph unicode="&#x26;" horiz-adv-x="1349" d="M63 325q0 145 100 258.5t255 156.5q-56 30 -86 79.5t-30 105.5q0 72 51.5 127t124.5 81t151 26q93 0 148 -39t55 -104q0 -59 -42.5 -91.5t-97.5 -32.5l3 30q46 0 74.5 24t28.5 66q0 55 -45.5 88t-114.5 33q-101 0 -167 -69.5t-66 -176.5q0 -75 36 -137q57 10 104 10 q59 0 59 -35q0 -17 -15 -26t-36 -9q-43 0 -114 37q-113 -34 -182.5 -124t-69.5 -202q0 -144 114.5 -223t299.5 -79q196 0 325 84.5t129 222.5q0 60 -27.5 118.5t-82.5 98.5q-47 -17 -210 -78q-173 -66 -173 -164q0 -51 40.5 -80.5t99.5 -29.5q105 0 168 97l22 -15 q-65 -109 -197 -109q-76 0 -127 38t-51 124q0 96 69 159t205 114q19 7 110.5 39.5t177 65t140.5 58.5q81 38 125.5 82t44.5 102q0 61 -47.5 101.5t-116.5 40.5q-41 0 -52 -15q34 -19 34 -63q0 -38 -33 -66t-76 -28q-33 0 -53.5 18t-20.5 51q0 67 83 104q51 23 120 23 q95 0 151 -46.5t56 -141.5q0 -84 -48.5 -148.5t-153.5 -117.5q-75 -36 -264 -105q120 -98 120 -248q0 -82 -37.5 -155t-106 -129.5t-174 -90t-232.5 -33.5q-219 0 -347 92.5t-128 255.5z" />
<glyph unicode="'" horiz-adv-x="308" d="M231 856q8 65 13.5 125t9 92.5t10.5 62.5q8 35 27.5 52.5t42.5 17.5q51 0 51 -55q0 -33 -17 -70t-53 -101t-61 -124h-23z" />
<glyph unicode="(" horiz-adv-x="596" d="M63 368q0 267 199.5 526t515.5 437l16 -21q-141 -95 -248.5 -195.5t-189 -218.5t-124 -255.5t-42.5 -290.5q0 -373 182 -629l-30 -22q-139 157 -209 311t-70 358z" />
<glyph unicode=")" horiz-adv-x="596" d="M-183 -279q141 95 248 195.5t189 218.5t124.5 255t42.5 290q0 374 -182 630l30 21q139 -157 209 -311t70 -358q0 -267 -199.5 -526t-515.5 -437z" />
<glyph unicode="*" horiz-adv-x="817" d="M163 682q-8 21 8 46t60 50q22 11 51.5 20.5t54 16t73 18.5t82.5 21q-33 11 -90 26.5t-88 27t-50 24.5q-24 16 -33.5 34.5t-6 34.5t14.5 30q15 21 41.5 24.5t64.5 -18.5q22 -14 43 -37t54.5 -65.5t59.5 -72.5q-1 21 -5.5 76t-5.5 74t-1 50t4 53q10 46 33 67.5t48 21.5 t37 -21.5t2 -67.5q-4 -22 -14 -50.5t-20.5 -51.5t-33 -70t-36.5 -78q32 25 84.5 69t83 67.5t55.5 37.5q89 43 109 -10q8 -21 -7.5 -47t-59.5 -49q-22 -11 -52 -20.5t-54 -16t-74 -18.5t-83 -21q34 -11 90.5 -26.5t88 -26.5t51.5 -24q35 -23 39 -52.5t-15 -47.5 q-15 -21 -41 -24.5t-64 18.5q-22 13 -42 35t-53 63.5t-57 69.5q1 -38 4.5 -100t3.5 -80.5t-3 -65.5q-12 -46 -35.5 -67.5t-49.5 -21.5q-24 0 -36 21t-2 68q4 22 15 52t20.5 50.5t36 73.5l39.5 79h-2q-33 -27 -86 -72t-84.5 -69t-57.5 -38q-89 -43 -109 10z" />
<glyph unicode="+" horiz-adv-x="966" d="M89 562l15 49h385l111 390h59l-111 -390h383l-14 -49h-384l-110 -389h-60l111 389h-385z" />
<glyph unicode="," horiz-adv-x="416" d="M-38 -198q78 47 124 103.5t51 112.5q-46 -41 -86 -41q-30 0 -46.5 15.5t-16.5 42.5q0 54 48 103.5t104 49.5q36 0 54.5 -28t18.5 -69q0 -87 -65.5 -172t-177.5 -140z" />
<glyph unicode="-" horiz-adv-x="832" d="M88 372l24 95h597l-25 -95h-596z" />
<glyph unicode="." horiz-adv-x="402" d="M0 83q7 43 43 74t78 31q43 0 66.5 -30.5t15.5 -74.5q-9 -44 -44 -75t-78 -31q-42 0 -66 31.5t-15 74.5z" />
<glyph unicode="/" horiz-adv-x="772" d="M-66 -23l905 1215h55l-906 -1215h-54z" />
<glyph unicode="0" horiz-adv-x="933" d="M51 271q0 110 44 219.5t116.5 193.5t172.5 137t204 53q126 0 192.5 -77t66.5 -216q0 -148 -70.5 -287t-193 -228t-261.5 -89q-127 0 -199 76t-72 218zM203 256q0 -249 150 -249q93 0 173 89t124.5 226.5t44.5 283.5q0 238 -138 238q-89 0 -171.5 -83t-132.5 -219.5 t-50 -285.5z" />
<glyph unicode="1" horiz-adv-x="564" d="M83 614l5 35q96 29 177.5 71t121 70.5t99.5 78.5h33l-256 -869h-144l211 715q-94 -54 -247 -101z" />
<glyph unicode="2" horiz-adv-x="830" d="M-35 0l9 35q29 23 100.5 73.5t129.5 92.5t131 105.5t122 120t83.5 127t34.5 136.5q0 68 -32.5 107t-94.5 39q-94 0 -188.5 -85t-94.5 -181q0 -40 22.5 -59.5t73.5 -19.5q44 0 78 15.5t74 51.5l20 -23q-83 -79 -184 -79q-51 0 -87 25t-36 87q0 112 113 208t263 96 q103 0 163 -42.5t60 -120.5q0 -54 -32.5 -112.5t-81 -108.5t-114 -104t-122.5 -93.5t-117.5 -82t-87.5 -64.5q45 0 173 -23.5t177 -23.5q114 0 114 80q0 61 -72 94l21 21q91 -42 91 -130q0 -72 -52 -122t-155 -50q-53 0 -149 24t-155 26q-58 2 -99.5 -7.5t-98.5 -32.5z" />
<glyph unicode="3" horiz-adv-x="801" d="M-132 -249l8 29q81 5 165 25.5t165.5 59.5t144.5 90.5t102 124.5t39 156q0 66 -37 106t-103 44q-67 -28 -96 -28q-16 0 -24.5 5.5t-3.5 19.5q8 35 111 30q103 40 172.5 115t69.5 164q0 69 -36 109t-99 40q-88 0 -177 -69.5t-89 -147.5q0 -40 22.5 -59.5t73.5 -19.5 q56 0 102 25l18 -25q-64 -35 -132 -35q-51 0 -87.5 25.5t-36.5 87.5q0 94 108 174t252 80q102 0 162.5 -43t60.5 -121q0 -54 -32 -104.5t-83.5 -88t-109.5 -65t-116 -42.5q116 -2 190 -51t74 -137q0 -108 -78 -200.5t-197.5 -149.5t-251.5 -89.5t-251 -34.5z" />
<glyph unicode="4" horiz-adv-x="850" d="M-84 56l10 35l720 783h43l-194 -724h222l-27 -94h-219l-78 -289h-144l78 289h-411zM23 150h329l135 507z" />
<glyph unicode="5" horiz-adv-x="758" d="M-134 -244l8 29q77 1 157.5 19.5t157 56.5t136 90.5t96 127.5t36.5 160q0 66 -42.5 104.5t-130.5 38.5q-86 0 -183 -45l-17 8l248 511q43 2 110.5 -20t125.5 -22q93 0 137 75l20 -12q-84 -182 -226 -182q-31 0 -94 31t-90 27l-185 -378q106 56 232 56q127 0 189.5 -51.5 t62.5 -136.5q0 -78 -35.5 -148t-95.5 -121t-136 -92.5t-161 -67.5t-166 -40.5t-154 -17.5z" />
<glyph unicode="6" horiz-adv-x="870" d="M59 272q0 121 39 238t104 211.5t148.5 177t174 142t177.5 98.5t163 53l10 -33q-118 -28 -236 -112.5t-213.5 -205.5t-155.5 -283.5t-60 -331.5q0 -121 30 -168.5t89 -47.5q88 0 158.5 86t104.5 198.5t34 214.5q0 166 -107 166q-54 0 -105.5 -47t-89.5 -154l-27 10 q41 128 116 183.5t160 55.5q95 0 151.5 -64.5t56.5 -182.5q0 -128 -65 -243t-176.5 -185.5t-237.5 -70.5q-124 0 -183.5 73.5t-59.5 221.5z" />
<glyph unicode="7" horiz-adv-x="804" d="M81 659q0 80 59.5 140t173.5 60q75 0 188.5 -39.5t173.5 -43.5q59 -2 100.5 13t74.5 60h43q-42 -56 -116 -141.5t-135.5 -159.5t-128 -165t-119 -196.5t-81.5 -216.5q-9 -31 -18 -78t-10 -52q-10 -36 -37.5 -60t-65.5 -24q-65 0 -48 92q14 83 68 184.5t135.5 207.5 t156.5 193.5t166 189.5t130 150q-102 -69 -241 -69q-68 0 -155 23.5t-132 23.5q-65 0 -103.5 -28t-38.5 -82q0 -69 55.5 -115.5t173.5 -74.5l-10 -25q-259 50 -259 233z" />
<glyph unicode="8" horiz-adv-x="898" d="M16 190q0 57 24 112t62.5 99t91.5 84.5t106 70.5t111 55q-36 36 -58 61t-46.5 60.5t-36 74.5t-11.5 82q0 89 58.5 159.5t148 107t188.5 36.5q105 0 169 -44t64 -131q0 -187 -327 -363q41 -40 58 -57t50 -56t47.5 -67.5t27.5 -70t13 -84.5q0 -102 -60.5 -181t-162 -120 t-224.5 -41q-133 0 -213 52.5t-80 160.5zM162 175q0 -168 162 -168q117 0 201 75t84 202q0 49 -13.5 92t-44 84t-53.5 65.5t-67 67.5q-120 -65 -194.5 -179.5t-74.5 -238.5zM396 925q0 -70 38 -128t108 -125q89 59 150 154.5t61 195.5q0 141 -129 141q-95 0 -161.5 -67.5 t-66.5 -170.5z" />
<glyph unicode="9" horiz-adv-x="847" d="M-30 -277q115 27 230 108.5t208.5 198t152 273.5t58.5 320q0 121 -30 168.5t-89 47.5q-88 0 -158.5 -86t-104.5 -198.5t-34 -214.5q0 -167 108 -167q54 0 105 47.5t89 154.5l27 -10q-41 -128 -116 -183.5t-160 -55.5q-95 0 -151.5 64.5t-56.5 182.5q0 128 65 243 t176.5 185.5t237.5 70.5q243 0 243 -296q0 -117 -38 -230.5t-102 -204.5t-145.5 -170.5t-170.5 -136.5t-174.5 -94t-159.5 -51z" />
<glyph unicode=":" horiz-adv-x="459" d="M28 83q7 43 43 74t78 31q43 0 66.5 -30.5t15.5 -74.5q-9 -44 -44 -75t-78 -31q-42 0 -66 31.5t-15 74.5zM193 766q7 43 43 74.5t78 31.5q43 0 66.5 -31t15.5 -75q-9 -44 -44 -74.5t-78 -30.5q-42 0 -66 31t-15 74z" />
<glyph unicode=";" horiz-adv-x="474" d="M-5 -198q78 47 124 103.5t51 112.5q-46 -41 -86 -41q-30 0 -46.5 15.5t-16.5 42.5q0 54 48 103.5t104 49.5q36 0 54.5 -28t18.5 -69q0 -87 -65.5 -172t-177.5 -140zM195 766q8 44 43 75t77 31q43 0 67 -31t16 -75q-9 -44 -44 -74.5t-78 -30.5q-42 0 -66 31t-15 74z" />
<glyph unicode="&#x3c;" horiz-adv-x="994" d="M84 586l912 375l16 -48l-804 -333l547 -288l-27 -53z" />
<glyph unicode="=" horiz-adv-x="1095" d="M116 446l14 49h828l-15 -49h-827zM182 677l15 50h827l-15 -50h-827z" />
<glyph unicode="&#x3e;" horiz-adv-x="994" d="M86 304l760 317l-611 327l26 48l708 -382l-867 -358z" />
<glyph unicode="?" horiz-adv-x="723" d="M142 471q0 26 7.5 51.5t16 45.5t30.5 45.5t35.5 40.5t48 42.5t50 40t59.5 45t60 44.5q122 93 168.5 150.5t46.5 131.5q0 70 -37.5 112.5t-112.5 42.5q-54 0 -107 -21t-65 -60q17 -4 30 -24.5t11 -47.5q-2 -33 -27 -53.5t-60 -20.5q-33 0 -49.5 18.5t-16.5 50.5 q0 80 95 133.5t215 53.5q111 0 177.5 -51t66.5 -144q0 -79 -60.5 -161t-211.5 -199q-31 -24 -78.5 -59t-68.5 -51.5t-49.5 -41.5t-40 -42.5t-20.5 -41t-9 -49.5q0 -50 28 -81.5t89 -31.5q49 0 96 19.5t63 52.5q-16 2 -30 19.5t-13 38.5q0 26 21 47t53 21q56 0 56 -58 q0 -49 -44.5 -89t-107 -60t-125.5 -20q-86 0 -138 41.5t-52 119.5zM178 83q7 43 43 74t78 31q43 0 66.5 -30.5t15.5 -74.5q-9 -44 -44 -75t-78 -31q-42 0 -66 31.5t-15 74.5z" />
<glyph unicode="@" horiz-adv-x="1400" d="M48 236q0 164 63 322t169 278t255 193.5t311 73.5q111 0 202.5 -26t162.5 -79.5t110.5 -142.5t39.5 -206q0 -133 -47.5 -250.5t-120 -193t-155 -119t-156.5 -43.5q-161 0 -104 198q-49 -102 -106.5 -150t-137.5 -48q-89 0 -130 54.5t-41 145.5q0 123 64 251t165.5 211.5 t200.5 83.5t109 -105l23 82q94 0 149 23l-176 -606q-15 -55 -6.5 -77t44.5 -22q35 0 83.5 23t102.5 72t100 114t76 159.5t30 198.5q0 111 -38 194.5t-106 132.5t-152 72.5t-185 23.5q-199 0 -376 -114.5t-283.5 -308t-106.5 -412.5q0 -124 37 -217t104.5 -148.5t156 -82.5 t197.5 -27q192 0 341 89l11 -21q-140 -98 -353 -98q-117 0 -212 29.5t-166 89.5t-110 157.5t-39 225.5zM504 253q0 -161 86 -161q61 0 119 84.5t123 259.5l57 200q-1 61 -23.5 88t-66.5 27q-77 0 -146.5 -76.5t-109 -191.5t-39.5 -230z" />
<glyph unicode="A" horiz-adv-x="1038" d="M-144 0l9 33q75 17 165 144l712 1001h24l66 -1039q5 -54 28.5 -79t52.5 -27l-6 -33q-75 5 -180 5q-126 0 -198 -5l6 33q84 4 115 31q27 24 27 90v18l-15 271h-406l-124 -175q-60 -85 -72 -137q-4 -15 -4 -28q0 -30 20 -46q30 -22 101 -24l-9 -33q-102 5 -188 5 q-66 0 -124 -5zM279 476h382l-28 500z" />
<glyph unicode="B" horiz-adv-x="1043" d="M-55 0l7 33q86 4 116.5 28.5t53.5 113.5l218 819q12 48 14 79.5t-23 46.5t-88 16l8 33q75 -5 197 -5q37 0 113.5 2t118.5 2q153 0 232 -57t79 -155q0 -61 -29 -116.5t-78 -97t-107.5 -72.5t-124.5 -52q143 -23 207 -94.5t64 -175.5q0 -85 -43 -153.5t-114 -109.5 t-157 -63t-178 -22q-38 0 -130.5 2.5t-153.5 2.5q-125 0 -202 -5zM266 68q14 -30 94 -30q210 0 304 84.5t94 250.5q0 220 -236 220h-136l-110 -418q-15 -47 -15 -77q0 -19 5 -30zM393 621h109q145 0 235 95.5t90 228.5q0 98 -42.5 144.5t-135.5 46.5q-73 0 -102 -22.5 t-48 -94.5z" />
<glyph unicode="C" horiz-adv-x="1106" d="M84 365q0 112 34.5 229.5t100 224t152 190.5t199.5 133.5t234 49.5q67 0 117 -17t73.5 -36t55.5 -54q15 -16 29 -13.5t29 26t33 71.5h35q-55 -144 -106 -380h-36q9 60 9 109q0 84 -26 136q-30 61 -88 95t-128 34q-103 0 -206 -78.5t-178 -199.5t-121.5 -270t-46.5 -285 q0 -159 63 -241t174 -82q72 0 153 33.5t141 94.5q42 42 73.5 99.5t74.5 161.5h37q-78 -283 -98 -396h-36q5 38 5 56q0 36 -14 41.5t-41 -13.5q-58 -37 -91.5 -55.5t-93 -35t-127.5 -16.5q-184 0 -284.5 99t-100.5 289z" />
<glyph unicode="D" horiz-adv-x="1197" d="M-50 0l5 33q82 4 112.5 29t53.5 113l216 819q15 49 15 80q0 20 -6 31q-16 29 -105 31l5 33q89 -5 162 -5h40q190 5 249 5q232 0 349 -92.5t117 -272.5q0 -123 -37.5 -242t-108 -220t-165 -178t-217 -120.5t-255.5 -43.5q-22 0 -107.5 2.5t-123.5 2.5q-127 0 -199 -5z M260 108q-3 -22 3.5 -42.5t30 -28t66.5 -7.5q154 0 278.5 67t203 180.5t120.5 259.5t42 309q0 150 -83.5 222t-269.5 72q-75 0 -106 -28t-54 -114l-217 -826q-11 -42 -14 -64z" />
<glyph unicode="E" horiz-adv-x="1007" d="M-58 0l8 33q86 4 116.5 28.5t54.5 113.5l219 819q10 38 13 61t0 39.5t-18 24.5t-35 11.5t-56 5.5l9 33q162 -5 479 -5q231 0 328 5q-40 -112 -62 -195q-20 -65 -24 -102h-38q14 80 14 133v21q-4 58 -41 81.5t-124 23.5h-121q-85 0 -115.5 -23.5t-54.5 -113.5l-104 -390 h109q34 0 63 11.5t47.5 26.5t36 43t25.5 45.5t21.5 50t17.5 42.5h38q-24 -74 -68 -235q-20 -72 -52 -235h-38q1 8 3 23q8 56 8 91q0 29 -5 45q-21 58 -107 59h-109l-106 -396q-13 -47 -15 -72.5t10.5 -41t35 -19.5t67.5 -4h120q78 0 130 14t92 51t67.5 88.5t59.5 138.5h38 q-17 -43 -37 -119q-24 -82 -44 -211q-112 5 -378 5q-318 0 -478 -5z" />
<glyph unicode="F" horiz-adv-x="934" d="M-58 0l8 33q86 4 116.5 28.5t54.5 113.5l219 819q10 38 13 61t0 39.5t-18 24.5t-35 11.5t-56 5.5l9 33q162 -5 479 -5q231 0 328 5q-29 -81 -67 -211q-17 -60 -32 -135h-38q18 100 18 165v18q-3 68 -45.5 96.5t-144.5 28.5h-87q-85 0 -115.5 -23.5t-54.5 -113.5 l-109 -406h120q30 0 55 7t44.5 23t33.5 30t27.5 39.5t20 39.5t17.5 42.5t14 36.5h38q-24 -74 -68 -235q-37 -157 -53 -234h-38q1 8 4.5 31.5t4.5 32.5t3 29.5t1 29.5t-3 25.5t-7.5 24t-14 18t-20.5 15.5t-29 8.5t-38 3.5h-120l-103 -380q-13 -47 -14 -73t15.5 -41.5 t44 -20.5t83.5 -7l-8 -33q-97 5 -243 5q-133 0 -210 -5z" />
<glyph unicode="G" horiz-adv-x="1164" d="M83 355q0 112 33 230t98 226t151 193.5t201 136.5t240 51q98 0 157.5 -27t113.5 -80q24 -27 46 -8.5t48 92.5h36q-53 -139 -105 -380h-37q9 77 9 124q0 74 -24 121q-34 60 -102 94.5t-152 34.5q-76 0 -146.5 -31.5t-125.5 -85.5t-102.5 -125t-81 -151t-57.5 -163 t-35.5 -161t-11.5 -145q0 -148 70.5 -219.5t215.5 -71.5q99 0 188 51q55 32 76 104l38 146q11 42 13.5 67.5t-2 44t-23 27.5t-43.5 13t-69 6l9 33q97 -5 231 -5q106 0 173 5l-8 -33q-56 -4 -76.5 -27.5t-45.5 -114.5l-88 -327h-33q8 28 3.5 61t-23.5 33q-17 0 -62 -28 q-139 -89 -281 -89q-202 0 -309 98t-107 280z" />
<glyph unicode="H" horiz-adv-x="1246" d="M-55 0l9 33q84 4 114 28.5t53 113.5l218 819q12 51 12 80q1 24 -7 34q-18 24 -103 28l8 33q75 -5 210 -5q124 0 212 5l-9 -33q-87 -4 -117 -28.5t-53 -113.5l-104 -390h530l104 390q13 47 15 73t-10 41.5t-34.5 20.5t-67.5 7l8 33q83 -5 208 -5q133 0 213 5l-8 -33 q-87 -4 -117 -28.5t-53 -113.5l-218 -819q-12 -48 -14 -73t9.5 -41t34 -21t67.5 -7l-6 -33q-77 5 -212 5q-124 0 -209 -5l6 33q86 4 116.5 28.5t53.5 113.5l106 396h-530l-106 -396q-12 -51 -12 -80q0 -25 8 -35q18 -24 102 -27l-7 -33q-85 5 -210 5q-130 0 -210 -5z" />
<glyph unicode="I" horiz-adv-x="563" d="M-55 0l9 33q84 4 114 28.5t53 113.5l218 819q12 51 12 80q1 24 -7 34q-18 24 -103 28l8 33q75 -5 210 -5q124 0 212 5l-9 -33q-87 -4 -117 -28.5t-53 -113.5l-218 -819q-12 -51 -12 -80q0 -25 8 -35q18 -24 102 -27l-7 -33q-85 5 -210 5q-130 0 -210 -5z" />
<glyph unicode="J" horiz-adv-x="1050" d="M74 -220v5q0 35 24 63q27 30 67 30q29 0 48.5 -19t21.5 -47q1 -28 -18 -51t-49 -37q24 -8 58 -8q27 0 50.5 8t42.5 21t37 35.5t31 44t26.5 55.5t22.5 61.5t21 70t19.5 72.5t19 77.5t19.5 77.5l50 194q19 74 46 138h-220l5 33h228q36 80 85 149.5t112 130.5t120 107 t138 104q-191 -99 -328 -99q-80 0 -202.5 46t-203.5 46q-55 0 -82 -28q-25 -27 -25 -74v-7q3 -96 122 -120l-5 -33q-76 13 -128 58.5t-54 132.5v12q0 81 49 135q52 57 143 57q50 0 97 -18t84.5 -44.5t74.5 -52.5t83 -44t95 -18q77 0 137.5 17t155.5 57q62 96 103 96 q12 0 22 -8q8 -7 10 -15.5t-4 -19t-19.5 -21.5t-38 -24t-58.5 -26q-232 -154 -344 -496h164l-5 -33h-169q-10 -29 -18 -64l-102 -400q-48 -185 -146 -301.5t-244 -116.5q-75 0 -121.5 23.5t-47.5 67.5z" />
<glyph unicode="K" horiz-adv-x="1114" d="M-55 0l9 33q84 4 114 28.5t53 113.5l218 819q12 51 12 80q1 24 -7 34q-18 24 -103 28l8 33q75 -5 210 -5q124 0 212 5l-9 -33q-87 -4 -117 -28.5t-53 -113.5l-218 -819q-12 -51 -12 -80q0 -25 8 -35q18 -24 102 -27l-7 -33q-85 5 -210 5q-130 0 -210 -5zM431 609 q0 33 52 33q36 0 98 -16q80 10 136.5 57t87 113t52.5 133t50.5 131t63.5 94q48 38 99 38q54 0 77 -27q21 -25 21 -63v-7q-3 -38 -27.5 -72t-68.5 -34q-35 0 -51 21t-14 50q1 23 16.5 50.5t36.5 47.5h-5q-32 -2 -59 -23q-31 -29 -58 -92.5t-50 -130.5t-55 -133t-88 -113 t-134 -57q46 -9 73.5 -21.5t53.5 -39.5q26 -28 36 -80q8 -40 8 -96q0 -16 -1 -33l-6 -187v-15q0 -32 7 -49q9 -20 42 -20q41 0 69.5 30.5t52.5 98.5l28 84h33l-42 -127q-59 -177 -202 -177q-140 0 -140 164q0 13 1 27l12 187q2 32 2 59q0 66 -10 100q-14 48 -52 77 q-58 -14 -93 -14q-52 0 -52 32z" />
<glyph unicode="L" horiz-adv-x="967" d="M-58 0l8 33q86 4 116.5 28.5t54.5 113.5l219 819q10 38 13 61t0 39.5t-18 24.5t-35 11.5t-56 5.5l9 33q77 -5 211 -5q125 0 210 5l-8 -33q-87 -4 -117.5 -28.5t-54.5 -113.5l-220 -819q-13 -47 -15 -72.5t10.5 -41t35 -19.5t67.5 -4h120q78 0 130 15t93 54.5t69 93.5 t62 146h38q-15 -40 -42 -136q-24 -82 -44 -211q-112 5 -378 5q-318 0 -478 -5z" />
<glyph unicode="M" horiz-adv-x="1433" d="M-56 0l8 33q84 4 117 35t57 124l214 802q12 51 12 81q0 23 -7 33q-17 24 -102 28l8 33q58 -5 147 -5q82 0 145 5l91 -979l621 974h80q118 0 206 5l-8 -33q-87 -4 -117 -28.5t-53 -113.5l-218 -819q-12 -51 -12 -81q0 -24 7 -34q17 -24 102 -27l-7 -33q-85 5 -204 5 q-138 0 -215 -5l7 33q87 4 117 28.5t53 113.5l239 890l-685 -1073h-37l-112 1087l-234 -887q-14 -49 -14 -81q0 -27 10 -42q21 -32 114 -36l-8 -33q-63 5 -167 5q-92 0 -155 -5z" />
<glyph unicode="N" horiz-adv-x="1271" d="M-119 -36q0 45 26.5 81t71.5 36q34 0 48 -19t14 -45q0 -56 -53 -105h5q85 3 137 86q111 173 271 996q9 45 9 73q0 29 -10 41q-20 24 -116 28l8 33q58 -5 147 -5q71 0 134 5l312 -913q159 709 278 884q73 105 178 105q99 0 99 -84q0 -46 -26 -82.5t-71 -36.5 q-34 0 -48.5 19.5t-14.5 45.5q0 55 53 104h-5q-82 -3 -136 -85q-73 -109 -152 -383.5t-180 -750.5h-36l-376 1063q-180 -925 -291 -1073q-37 -49 -77 -76.5t-100 -27.5q-99 0 -99 86z" />
<glyph unicode="O" horiz-adv-x="1204" d="M89 373q0 110 31 225t92 221t143 189.5t192 133.5t231 50q184 0 287 -104t103 -294q0 -109 -31.5 -224t-93 -220.5t-143.5 -189t-192.5 -133.5t-230.5 -50q-184 0 -286 103.5t-102 292.5zM264 352q0 -160 63 -252.5t165 -92.5q93 0 185.5 71.5t160.5 184.5t110.5 261 t42.5 294q0 160 -63 252.5t-165 92.5q-93 0 -185.5 -71.5t-160.5 -184.5t-110.5 -261t-42.5 -294z" />
<glyph unicode="P" horiz-adv-x="972" d="M-55 0l7 33q86 4 116.5 28.5t53.5 113.5l218 819q15 46 15 76q1 22 -7 34q-18 32 -105 32l8 33q75 -5 203 -5q39 0 119 2t122 2q162 0 245.5 -67t83.5 -183q0 -128 -78 -230.5t-220.5 -160.5t-324.5 -58h-49l-78 -294q-7 -27 -10 -40.5t-5 -31.5t1 -26t10 -18.5 t20.5 -14.5t33.5 -7t48 -4l-7 -33q-85 5 -205 5q-138 0 -215 -5zM362 502h56q119 0 206 34t137 96t73 139.5t23 173.5q0 98 -50 144.5t-160 46.5q-72 0 -102 -28.5t-53 -113.5z" />
<glyph unicode="Q" horiz-adv-x="1289" d="M-74 -13q0 65 56.5 106t144.5 41q45 0 85 -10.5t83 -36.5t67 -43.5t74 -56.5q121 62 234 156.5t202.5 206t143.5 241t54 250.5q0 147 -73.5 234.5t-208.5 87.5q-122 0 -220 -73t-149 -183.5t-51 -230.5q0 -118 52 -177.5t137 -59.5q108 0 183.5 83.5t75.5 177.5 q0 44 -12 66q-17 -34 -51 -54t-71 -20t-57.5 21.5t-20.5 56.5q0 43 32 71.5t82 28.5q59 0 95 -44t36 -117q0 -126 -100.5 -217t-254.5 -91q-139 0 -216.5 79t-77.5 210q0 106 53 201t139 160t197.5 103t226.5 38q198 0 312 -91t114 -250q0 -102 -46.5 -210.5t-124 -204 t-179 -185t-211 -160.5t-220.5 -124q66 -52 113 -82t126 -56.5t165 -26.5q171 0 238 112q-24 -10 -51 -10q-37 0 -59 22t-22 57q0 39 28.5 69.5t69.5 30.5q37 0 59.5 -25.5t22.5 -69.5q0 -73 -64.5 -143t-163 -113t-195.5 -43q-62 0 -118 18t-108 55t-86.5 69t-83.5 83 q-139 -49 -235 -49q-81 0 -126 32.5t-45 89.5zM-43 -10q0 -97 159 -97q85 0 198 41q-41 44 -62 64.5t-54 48t-61.5 39t-58.5 11.5q-48 0 -84.5 -29.5t-36.5 -77.5z" />
<glyph unicode="R" horiz-adv-x="1096" d="M-55 0l7 33q86 4 116.5 28.5t53.5 113.5l218 819q15 46 15 76q1 22 -7 34q-18 32 -105 32l8 33q75 -5 203 -5q39 0 119 2t122 2q162 0 245.5 -62.5t83.5 -170.5q0 -136 -116.5 -235.5t-314.5 -131.5q23 -2 58 -8q105 -20 147 -66q35 -38 36 -116q0 -17 -2 -36l-13 -169 q-1 -16 -1 -30q0 -39 8 -67q11 -38 44 -38h2q28 1 50 34.5t47 104.5l9 23h38l-7 -22q-29 -104 -74.5 -152.5t-121.5 -48.5q-77 1 -116 47q-34 40 -34 94q0 8 1 17l13 185q2 26 2.5 49t-2.5 42q-5 39 -20.5 66t-51 44t-91 25t-139.5 9l-101 -380q-16 -46 -16 -76q0 -21 7 -33 q17 -32 107 -33l-7 -33q-85 5 -205 5q-138 0 -215 -5zM385 588h49q115 0 198.5 27.5t131.5 77.5t70.5 112.5t22.5 139.5q0 98 -50 144.5t-160 46.5q-72 0 -102 -28.5t-53 -113.5z" />
<glyph unicode="S" horiz-adv-x="914" d="M-30 -12q55 130 113 397h33q-15 -86 -15 -125v-9q11 -241 269 -241q113 0 178 51t65 155q0 56 -21 107t-55 91t-74.5 79t-81 79t-74.5 82.5t-55 98t-21 117.5q0 102 54.5 177t135.5 110t174 35q68 0 117 -16t97 -53q39 -30 55 -30q24 0 54 88h33q-59 -148 -97 -337h-33 q10 44 10 94q0 98 -58.5 160.5t-176.5 62.5q-104 0 -167.5 -53t-63.5 -157q0 -50 23 -99.5t60 -91t81.5 -83t89 -84.5t81.5 -86.5t60 -97t23 -108.5q0 -66 -25 -121t-66.5 -92t-96.5 -62.5t-113 -37t-117 -11.5q-61 0 -111.5 14t-73.5 27.5t-50 34.5q-31 25 -59 25 q-19 0 -33 -20t-35 -70h-33z" />
<glyph unicode="T" horiz-adv-x="1088" d="M164 1009q0 87 87 129q78 38 221 38q99 0 274 -23t270 -23q142 0 213 36q-41 41 -41 93q0 37 20.5 63.5t59.5 26.5q37 0 56 -22.5t19 -56.5q0 -72 -78 -119q-86 -54 -261 -54q-82 0 -168 11l-245 -916q-14 -51 -14 -83q1 -28 11 -43q24 -31 127 -33l-6 -33q-97 5 -247 5 q-153 0 -241 -5l7 33q102 4 142 35.5t68 123.5l249 936q-131 18 -213 18q-142 0 -185 -28q30 -41 30 -96q0 -38 -21.5 -66.5t-61.5 -28.5q-35 0 -53.5 22t-18.5 60z" />
<glyph unicode="U" horiz-adv-x="1126" d="M137 234q0 98 41 242l137 518q12 51 12 81q0 23 -7 33q-17 24 -102 28l10 33q75 -5 213 -5q118 0 206 5l-9 -33q-87 -4 -117.5 -28.5t-53.5 -113.5l-145 -546q-18 -74 -28 -130q-8 -44 -8 -89v-23q2 -56 21.5 -91.5t63 -57.5t110.5 -22q90 0 161 31.5t121 91t84.5 133.5 t59.5 171l135 516q11 44 11 74q0 32 -12 48q-24 32 -109 36l8 33q63 -5 167 -5q92 0 155 5l-8 -33q-85 -4 -118.5 -35t-56.5 -123l-129 -497q-60 -230 -162 -351q-61 -71 -149.5 -112t-189.5 -41q-176 0 -254 89q-58 66 -58 168z" />
<glyph unicode="V" horiz-adv-x="1043" d="M159 1136l8 33q72 -5 178 -5q118 0 198 5l-8 -33q-25 -1 -41 -2.5t-33.5 -5.5t-26 -10t-18.5 -16t-11.5 -24t-4.5 -34t3 -46l94 -798l458 702q57 86 67 138q3 14 3 25q1 32 -21 48q-30 21 -101 23l9 33q102 -5 188 -5q67 0 125 5l-8 -33q-88 -19 -167 -143l-650 -1001 h-25l-131 1039q-7 54 -31.5 78.5t-53.5 26.5z" />
<glyph unicode="W" horiz-adv-x="1489" d="M142 1136l7 33q75 -5 163 -5q112 0 179 5l-7 -33q-58 -4 -80 -32q-15 -19 -16 -64q0 -19 3 -42l93 -788l345 586l-36 235q-16 101 -75 105l7 33q67 -5 147 -5q134 0 211 5l-6 -33q-87 -4 -113 -30q-17 -17 -17 -59q0 -21 4 -49l119 -752l322 656q46 95 52 145q1 8 1 15 q0 38 -24 54q-29 18 -101 20l8 33q102 -5 188 -5q68 0 126 5l-9 -33q-97 -21 -156 -143l-494 -1001h-27l-119 753l-447 -753h-27l-130 1039q-14 101 -91 105z" />
<glyph unicode="X" horiz-adv-x="1154" d="M-55 74q4 40 29 73t69 33q35 0 50.5 -21t12.5 -50q-2 -24 -16.5 -51t-36.5 -46h6q59 3 105 34q85 56 189 185.5t194 316.5l-43 365q-22 189 -131 189q-48 0 -78 -30t-54 -99l-28 -84h-33l43 127q59 176 201 176q57 0 98.5 -22t65 -62t35.5 -80.5t18 -92.5l30 -256 q64 140 152 266.5t165 189.5q75 57 152 57q55 0 78 -28q20 -23 20 -57q0 -6 -1 -12q-5 -41 -29 -73.5t-68 -32.5q-35 0 -50.5 21t-12.5 50q2 24 16.5 51.5t36.5 46.5h-5q-59 0 -106 -35q-74 -54 -166 -182t-176 -310l43 -375q22 -188 131 -188q48 0 78 30t54 99l28 84h33 l-43 -127q-59 -177 -202 -177q-46 0 -82.5 15.5t-58.5 40t-38.5 60t-24 68.5t-12.5 74l-30 259q-65 -137 -166.5 -266t-191.5 -193q-76 -58 -152 -58q-55 -1 -79 27q-20 24 -20 58q0 6 1 12z" />
<glyph unicode="Y" horiz-adv-x="1106" d="M160 889l55 160q26 77 60.5 110t101.5 33q45 0 80.5 -18t62.5 -56.5t47.5 -87t36 -120t26.5 -144.5t22 -171q120 301 309 490q107 107 195 107q51 0 74 -28q19 -25 19 -60v-9q-3 -39 -28.5 -72.5t-69.5 -33.5q-35 0 -50 20.5t-13 50.5q3 52 53 98h-5q-46 -3 -91 -37 q-86 -62 -186 -201.5t-192 -361.5l-96 -383q-12 -48 -14 -73t10 -41t34.5 -21t67.5 -7l-8 -33q-83 5 -205 5q-137 0 -217 -5l9 33q86 4 117 28.5t53 113.5l97 385q-10 84 -20 151t-27 143.5t-36.5 128t-48 85.5t-61.5 34q-29 0 -47.5 -18t-31.5 -60l-46 -135h-37z" />
<glyph unicode="Z" horiz-adv-x="1076" d="M-57.5 9.5q-1.5 10.5 5 23.5t20 26.5t39 28.5t59.5 28l464 455h-267l11 33h289l461 453q-149 -89 -286 -89q-70 0 -176 46t-177 46q-55 0 -83.5 -28.5t-28.5 -80.5q0 -97 118 -120l-6 -33q-74 13 -124.5 58.5t-50.5 132.5q0 89 54.5 146t145.5 57q45 0 86 -18t73 -44 l64 -52t72 -44t83 -18q63 0 114.5 17t129.5 57q38 56 80 82q24 15 42 15q14 0 24 -9q8 -7 9.5 -17.5t-5 -23.5t-20 -26.5t-39 -28.5t-59.5 -28l-458 -450h251l-13 -33h-271l-467 -459q149 89 285 89q70 0 176.5 -46t177.5 -46q55 0 83.5 28.5t28.5 80.5q0 98 -119 121l7 33 q74 -13 124.5 -59t50.5 -133q0 -89 -54.5 -146t-145.5 -57q-45 0 -86 18t-73 44t-64 52.5t-72 44.5t-83 18q-63 0 -114.5 -17.5t-130.5 -57.5q-39 -55 -81 -81q-23 -15 -41 -15q-13 0 -23 9q-8 7 -9.5 17.5z" />
<glyph unicode="[" horiz-adv-x="495" d="M-40 -299l392 1574h281l-7 -31h-134l-378 -1512h134l-7 -31h-281z" />
<glyph unicode="\" horiz-adv-x="812" d="M218 1192h51l377 -1215h-55z" />
<glyph unicode="]" horiz-adv-x="495" d="M-137 -299l7 31h133l379 1512h-134l6 31h281l-391 -1574h-281z" />
<glyph unicode="^" horiz-adv-x="883" d="M140 555q119 51 224 136.5t169 180.5h30q14 -95 73.5 -180.5t151.5 -136.5l-20 -23q-91 37 -170.5 90.5t-120.5 107.5q-62 -55 -151.5 -108.5t-178.5 -89.5z" />
<glyph unicode="_" horiz-adv-x="1228" d="M-83 -264l17 66h993l-19 -66h-991z" />
<glyph unicode="a" horiz-adv-x="1043" d="M-137 0v33q73 20 180 154l664 829h25l102 -877q7 -54 29.5 -79t51.5 -27l-8 -33q-75 5 -180 5q-127 0 -199 -5l9 33q87 3 119 31q25 22 25 76q0 15 -2 32l-25 205h-419l-113 -141q-32 -40 -48.5 -73.5t-16.5 -61.5t25 -46t75 -22v-33q-55 5 -150 5q-97 0 -144 -5z M261 410h390l-51 419z" />
<glyph unicode="b" horiz-adv-x="1012" d="M-53 0l7 33q86 4 116.5 28.5t53.5 113.5l175 654q15 46 15 75q0 20 -7 34q-18 32 -106 33l9 33q75 -5 196 -5q37 0 114 2t119 2q153 0 232 -48t79 -131q0 -69 -51 -129t-124.5 -98t-163.5 -62q271 -38 271 -220q0 -88 -62.5 -161t-165.5 -113.5t-221 -40.5 q-38 0 -130.5 2.5t-153.5 2.5q-125 0 -202 -5zM268 68q15 -30 94 -30q85 0 148 15t102 40t63 64.5t33 83t9 99.5q0 170 -236 170h-114l-90 -335q-15 -47 -15 -77q0 -18 6 -30zM373 538h88q145 0 235 81t90 194q0 81 -42.5 119.5t-135.5 38.5q-73 0 -102.5 -22.5t-48.5 -94.5 z" />
<glyph unicode="c" horiz-adv-x="1098" d="M69 324q0 98 30 198t89 190t139 161t189.5 112.5t230.5 41.5q90 0 145.5 -28.5t98.5 -78.5q12 -14 24 -14q32 0 67 98h36q-52 -150 -107 -380h-37q10 80 10 127q0 66 -26 118q-30 63 -90 96t-136 33q-98 0 -192 -66.5t-159.5 -169.5t-105.5 -229t-40 -242 q0 -137 62 -210.5t170 -73.5q76 0 157 33.5t141 94.5q43 45 74 101t74 160h37q-78 -283 -98 -396h-36q5 38 5 56q0 42 -22 42q-13 0 -33 -14q-76 -53 -147 -80t-166 -27q-182 0 -283 90.5t-101 256.5z" />
<glyph unicode="d" horiz-adv-x="1195" d="M-46 0l5 33q82 4 112 28.5t53 113.5l173 654q16 49 16 79q1 20 -7 32q-18 30 -105 31l5 33q89 -5 162 -5h40q190 5 249 5q232 0 349 -92.5t117 -272.5q0 -136 -52.5 -253t-147 -202.5t-234 -134.5t-306.5 -49q-22 0 -107.5 2.5t-123.5 2.5q-126 0 -198 -5zM262 89.5 q-1 -31.5 22 -45.5t79 -14q155 0 272 47.5t188.5 135.5t106.5 204.5t35 262.5q0 150 -84 222t-270 72q-75 0 -106 -28t-54 -114l-174 -660q-14 -51 -15 -82.5z" />
<glyph unicode="e" horiz-adv-x="1022" d="M-56 0l8 33q86 4 116.5 28.5t53.5 113.5l177 654q10 38 12.5 61t-0.5 39.5t-17.5 24.5t-34.5 11.5t-56 5.5l8 33q155 -5 461 -5q250 0 359 5q-33 -84 -60 -178q-21 -82 -28 -119h-38q14 69 14 119q1 55 -17 84q-34 56 -159 56h-120q-86 0 -116.5 -24t-53.5 -113l-83 -307 h154q33 0 61 14t46 31t35.5 47.5t25 47t18.5 45.5h38q-35 -106 -59 -202q-1 -4 -11.5 -43t-18 -74t-15.5 -84h-38q4 29 5.5 45.5t1.5 41.5t-6.5 39.5t-18.5 29.5t-35.5 22t-55.5 7h-137l-84 -314q-12 -48 -14 -73t9.5 -40.5t34 -19.5t67.5 -4h121q133 0 207.5 64t135.5 228 h38q-25 -72 -39 -135q-20 -64 -42 -195q-116 5 -388 5q-305 0 -462 -5z" />
<glyph unicode="f" horiz-adv-x="954" d="M-56 0l8 33q86 4 116.5 28.5t53.5 113.5l177 654q10 38 12.5 61t-0.5 39.5t-17.5 24.5t-34.5 11.5t-56 5.5l8 33q155 -5 461 -5q255 0 364 5q-33 -84 -60 -178q-21 -82 -28 -119h-38q14 66 14 114q0 58 -20 89q-36 56 -161 56h-120q-86 0 -116.5 -24t-53.5 -113l-83 -307 h170q33 0 61 14t46 31t36 47t25.5 47.5t18.5 45.5h38q-39 -118 -60 -202q-34 -135 -44 -201h-38q5 34 6.5 54.5t-1.5 48.5t-12.5 43.5t-31 27t-54.5 11.5h-170l-84 -314q-11 -44 -11 -72q0 -29 11 -41q24 -25 129 -29l-9 -33q-93 5 -241 5q-131 0 -211 -5z" />
<glyph unicode="g" horiz-adv-x="1151" d="M69 322q0 94 28.5 192.5t86.5 190t137.5 163.5t190 115.5t235.5 43.5q98 0 156.5 -27t113.5 -80q24 -27 46.5 -8.5t48.5 92.5h36q-53 -152 -106 -380h-36q8 69 8 124q0 76 -23 121q-34 60 -102 94.5t-152 34.5q-88 0 -165 -37t-131.5 -99t-97.5 -139t-68.5 -160 t-38.5 -158t-13 -137q0 -131 70.5 -194.5t215.5 -63.5q36 0 74 6.5t77.5 21t69.5 41.5t40 63l29 111q9 35 13 58t0.5 41t-11 28t-26.5 17t-41 9.5t-59 4.5l7 33q97 -5 233 -5q105 0 172 5l-7 -33q-59 -4 -79.5 -27.5t-45.5 -114.5l-73 -269h-33q8 23 3.5 50.5t-23.5 27.5 q-24 0 -87 -38q-102 -63 -256 -63q-203 0 -310 89.5t-107 255.5z" />
<glyph unicode="h" horiz-adv-x="1251" d="M-51 0l8 33q84 4 114 28.5t53 113.5l173 654q12 51 12 81q0 24 -7 34q-17 24 -102 27l8 33q75 -5 210 -5q123 0 211 5l-8 -33q-87 -4 -117 -28.5t-53 -113.5l-81 -307h530l81 307q13 47 15 73t-10 41.5t-34.5 20.5t-67.5 7l8 33q83 -5 208 -5q133 0 213 5l-8 -33 q-87 -4 -117 -28.5t-53 -113.5l-174 -654q-12 -51 -12 -80q-1 -25 7 -35q18 -24 103 -27l-7 -33q-77 5 -211 5q-125 0 -210 -5l7 33q86 4 116.5 28.5t53.5 113.5l82 314h-530l-83 -314q-12 -51 -12 -80q-1 -25 7 -35q18 -24 103 -27l-7 -33q-85 5 -209 5q-130 0 -210 -5z " />
<glyph unicode="i" horiz-adv-x="568" d="M-51 0l8 33q84 4 114 28.5t53 113.5l173 654q12 51 12 81q0 24 -7 34q-17 24 -102 27l8 33q75 -5 210 -5q123 0 211 5l-8 -33q-87 -4 -117 -28.5t-53 -113.5l-174 -654q-12 -51 -12 -80q-1 -25 7 -35q18 -24 103 -27l-7 -33q-85 5 -209 5q-130 0 -210 -5z" />
<glyph unicode="j" horiz-adv-x="1015" d="M35 -220v5q0 35 25 63q26 30 66 30q29 0 48 -19t21 -47q1 -28 -17.5 -51t-48.5 -37q24 -8 58 -8q42 0 73.5 8t58.5 36t42 45.5t37 74.5t30 81.5t32 106.5q11 37 17 56l55 182q10 37 28 84h-208l5 33h216q20 50 44.5 96t44 79t55.5 74t53.5 61t65.5 62.5t63.5 55.5 t73.5 62q-164 -99 -278 -99q-77 0 -194 46.5t-195 46.5q-55 0 -82 -29q-26 -26 -26 -73v-7q3 -98 122 -121l-5 -33q-76 13 -127.5 59t-53.5 133v13q0 80 48 133q52 57 143 57q48 0 93.5 -18t81.5 -44.5t72 -52.5t80 -44t91 -18q63 0 114.5 17.5t128.5 56.5q62 97 103 97 q13 0 23 -9q11 -13 8.5 -28t-33.5 -35.5t-86 -42.5q-103 -84 -162.5 -195.5t-116.5 -299.5h165l-5 -33h-170q-1 -1 -1.5 -4.5t-1.5 -5.5l-116 -388q-40 -133 -141 -218t-249 -85q-75 0 -121 23.5t-47 67.5z" />
<glyph unicode="k" horiz-adv-x="1113" d="M-51 0l8 33q84 4 114 28.5t53 113.5l173 654q12 51 12 81q0 24 -7 34q-17 24 -102 27l8 33q75 -5 210 -5q123 0 211 5l-8 -33q-87 -4 -117 -28.5t-53 -113.5l-174 -654q-12 -51 -12 -80q-1 -25 7 -35q18 -24 103 -27l-7 -33q-85 5 -209 5q-130 0 -210 -5zM410 522 q0 31 53 31q38 0 102 -16q59 5 102.5 34.5t67.5 70.5t45 92t34.5 97.5t36 90.5t49.5 67q48 38 99 38q54 0 77 -27q21 -25 21 -63v-7q-3 -38 -27.5 -72t-68.5 -34q-35 0 -51 21t-14 50q1 23 16.5 50.5t36.5 47.5h-5q-30 0 -59 -24q-26 -25 -49.5 -79.5t-43.5 -111.5 t-46.5 -112.5t-74 -95.5t-111.5 -48q94 -20 138 -76q38 -49 39 -142q0 -15 -1 -30l-3 -142q-1 -29 14.5 -46.5t39.5 -17.5q42 0 71 31t52 98l28 84h33l-43 -127q-59 -177 -202 -177q-77 -1 -112 49q-28 39 -28 106q0 17 2 36l10 123q2 21 2 40q0 54 -14 99q-20 60 -58 79 q-68 -18 -107 -18q-51 0 -51 31z" />
<glyph unicode="l" horiz-adv-x="981" d="M-56 0l8 33q86 4 116.5 28.5t53.5 113.5l177 654q10 38 12.5 61t-0.5 39.5t-17.5 24.5t-34.5 11.5t-56 5.5l8 33q75 -5 210 -5q124 0 212 5l-9 -33q-87 -4 -117.5 -28.5t-53.5 -113.5l-177 -654q-12 -48 -14 -73t9.5 -40.5t34 -19.5t67.5 -4h104q126 0 219 72t153 237h38 q-39 -120 -46 -152q-20 -64 -42 -195q-116 5 -393 5q-305 0 -462 -5z" />
<glyph unicode="m" horiz-adv-x="1430" d="M-59 0l8 33q84 4 118 35.5t59 123.5l175 660q12 51 12 80q1 24 -7 34q-18 24 -103 28l8 33q58 -5 147 -5q76 0 139 5l131 -852l588 847h79q118 0 206 5l-8 -33q-87 -4 -117 -28.5t-53 -113.5l-180 -677q-12 -51 -12 -81q0 -24 7 -34q17 -24 102 -27l-6 -33q-85 5 -205 5 q-138 0 -215 -5l7 33q86 4 115.5 28t54.5 114l200 745l-646 -928h-36l-151 943l-196 -743q-14 -50 -14 -82q0 -26 10 -41q20 -32 113 -36l-8 -33q-67 5 -167 5q-95 0 -155 -5z" />
<glyph unicode="n" horiz-adv-x="1316" d="M-121 -36q0 45 26.5 81t71.5 36q34 0 48.5 -19t14.5 -45q0 -56 -53 -105h3q80 3 139 86q120 177 281 894q1 6 1 12q1 37 -23 50q-26 15 -106 17l9 33q58 -5 147 -5q70 0 133 5l314 -778q159 596 276 748q79 106 178 106t99 -84q0 -46 -26 -82.5t-71 -36.5q-34 0 -48.5 19 t-14.5 45q0 27 15.5 55.5t37.5 48.5h-5q-76 -2 -135 -84q-145 -205 -332 -969h-37l-376 905q-177 -774 -291 -915q-26 -32 -45.5 -51t-55 -36t-76.5 -17q-99 0 -99 86z" />
<glyph unicode="o" horiz-adv-x="1208" d="M76 375q0 88 30 180t88 176t136.5 150.5t183.5 106t219 39.5q186 0 296.5 -101t110.5 -297q0 -88 -30 -180t-88.5 -176t-136.5 -150.5t-183.5 -106t-219.5 -39.5q-186 0 -296 100.5t-110 297.5zM253 352q0 -179 65 -262t179 -83q131 0 240 96t167.5 243t58.5 306 q0 179 -65.5 262.5t-179.5 83.5q-80 0 -153 -36.5t-129 -100t-97.5 -145.5t-63.5 -176t-22 -188z" />
<glyph unicode="p" horiz-adv-x="961" d="M-53 0l7 33q86 4 116.5 28.5t53.5 113.5l173 654q12 48 12 78.5t-25 45.5t-84 18l8 33q75 -5 203 -5q39 0 119 2t122 2q161 0 245 -58.5t84 -158.5q0 -166 -169 -274.5t-437 -108.5h-38l-61 -228q-12 -49 -13.5 -79.5t23 -45t87.5 -17.5l-6 -33q-85 5 -205 5 q-138 0 -215 -5zM345 436h46q115 0 198.5 29t131.5 81.5t70.5 118.5t22.5 148q0 81 -50 119.5t-160 38.5q-72 0 -102 -28.5t-53 -113.5z" />
<glyph unicode="q" horiz-adv-x="1283" d="M-82 -18q0 66 53 100.5t141 34.5q46 0 88.5 -11t86 -35t71.5 -43.5t75 -55.5q117 50 222.5 125.5t189.5 167.5t134 203t50 221q0 142 -73.5 225.5t-207.5 83.5q-174 0 -297.5 -122.5t-123.5 -300.5q0 -108 52.5 -163t140.5 -55q92 0 172.5 64t80.5 149q0 44 -13 66 q-17 -34 -50 -55t-69 -21q-37 0 -57.5 21.5t-20.5 56.5q0 43 32.5 71.5t78.5 28.5q61 0 97.5 -42t36.5 -111q0 -120 -103.5 -193t-240.5 -73q-151 0 -228 65t-77 174q0 87 38 164t100 131.5t141.5 94.5t163.5 59.5t164 19.5q192 0 313.5 -91.5t121.5 -251.5 q0 -90 -43.5 -182t-116.5 -171t-169.5 -151.5t-200 -129t-210.5 -98.5q93 -72 176.5 -111t191.5 -39q96 0 159.5 18t114.5 66q-29 -15 -59 -15q-37 0 -59 23t-22 58q0 39 28 68.5t69 29.5q37 0 60 -25.5t23 -67.5q0 -78 -65.5 -141t-157.5 -94.5t-185 -31.5q-68 0 -129 17.5 t-113.5 51.5t-90 65.5t-83.5 78.5q-131 -38 -226 -38q-83 0 -129 31.5t-46 85.5zM-53 -13q0 -47 44 -70.5t100 -23.5q96 0 206 31q-89 89 -120 112q-59 45 -113 45q-48 0 -82.5 -24.5t-34.5 -69.5z" />
<glyph unicode="r" horiz-adv-x="1068" d="M-53 0l7 33q86 4 116.5 28.5t53.5 113.5l175 654q12 46 12 76q0 33 -26 48q-25 15 -84 18l9 33q75 -5 203 -5q39 0 119 2t122 2q162 0 245.5 -53.5t83.5 -146.5q0 -124 -112.5 -208t-307.5 -111l35 -5q104 -21 148 -67q38 -41 37 -126v-25l-5 -88q-1 -19 -1 -35 q-1 -44 7 -68q10 -34 47 -32q28 1 50 34.5t47 104.5l8 23h38l-6 -22q-29 -102 -77.5 -151.5t-125.5 -49.5q-77 -1 -111 45q-31 41 -30 99v14l7 104q1 23 1 43q0 35 -4 60q-7 39 -33 69t-76 43.5t-133 17.5h-9h-22l-79 -297q-12 -49 -13.5 -79.5t23 -45t87.5 -17.5l-6 -33 q-85 5 -205 5q-138 0 -215 -5zM365 505h28q233 0 328 71.5t95 236.5q0 81 -50 119.5t-160 38.5q-72 0 -102 -28.5t-53 -113.5z" />
<glyph unicode="s" horiz-adv-x="929" d="M-28 -12q53 125 112 397h33q-15 -86 -15 -125v-9q8 -241 273 -241q111 0 175 43.5t64 133.5q0 44 -14.5 81t-45.5 69.5t-57.5 53.5t-73.5 53q-106 72 -141 107q-84 82 -84 187q0 135 109 212t259 77q68 0 114.5 -17t95.5 -52q42 -30 55 -30q24 0 54 88h33 q-59 -148 -97 -337h-33q10 44 10 92q0 99 -58 162t-180 63q-101 0 -164.5 -44.5t-63.5 -130.5q0 -42 15.5 -78t50 -69.5t65 -56t84.5 -57.5q51 -33 74 -49t61.5 -48t56 -57.5t32 -63t14.5 -78.5q0 -72 -38 -129t-100 -90t-133.5 -50.5t-145.5 -17.5q-62 0 -112 13.5 t-72.5 27t-51.5 35.5q-33 25 -58 25q-21 0 -34 -19t-35 -71h-33z" />
<glyph unicode="t" horiz-adv-x="1009" d="M127 844q0 84 86 129q72 38 187 38q92 0 258.5 -23t251.5 -23q110 0 183 36q-41 41 -41 92q0 37 21 64t60 27q36 0 55 -22t19 -55q0 -68 -76 -123q-92 -53 -228 -53q-57 0 -140 9l-216 -748q-15 -49 -15 -81q0 -27 12 -43q24 -34 127 -35l-7 -33q-97 5 -246 5 q-153 0 -241 -5l6 33q104 4 143.5 34t66.5 125l223 769q-146 20 -208 20q-106 0 -155 -28q29 -39 29 -96q0 -38 -21 -67t-61 -29q-34 0 -53.5 22.5t-19.5 60.5z" />
<glyph unicode="u" horiz-adv-x="1128" d="M135 222v11q0 87 42 243l94 353q12 51 12 80q1 25 -7 35q-18 24 -103 27l10 33q75 -5 213 -5q119 0 207 5l-10 -33q-87 -4 -117 -28.5t-53 -113.5l-103 -381q-18 -74 -28 -130q-8 -44 -8 -89v-23q2 -56 21.5 -91.5t63 -57.5t110.5 -22q90 0 161 31.5t121 91t84.5 133.5 t59.5 171l94 351q12 44 12 74q-1 31 -13 47q-24 32 -109 37l8 33q67 -5 167 -5q95 0 155 5l-8 -33q-75 -4 -113 -36.5t-62 -121.5l-88 -332q-60 -230 -162 -351q-61 -71 -149.5 -112t-188.5 -41q-186 0 -255 89q-55 68 -58 156z" />
<glyph unicode="v" horiz-adv-x="1050" d="M135 971l9 33q72 -5 178 -5q118 0 198 5l-8 -33q-86 -3 -114 -29q-21 -18 -21 -68q0 -19 3 -42l79 -654l449 562q67 84 85 134q8 22 8 38q0 22 -14 34q-24 22 -90 25l8 33q52 -5 182 -5q62 0 112 5l-8 -33q-49 -19 -86.5 -52.5t-97.5 -109.5l-652 -817h-25l-109 873 q-7 54 -32 79t-54 27z" />
<glyph unicode="w" horiz-adv-x="1496" d="M119 971l7 33q75 -5 163 -5q111 0 178 5l-6 -33q-59 -4 -81 -32q-15 -20 -15 -65q0 -19 3 -42l71 -621l342 578l-11 76q-16 102 -75 106l7 33q67 -5 147 -5q134 0 211 5l-6 -33q-89 -4 -115 -30q-16 -16 -16 -56q0 -23 5 -53l106 -621l310 511q58 96 70 151q4 19 5 34 q0 28 -16 41q-24 20 -83 23l8 33q55 -5 150 -5q101 0 144 5l-8 -33q-52 -16 -91.5 -51t-85.5 -112l-499 -816h-26l-123 748l-444 -748h-26l-109 873q-14 102 -91 106z" />
<glyph unicode="x" horiz-adv-x="1116" d="M-53 74q4 40 29 73t69 33q35 0 50 -20.5t12 -50.5q-2 -24 -16 -51t-36 -46h4q62 3 106 34q75 49 166 157t174 264l-31 281q-10 87 -39.5 137.5t-90.5 50.5q-49 0 -79 -30t-54 -98l-28 -85h-33l43 128q59 176 202 176q188 0 216 -257l20 -174q62 119 136 220t140 153 q73 58 152 58q55 1 78 -27q20 -23 20 -58q0 -6 -1 -12q-5 -41 -29 -73.5t-68 -32.5q-35 0 -50.5 21t-12.5 50q6 57 53 98h-5q-56 -3 -106 -35q-65 -47 -145.5 -153t-156.5 -258l33 -291q10 -87 39.5 -137.5t90.5 -50.5q48 0 78 30t54 99l29 84h33l-43 -127 q-59 -177 -202 -177q-188 0 -216 258l-20 178q-67 -116 -153.5 -219t-161.5 -159q-81 -58 -152 -58q-55 -1 -79 27q-20 24 -20 58q0 6 1 12z" />
<glyph unicode="y" horiz-adv-x="1053" d="M132 723l55 161q27 77 60.5 110t100.5 33q42 0 74 -19.5t53.5 -51.5t40 -91t30.5 -117.5t27 -152.5l13 -81q115 251 281 413q100 100 195 100q51 0 73 -28q19 -25 19 -59v-10q-3 -40 -28 -73t-69 -33q-35 0 -50 20.5t-13 50.5q3 52 53 98h-5q-41 -3 -91 -37 q-83 -62 -176.5 -186t-179.5 -319l-71 -276q-12 -48 -14 -73t9.5 -41t34 -21t67.5 -7l-8 -33q-83 5 -205 5q-136 0 -216 -5l8 33q86 4 117 28.5t53 113.5l79 304q-50 457 -155 457q-29 0 -47.5 -17.5t-31.5 -59.5l-47 -136h-36z" />
<glyph unicode="z" horiz-adv-x="1080" d="M-67.5 9.5q-1.5 10.5 5 23.5t20 26.5t39 28.5t59.5 28l451 373h-188l11 33h217l446 370q-149 -89 -286 -89q-70 0 -176.5 46t-177.5 46q-55 0 -83.5 -28.5t-28.5 -80.5q0 -97 119 -120l-7 -33q-74 13 -124.5 58.5t-50.5 132.5q0 89 54.5 146t145.5 57q45 0 86 -18t73 -44 l64 -52t72 -44t83 -18q63 0 115 17.5t130 56.5q39 55 80 81q23 15 41 15q14 0 24 -9q8 -7 9.5 -17t-5 -23t-20.5 -26.5t-39 -28.5t-59 -28l-442 -367h191l-13 -33h-218l-454 -377q151 90 286 90q70 0 176 -46.5t177 -46.5q55 0 83.5 28.5t28.5 80.5q0 98 -119 121l7 33 q74 -13 124.5 -59t50.5 -133q0 -89 -54.5 -146t-145.5 -57q-45 0 -86 18t-73 44t-64 52.5t-72 44.5t-83 18q-63 0 -113.5 -17.5t-130.5 -57.5q-39 -55 -81 -81q-24 -15 -41 -15q-14 0 -24 9q-8 7 -9.5 17.5z" />
<glyph unicode="{" horiz-adv-x="505" d="M44 -96.5q4 43.5 11.5 79.5t20.5 88q54 221 54 304q-1 50 -19.5 72.5t-57.5 24.5h-8l5 30h8q53 4 88.5 41t66.5 118.5t71 241.5q39 154 87 237t115 117.5t173 34.5l-8 -32q-58 -1 -88.5 -23t-60 -95.5t-69.5 -238.5q-26 -106 -64 -183.5t-84.5 -123t-91 -70t-99.5 -39.5 q58 -17 94 -51.5t50.5 -73.5t15 -93.5t-7 -98t-21.5 -99.5q-50 -205 -48 -268q0 -48 22 -64t72 -18l-8 -32q-55 0 -96 10.5t-66 27.5t-39 46.5t-18 58t0 72z" />
<glyph unicode="|" horiz-adv-x="525" d="M246 -322v1739h66v-1739h-66z" />
<glyph unicode="}" horiz-adv-x="505" d="M-152 -311l8 32q58 1 88.5 23t60 95.5t69.5 238.5q26 106 64 183.5t84.5 123t91 70t99.5 39.5q-58 17 -94 51.5t-50.5 73.5t-15 93.5t7 98t21.5 99.5q50 205 48 268q0 48 -22 64t-72 18l8 32q55 0 96 -10.5t66 -27.5t39 -46.5t18 -58t0 -72t-11.5 -79.5t-20.5 -88 q-54 -220 -54 -304q1 -50 19.5 -72.5t57.5 -24.5h8l-5 -30h-8q-53 -4 -88.5 -41t-66.5 -118.5t-71 -241.5q-39 -154 -87 -237t-115 -117.5t-173 -34.5z" />
<glyph unicode="~" horiz-adv-x="1071" d="M112 433q38 82 110 129t163 47q56 0 110 -20t90.5 -44t87.5 -44t103 -20q107 0 167 95l23 -8q-38 -83 -109.5 -130t-162.5 -47q-46 0 -89.5 13.5t-77.5 32.5t-67.5 37.5t-74 32t-83.5 13.5q-106 0 -167 -96z" />
<glyph unicode="&#xa1;" horiz-adv-x="411" d="M-53 -208q14 49 113 306.5t145 428.5l30 -5q-41 -165 -84.5 -433.5t-59.5 -334.5q-15 -64 -74 -64q-48 0 -66 29.5t-4 72.5zM177 766q8 44 43 75t77 31q43 0 67 -31t16 -75q-9 -44 -44 -74.5t-78 -30.5q-42 0 -66 31t-15 74z" />
<glyph unicode="&#xa2;" horiz-adv-x="715" d="M64 324q0 129 51 258t151.5 237t232.5 162l51 188h36l-46 -173q95 31 202 31q90 0 145.5 -28.5t98.5 -78.5q42 -52 91 84h36q-52 -150 -107 -380h-36q9 72 9 127q0 66 -26 118q-30 63 -90 96t-136 33q-104 0 -208 -78l-227 -841q62 -72 170 -72q76 0 157 33.5t141 94.5 q43 45 74 101t74 160h37q-78 -283 -98 -396h-36q5 38 5 56q0 66 -55 28q-76 -53 -147 -80t-166 -27q-92 0 -175 26l-81 -302h-37l86 317q-177 82 -177 306zM230 291q0 -106 38 -174l204 762q-108 -104 -175 -268t-67 -320z" />
<glyph unicode="&#xa3;" horiz-adv-x="1030" d="M-40 -7q0 26 45.5 62.5t118.5 58.5q69 134 117 312l17 65h-161l10 33h161l34 132h-160l10 33h159l9 36q132 491 499 491q84 0 128 -33t44 -80q0 -42 -29.5 -73t-72.5 -31q-26 0 -43 15t-17 41q0 33 22 59.5t57 36.5q0 16 -28.5 28t-63.5 12q-39 0 -72.5 -8.5t-60.5 -28 t-48.5 -40.5t-41 -55.5t-33 -62t-28.5 -73t-23.5 -75.5t-22.5 -80l-22 -79h225l-10 -33h-223l-35 -132h223l-10 -33h-223q-33 -102 -91.5 -180.5t-164.5 -184.5q111 52 208 52q55 0 155 -37t164 -37q57 0 99.5 34t42.5 88q0 93 -107 114l10 28q72 -12 119.5 -55t47.5 -113 q0 -84 -72 -153.5t-165 -69.5q-42 0 -82 16t-71.5 38.5t-63.5 45.5t-72.5 39t-83.5 16q-68 0 -144 -33q-42 -58 -83.5 -90t-74.5 -32q-22 0 -22 16z" />
<glyph unicode="&#xa4;" horiz-adv-x="939" d="M158 766l47 47l72 -73q85 69 197 69q110 0 197 -71l74 75l46 -47l-74 -74q69 -88 69 -197q0 -111 -69 -196l72 -71l-46 -48l-72 73q-90 -70 -197 -70q-113 0 -197 68l-71 -71l-47 48l70 71q-69 85 -69 196q0 112 71 199zM228 495q0 -103 72.5 -177t173.5 -74 q100 0 172 74t72 177q0 102 -72 177.5t-172 75.5q-101 0 -173.5 -75t-72.5 -178z" />
<glyph unicode="&#xa5;" horiz-adv-x="1161" d="M173 889l55 160q26 77 60.5 110t101.5 33q45 0 81 -18.5t63 -56.5t47 -86.5t36 -120t27 -144.5t22 -171q120 302 308 490q107 107 195 107q51 0 73.5 -28t19.5 -69q-3 -39 -28.5 -72.5t-69.5 -33.5q-66 0 -62 71q3 52 52 98h-4q-46 -3 -91 -37q-87 -62 -187 -202 t-192 -361l-16 -67h233l-8 -34h-233l-25 -99h229l-8 -33h-229l-38 -150q-22 -91 -5 -114.5t102 -27.5l-8 -33q-83 5 -205 5q-136 0 -216 -5l8 33q86 4 117 28.5t53 113.5l38 150h-233l8 33h233l25 99h-229l8 34h229l19 69q-62 542 -194 542q-29 0 -47.5 -18t-31.5 -60 l-46 -135h-37z" />
<glyph unicode="&#xa6;" horiz-adv-x="531" d="M249 -322v860h66v-860h-66zM249 634v783h66v-783h-66z" />
<glyph unicode="&#xa7;" horiz-adv-x="839" d="M-21 -157q0 43 32 77.5t78 34.5q32 0 51.5 -17.5t19.5 -48.5q0 -40 -27 -68.5t-69 -40.5q10 -31 55.5 -45t90.5 -14t84.5 11.5t74 36.5t55 70t20.5 105q0 16 -3.5 32t-8 29t-15 29t-17 26.5t-22.5 27.5t-23.5 25t-27 25.5t-27 23.5t-29.5 24.5t-28 23.5q-90 76 -131 131 t-41 125q0 105 73.5 189t192.5 143q-71 79 -71 168q0 135 109 230.5t254 95.5q53 0 103.5 -14t90 -49.5t39.5 -85.5q0 -46 -32 -81.5t-80 -35.5q-32 0 -51.5 18.5t-19.5 50.5q0 38 27.5 66t68.5 40q-10 33 -54 46t-92 13q-44 0 -83 -11.5t-74 -35.5t-56 -68.5t-21 -104.5 q0 -29 12 -59.5t24.5 -50.5t44.5 -52.5t45.5 -43.5t54.5 -46q13 -11 20 -17q90 -76 131 -131t41 -125q0 -105 -73.5 -189t-192.5 -143q71 -79 71 -168q0 -135 -109 -230.5t-254 -95.5q-39 0 -77.5 8.5t-74 25.5t-57.5 48t-22 72zM178 558q0 -60 43.5 -113t130.5 -125 q103 -85 132 -115q177 94 177 218q0 33 -13 63.5t-41.5 62.5t-52 54t-67.5 58q-103 85 -132 115q-177 -94 -177 -218z" />
<glyph unicode="&#xa9;" horiz-adv-x="1526" d="M145 634q0 134 52 255.5t140.5 210t210 140.5t255.5 52t255.5 -52t209.5 -140.5t140 -210t52 -255.5q0 -179 -88 -330t-239 -239t-330 -88q-134 0 -255.5 52t-210 140t-140.5 209.5t-52 255.5zM211 634q0 -123 47 -235t126 -192.5t189 -128.5t230 -48t229.5 48t189 128.5 t126 192.5t46.5 235q0 164 -79 303.5t-215 220.5t-297 81q-120 0 -230 -48t-189 -129t-126 -193t-47 -235zM444 624q0 204 107.5 331.5t279.5 127.5q108 0 187.5 -50t79.5 -130q0 -43 -24 -67.5t-63 -24.5t-65 24t-26 65q0 34 19 56t50 28q-16 30 -58.5 50t-89.5 20 q-44 0 -83.5 -20t-75.5 -64.5t-57 -128t-21 -197.5q0 -200 66.5 -293t170.5 -93q72 0 136 40.5t105 129.5l31 -12q-29 -94 -105.5 -161.5t-196.5 -67.5q-159 0 -263 118.5t-104 318.5z" />
<glyph unicode="&#xaa;" horiz-adv-x="749" d="M160 727q0 95 62.5 205t158.5 185t184 75q23 0 41.5 -13.5t21.5 -43.5l11 43q70 0 116 14l-155 -482q-22 -68 18 -68q27 0 46.5 23.5t40.5 82.5l15 41h31l-29 -80q-24 -64 -59.5 -89t-89.5 -25q-53 0 -66.5 34t10.5 121l20 71q-108 -226 -248 -226q-60 0 -94.5 36.5 t-34.5 95.5zM281 713q0 -77 41 -77q54 0 133 102.5t126 235.5l33 116q-3 63 -41 63q-42 0 -93 -37.5t-95 -97.5t-74 -142t-30 -163z" />
<glyph unicode="&#xab;" horiz-adv-x="853" d="M40 401v4q237 168 455 467h30q-54 -114 -163.5 -259t-198.5 -210q68 -56 138 -189t95 -237h-29q-146 284 -327 424zM312 401v4q239 169 456 467h30q-49 -111 -160 -257t-202 -212q68 -56 138 -189t95 -237h-30q-146 284 -327 424z" />
<glyph unicode="&#xac;" horiz-adv-x="1091" d="M155 562l15 49h828l-98 -338h-59l82 289h-768z" />
<glyph unicode="&#xad;" horiz-adv-x="832" />
<glyph unicode="&#xae;" horiz-adv-x="1154" d="M208 831q0 125 62 231t168 168t231 62t231 -62t168 -168t62 -231t-62 -231t-168 -168t-231 -62t-231 62t-168 168t-62 231zM277 831q0 -168 114.5 -288t277.5 -120t277 120t114 288t-114 288t-277 120t-277.5 -120t-114.5 -288zM462 581v25q24 2 31 13t7 48v362 q0 39 -7 50t-31 13v24q10 -1 80 -1q35 0 85 0.5t57 0.5q94 0 142.5 -33.5t48.5 -96.5q0 -111 -162 -140q66 -7 95 -29.5t38 -66.5l19 -94q1 -4 2.5 -11.5t2.5 -12t3 -10t3.5 -9t4.5 -6.5t6.5 -4.5t7.5 -1.5q13 0 20 13l16 -11q-17 -35 -72 -35q-42 0 -62 16t-29 52l-28 122 q-10 47 -34.5 61t-110.5 15v-167q0 -37 7 -48t31 -13v-25q-9 0 -39 1t-46 1q-19 0 -48.5 -1t-37.5 -1zM595 861h39q81 0 110 28.5t29 80.5q0 64 -26.5 93t-89.5 29q-39 0 -50.5 -10.5t-11.5 -44.5v-176z" />
<glyph unicode="&#xb0;" horiz-adv-x="553" d="M231 1156q0 89 58.5 143.5t141.5 54.5t142.5 -54.5t59.5 -143.5q0 -90 -59 -145t-143 -55q-83 0 -141.5 55t-58.5 145zM273 1154q0 -81 48 -125.5t110 -44.5t111 44.5t49 125.5q0 79 -49.5 125.5t-110.5 46.5t-109.5 -46.5t-48.5 -125.5z" />
<glyph unicode="&#xb1;" horiz-adv-x="1048" d="M-15 0l15 50h827l-14 -50h-828zM124 562l15 49h385l110 390h60l-111 -390h383l-15 -49h-383l-111 -389h-59l111 389h-385z" />
<glyph unicode="&#xb2;" horiz-adv-x="563" d="M134 722l6 29q16 11 61.5 40t81.5 52t82.5 59.5t78 68.5t53.5 71.5t22 75.5q0 71 -90 71q-101 0 -176 -86l-23 18q43 53 109 88.5t147 35.5q130 0 130 -94q0 -49 -40 -102.5t-85 -88.5t-114.5 -84t-92.5 -67q28 0 104 -14.5t104 -14.5q35 0 56.5 15.5t21.5 41.5 q0 18 -7 32l28 11q17 -26 17 -53q0 -48 -40 -80t-109 -32q-35 0 -95.5 14t-100.5 16q-63 3 -129 -23z" />
<glyph unicode="&#xb3;" horiz-adv-x="538" d="M71 571v30q100 8 190 39t153 89t63 130q0 83 -91 86q-33 -17 -52 -17q-30 0 -30 22q0 31 73 28q71 26 112 65.5t41 89.5q0 61 -77 61q-100 0 -192 -92l-23 19q41 49 109.5 86.5t146.5 37.5q60 0 96 -22.5t36 -66.5q0 -64 -74 -116.5t-156 -71.5q78 -3 129 -32t51 -90 q0 -59 -49.5 -110t-126.5 -84.5t-162.5 -54t-166.5 -26.5z" />
<glyph unicode="&#xb6;" horiz-adv-x="1057" d="M59 378q0 162 61 308.5t164 253t248 169t305 62.5q47 0 129 -2.5t119 -2.5q66 0 99 3l-8 -31q-77 -4 -109 -29t-48 -83l-230 -872q-123 -464 -404 -464q-76 0 -122 23t-47 67q0 37 29.5 69t68.5 32q26 0 40 -14t14 -37q0 -54 -57 -106q24 -8 57 -8q82 0 130 67t87 196 q-526 0 -526 399zM235 580q-1 -4 57.5 -9t169 -9.5t228.5 -4.5q-32 -123 -53 -243.5t-23.5 -170.5t0.5 -64q267 997 270 1004q-6 0 -34 -63t-70.5 -180t-75.5 -236q-116 0 -230.5 -5t-176 -10.5t-62.5 -8.5z" />
<glyph unicode="&#xb7;" horiz-adv-x="426" d="M92 415q7 43 43 74t78 31q43 0 67 -30.5t16 -74.5q-9 -44 -44.5 -75t-78.5 -31q-42 0 -66 31.5t-15 74.5z" />
<glyph unicode="&#xb9;" horiz-adv-x="417" d="M183 1047l9 32q74 22 136.5 55t86.5 50.5t75 59.5h32l-167 -522h-97l133 414q-103 -61 -208 -89z" />
<glyph unicode="&#xba;" horiz-adv-x="678" d="M177 768q0 50 14 106.5t44 113t70 102t98.5 74t123.5 28.5q89 0 139.5 -43.5t50.5 -129.5q0 -63 -23.5 -135t-65.5 -137t-111 -108t-150 -43q-89 0 -139.5 43.5t-50.5 128.5zM296 722q0 -96 79 -96q58 0 111 69t82.5 171t29.5 201q0 96 -79 96q-58 0 -111 -69.5 t-82.5 -171t-29.5 -200.5z" />
<glyph unicode="&#xbb;" horiz-adv-x="852" d="M25 -23q54 115 163 259.5t198 209.5q-68 56 -137.5 188.5t-94.5 237.5h29q147 -288 327 -426v-2q-237 -168 -455 -467h-30zM297 -23q54 114 163.5 259t198.5 210q-68 56 -138 189t-95 237h30q147 -288 327 -426v-2q-239 -169 -456 -467h-30z" />
<glyph unicode="&#xbc;" horiz-adv-x="1000" d="M-188 -69l1375 1430l25 -22l-1376 -1430zM183 1047l9 31q74 22 136.5 55t86.5 51t76 60h31l-167 -522h-97l133 414q-103 -61 -208 -89zM233 53l8 30l496 441h31l-117 -403h92l-18 -68h-94l-56 -193h-86l56 193h-312zM329 121h236l81 280z" />
<glyph unicode="&#xbd;" horiz-adv-x="1000" d="M-188 -69l1375 1430l25 -22l-1376 -1430zM183 1047l9 32q74 22 136.5 54.5t87.5 51t75 59.5h31l-167 -522h-97l133 414q-103 -61 -208 -89zM393 0l7 30q14 10 75 48t103 68t93.5 73.5t79 88.5t27.5 88q0 71 -89 71q-103 0 -177 -85l-23 18q43 53 109 88.5t147 35.5 q130 0 130 -95q0 -49 -40 -102.5t-85 -88.5t-114.5 -84t-92.5 -67q27 0 104 -14.5t104 -14.5q34 0 56 15.5t22 42.5q0 17 -7 31l29 12q16 -24 16 -53q0 -48 -40 -80.5t-109 -32.5q-35 0 -95.5 14t-100.5 16q-59 3 -129 -23z" />
<glyph unicode="&#xbe;" horiz-adv-x="1166" d="M-23 -69l1376 1430l24 -22l-1375 -1430zM71 571v30q100 8 190 39t153 89t63 130q0 83 -91 86q-33 -17 -52 -17q-30 0 -30 22q0 31 73 28q71 26 112 65.5t41 89.5q0 61 -77 61q-100 0 -192 -92l-23 19q41 49 109.5 86.5t146.5 37.5q60 0 96 -22.5t36 -66.5 q0 -64 -74 -116.5t-156 -71.5q78 -3 129 -32t51 -90q0 -59 -49.5 -110t-126.5 -84.5t-162.5 -54t-166.5 -26.5zM398 53l8 30l496 441h31l-117 -403h92l-18 -68h-94l-56 -193h-86l56 193h-312zM494 121h236l81 280z" />
<glyph unicode="&#xbf;" horiz-adv-x="736" d="M-69 -149q0 72 56 129.5t216 164.5q19 14 58.5 41t52.5 37t39 30.5t35 31.5t21.5 28t16 33.5t3.5 35.5q0 46 -31.5 79t-80.5 33q-52 0 -102.5 -20t-70.5 -53q16 -2 30 -19.5t13 -38.5q0 -26 -21.5 -46.5t-53.5 -20.5q-56 0 -56 57q0 49 47.5 89t114 60t132.5 20 q86 0 138 -41.5t52 -117.5q0 -21 -3.5 -39.5t-14 -38t-18.5 -33.5t-28 -33.5t-31 -30.5t-40 -32.5t-41.5 -31t-48 -34.5t-49.5 -35q-118 -78 -162.5 -123.5t-44.5 -101.5q0 -48 38 -80t106 -32q64 0 126.5 21t76.5 60q-17 4 -30 24.5t-11 47.5q2 33 27 54t60 21q33 0 50 -19 t17 -51q0 -80 -105.5 -133t-241.5 -53q-110 0 -175.5 41.5t-65.5 119.5zM332 766q7 43 43 74.5t78 31.5q43 0 66.5 -31t15.5 -75q-9 -44 -44 -74.5t-78 -30.5q-42 0 -66 31t-15 74z" />
<glyph unicode="&#xc0;" horiz-adv-x="1038" d="M-144 0l9 33q75 17 165 144l712 1001h24l66 -1039q5 -54 28.5 -79t52.5 -27l-6 -33q-75 5 -180 5q-126 0 -198 -5l6 33q84 4 115 31t27 108l-15 271h-406l-124 -175q-60 -85 -72.5 -137t17 -74t100.5 -24l-9 -33q-102 5 -188 5q-66 0 -124 -5zM279 476h382l-28 500z M515 1513.5q-7 24.5 9 52.5q23 22 54.5 14.5t54.5 -32.5q23 -24 78.5 -108.5t109.5 -152.5l-17 -17q-68 55 -151.5 114t-109.5 84q-21 21 -28 45.5z" />
<glyph unicode="&#xc1;" horiz-adv-x="1038" d="M-144 0l9 33q75 17 165 144l712 1001h24l66 -1039q5 -54 28.5 -79t52.5 -27l-6 -33q-75 5 -180 5q-126 0 -198 -5l6 33q84 4 115 31t27 108l-15 271h-406l-124 -175q-60 -85 -72.5 -137t17 -74t100.5 -24l-9 -33q-102 5 -188 5q-66 0 -124 -5zM279 476h382l-28 500z M732 1293q90 61 188 137t135 98q18 11 39 16t41.5 -0.5t28.5 -24.5q10 -24 -7.5 -48.5t-46.5 -40.5q-35 -21 -151.5 -64t-215.5 -91z" />
<glyph unicode="&#xc2;" horiz-adv-x="1038" d="M-144 0l9 33q75 17 165 144l712 1001h24l66 -1039q5 -54 28.5 -79t52.5 -27l-6 -33q-75 5 -180 5q-126 0 -198 -5l6 33q84 4 115 31t27 108l-15 271h-406l-124 -175q-60 -85 -72.5 -137t17 -74t100.5 -24l-9 -33q-102 5 -188 5q-66 0 -124 -5zM279 476h382l-28 500z M426 1298q119 37 222 94.5t166 120.5h30q46 -79 98.5 -131t131.5 -84l-7 -23q-31 6 -58 12t-53 15.5t-41 14.5t-40.5 17.5t-32 15.5t-35.5 19t-32 18q-187 -78 -341 -112z" />
<glyph unicode="&#xc3;" horiz-adv-x="1038" d="M-144 0l9 33q75 17 165 144l712 1001h24l66 -1039q5 -54 28.5 -79t52.5 -27l-6 -33q-75 5 -180 5q-126 0 -198 -5l6 33q84 4 115 31t27 108l-15 271h-406l-124 -175q-60 -85 -72.5 -137t17 -74t100.5 -24l-9 -33q-102 5 -188 5q-66 0 -124 -5zM279 476h382l-28 500z M479 1308q36 86 94 128t121 42q50 0 91.5 -19t64.5 -41t57 -41t72 -19q64 0 116 95l30 -8q-36 -86 -94 -128t-121 -42q-50 0 -91.5 19t-65 41.5t-57.5 41.5t-72 19q-62 0 -115 -96z" />
<glyph unicode="&#xc4;" horiz-adv-x="1038" d="M-144 0l9 33q75 17 165 144l712 1001h24l66 -1039q5 -54 28.5 -79t52.5 -27l-6 -33q-75 5 -180 5q-126 0 -198 -5l6 33q84 4 115 31t27 108l-15 271h-406l-124 -175q-60 -85 -72.5 -137t17 -74t100.5 -24l-9 -33q-102 5 -188 5q-66 0 -124 -5zM279 476h382l-28 500z M492 1359q0 39 34 73.5t77 34.5q34 0 58 -24t24 -59q0 -42 -33 -75.5t-77 -33.5q-37 0 -60 24t-23 60zM842 1359q0 39 34 73.5t77 34.5q35 0 59 -24.5t24 -58.5q0 -42 -33.5 -75.5t-77.5 -33.5q-37 0 -60 24t-23 60z" />
<glyph unicode="&#xc5;" horiz-adv-x="1038" d="M-144 0l9 33q75 17 165 144l712 1001h24l66 -1039q5 -54 28.5 -79t52.5 -27l-6 -33q-75 5 -180 5q-126 0 -198 -5l6 33q84 4 115 31t27 108l-15 271h-406l-124 -175q-60 -85 -72.5 -137t17 -74t100.5 -24l-9 -33q-102 5 -188 5q-66 0 -124 -5zM279 476h382l-28 500z M624 1358q0 72 52.5 121t127.5 49q61 0 101.5 -36.5t40.5 -95.5q0 -69 -56 -120t-129 -51q-60 0 -98.5 36t-38.5 97zM667 1359q0 -47 30 -73t71 -26q53 0 94 39.5t41 97.5q0 45 -31.5 70.5t-73.5 25.5q-51 0 -91 -41t-40 -93z" />
<glyph unicode="&#xc6;" horiz-adv-x="1481" d="M-132 0v33q51 3 142 106l819 926q2 42 -21.5 55.5t-89.5 15.5l9 33q89 -3 191 -3l98 111h43l-99 -111q97 -2 241 -2q238 0 342 5q-12 -33 -63 -195q-16 -54 -22 -102h-36q26 145 -4 202t-130 57h-153q-83 0 -113 -24t-53 -113l-104 -389h179q35 0 62 13.5t47.5 44 t32 55.5t28.5 71h36q-18 -55 -56 -201q-18 -68 -43 -202h-36q0 16 4 46.5t4 50t-5 41t-25.5 33.5t-55.5 14h-180l-106 -396q-22 -91 -5 -114t100 -23h170q117 0 177.5 62t117.5 230h37q-11 -28 -35 -119q-25 -86 -43 -211q-112 5 -373 5q-314 0 -476 -5l7 33 q86 4 116.5 28.5t53.5 113.5l106 396h-270l-368 -416q-21 -24 -32 -40t-14.5 -31.5t6 -24.5t33 -16t62.5 -10v-33q-50 5 -142 5q-68 0 -111 -5zM464 605h248l104 389q1 1 1.5 5.5t1.5 6.5z" />
<glyph unicode="&#xc7;" horiz-adv-x="1106" d="M84 365q0 112 34.5 229.5t100 224t152 190.5t199.5 133.5t234 49.5q67 0 117 -17t73.5 -36t55.5 -54q15 -16 29 -13.5t29 26t33 71.5h35q-55 -144 -106 -380h-36q24 163 -17 245q-30 61 -88 95t-128 34q-103 0 -206 -78.5t-178 -199.5t-121.5 -270t-46.5 -285 q0 -159 63 -241t174 -82q72 0 153 33.5t141 94.5q42 42 73.5 99.5t74.5 161.5h37q-78 -283 -98 -396h-36q5 38 5 56q0 36 -14 41.5t-41 -13.5q-55 -36 -88 -54.5t-88.5 -35t-118.5 -17.5l-47 -96q39 12 85 12q41 0 64 -17.5t23 -48.5q0 -34 -24.5 -61.5t-63 -43.5t-81 -24.5 t-84.5 -8.5q-107 0 -165 37l12 25q53 -22 132 -22q22 0 48 4t54.5 13t47 26.5t18.5 40.5q0 40 -62 40q-31 0 -68 -12l66 136q-172 9 -264.5 107.5t-92.5 280.5z" />
<glyph unicode="&#xc8;" horiz-adv-x="1007" d="M-58 0l8 33q86 4 116.5 28.5t54.5 113.5l219 819q10 38 13 61t0 39.5t-18 24.5t-35 11.5t-56 5.5l9 33q162 -5 479 -5q231 0 328 5q-40 -112 -62 -195q-20 -65 -24 -102h-38q17 96 13.5 153.5t-40.5 81.5t-124 24h-121q-85 0 -115.5 -23.5t-54.5 -113.5l-104 -390h109 q34 0 63 11.5t47.5 26.5t36 43t25.5 45.5t21.5 50t17.5 42.5h38q-24 -74 -68 -235q-20 -72 -52 -235h-38q1 8 3 23q15 100 3 136q-21 58 -107 59h-109l-106 -396q-13 -47 -15 -72.5t10.5 -41t35 -19.5t67.5 -4h120q78 0 130 14t92 51t67.5 88.5t59.5 138.5h38 q-17 -43 -37 -119q-24 -82 -44 -211q-112 5 -378 5q-318 0 -478 -5zM457.5 1513.5q-7.5 24.5 8.5 52.5q23 22 54.5 14.5t54.5 -32.5q23 -24 78.5 -108.5t109.5 -152.5l-16 -17q-68 55 -151.5 114t-109.5 84q-21 21 -28.5 45.5z" />
<glyph unicode="&#xc9;" horiz-adv-x="1007" d="M-58 0l8 33q86 4 116.5 28.5t54.5 113.5l219 819q10 38 13 61t0 39.5t-18 24.5t-35 11.5t-56 5.5l9 33q162 -5 479 -5q231 0 328 5q-40 -112 -62 -195q-20 -65 -24 -102h-38q17 96 13.5 153.5t-40.5 81.5t-124 24h-121q-85 0 -115.5 -23.5t-54.5 -113.5l-104 -390h109 q34 0 63 11.5t47.5 26.5t36 43t25.5 45.5t21.5 50t17.5 42.5h38q-24 -74 -68 -235q-20 -72 -52 -235h-38q1 8 3 23q15 100 3 136q-21 58 -107 59h-109l-106 -396q-13 -47 -15 -72.5t10.5 -41t35 -19.5t67.5 -4h120q78 0 130 14t92 51t67.5 88.5t59.5 138.5h38 q-17 -43 -37 -119q-24 -82 -44 -211q-112 5 -378 5q-318 0 -478 -5zM674 1293q90 61 188.5 137t135.5 98q18 11 39 16t41.5 -0.5t28.5 -24.5q10 -24 -8 -48.5t-47 -40.5q-35 -21 -151.5 -64t-215.5 -91z" />
<glyph unicode="&#xca;" horiz-adv-x="1007" d="M-58 0l8 33q86 4 116.5 28.5t54.5 113.5l219 819q10 38 13 61t0 39.5t-18 24.5t-35 11.5t-56 5.5l9 33q162 -5 479 -5q231 0 328 5q-40 -112 -62 -195q-20 -65 -24 -102h-38q17 96 13.5 153.5t-40.5 81.5t-124 24h-121q-85 0 -115.5 -23.5t-54.5 -113.5l-104 -390h109 q34 0 63 11.5t47.5 26.5t36 43t25.5 45.5t21.5 50t17.5 42.5h38q-24 -74 -68 -235q-20 -72 -52 -235h-38q1 8 3 23q15 100 3 136q-21 58 -107 59h-109l-106 -396q-13 -47 -15 -72.5t10.5 -41t35 -19.5t67.5 -4h120q78 0 130 14t92 51t67.5 88.5t59.5 138.5h38 q-17 -43 -37 -119q-24 -82 -44 -211q-112 5 -378 5q-318 0 -478 -5zM368 1298q119 37 222 94.5t166 120.5h30q46 -79 98.5 -131t131.5 -84l-7 -23q-31 6 -58 12t-53 15.5t-41 14.5t-40.5 17.5t-32 15.5t-35.5 19t-32 18q-188 -79 -340 -112z" />
<glyph unicode="&#xcb;" horiz-adv-x="1007" d="M-58 0l8 33q86 4 116.5 28.5t54.5 113.5l219 819q10 38 13 61t0 39.5t-18 24.5t-35 11.5t-56 5.5l9 33q162 -5 479 -5q231 0 328 5q-40 -112 -62 -195q-20 -65 -24 -102h-38q17 96 13.5 153.5t-40.5 81.5t-124 24h-121q-85 0 -115.5 -23.5t-54.5 -113.5l-104 -390h109 q34 0 63 11.5t47.5 26.5t36 43t25.5 45.5t21.5 50t17.5 42.5h38q-24 -74 -68 -235q-20 -72 -52 -235h-38q1 8 3 23q15 100 3 136q-21 58 -107 59h-109l-106 -396q-13 -47 -15 -72.5t10.5 -41t35 -19.5t67.5 -4h120q78 0 130 14t92 51t67.5 88.5t59.5 138.5h38 q-17 -43 -37 -119q-24 -82 -44 -211q-112 5 -378 5q-318 0 -478 -5zM434 1359q0 39 34 73.5t77 34.5q35 0 59 -24.5t24 -58.5q0 -42 -33.5 -75.5t-77.5 -33.5q-37 0 -60 24t-23 60zM785 1359q0 39 33.5 73.5t76.5 34.5q35 0 59 -24.5t24 -58.5q0 -42 -33.5 -75.5 t-77.5 -33.5q-37 0 -59.5 23.5t-22.5 60.5z" />
<glyph unicode="&#xcc;" horiz-adv-x="563" d="M-55 0l9 33q84 4 114 28.5t53 113.5l218 819q22 91 4.5 114.5t-102.5 27.5l8 33q75 -5 210 -5q124 0 212 5l-9 -33q-87 -4 -117 -28.5t-53 -113.5l-218 -819q-22 -91 -4.5 -114.5t102.5 -27.5l-7 -33q-85 5 -210 5q-130 0 -210 -5zM255.5 1513.5q-7.5 24.5 8.5 52.5 q23 22 54.5 14.5t54.5 -32.5t79 -109t110 -152l-17 -17q-68 55 -151.5 114t-109.5 84q-21 21 -28.5 45.5z" />
<glyph unicode="&#xcd;" horiz-adv-x="563" d="M-55 0l9 33q84 4 114 28.5t53 113.5l218 819q22 91 4.5 114.5t-102.5 27.5l8 33q75 -5 210 -5q124 0 212 5l-9 -33q-87 -4 -117 -28.5t-53 -113.5l-218 -819q-22 -91 -4.5 -114.5t102.5 -27.5l-7 -33q-85 5 -210 5q-130 0 -210 -5zM472 1293q90 61 188.5 137t135.5 98 q18 11 39 16t41.5 -0.5t28.5 -24.5q10 -24 -7.5 -48.5t-46.5 -40.5q-35 -21 -151.5 -64t-215.5 -91z" />
<glyph unicode="&#xce;" horiz-adv-x="563" d="M-55 0l9 33q84 4 114 28.5t53 113.5l218 819q22 91 4.5 114.5t-102.5 27.5l8 33q75 -5 210 -5q124 0 212 5l-9 -33q-87 -4 -117 -28.5t-53 -113.5l-218 -819q-22 -91 -4.5 -114.5t102.5 -27.5l-7 -33q-85 5 -210 5q-130 0 -210 -5zM167 1298q119 37 222 94.5t166 120.5 h30q47 -80 99 -131.5t130 -83.5l-6 -23q-27 5 -53 11.5t-44.5 11.5t-41 14t-34 13t-33.5 15t-28.5 14.5t-30 16.5t-28.5 16q-188 -79 -340 -112z" />
<glyph unicode="&#xcf;" horiz-adv-x="563" d="M-55 0l9 33q84 4 114 28.5t53 113.5l218 819q22 91 4.5 114.5t-102.5 27.5l8 33q75 -5 210 -5q124 0 212 5l-9 -33q-87 -4 -117 -28.5t-53 -113.5l-218 -819q-22 -91 -4.5 -114.5t102.5 -27.5l-7 -33q-85 5 -210 5q-130 0 -210 -5zM233 1359q0 39 34 73.5t77 34.5 q34 0 58 -24t24 -59q0 -42 -33.5 -75.5t-77.5 -33.5q-37 0 -59.5 23.5t-22.5 60.5zM583 1359q0 39 34 73.5t77 34.5q34 0 58 -24t24 -59q0 -42 -33 -75.5t-77 -33.5q-37 0 -60 24t-23 60z" />
<glyph unicode="&#xd0;" horiz-adv-x="1197" d="M-50 0l5 33q82 4 112.5 29t53.5 113l102 388h-190l10 41h192l102 390q25 82 8.5 111t-104.5 31l5 33q114 -7 202 -5q190 5 249 5q232 0 349 -92.5t117 -272.5q0 -123 -37.5 -242t-108 -220t-165 -178t-217 -120.5t-255.5 -43.5q-22 0 -107.5 2.5t-123.5 2.5 q-127 0 -199 -5zM260 108q-3 -22 3.5 -42.5t30 -28t66.5 -7.5q154 0 278.5 67t203 180.5t120.5 259.5t42 309q0 150 -83.5 222t-269.5 72q-75 0 -106 -28t-54 -114l-103 -394h335l-10 -41h-336l-103 -391q-11 -42 -14 -64z" />
<glyph unicode="&#xd1;" horiz-adv-x="1271" d="M-119 -36q0 45 26.5 81t71.5 36q34 0 48 -19t14 -45q0 -56 -53 -105h5q85 3 137 86q111 173 271 996q19 91 -0.5 114.5t-116.5 27.5l8 33q58 -5 147 -5q71 0 134 5l312 -913q159 709 278 884q73 105 178 105q99 0 99 -84q0 -46 -26 -82.5t-71 -36.5q-34 0 -48.5 19.5 t-14.5 45.5q0 55 53 104h-5q-82 -3 -136 -85q-73 -109 -152 -383.5t-180 -750.5h-36l-376 1063q-180 -925 -291 -1073q-37 -49 -77 -76.5t-100 -27.5q-99 0 -99 86zM583 1308q36 86 94 128t121 42q50 0 91.5 -19t64.5 -41t57 -41t72 -19q64 0 116 95l30 -8q-36 -86 -94 -128 t-121 -42q-50 0 -91.5 19t-65 41.5t-57.5 41.5t-72 19q-62 0 -115 -96z" />
<glyph unicode="&#xd2;" horiz-adv-x="1204" d="M89 373q0 110 31 225t92 221t143 189.5t192 133.5t231 50q184 0 287 -104t103 -294q0 -109 -31.5 -224t-93 -220.5t-143.5 -189t-192.5 -133.5t-230.5 -50q-184 0 -286 103.5t-102 292.5zM264 352q0 -160 63 -252.5t165 -92.5q93 0 185.5 71.5t160.5 184.5t110.5 261 t42.5 294q0 160 -63 252.5t-165 92.5q-93 0 -185.5 -71.5t-160.5 -184.5t-110.5 -261t-42.5 -294zM577.5 1513.5q-7.5 24.5 8.5 52.5q23 22 54.5 14.5t54.5 -32.5t79 -109t110 -152l-17 -17q-68 55 -151.5 114t-109.5 84q-21 21 -28.5 45.5z" />
<glyph unicode="&#xd3;" horiz-adv-x="1204" d="M89 373q0 110 31 225t92 221t143 189.5t192 133.5t231 50q184 0 287 -104t103 -294q0 -109 -31.5 -224t-93 -220.5t-143.5 -189t-192.5 -133.5t-230.5 -50q-184 0 -286 103.5t-102 292.5zM264 352q0 -160 63 -252.5t165 -92.5q93 0 185.5 71.5t160.5 184.5t110.5 261 t42.5 294q0 160 -63 252.5t-165 92.5q-93 0 -185.5 -71.5t-160.5 -184.5t-110.5 -261t-42.5 -294zM794 1293q90 61 188.5 137t135.5 98q18 11 39 16t41.5 -0.5t28.5 -24.5q10 -24 -7.5 -48.5t-46.5 -40.5q-35 -21 -151.5 -64t-215.5 -91z" />
<glyph unicode="&#xd4;" horiz-adv-x="1204" d="M89 373q0 110 31 225t92 221t143 189.5t192 133.5t231 50q184 0 287 -104t103 -294q0 -109 -31.5 -224t-93 -220.5t-143.5 -189t-192.5 -133.5t-230.5 -50q-184 0 -286 103.5t-102 292.5zM264 352q0 -160 63 -252.5t165 -92.5q93 0 185.5 71.5t160.5 184.5t110.5 261 t42.5 294q0 160 -63 252.5t-165 92.5q-93 0 -185.5 -71.5t-160.5 -184.5t-110.5 -261t-42.5 -294zM489 1298q119 37 222 94.5t166 120.5h30q47 -80 99 -131.5t130 -83.5l-6 -23q-27 5 -53 11.5t-44.5 11.5t-41 14t-34 13t-33.5 15t-28.5 14.5t-30 16.5t-28.5 16 q-188 -79 -340 -112z" />
<glyph unicode="&#xd5;" horiz-adv-x="1204" d="M89 373q0 110 31 225t92 221t143 189.5t192 133.5t231 50q184 0 287 -104t103 -294q0 -109 -31.5 -224t-93 -220.5t-143.5 -189t-192.5 -133.5t-230.5 -50q-184 0 -286 103.5t-102 292.5zM264 352q0 -160 63 -252.5t165 -92.5q93 0 185.5 71.5t160.5 184.5t110.5 261 t42.5 294q0 160 -63 252.5t-165 92.5q-93 0 -185.5 -71.5t-160.5 -184.5t-110.5 -261t-42.5 -294zM542 1308q36 86 93.5 128t120.5 42q50 0 91.5 -19t65 -41t57.5 -41t72 -19q64 0 116 95l30 -8q-36 -86 -94 -128t-121 -42q-50 0 -91.5 19t-65 41.5t-57.5 41.5t-72 19 q-63 0 -116 -96z" />
<glyph unicode="&#xd6;" horiz-adv-x="1204" d="M89 373q0 110 31 225t92 221t143 189.5t192 133.5t231 50q184 0 287 -104t103 -294q0 -109 -31.5 -224t-93 -220.5t-143.5 -189t-192.5 -133.5t-230.5 -50q-184 0 -286 103.5t-102 292.5zM264 352q0 -160 63 -252.5t165 -92.5q93 0 185.5 71.5t160.5 184.5t110.5 261 t42.5 294q0 160 -63 252.5t-165 92.5q-93 0 -185.5 -71.5t-160.5 -184.5t-110.5 -261t-42.5 -294zM555 1359q0 39 34 73.5t77 34.5q34 0 58 -24t24 -59q0 -42 -33 -75.5t-77 -33.5q-37 0 -60 24t-23 60zM905 1359q0 39 34 73.5t77 34.5q34 0 58 -24t24 -59q0 -42 -33 -75.5 t-77 -33.5q-37 0 -60 24t-23 60z" />
<glyph unicode="&#xd7;" horiz-adv-x="847" d="M45 301l368 285l-207 289l43 30l204 -289l374 292l27 -36l-375 -291l206 -285l-41 -30l-205 286l-370 -288z" />
<glyph unicode="&#xd8;" horiz-adv-x="1204" d="M-33 -97l197 209q-75 100 -75 261q0 110 31 225t92 221t143 189.5t192 133.5t231 50q199 0 302 -120l195 205l25 -22l-200 -210q68 -97 68 -251q0 -109 -31.5 -224t-93 -220.5t-143.5 -189t-192.5 -133.5t-230.5 -50q-187 0 -289 107l-193 -205zM264 352q0 -67 13 -132 l696 749q-26 93 -81 143.5t-129 50.5q-93 0 -185.5 -71.5t-160.5 -184.5t-110.5 -261t-42.5 -294zM289 178q27 -81 80.5 -126t122.5 -45q93 0 185.5 71.5t160.5 184.5t110.5 261t42.5 294q0 63 -10 110z" />
<glyph unicode="&#xd9;" horiz-adv-x="1126" d="M137 229q-1 99 41 247l137 518q22 91 5 114.5t-102 27.5l10 33q75 -5 213 -5q118 0 206 5l-9 -33q-87 -4 -117.5 -28.5t-53.5 -113.5l-145 -546q-19 -75 -28.5 -130.5t-7 -111.5t21.5 -91.5t62.5 -57.5t110.5 -22q90 0 161 31.5t121 91t84.5 133.5t59.5 171l135 516 q23 89 -1 121.5t-109 36.5l8 33q63 -5 167 -5q92 0 155 5l-8 -33q-85 -4 -118.5 -35t-56.5 -123l-129 -497q-60 -230 -162 -351q-61 -71 -149.5 -112t-189.5 -41q-176 0 -254 89q-57 64 -58 163zM544.5 1513.5q-7.5 24.5 8.5 52.5q23 22 54.5 14.5t54.5 -32.5t79 -109 t110 -152l-17 -17q-68 55 -151.5 114t-109.5 84q-21 21 -28.5 45.5z" />
<glyph unicode="&#xda;" horiz-adv-x="1126" d="M137 229q-1 99 41 247l137 518q22 91 5 114.5t-102 27.5l10 33q75 -5 213 -5q118 0 206 5l-9 -33q-87 -4 -117.5 -28.5t-53.5 -113.5l-145 -546q-19 -75 -28.5 -130.5t-7 -111.5t21.5 -91.5t62.5 -57.5t110.5 -22q90 0 161 31.5t121 91t84.5 133.5t59.5 171l135 516 q23 89 -1 121.5t-109 36.5l8 33q63 -5 167 -5q92 0 155 5l-8 -33q-85 -4 -118.5 -35t-56.5 -123l-129 -497q-60 -230 -162 -351q-61 -71 -149.5 -112t-189.5 -41q-176 0 -254 89q-57 64 -58 163zM761 1293q90 61 188.5 137t135.5 98q18 11 39 16t41.5 -0.5t28.5 -24.5 q10 -24 -7.5 -48.5t-46.5 -40.5q-35 -21 -151.5 -64t-215.5 -91z" />
<glyph unicode="&#xdb;" horiz-adv-x="1126" d="M137 229q-1 99 41 247l137 518q22 91 5 114.5t-102 27.5l10 33q75 -5 213 -5q118 0 206 5l-9 -33q-87 -4 -117.5 -28.5t-53.5 -113.5l-145 -546q-19 -75 -28.5 -130.5t-7 -111.5t21.5 -91.5t62.5 -57.5t110.5 -22q90 0 161 31.5t121 91t84.5 133.5t59.5 171l135 516 q23 89 -1 121.5t-109 36.5l8 33q63 -5 167 -5q92 0 155 5l-8 -33q-85 -4 -118.5 -35t-56.5 -123l-129 -497q-60 -230 -162 -351q-61 -71 -149.5 -112t-189.5 -41q-176 0 -254 89q-57 64 -58 163zM456 1298q119 37 222 94.5t166 120.5h30q47 -80 99 -131.5t130 -83.5l-6 -23 q-27 5 -53 11.5t-44.5 11.5t-41 14t-34 13t-33.5 15t-28.5 14.5t-30 16.5t-28.5 16q-188 -79 -340 -112z" />
<glyph unicode="&#xdc;" horiz-adv-x="1126" d="M137 229q-1 99 41 247l137 518q22 91 5 114.5t-102 27.5l10 33q75 -5 213 -5q118 0 206 5l-9 -33q-87 -4 -117.5 -28.5t-53.5 -113.5l-145 -546q-19 -75 -28.5 -130.5t-7 -111.5t21.5 -91.5t62.5 -57.5t110.5 -22q90 0 161 31.5t121 91t84.5 133.5t59.5 171l135 516 q23 89 -1 121.5t-109 36.5l8 33q63 -5 167 -5q92 0 155 5l-8 -33q-85 -4 -118.5 -35t-56.5 -123l-129 -497q-60 -230 -162 -351q-61 -71 -149.5 -112t-189.5 -41q-176 0 -254 89q-57 64 -58 163zM522 1359q0 39 34 73.5t77 34.5q34 0 58 -24t24 -59q0 -42 -33.5 -75.5 t-77.5 -33.5q-37 0 -59.5 23.5t-22.5 60.5zM872 1359q0 39 34 73.5t77 34.5q34 0 58 -24t24 -59q0 -42 -33 -75.5t-77 -33.5q-37 0 -60 24t-23 60z" />
<glyph unicode="&#xdd;" horiz-adv-x="1106" d="M160 889l55 160q26 77 60.5 110t101.5 33q45 0 80.5 -18t62.5 -56.5t47.5 -87t36 -120t26.5 -144.5t22 -171q120 301 309 490q107 107 195 107q51 0 73.5 -28t19.5 -69q-3 -39 -28.5 -72.5t-69.5 -33.5q-35 0 -50 20.5t-13 50.5q3 52 53 98h-5q-46 -3 -91 -37 q-86 -62 -186 -201.5t-192 -361.5l-96 -383q-12 -48 -14 -73t10 -41t34.5 -21t67.5 -7l-8 -33q-83 5 -205 5q-137 0 -217 -5l9 33q86 4 117 28.5t53 113.5l97 385q-10 84 -20 151t-27 143.5t-36.5 128t-48 85.5t-61.5 34q-29 0 -47.5 -18t-31.5 -60l-46 -135h-37zM755 1293 q90 61 188.5 137t135.5 98q18 11 39 16t41.5 -0.5t28.5 -24.5q10 -24 -8 -48.5t-47 -40.5q-35 -21 -151.5 -64t-215.5 -91z" />
<glyph unicode="&#xde;" horiz-adv-x="999" d="M-55 0l9 33q84 4 114 28.5t53 113.5l218 819q22 91 4.5 114.5t-102.5 27.5l8 33q75 -5 210 -5q124 0 212 5l-9 -33q-87 -4 -117 -28.5t-53 -113.5l-13 -48q116 4 175 4q162 0 245.5 -67t83.5 -183q0 -128 -78 -230.5t-220.5 -160.5t-324.5 -58h-66l-20 -76 q-22 -91 -4.5 -114.5t102.5 -27.5l-7 -33q-85 5 -210 5q-130 0 -210 -5zM304 284h73q119 0 206 34t137 96t73 139.5t23 173.5q0 98 -50 144.5t-160 46.5q-75 0 -135 -5z" />
<glyph unicode="&#xdf;" horiz-adv-x="1012" d="M-61 -311l254 934q56 208 184 306t300 98q120 0 186.5 -45t66.5 -128q0 -101 -93.5 -182t-238.5 -120q145 -14 211 -82t66 -164q0 -92 -57 -168t-151 -118.5t-201 -42.5q-79 0 -129 23.5t-50 68.5q0 36 27.5 66t67.5 30q30 0 48.5 -20t18.5 -48q0 -52 -64 -82 q39 -12 84 -12q108 0 178 90t70 213q0 95 -42 163t-110 68q-72 -20 -86 -20q-33 0 -33 20q0 14 14.5 23.5t30.5 9.5q51 0 84 -15q95 32 145.5 115t50.5 184q0 149 -127 149q-37 0 -72 -12.5t-73 -42t-71.5 -88.5t-55.5 -143l-273 -1004q-93 -3 -160 -24z" />
<glyph unicode="&#xe0;" horiz-adv-x="1043" d="M-137 0v33q73 20 180 154l664 829h25l102 -877q7 -54 29.5 -79t51.5 -27l-8 -33q-75 5 -180 5q-127 0 -199 -5l9 33q86 4 118.5 31.5t23.5 107.5l-25 205h-419l-113 -141q-32 -40 -48.5 -73.5t-16.5 -61.5t25 -46t75 -22v-33q-55 5 -150 5q-97 0 -144 -5zM261 410h390 l-51 419zM480.5 1348.5q-7.5 24.5 8.5 52.5q24 22 54.5 14t54.5 -33q23 -24 78.5 -108.5t109.5 -152.5l-16 -16q-68 55 -151.5 114t-109.5 84q-21 21 -28.5 45.5z" />
<glyph unicode="&#xe1;" horiz-adv-x="1043" d="M-137 0v33q73 20 180 154l664 829h25l102 -877q7 -54 29.5 -79t51.5 -27l-8 -33q-75 5 -180 5q-127 0 -199 -5l9 33q86 4 118.5 31.5t23.5 107.5l-25 205h-419l-113 -141q-32 -40 -48.5 -73.5t-16.5 -61.5t25 -46t75 -22v-33q-55 5 -150 5q-97 0 -144 -5zM261 410h390 l-51 419zM598 1128q90 61 188.5 137t135.5 98q18 11 39 16t41.5 -0.5t28.5 -24.5q10 -24 -8 -48.5t-47 -40.5q-35 -21 -151.5 -64t-215.5 -91z" />
<glyph unicode="&#xe2;" horiz-adv-x="1043" d="M-137 0v33q73 20 180 154l664 829h25l102 -877q7 -54 29.5 -79t51.5 -27l-8 -33q-75 5 -180 5q-127 0 -199 -5l9 33q86 4 118.5 31.5t23.5 107.5l-25 205h-419l-113 -141q-32 -40 -48.5 -73.5t-16.5 -61.5t25 -46t75 -22v-33q-55 5 -150 5q-97 0 -144 -5zM261 410h390 l-51 419zM395 1133q119 37 222 94.5t166 120.5h30q47 -80 99 -131.5t130 -83.5l-6 -23q-27 5 -53 11.5t-44.5 11.5t-41 14t-34 13t-33.5 15t-28.5 14.5t-30 16.5t-28.5 16q-188 -79 -340 -112z" />
<glyph unicode="&#xe3;" horiz-adv-x="1043" d="M-137 0v33q73 20 180 154l664 829h25l102 -877q7 -54 29.5 -79t51.5 -27l-8 -33q-75 5 -180 5q-127 0 -199 -5l9 33q86 4 118.5 31.5t23.5 107.5l-25 205h-419l-113 -141q-32 -40 -48.5 -73.5t-16.5 -61.5t25 -46t75 -22v-33q-55 5 -150 5q-97 0 -144 -5zM261 410h390 l-51 419zM403 1143q36 86 94 128t121 42q50 0 91.5 -19t64.5 -41.5t57 -41.5t72 -19q63 0 116 96l30 -8q-36 -86 -94 -128t-121 -42q-50 0 -91.5 19t-65 41t-57.5 41t-72 19q-63 0 -115 -95z" />
<glyph unicode="&#xe4;" horiz-adv-x="1043" d="M-137 0v33q73 20 180 154l664 829h25l102 -877q7 -54 29.5 -79t51.5 -27l-8 -33q-75 5 -180 5q-127 0 -199 -5l9 33q86 4 118.5 31.5t23.5 107.5l-25 205h-419l-113 -141q-32 -40 -48.5 -73.5t-16.5 -61.5t25 -46t75 -22v-33q-55 5 -150 5q-97 0 -144 -5zM261 410h390 l-51 419zM456 1194q0 39 34 73t77 34q35 0 58.5 -23.5t23.5 -58.5q0 -42 -33.5 -75.5t-77.5 -33.5q-37 0 -59.5 23.5t-22.5 60.5zM806 1194q0 39 34 73t77 34q35 0 58.5 -23.5t23.5 -58.5q0 -42 -33 -75.5t-77 -33.5q-37 0 -60 24t-23 60z" />
<glyph unicode="&#xe5;" horiz-adv-x="1043" d="M-137 0v33q73 20 180 154l664 829h25l102 -877q7 -54 29.5 -79t51.5 -27l-8 -33q-75 5 -180 5q-127 0 -199 -5l9 33q86 4 118.5 31.5t23.5 107.5l-25 205h-419l-113 -141q-32 -40 -48.5 -73.5t-16.5 -61.5t25 -46t75 -22v-33q-55 5 -150 5q-97 0 -144 -5zM261 410h390 l-51 419zM604 1192q0 72 52.5 121.5t127.5 49.5q61 0 102 -37t41 -96q0 -69 -56 -119.5t-129 -50.5q-60 0 -99 35.5t-39 96.5zM647 1194q0 -47 30 -73t71 -26q53 0 94.5 39.5t41.5 97.5q0 44 -32 70t-74 26q-51 0 -91 -41t-40 -93z" />
<glyph unicode="&#xe6;" horiz-adv-x="1502" d="M-124 0v33q51 3 142 106l730 826q-11 2 -64 6l8 33q14 -1 89 -1l79 89h43l-79 -91q130 -2 342 -2q238 0 342 5q-12 -33 -63 -195q-15 -49 -21 -102h-37q26 145 -3.5 202t-129.5 57h-154q-83 0 -112.5 -24t-52.5 -113l-83 -307h174q29 0 52.5 11t39.5 25.5t31.5 43 t24 48.5t22.5 57h36q-17 -51 -56 -202q-19 -70 -43 -201h-36q0 16 4 46.5t4 50t-5 41t-25.5 33.5t-55.5 14h-175l-84 -314q-22 -91 -5.5 -114t99.5 -23h170q117 0 178 62.5t118 229.5h36q-11 -28 -35 -119q-25 -86 -43 -211q-112 5 -373 5q-314 0 -476 -5l7 33 q86 4 116.5 28.5t53.5 113.5l84 314h-320l-296 -334q-21 -24 -32 -40t-14.5 -31.5t6 -24.5t33 -16t62.5 -10v-33q-50 5 -142 5q-68 0 -111 -5zM400 522h299l82 307q26 99 -1 122z" />
<glyph unicode="&#xe7;" horiz-adv-x="1098" d="M69 324q0 98 30 198t89 190t139 161t189.5 112.5t230.5 41.5q90 0 145.5 -28.5t98.5 -78.5q42 -52 91 84h36q-52 -150 -107 -380h-37q10 80 10 127q0 66 -26 118q-30 63 -90 96t-136 33q-98 0 -192 -66.5t-159.5 -169.5t-105.5 -229t-40 -242q0 -137 62 -210.5t170 -73.5 q76 0 157 33.5t141 94.5q43 45 74 101t74 160h37q-78 -283 -98 -396h-36q5 38 5 56q0 66 -55 28q-74 -51 -141 -78t-154 -29l-47 -96q39 12 85 12q41 0 64 -17.5t23 -48.5q0 -45 -42 -77.5t-97.5 -46.5t-112.5 -14q-108 0 -166 37l12 25q53 -22 132 -22q22 0 48 4t54.5 13 t47 26.5t18.5 40.5q0 40 -62 40q-30 0 -68 -12l66 136q-170 8 -263.5 97.5t-93.5 249.5z" />
<glyph unicode="&#xe8;" horiz-adv-x="1022" d="M-56 0l8 33q86 4 116.5 28.5t53.5 113.5l177 654q10 38 12.5 61t-0.5 39.5t-17.5 24.5t-34.5 11.5t-56 5.5l8 33q155 -5 461 -5q250 0 359 5q-33 -84 -60 -178q-21 -82 -28 -119h-38q30 147 -3.5 203t-158.5 56h-120q-86 0 -116.5 -24t-53.5 -113l-83 -307h154 q33 0 61 14t46 31t35.5 47.5t25 47t18.5 45.5h38q-35 -106 -59 -202q-1 -4 -11.5 -43t-18 -74t-15.5 -84h-38q4 29 5.5 45.5t1.5 41.5t-6.5 39.5t-18.5 29.5t-35.5 22t-55.5 7h-137l-84 -314q-12 -48 -14 -73t9.5 -40.5t34 -19.5t67.5 -4h121q133 0 207.5 64t135.5 228h38 q-25 -72 -39 -135q-20 -64 -42 -195q-116 5 -388 5q-305 0 -462 -5zM420.5 1348.5q-7.5 24.5 8.5 52.5q24 22 54.5 14t54.5 -33q23 -25 79 -109t110 -152l-17 -16q-68 55 -151.5 114t-109.5 84q-21 21 -28.5 45.5z" />
<glyph unicode="&#xe9;" horiz-adv-x="1022" d="M-56 0l8 33q86 4 116.5 28.5t53.5 113.5l177 654q10 38 12.5 61t-0.5 39.5t-17.5 24.5t-34.5 11.5t-56 5.5l8 33q155 -5 461 -5q250 0 359 5q-33 -84 -60 -178q-21 -82 -28 -119h-38q30 147 -3.5 203t-158.5 56h-120q-86 0 -116.5 -24t-53.5 -113l-83 -307h154 q33 0 61 14t46 31t35.5 47.5t25 47t18.5 45.5h38q-35 -106 -59 -202q-1 -4 -11.5 -43t-18 -74t-15.5 -84h-38q4 29 5.5 45.5t1.5 41.5t-6.5 39.5t-18.5 29.5t-35.5 22t-55.5 7h-137l-84 -314q-12 -48 -14 -73t9.5 -40.5t34 -19.5t67.5 -4h121q133 0 207.5 64t135.5 228h38 q-25 -72 -39 -135q-20 -64 -42 -195q-116 5 -388 5q-305 0 -462 -5zM538 1128q90 61 188.5 137t135.5 98q18 11 39 16t41.5 -0.5t28.5 -24.5q10 -24 -7.5 -48.5t-46.5 -40.5q-35 -21 -151.5 -64t-215.5 -91z" />
<glyph unicode="&#xea;" horiz-adv-x="1022" d="M-56 0l8 33q86 4 116.5 28.5t53.5 113.5l177 654q10 38 12.5 61t-0.5 39.5t-17.5 24.5t-34.5 11.5t-56 5.5l8 33q155 -5 461 -5q250 0 359 5q-33 -84 -60 -178q-21 -82 -28 -119h-38q30 147 -3.5 203t-158.5 56h-120q-86 0 -116.5 -24t-53.5 -113l-83 -307h154 q33 0 61 14t46 31t35.5 47.5t25 47t18.5 45.5h38q-35 -106 -59 -202q-1 -4 -11.5 -43t-18 -74t-15.5 -84h-38q4 29 5.5 45.5t1.5 41.5t-6.5 39.5t-18.5 29.5t-35.5 22t-55.5 7h-137l-84 -314q-12 -48 -14 -73t9.5 -40.5t34 -19.5t67.5 -4h121q133 0 207.5 64t135.5 228h38 q-25 -72 -39 -135q-20 -64 -42 -195q-116 5 -388 5q-305 0 -462 -5zM335 1133q119 37 222 94.5t166 120.5h30q46 -79 98.5 -131t131.5 -84l-7 -23q-31 6 -58 12t-53 15.5t-41 14.5t-40.5 17.5t-32 15.5t-35.5 19t-32 18q-188 -79 -340 -112z" />
<glyph unicode="&#xeb;" horiz-adv-x="1022" d="M-56 0l8 33q86 4 116.5 28.5t53.5 113.5l177 654q10 38 12.5 61t-0.5 39.5t-17.5 24.5t-34.5 11.5t-56 5.5l8 33q155 -5 461 -5q250 0 359 5q-33 -84 -60 -178q-21 -82 -28 -119h-38q30 147 -3.5 203t-158.5 56h-120q-86 0 -116.5 -24t-53.5 -113l-83 -307h154 q33 0 61 14t46 31t35.5 47.5t25 47t18.5 45.5h38q-35 -106 -59 -202q-1 -4 -11.5 -43t-18 -74t-15.5 -84h-38q4 29 5.5 45.5t1.5 41.5t-6.5 39.5t-18.5 29.5t-35.5 22t-55.5 7h-137l-84 -314q-12 -48 -14 -73t9.5 -40.5t34 -19.5t67.5 -4h121q133 0 207.5 64t135.5 228h38 q-25 -72 -39 -135q-20 -64 -42 -195q-116 5 -388 5q-305 0 -462 -5zM396 1194q0 39 34 73t77 34q35 0 59 -24t24 -58q0 -42 -33.5 -75.5t-77.5 -33.5q-37 0 -60 24t-23 60zM746 1194q0 39 34 73t77 34q35 0 59 -24t24 -58q0 -42 -33.5 -75.5t-77.5 -33.5q-37 0 -60 24 t-23 60z" />
<glyph unicode="&#xec;" horiz-adv-x="568" d="M-51 0l8 33q84 4 114 28.5t53 113.5l173 654q22 91 5 114.5t-102 27.5l8 33q75 -5 210 -5q123 0 211 5l-8 -33q-87 -4 -117 -28.5t-53 -113.5l-174 -654q-22 -91 -4.5 -114.5t102.5 -27.5l-7 -33q-85 5 -209 5q-130 0 -210 -5zM197.5 1348.5q-7.5 24.5 8.5 52.5 q24 22 54.5 14t54.5 -33q23 -25 79 -109t110 -152l-17 -16q-68 55 -151.5 114t-109.5 84q-21 21 -28.5 45.5z" />
<glyph unicode="&#xed;" horiz-adv-x="568" d="M-51 0l8 33q84 4 114 28.5t53 113.5l173 654q22 91 5 114.5t-102 27.5l8 33q75 -5 210 -5q123 0 211 5l-8 -33q-87 -4 -117 -28.5t-53 -113.5l-174 -654q-22 -91 -4.5 -114.5t102.5 -27.5l-7 -33q-85 5 -209 5q-130 0 -210 -5zM315 1128q90 61 188.5 137t135.5 98 q18 11 39 16t41.5 -0.5t28.5 -24.5q10 -24 -7.5 -48.5t-46.5 -40.5q-35 -21 -151.5 -64t-215.5 -91z" />
<glyph unicode="&#xee;" horiz-adv-x="568" d="M-51 0l8 33q84 4 114 28.5t53 113.5l173 654q22 91 5 114.5t-102 27.5l8 33q75 -5 210 -5q123 0 211 5l-8 -33q-87 -4 -117 -28.5t-53 -113.5l-174 -654q-22 -91 -4.5 -114.5t102.5 -27.5l-7 -33q-85 5 -209 5q-130 0 -210 -5zM112 1133q119 37 222 94.5t166 120.5h30 q46 -79 98.5 -131t131.5 -84l-7 -23q-31 6 -58 12t-53 15.5t-41 14.5t-40.5 17.5t-32 15.5t-35.5 19t-32 18q-188 -79 -340 -112z" />
<glyph unicode="&#xef;" horiz-adv-x="568" d="M-51 0l8 33q84 4 114 28.5t53 113.5l173 654q22 91 5 114.5t-102 27.5l8 33q75 -5 210 -5q123 0 211 5l-8 -33q-87 -4 -117 -28.5t-53 -113.5l-174 -654q-22 -91 -4.5 -114.5t102.5 -27.5l-7 -33q-85 5 -209 5q-130 0 -210 -5zM173 1194q0 39 34 73t77 34q35 0 59 -24 t24 -58q0 -42 -33.5 -75.5t-77.5 -33.5q-37 0 -60 24t-23 60zM524 1194q0 39 33.5 73t76.5 34q35 0 59 -24t24 -58q0 -42 -33.5 -75.5t-77.5 -33.5q-37 0 -59.5 23.5t-22.5 60.5z" />
<glyph unicode="&#xf0;" horiz-adv-x="1195" d="M-46 0l5 33q82 4 112 28.5t53 113.5l82 311h-180l10 41h180l81 302q26 82 8.5 111.5t-104.5 30.5l5 33q114 -7 202 -5q190 5 249 5q232 0 349 -92.5t117 -272.5q0 -136 -52.5 -253t-147 -202.5t-234 -134.5t-306.5 -49q-22 0 -107.5 2.5t-123.5 2.5q-126 0 -198 -5z M262 89.5q-1 -31.5 22 -45.5t79 -14q155 0 272 47.5t188.5 135.5t106.5 204.5t35 262.5q0 150 -84 222t-270 72q-75 0 -106 -28t-54 -114l-81 -305h347l-10 -41h-347l-83 -314q-14 -51 -15 -82.5z" />
<glyph unicode="&#xf1;" horiz-adv-x="1316" d="M-121 -36q0 45 26.5 81t71.5 36q34 0 48.5 -19t14.5 -45q0 -56 -53 -105h3q80 3 139 86q120 177 281 894q4 47 -22.5 62t-105.5 17l9 33q58 -5 147 -5q70 0 133 5l314 -778q159 596 276 748q79 106 178 106t99 -84q0 -46 -26 -82.5t-71 -36.5q-34 0 -48.5 19t-14.5 45 q0 27 15.5 55.5t37.5 48.5h-5q-76 -2 -135 -84q-145 -205 -332 -969h-37l-376 905q-177 -774 -291 -915q-26 -32 -45.5 -51t-55 -36t-76.5 -17q-99 0 -99 86zM528 1143q36 86 94 128t121 42q50 0 91.5 -19t65 -41.5t57.5 -41.5t72 -19q63 0 116 96l29 -8q-36 -86 -93.5 -128 t-120.5 -42q-50 0 -91.5 19t-65 41t-57.5 41t-72 19q-64 0 -116 -95z" />
<glyph unicode="&#xf2;" horiz-adv-x="1208" d="M76 375q0 88 30 180t88 176t136.5 150.5t183.5 106t219 39.5q186 0 296.5 -101t110.5 -297q0 -88 -30 -180t-88.5 -176t-136.5 -150.5t-183.5 -106t-219.5 -39.5q-186 0 -296 100.5t-110 297.5zM253 352q0 -179 65 -262t179 -83q131 0 240 96t167.5 243t58.5 306 q0 179 -65.5 262.5t-179.5 83.5q-80 0 -153 -36.5t-129 -100t-97.5 -145.5t-63.5 -176t-22 -188zM534.5 1348.5q-7.5 24.5 8.5 52.5q24 22 54.5 14t54.5 -33q23 -25 79 -109t110 -152l-17 -16q-68 55 -151.5 114t-109.5 84q-21 21 -28.5 45.5z" />
<glyph unicode="&#xf3;" horiz-adv-x="1208" d="M76 375q0 88 30 180t88 176t136.5 150.5t183.5 106t219 39.5q186 0 296.5 -101t110.5 -297q0 -88 -30 -180t-88.5 -176t-136.5 -150.5t-183.5 -106t-219.5 -39.5q-186 0 -296 100.5t-110 297.5zM253 352q0 -179 65 -262t179 -83q131 0 240 96t167.5 243t58.5 306 q0 179 -65.5 262.5t-179.5 83.5q-80 0 -153 -36.5t-129 -100t-97.5 -145.5t-63.5 -176t-22 -188zM652 1128q90 61 188.5 137t135.5 98q18 11 39 16t41.5 -0.5t28.5 -24.5q10 -24 -7.5 -48.5t-46.5 -40.5q-35 -21 -151.5 -64t-215.5 -91z" />
<glyph unicode="&#xf4;" horiz-adv-x="1208" d="M76 375q0 88 30 180t88 176t136.5 150.5t183.5 106t219 39.5q186 0 296.5 -101t110.5 -297q0 -88 -30 -180t-88.5 -176t-136.5 -150.5t-183.5 -106t-219.5 -39.5q-186 0 -296 100.5t-110 297.5zM253 352q0 -179 65 -262t179 -83q131 0 240 96t167.5 243t58.5 306 q0 179 -65.5 262.5t-179.5 83.5q-80 0 -153 -36.5t-129 -100t-97.5 -145.5t-63.5 -176t-22 -188zM449 1133q119 37 222 94.5t166 120.5h30q46 -79 98.5 -131t131.5 -84l-7 -23q-31 6 -58 12t-53 15.5t-41 14.5t-40.5 17.5t-32 15.5t-35.5 19t-32 18q-187 -78 -341 -112z" />
<glyph unicode="&#xf5;" horiz-adv-x="1208" d="M76 375q0 88 30 180t88 176t136.5 150.5t183.5 106t219 39.5q186 0 296.5 -101t110.5 -297q0 -88 -30 -180t-88.5 -176t-136.5 -150.5t-183.5 -106t-219.5 -39.5q-186 0 -296 100.5t-110 297.5zM253 352q0 -179 65 -262t179 -83q131 0 240 96t167.5 243t58.5 306 q0 179 -65.5 262.5t-179.5 83.5q-80 0 -153 -36.5t-129 -100t-97.5 -145.5t-63.5 -176t-22 -188zM457 1143q36 86 94 128t121 42q50 0 91.5 -19t65 -41.5t57.5 -41.5t72 -19q63 0 116 96l29 -8q-36 -86 -93.5 -128t-120.5 -42q-50 0 -91.5 19t-65 41t-57.5 41t-72 19 q-64 0 -116 -95z" />
<glyph unicode="&#xf6;" horiz-adv-x="1208" d="M76 375q0 88 30 180t88 176t136.5 150.5t183.5 106t219 39.5q186 0 296.5 -101t110.5 -297q0 -88 -30 -180t-88.5 -176t-136.5 -150.5t-183.5 -106t-219.5 -39.5q-186 0 -296 100.5t-110 297.5zM253 352q0 -179 65 -262t179 -83q131 0 240 96t167.5 243t58.5 306 q0 179 -65.5 262.5t-179.5 83.5q-80 0 -153 -36.5t-129 -100t-97.5 -145.5t-63.5 -176t-22 -188zM510 1194q0 39 34 73t77 34q35 0 59 -24t24 -58q0 -42 -33.5 -75.5t-77.5 -33.5q-37 0 -60 24t-23 60zM860 1194q0 39 34 73t77 34q35 0 59 -24t24 -58q0 -42 -33.5 -75.5 t-77.5 -33.5q-37 0 -60 24t-23 60z" />
<glyph unicode="&#xf7;" horiz-adv-x="1085" d="M144 562l15 49h827l-15 -49h-827zM415 348q11 38 45.5 64.5t71.5 26.5q38 0 57.5 -27t8.5 -64q-11 -38 -46 -65t-73 -27t-56.5 27t-7.5 65zM552 824q11 38 45.5 64.5t71.5 26.5q38 0 57.5 -27t8.5 -64q-11 -38 -46 -64.5t-73 -26.5t-56.5 26.5t-7.5 64.5z" />
<glyph unicode="&#xf8;" horiz-adv-x="1208" d="M-16 -122l194 208q-102 102 -102 289q0 88 30 180t88 176t136.5 150.5t183.5 106t219 39.5q168 0 271 -79l187 195l25 -22l-185 -196q109 -101 109 -296q0 -88 -30 -180t-88.5 -176t-136.5 -150.5t-183.5 -106t-219.5 -39.5q-170 0 -277 84l-193 -206zM253 352 q0 -103 23 -177l646 699q-58 124 -204 124q-80 0 -153 -36.5t-129 -100t-97.5 -145.5t-63.5 -176t-22 -188zM291 137q58 -130 206 -130q131 0 240 96t167.5 243t58.5 306q0 109 -27 185z" />
<glyph unicode="&#xf9;" horiz-adv-x="1128" d="M135 221.5q-3 87.5 42 254.5l94 353q22 91 4.5 114.5t-102.5 27.5l10 33q75 -5 213 -5q119 0 207 5l-10 -33q-87 -4 -117 -28.5t-53 -113.5l-103 -381q-19 -75 -28.5 -130.5t-7 -111.5t21.5 -91.5t62.5 -57.5t110.5 -22q90 0 161 31.5t121 91t84.5 133.5t59.5 171l94 351 q24 89 -0.5 121.5t-109.5 36.5l8 33q67 -5 167 -5q95 0 155 5l-8 -33q-75 -4 -113 -36.5t-62 -121.5l-88 -332q-60 -230 -162 -351q-61 -71 -149.5 -112t-188.5 -41q-186 0 -255 89q-55 68 -58 155.5zM491.5 1348.5q-7.5 24.5 8.5 52.5q24 22 54.5 14t54.5 -33 q23 -25 79 -109t110 -152l-17 -16q-68 55 -151.5 114t-109.5 84q-21 21 -28.5 45.5z" />
<glyph unicode="&#xfa;" horiz-adv-x="1128" d="M135 221.5q-3 87.5 42 254.5l94 353q22 91 4.5 114.5t-102.5 27.5l10 33q75 -5 213 -5q119 0 207 5l-10 -33q-87 -4 -117 -28.5t-53 -113.5l-103 -381q-19 -75 -28.5 -130.5t-7 -111.5t21.5 -91.5t62.5 -57.5t110.5 -22q90 0 161 31.5t121 91t84.5 133.5t59.5 171l94 351 q24 89 -0.5 121.5t-109.5 36.5l8 33q67 -5 167 -5q95 0 155 5l-8 -33q-75 -4 -113 -36.5t-62 -121.5l-88 -332q-60 -230 -162 -351q-61 -71 -149.5 -112t-188.5 -41q-186 0 -255 89q-55 68 -58 155.5zM609 1128q90 61 188.5 137t135.5 98q18 11 39 16t41.5 -0.5t28.5 -24.5 q10 -24 -7.5 -48.5t-46.5 -40.5q-35 -21 -151.5 -64t-215.5 -91z" />
<glyph unicode="&#xfb;" horiz-adv-x="1128" d="M135 221.5q-3 87.5 42 254.5l94 353q22 91 4.5 114.5t-102.5 27.5l10 33q75 -5 213 -5q119 0 207 5l-10 -33q-87 -4 -117 -28.5t-53 -113.5l-103 -381q-19 -75 -28.5 -130.5t-7 -111.5t21.5 -91.5t62.5 -57.5t110.5 -22q90 0 161 31.5t121 91t84.5 133.5t59.5 171l94 351 q24 89 -0.5 121.5t-109.5 36.5l8 33q67 -5 167 -5q95 0 155 5l-8 -33q-75 -4 -113 -36.5t-62 -121.5l-88 -332q-60 -230 -162 -351q-61 -71 -149.5 -112t-188.5 -41q-186 0 -255 89q-55 68 -58 155.5zM406 1133q119 37 222 94.5t166 120.5h30q46 -79 98.5 -131t131.5 -84 l-7 -23q-31 6 -58 12t-53 15.5t-41 14.5t-40.5 17.5t-32 15.5t-35.5 19t-32 18q-188 -79 -340 -112z" />
<glyph unicode="&#xfc;" horiz-adv-x="1128" d="M135 221.5q-3 87.5 42 254.5l94 353q22 91 4.5 114.5t-102.5 27.5l10 33q75 -5 213 -5q119 0 207 5l-10 -33q-87 -4 -117 -28.5t-53 -113.5l-103 -381q-19 -75 -28.5 -130.5t-7 -111.5t21.5 -91.5t62.5 -57.5t110.5 -22q90 0 161 31.5t121 91t84.5 133.5t59.5 171l94 351 q24 89 -0.5 121.5t-109.5 36.5l8 33q67 -5 167 -5q95 0 155 5l-8 -33q-75 -4 -113 -36.5t-62 -121.5l-88 -332q-60 -230 -162 -351q-61 -71 -149.5 -112t-188.5 -41q-186 0 -255 89q-55 68 -58 155.5zM467 1194q0 39 34 73t77 34q35 0 59 -24t24 -58q0 -42 -33.5 -75.5 t-77.5 -33.5q-37 0 -60 24t-23 60zM818 1194q0 39 33.5 73t76.5 34q35 0 59 -24t24 -58q0 -42 -33.5 -75.5t-77.5 -33.5q-37 0 -59.5 23.5t-22.5 60.5z" />
<glyph unicode="&#xfd;" horiz-adv-x="1053" d="M132 723l55 161q27 77 60.5 110t100.5 33q42 0 74 -19.5t53.5 -51.5t40 -91t30.5 -117.5t27 -152.5l13 -81q115 251 281 413q100 100 195 100q51 0 73 -28t19 -69q-3 -40 -28 -73t-69 -33q-35 0 -50 20.5t-13 50.5q3 52 53 98h-5q-41 -3 -91 -37q-83 -62 -176.5 -186 t-179.5 -319l-71 -276q-12 -48 -14 -73t9.5 -41t34 -21t67.5 -7l-8 -33q-83 5 -205 5q-136 0 -216 -5l8 33q86 4 117 28.5t53 113.5l79 304q-50 457 -155 457q-29 0 -47.5 -17.5t-31.5 -59.5l-47 -136h-36zM568 1128q90 61 188.5 137t135.5 98q18 11 39 16t41.5 -0.5 t28.5 -24.5q10 -24 -8 -48.5t-47 -40.5q-35 -21 -151 -64t-215 -91z" />
<glyph unicode="&#xfe;" horiz-adv-x="976" d="M-51 0l8 33q84 4 114 28.5t53 113.5l173 654q22 91 5 114.5t-102 27.5l8 33q75 -5 210 -5q123 0 211 5l-8 -33q-87 -4 -117 -28.5t-53 -113.5l-7 -25q25 0 78 1t81 1q162 0 245 -58t83 -158q0 -166 -169 -275t-437 -109h-39l-9 -31q-22 -91 -4.5 -114.5t102.5 -27.5 l-7 -33q-85 5 -209 5q-130 0 -210 -5zM294 239h48q115 0 198.5 29t131.5 81.5t70.5 118.5t22.5 148q0 81 -50 120t-160 39q-88 0 -119 -2z" />
<glyph unicode="&#xff;" horiz-adv-x="1053" d="M132 723l55 161q27 77 60.5 110t100.5 33q42 0 74 -19.5t53.5 -51.5t40 -91t30.5 -117.5t27 -152.5l13 -81q115 251 281 413q100 100 195 100q51 0 73 -28t19 -69q-3 -40 -28 -73t-69 -33q-35 0 -50 20.5t-13 50.5q3 52 53 98h-5q-41 -3 -91 -37q-83 -62 -176.5 -186 t-179.5 -319l-71 -276q-12 -48 -14 -73t9.5 -41t34 -21t67.5 -7l-8 -33q-83 5 -205 5q-136 0 -216 -5l8 33q86 4 117 28.5t53 113.5l79 304q-50 457 -155 457q-29 0 -47.5 -17.5t-31.5 -59.5l-47 -136h-36zM426 1194q0 39 34 73t77 34q35 0 58.5 -23.5t23.5 -58.5 q0 -42 -33 -75.5t-77 -33.5q-37 0 -60 24t-23 60zM776 1194q0 39 34 73t77 34q35 0 58.5 -23.5t23.5 -58.5q0 -42 -33 -75.5t-77 -33.5q-37 0 -60 24t-23 60z" />
<glyph unicode="&#x100;" horiz-adv-x="1038" d="M-144 0l9 33q75 17 165 144l712 1001h24l66 -1039q5 -54 28.5 -79t52.5 -27l-6 -33q-75 5 -180 5q-126 0 -198 -5l6 33q84 4 115 31t27 108l-15 271h-406l-124 -175q-60 -85 -72.5 -137t17 -74t100.5 -24l-9 -33q-102 5 -188 5q-66 0 -124 -5zM279 476h382l-28 500z M462 1353l10 41h582l-10 -41h-582z" />
<glyph unicode="&#x101;" horiz-adv-x="1043" d="M-137 0v33q73 20 180 154l664 829h25l102 -877q7 -54 29.5 -79t51.5 -27l-8 -33q-75 5 -180 5q-127 0 -199 -5l9 33q86 4 118.5 31.5t23.5 107.5l-25 205h-419l-113 -141q-32 -40 -48.5 -73.5t-16.5 -61.5t25 -46t75 -22v-33q-55 5 -150 5q-97 0 -144 -5zM261 410h390 l-51 419zM424 1187l10 42h582l-10 -42h-582z" />
<glyph unicode="&#x102;" horiz-adv-x="1038" d="M-144 0l9 33q75 17 165 144l712 1001h24l66 -1039q5 -54 28.5 -79t52.5 -27l-6 -33q-75 5 -180 5q-126 0 -198 -5l6 33q84 4 115 31t27 108l-15 271h-406l-124 -175q-60 -85 -72.5 -137t17 -74t100.5 -24l-9 -33q-102 5 -188 5q-66 0 -124 -5zM279 476h382l-28 500z M515 1483l27 8q42 -50 100 -69.5t151 -19.5q89 0 188.5 25t176.5 71l16 -18q-70 -70 -190.5 -129t-218.5 -59q-102 0 -167 53.5t-83 137.5z" />
<glyph unicode="&#x103;" horiz-adv-x="1043" d="M-137 0v33q73 20 180 154l664 829h25l102 -877q7 -54 29.5 -79t51.5 -27l-8 -33q-75 5 -180 5q-127 0 -199 -5l9 33q86 4 118.5 31.5t23.5 107.5l-25 205h-419l-113 -141q-32 -40 -48.5 -73.5t-16.5 -61.5t25 -46t75 -22v-33q-55 5 -150 5q-97 0 -144 -5zM261 410h390 l-51 419zM439 1318l27 8q42 -50 100 -69.5t151 -19.5q89 0 188.5 25t176.5 71l16 -18q-71 -71 -191 -130t-218 -59q-102 0 -167 54t-83 138z" />
<glyph unicode="&#x104;" horiz-adv-x="1038" d="M-144 0l9 33q75 17 165 144l712 1001h24l66 -1039q5 -54 28.5 -79t52.5 -27l-6 -33q-10 0 -15 2q-74 -23 -128 -67.5t-54 -104.5q0 -61 65 -61q32 0 68 13t59 30l18 -28q-99 -95 -213 -95q-59 0 -90.5 25.5t-31.5 70.5q0 39 24 74.5t64 62.5t80 46.5t84 34.5 q-35 2 -110 2q-126 0 -198 -5l6 33q84 4 115 31t27 108l-15 271h-406l-124 -175q-60 -85 -72.5 -137t17 -74t100.5 -24l-9 -33q-102 5 -188 5q-66 0 -124 -5zM279 476h382l-28 500z" />
<glyph unicode="&#x105;" horiz-adv-x="1043" d="M-137 0v33q73 20 180 154l664 829h25l102 -877q7 -54 29.5 -79t51.5 -27l-8 -33q-8 1 -24.5 1.5t-26.5 1.5q-74 -22 -130.5 -67t-56.5 -106t64 -61q32 0 68 13t59 30l19 -28q-98 -94 -213 -94q-60 0 -91.5 25.5t-31.5 69.5q0 39 24.5 75t65.5 63.5t81 46.5t85 35h-72 q-127 0 -199 -5l9 33q86 4 118.5 31.5t23.5 107.5l-25 205h-419l-113 -141q-32 -40 -48.5 -73.5t-16.5 -61.5t25 -46t75 -22v-33q-55 5 -150 5q-97 0 -144 -5zM261 410h390l-52 419z" />
<glyph unicode="&#x106;" horiz-adv-x="1106" d="M84 365q0 112 34.5 229.5t100 224t152 190.5t199.5 133.5t234 49.5q67 0 117 -17t73.5 -36t55.5 -54q15 -16 29 -13.5t29 26t33 71.5h35q-55 -144 -106 -380h-36q24 163 -17 245q-30 61 -88 95t-128 34q-103 0 -206 -78.5t-178 -199.5t-121.5 -270t-46.5 -285 q0 -159 63 -241t174 -82q72 0 153 33.5t141 94.5q42 42 73.5 99.5t74.5 161.5h37q-78 -283 -98 -396h-36q5 38 5 56q0 36 -14 41.5t-41 -13.5q-58 -37 -91.5 -55.5t-93 -35t-127.5 -16.5q-184 0 -284.5 99t-100.5 289zM791 1293q90 61 188.5 137t135.5 98q18 11 39 16 t41.5 -0.5t28.5 -24.5q10 -24 -8 -48.5t-47 -40.5q-35 -21 -151 -64t-215 -91z" />
<glyph unicode="&#x107;" horiz-adv-x="1098" d="M69 324q0 98 30 198t89 190t139 161t189.5 112.5t230.5 41.5q90 0 145.5 -28.5t98.5 -78.5q42 -52 91 84h36q-52 -150 -107 -380h-37q10 80 10 127q0 66 -26 118q-30 63 -90 96t-136 33q-98 0 -192 -66.5t-159.5 -169.5t-105.5 -229t-40 -242q0 -137 62 -210.5t170 -73.5 q76 0 157 33.5t141 94.5q43 45 74 101t74 160h37q-78 -283 -98 -396h-36q5 38 5 56q0 66 -55 28q-76 -53 -147 -80t-166 -27q-182 0 -283 90.5t-101 256.5zM618 1128q90 61 188 137t135 98q18 11 39 16t41.5 -0.5t28.5 -24.5q10 -24 -7.5 -48.5t-46.5 -40.5 q-35 -21 -151.5 -64t-215.5 -91z" />
<glyph unicode="&#x108;" horiz-adv-x="1106" d="M84 365q0 112 34.5 229.5t100 224t152 190.5t199.5 133.5t234 49.5q67 0 117 -17t73.5 -36t55.5 -54q15 -16 29 -13.5t29 26t33 71.5h35q-55 -144 -106 -380h-36q24 163 -17 245q-30 61 -88 95t-128 34q-103 0 -206 -78.5t-178 -199.5t-121.5 -270t-46.5 -285 q0 -159 63 -241t174 -82q72 0 153 33.5t141 94.5q42 42 73.5 99.5t74.5 161.5h37q-78 -283 -98 -396h-36q5 38 5 56q0 36 -14 41.5t-41 -13.5q-58 -37 -91.5 -55.5t-93 -35t-127.5 -16.5q-184 0 -284.5 99t-100.5 289zM486 1298q119 37 222 94.5t166 120.5h29 q46 -79 98.5 -131t131.5 -84l-7 -23q-31 6 -58 12t-53 15.5t-41 14.5t-40.5 17.5t-32 15.5t-35.5 19t-32 18q-188 -79 -340 -112z" />
<glyph unicode="&#x109;" horiz-adv-x="1098" d="M69 324q0 98 30 198t89 190t139 161t189.5 112.5t230.5 41.5q90 0 145.5 -28.5t98.5 -78.5q42 -52 91 84h36q-52 -150 -107 -380h-37q10 80 10 127q0 66 -26 118q-30 63 -90 96t-136 33q-98 0 -192 -66.5t-159.5 -169.5t-105.5 -229t-40 -242q0 -137 62 -210.5t170 -73.5 q76 0 157 33.5t141 94.5q43 45 74 101t74 160h37q-78 -283 -98 -396h-36q5 38 5 56q0 66 -55 28q-76 -53 -147 -80t-166 -27q-182 0 -283 90.5t-101 256.5zM415 1133q119 37 222 94.5t166 120.5h29q46 -79 98.5 -131t131.5 -84l-7 -23q-31 6 -58 12t-53 15.5t-41 14.5 t-40.5 17.5t-32 15.5t-35.5 19t-32 18q-188 -79 -340 -112z" />
<glyph unicode="&#x10a;" horiz-adv-x="1106" d="M84 365q0 112 34.5 229.5t100 224t152 190.5t199.5 133.5t234 49.5q67 0 117 -17t73.5 -36t55.5 -54q15 -16 29 -13.5t29 26t33 71.5h35q-55 -144 -106 -380h-36q24 163 -17 245q-30 61 -88 95t-128 34q-103 0 -206 -78.5t-178 -199.5t-121.5 -270t-46.5 -285 q0 -159 63 -241t174 -82q72 0 153 33.5t141 94.5q42 42 73.5 99.5t74.5 161.5h37q-78 -283 -98 -396h-36q5 38 5 56q0 36 -14 41.5t-41 -13.5q-58 -37 -91.5 -55.5t-93 -35t-127.5 -16.5q-184 0 -284.5 99t-100.5 289zM768 1363q0 46 36 84.5t86 38.5q38 0 61 -24.5 t23 -62.5q0 -46 -36.5 -85t-86.5 -39q-37 0 -60 25t-23 63z" />
<glyph unicode="&#x10b;" horiz-adv-x="1098" d="M69 324q0 98 30 198t89 190t139 161t189.5 112.5t230.5 41.5q90 0 145.5 -28.5t98.5 -78.5q42 -52 91 84h36q-52 -150 -107 -380h-37q10 80 10 127q0 66 -26 118q-30 63 -90 96t-136 33q-98 0 -192 -66.5t-159.5 -169.5t-105.5 -229t-40 -242q0 -137 62 -210.5t170 -73.5 q76 0 157 33.5t141 94.5q43 45 74 101t74 160h37q-78 -283 -98 -396h-36q5 38 5 56q0 66 -55 28q-76 -53 -147 -80t-166 -27q-182 0 -283 90.5t-101 256.5zM677 1197q0 46 36 85t86 39q38 0 61.5 -24.5t23.5 -62.5q0 -46 -37 -85t-87 -39q-37 0 -60 24.5t-23 62.5z" />
<glyph unicode="&#x10c;" horiz-adv-x="1106" d="M84 365q0 112 34.5 229.5t100 224t152 190.5t199.5 133.5t234 49.5q67 0 117 -17t73.5 -36t55.5 -54q15 -16 29 -13.5t29 26t33 71.5h35q-55 -144 -106 -380h-36q24 163 -17 245q-30 61 -88 95t-128 34q-103 0 -206 -78.5t-178 -199.5t-121.5 -270t-46.5 -285 q0 -159 63 -241t174 -82q72 0 153 33.5t141 94.5q42 42 73.5 99.5t74.5 161.5h37q-78 -283 -98 -396h-36q5 38 5 56q0 36 -14 41.5t-41 -13.5q-58 -37 -91.5 -55.5t-93 -35t-127.5 -16.5q-184 0 -284.5 99t-100.5 289zM570 1503l6 23q27 -5 53 -11.5t44.5 -11.5t41 -14 t34 -13t33.5 -15t28.5 -14.5t30 -16.5t28.5 -16q188 79 340 112l8 -23q-119 -37 -222 -94.5t-166 -120.5h-30q-47 80 -99 131.5t-130 83.5z" />
<glyph unicode="&#x10d;" horiz-adv-x="1098" d="M69 324q0 98 30 198t89 190t139 161t189.5 112.5t230.5 41.5q90 0 145.5 -28.5t98.5 -78.5q42 -52 91 84h36q-52 -150 -107 -380h-37q10 80 10 127q0 66 -26 118q-30 63 -90 96t-136 33q-98 0 -192 -66.5t-159.5 -169.5t-105.5 -229t-40 -242q0 -137 62 -210.5t170 -73.5 q76 0 157 33.5t141 94.5q43 45 74 101t74 160h37q-78 -283 -98 -396h-36q5 38 5 56q0 66 -55 28q-76 -53 -147 -80t-166 -27q-182 0 -283 90.5t-101 256.5zM496 1338l6 23q31 -6 58 -12t53 -15.5t41 -14.5t40.5 -17.5t32 -15.5t35.5 -19t32 -18q187 78 341 112l8 -23 q-119 -37 -222 -94.5t-166 -120.5h-30q-47 80 -99 131.5t-130 83.5z" />
<glyph unicode="&#x10e;" horiz-adv-x="1197" d="M-50 0l5 33q82 4 112.5 29t53.5 113l216 819q25 82 8.5 111t-104.5 31l5 33q114 -7 202 -5q190 5 249 5q232 0 349 -92.5t117 -272.5q0 -123 -37.5 -242t-108 -220t-165 -178t-217 -120.5t-255.5 -43.5q-22 0 -107.5 2.5t-123.5 2.5q-127 0 -199 -5zM260 108 q-3 -22 3.5 -42.5t30 -28t66.5 -7.5q154 0 278.5 67t203 180.5t120.5 259.5t42 309q0 150 -83.5 222t-269.5 72q-75 0 -106 -28t-54 -114l-217 -826q-11 -42 -14 -64zM436 1503l7 23q31 -6 58 -12t53 -15.5t41 -14.5t40.5 -17.5t32 -15.5t35.5 -19t32 -18q188 79 340 112 l8 -23q-119 -37 -222 -94.5t-166 -120.5h-29q-46 79 -98.5 131t-131.5 84z" />
<glyph unicode="&#x10f;" horiz-adv-x="1195" d="M-46 0l5 33q82 4 112 28.5t53 113.5l173 654q26 82 8.5 111.5t-104.5 30.5l5 33q114 -7 202 -5q190 5 249 5q232 0 349 -92.5t117 -272.5q0 -136 -52.5 -253t-147 -202.5t-234 -134.5t-306.5 -49q-22 0 -107.5 2.5t-123.5 2.5q-126 0 -198 -5zM262 89.5 q-1 -31.5 22 -45.5t79 -14q155 0 272 47.5t188.5 135.5t106.5 204.5t35 262.5q0 150 -84 222t-270 72q-75 0 -106 -28t-54 -114l-174 -660q-14 -51 -15 -82.5zM390 1338l6 23q27 -5 53 -11.5t44.5 -11.5t41 -14t34 -13t33.5 -15t28.5 -14.5t30 -16.5t28.5 -16 q188 79 340 112l8 -23q-119 -37 -222 -94.5t-166 -120.5h-30q-47 80 -99 131.5t-130 83.5z" />
<glyph unicode="&#x110;" horiz-adv-x="1197" d="M-50 0l5 33q82 4 112.5 29t53.5 113l102 388h-190l10 41h192l102 390q25 82 8.5 111t-104.5 31l5 33q114 -7 202 -5q190 5 249 5q232 0 349 -92.5t117 -272.5q0 -123 -37.5 -242t-108 -220t-165 -178t-217 -120.5t-255.5 -43.5q-22 0 -107.5 2.5t-123.5 2.5 q-127 0 -199 -5zM260 108q-3 -22 3.5 -42.5t30 -28t66.5 -7.5q154 0 278.5 67t203 180.5t120.5 259.5t42 309q0 150 -83.5 222t-269.5 72q-75 0 -106 -28t-54 -114l-103 -394h335l-10 -41h-336l-103 -391q-11 -42 -14 -64z" />
<glyph unicode="&#x111;" horiz-adv-x="1195" d="M-46 0l5 33q82 4 112 28.5t53 113.5l82 311h-180l10 41h180l81 302q26 82 8.5 111.5t-104.5 30.5l5 33q114 -7 202 -5q190 5 249 5q232 0 349 -92.5t117 -272.5q0 -136 -52.5 -253t-147 -202.5t-234 -134.5t-306.5 -49q-22 0 -107.5 2.5t-123.5 2.5q-126 0 -198 -5z M262 89.5q-1 -31.5 22 -45.5t79 -14q155 0 272 47.5t188.5 135.5t106.5 204.5t35 262.5q0 150 -84 222t-270 72q-75 0 -106 -28t-54 -114l-81 -305h347l-10 -41h-347l-83 -314q-14 -51 -15 -82.5z" />
<glyph unicode="&#x112;" horiz-adv-x="1007" d="M-58 0l8 33q86 4 116.5 28.5t54.5 113.5l219 819q10 38 13 61t0 39.5t-18 24.5t-35 11.5t-56 5.5l9 33q162 -5 479 -5q231 0 328 5q-40 -112 -62 -195q-20 -65 -24 -102h-38q17 96 13.5 153.5t-40.5 81.5t-124 24h-121q-85 0 -115.5 -23.5t-54.5 -113.5l-104 -390h109 q34 0 63 11.5t47.5 26.5t36 43t25.5 45.5t21.5 50t17.5 42.5h38q-24 -74 -68 -235q-20 -72 -52 -235h-38q1 8 3 23q15 100 3 136q-21 58 -107 59h-109l-106 -396q-13 -47 -15 -72.5t10.5 -41t35 -19.5t67.5 -4h120q78 0 130 14t92 51t67.5 88.5t59.5 138.5h38 q-17 -43 -37 -119q-24 -82 -44 -211q-112 5 -378 5q-318 0 -478 -5zM405 1353l10 41h581l-10 -41h-581z" />
<glyph unicode="&#x113;" horiz-adv-x="1022" d="M-56 0l8 33q86 4 116.5 28.5t53.5 113.5l177 654q10 38 12.5 61t-0.5 39.5t-17.5 24.5t-34.5 11.5t-56 5.5l8 33q155 -5 461 -5q250 0 359 5q-33 -84 -60 -178q-21 -82 -28 -119h-38q30 147 -3.5 203t-158.5 56h-120q-86 0 -116.5 -24t-53.5 -113l-83 -307h154 q33 0 61 14t46 31t35.5 47.5t25 47t18.5 45.5h38q-35 -106 -59 -202q-1 -4 -11.5 -43t-18 -74t-15.5 -84h-38q4 29 5.5 45.5t1.5 41.5t-6.5 39.5t-18.5 29.5t-35.5 22t-55.5 7h-137l-84 -314q-12 -48 -14 -73t9.5 -40.5t34 -19.5t67.5 -4h121q133 0 207.5 64t135.5 228h38 q-25 -72 -39 -135q-20 -64 -42 -195q-116 5 -388 5q-305 0 -462 -5zM365 1187l10 42h581l-10 -42h-581z" />
<glyph unicode="&#x114;" horiz-adv-x="1007" d="M-58 0l8 33q86 4 116.5 28.5t54.5 113.5l219 819q10 38 13 61t0 39.5t-18 24.5t-35 11.5t-56 5.5l9 33q162 -5 479 -5q231 0 328 5q-40 -112 -62 -195q-20 -65 -24 -102h-38q17 96 13.5 153.5t-40.5 81.5t-124 24h-121q-85 0 -115.5 -23.5t-54.5 -113.5l-104 -390h109 q34 0 63 11.5t47.5 26.5t36 43t25.5 45.5t21.5 50t17.5 42.5h38q-24 -74 -68 -235q-20 -72 -52 -235h-38q1 8 3 23q15 100 3 136q-21 58 -107 59h-109l-106 -396q-13 -47 -15 -72.5t10.5 -41t35 -19.5t67.5 -4h120q78 0 130 14t92 51t67.5 88.5t59.5 138.5h38 q-17 -43 -37 -119q-24 -82 -44 -211q-112 5 -378 5q-318 0 -478 -5zM457 1483l27 8q42 -50 100 -69.5t151 -19.5q89 0 188.5 25t176.5 71l16 -18q-70 -70 -190.5 -129t-218.5 -59q-102 0 -167 53.5t-83 137.5z" />
<glyph unicode="&#x115;" horiz-adv-x="1022" d="M-56 0l8 33q86 4 116.5 28.5t53.5 113.5l177 654q10 38 12.5 61t-0.5 39.5t-17.5 24.5t-34.5 11.5t-56 5.5l8 33q155 -5 461 -5q250 0 359 5q-33 -84 -60 -178q-21 -82 -28 -119h-38q30 147 -3.5 203t-158.5 56h-120q-86 0 -116.5 -24t-53.5 -113l-83 -307h154 q33 0 61 14t46 31t35.5 47.5t25 47t18.5 45.5h38q-35 -106 -59 -202q-1 -4 -11.5 -43t-18 -74t-15.5 -84h-38q4 29 5.5 45.5t1.5 41.5t-6.5 39.5t-18.5 29.5t-35.5 22t-55.5 7h-137l-84 -314q-12 -48 -14 -73t9.5 -40.5t34 -19.5t67.5 -4h121q133 0 207.5 64t135.5 228h38 q-25 -72 -39 -135q-20 -64 -42 -195q-116 5 -388 5q-305 0 -462 -5zM380 1318l26 8q42 -50 100 -69.5t151 -19.5q89 0 188.5 25t176.5 71l17 -18q-70 -70 -191 -129.5t-219 -59.5q-102 0 -166.5 54t-82.5 138z" />
<glyph unicode="&#x116;" horiz-adv-x="1007" d="M-58 0l8 33q86 4 116.5 28.5t54.5 113.5l219 819q10 38 13 61t0 39.5t-18 24.5t-35 11.5t-56 5.5l9 33q162 -5 479 -5q231 0 328 5q-40 -112 -62 -195q-20 -65 -24 -102h-38q17 96 13.5 153.5t-40.5 81.5t-124 24h-121q-85 0 -115.5 -23.5t-54.5 -113.5l-104 -390h109 q34 0 63 11.5t47.5 26.5t36 43t25.5 45.5t21.5 50t17.5 42.5h38q-24 -74 -68 -235q-20 -72 -52 -235h-38q1 8 3 23q15 100 3 136q-21 58 -107 59h-109l-106 -396q-13 -47 -15 -72.5t10.5 -41t35 -19.5t67.5 -4h120q78 0 130 14t92 51t67.5 88.5t59.5 138.5h38 q-17 -43 -37 -119q-24 -82 -44 -211q-112 5 -378 5q-318 0 -478 -5zM651 1363q0 46 36 84.5t86 38.5q38 0 61 -24.5t23 -62.5q0 -46 -37 -85t-87 -39q-37 0 -59.5 25t-22.5 63z" />
<glyph unicode="&#x117;" horiz-adv-x="1022" d="M-56 0l8 33q86 4 116.5 28.5t53.5 113.5l177 654q10 38 12.5 61t-0.5 39.5t-17.5 24.5t-34.5 11.5t-56 5.5l8 33q155 -5 461 -5q250 0 359 5q-33 -84 -60 -178q-21 -82 -28 -119h-38q30 147 -3.5 203t-158.5 56h-120q-86 0 -116.5 -24t-53.5 -113l-83 -307h154 q33 0 61 14t46 31t35.5 47.5t25 47t18.5 45.5h38q-35 -106 -59 -202q-1 -4 -11.5 -43t-18 -74t-15.5 -84h-38q4 29 5.5 45.5t1.5 41.5t-6.5 39.5t-18.5 29.5t-35.5 22t-55.5 7h-137l-84 -314q-12 -48 -14 -73t9.5 -40.5t34 -19.5t67.5 -4h121q133 0 207.5 64t135.5 228h38 q-25 -72 -39 -135q-20 -64 -42 -195q-116 5 -388 5q-305 0 -462 -5zM598 1197q0 46 36 85t86 39q38 0 61 -24.5t23 -62.5q0 -46 -37 -85t-87 -39q-37 0 -59.5 24.5t-22.5 62.5z" />
<glyph unicode="&#x118;" horiz-adv-x="1007" d="M-58 0l8 33q86 4 116.5 28.5t54.5 113.5l219 819q10 38 13 61t0 39.5t-18 24.5t-35 11.5t-56 5.5l9 33q162 -5 479 -5q231 0 328 5q-40 -112 -62 -195q-20 -65 -24 -102h-38q17 96 13.5 153.5t-40.5 81.5t-124 24h-121q-85 0 -115.5 -23.5t-54.5 -113.5l-104 -390h109 q34 0 63 11.5t47.5 26.5t36 43t25.5 45.5t21.5 50t17.5 42.5h38q-24 -74 -68 -235q-20 -72 -52 -235h-38q1 8 3 23q15 100 3 136q-21 58 -107 59h-109l-106 -396q-13 -47 -15 -72.5t10.5 -41t35 -19.5t67.5 -4h120q78 0 130 14t92 51t67.5 88.5t59.5 138.5h38 q-17 -43 -37 -119q-24 -82 -44 -211q-13 0 -20 2q-74 -23 -128 -67.5t-54 -104.5q0 -61 65 -61q32 0 68 13t59 30l18 -28q-99 -95 -213 -95q-59 0 -90.5 25.5t-31.5 70.5q0 38 24 73.5t63.5 62.5t79.5 47t84 35q-101 2 -302 2q-318 0 -478 -5z" />
<glyph unicode="&#x119;" horiz-adv-x="1022" d="M-56 0l8 33q86 4 116.5 28.5t53.5 113.5l177 654q10 38 12.5 61t-0.5 39.5t-17.5 24.5t-34.5 11.5t-56 5.5l8 33q155 -5 461 -5q250 0 359 5q-33 -84 -60 -178q-21 -82 -28 -119h-38q30 147 -3.5 203t-158.5 56h-120q-86 0 -116.5 -24t-53.5 -113l-83 -307h154 q33 0 61 14t46 31t35.5 47.5t25 47t18.5 45.5h38q-35 -106 -59 -202q-1 -4 -11.5 -43t-18 -74t-15.5 -84h-38q4 29 5.5 45.5t1.5 41.5t-6.5 39.5t-18.5 29.5t-35.5 22t-55.5 7h-137l-84 -314q-12 -48 -14 -73t9.5 -40.5t34 -19.5t67.5 -4h121q133 0 207.5 64t135.5 228h38 q-25 -72 -39 -135q-20 -64 -42 -195q-8 0 -22 1t-22 1q-73 -22 -128.5 -67t-55.5 -105q0 -61 65 -61q32 0 68 13t59 30l18 -28q-98 -94 -213 -94q-60 0 -91 25.5t-31 69.5q0 39 24 74.5t64.5 62.5t80.5 46.5t84 34.5q-97 2 -288 2q-305 0 -462 -5z" />
<glyph unicode="&#x11a;" horiz-adv-x="1007" d="M-58 0l8 33q86 4 116.5 28.5t54.5 113.5l219 819q10 38 13 61t0 39.5t-18 24.5t-35 11.5t-56 5.5l9 33q162 -5 479 -5q231 0 328 5q-40 -112 -62 -195q-20 -65 -24 -102h-38q17 96 13.5 153.5t-40.5 81.5t-124 24h-121q-85 0 -115.5 -23.5t-54.5 -113.5l-104 -390h109 q34 0 63 11.5t47.5 26.5t36 43t25.5 45.5t21.5 50t17.5 42.5h38q-24 -74 -68 -235q-20 -72 -52 -235h-38q1 8 3 23q15 100 3 136q-21 58 -107 59h-109l-106 -396q-13 -47 -15 -72.5t10.5 -41t35 -19.5t67.5 -4h120q78 0 130 14t92 51t67.5 88.5t59.5 138.5h38 q-17 -43 -37 -119q-24 -82 -44 -211q-112 5 -378 5q-318 0 -478 -5zM453 1503l6 23q31 -6 58 -12t53 -15.5t41 -14.5t40.5 -17.5t32 -15.5t35.5 -19t32 -18q187 78 341 112l8 -23q-119 -37 -222 -94.5t-166 -120.5h-30q-47 80 -99 131.5t-130 83.5z" />
<glyph unicode="&#x11b;" horiz-adv-x="1022" d="M-56 0l8 33q86 4 116.5 28.5t53.5 113.5l177 654q10 38 12.5 61t-0.5 39.5t-17.5 24.5t-34.5 11.5t-56 5.5l8 33q155 -5 461 -5q250 0 359 5q-33 -84 -60 -178q-21 -82 -28 -119h-38q30 147 -3.5 203t-158.5 56h-120q-86 0 -116.5 -24t-53.5 -113l-83 -307h154 q33 0 61 14t46 31t35.5 47.5t25 47t18.5 45.5h38q-35 -106 -59 -202q-1 -4 -11.5 -43t-18 -74t-15.5 -84h-38q4 29 5.5 45.5t1.5 41.5t-6.5 39.5t-18.5 29.5t-35.5 22t-55.5 7h-137l-84 -314q-12 -48 -14 -73t9.5 -40.5t34 -19.5t67.5 -4h121q133 0 207.5 64t135.5 228h38 q-25 -72 -39 -135q-20 -64 -42 -195q-116 5 -388 5q-305 0 -462 -5zM416 1338l7 23q31 -6 58 -12t53 -15.5t41 -14.5t40.5 -17.5t32 -15.5t35.5 -19t32 -18q188 79 340 112l9 -23q-119 -37 -222.5 -94.5t-166.5 -120.5h-29q-46 79 -98.5 131t-131.5 84z" />
<glyph unicode="&#x11c;" horiz-adv-x="1164" d="M83 355q0 112 33 230t98 226t151 193.5t201 136.5t240 51q98 0 157.5 -27t113.5 -80q24 -27 46 -8.5t48 92.5h36q-53 -139 -105 -380h-37q9 77 9 124q0 74 -24 121q-34 60 -102 94.5t-152 34.5q-76 0 -146.5 -31.5t-125.5 -85.5t-102.5 -125t-81 -151t-57.5 -163 t-35.5 -161t-11.5 -145q0 -148 70.5 -219.5t215.5 -71.5q99 0 188 51q55 32 76 104l38 146q11 42 13.5 67.5t-2 44t-23 27.5t-43.5 13t-69 6l9 33q97 -5 231 -5q106 0 173 5l-8 -33q-56 -4 -76.5 -27.5t-45.5 -114.5l-88 -327h-33q8 28 3.5 61t-23.5 33q-17 0 -62 -28 q-139 -89 -281 -89q-202 0 -309 98t-107 280zM481 1298q119 37 222 94.5t166 120.5h29q46 -79 98.5 -131t131.5 -84l-7 -23q-31 6 -58 12t-53 15.5t-41 14.5t-40.5 17.5t-32 15.5t-35.5 19t-32 18q-188 -79 -340 -112z" />
<glyph unicode="&#x11d;" horiz-adv-x="1151" d="M69 322q0 94 28.5 192.5t86.5 190t137.5 163.5t190 115.5t235.5 43.5q98 0 156.5 -27t113.5 -80q24 -27 46.5 -8.5t48.5 92.5h36q-53 -152 -106 -380h-36q8 69 8 124q0 76 -23 121q-34 60 -102 94.5t-152 34.5q-88 0 -165 -37t-131.5 -99t-97.5 -139t-68.5 -160 t-38.5 -158t-13 -137q0 -131 70.5 -194.5t215.5 -63.5q36 0 74 6.5t77.5 21t69.5 41.5t40 63l29 111q9 35 13 58t0.5 41t-11 28t-26.5 17t-41 9.5t-59 4.5l7 33q97 -5 233 -5q105 0 172 5l-7 -33q-59 -4 -79.5 -27.5t-45.5 -114.5l-73 -269h-33q8 23 3.5 50.5t-23.5 27.5 q-24 0 -87 -38q-102 -63 -256 -63q-203 0 -310 89.5t-107 255.5zM420 1133q119 37 222 94.5t166 120.5h29q46 -79 98.5 -131t131.5 -84l-7 -23q-31 6 -58 12t-53 15.5t-41 14.5t-40.5 17.5t-32 15.5t-35.5 19t-32 18q-188 -79 -340 -112z" />
<glyph unicode="&#x11e;" horiz-adv-x="1164" d="M83 355q0 112 33 230t98 226t151 193.5t201 136.5t240 51q98 0 157.5 -27t113.5 -80q24 -27 46 -8.5t48 92.5h36q-53 -139 -105 -380h-37q9 77 9 124q0 74 -24 121q-34 60 -102 94.5t-152 34.5q-76 0 -146.5 -31.5t-125.5 -85.5t-102.5 -125t-81 -151t-57.5 -163 t-35.5 -161t-11.5 -145q0 -148 70.5 -219.5t215.5 -71.5q99 0 188 51q55 32 76 104l38 146q11 42 13.5 67.5t-2 44t-23 27.5t-43.5 13t-69 6l9 33q97 -5 231 -5q106 0 173 5l-8 -33q-56 -4 -76.5 -27.5t-45.5 -114.5l-88 -327h-33q8 28 3.5 61t-23.5 33q-17 0 -62 -28 q-139 -89 -281 -89q-202 0 -309 98t-107 280zM570 1483l26 8q42 -50 100 -69.5t151 -19.5q89 0 188.5 25t176.5 71l17 -18q-70 -70 -191 -129t-219 -59q-102 0 -166.5 53.5t-82.5 137.5z" />
<glyph unicode="&#x11f;" horiz-adv-x="1151" d="M69 322q0 94 28.5 192.5t86.5 190t137.5 163.5t190 115.5t235.5 43.5q98 0 156.5 -27t113.5 -80q24 -27 46.5 -8.5t48.5 92.5h36q-53 -152 -106 -380h-36q8 69 8 124q0 76 -23 121q-34 60 -102 94.5t-152 34.5q-88 0 -165 -37t-131.5 -99t-97.5 -139t-68.5 -160 t-38.5 -158t-13 -137q0 -131 70.5 -194.5t215.5 -63.5q36 0 74 6.5t77.5 21t69.5 41.5t40 63l29 111q9 35 13 58t0.5 41t-11 28t-26.5 17t-41 9.5t-59 4.5l7 33q97 -5 233 -5q105 0 172 5l-7 -33q-59 -4 -79.5 -27.5t-45.5 -114.5l-73 -269h-33q8 23 3.5 50.5t-23.5 27.5 q-24 0 -87 -38q-102 -63 -256 -63q-203 0 -310 89.5t-107 255.5zM464 1318l27 8q42 -50 100 -69.5t151 -19.5q89 0 188.5 25t176.5 71l16 -18q-70 -70 -191 -129.5t-219 -59.5q-102 0 -166.5 54t-82.5 138z" />
<glyph unicode="&#x120;" horiz-adv-x="1164" d="M83 355q0 112 33 230t98 226t151 193.5t201 136.5t240 51q98 0 157.5 -27t113.5 -80q24 -27 46 -8.5t48 92.5h36q-53 -139 -105 -380h-37q9 77 9 124q0 74 -24 121q-34 60 -102 94.5t-152 34.5q-76 0 -146.5 -31.5t-125.5 -85.5t-102.5 -125t-81 -151t-57.5 -163 t-35.5 -161t-11.5 -145q0 -148 70.5 -219.5t215.5 -71.5q99 0 188 51q55 32 76 104l38 146q11 42 13.5 67.5t-2 44t-23 27.5t-43.5 13t-69 6l9 33q97 -5 231 -5q106 0 173 5l-8 -33q-56 -4 -76.5 -27.5t-45.5 -114.5l-88 -327h-33q8 28 3.5 61t-23.5 33q-17 0 -62 -28 q-139 -89 -281 -89q-202 0 -309 98t-107 280zM763 1363q0 46 36 84.5t86 38.5q38 0 61 -24.5t23 -62.5q0 -46 -36.5 -85t-86.5 -39q-37 0 -60 25t-23 63z" />
<glyph unicode="&#x121;" horiz-adv-x="1151" d="M69 322q0 94 28.5 192.5t86.5 190t137.5 163.5t190 115.5t235.5 43.5q98 0 156.5 -27t113.5 -80q24 -27 46.5 -8.5t48.5 92.5h36q-53 -152 -106 -380h-36q8 69 8 124q0 76 -23 121q-34 60 -102 94.5t-152 34.5q-88 0 -165 -37t-131.5 -99t-97.5 -139t-68.5 -160 t-38.5 -158t-13 -137q0 -131 70.5 -194.5t215.5 -63.5q36 0 74 6.5t77.5 21t69.5 41.5t40 63l29 111q9 35 13 58t0.5 41t-11 28t-26.5 17t-41 9.5t-59 4.5l7 33q97 -5 233 -5q105 0 172 5l-7 -33q-59 -4 -79.5 -27.5t-45.5 -114.5l-73 -269h-33q8 23 3.5 50.5t-23.5 27.5 q-24 0 -87 -38q-102 -63 -256 -63q-203 0 -310 89.5t-107 255.5zM682 1197q0 46 36 85t86 39q38 0 61.5 -24.5t23.5 -62.5q0 -46 -37 -85t-87 -39q-37 0 -60 24.5t-23 62.5z" />
<glyph unicode="&#x122;" horiz-adv-x="1164" d="M83 355q0 112 33 230t98 226t151 193.5t201 136.5t240 51q98 0 157.5 -27t113.5 -80q24 -27 46 -8.5t48 92.5h36q-53 -139 -105 -380h-37q9 77 9 124q0 74 -24 121q-34 60 -102 94.5t-152 34.5q-76 0 -146.5 -31.5t-125.5 -85.5t-102.5 -125t-81 -151t-57.5 -163 t-35.5 -161t-11.5 -145q0 -148 70.5 -219.5t215.5 -71.5q99 0 188 51q55 32 76 104l38 146q11 42 13.5 67.5t-2 44t-23 27.5t-43.5 13t-69 6l9 33q97 -5 231 -5q106 0 173 5l-8 -33q-56 -4 -76.5 -27.5t-45.5 -114.5l-88 -327h-33q8 28 3.5 61t-23.5 33q-17 0 -62 -28 q-139 -89 -281 -89q-202 0 -309 98t-107 280zM377 -221q0 40 29.5 73.5t77.5 33.5q42 0 66.5 -27t24.5 -69q0 -62 -34.5 -109t-127.5 -79l-12 28q45 13 82.5 41.5t40.5 64.5q-31 -27 -73 -27q-33 0 -53.5 18.5t-20.5 51.5z" />
<glyph unicode="&#x123;" horiz-adv-x="1151" d="M69 322q0 94 28.5 192.5t86.5 190t137.5 163.5t190 115.5t235.5 43.5q98 0 156.5 -27t113.5 -80q24 -27 46.5 -8.5t48.5 92.5h36q-53 -152 -106 -380h-36q8 69 8 124q0 76 -23 121q-34 60 -102 94.5t-152 34.5q-88 0 -165 -37t-131.5 -99t-97.5 -139t-68.5 -160 t-38.5 -158t-13 -137q0 -131 70.5 -194.5t215.5 -63.5q36 0 74 6.5t77.5 21t69.5 41.5t40 63l29 111q9 35 13 58t0.5 41t-11 28t-26.5 17t-41 9.5t-59 4.5l7 33q97 -5 233 -5q105 0 172 5l-7 -33q-59 -4 -79.5 -27.5t-45.5 -114.5l-73 -269h-33q8 23 3.5 50.5t-23.5 27.5 q-24 0 -87 -38q-102 -63 -256 -63q-203 0 -310 89.5t-107 255.5zM360 -221q0 40 29.5 73.5t77.5 33.5q42 0 66.5 -27t24.5 -69q0 -62 -34.5 -109t-127.5 -79l-11 28q45 13 82 41.5t40 64.5q-31 -27 -73 -27q-33 0 -53.5 18.5t-20.5 51.5z" />
<glyph unicode="&#x124;" horiz-adv-x="1246" d="M-55 0l9 33q84 4 114 28.5t53 113.5l218 819q22 91 4.5 114.5t-102.5 27.5l8 33q75 -5 210 -5q124 0 212 5l-9 -33q-87 -4 -117 -28.5t-53 -113.5l-104 -390h530l104 390q13 47 15 73t-10 41.5t-34.5 20.5t-67.5 7l8 33q83 -5 208 -5q133 0 213 5l-8 -33 q-87 -4 -117 -28.5t-53 -113.5l-218 -819q-12 -48 -14 -73t9.5 -41t34 -21t67.5 -7l-6 -33q-77 5 -212 5q-124 0 -209 -5l6 33q86 4 116.5 28.5t53.5 113.5l106 396h-530l-106 -396q-22 -91 -4.5 -114.5t102.5 -27.5l-7 -33q-85 5 -210 5q-130 0 -210 -5zM479 1298 q119 37 222 94.5t166 120.5h30q47 -80 99 -131.5t130 -83.5l-6 -23q-27 5 -53 11.5t-44.5 11.5t-41 14t-34 13t-33.5 15t-28.5 14.5t-30 16.5t-28.5 16q-188 -79 -340 -112z" />
<glyph unicode="&#x125;" horiz-adv-x="1251" d="M-51 0l8 33q84 4 114 28.5t53 113.5l173 654q22 91 5 114.5t-102 27.5l8 33q75 -5 210 -5q123 0 211 5l-8 -33q-87 -4 -117 -28.5t-53 -113.5l-81 -307h530l81 307q13 47 15 73t-10 41.5t-34.5 20.5t-67.5 7l8 33q83 -5 208 -5q133 0 213 5l-8 -33q-87 -4 -117 -28.5 t-53 -113.5l-174 -654q-22 -91 -4.5 -114.5t102.5 -27.5l-7 -33q-77 5 -211 5q-125 0 -210 -5l7 33q86 4 116.5 28.5t53.5 113.5l82 314h-530l-83 -314q-22 -91 -4.5 -114.5t102.5 -27.5l-7 -33q-85 5 -209 5q-130 0 -210 -5zM451 1133q119 37 222 94.5t166 120.5h30 q47 -80 99 -131.5t130 -83.5l-6 -23q-27 5 -53 11.5t-44.5 11.5t-41 14t-34 13t-33.5 15t-28.5 14.5t-30 16.5t-28.5 16q-188 -79 -340 -112z" />
<glyph unicode="&#x126;" horiz-adv-x="1246" d="M-55 0l9 33q84 4 114 28.5t53 113.5l178 672h-202l9 33h203l30 114q22 91 4.5 114.5t-102.5 27.5l8 33q75 -5 210 -5q124 0 212 5l-9 -33q-87 -4 -117 -28.5t-53 -113.5l-30 -114h531l29 114q13 47 15 73t-10 41.5t-34.5 20.5t-67.5 7l8 33q83 -5 208 -5q133 0 213 5 l-8 -33q-87 -4 -117 -28.5t-53 -113.5l-30 -114h203l-8 -33h-205l-178 -672q-12 -48 -14 -73t9.5 -41t34 -21t67.5 -7l-6 -33q-77 5 -212 5q-124 0 -209 -5l6 33q86 4 116.5 28.5t53.5 113.5l106 396h-530l-106 -396q-22 -91 -4.5 -114.5t102.5 -27.5l-7 -33q-85 5 -210 5 q-130 0 -210 -5zM388 604h530l65 243h-530z" />
<glyph unicode="&#x127;" horiz-adv-x="1251" d="M-51 0l8 33q84 4 114 28.5t53 113.5l144 542h-180l8 33h180l21 79q22 91 5 114.5t-102 27.5l8 33q75 -5 210 -5q123 0 211 5l-8 -33q-87 -4 -117 -28.5t-53 -113.5l-22 -79h531l21 79q13 47 15 73t-10 41.5t-34.5 20.5t-67.5 7l8 33q83 -5 208 -5q133 0 213 5l-8 -33 q-87 -4 -117 -28.5t-53 -113.5l-22 -79h226l-8 -33h-226l-144 -542q-22 -91 -4.5 -114.5t102.5 -27.5l-7 -33q-77 5 -211 5q-125 0 -210 -5l7 33q86 4 116.5 28.5t53.5 113.5l82 314h-530l-83 -314q-22 -91 -4.5 -114.5t102.5 -27.5l-7 -33q-85 5 -209 5q-130 0 -210 -5z M370 522h530l51 195h-530z" />
<glyph unicode="&#x128;" horiz-adv-x="563" d="M-55 0l9 33q84 4 114 28.5t53 113.5l218 819q22 91 4.5 114.5t-102.5 27.5l8 33q75 -5 210 -5q124 0 212 5l-9 -33q-87 -4 -117 -28.5t-53 -113.5l-218 -819q-22 -91 -4.5 -114.5t102.5 -27.5l-7 -33q-85 5 -210 5q-130 0 -210 -5zM220 1308q36 86 93.5 128t120.5 42 q50 0 91.5 -19t65 -41t57.5 -41t72 -19q64 0 116 95l29 -8q-36 -86 -93.5 -128t-120.5 -42q-50 0 -91.5 19t-65 41.5t-57.5 41.5t-72 19q-63 0 -116 -96z" />
<glyph unicode="&#x129;" horiz-adv-x="568" d="M-51 0l8 33q84 4 114 28.5t53 113.5l173 654q22 91 5 114.5t-102 27.5l8 33q75 -5 210 -5q123 0 211 5l-8 -33q-87 -4 -117 -28.5t-53 -113.5l-174 -654q-22 -91 -4.5 -114.5t102.5 -27.5l-7 -33q-85 5 -209 5q-130 0 -210 -5zM121 1143q36 86 93.5 128t120.5 42 q50 0 91.5 -19t65 -41.5t57.5 -41.5t72 -19q63 0 116 96l29 -8q-36 -86 -93.5 -128t-120.5 -42q-50 0 -91.5 19t-65 41t-57.5 41t-72 19q-64 0 -116 -95z" />
<glyph unicode="&#x12a;" horiz-adv-x="563" d="M-55 0l9 33q84 4 114 28.5t53 113.5l218 819q22 91 4.5 114.5t-102.5 27.5l8 33q75 -5 210 -5q124 0 212 5l-9 -33q-87 -4 -117 -28.5t-53 -113.5l-218 -819q-22 -91 -4.5 -114.5t102.5 -27.5l-7 -33q-85 5 -210 5q-130 0 -210 -5zM203 1353l10 41h581l-9 -41h-582z" />
<glyph unicode="&#x12b;" horiz-adv-x="568" d="M-51 0l8 33q84 4 114 28.5t53 113.5l173 654q22 91 5 114.5t-102 27.5l8 33q75 -5 210 -5q123 0 211 5l-8 -33q-87 -4 -117 -28.5t-53 -113.5l-174 -654q-22 -91 -4.5 -114.5t102.5 -27.5l-7 -33q-85 5 -209 5q-130 0 -210 -5zM142 1187l10 42h581l-10 -42h-581z" />
<glyph unicode="&#x12c;" horiz-adv-x="563" d="M-55 0l9 33q84 4 114 28.5t53 113.5l218 819q22 91 4.5 114.5t-102.5 27.5l8 33q75 -5 210 -5q124 0 212 5l-9 -33q-87 -4 -117 -28.5t-53 -113.5l-218 -819q-22 -91 -4.5 -114.5t102.5 -27.5l-7 -33q-85 5 -210 5q-130 0 -210 -5zM256 1483l26 8q42 -50 100 -69.5 t151 -19.5q89 0 188.5 25t176.5 71l17 -18q-70 -70 -191 -129t-219 -59q-102 0 -166.5 53.5t-82.5 137.5z" />
<glyph unicode="&#x12d;" horiz-adv-x="568" d="M-51 0l8 33q84 4 114 28.5t53 113.5l173 654q22 91 5 114.5t-102 27.5l8 33q75 -5 210 -5q123 0 211 5l-8 -33q-87 -4 -117 -28.5t-53 -113.5l-174 -654q-22 -91 -4.5 -114.5t102.5 -27.5l-7 -33q-85 5 -209 5q-130 0 -210 -5zM157 1318l26 8q42 -50 100 -69.5t151 -19.5 q89 0 188.5 25t176.5 71l17 -18q-70 -70 -191 -129.5t-219 -59.5q-102 0 -166.5 54t-82.5 138z" />
<glyph unicode="&#x12e;" horiz-adv-x="563" d="M-55 0l9 33q84 4 114 28.5t53 113.5l218 819q22 91 4.5 114.5t-102.5 27.5l8 33q75 -5 210 -5q124 0 212 5l-9 -33q-87 -4 -117 -28.5t-53 -113.5l-218 -819q-22 -91 -4.5 -114.5t102.5 -27.5l-5 -28h15l-17 -5q-72 -23 -125 -67t-53 -103q0 -61 64 -61q32 0 68 13t59 30 l18 -28q-99 -95 -213 -95q-59 0 -90.5 25.5t-31.5 70.5q0 38 24 73.5t63.5 62.5t79.5 47t84 35q-48 2 -157 2q-130 0 -210 -5z" />
<glyph unicode="&#x12f;" horiz-adv-x="568" d="M-51 0l8 33q84 4 114 28.5t53 113.5l173 654q22 91 5 114.5t-102 27.5l8 33q75 -5 210 -5q123 0 211 5l-8 -33q-87 -4 -117 -28.5t-53 -113.5l-174 -654q-22 -91 -4.5 -114.5t102.5 -27.5l-7 -33h-15q-72 -22 -126 -66t-54 -104q0 -61 65 -61q32 0 68 13t59 30l18 -28 q-98 -94 -213 -94q-60 0 -91 25.5t-31 69.5q0 39 24 74.5t64.5 62.5t80.5 46.5t84 34.5q-45 2 -142 2q-130 0 -210 -5z" />
<glyph unicode="&#x130;" horiz-adv-x="563" d="M-55 0l9 33q84 4 114 28.5t53 113.5l218 819q22 91 4.5 114.5t-102.5 27.5l8 33q75 -5 210 -5q124 0 212 5l-9 -33q-87 -4 -117 -28.5t-53 -113.5l-218 -819q-22 -91 -4.5 -114.5t102.5 -27.5l-7 -33q-85 5 -210 5q-130 0 -210 -5zM449 1363q0 46 36 84.5t86 38.5 q38 0 61.5 -24.5t23.5 -62.5q0 -46 -37 -85t-87 -39q-37 0 -60 25t-23 63z" />
<glyph unicode="&#x131;" horiz-adv-x="498" d="M53 581l43 121q61 170 205 170q164 0 82 -231l-177 -501q-37 -102 27 -102q35 0 64.5 37.5t64.5 130.5l23 62h31l-43 -121q-61 -170 -203 -170q-41 0 -67 13t-37 34t-11 52t7.5 62t21.5 70l177 501q35 102 -23 102q-37 0 -67.5 -40.5t-63.5 -128.5l-23 -61h-31z" />
<glyph unicode="&#x132;" horiz-adv-x="1317" d="M64 0l9 33q82 4 111 28.5t55 113.5l189 647q-65 6 -117 23t-92.5 60t-40.5 106q0 90 68 150t170 60q74 0 144.5 -18t128 -44.5t114.5 -52.5t127 -44t142 -18q76 0 135 17t154 57q79 125 122 88q12 -13 10.5 -28t-32 -36t-85.5 -42q-103 -86 -161.5 -200t-101.5 -295h179 l-7 -34h-180q0 -1 -1 -4t-1 -5l-100 -455q-19 -86 -50.5 -159t-76.5 -132t-109 -92.5t-139 -33.5q-76 0 -122 23t-50 67q-2 38 22.5 68t64.5 30q29 0 50 -19t23 -47q4 -55 -63 -88q24 -8 58 -8q30 0 55 8.5t46 28t37 39.5t31 56.5t25 63.5t21.5 75.5t18.5 79t18.5 87 t18.5 86.5l53 247q15 65 21 84h-201l6 34h205q27 82 62 147t88.5 125t91 95t114.5 100q18 15 27 23q-187 -99 -323 -99q-123 0 -312 46t-313 46q-70 0 -111.5 -27t-41.5 -77q0 -37 24.5 -64t64 -40.5t79.5 -19.5t81 -6q115 0 215 64l13 -24q-56 -38 -140 -60l-192 -659 q-26 -82 -8 -111.5t106 -30.5l-7 -33q-85 5 -210 5q-130 0 -210 -5z" />
<glyph unicode="&#x133;" horiz-adv-x="1351" d="M41 0l9 33q82 4 111 28.5t55 113.5l141 471q-93 13 -154 56.5t-61 126.5q0 90 68 150t170 60q70 0 136.5 -18t120 -44.5t107 -52.5t119 -44t133.5 -18q60 0 117 10.5t94.5 23t113.5 40.5q81 126 126 88q11 -13 8.5 -28t-33.5 -35.5t-86 -42.5q-103 -84 -162.5 -195.5 t-116.5 -299.5h165l-5 -33h-170q-1 -1 -1.5 -5t-1.5 -5l-116 -388q-40 -133 -141 -218t-249 -85q-75 0 -121 23.5t-47 67.5q-2 38 24.5 68t66.5 30q29 0 48 -19t21 -47q1 -28 -17.5 -51t-48.5 -37q24 -8 58 -8q50 0 88 18t62 39.5t49 78t37 93.5t39 126q11 35 16 53l54 182 q10 37 28 84h-208l5 33h216q20 50 44.5 96t44 79t55.5 74t53.5 61t65.5 62.5t63.5 55.5t73.5 62q-209 -99 -360 -99q-78 0 -156.5 14.5t-134 32t-135 32t-157.5 14.5q-70 0 -112 -27t-42 -77q0 -37 24.5 -64t64 -41t80 -20t81.5 -6q130 0 248 48l8 -25q-93 -41 -208 -53 l-139 -467q-14 -46 -16 -72t10 -41.5t35 -21t68 -7.5l-6 -33q-85 5 -210 5q-130 0 -210 -5z" />
<glyph unicode="&#x134;" horiz-adv-x="1050" d="M74 -220q-2 38 24.5 68t66.5 30q29 0 48.5 -19t21.5 -47q1 -28 -18 -51t-49 -37q24 -8 58 -8q27 0 50.5 8t42.5 21t37 35.5t31 44t26.5 55.5t22.5 61.5t21 70t19.5 72.5t19 77.5t19.5 77.5l50 194q19 74 46 138h-220l5 33h228q36 80 85 149.5t112 130.5t120 107t138 104 q-191 -99 -328 -99q-80 0 -202.5 46t-203.5 46q-55 0 -82 -28.5t-25 -80.5q3 -96 122 -120l-5 -33q-76 13 -128 58.5t-54 132.5q-4 89 48.5 146.5t143.5 57.5q50 0 97 -18t84.5 -44.5t74.5 -52.5t83 -44t95 -18q77 0 137.5 17t155.5 57q81 125 125 88q8 -7 10 -15.5t-4 -19 t-19.5 -21.5t-38 -24t-58.5 -26q-232 -154 -344 -496h164l-5 -33h-169q-10 -29 -18 -64l-102 -400q-48 -185 -146 -301.5t-244 -116.5q-75 0 -121.5 23.5t-47.5 67.5zM467 1298q119 37 222.5 94.5t166.5 120.5h29q46 -79 98.5 -131t131.5 -84l-7 -23q-31 6 -58 12t-53 15.5 t-41 14.5t-40.5 17.5t-32 15.5t-35.5 19t-32 18q-188 -79 -340 -112z" />
<glyph unicode="&#x135;" horiz-adv-x="1015" d="M35 -220q-2 38 24 68t66 30q29 0 48.5 -19t21.5 -47q1 -28 -17.5 -51t-48.5 -37q24 -8 58 -8q42 0 73.5 8t58.5 36t42 45.5t37 74.5t30 81.5t32 106.5q11 37 17 56l55 182q10 37 28 84h-208l5 33h216q20 50 44.5 96t44 79t55.5 74t53.5 61t65.5 62.5t63.5 55.5t73.5 62 q-164 -99 -278 -99q-77 0 -194 46.5t-195 46.5q-55 0 -82.5 -28.5t-25.5 -80.5q3 -98 122 -121l-5 -33q-76 13 -127.5 59t-53.5 133q-4 89 48 146t143 57q48 0 93.5 -18t81.5 -44.5t72 -52.5t80 -44t91 -18q63 0 114.5 17.5t128.5 56.5q81 126 126 88q11 -13 8.5 -28 t-33.5 -35.5t-86 -42.5q-103 -84 -162.5 -195.5t-116.5 -299.5h165l-5 -33h-170q-1 -1 -1.5 -4.5t-1.5 -5.5l-116 -388q-40 -132 -141 -217t-249 -85q-76 0 -121.5 23t-46.5 67zM373 1133q119 37 222 94.5t166 120.5h30q46 -79 98.5 -131t131.5 -84l-7 -23q-31 6 -58 12 t-53 15.5t-41 14.5t-40.5 17.5t-32 15.5t-35.5 19t-32 18q-188 -79 -340 -112z" />
<glyph unicode="&#x136;" horiz-adv-x="1114" d="M-55 0l9 33q84 4 114 28.5t53 113.5l218 819q22 91 4.5 114.5t-102.5 27.5l8 33q75 -5 210 -5q124 0 212 5l-9 -33q-87 -4 -117 -28.5t-53 -113.5l-218 -819q-22 -91 -4.5 -114.5t102.5 -27.5l-7 -33q-85 5 -210 5q-130 0 -210 -5zM297 -221q0 40 30 73.5t78 33.5 q42 0 66 -26.5t24 -69.5q0 -62 -34 -109t-127 -79l-12 28q45 13 82 41.5t40 64.5q-31 -27 -72 -27q-33 0 -54 18.5t-21 51.5zM431 609q0 56 150 17q80 10 136.5 57t87 113t52.5 133t50.5 131t63.5 94q48 38 99 38q54 0 77 -27t21 -70q-3 -38 -27.5 -72t-68.5 -34 q-35 0 -51 21t-14 50q1 23 16.5 50.5t36.5 47.5h-5q-32 -2 -59 -23q-31 -29 -58 -92.5t-50 -130.5t-55 -133t-88 -113t-134 -57q46 -9 73.5 -21.5t53 -40t36 -79t7.5 -129.5l-6 -187q-2 -44 7 -64t42 -20q41 0 69.5 30.5t52.5 98.5l28 84h33l-42 -127q-59 -177 -202 -177 q-151 0 -139 191l12 187q6 110 -8.5 158.5t-51.5 77.5q-145 -36 -145 18z" />
<glyph unicode="&#x137;" horiz-adv-x="1113" d="M-51 0l8 33q84 4 114 28.5t53 113.5l173 654q22 91 5 114.5t-102 27.5l8 33q75 -5 210 -5q123 0 211 5l-8 -33q-87 -4 -117 -28.5t-53 -113.5l-174 -654q-22 -91 -4.5 -114.5t102.5 -27.5l-7 -33q-85 5 -209 5q-130 0 -210 -5zM322 -221q0 40 29.5 73.5t77.5 33.5 q42 0 66.5 -27t24.5 -69q0 -62 -34.5 -109t-127.5 -79l-11 28q45 13 82 41.5t40 64.5q-31 -27 -73 -27q-33 0 -53.5 18.5t-20.5 51.5zM410 522q0 53 155 15q59 5 102.5 34.5t67.5 70.5t45 92t34.5 97.5t36 90.5t49.5 67q48 38 99 38q54 0 77 -27t21 -70q-3 -38 -27.5 -72 t-68.5 -34q-35 0 -51 21t-14 50q1 23 16.5 50.5t36.5 47.5h-5q-30 0 -59 -24q-26 -25 -49.5 -79.5t-43.5 -111.5t-46.5 -112.5t-74 -95.5t-111.5 -48q94 -20 138.5 -76.5t37.5 -171.5l-3 -142q-1 -29 14.5 -46.5t39.5 -17.5q42 0 71 31t52 98l28 84h33l-43 -127 q-59 -177 -202 -177q-77 0 -112 49.5t-26 141.5l10 123q7 79 -12.5 139t-57.5 79q-158 -41 -158 13z" />
<glyph unicode="&#x138;" horiz-adv-x="921" d="M50 581l41 121q59 170 200 170q41 0 64 -16t27.5 -49.5t-0.5 -71.5t-20 -94l-50 -198q74 6 125.5 39t79.5 80.5t47.5 96t44.5 99t57 76.5q51 38 99 38q102 0 97 -97q-3 -38 -27.5 -72t-68.5 -34q-35 0 -50.5 20.5t-13.5 50.5q1 23 16.5 50t36.5 47h-4q-29 0 -61 -23 q-26 -22 -48.5 -66.5t-41.5 -90.5t-43.5 -92.5t-67 -82.5t-99.5 -49q54 -3 97 -14.5t78 -35t50.5 -64.5t7.5 -98l-17 -115q-5 -39 1 -53.5t32 -14.5q33 0 62 38t60 130l20 62h32l-40 -121q-55 -170 -197 -170q-123 0 -100 157l13 92q14 98 -23 141t-160 54l-106 -421h-144 l198 709q30 102 -23 102q-36 0 -66.5 -39t-62.5 -130l-21 -61h-31z" />
<glyph unicode="&#x139;" horiz-adv-x="967" d="M-58 0l8 33q86 4 116.5 28.5t54.5 113.5l219 819q10 38 13 61t0 39.5t-18 24.5t-35 11.5t-56 5.5l9 33q77 -5 211 -5q125 0 210 5l-8 -33q-87 -4 -117.5 -28.5t-54.5 -113.5l-220 -819q-13 -47 -15 -72.5t10.5 -41t35 -19.5t67.5 -4h120q78 0 130 15t93 54.5t69 93.5 t62 146h38q-15 -40 -42 -136q-24 -82 -44 -211q-112 5 -378 5q-318 0 -478 -5zM444 1293q90 61 188.5 137t135.5 98q18 11 39 16t41.5 -0.5t28.5 -24.5q10 -24 -7.5 -48.5t-46.5 -40.5q-35 -21 -151.5 -64t-215.5 -91z" />
<glyph unicode="&#x13a;" horiz-adv-x="981" d="M-56 0l8 33q86 4 116.5 28.5t53.5 113.5l177 654q10 38 12.5 61t-0.5 39.5t-17.5 24.5t-34.5 11.5t-56 5.5l8 33q75 -5 210 -5q124 0 212 5l-9 -33q-87 -4 -117.5 -28.5t-53.5 -113.5l-177 -654q-12 -48 -14 -73t9.5 -40.5t34 -19.5t67.5 -4h104q126 0 219 72t153 237h38 q-39 -120 -46 -152q-20 -64 -42 -195q-116 5 -393 5q-305 0 -462 -5zM302 1128q90 61 188.5 137t135.5 98q18 11 39 16t41.5 -0.5t28.5 -24.5q10 -24 -8 -48.5t-47 -40.5q-35 -21 -151 -64t-215 -91z" />
<glyph unicode="&#x13b;" horiz-adv-x="967" d="M-58 0l8 33q86 4 116.5 28.5t54.5 113.5l219 819q10 38 13 61t0 39.5t-18 24.5t-35 11.5t-56 5.5l9 33q77 -5 211 -5q125 0 210 5l-8 -33q-87 -4 -117.5 -28.5t-54.5 -113.5l-220 -819q-13 -47 -15 -72.5t10.5 -41t35 -19.5t67.5 -4h120q78 0 130 15t93 54.5t69 93.5 t62 146h38q-15 -40 -42 -136q-24 -82 -44 -211q-112 5 -378 5q-318 0 -478 -5zM291 -221q0 40 29.5 73.5t77.5 33.5q42 0 66.5 -27t24.5 -69q0 -62 -34.5 -109t-127.5 -79l-12 28q45 13 82.5 41.5t40.5 64.5q-31 -27 -73 -27q-33 0 -53.5 18.5t-20.5 51.5z" />
<glyph unicode="&#x13c;" horiz-adv-x="981" d="M-56 0l8 33q86 4 116.5 28.5t53.5 113.5l177 654q10 38 12.5 61t-0.5 39.5t-17.5 24.5t-34.5 11.5t-56 5.5l8 33q75 -5 210 -5q124 0 212 5l-9 -33q-87 -4 -117.5 -28.5t-53.5 -113.5l-177 -654q-12 -48 -14 -73t9.5 -40.5t34 -19.5t67.5 -4h104q126 0 219 72t153 237h38 q-39 -120 -46 -152q-20 -64 -42 -195q-116 5 -393 5q-305 0 -462 -5zM287 -221q0 40 30 73.5t78 33.5q42 0 66.5 -27t24.5 -69q0 -62 -34.5 -109t-127.5 -79l-12 28q45 13 82 41.5t40 64.5q-31 -27 -72 -27q-33 0 -54 18.5t-21 51.5z" />
<glyph unicode="&#x13d;" horiz-adv-x="967" d="M-58 0l8 33q86 4 116.5 28.5t54.5 113.5l219 819q10 38 13 61t0 39.5t-18 24.5t-35 11.5t-56 5.5l9 33q77 -5 211 -5q125 0 210 5l-8 -33q-87 -4 -117.5 -28.5t-54.5 -113.5l-220 -819q-13 -47 -15 -72.5t10.5 -41t35 -19.5t67.5 -4h120q78 0 130 15t93 54.5t69 93.5 t62 146h38q-15 -40 -42 -136q-24 -82 -44 -211q-112 5 -378 5q-318 0 -478 -5zM684 801q59 105 88 185.5t29 116.5q0 32 -54 32l4 34q14 0 36 -0.5t32 -0.5q59 0 121 20q1 -2 1 -14q0 -125 -234 -380z" />
<glyph unicode="&#x13e;" horiz-adv-x="981" d="M-56 0l8 33q86 4 116.5 28.5t53.5 113.5l177 654q10 38 12.5 61t-0.5 39.5t-17.5 24.5t-34.5 11.5t-56 5.5l8 33q75 -5 210 -5q124 0 212 5l-9 -33q-87 -4 -117.5 -28.5t-53.5 -113.5l-177 -654q-12 -48 -14 -73t9.5 -40.5t34 -19.5t67.5 -4h104q126 0 219 72t153 237h38 q-39 -120 -46 -152q-20 -64 -42 -195q-116 5 -393 5q-305 0 -462 -5zM636 619q50 111 75.5 196.5t25.5 122.5q0 31 -22 31l5 35q7 0 18 -0.5t17 -0.5q61 0 120 19q2 -3 2 -13q0 -130 -218 -396z" />
<glyph unicode="&#x13f;" horiz-adv-x="986" d="M-58 0l8 33q86 4 116.5 28.5t54.5 113.5l219 819q10 38 13 61t0 39.5t-18 24.5t-35 11.5t-56 5.5l9 33q77 -5 211 -5q125 0 210 5l-8 -33q-87 -4 -117.5 -28.5t-54.5 -113.5l-220 -819q-13 -47 -15 -72.5t10.5 -41t35 -19.5t67.5 -4h120q78 0 130 15t93 54.5t69 93.5 t62 146h38q-15 -40 -42 -136q-24 -82 -44 -211q-112 5 -378 5q-318 0 -478 -5zM758 586q7 43 43 74.5t78 31.5q43 0 66.5 -31t15.5 -75q-9 -44 -44 -74.5t-78 -30.5q-42 0 -66 31t-15 74z" />
<glyph unicode="&#x140;" horiz-adv-x="981" d="M-56 0l8 33q86 4 116.5 28.5t53.5 113.5l177 654q10 38 12.5 61t-0.5 39.5t-17.5 24.5t-34.5 11.5t-56 5.5l8 33q75 -5 210 -5q124 0 212 5l-9 -33q-87 -4 -117.5 -28.5t-53.5 -113.5l-177 -654q-12 -48 -14 -73t9.5 -40.5t34 -19.5t67.5 -4h104q126 0 219 72t153 237h38 q-39 -120 -46 -152q-20 -64 -42 -195q-116 5 -393 5q-305 0 -462 -5zM760 562q7 43 42.5 74t77.5 31q43 0 67 -30.5t16 -74.5q-9 -44 -44 -75t-78 -31q-42 0 -66 31.5t-15 74.5z" />
<glyph unicode="&#x141;" horiz-adv-x="969" d="M-55 0l9 33q85 4 115.5 28.5t54.5 113.5l69 256l-168 -84l10 38l168 84l141 525q10 38 13 61t0 39.5t-18 24.5t-35 11.5t-56 5.5l8 33q77 -5 211 -5q125 0 210 5l-8 -33q-87 -4 -117.5 -28.5t-54.5 -113.5l-122 -452l477 239l-10 -38l-477 -239l-88 -329 q-13 -47 -15 -72.5t10.5 -41t35 -19.5t67.5 -4h120q78 0 130 15t93 54.5t69 93.5t62 146h38q-11 -28 -41 -136q-26 -90 -45 -211q-112 5 -378 5q-318 0 -478 -5z" />
<glyph unicode="&#x142;" horiz-adv-x="984" d="M-53 0l8 33q86 4 117 28.5t54 113.5l49 183l-162 -81l10 38l162 81l117 433q10 38 12.5 61t-0.5 39.5t-17.5 24.5t-34.5 11.5t-56 5.5l9 33q75 -5 209 -5q124 0 212 5l-8 -33q-87 -4 -118 -28.5t-54 -113.5l-98 -360l483 243l-10 -38l-483 -243l-69 -256 q-22 -91 -4.5 -114t102.5 -23h104q126 0 218.5 72t152.5 237h38q-39 -120 -46 -152q-18 -57 -41 -195q-116 5 -393 5q-306 0 -463 -5z" />
<glyph unicode="&#x143;" horiz-adv-x="1271" d="M-119 -36q0 45 26.5 81t71.5 36q34 0 48 -19t14 -45q0 -56 -53 -105h5q85 3 137 86q111 173 271 996q19 91 -0.5 114.5t-116.5 27.5l8 33q58 -5 147 -5q71 0 134 5l312 -913q159 709 278 884q73 105 178 105q99 0 99 -84q0 -46 -26 -82.5t-71 -36.5q-34 0 -48.5 19.5 t-14.5 45.5q0 55 53 104h-5q-82 -3 -136 -85q-73 -109 -152 -383.5t-180 -750.5h-36l-376 1063q-180 -925 -291 -1073q-37 -49 -77 -76.5t-100 -27.5q-99 0 -99 86zM836 1293q90 61 188 137t135 98q18 11 39 16t41.5 -0.5t28.5 -24.5q10 -24 -7.5 -48.5t-46.5 -40.5 q-35 -21 -151.5 -64t-215.5 -91z" />
<glyph unicode="&#x144;" horiz-adv-x="1316" d="M-121 -36q0 45 26.5 81t71.5 36q34 0 48.5 -19t14.5 -45q0 -56 -53 -105h3q80 3 139 86q120 177 281 894q4 47 -22.5 62t-105.5 17l9 33q58 -5 147 -5q70 0 133 5l314 -778q159 596 276 748q79 106 178 106t99 -84q0 -46 -26 -82.5t-71 -36.5q-34 0 -48.5 19t-14.5 45 q0 27 15.5 55.5t37.5 48.5h-5q-76 -2 -135 -84q-145 -205 -332 -969h-37l-376 905q-177 -774 -291 -915q-26 -32 -45.5 -51t-55 -36t-76.5 -17q-99 0 -99 86zM723 1128q90 61 188.5 137t135.5 98q18 11 39 16t41.5 -0.5t28.5 -24.5q10 -24 -7.5 -48.5t-46.5 -40.5 q-35 -21 -151.5 -64t-215.5 -91z" />
<glyph unicode="&#x145;" horiz-adv-x="1271" d="M-119 -36q0 45 26.5 81t71.5 36q34 0 48 -19t14 -45q0 -56 -53 -105h5q85 3 137 86q111 173 271 996q19 91 -0.5 114.5t-116.5 27.5l8 33q58 -5 147 -5q71 0 134 5l312 -913q159 709 278 884q73 105 178 105q99 0 99 -84q0 -46 -26 -82.5t-71 -36.5q-34 0 -48.5 19.5 t-14.5 45.5q0 55 53 104h-5q-82 -3 -136 -85q-73 -109 -152 -383.5t-180 -750.5h-36l-376 1063q-180 -925 -291 -1073q-37 -49 -77 -76.5t-100 -27.5q-99 0 -99 86zM342 -221q0 40 29.5 73.5t77.5 33.5q42 0 66.5 -27t24.5 -69q0 -62 -34.5 -109t-127.5 -79l-11 28 q45 13 82 41.5t40 64.5q-31 -27 -73 -27q-33 0 -53.5 18.5t-20.5 51.5z" />
<glyph unicode="&#x146;" horiz-adv-x="1316" d="M-121 -36q0 45 26.5 81t71.5 36q34 0 48.5 -19t14.5 -45q0 -56 -53 -105h3q80 3 139 86q120 177 281 894q4 47 -22.5 62t-105.5 17l9 33q58 -5 147 -5q70 0 133 5l314 -778q159 596 276 748q79 106 178 106t99 -84q0 -46 -26 -82.5t-71 -36.5q-34 0 -48.5 19t-14.5 45 q0 27 15.5 55.5t37.5 48.5h-5q-76 -2 -135 -84q-145 -205 -332 -969h-37l-376 905q-177 -774 -291 -915q-26 -32 -45.5 -51t-55 -36t-76.5 -17q-99 0 -99 86zM353 -221q0 40 30 73.5t78 33.5q42 0 66.5 -27t24.5 -69q0 -62 -34.5 -109t-127.5 -79l-12 28q45 13 82 41.5 t40 64.5q-31 -27 -72 -27q-33 0 -54 18.5t-21 51.5z" />
<glyph unicode="&#x147;" horiz-adv-x="1271" d="M-119 -36q0 45 26.5 81t71.5 36q34 0 48 -19t14 -45q0 -56 -53 -105h5q85 3 137 86q111 173 271 996q19 91 -0.5 114.5t-116.5 27.5l8 33q58 -5 147 -5q71 0 134 5l312 -913q159 709 278 884q73 105 178 105q99 0 99 -84q0 -46 -26 -82.5t-71 -36.5q-34 0 -48.5 19.5 t-14.5 45.5q0 55 53 104h-5q-82 -3 -136 -85q-73 -109 -152 -383.5t-180 -750.5h-36l-376 1063q-180 -925 -291 -1073q-37 -49 -77 -76.5t-100 -27.5q-99 0 -99 86zM614 1503l7 23q31 -6 58 -12t53 -15.5t41 -14.5t40.5 -17.5t32 -15.5t35.5 -19t32 -18q187 78 341 112 l8 -23q-119 -37 -222 -94.5t-166 -120.5h-30q-46 79 -98.5 131t-131.5 84z" />
<glyph unicode="&#x148;" horiz-adv-x="1316" d="M-121 -36q0 45 26.5 81t71.5 36q34 0 48.5 -19t14.5 -45q0 -56 -53 -105h3q80 3 139 86q120 177 281 894q4 47 -22.5 62t-105.5 17l9 33q58 -5 147 -5q70 0 133 5l314 -778q159 596 276 748q79 106 178 106t99 -84q0 -46 -26 -82.5t-71 -36.5q-34 0 -48.5 19t-14.5 45 q0 27 15.5 55.5t37.5 48.5h-5q-76 -2 -135 -84q-145 -205 -332 -969h-37l-376 905q-177 -774 -291 -915q-26 -32 -45.5 -51t-55 -36t-76.5 -17q-99 0 -99 86zM601 1338l7 23q31 -6 58 -12t53 -15.5t41 -14.5t40.5 -17.5t32 -15.5t35.5 -19t32 -18q188 79 340 112l9 -23 q-119 -37 -222.5 -94.5t-166.5 -120.5h-29q-46 79 -98.5 131t-131.5 84z" />
<glyph unicode="&#x14a;" horiz-adv-x="1157" d="M-55 0l9 33q84 4 116.5 35t56.5 124l213 802q22 91 5 114.5t-102 27.5l8 33q58 -5 147 -5q71 0 134 5l333 -928l194 737q25 91 4 122.5t-115 35.5l8 33q63 -5 167 -5q92 0 155 5l-8 -33q-84 -4 -116.5 -34.5t-56.5 -123.5l-230 -867q-48 -214 -129 -317.5t-200 -103.5 q-59 0 -102.5 23t-45.5 67q-2 39 25.5 68.5t65.5 29.5q29 0 48 -19t21 -47q1 -28 -18 -51t-48 -37q24 -8 58 -8q167 0 257 276l-401 1087l-233 -887q-25 -91 -4 -123t115 -36l-8 -33q-63 5 -167 5q-93 0 -156 -5z" />
<glyph unicode="&#x14b;" horiz-adv-x="1164" d="M-54 0l8 33q84 4 117.5 35t58.5 124l169 637q22 91 4.5 114.5t-102.5 27.5l9 33q58 -5 147 -5q62 0 125 5l380 -796l157 605q25 91 4.5 122.5t-113.5 35.5l8 33q67 -5 167 -5q95 0 155 5l-8 -33q-85 -4 -119.5 -35t-57.5 -123l-185 -702q-48 -215 -128.5 -318.5 t-199.5 -103.5q-59 0 -103 23.5t-46 67.5q-2 39 25.5 68.5t65.5 29.5q29 0 48 -19t21 -47q1 -28 -18 -51t-48 -37q24 -8 58 -8q168 0 258 277l-446 920l-190 -721q-25 -91 -4.5 -123t113.5 -36l-8 -33q-67 5 -167 5q-95 0 -155 -5z" />
<glyph unicode="&#x14c;" horiz-adv-x="1204" d="M89 373q0 110 31 225t92 221t143 189.5t192 133.5t231 50q184 0 287 -104t103 -294q0 -109 -31.5 -224t-93 -220.5t-143.5 -189t-192.5 -133.5t-230.5 -50q-184 0 -286 103.5t-102 292.5zM264 352q0 -160 63 -252.5t165 -92.5q93 0 185.5 71.5t160.5 184.5t110.5 261 t42.5 294q0 160 -63 252.5t-165 92.5q-93 0 -185.5 -71.5t-160.5 -184.5t-110.5 -261t-42.5 -294zM525 1353l10 41h581l-9 -41h-582z" />
<glyph unicode="&#x14d;" horiz-adv-x="1208" d="M76 375q0 88 30 180t88 176t136.5 150.5t183.5 106t219 39.5q186 0 296.5 -101t110.5 -297q0 -88 -30 -180t-88.5 -176t-136.5 -150.5t-183.5 -106t-219.5 -39.5q-186 0 -296 100.5t-110 297.5zM253 352q0 -179 65 -262t179 -83q131 0 240 96t167.5 243t58.5 306 q0 179 -65.5 262.5t-179.5 83.5q-80 0 -153 -36.5t-129 -100t-97.5 -145.5t-63.5 -176t-22 -188zM479 1187l10 42h581l-10 -42h-581z" />
<glyph unicode="&#x14e;" horiz-adv-x="1204" d="M89 373q0 110 31 225t92 221t143 189.5t192 133.5t231 50q184 0 287 -104t103 -294q0 -109 -31.5 -224t-93 -220.5t-143.5 -189t-192.5 -133.5t-230.5 -50q-184 0 -286 103.5t-102 292.5zM264 352q0 -160 63 -252.5t165 -92.5q93 0 185.5 71.5t160.5 184.5t110.5 261 t42.5 294q0 160 -63 252.5t-165 92.5q-93 0 -185.5 -71.5t-160.5 -184.5t-110.5 -261t-42.5 -294zM578 1483l26 8q42 -50 100.5 -69.5t151.5 -19.5q89 0 188.5 25t176.5 71l16 -18q-70 -70 -191 -129t-219 -59q-102 0 -166.5 53.5t-82.5 137.5z" />
<glyph unicode="&#x14f;" horiz-adv-x="1208" d="M76 375q0 88 30 180t88 176t136.5 150.5t183.5 106t219 39.5q186 0 296.5 -101t110.5 -297q0 -88 -30 -180t-88.5 -176t-136.5 -150.5t-183.5 -106t-219.5 -39.5q-186 0 -296 100.5t-110 297.5zM253 352q0 -179 65 -262t179 -83q131 0 240 96t167.5 243t58.5 306 q0 179 -65.5 262.5t-179.5 83.5q-80 0 -153 -36.5t-129 -100t-97.5 -145.5t-63.5 -176t-22 -188zM494 1318l26 8q42 -50 100 -69.5t151 -19.5q89 0 188.5 25t176.5 71l17 -18q-70 -70 -191 -129.5t-219 -59.5q-102 0 -166.5 54t-82.5 138z" />
<glyph unicode="&#x150;" horiz-adv-x="1204" d="M89 373q0 110 31 225t92 221t143 189.5t192 133.5t231 50q184 0 287 -104t103 -294q0 -109 -31.5 -224t-93 -220.5t-143.5 -189t-192.5 -133.5t-230.5 -50q-184 0 -286 103.5t-102 292.5zM264 352q0 -160 63 -252.5t165 -92.5q93 0 185.5 71.5t160.5 184.5t110.5 261 t42.5 294q0 160 -63 252.5t-165 92.5q-93 0 -185.5 -71.5t-160.5 -184.5t-110.5 -261t-42.5 -294zM596 1295q49 39 132 119.5t123 108.5q15 11 33 18t38 4t31 -22q23 -47 -48 -98q-41 -29 -144.5 -74.5t-154.5 -75.5zM905 1295q50 39 132 119.5t122 108.5q15 11 31.5 17.5 t37 4.5t32.5 -19q17 -24 1 -51.5t-47 -49.5q-41 -29 -144.5 -74.5t-154.5 -75.5z" />
<glyph unicode="&#x151;" horiz-adv-x="1208" d="M76 375q0 88 30 180t88 176t136.5 150.5t183.5 106t219 39.5q186 0 296.5 -101t110.5 -297q0 -88 -30 -180t-88.5 -176t-136.5 -150.5t-183.5 -106t-219.5 -39.5q-186 0 -296 100.5t-110 297.5zM253 352q0 -179 65 -262t179 -83q131 0 240 96t167.5 243t58.5 306 q0 179 -65.5 262.5t-179.5 83.5q-80 0 -153 -36.5t-129 -100t-97.5 -145.5t-63.5 -176t-22 -188zM547 1130q50 39 132 119.5t122 108.5q15 11 33 18t38 4t31 -22q24 -47 -47 -98q-41 -29 -144.5 -74.5t-154.5 -75.5zM856 1130q50 39 132 119.5t122 108.5q15 11 31.5 17.5 t37 4.5t32.5 -19q17 -24 1 -51t-48 -50q-41 -29 -144.5 -74.5t-154.5 -75.5z" />
<glyph unicode="&#x152;" horiz-adv-x="1578" d="M92 373q0 110 29.5 225t88 221t136 189.5t182.5 133.5t220 50q99 0 167 -24q205 -4 416 -4q215 0 309 5q-13 -35 -25.5 -72.5t-24 -76.5t-13.5 -46q-21 -56 -21 -102h-36q26 145 -4 202t-130 57h-137q-83 0 -113 -24t-53 -113l-104 -390h162q29 0 52.5 11t39.5 25.5 t31.5 43t24 48.5t22.5 57h37q-18 -55 -56 -201q-25 -91 -43 -202h-37q0 15 3 39t5 41t0 37.5t-10 33.5t-26.5 22.5t-48.5 11.5h-164l-106 -396q-22 -91 -5 -114t100 -23h153q117 0 178.5 62.5t117.5 229.5h36q-4 -9 -35 -119q-28 -97 -42 -211q-107 5 -357 5q-248 0 -395 -3 q-85 -25 -168 -25q-169 0 -262.5 103.5t-93.5 292.5zM268 352q0 -160 53.5 -252.5t140.5 -92.5q110 0 167.5 35.5t82.5 132.5l218 819q8 31 9 56t-4.5 42.5t-18.5 30.5t-28.5 20.5t-38.5 12t-45 6t-51 1.5q-126 0 -239 -119.5t-179.5 -307t-66.5 -384.5z" />
<glyph unicode="&#x153;" horiz-adv-x="1537" d="M73 324q0 98 27.5 198t81.5 190t127.5 161t173 112.5t209.5 41.5q55 0 132 -23q242 -5 410 -5q215 0 309 5q-42 -110 -63 -195q-10 -41 -22 -102h-36q26 145 -4 202t-130 57h-120q-83 0 -112.5 -24t-52.5 -113l-83 -307h140q29 0 52.5 11t39.5 25.5t31.5 43t24 48.5 t22.5 57h37q-17 -51 -56 -202q-25 -93 -43 -201h-37q0 15 3 39t5 41t0 37.5t-10 33.5t-26.5 22.5t-48.5 11.5h-142l-84 -314q-22 -91 -5.5 -114t99.5 -23h137q117 0 178 62.5t117 229.5h37q-4 -9 -35 -119q-30 -103 -43 -211q-102 5 -340 5q-256 0 -405 -3q-88 -25 -162 -25 q-159 0 -246 90t-87 257zM238 291q0 -137 49 -210.5t134 -73.5q46 0 83 7.5t72 25t60 52t38 83.5l175 654q25 92 -19.5 130.5t-144.5 38.5q-89 0 -173 -66.5t-143 -169.5t-95 -229t-36 -242z" />
<glyph unicode="&#x154;" horiz-adv-x="1096" d="M-55 0l7 33q86 4 116.5 28.5t53.5 113.5l218 819q25 78 7.5 109.5t-104.5 32.5l8 33q75 -5 203 -5q39 0 119 2t122 2q162 0 245.5 -62.5t83.5 -170.5q0 -136 -116.5 -235.5t-314.5 -131.5q23 -2 58 -8q105 -20 147.5 -65.5t33.5 -152.5l-13 -169q-4 -59 7 -97.5t46 -37.5 q28 1 50 34.5t47 104.5l9 23h38l-7 -22q-29 -104 -74.5 -152.5t-121.5 -48.5q-77 0 -116 46.5t-33 111.5l13 185q5 52 0 91t-20.5 66t-51 44t-91 25t-139.5 9l-101 -380q-26 -76 -9 -108.5t107 -33.5l-7 -33q-85 5 -205 5q-138 0 -215 -5zM385 588h49q115 0 198.5 27.5 t131.5 77.5t70.5 112.5t22.5 139.5q0 98 -50 144.5t-160 46.5q-72 0 -102 -28.5t-53 -113.5zM647 1293q90 61 188.5 137t135.5 98q18 11 39 16t41.5 -0.5t28.5 -24.5q10 -24 -7.5 -48.5t-46.5 -40.5q-35 -21 -151.5 -64t-215.5 -91z" />
<glyph unicode="&#x155;" horiz-adv-x="1068" d="M-53 0l7 33q86 4 116.5 28.5t53.5 113.5l175 654q12 48 11.5 78.5t-25.5 45.5t-84 18l9 33q75 -5 203 -5q39 0 119 2t122 2q162 0 245.5 -53.5t83.5 -146.5q0 -124 -112.5 -208t-307.5 -111l35 -5q104 -20 147.5 -66.5t37.5 -151.5l-5 -88q-4 -69 6.5 -102.5t46.5 -32.5 q28 1 50 34.5t47 104.5l8 23h38l-6 -22q-29 -102 -77.5 -151.5t-125.5 -49.5q-76 0 -110.5 45.5t-30.5 112.5l7 104q4 64 -3 103t-33 69t-76 43.5t-133 17.5h-9h-22l-79 -297q-12 -49 -13.5 -79.5t23 -45t87.5 -17.5l-6 -33q-85 5 -205 5q-138 0 -215 -5zM365 505h28 q233 0 328 71.5t95 236.5q0 81 -50 119.5t-160 38.5q-72 0 -102 -28.5t-53 -113.5zM505 1128q90 61 188.5 137t135.5 98q18 11 39 16t41.5 -0.5t28.5 -24.5q10 -24 -7.5 -48.5t-46.5 -40.5q-35 -21 -151.5 -64t-215.5 -91z" />
<glyph unicode="&#x156;" horiz-adv-x="1096" d="M-55 0l7 33q86 4 116.5 28.5t53.5 113.5l218 819q25 78 7.5 109.5t-104.5 32.5l8 33q75 -5 203 -5q39 0 119 2t122 2q162 0 245.5 -62.5t83.5 -170.5q0 -136 -116.5 -235.5t-314.5 -131.5q23 -2 58 -8q105 -20 147.5 -65.5t33.5 -152.5l-13 -169q-4 -59 7 -97.5t46 -37.5 q28 1 50 34.5t47 104.5l9 23h38l-7 -22q-29 -104 -74.5 -152.5t-121.5 -48.5q-77 0 -116 46.5t-33 111.5l13 185q5 52 0 91t-20.5 66t-51 44t-91 25t-139.5 9l-101 -380q-26 -76 -9 -108.5t107 -33.5l-7 -33q-85 5 -205 5q-138 0 -215 -5zM348 -221q0 40 30 73.5t78 33.5 q42 0 66.5 -27t24.5 -69q0 -62 -34.5 -109t-127.5 -79l-12 28q45 13 82 41.5t40 64.5q-31 -27 -72 -27q-33 0 -54 18.5t-21 51.5zM385 588h49q115 0 198.5 27.5t131.5 77.5t70.5 112.5t22.5 139.5q0 98 -50 144.5t-160 46.5q-72 0 -102 -28.5t-53 -113.5z" />
<glyph unicode="&#x157;" horiz-adv-x="1068" d="M-53 0l7 33q86 4 116.5 28.5t53.5 113.5l175 654q12 48 11.5 78.5t-25.5 45.5t-84 18l9 33q75 -5 203 -5q39 0 119 2t122 2q162 0 245.5 -53.5t83.5 -146.5q0 -124 -112.5 -208t-307.5 -111l35 -5q104 -20 147.5 -66.5t37.5 -151.5l-5 -88q-4 -69 6.5 -102.5t46.5 -32.5 q28 1 50 34.5t47 104.5l8 23h38l-6 -22q-29 -102 -77.5 -151.5t-125.5 -49.5q-76 0 -110.5 45.5t-30.5 112.5l7 104q4 64 -3 103t-33 69t-76 43.5t-133 17.5h-9h-22l-79 -297q-12 -49 -13.5 -79.5t23 -45t87.5 -17.5l-6 -33q-85 5 -205 5q-138 0 -215 -5zM324 -221 q0 40 29.5 73.5t77.5 33.5q42 0 66.5 -27t24.5 -69q0 -62 -34.5 -109t-127.5 -79l-11 28q45 13 82 41.5t40 64.5q-31 -27 -73 -27q-33 0 -53.5 18.5t-20.5 51.5zM365 505h28q233 0 328 71.5t95 236.5q0 81 -50 119.5t-160 38.5q-72 0 -102 -28.5t-53 -113.5z" />
<glyph unicode="&#x158;" horiz-adv-x="1096" d="M-55 0l7 33q86 4 116.5 28.5t53.5 113.5l218 819q25 78 7.5 109.5t-104.5 32.5l8 33q75 -5 203 -5q39 0 119 2t122 2q162 0 245.5 -62.5t83.5 -170.5q0 -136 -116.5 -235.5t-314.5 -131.5q23 -2 58 -8q105 -20 147.5 -65.5t33.5 -152.5l-13 -169q-4 -59 7 -97.5t46 -37.5 q28 1 50 34.5t47 104.5l9 23h38l-7 -22q-29 -104 -74.5 -152.5t-121.5 -48.5q-77 0 -116 46.5t-33 111.5l13 185q5 52 0 91t-20.5 66t-51 44t-91 25t-139.5 9l-101 -380q-26 -76 -9 -108.5t107 -33.5l-7 -33q-85 5 -205 5q-138 0 -215 -5zM385 588h49q115 0 198.5 27.5 t131.5 77.5t70.5 112.5t22.5 139.5q0 98 -50 144.5t-160 46.5q-72 0 -102 -28.5t-53 -113.5zM426 1503l7 23q31 -6 58 -12t53 -15.5t41 -14.5t40.5 -17.5t32 -15.5t35.5 -19t32 -18q188 79 340 112l9 -23q-119 -37 -222.5 -94.5t-166.5 -120.5h-29q-46 79 -98.5 131 t-131.5 84z" />
<glyph unicode="&#x159;" horiz-adv-x="1068" d="M-53 0l7 33q86 4 116.5 28.5t53.5 113.5l175 654q12 48 11.5 78.5t-25.5 45.5t-84 18l9 33q75 -5 203 -5q39 0 119 1.5t122 1.5q162 0 245.5 -53t83.5 -146q0 -124 -112.5 -208t-307.5 -111l35 -5q104 -20 147.5 -66.5t37.5 -151.5l-5 -88q-4 -69 6.5 -102.5t46.5 -32.5 q28 1 50 34.5t47 104.5l8 23h38l-6 -22q-29 -102 -77.5 -151.5t-125.5 -49.5q-76 0 -110.5 45.5t-30.5 112.5l7 104q4 64 -3 103t-33 69t-76 43.5t-133 17.5h-9h-22l-79 -297q-12 -49 -13.5 -79.5t23 -45t87.5 -17.5l-6 -33q-85 5 -205 5q-138 0 -215 -5zM365 505h28 q233 0 328 71.5t95 236.5q0 81 -50 119.5t-160 38.5q-72 0 -102 -28.5t-53 -113.5zM383 1338l7 23q31 -6 58 -12t53 -15.5t41 -14.5t40.5 -17.5t32 -15.5t35.5 -19t32 -18q188 79 340 112l9 -23q-119 -37 -222.5 -94.5t-166.5 -120.5h-29q-46 79 -98.5 131t-131.5 84z" />
<glyph unicode="&#x15a;" horiz-adv-x="914" d="M-30 -12q55 130 113 397h33q-17 -96 -15 -134q11 -241 269 -241q113 0 178 51t65 155q0 56 -21 107t-55 91t-74.5 79t-81 79t-74.5 82.5t-55 98t-21 117.5q0 102 54.5 177t135.5 110t174 35q68 0 117 -16t97 -53q39 -30 55 -30q24 0 54 88h33q-59 -148 -97 -337h-33 q10 44 10 94q0 98 -58.5 160.5t-176.5 62.5q-104 0 -167.5 -53t-63.5 -157q0 -50 23 -99.5t60 -91t81.5 -83t89 -84.5t81.5 -86.5t60 -97t23 -108.5q0 -66 -25 -121t-66.5 -92t-96.5 -62.5t-113 -37t-117 -11.5q-61 0 -111.5 14t-73.5 27.5t-50 34.5q-31 25 -59 25 q-19 0 -33 -20t-35 -70h-33zM614 1293q90 61 188.5 137t135.5 98q18 11 39 16t41.5 -0.5t28.5 -24.5q10 -24 -7.5 -48.5t-46.5 -40.5q-35 -21 -151.5 -64t-215.5 -91z" />
<glyph unicode="&#x15b;" horiz-adv-x="929" d="M-28 -12q53 125 112 397h33q-17 -96 -15 -134q8 -241 273 -241q111 0 175 43.5t64 133.5q0 44 -14.5 81t-45.5 69.5t-57.5 53.5t-73.5 53q-106 72 -141 107q-84 82 -84 187q0 135 109 212t259 77q68 0 114.5 -17t95.5 -52q42 -30 55 -30q24 0 54 88h33q-59 -148 -97 -337 h-33q10 44 10 92q0 99 -58 162t-180 63q-101 0 -164.5 -44.5t-63.5 -130.5q0 -42 15.5 -78t50 -69.5t65 -56t84.5 -57.5q51 -33 74 -49t61.5 -48t56 -57.5t32 -63t14.5 -78.5q0 -72 -38 -129t-100 -90t-133.5 -50.5t-145.5 -17.5q-62 0 -112 13.5t-72.5 27t-51.5 35.5 q-33 25 -58 25q-21 0 -34 -19t-35 -71h-33zM495 1128q90 61 188.5 137t135.5 98q18 11 39 16t41.5 -0.5t28.5 -24.5q10 -24 -7.5 -48.5t-46.5 -40.5q-35 -21 -151.5 -64t-215.5 -91z" />
<glyph unicode="&#x15c;" horiz-adv-x="914" d="M-30 -12q55 130 113 397h33q-17 -96 -15 -134q11 -241 269 -241q113 0 178 51t65 155q0 56 -21 107t-55 91t-74.5 79t-81 79t-74.5 82.5t-55 98t-21 117.5q0 102 54.5 177t135.5 110t174 35q68 0 117 -16t97 -53q39 -30 55 -30q24 0 54 88h33q-59 -148 -97 -337h-33 q10 44 10 94q0 98 -58.5 160.5t-176.5 62.5q-104 0 -167.5 -53t-63.5 -157q0 -50 23 -99.5t60 -91t81.5 -83t89 -84.5t81.5 -86.5t60 -97t23 -108.5q0 -66 -25 -121t-66.5 -92t-96.5 -62.5t-113 -37t-117 -11.5q-61 0 -111.5 14t-73.5 27.5t-50 34.5q-31 25 -59 25 q-19 0 -33 -20t-35 -70h-33zM309 1298q119 37 222 94.5t166 120.5h30q47 -80 99 -131.5t130 -83.5l-6 -23q-27 5 -53 11.5t-44.5 11.5t-41 14t-34 13t-33.5 15t-28.5 14.5t-30 16.5t-28.5 16q-188 -79 -340 -112z" />
<glyph unicode="&#x15d;" horiz-adv-x="929" d="M-28 -12q53 125 112 397h33q-17 -96 -15 -134q8 -241 273 -241q111 0 175 43.5t64 133.5q0 44 -14.5 81t-45.5 69.5t-57.5 53.5t-73.5 53q-106 72 -141 107q-84 82 -84 187q0 91 54 158.5t136.5 99t178.5 31.5q68 0 114 -16.5t95 -52.5q42 -30 55 -30q24 0 54 88h33 q-59 -148 -97 -337h-33q10 44 10 92q0 99 -58 162t-180 63q-101 0 -164.5 -44.5t-63.5 -130.5q0 -42 15.5 -78t50 -69.5t65 -56t84.5 -57.5q51 -33 74 -49t61.5 -48t56 -57.5t32 -63t14.5 -78.5q0 -72 -38 -129t-100 -90t-133.5 -50.5t-145.5 -17.5q-62 0 -112 13.5 t-72.5 27t-51.5 35.5q-33 25 -58 25q-21 0 -34 -19t-35 -71h-33zM292 1133q119 37 222 94.5t166 120.5h30q46 -79 98.5 -131t131.5 -84l-7 -23q-31 6 -58 12t-53 15.5t-41 14.5t-40.5 17.5t-32 15.5t-35.5 19t-32 18q-188 -79 -340 -112z" />
<glyph unicode="&#x15e;" horiz-adv-x="914" d="M-30 -12q55 130 113 397h33q-17 -96 -15 -134q11 -241 269 -241q113 0 178 51t65 155q0 56 -21 107t-55 91t-74.5 79t-81 79t-74.5 82.5t-55 98t-21 117.5q0 102 54.5 177t135.5 110t174 35q68 0 117 -16t97 -53q39 -30 55 -30q24 0 54 88h33q-59 -148 -97 -337h-33 q10 44 10 94q0 98 -58.5 160.5t-176.5 62.5q-104 0 -167.5 -53t-63.5 -157q0 -50 23 -99.5t60 -91t81.5 -83t89 -84.5t81.5 -86.5t60 -97t23 -108.5q0 -66 -25 -121t-66.5 -92t-96.5 -62.5t-113 -37t-117 -11.5h-2l-44 -96q39 12 84 12q41 0 64.5 -17.5t23.5 -48.5 q0 -45 -42 -77.5t-98 -46.5t-113 -14q-107 0 -165 37l11 25q53 -22 132 -22q22 0 48 4t54.5 13t47.5 26.5t19 40.5q0 40 -63 40q-30 0 -68 -12l66 138q-108 8 -190 74q-31 25 -59 25q-19 0 -33 -20t-35 -70h-33z" />
<glyph unicode="&#x15f;" horiz-adv-x="929" d="M-28 -12q53 125 112 397h33q-17 -96 -15 -134q8 -241 273 -241q111 0 175 43.5t64 133.5q0 44 -14.5 81t-45.5 69.5t-57.5 53.5t-73.5 53q-106 72 -141 107q-84 82 -84 187q0 135 109 212t259 77q68 0 114.5 -17t95.5 -52q42 -30 55 -30q24 0 54 88h33q-59 -148 -97 -337 h-33q10 44 10 92q0 99 -58 162t-180 63q-101 0 -164.5 -44.5t-63.5 -130.5q0 -42 15.5 -78t50 -69.5t65 -56t84.5 -57.5q51 -33 74 -49t61.5 -48t56 -57.5t32 -63t14.5 -78.5q0 -71 -36.5 -127t-96.5 -89.5t-129.5 -51.5t-142.5 -19l-46 -96q39 12 84 12q41 0 64 -17.5 t23 -48.5q0 -45 -42 -77.5t-97.5 -46.5t-112.5 -14q-107 0 -165 37l11 25q53 -22 132 -22q22 0 48 4t54.5 13t47.5 26.5t19 40.5q0 40 -63 40q-31 0 -68 -12l66 138q-51 3 -93.5 16.5t-62.5 25.5t-47 32q-33 25 -58 25q-21 0 -34 -19t-35 -71h-33z" />
<glyph unicode="&#x160;" horiz-adv-x="914" d="M-30 -12q55 130 113 397h33q-17 -96 -15 -134q11 -241 269 -241q113 0 178 51t65 155q0 56 -21 107t-55 91t-74.5 79t-81 79t-74.5 82.5t-55 98t-21 117.5q0 102 54.5 177t135.5 110t174 35q68 0 117 -16t97 -53q39 -30 55 -30q24 0 54 88h33q-59 -148 -97 -337h-33 q10 44 10 94q0 98 -58.5 160.5t-176.5 62.5q-104 0 -167.5 -53t-63.5 -157q0 -50 23 -99.5t60 -91t81.5 -83t89 -84.5t81.5 -86.5t60 -97t23 -108.5q0 -66 -25 -121t-66.5 -92t-96.5 -62.5t-113 -37t-117 -11.5q-61 0 -111.5 14t-73.5 27.5t-50 34.5q-31 25 -59 25 q-19 0 -33 -20t-35 -70h-33zM393 1503l7 23q31 -6 58 -12t53 -15.5t41 -14.5t40.5 -17.5t32 -15.5t35.5 -19t32 -18q188 79 340 112l9 -23q-119 -37 -222.5 -94.5t-166.5 -120.5h-29q-46 79 -98.5 131t-131.5 84z" />
<glyph unicode="&#x161;" horiz-adv-x="929" d="M-28 -12q53 125 112 397h33q-17 -96 -15 -134q8 -241 273 -241q111 0 175 43.5t64 133.5q0 44 -14.5 81t-45.5 69.5t-57.5 53.5t-73.5 53q-106 72 -141 107q-84 82 -84 187q0 135 109 212t259 77q68 0 114.5 -17t95.5 -52q42 -30 55 -30q24 0 54 88h33q-59 -148 -97 -337 h-33q10 44 10 92q0 99 -58 162t-180 63q-101 0 -164.5 -44.5t-63.5 -130.5q0 -42 15.5 -78t50 -69.5t65 -56t84.5 -57.5q51 -33 74 -49t61.5 -48t56 -57.5t32 -63t14.5 -78.5q0 -72 -38 -129t-100 -90t-133.5 -50.5t-145.5 -17.5q-62 0 -112 13.5t-72.5 27t-51.5 35.5 q-33 25 -58 25q-21 0 -34 -19t-35 -71h-33zM373 1338l7 23q31 -6 58 -12t53 -15.5t41 -14.5t40.5 -17.5t32 -15.5t35.5 -19t32 -18q188 79 340 112l9 -23q-119 -37 -222 -94.5t-166 -120.5h-30q-46 79 -98.5 131t-131.5 84z" />
<glyph unicode="&#x162;" horiz-adv-x="1088" d="M164 1009q0 87 87 129q78 38 221 38q99 0 274 -23t270 -23q142 0 213 36q-41 41 -41 93q0 37 20.5 63.5t59.5 26.5q37 0 56 -22.5t19 -56.5q0 -72 -78 -119q-86 -54 -261 -54q-82 0 -168 11l-245 -916q-27 -95 -3.5 -126t127.5 -33l-6 -33q-88 5 -222 5l-59 -124 q39 12 84 12q41 0 64.5 -17.5t23.5 -48.5q0 -45 -42 -77.5t-98 -46.5t-113 -14q-107 0 -165 37l11 25q53 -22 132 -22q22 0 48 4t54.5 13t47.5 26.5t19 40.5q0 40 -63 40q-31 0 -68 -12l80 164q-139 0 -222 -5l7 33q102 4 142 35.5t68 123.5l249 936q-131 18 -213 18 q-142 0 -185 -28q30 -41 30 -96q0 -38 -21.5 -66.5t-61.5 -28.5q-35 0 -53.5 22t-18.5 60z" />
<glyph unicode="&#x163;" horiz-adv-x="1009" d="M127 844q0 84 86 129q72 38 187 38q92 0 258.5 -23t251.5 -23q110 0 183 36q-41 41 -41 92q0 37 21 64t60 27q36 0 55 -22t19 -55q0 -68 -76 -123q-92 -53 -228 -53q-57 0 -140 9l-216 -748q-28 -91 -4 -124.5t127 -34.5l-6 -33q-88 5 -218 5l-60 -124q39 12 85 12 q41 0 64 -17.5t23 -48.5q0 -45 -42 -77.5t-97.5 -46.5t-112.5 -14q-108 0 -166 37l12 25q53 -22 132 -22q22 0 48 4t54.5 13t47.5 26.5t19 40.5q0 40 -63 40q-30 0 -68 -12l79 164q-141 0 -224 -5l6 33q104 4 143.5 34t66.5 125l223 769q-146 20 -208 20q-106 0 -155 -28 q29 -39 29 -96q0 -38 -21 -67t-61 -29q-34 0 -53.5 22.5t-19.5 60.5z" />
<glyph unicode="&#x164;" horiz-adv-x="1088" d="M164 1009q0 87 87 129q78 38 221 38q99 0 274 -23t270 -23q142 0 213 36q-41 41 -41 93q0 37 20.5 63.5t59.5 26.5q37 0 56 -22.5t19 -56.5q0 -72 -78 -119q-86 -54 -261 -54q-82 0 -168 11l-245 -916q-27 -95 -3.5 -126t127.5 -33l-6 -33q-97 5 -247 5q-153 0 -241 -5 l7 33q102 4 142 35.5t68 123.5l249 936q-131 18 -213 18q-142 0 -185 -28q30 -41 30 -96q0 -38 -21.5 -66.5t-61.5 -28.5q-35 0 -53.5 22t-18.5 60zM530 1503l7 23q31 -6 58 -12t53 -15.5t41 -14.5t40.5 -17.5t32 -15.5t35.5 -19t32 -18q188 79 340 112l9 -23 q-119 -37 -222.5 -94.5t-166.5 -120.5h-29q-46 79 -98.5 131t-131.5 84z" />
<glyph unicode="&#x165;" horiz-adv-x="1009" d="M127 844q0 84 86 129q72 38 187 38q92 0 258.5 -23t251.5 -23q110 0 183 36q-41 41 -41 92q0 37 21 64t60 27q36 0 55 -22t19 -55q0 -68 -76 -123q-92 -53 -228 -53q-57 0 -140 9l-216 -748q-28 -91 -3.5 -124.5t127.5 -34.5l-7 -33q-97 5 -246 5q-153 0 -241 -5l6 33 q104 4 143.5 34t66.5 125l223 769q-146 20 -208 20q-106 0 -155 -28q29 -39 29 -96q0 -38 -21 -67t-61 -29q-34 0 -53.5 22.5t-19.5 60.5zM438 1338l6 23q27 -5 53 -11.5t44.5 -11.5t41 -14t34 -13t33.5 -15t28.5 -14.5t30 -16.5t28.5 -16q188 79 340 112l8 -23 q-119 -37 -222 -94.5t-166 -120.5h-30q-47 80 -99 131.5t-130 83.5z" />
<glyph unicode="&#x166;" horiz-adv-x="1088" d="M164 1009q0 87 87 129q78 38 221 38q99 0 274 -23t270 -23q142 0 213 36q-41 41 -41 93q0 37 20.5 63.5t59.5 26.5q37 0 56 -22.5t19 -56.5q0 -72 -78 -119q-86 -54 -261 -54q-82 0 -168 11l-134 -504h251l-10 -41h-253l-99 -371q-27 -95 -3.5 -126t127.5 -33l-6 -33 q-97 5 -247 5q-153 0 -241 -5l7 33q102 4 142 35.5t68 123.5l99 371h-274l10 41h275l139 524q-131 18 -213 18q-142 0 -185 -28q30 -41 30 -96q0 -38 -21.5 -66.5t-61.5 -28.5q-35 0 -53.5 22t-18.5 60z" />
<glyph unicode="&#x167;" horiz-adv-x="1009" d="M127 844q0 84 86 129q72 38 187 38q92 0 258.5 -23t251.5 -23q110 0 183 36q-41 41 -41 92q0 37 21 64t60 27q36 0 55 -22t19 -55q0 -68 -76 -123q-91 -52 -228 -52q-66 0 -140 8l-144 -496h251l-10 -41h-252l-61 -211q-28 -91 -3.5 -124.5t127.5 -34.5l-7 -33 q-97 5 -246 5q-153 0 -241 -5l6 33q104 4 143.5 34t66.5 125l61 211h-274l10 41h276l150 517q-146 20 -208 20q-106 0 -155 -28q29 -39 29 -96q0 -38 -21 -67t-61 -29q-34 0 -53.5 22.5t-19.5 60.5z" />
<glyph unicode="&#x168;" horiz-adv-x="1126" d="M137 229q-1 99 41 247l137 518q22 91 5 114.5t-102 27.5l10 33q75 -5 213 -5q118 0 206 5l-9 -33q-87 -4 -117.5 -28.5t-53.5 -113.5l-145 -546q-19 -75 -28.5 -130.5t-7 -111.5t21.5 -91.5t62.5 -57.5t110.5 -22q90 0 161 31.5t121 91t84.5 133.5t59.5 171l135 516 q23 89 -1 121.5t-109 36.5l8 33q63 -5 167 -5q92 0 155 5l-8 -33q-85 -4 -118.5 -35t-56.5 -123l-129 -497q-60 -230 -162 -351q-61 -71 -149.5 -112t-189.5 -41q-176 0 -254 89q-57 64 -58 163zM509 1308q36 86 93.5 128t120.5 42q50 0 91.5 -19t65 -41t57.5 -41t72 -19 q64 0 116 95l29 -8q-36 -86 -93.5 -128t-120.5 -42q-50 0 -91.5 19t-65 41.5t-57.5 41.5t-72 19q-63 0 -116 -96z" />
<glyph unicode="&#x169;" horiz-adv-x="1128" d="M135 221.5q-3 87.5 42 254.5l94 353q22 91 4.5 114.5t-102.5 27.5l10 33q75 -5 213 -5q119 0 207 5l-10 -33q-87 -4 -117 -28.5t-53 -113.5l-103 -381q-19 -75 -28.5 -130.5t-7 -111.5t21.5 -91.5t62.5 -57.5t110.5 -22q90 0 161 31.5t121 91t84.5 133.5t59.5 171l94 351 q24 89 -0.5 121.5t-109.5 36.5l8 33q67 -5 167 -5q95 0 155 5l-8 -33q-75 -4 -113 -36.5t-62 -121.5l-88 -332q-60 -230 -162 -351q-61 -71 -149.5 -112t-188.5 -41q-186 0 -255 89q-55 68 -58 155.5zM415 1143q36 86 93.5 128t120.5 42q50 0 91.5 -19t65 -41.5t57.5 -41.5 t72 -19q63 0 116 96l29 -8q-36 -86 -93.5 -128t-120.5 -42q-50 0 -91.5 19t-65 41t-57.5 41t-72 19q-64 0 -116 -95z" />
<glyph unicode="&#x16a;" horiz-adv-x="1126" d="M137 229q-1 99 41 247l137 518q22 91 5 114.5t-102 27.5l10 33q75 -5 213 -5q118 0 206 5l-9 -33q-87 -4 -117.5 -28.5t-53.5 -113.5l-145 -546q-19 -75 -28.5 -130.5t-7 -111.5t21.5 -91.5t62.5 -57.5t110.5 -22q90 0 161 31.5t121 91t84.5 133.5t59.5 171l135 516 q23 89 -1 121.5t-109 36.5l8 33q63 -5 167 -5q92 0 155 5l-8 -33q-85 -4 -118.5 -35t-56.5 -123l-129 -497q-60 -230 -162 -351q-61 -71 -149.5 -112t-189.5 -41q-176 0 -254 89q-57 64 -58 163zM492 1353l10 41h581l-9 -41h-582z" />
<glyph unicode="&#x16b;" horiz-adv-x="1128" d="M135 221.5q-3 87.5 42 254.5l94 353q22 91 4.5 114.5t-102.5 27.5l10 33q75 -5 213 -5q119 0 207 5l-10 -33q-87 -4 -117 -28.5t-53 -113.5l-103 -381q-19 -75 -28.5 -130.5t-7 -111.5t21.5 -91.5t62.5 -57.5t110.5 -22q90 0 161 31.5t121 91t84.5 133.5t59.5 171l94 351 q24 89 -0.5 121.5t-109.5 36.5l8 33q67 -5 167 -5q95 0 155 5l-8 -33q-75 -4 -113 -36.5t-62 -121.5l-88 -332q-60 -230 -162 -351q-61 -71 -149.5 -112t-188.5 -41q-186 0 -255 89q-55 68 -58 155.5zM436 1187l10 42h581l-10 -42h-581z" />
<glyph unicode="&#x16c;" horiz-adv-x="1126" d="M137 229q-1 99 41 247l137 518q22 91 5 114.5t-102 27.5l10 33q75 -5 213 -5q118 0 206 5l-9 -33q-87 -4 -117.5 -28.5t-53.5 -113.5l-145 -546q-19 -75 -28.5 -130.5t-7 -111.5t21.5 -91.5t62.5 -57.5t110.5 -22q90 0 161 31.5t121 91t84.5 133.5t59.5 171l135 516 q23 89 -1 121.5t-109 36.5l8 33q63 -5 167 -5q92 0 155 5l-8 -33q-85 -4 -118.5 -35t-56.5 -123l-129 -497q-60 -230 -162 -351q-61 -71 -149.5 -112t-189.5 -41q-176 0 -254 89q-57 64 -58 163zM545 1483l26 8q42 -50 100.5 -69.5t151.5 -19.5q89 0 188.5 25t176.5 71 l16 -18q-70 -70 -191 -129t-219 -59q-102 0 -166.5 53.5t-82.5 137.5z" />
<glyph unicode="&#x16d;" horiz-adv-x="1128" d="M135 221.5q-3 87.5 42 254.5l94 353q22 91 4.5 114.5t-102.5 27.5l10 33q75 -5 213 -5q119 0 207 5l-10 -33q-87 -4 -117 -28.5t-53 -113.5l-103 -381q-19 -75 -28.5 -130.5t-7 -111.5t21.5 -91.5t62.5 -57.5t110.5 -22q90 0 161 31.5t121 91t84.5 133.5t59.5 171l94 351 q24 89 -0.5 121.5t-109.5 36.5l8 33q67 -5 167 -5q95 0 155 5l-8 -33q-75 -4 -113 -36.5t-62 -121.5l-88 -332q-60 -230 -162 -351q-61 -71 -149.5 -112t-188.5 -41q-186 0 -255 89q-55 68 -58 155.5zM451 1318l26 8q42 -50 100 -69.5t151 -19.5q89 0 188.5 25t176.5 71 l17 -18q-70 -70 -191 -129.5t-219 -59.5q-102 0 -166.5 54t-82.5 138z" />
<glyph unicode="&#x16e;" horiz-adv-x="1126" d="M137 229q-1 99 41 247l137 518q22 91 5 114.5t-102 27.5l10 33q75 -5 213 -5q118 0 206 5l-9 -33q-87 -4 -117.5 -28.5t-53.5 -113.5l-145 -546q-19 -75 -28.5 -130.5t-7 -111.5t21.5 -91.5t62.5 -57.5t110.5 -22q90 0 161 31.5t121 91t84.5 133.5t59.5 171l135 516 q23 89 -1 121.5t-109 36.5l8 33q63 -5 167 -5q92 0 155 5l-8 -33q-85 -4 -118.5 -35t-56.5 -123l-129 -497q-60 -230 -162 -351q-61 -71 -149.5 -112t-189.5 -41q-176 0 -254 89q-57 64 -58 163zM654 1358q0 72 52.5 121t127.5 49q61 0 101.5 -36.5t40.5 -95.5 q0 -69 -56 -120t-129 -51q-60 0 -98.5 36t-38.5 97zM697 1359q0 -47 30 -73t71 -26q53 0 94 39.5t41 97.5q0 44 -32 70t-74 26q-51 0 -90.5 -41t-39.5 -93z" />
<glyph unicode="&#x16f;" horiz-adv-x="1128" d="M135 221.5q-3 87.5 42 254.5l94 353q22 91 4.5 114.5t-102.5 27.5l10 33q75 -5 213 -5q119 0 207 5l-10 -33q-87 -4 -117 -28.5t-53 -113.5l-103 -381q-19 -75 -28.5 -130.5t-7 -111.5t21.5 -91.5t62.5 -57.5t110.5 -22q90 0 161 31.5t121 91t84.5 133.5t59.5 171l94 351 q24 89 -0.5 121.5t-109.5 36.5l8 33q67 -5 167 -5q95 0 155 5l-8 -33q-75 -4 -113 -36.5t-62 -121.5l-88 -332q-60 -230 -162 -351q-61 -71 -149.5 -112t-188.5 -41q-186 0 -255 89q-55 68 -58 155.5zM616 1192q0 72 52.5 121.5t127.5 49.5q61 0 101.5 -36.5t40.5 -96.5 q0 -69 -56 -119.5t-129 -50.5q-60 0 -98.5 35.5t-38.5 96.5zM659 1194q0 -47 30 -73t71 -26q53 0 94 39.5t41 97.5q0 44 -32 70t-74 26q-51 0 -90.5 -41t-39.5 -93z" />
<glyph unicode="&#x170;" horiz-adv-x="1126" d="M137 229q-1 99 41 247l137 518q22 91 5 114.5t-102 27.5l10 33q75 -5 213 -5q118 0 206 5l-9 -33q-87 -4 -117.5 -28.5t-53.5 -113.5l-145 -546q-19 -75 -28.5 -130.5t-7 -111.5t21.5 -91.5t62.5 -57.5t110.5 -22q90 0 161 31.5t121 91t84.5 133.5t59.5 171l135 516 q23 89 -1 121.5t-109 36.5l8 33q63 -5 167 -5q92 0 155 5l-8 -33q-85 -4 -118.5 -35t-56.5 -123l-129 -497q-60 -230 -162 -351q-61 -71 -149.5 -112t-189.5 -41q-176 0 -254 89q-57 64 -58 163zM563 1295q49 39 132 119.5t123 108.5q15 11 33 18t38 4t31 -22 q23 -47 -48 -98q-41 -29 -144.5 -74.5t-154.5 -75.5zM872 1295q50 39 132 119.5t122 108.5q15 11 31.5 17.5t37 4.5t32.5 -19q17 -24 1 -51.5t-47 -49.5q-41 -29 -144.5 -74.5t-154.5 -75.5z" />
<glyph unicode="&#x171;" horiz-adv-x="1128" d="M135 221.5q-3 87.5 42 254.5l94 353q22 91 4.5 114.5t-102.5 27.5l10 33q75 -5 213 -5q119 0 207 5l-10 -33q-87 -4 -117 -28.5t-53 -113.5l-103 -381q-19 -75 -28.5 -130.5t-7 -111.5t21.5 -91.5t62.5 -57.5t110.5 -22q90 0 161 31.5t121 91t84.5 133.5t59.5 171l94 351 q24 89 -0.5 121.5t-109.5 36.5l8 33q67 -5 167 -5q95 0 155 5l-8 -33q-75 -4 -113 -36.5t-62 -121.5l-88 -332q-60 -230 -162 -351q-61 -71 -149.5 -112t-188.5 -41q-186 0 -255 89q-55 68 -58 155.5zM504 1130q50 39 132 119.5t122 108.5q15 11 33 18t38 4t31 -22 q24 -47 -47 -98q-41 -29 -144.5 -74.5t-154.5 -75.5zM813 1130q50 39 132 119.5t122 108.5q15 11 31.5 17.5t37 4.5t32.5 -19q17 -24 1 -51t-48 -50q-41 -29 -144.5 -74.5t-154.5 -75.5z" />
<glyph unicode="&#x172;" horiz-adv-x="1126" d="M137 229q-1 99 41 247l137 518q22 91 5 114.5t-102 27.5l10 33q75 -5 213 -5q118 0 206 5l-9 -33q-87 -4 -117.5 -28.5t-53.5 -113.5l-145 -546q-19 -75 -28.5 -130.5t-7 -111.5t21.5 -91.5t62.5 -57.5t110.5 -22q90 0 161 31.5t121 91t84.5 133.5t59.5 171l135 516 q23 89 -1 121.5t-109 36.5l8 33q63 -5 167 -5q92 0 155 5l-8 -33q-85 -4 -118.5 -35t-56.5 -123l-129 -497q-60 -230 -162 -351q-88 -103 -225 -138q-65 -26 -109 -67t-44 -95q0 -61 64 -61q32 0 68 13t59 30l18 -28q-99 -95 -213 -95q-59 0 -90.5 25.5t-31.5 70.5 q0 110 187 192h-22q-176 0 -254 89q-57 64 -58 163z" />
<glyph unicode="&#x173;" horiz-adv-x="1128" d="M135 221.5q-3 87.5 42 254.5l94 353q22 91 4.5 114.5t-102.5 27.5l10 33q75 -5 213 -5q119 0 207 5l-10 -33q-87 -4 -117 -28.5t-53 -113.5l-103 -381q-19 -75 -28.5 -130.5t-7 -111.5t21.5 -91.5t62.5 -57.5t110.5 -22q90 0 161 31.5t121 91t84.5 133.5t59.5 171l94 351 q24 89 -0.5 121.5t-109.5 36.5l8 33q67 -5 167 -5q95 0 155 5l-8 -33q-75 -4 -113 -36.5t-62 -121.5l-88 -332q-60 -230 -162 -351q-96 -112 -244 -143q-61 -26 -101.5 -66t-40.5 -91q0 -61 64 -61q32 0 68 13t59 30l18 -28q-98 -94 -213 -94q-60 0 -91 25.5t-31 69.5 q0 111 185 192h-11q-186 0 -255 89q-55 68 -58 155.5z" />
<glyph unicode="&#x174;" horiz-adv-x="1489" d="M142 1136l7 33q75 -5 163 -5q112 0 179 5l-7 -33q-59 -4 -80.5 -31.5t-12.5 -106.5l93 -788l345 586l-36 235q-16 101 -75 105l7 33q67 -5 147 -5q134 0 211 5l-6 -33q-88 -4 -113.5 -29.5t-12.5 -108.5l119 -752l322 656q47 95 52.5 145t-23.5 68.5t-101 20.5l8 33 q102 -5 188 -5q68 0 126 5l-9 -33q-97 -21 -156 -143l-494 -1001h-27l-119 753l-447 -753h-27l-130 1039q-14 101 -91 105zM619 1298q119 37 222 94.5t166 120.5h30q46 -79 98.5 -131t131.5 -84l-7 -23q-31 6 -58 12t-53 15.5t-41 14.5t-40.5 17.5t-32 15.5t-35.5 19t-32 18 q-188 -79 -340 -112z" />
<glyph unicode="&#x175;" horiz-adv-x="1496" d="M119 971l7 33q75 -5 163 -5q111 0 178 5l-6 -33q-59 -4 -80.5 -32t-12.5 -107l71 -621l342 578l-11 76q-16 102 -75 106l7 33q67 -5 147 -5q134 0 211 5l-6 -33q-89 -4 -115 -30t-11 -109l106 -621l310 511q58 96 70.5 151t-11.5 75t-83 23l8 33q55 -5 150 -5 q101 0 144 5l-8 -33q-52 -16 -91.5 -51t-85.5 -112l-499 -816h-26l-123 748l-444 -748h-26l-109 873q-14 102 -91 106zM550 1133q119 37 222 94.5t166 120.5h30q47 -80 99 -131.5t130 -83.5l-6 -23q-27 5 -53 11.5t-44.5 11.5t-41 14t-34 13t-33.5 15t-28.5 14.5t-30 16.5 t-28.5 16q-188 -79 -340 -112z" />
<glyph unicode="&#x176;" horiz-adv-x="1106" d="M160 889l55 160q26 77 60.5 110t101.5 33q45 0 80.5 -18t62.5 -56.5t47.5 -87t36 -120t26.5 -144.5t22 -171q120 301 309 490q107 107 195 107q51 0 73.5 -28t19.5 -69q-3 -39 -28.5 -72.5t-69.5 -33.5q-35 0 -50 20.5t-13 50.5q3 52 53 98h-5q-46 -3 -91 -37 q-86 -62 -186 -201.5t-192 -361.5l-96 -383q-12 -48 -14 -73t10 -41t34.5 -21t67.5 -7l-8 -33q-83 5 -205 5q-137 0 -217 -5l9 33q86 4 117 28.5t53 113.5l97 385q-10 84 -20 151t-27 143.5t-36.5 128t-48 85.5t-61.5 34q-29 0 -47.5 -18t-31.5 -60l-46 -135h-37zM449 1298 q119 37 222 94.5t166 120.5h30q46 -79 98.5 -131t131.5 -84l-7 -23q-31 6 -58 12t-53 15.5t-41 14.5t-40.5 17.5t-32 15.5t-35.5 19t-32 18q-187 -78 -341 -112z" />
<glyph unicode="&#x177;" horiz-adv-x="1053" d="M132 723l55 161q27 77 60.5 110t100.5 33q42 0 74 -19.5t53.5 -51.5t40 -91t30.5 -117.5t27 -152.5l13 -81q115 251 281 413q100 100 195 100q51 0 73 -28t19 -69q-3 -40 -28 -73t-69 -33q-35 0 -50 20.5t-13 50.5q3 52 53 98h-5q-41 -3 -91 -37q-83 -62 -176.5 -186 t-179.5 -319l-71 -276q-12 -48 -14 -73t9.5 -41t34 -21t67.5 -7l-8 -33q-83 5 -205 5q-136 0 -216 -5l8 33q86 4 117 28.5t53 113.5l79 304q-50 457 -155 457q-29 0 -47.5 -17.5t-31.5 -59.5l-47 -136h-36zM365 1133q119 37 222 94.5t166 120.5h30q47 -80 99 -131.5 t130 -83.5l-6 -23q-27 5 -53 11.5t-44.5 11.5t-41 14t-34 13t-33.5 15t-28.5 14.5t-30 16.5t-28.5 16q-188 -79 -340 -112z" />
<glyph unicode="&#x178;" horiz-adv-x="1106" d="M160 889l55 160q26 77 60.5 110t101.5 33q45 0 80.5 -18t62.5 -56.5t47.5 -87t36 -120t26.5 -144.5t22 -171q120 301 309 490q107 107 195 107q51 0 73.5 -28t19.5 -69q-3 -39 -28.5 -72.5t-69.5 -33.5q-35 0 -50 20.5t-13 50.5q3 52 53 98h-5q-46 -3 -91 -37 q-86 -62 -186 -201.5t-192 -361.5l-96 -383q-12 -48 -14 -73t10 -41t34.5 -21t67.5 -7l-8 -33q-83 5 -205 5q-137 0 -217 -5l9 33q86 4 117 28.5t53 113.5l97 385q-10 84 -20 151t-27 143.5t-36.5 128t-48 85.5t-61.5 34q-29 0 -47.5 -18t-31.5 -60l-46 -135h-37zM515 1359 q0 39 34 73.5t77 34.5q34 0 58.5 -24.5t24.5 -58.5q0 -42 -33.5 -75.5t-77.5 -33.5q-37 0 -60 24t-23 60zM865 1359q0 39 34 73.5t77 34.5q34 0 58.5 -24.5t24.5 -58.5q0 -42 -33.5 -75.5t-77.5 -33.5q-37 0 -60 24t-23 60z" />
<glyph unicode="&#x179;" horiz-adv-x="1076" d="M-57.5 9.5q-1.5 10.5 5 23.5t20 26.5t39 28.5t59.5 28l464 455h-267l11 33h289l461 453q-149 -89 -286 -89q-70 0 -176 46t-177 46q-55 0 -83.5 -28.5t-28.5 -80.5q0 -97 118 -120l-6 -33q-74 13 -124.5 58.5t-50.5 132.5q0 89 54.5 146t145.5 57q45 0 86 -18t73 -44 l64 -52t72 -44t83 -18q63 0 114.5 17t129.5 57q39 55 80.5 81.5t65.5 6.5q8 -7 9.5 -17.5t-5 -23.5t-20 -26.5t-39 -28.5t-59.5 -28l-458 -450h251l-13 -33h-271l-467 -459q149 89 285 89q70 0 176.5 -46t177.5 -46q55 0 83.5 28.5t28.5 80.5q0 98 -119 121l7 33 q74 -13 124.5 -59t50.5 -133q0 -89 -54.5 -146t-145.5 -57q-45 0 -86 18t-73 44t-64 52.5t-72 44.5t-83 18q-63 0 -114.5 -17.5t-130.5 -57.5q-39 -55 -80.5 -81t-64.5 -6q-8 7 -9.5 17.5zM713 1293q90 61 188.5 137t135.5 98q18 11 39 16t41.5 -0.5t28.5 -24.5 q10 -24 -7.5 -48.5t-46.5 -40.5q-35 -21 -151.5 -64t-215.5 -91z" />
<glyph unicode="&#x17a;" horiz-adv-x="1080" d="M-67.5 9.5q-1.5 10.5 5 23.5t20 26.5t39 28.5t59.5 28l451 373h-188l11 33h217l446 370q-149 -89 -286 -89q-70 0 -176.5 46t-177.5 46q-55 0 -83.5 -28.5t-28.5 -80.5q0 -97 119 -120l-7 -33q-74 13 -124.5 58.5t-50.5 132.5q0 89 54.5 146t145.5 57q45 0 86 -18t73 -44 l64 -52t72 -44t83 -18q63 0 115 17.5t130 56.5q39 55 80 81t65 6q8 -7 9.5 -17t-5 -23t-20.5 -26.5t-39 -28.5t-59 -28l-442 -367h191l-13 -33h-218l-454 -377q151 90 286 90q70 0 176 -46.5t177 -46.5q55 0 83.5 28.5t28.5 80.5q0 98 -119 121l7 33q74 -13 124.5 -59 t50.5 -133q0 -89 -54.5 -146t-145.5 -57q-45 0 -86 18t-73 44t-64 52.5t-72 44.5t-83 18q-63 0 -113.5 -17.5t-130.5 -57.5q-39 -55 -81 -81t-65 -6q-8 7 -9.5 17.5zM606 1128q90 61 188.5 137t135.5 98q18 11 39 16t41.5 -0.5t28.5 -24.5q10 -24 -8 -48.5t-47 -40.5 q-35 -21 -151 -64t-215 -91z" />
<glyph unicode="&#x17b;" horiz-adv-x="1076" d="M-57.5 9.5q-1.5 10.5 5 23.5t20 26.5t39 28.5t59.5 28l464 455h-267l11 33h289l461 453q-149 -89 -286 -89q-70 0 -176 46t-177 46q-55 0 -83.5 -28.5t-28.5 -80.5q0 -97 118 -120l-6 -33q-74 13 -124.5 58.5t-50.5 132.5q0 89 54.5 146t145.5 57q45 0 86 -18t73 -44 l64 -52t72 -44t83 -18q63 0 114.5 17t129.5 57q39 55 80.5 81.5t65.5 6.5q8 -7 9.5 -17.5t-5 -23.5t-20 -26.5t-39 -28.5t-59.5 -28l-458 -450h251l-13 -33h-271l-467 -459q149 89 285 89q70 0 176.5 -46t177.5 -46q55 0 83.5 28.5t28.5 80.5q0 98 -119 121l7 33 q74 -13 124.5 -59t50.5 -133q0 -89 -54.5 -146t-145.5 -57q-45 0 -86 18t-73 44t-64 52.5t-72 44.5t-83 18q-63 0 -114.5 -17.5t-130.5 -57.5q-39 -55 -80.5 -81t-64.5 -6q-8 7 -9.5 17.5zM690 1363q0 45 36.5 84t86.5 39q38 0 61 -24.5t23 -62.5q0 -46 -37 -85t-87 -39 q-37 0 -60 25t-23 63z" />
<glyph unicode="&#x17c;" horiz-adv-x="1080" d="M-67.5 9.5q-1.5 10.5 5 23.5t20 26.5t39 28.5t59.5 28l451 373h-188l11 33h217l446 370q-149 -89 -286 -89q-70 0 -176.5 46t-177.5 46q-55 0 -83.5 -28.5t-28.5 -80.5q0 -97 119 -120l-7 -33q-74 13 -124.5 58.5t-50.5 132.5q0 89 54.5 146t145.5 57q45 0 86 -18t73 -44 l64 -52t72 -44t83 -18q63 0 115 17.5t130 56.5q39 55 80 81t65 6q8 -7 9.5 -17t-5 -23t-20.5 -26.5t-39 -28.5t-59 -28l-442 -367h191l-13 -33h-218l-454 -377q151 90 286 90q70 0 176 -46.5t177 -46.5q55 0 83.5 28.5t28.5 80.5q0 98 -119 121l7 33q74 -13 124.5 -59 t50.5 -133q0 -89 -54.5 -146t-145.5 -57q-45 0 -86 18t-73 44t-64 52.5t-72 44.5t-83 18q-63 0 -113.5 -17.5t-130.5 -57.5q-39 -55 -81 -81t-65 -6q-8 7 -9.5 17.5zM666 1197q0 46 36 85t86 39q38 0 61 -24.5t23 -62.5q0 -46 -37 -85t-87 -39q-37 0 -59.5 24.5t-22.5 62.5z " />
<glyph unicode="&#x17d;" horiz-adv-x="1076" d="M-57.5 9.5q-1.5 10.5 5 23.5t20 26.5t39 28.5t59.5 28l464 455h-267l11 33h289l461 453q-149 -89 -286 -89q-70 0 -176 46t-177 46q-55 0 -83.5 -28.5t-28.5 -80.5q0 -97 118 -120l-6 -33q-74 13 -124.5 58.5t-50.5 132.5q0 89 54.5 146t145.5 57q45 0 86 -18t73 -44 l64 -52t72 -44t83 -18q63 0 114.5 17t129.5 57q39 55 80.5 81.5t65.5 6.5q8 -7 9.5 -17.5t-5 -23.5t-20 -26.5t-39 -28.5t-59.5 -28l-458 -450h251l-13 -33h-271l-467 -459q149 89 285 89q70 0 176.5 -46t177.5 -46q55 0 83.5 28.5t28.5 80.5q0 98 -119 121l7 33 q74 -13 124.5 -59t50.5 -133q0 -89 -54.5 -146t-145.5 -57q-45 0 -86 18t-73 44t-64 52.5t-72 44.5t-83 18q-63 0 -114.5 -17.5t-130.5 -57.5q-39 -55 -80.5 -81t-64.5 -6q-8 7 -9.5 17.5zM492 1503l7 23q31 -6 58 -12t53 -15.5t41 -14.5t40.5 -17.5t32 -15.5t35.5 -19 t32 -18q188 79 340 112l9 -23q-119 -37 -222.5 -94.5t-166.5 -120.5h-29q-46 79 -98.5 131t-131.5 84z" />
<glyph unicode="&#x17e;" horiz-adv-x="1080" d="M-67.5 9.5q-1.5 10.5 5 23.5t20 26.5t39 28.5t59.5 28l451 373h-188l11 33h217l446 370q-149 -89 -286 -89q-70 0 -176.5 46t-177.5 46q-55 0 -83.5 -28.5t-28.5 -80.5q0 -97 119 -120l-7 -33q-74 13 -124.5 58.5t-50.5 132.5q0 89 54.5 146t145.5 57q45 0 86 -18t73 -44 l64 -52t72 -44t83 -18q63 0 115 17.5t130 56.5q39 55 80 81t65 6q8 -7 9.5 -17t-5 -23t-20.5 -26.5t-39 -28.5t-59 -28l-442 -367h191l-13 -33h-218l-454 -377q149 89 286 89q70 0 176 -46t177 -46q55 0 83.5 28.5t28.5 80.5q0 98 -119 121l7 33q74 -13 124.5 -59t50.5 -133 q0 -89 -54.5 -146t-145.5 -57q-45 0 -86 18t-73 44t-64 52.5t-72 44.5t-83 18q-63 0 -113.5 -17.5t-130.5 -57.5q-39 -55 -81 -81t-65 -6q-8 7 -9.5 17.5zM484 1338l7 23q31 -6 58 -12t53 -15.5t41 -14.5t40.5 -17.5t32 -15.5t35.5 -19t32 -18q188 79 340 112l8 -23 q-119 -37 -222 -94.5t-166 -120.5h-30q-47 80 -99 131.5t-130 83.5z" />
<glyph unicode="&#x192;" horiz-adv-x="769" d="M-170 -223q9 35 35.5 56.5t61.5 21.5q33 0 48.5 -22t6.5 -53q-6 -33 -43 -66q67 8 106.5 48t63.5 131l246 923h-201l8 33h203v2q41 151 77.5 227.5t97.5 130.5q91 83 218 83q87 0 130 -43t27 -104q-10 -36 -39.5 -60.5t-67.5 -24.5q-40 0 -59 22t-9 61q20 62 94 84 q-2 16 -23.5 28t-54.5 12q-75 0 -122 -61q-30 -35 -52.5 -102.5t-72.5 -252.5v-2h275l-8 -33h-277l-167 -626q-78 -289 -195 -400q-104 -100 -220 -100q-54 0 -75.5 25t-11.5 62z" />
<glyph unicode="&#x1f4;" horiz-adv-x="1164" d="M83 355q0 112 33 230t98 226t151 193.5t201 136.5t240 51q98 0 157.5 -27t113.5 -80q24 -27 46 -8.5t48 92.5h36q-53 -139 -105 -380h-37q9 77 9 124q0 74 -24 121q-34 60 -102 94.5t-152 34.5q-76 0 -146.5 -31.5t-125.5 -85.5t-102.5 -125t-81 -151t-57.5 -163 t-35.5 -161t-11.5 -145q0 -148 70.5 -219.5t215.5 -71.5q99 0 188 51q55 32 76 104l38 146q11 42 13.5 67.5t-2 44t-23 27.5t-43.5 13t-69 6l9 33q97 -5 231 -5q106 0 173 5l-8 -33q-56 -4 -76.5 -27.5t-45.5 -114.5l-88 -327h-33q8 28 3.5 61t-23.5 33q-17 0 -62 -28 q-139 -89 -281 -89q-202 0 -309 98t-107 280zM786 1293q90 61 188.5 137t135.5 98q18 11 39 16t41.5 -0.5t28.5 -24.5q10 -24 -8 -48.5t-47 -40.5q-35 -21 -151 -64t-215 -91z" />
<glyph unicode="&#x1f5;" horiz-adv-x="1151" d="M69 322q0 94 28.5 192.5t86.5 190t137.5 163.5t190 115.5t235.5 43.5q98 0 156.5 -27t113.5 -80q24 -27 46.5 -8.5t48.5 92.5h36q-53 -152 -106 -380h-36q8 69 8 124q0 76 -23 121q-34 60 -102 94.5t-152 34.5q-88 0 -165 -37t-131.5 -99t-97.5 -139t-68.5 -160 t-38.5 -158t-13 -137q0 -131 70.5 -194.5t215.5 -63.5q36 0 74 6.5t77.5 21t69.5 41.5t40 63l29 111q9 35 13 58t0.5 41t-11 28t-26.5 17t-41 9.5t-59 4.5l7 33q97 -5 233 -5q105 0 172 5l-7 -33q-59 -4 -79.5 -27.5t-45.5 -114.5l-73 -269h-33q8 23 3.5 50.5t-23.5 27.5 q-24 0 -87 -38q-102 -63 -256 -63q-203 0 -310 89.5t-107 255.5zM623 1128q90 61 188 137t135 98q18 11 39 16t41.5 -0.5t28.5 -24.5q10 -24 -7.5 -48.5t-46.5 -40.5q-35 -21 -151.5 -64t-215.5 -91z" />
<glyph unicode="&#x218;" horiz-adv-x="914" d="M-30 -12q55 130 113 397h33q-17 -96 -15 -134q11 -241 269 -241q113 0 178 51t65 155q0 56 -21 107t-55 91t-74.5 79t-81 79t-74.5 82.5t-55 98t-21 117.5q0 102 54.5 177t135.5 110t174 35q68 0 117 -16t97 -53q39 -30 55 -30q24 0 54 88h33q-59 -148 -97 -337h-33 q10 44 10 94q0 98 -58.5 160.5t-176.5 62.5q-104 0 -167.5 -53t-63.5 -157q0 -50 23 -99.5t60 -91t81.5 -83t89 -84.5t81.5 -86.5t60 -97t23 -108.5q0 -66 -25 -121t-66.5 -92t-96.5 -62.5t-113 -37t-117 -11.5q-61 0 -111.5 14t-73.5 27.5t-50 34.5q-31 25 -59 25 q-19 0 -33 -20t-35 -70h-33zM220 -221q0 40 29.5 73.5t77.5 33.5q42 0 66.5 -27t24.5 -69q0 -62 -34.5 -109t-127.5 -79l-12 28q45 13 82.5 41.5t40.5 64.5q-31 -27 -73 -27q-33 0 -53.5 18.5t-20.5 51.5z" />
<glyph unicode="&#x219;" horiz-adv-x="929" d="M-28 -12q53 125 112 397h33q-17 -96 -15 -134q8 -241 273 -241q111 0 175 43.5t64 133.5q0 44 -14.5 81t-45.5 69.5t-57.5 53.5t-73.5 53q-106 72 -141 107q-84 82 -84 187q0 135 109 212t259 77q68 0 114.5 -17t95.5 -52q42 -30 55 -30q24 0 54 88h33q-59 -148 -97 -337 h-33q10 44 10 92q0 99 -58 162t-180 63q-101 0 -164.5 -44.5t-63.5 -130.5q0 -42 15.5 -78t50 -69.5t65 -56t84.5 -57.5q51 -33 74 -49t61.5 -48t56 -57.5t32 -63t14.5 -78.5q0 -72 -38 -129t-100 -90t-133.5 -50.5t-145.5 -17.5q-62 0 -112 13.5t-72.5 27t-51.5 35.5 q-33 25 -58 25q-21 0 -34 -19t-35 -71h-33zM233 -221q0 40 29.5 73.5t77.5 33.5q42 0 66.5 -27t24.5 -69q0 -62 -34.5 -109t-127.5 -79l-11 28q45 13 82 41.5t40 64.5q-31 -27 -73 -27q-33 0 -53.5 18.5t-20.5 51.5z" />
<glyph unicode="&#x21a;" horiz-adv-x="1088" d="M164 1009q0 87 87 129q78 38 221 38q99 0 274 -23t270 -23q142 0 213 36q-41 41 -41 93q0 37 20.5 63.5t59.5 26.5q37 0 56 -22.5t19 -56.5q0 -72 -78 -119q-86 -54 -261 -54q-82 0 -168 11l-245 -916q-27 -95 -3.5 -126t127.5 -33l-6 -33q-97 5 -247 5q-153 0 -241 -5 l7 33q102 4 142 35.5t68 123.5l249 936q-131 18 -213 18q-142 0 -185 -28q30 -41 30 -96q0 -38 -21.5 -66.5t-61.5 -28.5q-35 0 -53.5 22t-18.5 60zM329 -221q0 40 29.5 73.5t77.5 33.5q42 0 66.5 -27t24.5 -69q0 -62 -34.5 -109t-127.5 -79l-12 28q45 13 82.5 41.5 t40.5 64.5q-31 -27 -73 -27q-33 0 -53.5 18.5t-20.5 51.5z" />
<glyph unicode="&#x21b;" horiz-adv-x="1009" d="M127 844q0 84 86 129q72 38 187 38q92 0 258.5 -23t251.5 -23q110 0 183 36q-41 41 -41 92q0 37 21 64t60 27q36 0 55 -22t19 -55q0 -68 -76 -123q-92 -53 -228 -53q-57 0 -140 9l-216 -748q-28 -91 -3.5 -124.5t127.5 -34.5l-7 -33q-97 5 -246 5q-153 0 -241 -5l6 33 q104 4 143.5 34t66.5 125l223 769q-146 20 -208 20q-106 0 -155 -28q29 -39 29 -96q0 -38 -21 -67t-61 -29q-34 0 -53.5 22.5t-19.5 60.5zM286 -221q0 40 29.5 73.5t77.5 33.5q42 0 66.5 -27t24.5 -69q0 -62 -34.5 -109t-127.5 -79l-12 28q45 13 82.5 41.5t40.5 64.5 q-31 -27 -73 -27q-33 0 -53.5 18.5t-20.5 51.5z" />
<glyph unicode="&#x237;" horiz-adv-x="455" d="M-244 -246q0 37 29 69t68 32q26 0 40.5 -14.5t14.5 -37.5q0 -42 -47 -89q63 8 100.5 47.5t63.5 131.5l229 816q16 55 11 78.5t-35 23.5q-33 0 -63 -38.5t-63 -130.5l-21 -61h-32l40 121q57 170 203 170q34 0 57 -8.5t34.5 -26t16 -37t1.5 -48.5t-8.5 -53.5t-14.5 -57.5 l-127 -451q-113 -407 -322 -484q-47 -17 -98 -17q-38 0 -57.5 17t-19.5 48z" />
<glyph unicode="&#x300;" d="M-163 1358.5q4 24.5 26 35.5q58 24 97 -46q20 -34 62.5 -144t88.5 -205l-22 -10q-62 87 -138.5 179.5t-97.5 126.5q-20 39 -16 63.5z" />
<glyph unicode="&#x301;" d="M-178 1004q68 81 141.5 181.5t105.5 132.5q27 31 56.5 36.5t47.5 -11.5q17 -14 12 -43t-36 -60q-28 -30 -128.5 -103.5t-182.5 -147.5z" />
<glyph unicode="&#x302;" d="M-461 1040q107 46 200.5 122.5t154.5 162.5h30q18 -104 63 -171t134 -114l-7 -23q-95 26 -157.5 67.5t-120.5 104.5q-148 -115 -289 -172z" />
<glyph unicode="&#x303;" d="M-444 1098q36 86 93.5 128t120.5 42q45 0 81.5 -19t57.5 -41t51 -41t63 -19q63 0 116 96l29 -9q-36 -86 -93.5 -128t-120.5 -42q-45 0 -81.5 19t-57.5 41.5t-51 41.5t-63 19q-63 0 -116 -96z" />
<glyph unicode="&#x304;" d="M-372 1135l10 41h516l-10 -41h-516z" />
<glyph unicode="&#x306;" d="M-411 1287l26 8q38 -78 84 -108.5t124 -30.5q81 0 176.5 39t165.5 106l17 -18q-63 -89 -179 -163.5t-208 -74.5q-86 0 -138 67.5t-68 174.5z" />
<glyph unicode="&#x307;" d="M-55 1136q0 46 36 86.5t87 40.5q38 0 61 -23.5t23 -60.5q0 -47 -36.5 -87t-87.5 -40q-37 0 -60 24t-23 60z" />
<glyph unicode="&#x308;" d="M-400 1120q0 39 34 73t77 34q35 0 59 -24t24 -58q0 -42 -33.5 -75.5t-77.5 -33.5q-37 0 -60 24t-23 60zM-50 1120q0 39 34 73t77 34q35 0 59 -24t24 -58q0 -42 -33.5 -75.5t-77.5 -33.5q-37 0 -60 24t-23 60z" />
<glyph unicode="&#x30a;" d="M-173 1136q0 72 52.5 121t127.5 49q61 0 101.5 -36.5t40.5 -95.5q0 -69 -56 -119.5t-129 -50.5q-60 0 -98.5 35.5t-38.5 96.5zM-130 1138q0 -47 29.5 -73t70.5 -26q53 0 94.5 39.5t41.5 97.5q0 44 -32 70t-74 26q-51 0 -90.5 -41t-39.5 -93z" />
<glyph unicode="&#x30b;" d="M-413 1004q53 83 104.5 183t75.5 131q23 31 52 36.5t47 -11.5q21 -17 22 -43.5t-22 -59.5q-24 -30 -108 -104t-153 -147zM-119 1004q53 83 104.5 183t75.5 131q23 31 52 36.5t47 -11.5q21 -17 22 -43.5t-22 -59.5q-24 -30 -108 -104t-153 -147z" />
<glyph unicode="&#x30c;" d="M-396 1301l6 24q95 -26 157.5 -67.5t120.5 -104.5q148 115 289 172l8 -24q-107 -46 -201 -122t-154 -162h-30q-18 104 -62.5 170.5t-133.5 113.5z" />
<glyph unicode="&#x326;" d="M-396 -221q0 40 29.5 73.5t77.5 33.5q42 0 66.5 -27t24.5 -69q0 -62 -34.5 -109t-127.5 -79l-12 28q45 13 82.5 41.5t40.5 64.5q-31 -27 -73 -27q-33 0 -53.5 18.5t-20.5 51.5z" />
<glyph unicode="&#x327;" d="M-520 -274l11 25q47 -22 99 -22q38 0 78.5 20.5t40.5 63.5q0 40 -46 40q-24 0 -51 -12l76 159h44l-56 -119q31 12 68 12q34 0 52.5 -17.5t18.5 -48.5q0 -66 -64 -102t-139 -36q-43 0 -79 11t-53 26z" />
<glyph unicode="&#x328;" d="M-509 -213q0 39 25 74.5t66.5 63t82 46.5t84.5 34h63q-72 -18 -133.5 -64.5t-61.5 -108.5q0 -63 63 -63q31 0 62 14t50 37l20 -18q-93 -113 -202 -113q-56 0 -87.5 27t-31.5 71z" />
<glyph unicode="&#x335;" d="M-457 1004l9 33h569l-10 -33h-568z" />
<glyph unicode="&#x337;" d="M-865 -99l191 233l18 -30l-186 -225zM-657 134l487 631l16 -28l-485 -633zM-154 765l169 203l21 -20l-173 -211z" />
<glyph unicode="&#x338;" d="M-1237 -97l239 254l22 -30l-233 -248zM-984 157l820 887l17 -33l-816 -884zM-152 1044l223 233l25 -22l-231 -244z" />
<glyph unicode="&#x394;" horiz-adv-x="933" d="M38 0l385 1192h26l319 -1192q-202 5 -363 5q-164 0 -367 -5zM88 50h502l-233 845z" />
<glyph unicode="&#x3a9;" horiz-adv-x="1314" d="M193 780q0 195 123.5 303.5t352.5 108.5t352.5 -108.5t123.5 -303.5q0 -84 -22.5 -161t-63.5 -147t-84.5 -131.5t-100.5 -145t-96 -157.5h79q121 0 172.5 60.5t65.5 215.5h38q-5 -50 -5 -119q0 -78 12 -195q-48 5 -169 5q-4 0 -234 -5v26q38 57 73 121.5t77 160.5t67 211 t25 228q0 205 -72.5 310.5t-237.5 105.5t-238 -106t-73 -310q0 -113 25 -228t67 -211t77.5 -160.5t73.5 -121.5v-26q-230 5 -234 5q-121 0 -169 -5q12 117 12 195q0 69 -5 119h38q14 -155 65.5 -215.5t172.5 -60.5h79q-39 74 -96 157.5t-100.5 145t-84.5 131.5t-63.5 147 t-22.5 161z" />
<glyph unicode="&#x3bc;" horiz-adv-x="1053" d="M-147 -258q0 12 3.5 23t7.5 19t15 21t18.5 21t25.5 26l29 29q114 116 179 234.5t100 292.5q68 344 78 377q30 89 107 89q64 0 50 -70q-6 -37 -76 -143.5t-103 -188.5q-31 -85 -41.5 -147t-5 -94t24.5 -50.5t36 -22.5t41 -4q90 0 160.5 48.5t131.5 157.5l20 64 q66 344 71 360q30 90 107 90q64 0 50 -70q-5 -27 -25 -62t-45.5 -70t-61 -105t-65.5 -156q-29 -102 -38 -134q-35 -123 60 -123q67 0 120.5 50t105.5 166l30 -7q-20 -55 -46 -110.5t-67 -123t-94.5 -110t-108.5 -42.5q-84 0 -84 96q0 41 25 135q-144 -231 -306 -231 q-121 0 -102 153q-87 -259 -162 -376q-41 -64 -107 -64q-29 0 -43.5 14t-14.5 38z" />
<glyph unicode="&#x3c0;" horiz-adv-x="1000" d="M31 31q0 24 13.5 46.5t27 34.5t53 41.5t58.5 44.5q46 36 74 65.5t64.5 85.5t68 144.5t61.5 215.5h-61q-73 0 -121.5 -15.5t-98 -66t-96.5 -145.5l-26 7q38 89 79.5 151t98 111t132 72.5t172.5 23.5h476l-25 -138h-289l-125 -432q-36 -123 59 -123q67 0 120.5 50 t105.5 166l30 -7q-15 -42 -33.5 -84.5t-50 -99.5t-64.5 -99.5t-77.5 -72.5t-89.5 -30q-127 0 -60 221l154 511h-179q-34 -148 -77.5 -274t-86.5 -207.5t-73.5 -129t-57.5 -77.5q-39 -44 -98 -44q-27 0 -42.5 14.5t-15.5 39.5z" />
<glyph unicode="&#x401;" horiz-adv-x="1007" d="M-58 0l8 33q86 4 116.5 28.5t54.5 113.5l219 819q10 38 13 61t0 39.5t-18 24.5t-35 11.5t-56 5.5l9 33q162 -5 479 -5q231 0 328 5q-40 -112 -62 -195q-20 -65 -24 -102h-38q17 96 13.5 153.5t-40.5 81.5t-124 24h-121q-85 0 -115.5 -23.5t-54.5 -113.5l-104 -390h109 q34 0 63 11.5t47.5 26.5t36 43t25.5 45.5t21.5 50t17.5 42.5h38q-24 -74 -68 -235q-20 -72 -52 -235h-38q1 8 3 23q15 100 3 136q-21 58 -107 59h-109l-106 -396q-13 -47 -15 -72.5t10.5 -41t35 -19.5t67.5 -4h120q78 0 130 14t92 51t67.5 88.5t59.5 138.5h38 q-17 -43 -37 -119q-24 -82 -44 -211q-112 5 -378 5q-318 0 -478 -5zM434 1359q0 39 34 73.5t77 34.5q35 0 59 -24.5t24 -58.5q0 -42 -33.5 -75.5t-77.5 -33.5q-37 0 -60 24t-23 60zM785 1359q0 39 33.5 73.5t76.5 34.5q35 0 59 -24.5t24 -58.5q0 -42 -33.5 -75.5 t-77.5 -33.5q-37 0 -59.5 23.5t-22.5 60.5z" />
<glyph unicode="&#x402;" horiz-adv-x="1322" d="M167 0l8 33q106 4 143 32t64 127l251 943q-86 11 -164 11q-134 0 -177 -28q30 -41 30 -96q0 -38 -21.5 -66.5t-61.5 -28.5q-35 0 -53.5 22t-18.5 60q0 87 87 129q78 38 222 38q100 0 274 -23t266 -23q114 0 167 36q-42 42 -42 93q0 37 21 63.5t60 26.5q37 0 56 -22.5 t19 -56.5q0 -72 -78 -119q-74 -54 -220 -54q-87 0 -218 18l-142 -535q61 46 149 76.5t178 30.5q127 0 200 -64.5t73 -189.5q0 -84 -34.5 -166.5t-93 -146.5t-143.5 -103.5t-180 -39.5q-80 0 -132.5 28.5t-52.5 86.5q0 47 32 81.5t82 34.5q31 0 49.5 -16t18.5 -45 q0 -38 -27.5 -70.5t-67.5 -46.5q19 -28 83 -28q73 0 134 40.5t98.5 104.5t57.5 137t20 144q0 114 -50.5 160t-137.5 46q-72 0 -146 -24.5t-120 -62.5l-150 -565q-74 23 -206 23q-46 0 -106 -5z" />
<glyph unicode="&#x403;" horiz-adv-x="878" d="M-58 0l8 33q86 4 116.5 28.5t54.5 113.5l219 819q10 38 13 61t0 39.5t-18 24.5t-35 11.5t-56 5.5l9 33q172 -5 219 -5q45 -1 95.5 -1t100 0.5t64.5 0.5q196 0 279 5q-35 -97 -68 -211q-14 -48 -31 -135h-38q30 173 5 240.5t-111 67.5h-104q-85 0 -115.5 -23.5 t-54.5 -113.5l-220 -819q-13 -47 -14 -73t15.5 -41.5t44 -20.5t83.5 -7l-8 -33q-97 5 -243 5q-133 0 -210 -5zM601 1293q90 61 188.5 137t135.5 98q18 11 39 16t41.5 -0.5t28.5 -24.5q10 -24 -8 -48.5t-47 -40.5q-35 -21 -151 -64t-215 -91z" />
<glyph unicode="&#x404;" horiz-adv-x="1111" d="M84 365q0 112 34.5 229.5t100 224t152 190.5t199.5 133.5t234 49.5q67 0 117 -17t73.5 -36t55.5 -54q15 -16 29 -13.5t29 26t33 71.5h35q-55 -144 -106 -380h-36q24 163 -17 245q-30 61 -88 95t-128 34q-108 0 -214.5 -84.5t-184 -216.5t-118.5 -284q40 62 99 96.5 t117 34.5q51 0 98.5 -21.5t78 -46.5t74.5 -46.5t91 -21.5q83 0 156 89l21 -15q-137 -170 -271 -170q-53 0 -100.5 21.5t-77.5 46.5t-74.5 46.5t-92.5 21.5q-74 0 -130 -86q-24 -106 -24 -197q0 -159 63 -241t174 -82q72 0 153 33.5t141 94.5q42 42 73.5 99.5t74.5 161.5h37 q-78 -283 -98 -396h-36q5 38 5 56q0 36 -14 41.5t-41 -13.5q-58 -37 -91.5 -55.5t-93 -35t-127.5 -16.5q-184 0 -284.5 99t-100.5 289z" />
<glyph unicode="&#x405;" horiz-adv-x="914" d="M-30 -12q55 130 113 397h33q-17 -96 -15 -134q11 -241 269 -241q113 0 178 51t65 155q0 56 -21 107t-55 91t-74.5 79t-81 79t-74.5 82.5t-55 98t-21 117.5q0 102 54.5 177t135.5 110t174 35q68 0 117 -16t97 -53q39 -30 55 -30q24 0 54 88h33q-59 -148 -97 -337h-33 q10 44 10 94q0 98 -58.5 160.5t-176.5 62.5q-104 0 -167.5 -53t-63.5 -157q0 -50 23 -99.5t60 -91t81.5 -83t89 -84.5t81.5 -86.5t60 -97t23 -108.5q0 -66 -25 -121t-66.5 -92t-96.5 -62.5t-113 -37t-117 -11.5q-61 0 -111.5 14t-73.5 27.5t-50 34.5q-31 25 -59 25 q-19 0 -33 -20t-35 -70h-33z" />
<glyph unicode="&#x406;" horiz-adv-x="563" d="M-55 0l9 33q84 4 114 28.5t53 113.5l218 819q22 91 4.5 114.5t-102.5 27.5l8 33q75 -5 210 -5q124 0 212 5l-9 -33q-87 -4 -117 -28.5t-53 -113.5l-218 -819q-22 -91 -4.5 -114.5t102.5 -27.5l-7 -33q-85 5 -210 5q-130 0 -210 -5z" />
<glyph unicode="&#x407;" horiz-adv-x="563" d="M-55 0l9 33q84 4 114 28.5t53 113.5l218 819q22 91 4.5 114.5t-102.5 27.5l8 33q75 -5 210 -5q124 0 212 5l-9 -33q-87 -4 -117 -28.5t-53 -113.5l-218 -819q-22 -91 -4.5 -114.5t102.5 -27.5l-7 -33q-85 5 -210 5q-130 0 -210 -5zM233 1359q0 39 34 73.5t77 34.5 q34 0 58 -24t24 -59q0 -42 -33.5 -75.5t-77.5 -33.5q-37 0 -59.5 23.5t-22.5 60.5zM583 1359q0 39 34 73.5t77 34.5q34 0 58 -24t24 -59q0 -42 -33 -75.5t-77 -33.5q-37 0 -60 24t-23 60z" />
<glyph unicode="&#x408;" horiz-adv-x="1050" d="M74 -220q-2 38 24.5 68t66.5 30q29 0 48.5 -19t21.5 -47q1 -28 -18 -51t-49 -37q24 -8 58 -8q27 0 50.5 8t42.5 21t37 35.5t31 44t26.5 55.5t22.5 61.5t21 70t19.5 72.5t19 77.5t19.5 77.5l50 194q19 74 46 138h-220l5 33h228q36 80 85 149.5t112 130.5t120 107t138 104 q-191 -99 -328 -99q-80 0 -202.5 46t-203.5 46q-55 0 -82 -28.5t-25 -80.5q3 -96 122 -120l-5 -33q-76 13 -128 58.5t-54 132.5q-4 89 48.5 146.5t143.5 57.5q50 0 97 -18t84.5 -44.5t74.5 -52.5t83 -44t95 -18q77 0 137.5 17t155.5 57q81 125 125 88q8 -7 10 -15.5t-4 -19 t-19.5 -21.5t-38 -24t-58.5 -26q-232 -154 -344 -496h164l-5 -33h-169q-10 -29 -18 -64l-102 -400q-48 -185 -146 -301.5t-244 -116.5q-75 0 -121.5 23.5t-47.5 67.5z" />
<glyph unicode="&#x409;" horiz-adv-x="1544" d="M-107 74q3 40 28 73t69 33q35 0 50 -20.5t13 -50.5q-1 -23 -16.5 -50t-36.5 -47h3q62 3 111 43q97 79 219 330.5t222 608.5q22 91 4.5 114.5t-102.5 27.5l9 33q58 -5 153 -5q11 0 56.5 2.5t90.5 2.5q70 0 139 -2.5t84 -2.5q133 0 213 5l-8 -33q-87 -4 -117 -28.5 t-53 -113.5l-99 -373h58q96 0 168 -8t130.5 -27t95.5 -50t56.5 -78t19.5 -110q0 -85 -43 -153.5t-114 -109.5t-157 -63t-178 -22q-38 0 -130.5 2.5t-153.5 2.5q-124 0 -201 -5l6 33q86 4 116.5 28.5t53.5 113.5l218 819q24 91 5.5 116.5t-102.5 25.5h-23q-80 0 -109.5 -26 t-52.5 -116q-81 -304 -206.5 -583t-244.5 -376q-70 -58 -147 -58q-103 0 -97 97zM796.5 68.5q14.5 -30.5 93.5 -30.5q210 0 304 84.5t94 250.5q0 76 -28 122.5t-100.5 72t-198.5 25.5h-44l-111 -418q-24 -76 -9.5 -106.5z" />
<glyph unicode="&#x40a;" horiz-adv-x="1656" d="M-53 0l8 33q84 4 114 28.5t53 113.5l218 819q22 91 5 114.5t-102 27.5l8 33q75 -5 210 -5q123 0 211 5l-8 -33q-87 -4 -117 -28.5t-53 -113.5l-104 -390h530l104 390q22 91 5 114.5t-102 27.5l8 33q75 -5 210 -5q123 0 211 5l-8 -33q-87 -4 -117 -28.5t-53 -113.5 l-104 -390h168q163 0 246 -61.5t83 -175.5q0 -72 -35 -133.5t-93.5 -103.5t-133.5 -72t-154 -44t-157 -14q-23 0 -76 2.5t-81 2.5q-130 0 -210 -5l8 33q84 4 114 28.5t53 113.5l106 396h-530l-106 -396q-12 -48 -14 -73t9.5 -41t34 -21t67.5 -7l-6 -33q-85 5 -210 5 q-130 0 -210 -5zM949.5 65q11.5 -30 69.5 -30q179 0 282 95.5t103 262.5q0 96 -49 137t-161 41h-129l-105 -396q-22 -80 -10.5 -110z" />
<glyph unicode="&#x40b;" horiz-adv-x="1336" d="M165 0l7 33q103 4 145 36t65 123l251 943q-83 11 -156 11q-142 0 -185 -28q30 -41 30 -96q0 -38 -21.5 -66.5t-61.5 -28.5q-35 0 -53.5 22t-18.5 60q0 87 87 129q78 38 222 38q99 0 273.5 -23t269.5 -23q111 0 164 36q-42 42 -42 93q0 37 21 63.5t60 26.5q37 0 56 -22.5 t19 -56.5q0 -72 -78 -119q-71 -54 -212 -54q-93 0 -226 18l-135 -507q57 32 140.5 55.5t161.5 23.5q143 0 208 -81q67 -82 22 -248l-53 -204q-18 -68 2.5 -93.5t89.5 -25.5l-8 -35q-133 7 -202 7q-63 0 -186 -7l8 35q63 0 93 26t49 93l58 209q18 63 20.5 109.5t-12.5 84.5 t-57.5 57.5t-112.5 19.5q-143 0 -228 -54l-104 -388q-27 -95 -3.5 -126t127.5 -33l-7 -33q-97 5 -246 5q-153 0 -241 -5z" />
<glyph unicode="&#x40c;" horiz-adv-x="1114" d="M-55 0l9 33q84 4 114 28.5t53 113.5l218 819q22 91 4.5 114.5t-102.5 27.5l8 33q75 -5 210 -5q124 0 212 5l-9 -33q-87 -4 -117 -28.5t-53 -113.5l-218 -819q-22 -91 -4.5 -114.5t102.5 -27.5l-7 -33q-85 5 -210 5q-130 0 -210 -5zM431 609q0 56 150 17q80 10 136.5 57 t87 113t52.5 133t50.5 131t63.5 94q48 38 99 38q54 0 77 -27t21 -70q-3 -38 -27.5 -72t-68.5 -34q-35 0 -51 21t-14 50q1 23 16.5 50.5t36.5 47.5h-5q-32 -2 -59 -23q-31 -29 -58 -92.5t-50 -130.5t-55 -133t-88 -113t-134 -57q46 -9 73.5 -21.5t53 -40t36 -79t7.5 -129.5 l-6 -187q-2 -44 7 -64t42 -20q41 0 69.5 30.5t52.5 98.5l28 84h33l-42 -127q-59 -177 -202 -177q-151 0 -139 191l12 187q6 110 -8.5 158.5t-51.5 77.5q-145 -36 -145 18zM723 1293q90 61 188.5 137t135.5 98q18 11 39 16t41.5 -0.5t28.5 -24.5q10 -24 -7.5 -48.5 t-46.5 -40.5q-35 -21 -151.5 -64t-215.5 -91z" />
<glyph unicode="&#x40d;" horiz-adv-x="1286" d="M-58 0l8 33q86 4 116.5 28.5t54.5 113.5l219 819q10 38 13 61t0 39.5t-18 24.5t-35 11.5t-56 5.5l9 33q77 -5 211 -5q125 0 210 5l-8 -33q-87 -4 -117.5 -28.5t-54.5 -113.5l-207 -766l780 779q11 42 12 65.5t-12 38t-34.5 19t-64.5 6.5l8 33q85 -5 210 -5q134 0 211 5 l-8 -33q-87 -4 -117.5 -28.5t-54.5 -113.5l-219 -819q-13 -47 -15.5 -72.5t9.5 -41.5t34 -21t67 -7l-8 -33q-77 5 -211 5q-125 0 -210 -5l8 33q87 4 117.5 28.5t54.5 113.5l206 768l-779 -779q-11 -43 -12 -67t11.5 -38.5t34.5 -19t65 -6.5l-8 -33q-85 5 -210 5 q-133 0 -210 -5zM576 1513.5q-7 24.5 9 52.5q23 22 54.5 14.5t54.5 -32.5q23 -24 78.5 -108.5t109.5 -152.5l-17 -17q-68 55 -151.5 114t-109.5 84q-21 21 -28 45.5z" />
<glyph unicode="&#x40e;" horiz-adv-x="1048" d="M88 68q-2 38 24 67.5t66 29.5q29 0 48.5 -19t21.5 -47q3 -55 -66 -87q27 -9 64 -9q79 0 134 41.5t115 130.5l-203 856q-13 53 -49.5 78t-69.5 27l9 33q72 -5 178 -5q118 0 198 5l-8 -33q-79 -4 -97.5 -29t1.5 -109l159 -650l419 650q24 38 34 60.5t7 41t-27.5 27 t-72.5 9.5l8 33q52 -5 152 -5q57 0 107 5l-8 -33q-31 -2 -69.5 -27.5t-72.5 -77.5l-502 -777q-29 -48 -41 -66t-38 -56.5t-41.5 -54t-42 -40t-49.5 -34t-54.5 -18t-65.5 -8.5q-75 0 -121 23.5t-47 67.5zM472 1377q0 45 33 75.5t78 30.5q33 0 52 -17.5t19 -51.5 q0 -35 -21.5 -61t-56.5 -38q41 -30 146 -30q238 0 419 170l23 -20q-93 -92 -210 -138.5t-244 -46.5q-40 0 -78 6t-75.5 19t-61 39.5t-23.5 62.5z" />
<glyph unicode="&#x40f;" horiz-adv-x="1246" d="M-56 0l8 33q87 4 117 28.5t53 113.5l218 819q12 48 14 73t-9.5 41t-34 21t-67.5 7l6 33q77 -5 212 -5q125 0 210 5l-7 -33q-86 -4 -116.5 -28.5t-53.5 -113.5l-218 -819q-24 -91 -5.5 -116.5t102.5 -25.5h271q79 0 108.5 26.5t53.5 115.5l218 819q12 48 14 73t-9.5 41 t-34 21t-67.5 7l6 33q85 -5 210 -5q130 0 210 5l-9 -33q-83 -4 -113 -28.5t-53 -113.5l-218 -819q-22 -91 -5 -114.5t102 -27.5l-8 -33q-75 5 -210 5q-56 0 -167 -3q-84 -8 -128.5 -64.5t-99.5 -201.5h-38q31 132 18 194.5t-92 71.5q-122 3 -175 3q-133 0 -213 -5z" />
<glyph unicode="&#x410;" horiz-adv-x="1038" d="M-144 0l9 33q75 17 165 144l712 1001h24l66 -1039q5 -54 28.5 -79t52.5 -27l-6 -33q-75 5 -180 5q-126 0 -198 -5l6 33q84 4 115 31t27 108l-15 271h-406l-124 -175q-60 -85 -72.5 -137t17 -74t100.5 -24l-9 -33q-102 5 -188 5q-66 0 -124 -5zM279 476h382l-28 500z" />
<glyph unicode="&#x411;" horiz-adv-x="1042" d="M-55 0l7 33q86 4 116.5 28.5t53.5 113.5l218 819q22 91 5 114.5t-102 27.5l8 33q153 -5 200 -5h274q238 0 342 5q-42 -110 -63 -195q-6 -24 -21 -102h-37q26 145 -3.5 202t-129.5 57h-154q-83 0 -113.5 -24t-53.5 -113l-99 -373h60q96 0 168 -8t130.5 -27t95.5 -50 t56.5 -78t19.5 -110q0 -85 -43 -153.5t-114 -109.5t-157 -63t-178 -22q-38 0 -130.5 2.5t-153.5 2.5q-125 0 -202 -5zM266.5 68.5q14.5 -30.5 93.5 -30.5q210 0 304 84.5t94 250.5q0 76 -28 122.5t-100.5 72t-198.5 25.5h-45l-110 -418q-24 -76 -9.5 -106.5z" />
<glyph unicode="&#x412;" horiz-adv-x="1043" d="M-55 0l7 33q86 4 116.5 28.5t53.5 113.5l218 819q12 48 14 79.5t-23 46.5t-88 16l8 33q75 -5 197 -5q37 0 113.5 2t118.5 2q153 0 232 -57t79 -155q0 -61 -29 -116.5t-78 -97t-107.5 -72.5t-124.5 -52q143 -23 207 -94.5t64 -175.5q0 -85 -43 -153.5t-114 -109.5 t-157 -63t-178 -22q-38 0 -130.5 2.5t-153.5 2.5q-125 0 -202 -5zM266.5 68.5q14.5 -30.5 93.5 -30.5q210 0 304 84.5t94 250.5q0 220 -236 220h-136l-110 -418q-24 -76 -9.5 -106.5zM393 621h109q145 0 235 95.5t90 228.5q0 98 -42.5 144.5t-135.5 46.5q-73 0 -102 -22.5 t-48 -94.5z" />
<glyph unicode="&#x413;" horiz-adv-x="878" d="M-58 0l8 33q86 4 116.5 28.5t54.5 113.5l219 819q10 38 13 61t0 39.5t-18 24.5t-35 11.5t-56 5.5l9 33q172 -5 219 -5q45 -1 95.5 -1t100 0.5t64.5 0.5q196 0 279 5q-35 -97 -68 -211q-14 -48 -31 -135h-38q30 173 5 240.5t-111 67.5h-104q-85 0 -115.5 -23.5 t-54.5 -113.5l-220 -819q-13 -47 -14 -73t15.5 -41.5t44 -20.5t83.5 -7l-8 -33q-97 5 -243 5q-133 0 -210 -5z" />
<glyph unicode="&#x414;" horiz-adv-x="1075" d="M-238 -314q29 76 38 103q49 145 68 244h119q60 0 114 43q95 79 213.5 325t210.5 593q13 47 15 73t-10 41.5t-34.5 20.5t-67.5 7l8 33q58 -5 154 -5q11 0 56.5 2.5t90.5 2.5q70 0 139 -2.5t84 -2.5q133 0 213 5l-9 -33q-87 -4 -117 -28.5t-53 -113.5l-218 -819 q-22 -91 -4 -116.5t102 -25.5h51q-37 -97 -73 -244q-5 -21 -21 -103h-37q53 319 -138 319q-22 0 -128 -2.5t-216 -2.5h-191q-193 0 -322 -314h-37zM91 33h370q79 0 108.5 26.5t53.5 115.5l218 819q24 91 5 116.5t-103 25.5h-23q-80 0 -109.5 -26t-52.5 -116 q-79 -299 -199.5 -571t-234.5 -367q-17 -14 -33 -23z" />
<glyph unicode="&#x415;" horiz-adv-x="1007" d="M-58 0l8 33q86 4 116.5 28.5t54.5 113.5l219 819q10 38 13 61t0 39.5t-18 24.5t-35 11.5t-56 5.5l9 33q162 -5 479 -5q231 0 328 5q-40 -112 -62 -195q-20 -65 -24 -102h-38q17 96 13.5 153.5t-40.5 81.5t-124 24h-121q-85 0 -115.5 -23.5t-54.5 -113.5l-104 -390h109 q34 0 63 11.5t47.5 26.5t36 43t25.5 45.5t21.5 50t17.5 42.5h38q-24 -74 -68 -235q-20 -72 -52 -235h-38q1 8 3 23q15 100 3 136q-21 58 -107 59h-109l-106 -396q-13 -47 -15 -72.5t10.5 -41t35 -19.5t67.5 -4h120q78 0 130 14t92 51t67.5 88.5t59.5 138.5h38 q-17 -43 -37 -119q-24 -82 -44 -211q-112 5 -378 5q-318 0 -478 -5z" />
<glyph unicode="&#x416;" horiz-adv-x="1564" d="M-71 129l25 11q34 -72 99 -72q33 0 51.5 19.5t40.5 64.5l96 187q39 77 74 126.5t74.5 78t74.5 41.5t91 24q-129 16 -129 164q0 52 20 158t20 144q0 83 -63 83h-5q13 -24 13 -53q0 -44 -34.5 -80t-79.5 -36q-51 0 -51 52q0 59 48 105t114 46q44 0 69 -26.5t25 -75.5 q0 -40 -21.5 -149t-21.5 -160q0 -67 29.5 -107t102.5 -48q35 12 58.5 14t34 -5.5t8.5 -23.5q-4 -33 -43 -33q-19 0 -71 13q-52 -29 -93.5 -80t-91.5 -156l-87 -187q-49 -104 -90 -147.5t-114 -43.5q-130 0 -173 152zM444 0l9 33q83 4 113 28.5t53 113.5l217 819q13 48 14 78 t-23.5 45t-86.5 19l8 33q75 -5 207 -5q126 0 214 5l-8 -33q-87 -4 -117 -28.5t-53 -113.5l-216 -819q-6 -23 -8.5 -34.5t-5.5 -28.5t-1.5 -24t5 -18t11.5 -15.5t20.5 -10t30.5 -8t43 -3.5l-6 -33q-85 5 -213 5q-127 0 -207 -5zM930 609q4 29 41 29q24 0 60 -12 q68 8 119 43.5t79.5 84t53 108t40.5 113.5t41.5 104t55.5 75q48 38 99 38q54 0 77 -27t21 -70q-3 -38 -27.5 -72t-68.5 -34q-35 0 -50.5 20.5t-13.5 50.5q1 23 16.5 50.5t36.5 47.5h-5q-33 -2 -60 -23q-31 -29 -58 -92.5t-50 -130.5t-55 -133t-88 -113t-134 -57 q46 -9 73.5 -21.5t53 -40t36 -79t7.5 -129.5l-6 -187q-2 -44 7 -64t42 -20q42 0 71 31t52 98l28 84h33l-43 -127q-59 -177 -202 -177q-150 0 -138 191l11 187q6 80 -4 136.5t-55 99.5q-30 -10 -63 -10q-37 0 -33 28z" />
<glyph unicode="&#x417;" horiz-adv-x="923" d="M-3 126q0 46 33.5 80.5t80.5 34.5q31 0 49 -16.5t18 -47.5q0 -37 -25.5 -67.5t-68.5 -41.5q10 -25 68 -44t124 -19q146 0 257 93.5t111 231.5q0 103 -62.5 182.5t-171.5 91.5q-57 -26 -85 -23q-14 2 -20.5 7.5t-5.5 17.5q2 26 40.5 28.5t60.5 -8.5q138 26 243 125.5 t105 224.5q0 80 -47 118.5t-125 38.5q-133 0 -220.5 -90t-142.5 -254h-36q75 242 96 380h34q-2 -13 -3 -22t-1.5 -25t2 -25.5t7.5 -17.5t16 -6.5t27 12.5q57 37 91 56t87.5 35t113.5 16q119 0 190 -52t71 -147q0 -75 -47 -142t-121 -112.5t-150 -75.5t-149 -44 q49 0 99 -10.5t97.5 -34t84 -56t59 -81t22.5 -105.5q0 -82 -46 -151t-121.5 -112.5t-168.5 -67.5t-190 -24q-157 0 -232 59q-48 39 -48 90z" />
<glyph unicode="&#x418;" horiz-adv-x="1286" d="M-58 0l8 33q86 4 116.5 28.5t54.5 113.5l219 819q10 38 13 61t0 39.5t-18 24.5t-35 11.5t-56 5.5l9 33q77 -5 211 -5q125 0 210 5l-8 -33q-87 -4 -117.5 -28.5t-54.5 -113.5l-207 -766l780 779q11 42 12 65.5t-12 38t-34.5 19t-64.5 6.5l8 33q85 -5 210 -5q134 0 211 5 l-8 -33q-87 -4 -117.5 -28.5t-54.5 -113.5l-219 -819q-13 -47 -15.5 -72.5t9.5 -41.5t34 -21t67 -7l-8 -33q-77 5 -211 5q-125 0 -210 -5l8 33q87 4 117.5 28.5t54.5 113.5l206 768l-779 -779q-11 -43 -12 -67t11.5 -38.5t34.5 -19t65 -6.5l-8 -33q-85 5 -210 5 q-133 0 -210 -5z" />
<glyph unicode="&#x419;" horiz-adv-x="1286" d="M-58 0l8 33q86 4 116.5 28.5t54.5 113.5l219 819q10 38 13 61t0 39.5t-18 24.5t-35 11.5t-56 5.5l9 33q77 -5 211 -5q125 0 210 5l-8 -33q-87 -4 -117.5 -28.5t-54.5 -113.5l-207 -766l780 779q11 42 12 65.5t-12 38t-34.5 19t-64.5 6.5l8 33q85 -5 210 -5q134 0 211 5 l-8 -33q-87 -4 -117.5 -28.5t-54.5 -113.5l-219 -819q-13 -47 -15.5 -72.5t9.5 -41.5t34 -21t67 -7l-8 -33q-77 5 -211 5q-125 0 -210 -5l8 33q87 4 117.5 28.5t54.5 113.5l206 768l-779 -779q-11 -43 -12 -67t11.5 -38.5t34.5 -19t65 -6.5l-8 -33q-85 5 -210 5 q-133 0 -210 -5zM550 1377q0 45 33 75.5t78 30.5q33 0 52 -17.5t19 -51.5q0 -35 -21.5 -61t-56.5 -38q41 -30 145 -30q239 0 420 170l23 -20q-93 -92 -210 -138.5t-244 -46.5q-40 0 -78 6t-75.5 19t-61 39.5t-23.5 62.5z" />
<glyph unicode="&#x41a;" horiz-adv-x="1114" d="M-55 0l9 33q84 4 114 28.5t53 113.5l218 819q22 91 4.5 114.5t-102.5 27.5l8 33q75 -5 210 -5q124 0 212 5l-9 -33q-87 -4 -117 -28.5t-53 -113.5l-218 -819q-22 -91 -4.5 -114.5t102.5 -27.5l-7 -33q-85 5 -210 5q-130 0 -210 -5zM431 609q0 56 150 17q80 10 136.5 57 t87 113t52.5 133t50.5 131t63.5 94q48 38 99 38q54 0 77 -27t21 -70q-3 -38 -27.5 -72t-68.5 -34q-35 0 -51 21t-14 50q1 23 16.5 50.5t36.5 47.5h-5q-32 -2 -59 -23q-31 -29 -58 -92.5t-50 -130.5t-55 -133t-88 -113t-134 -57q46 -9 73.5 -21.5t53 -40t36 -79t7.5 -129.5 l-6 -187q-2 -44 7 -64t42 -20q41 0 69.5 30.5t52.5 98.5l28 84h33l-42 -127q-59 -177 -202 -177q-151 0 -139 191l12 187q6 110 -8.5 158.5t-51.5 77.5q-145 -36 -145 18z" />
<glyph unicode="&#x41b;" horiz-adv-x="1095" d="M-107 74q3 40 28 73t69 33q35 0 50 -20.5t13 -50.5q-1 -23 -16.5 -50t-36.5 -47h5q55 3 109 43q97 79 219 330.5t222 608.5q22 91 4.5 114.5t-102.5 27.5l9 33q58 -5 153 -5q11 0 56.5 2.5t90.5 2.5q70 0 139 -2.5t84 -2.5q133 0 213 5l-8 -33q-87 -4 -117 -28.5 t-53 -113.5l-218 -819q-12 -48 -14 -73t9.5 -41t34 -21t67.5 -7l-6 -33q-77 5 -212 5q-124 0 -209 -5l6 33q86 4 116.5 28.5t53.5 113.5l218 819q24 91 5.5 116.5t-102.5 25.5h-23q-80 0 -109.5 -26t-52.5 -116q-81 -304 -206.5 -583t-244.5 -376q-70 -58 -147 -58 q-103 0 -97 97z" />
<glyph unicode="&#x41c;" horiz-adv-x="1433" d="M-56 0l8 33q84 4 117 35t57 124l214 802q22 91 5 114.5t-102 27.5l8 33q58 -5 147 -5q82 0 145 5l91 -979l621 974h80q118 0 206 5l-8 -33q-87 -4 -117 -28.5t-53 -113.5l-218 -819q-22 -91 -5 -114.5t102 -27.5l-7 -33q-85 5 -204 5q-138 0 -215 -5l7 33q87 4 117 28.5 t53 113.5l239 890l-685 -1073h-37l-112 1087l-234 -887q-25 -91 -4 -123t114 -36l-8 -33q-63 5 -167 5q-92 0 -155 -5z" />
<glyph unicode="&#x41d;" horiz-adv-x="1246" d="M-55 0l9 33q84 4 114 28.5t53 113.5l218 819q22 91 4.5 114.5t-102.5 27.5l8 33q75 -5 210 -5q124 0 212 5l-9 -33q-87 -4 -117 -28.5t-53 -113.5l-104 -390h530l104 390q13 47 15 73t-10 41.5t-34.5 20.5t-67.5 7l8 33q83 -5 208 -5q133 0 213 5l-8 -33 q-87 -4 -117 -28.5t-53 -113.5l-218 -819q-12 -48 -14 -73t9.5 -41t34 -21t67.5 -7l-6 -33q-77 5 -212 5q-124 0 -209 -5l6 33q86 4 116.5 28.5t53.5 113.5l106 396h-530l-106 -396q-22 -91 -4.5 -114.5t102.5 -27.5l-7 -33q-85 5 -210 5q-130 0 -210 -5z" />
<glyph unicode="&#x41e;" horiz-adv-x="1204" d="M89 373q0 110 31 225t92 221t143 189.5t192 133.5t231 50q184 0 287 -104t103 -294q0 -109 -31.5 -224t-93 -220.5t-143.5 -189t-192.5 -133.5t-230.5 -50q-184 0 -286 103.5t-102 292.5zM264 352q0 -160 63 -252.5t165 -92.5q93 0 185.5 71.5t160.5 184.5t110.5 261 t42.5 294q0 160 -63 252.5t-165 92.5q-93 0 -185.5 -71.5t-160.5 -184.5t-110.5 -261t-42.5 -294z" />
<glyph unicode="&#x41f;" horiz-adv-x="1248" d="M-53 0l8 33q84 4 114 28.5t53 113.5l218 819q22 91 5 114.5t-102 27.5l8 33q75 -5 210 -5q22 0 127.5 2.5t215.5 2.5t214 -2.5t125 -2.5q133 0 213 5l-8 -33q-87 -4 -117 -28.5t-53 -113.5l-218 -819q-12 -48 -14 -73t9.5 -41t34 -21t67.5 -7l-7 -33q-77 5 -211 5 q-125 0 -210 -5l7 33q86 4 116.5 28.5t53.5 113.5l218 819q24 91 5.5 116.5t-102.5 25.5h-271q-79 0 -108.5 -26.5t-53.5 -115.5l-218 -819q-12 -48 -14 -73t9.5 -41t34 -21t67.5 -7l-6 -33q-85 5 -210 5q-130 0 -210 -5z" />
<glyph unicode="&#x420;" horiz-adv-x="972" d="M-55 0l7 33q86 4 116.5 28.5t53.5 113.5l218 819q25 78 7.5 109.5t-104.5 32.5l8 33q75 -5 203 -5q39 0 119 2t122 2q162 0 245.5 -67t83.5 -183q0 -128 -78 -230.5t-220.5 -160.5t-324.5 -58h-49l-78 -294q-7 -27 -10 -40.5t-5 -31.5t1 -26t10 -18.5t20.5 -14.5t33.5 -7 t48 -4l-7 -33q-85 5 -205 5q-138 0 -215 -5zM362 502h56q119 0 206 34t137 96t73 139.5t23 173.5q0 98 -50 144.5t-160 46.5q-72 0 -102 -28.5t-53 -113.5z" />
<glyph unicode="&#x421;" horiz-adv-x="1106" d="M84 365q0 112 34.5 229.5t100 224t152 190.5t199.5 133.5t234 49.5q67 0 117 -17t73.5 -36t55.5 -54q15 -16 29 -13.5t29 26t33 71.5h35q-55 -144 -106 -380h-36q24 163 -17 245q-30 61 -88 95t-128 34q-103 0 -206 -78.5t-178 -199.5t-121.5 -270t-46.5 -285 q0 -159 63 -241t174 -82q72 0 153 33.5t141 94.5q42 42 73.5 99.5t74.5 161.5h37q-78 -283 -98 -396h-36q5 38 5 56q0 36 -14 41.5t-41 -13.5q-58 -37 -91.5 -55.5t-93 -35t-127.5 -16.5q-184 0 -284.5 99t-100.5 289z" />
<glyph unicode="&#x422;" horiz-adv-x="1088" d="M164 1009q0 87 87 129q78 38 221 38q99 0 274 -23t270 -23q142 0 213 36q-41 41 -41 93q0 37 20.5 63.5t59.5 26.5q37 0 56 -22.5t19 -56.5q0 -72 -78 -119q-86 -54 -261 -54q-82 0 -168 11l-245 -916q-27 -95 -3.5 -126t127.5 -33l-6 -33q-97 5 -247 5q-153 0 -241 -5 l7 33q102 4 142 35.5t68 123.5l249 936q-131 18 -213 18q-142 0 -185 -28q30 -41 30 -96q0 -38 -21.5 -66.5t-61.5 -28.5q-35 0 -53.5 22t-18.5 60z" />
<glyph unicode="&#x423;" horiz-adv-x="1048" d="M88 68q-2 38 24 67.5t66 29.5q29 0 48.5 -19t21.5 -47q3 -55 -66 -87q27 -9 64 -9q79 0 134 41.5t115 130.5l-203 856q-13 53 -49.5 78t-69.5 27l9 33q72 -5 178 -5q118 0 198 5l-8 -33q-79 -4 -97.5 -29t1.5 -109l159 -650l419 650q24 38 34 60.5t7 41t-27.5 27 t-72.5 9.5l8 33q52 -5 152 -5q57 0 107 5l-8 -33q-31 -2 -69.5 -27.5t-72.5 -77.5l-502 -777q-29 -48 -41 -66t-38 -56.5t-41.5 -54t-42 -40t-49.5 -34t-54.5 -18t-65.5 -8.5q-75 0 -121 23.5t-47 67.5z" />
<glyph unicode="&#x424;" horiz-adv-x="1547" d="M58 441q0 75 34.5 147.5t104.5 137t167.5 113.5t232.5 77.5t290 28.5h23q92 101 309 221q-200 -99 -357 -99q-56 0 -105 14.5t-83.5 35.5t-65.5 42t-62.5 35.5t-61.5 14.5q-34 0 -52.5 -16t-18.5 -45q0 -39 38 -69l-23 -27q-63 41 -63 109q0 61 46 96t122 35 q60 0 123.5 -25t110 -55.5t108.5 -55.5t119 -25q81 0 238 58q81 126 126 88q11 -13 8.5 -28t-33 -36t-86.5 -42q-148 -99 -230 -231q240 -19 370.5 -108.5t130.5 -235.5q0 -90 -51.5 -176.5t-146 -157t-243 -116t-327.5 -52.5q-112 -405 -393 -405q-68 0 -114 23t-48 68 q-2 37 25 67.5t66 30.5q29 0 48 -19t21 -47q1 -28 -17.5 -51t-48.5 -37q24 -8 56 -8q37 0 68 13.5t55 41.5t42.5 58.5t35.5 79.5t28 87.5t26 97.5q-259 14 -400.5 104.5t-141.5 242.5zM235 426q0 -272 373 -300q7 33 28 113l86 321q63 232 162 355h-4q-315 0 -480 -131.5 t-165 -357.5zM758 124q284 13 433.5 143.5t149.5 343.5q0 134 -89.5 207.5t-252.5 89.5q-61 -106 -105 -274z" />
<glyph unicode="&#x425;" horiz-adv-x="1154" d="M-55 74q4 40 29 73t69 33q35 0 50.5 -21t12.5 -50q-2 -24 -16.5 -51t-36.5 -46h6q59 3 105 34q85 56 189 185.5t194 316.5l-43 365q-22 189 -131 189q-48 0 -78 -30t-54 -99l-28 -84h-33l43 127q59 176 201 176q57 0 98.5 -22t65 -62t35.5 -80.5t18 -92.5l30 -256 q64 140 152 266.5t165 189.5q75 57 152 57q55 0 78 -27.5t19 -69.5q-5 -41 -29 -73.5t-68 -32.5q-35 0 -50.5 21t-12.5 50q2 24 16.5 51.5t36.5 46.5h-5q-59 0 -106 -35q-74 -54 -166 -182t-176 -310l43 -375q22 -188 131 -188q48 0 78 30t54 99l28 84h33l-43 -127 q-59 -177 -202 -177q-46 0 -82.5 15.5t-58.5 40t-38.5 60t-24 68.5t-12.5 74l-30 259q-65 -137 -166.5 -266t-191.5 -193q-76 -58 -152 -58q-55 0 -78.5 27.5t-19.5 69.5z" />
<glyph unicode="&#x426;" horiz-adv-x="1256" d="M-56 0l8 33q87 4 117 28.5t53 113.5l218 819q12 48 14 73t-9.5 41t-34 21t-67.5 7l6 33q77 -5 212 -5q125 0 210 5l-7 -33q-86 -4 -116.5 -28.5t-53.5 -113.5l-218 -819q-24 -91 -5.5 -116.5t102.5 -25.5h271q79 0 108.5 26.5t53.5 115.5l218 819q12 48 14 73t-9.5 41 t-34 21t-67.5 7l6 33q85 -5 210 -5q130 0 210 5l-9 -33q-83 -4 -113 -28.5t-53 -113.5l-218 -819q-23 -91 -5 -116.5t102 -25.5h51q-34 -89 -72 -244q-10 -38 -22 -103h-36q53 319 -139 319q-22 0 -128 -2.5t-216 -2.5t-213.5 2.5t-124.5 2.5q-133 0 -213 -5z" />
<glyph unicode="&#x427;" horiz-adv-x="1096" d="M187 1135l8 34q114 -6 201 -6q82 0 187 6l-8 -34q-63 0 -93 -26t-49 -93l-73 -260q-21 -80 -20.5 -140t45.5 -95t137 -35q137 0 229 52l123 456q10 38 13 61t0 39.5t-18 24.5t-35 11.5t-56 5.5l8 33q77 -5 212 -5q124 0 209 5l-8 -33q-87 -4 -117.5 -28.5t-54.5 -113.5 l-219 -819q-13 -47 -15.5 -72.5t9.5 -41.5t34 -21t67 -7l-8 -33q-77 5 -211 5q-146 0 -243 -5l8 33q107 4 144 28.5t61 113.5l89 335q-54 -31 -138.5 -54t-163.5 -23q-143 0 -208 81q-67 81 -22 247l68 255q18 68 -2.5 93.5t-89.5 25.5z" />
</font>
</defs>
</svg>
